<svg xmlns="http://www.w3.org/2000/svg" viewBox="0 0 1500 720"><defs><style>.cls-1{opacity:0.1;}.cls-2{fill:#e1f0ff;}</style></defs><g id="Layer_1" data-name="Layer 1"><g class="cls-1"><path class="cls-2" d="M571.35,269.5c-1.45-8.4-13.18-9.25-21.49-7.36s-19.35,3.24-23.17-4.38c-2.27-4.51-.49-10.08-2-14.91-2.35-7.62-11.93-10.6-19.8-9.36s-15,5.37-22.75,7.23-17.34.6-21.41-6.25-.87-15.41-2.08-23.17c-2.52-16.19-23.95-23.2-39.2-17.2s-25.45,20.18-35,33.48S363.73,262.42,339,269.5Z"/></g><g class="cls-1"><path class="cls-2" d="M907.27,130.64c-1.45-8.4-13.18-9.25-21.49-7.36s-19.35,3.24-23.17-4.38c-2.27-4.51-.49-10.08-2-14.91-2.35-7.62-11.93-10.6-19.8-9.36s-15,5.37-22.75,7.23-17.33.6-21.41-6.25-.87-15.41-2.08-23.17c-2.52-16.19-24-23.19-39.2-17.2s-25.44,20.18-35,33.48-20.71,34.85-45.43,41.92Z"/></g><g class="cls-1"><path class="cls-2" d="M1562.69,292.17c-1.45-8.4-13.18-9.26-21.49-7.36s-19.35,3.24-23.17-4.38c-2.27-4.52-.49-10.09-2-14.92-2.35-7.61-11.93-10.59-19.8-9.36s-15,5.38-22.75,7.23-17.33.6-21.41-6.24-.87-15.42-2.08-23.18c-2.52-16.19-24-23.19-39.2-17.19s-25.44,20.18-35,33.48-20.71,34.84-45.43,41.92Z"/></g></g></svg>