<svg xmlns="http://www.w3.org/2000/svg" xmlns:xlink="http://www.w3.org/1999/xlink" viewBox="0 0 5000 720"><defs><style>.cls-1{fill:none;}.cls-2{isolation:isolate;}.cls-3{clip-path:url(#clip-path);}.cls-4,.cls-8{fill:#337a8f;}.cls-5,.cls-7{fill:#1a586f;}.cls-6{fill:#90c5d1;}.cls-14,.cls-7,.cls-8{fill-rule:evenodd;}.cls-9{opacity:0.44;}.cls-10{fill:url(#linear-gradient);}.cls-11,.cls-12{opacity:0.25;}.cls-12{mix-blend-mode:multiply;}.cls-13{fill:#e1f0ff;}.cls-14{fill:#2a6678;}.cls-15{fill:url(#linear-gradient-2);}.cls-16{fill:url(#linear-gradient-3);}</style><clipPath id="clip-path"><rect class="cls-1" width="5000" height="720"/></clipPath><linearGradient id="linear-gradient" x1="682.14" y1="720.26" x2="682.14" y2="604.7" gradientUnits="userSpaceOnUse"><stop offset="0" stop-color="#1c406b"/><stop offset="0.19" stop-color="#1b496c"/><stop offset="0.63" stop-color="#1a586f"/></linearGradient><linearGradient id="linear-gradient-2" x1="4047.41" y1="720.26" x2="4047.41" y2="622.51" gradientTransform="matrix(-1, 0, 0, 1, 8094.83, 0)" gradientUnits="userSpaceOnUse"><stop offset="0" stop-color="#1c406b"/><stop offset="0.31" stop-color="#1b496c"/><stop offset="1" stop-color="#1a586f"/></linearGradient><linearGradient id="linear-gradient-3" x1="2296.54" y1="719.38" x2="2296.54" y2="674.49" xlink:href="#linear-gradient"/></defs><g class="cls-2"><g id="Layer_1" data-name="Layer 1"><g class="cls-3"><path class="cls-4" d="M971.41,582a20.44,20.44,0,0,1,.83-6,72.71,72.71,0,0,1,15.92-1.69c5.8,0,11.69,2.28,17.74,3.55a43.89,43.89,0,0,0,2.39,4.11s3.09-7.7,10.59,6.56c15.57,29.61,45.38,80.17,81.47,111H995.93C963.13,674.39,971.41,582,971.41,582Z"/><path class="cls-5" d="M967.47,557.26c-56.94,0-78.91,63.74-78.91,142.36h157.82C1046.38,621,1027.13,557.26,967.47,557.26Z"/><path class="cls-4" d="M961.61,561.82H880.85s4.38,73.5,4.38,137.8H1038C1038,623.52,1019.36,561.82,961.61,561.82Z"/><path class="cls-5" d="M1032.53,620.49A91.86,91.86,0,0,1,931.35,574l-10,75.17c1.83,15.28,3.75,30.85,10.14,44.86.86,1.89,1.83,3.76,2.88,5.57H1042.1C1042.1,670.17,1039.3,642.88,1032.53,620.49Z"/><path class="cls-6" d="M932.83,562.51c6.36-3.21,13-6.49,20.16-6.42,5.75.06,11.23,2.31,16.54,4.52a3.49,3.49,0,0,1,2.14,1.68c.48,1.25-.71,2.62-2,2.91a8.5,8.5,0,0,1-3.94-.5c-13.3-3.51-27.89,3.22-41-1.09-1.71-.56-3.69-2.2-2.79-3.75.66-1.12,2.27-1.05,3.55-.84l12.05,2"/><path class="cls-5" d="M905.57,557.26c-56.94,0-78.91,63.74-78.91,142.36H984.48C984.48,621,965.23,557.26,905.57,557.26Z"/><path class="cls-4" d="M899.71,561.82H819s4.38,73.5,4.38,137.8H976.1C976.1,623.52,957.46,561.82,899.71,561.82Z"/><path class="cls-5" d="M966.53,620.49A91.86,91.86,0,0,1,865.35,574l-10,75.17c1.83,15.28,3.75,30.85,10.14,44.86.86,1.89,1.83,3.76,2.88,5.57H976.1C976.1,670.17,973.3,642.88,966.53,620.49Z"/><path class="cls-6" d="M847.25,557.18c7.32-5.53,18-2,26.69-5.09,5.24-1.88,10-6.26,15.51-5.46,7.29,1.06,11,10.56,18.26,11.72,1.69.27,3.42,0,5.11.32s3.44,1.25,3.86,2.9c.53,2.1-1.46,4.14-3.59,4.54s-4.27-.33-6.34-1a63.49,63.49,0,0,0-18.32-2.61c-12,.05-24.77,3.33-35.34-2.28"/><path class="cls-5" d="M842.84,557.26c-39.89,0-62.62,31.28-72.65,77-4.29,19.56-10.84,38.32-34.4,65.32h186C921.75,621,902.5,557.26,842.84,557.26Z"/><path class="cls-7" d="M946.05,596.6a13.26,13.26,0,0,0,1.31,1.35l1,1.44c.32.5.64,1,1,1.5l1.88,3,1.67,3.06c.27.51.57,1,.83,1.52l.74,1.57,1.47,3.13,1.29,3.24c.91,2.14,1.55,4.4,2.3,6.67s1.15,4.4,1.71,6.68,1,4.63,1.41,7c.23,1.27.74,2.94,1,4.21,1.73,9.55,2.11,19.73,2.68,29.81.08,1.68.29,3.23.36,4.94.05,2.53,0,5.05,0,7.57l.81-.81c-2.78-.07-5.55-.14-8.33-.14-.87,0-2.15.21-3.11.21-1.65,0-3.23-.06-4.9,0l-21.1.35.43.43c-.1-3.7-.13-7-.29-10.34-.32-8.1-1-16-2.09-23.94-.34-2.52-.68-5.09-1-7.64s-.7-5.08-1.15-7.5c-2-7.33-3.77-15.09-6.5-21.8a66.93,66.93,0,0,0-3.19-6.56l-.88-1.64-.43-.83-.49-.81c-.64-1.07-1.27-2.17-1.85-3.29a14.64,14.64,0,0,1-2.43-2.91l-1-1.24-1.08-1.18-2.21-2.44-.43,1c7.2.05,14.77.2,21.69.1,5.38-.08,13.84-.18,15.88-1a17.91,17.91,0,0,0-3.95-.6c-2.46,0-4.56.31-7,.38-2.11.07-4.85,0-7.44,0-6.79.12-11.22-.14-16.64-.14-.84,0-1.68,0-2.5,0l-1.36,0,.94,1c1.1,1.15,2.2,2.23,3.17,3.29a19.54,19.54,0,0,1,2.17,3.25c4.87,6.11,8.16,13.56,10.63,21.37a180.89,180.89,0,0,1,5.53,24.76c.2,1.23.41,2.52.59,3.85s.32,2.71.49,4.11c.36,2.78.54,5.67.84,8.48.21,2.37.44,4.41.59,6.75.13,2.76.25,5.39.36,7.94s.12,5,.18,7.47v.44H930l3.64,0c12.34-.11,23.94-.08,33.8-.39h0c0-.46,0-.89-.06-1.3a210.09,210.09,0,0,0-3.24-42.79c-.25-1.41-.55-2.47-.76-3.64-.17-.86,0-1-.14-1.8-.11-.58-.65-1.83-.76-2.4a36.32,36.32,0,0,0-.6-3.59c-.34-1.25-.69-2.51-1-3.78s-.82-2.52-1.24-3.79-.84-2.55-1.37-3.8l-1.51-3.81c-.82-1.74-1.73-3.4-2.52-5s-1.6-3.14-2.5-4.77l-1.44-2.4a21.88,21.88,0,0,0-1.49-2.32l-1.56-2.12-.75-1c-.26-.31-.55-.6-.82-.88a24.48,24.48,0,0,0-2.78-2.55c-.1.49.43,1.27,1.12,2.17A13.89,13.89,0,0,1,946.05,596.6Z"/><path class="cls-7" d="M1137.7,693.15a4.47,4.47,0,0,0-.54.93c-1.63,1.67-3.13,3.35-4.59,5l1.09-.05c-2.2-2-4.41-3.87-6.6-6-1.81-1.72-3.61-3.69-5.55-5.5-.53-.5-1.37-1-1.91-1.5-4-3.63-7.79-7.85-12-11.57-.71-.62-1.45-1.09-2.15-1.73-2.17-2-4.13-4.21-6.29-6.22-.35-.33-1-.66-1.41-1-.68-.61-1.27-1.27-2-1.89-4.73-4.22-8.91-7.78-13.07-11.57-3.33-3-6.68-5.91-9.94-8.9-2.09-1.9-4.13-4-6-6.05-3.35-2.57-6.26-5.92-9.08-8.74-1.84-1.84-4.09-3.52-5.79-5.74-.61,0-1.2-.84-1.66-1.26-3.75-3.41-7.66-7.46-11.38-10.78-2.24-2-5.75-5.16-7.06-5.12a6.81,6.81,0,0,0,1.25,2c1,.91,2,1.42,3.07,2.28s2,1.82,3,2.76c2.82,2.46,4.45,4.33,6.63,6.37,1.67,1.57,3.59,2.75,4.42,4.25,6.8,5.53,12.74,12.5,20.06,19,2.08,1.85,4.45,4.14,6.81,6.22,1,.88,1.92,1.56,2.89,2.45,2.79,2.56,5.32,4.76,7.88,7.08,5.3,4.79,10.17,9.39,14.54,13,5.23,5.53,11.47,11,17.28,16.44.57.54,1.08.89,1.56,1.34s.24.55.55.87,1,.55,1.17.78c.53.55.68,1,1.29,1.58,2.09,2,4.31,3.92,6.56,6,.73.66,1.54,1.21,2.23,1.82l.09.07.07-.08.15-.17c2.5-2.78,6.41-6,7.29-8.13C1139.92,690.86,1138.9,692.6,1137.7,693.15Z"/><path class="cls-7" d="M709.19,694.32a3.71,3.71,0,0,0,.83.58c1.56,1.85,3.16,3.55,4.76,5.23l.58.6.52-.6c1.69-1.89,3.34-3.8,5.15-5.68,1.62-1.7,3.48-3.39,5.18-5.21.46-.49.94-1.29,1.39-1.79,3.41-3.76,7.39-7.3,10.87-11.28.58-.66,1-1.37,1.62-2,1.88-2,4-3.87,5.85-5.9.31-.33.61-1,.95-1.33.57-.64,1.19-1.19,1.77-1.84,4-4.45,7.29-8.38,10.85-12.29,2.83-3.12,5.53-6.28,8.33-9.35a76.7,76.7,0,0,1,5.71-5.57c2.39-3.17,5.55-5.87,8.2-8.51,1.74-1.73,3.3-3.85,5.4-5.43,0-.59.79-1.14,1.18-1.57,3.19-3.52,7-7.18,10.12-10.68,1.88-2.11,4.84-5.4,4.76-6.67a6.08,6.08,0,0,0-1.94,1.15c-.86.93-1.32,1.91-2.13,2.9s-1.7,1.85-2.58,2.86c-2.31,2.65-4.07,4.17-6,6.21-1.48,1.57-2.55,3.39-4,4.14-5.17,6.42-11.75,12-17.81,18.83-1.73,2-3.89,4.18-5.84,6.4-.82.93-1.45,1.81-2.28,2.71-2.41,2.63-4.47,5-6.64,7.41-4.49,5-8.81,9.55-12.17,13.68-5.22,4.88-10.34,10.75-15.45,16.2-.51.54-.83,1-1.25,1.47s-.53.21-.83.51-.51.9-.73,1.1c-.51.5-1,.63-1.49,1.2-1.85,2-3.67,4.06-5.61,6.17-.46.5-.85,1.06-1.26,1.57h.23c-.23-.21-.44-.42-.64-.63-2.38-2.59-5-6.55-7-7.53C707.24,692,708.8,693.13,709.19,694.32Z"/><path class="cls-5" d="M859.59,564.92a20.86,20.86,0,0,0-.83-6,72.71,72.71,0,0,0-15.92-1.69c-5.8,0-11.69,2.28-17.74,3.55a41.74,41.74,0,0,1-2.4,4.11S798,645.73,729.54,699.62H834C866.76,674.39,859.59,564.92,859.59,564.92Z"/><path class="cls-8" d="M859.05,575c.09,1.25.18,2.4.31,3.2.16,16.43.22,31.63-1.17,47.81-.67,7.57-1.81,15.62-3.18,23.57-.36,2.16-.73,5.09-1.16,7.24A118.16,118.16,0,0,1,847,679.48a67.11,67.11,0,0,1-5.63,10.59,47.93,47.93,0,0,1-3.63,4.74,35.34,35.34,0,0,1-4.31,4.08l.57-.19-2.63,0c-2.86,0-5.5.19-8.4.2-9,0-18-.25-27-.25-1.47,0-3.64.21-5.26.21l-8.32,0-52.83.46.2.58.33-.27a259.46,259.46,0,0,0,29.53-28c5.82-6.36,11.65-13.18,16.86-19.66,3.72-5.25,7.56-10.58,11.2-16,1.86-2.66,3.6-5.38,5.36-8s3.38-5.31,4.92-7.94c4.1-6.85,7.85-14.5,11.95-21.89.29-1.5,1.75-4.08,2.52-5.82a277.87,277.87,0,0,0,11-27.21l-.1.21c1-1.44,1.7-2.79,2.46-4.18l-.5.37c4.79-1,9.13-2.48,13.39-3.18a27.24,27.24,0,0,1,4.83-.39c1.74,0,3.54,0,5.33.15a95.06,95.06,0,0,1,9.88,1.15l-.24-.22c.94,2.72,1.21,4.94,1.5,5.87a21.28,21.28,0,0,0,.17-2.73,14.29,14.29,0,0,0-.45-3.5l-.12-.51L859,558l-1-.24a64.53,64.53,0,0,0-11.69-1,49.78,49.78,0,0,0-6,.11,43.81,43.81,0,0,0-6.52,1.23c-3.22.85-6.08,1.68-8.75,2.23l-.21,0-.1.19c-.79,1.43-1.57,2.84-2.39,4l0,.07,0,.08c-1.53,4.6-3.18,8.73-5,13.28-2.62,6.48-5,12.8-7.59,17.05a258,258,0,0,1-19.76,35.74A345.77,345.77,0,0,1,764,665.33a269.2,269.2,0,0,1-19.36,20.28c-2.9,2.81-5.45,5.17-8.44,7.79-2.47,2.11-4.92,4.06-7,5.78l-1.21,1h1.55L752.8,700c21.8-.12,42.23-.08,59.48-.43,7.05.14,14.29.22,21.68.26H834l.06-.05a37.63,37.63,0,0,0,8.47-9.48,67,67,0,0,0,5.78-11.47,138.76,138.76,0,0,0,6.9-24.64c.46-2.37.68-4.22,1-6.21.24-1.47.51-1.6.73-3,.16-1,.23-3.27.38-4.23.34-2.31.72-3.56,1-6.08,1-8.72,1.52-17.75,1.85-27.06.11-3.23,0-6.43.06-9.44.09-5.72.26-12.41.21-18.49a100.85,100.85,0,0,0-.88-14.83C858.75,565.26,859.47,571.25,859.05,575Z"/><path class="cls-5" d="M778.44,632.54c9.4-42.19,29.64-70.72,64.4-70.72,53.55,0,70.84,61.7,70.84,137.8h8.07c0-78.62-19.25-142.36-78.91-142.36-38.84,0-61.41,29.66-71.83,73.46"/><path class="cls-7" d="M4419,674.16a.7.7,0,0,0,.38,0c1.11,1.11,2.44,1.79,3.56,2.87.51.52.93,1.2,1.49,1.73.14.15.48.21.63.36,1.17,1.06,1.92,2.61,3.12,3.72.2.19.48.28.66.49.56.65.92,1.46,1.42,2.15.09.11.38.15.48.27s.26.45.44.65a45.93,45.93,0,0,1,3.27,3.93c.78,1.07,1.56,2.11,2.26,3.21a7.73,7.73,0,0,1,.85,2.37,7.49,7.49,0,0,1,1.41,3.4c.21.73.84,1.36.7,2.28.41,0,.34.32.42.48.61,1.35.85,3,1.42,4.34.31.82.77,2.11,1.74,2.14.16-.27.45-.47.42-.83s-.53-.61-.73-1-.22-.76-.41-1.15a17.83,17.83,0,0,1-.75-2.62c-.24-.64-.9-1.08-.58-1.73-1.52-2.16-1.68-5.06-3.33-7.5-.44-.71-.91-1.57-1.45-2.34-.24-.32-.52-.54-.74-.86-.64-.93-1.25-1.72-1.88-2.52a25.65,25.65,0,0,0-3.79-4.34c-1-2.06-2.9-3.7-4.53-5.37a6.08,6.08,0,0,0-.5-.36c-.1-.11.05-.29,0-.39s-.39-.05-.45-.12-.07-.44-.25-.61a22.77,22.77,0,0,0-2-1.68c-.24-.2-.59-.26-.81-.45-.84-.7-1.59-2.17-2.55-2C4418.3,673.5,4419,673.54,4419,674.16Z"/><path class="cls-7" d="M4455.2,626.65a1.66,1.66,0,0,0,.41.48c.9,2.9,2.08,5.47,2.9,8.36.35,1.36.55,2.86.95,4.3.09.4.4.88.51,1.27a44.48,44.48,0,0,1,.88,4.57,43.88,43.88,0,0,0,.82,4.67c.11.52.34,1,.43,1.5.26,1.64.3,3.31.46,5,0,.27.28.64.33.94.07.51,0,1,.13,1.53.51,3.53,1,6.6,1.15,9.78.09,1.26.18,2.52.22,3.78s.13,2.5.13,3.75a27.87,27.87,0,0,1-.55,4.78,14,14,0,0,1-.15,3.6c-.16,1.2-.41,2.36-.63,3.47-.27,1.44-.1,3.05-.8,4.53.33.32.07.83,0,1.18-.33,2.84-1.25,5.9-1.7,8.66-.32,1.66-.86,4.27-.09,5,.32-.33.69-.48.92-1.12s0-1.44.09-2.21.36-1.47.46-2.28c.28-2.11.82-3.43,1.13-5.1.21-1.3-.05-2.6.62-3.44.1-5,1.68-10,1.55-15.63,0-1.59,0-3.47,0-5.26-.05-.75-.16-1.4-.2-2.14-.13-2.16-.26-4.06-.48-6a70.44,70.44,0,0,0-1.61-10.94c0-1.08-.14-2.18-.27-3.29s-.36-2.22-.58-3.34c-.4-2.24-1-4.46-1.53-6.66-.1-.44-.27-.75-.37-1.11s.15-.36.09-.61-.39-.52-.42-.7c-.08-.43.08-.72,0-1.17-.21-.79-.45-1.58-.71-2.38s-.56-1.6-.84-2.42c-.2-.57-.55-1.08-.72-1.61-.68-2-1-4.92-2.16-5.8C4454.68,624.93,4455.45,625.83,4455.2,626.65Z"/><path class="cls-7" d="M4486.46,664.32a.65.65,0,0,0,.27.25c.06,1.52.58,2.87.68,4.37,0,.7-.11,1.46-.05,2.21,0,.2.21.46.23.66.17,1.52-.3,3.11-.13,4.69a7.14,7.14,0,0,1,.18.77c0,.84-.27,1.65-.33,2.47,0,.14.18.35.18.5s-.09.5-.08.76c0,1.79.11,3.35,0,4.94-.09,1.27-.15,2.53-.31,3.77a7.19,7.19,0,0,1-.83,2.28c.12,1.25-.59,2.37-1,3.41-.29.68-.19,1.53-.86,2.13.32.24.07.45,0,.62-.35,1.39-1.17,2.78-1.54,4.13-.24.81-.66,2.07.1,2.68.28-.1.63-.08.83-.37s-.06-.78,0-1.18.27-.71.36-1.11a17.9,17.9,0,0,1,1-2.43c.21-.63,0-1.36.62-1.65.14-2.55,1.82-4.81,2.08-7.64.1-.79.3-1.72.36-2.62,0-.38,0-.72,0-1.1.1-1.08.13-2,.17-3a25.46,25.46,0,0,0-.06-5.56c.56-2.15.25-4.52.14-6.78,0-.22-.11-.39-.12-.58s.22-.17.23-.3-.26-.28-.25-.38.24-.35.22-.59a23,23,0,0,0-.36-2.51c0-.3-.26-.57-.3-.85-.14-1,.31-2.57-.53-3C4486.43,663.42,4486.92,663.9,4486.46,664.32Z"/><path class="cls-7" d="M2043.32,672a.55.55,0,0,0,.25-.13c.72.55,1.6.64,2.34,1.14.34.24.6.66,1,.89.09.07.33,0,.44.06.79.45,1.22,1.41,2,1.86.13.08.34,0,.47.15a12.91,12.91,0,0,1,.91,1.16c.06.05.29,0,.36,0s.17.25.29.34a20.28,20.28,0,0,1,2.31,1.84c.54.52,1.11,1,1.6,1.59a2.85,2.85,0,0,1,.51,1.39c.71.38.73,1.25.92,1.9.12.42.63.68.42,1.3.37-.09.28.13.33.22.44.73.52,1.71.94,2.43.23.44.56,1.15,1.49,1,.18-.19.47-.36.47-.58s-.46-.29-.62-.49-.16-.43-.3-.64c-.36-.55-.28-1-.49-1.51s-.74-.51-.37-1c-1.21-1.06-1.08-2.95-2.3-4.22-.33-.36-.64-.84-1-1.23-.17-.16-.39-.23-.54-.4a17.09,17.09,0,0,0-1.35-1.25,9.66,9.66,0,0,0-2.66-2c-.64-1.23-1.95-1.9-3-2.68-.1-.08-.24-.06-.33-.13s.05-.25,0-.3-.28.1-.32.06,0-.34-.14-.42a9.71,9.71,0,0,0-1.37-.68c-.16-.08-.4,0-.55-.09-.56-.29-1-1.3-1.69-.77C2042.89,671.72,2043.36,671.48,2043.32,672Z"/><path class="cls-7" d="M2055.83,644.18a.75.75,0,0,0,.37.13c.86,1.46,2,2.57,2.81,4,.36.69.59,1.52,1,2.23.1.2.41.38.52.58a14.35,14.35,0,0,1,1,2.38,13.16,13.16,0,0,0,1,2.44c.13.26.38.45.49.73.33.86.43,1.8.69,2.67.05.15.31.29.37.45s.11.55.21.82a43.11,43.11,0,0,1,1.78,5.18c.38,1.37.71,2.73,1,4.1a9,9,0,0,1-.09,2.69,8.37,8.37,0,0,1,0,3.95c-.11.81.23,1.7-.28,2.54.37.16.18.46.17.65,0,1.59-.49,3.31-.56,4.86-.09.93-.25,2.4.61,2.87.26-.18.6-.25.74-.61s-.2-.84-.22-1.28.15-.84.15-1.3a22.62,22.62,0,0,1,.44-2.9c0-.74-.37-1.46.2-2-.49-2.79.51-5.72-.13-8.84-.14-.88-.27-1.93-.51-2.91-.1-.42-.28-.76-.37-1.16-.29-1.18-.58-2.21-.92-3.26a26.13,26.13,0,0,0-2.21-5.78,14.84,14.84,0,0,0-.43-1.81,18.29,18.29,0,0,0-.69-1.76c-.49-1.18-1.15-2.29-1.7-3.42-.12-.23-.28-.36-.39-.54s.13-.26.07-.4-.37-.18-.41-.27.05-.46-.08-.69c-.22-.4-.46-.8-.72-1.19s-.55-.77-.84-1.17-.52-.46-.69-.72c-.66-1-1.06-2.67-2.06-2.77C2055.33,643.32,2056,643.57,2055.83,644.18Z"/><path class="cls-7" d="M2083,664.08a.53.53,0,0,0,.27.13c.09,1,.66,1.76.82,2.72.07.45,0,1,.05,1.43,0,.13.25.26.28.39.25,1-.11,2,.18,3,0,.16.22.3.25.47.06.54-.14,1.08-.12,1.61,0,.09.21.21.23.3s0,.33,0,.5a25.75,25.75,0,0,1,.5,3.16c.06.82.17,1.63.17,2.45a3.26,3.26,0,0,1-.5,1.51c.31.81-.23,1.56-.49,2.25-.17.44.06,1-.49,1.41.35.15.14.29.13.4-.11.92-.64,1.84-.75,2.74-.08.54-.24,1.39.6,1.82.26-.06.59,0,.73-.23s-.21-.54-.22-.8.13-.48.15-.75a7.09,7.09,0,0,1,.53-1.63c.09-.42-.28-.91.32-1.1-.29-1.7,1-3.22.87-5.09,0-.52.07-1.13,0-1.72,0-.25-.14-.47-.15-.71,0-.71-.11-1.34-.18-2a11.89,11.89,0,0,0-.6-3.57c.37-1.44-.1-2.94-.34-4.38,0-.15-.13-.24-.15-.36s.21-.14.21-.23-.27-.15-.27-.21.22-.26.19-.42a12.68,12.68,0,0,0-.46-1.58c-.06-.18-.28-.33-.33-.5-.18-.66.23-1.75-.61-1.92C2083,663.5,2083.47,663.73,2083,664.08Z"/><path class="cls-7" d="M2099.24,679.49a.89.89,0,0,0,.17.17c-.35.3-.16.81-.39,1.17-.1.16-.38.27-.47.46s.13.2.11.25c-.1.42-.73.62-.76,1.09,0,.08.11.2.09.28s-.42.31-.51.52c0,0,.15.17.14.21s-.12.1-.13.18c-.08.51,0,1-.14,1.43s-.07.74-.18,1.07a.8.8,0,0,1-.6.45c.24.47-.33.59-.58.82s0,.47-.48.48c.33.19.14.19.12.23-.1.39-.55.67-.61,1.07s-.11.62.7,1.06c.23.05.55.16.65.1s-.23-.31-.26-.44.08-.2.08-.32c0-.32.32-.39.42-.6s-.26-.5.28-.4c-.26-.87,1-1.09,1.05-1.89,0-.23.18-.44.2-.7,0-.11-.08-.25,0-.35a6.38,6.38,0,0,0,.16-.83,3.22,3.22,0,0,0,.24-1.57c.68-.34.71-1,1-1.6,0-.06,0-.14,0-.18s.24.06.27,0-.18-.17-.16-.19.28,0,.31,0a3.57,3.57,0,0,0,.19-.68c0-.08-.1-.23-.08-.3.11-.27.92-.33.29-.81C2099.44,679.3,2099.75,679.62,2099.24,679.49Z"/><path class="cls-7" d="M2516.46,676.74a.59.59,0,0,0,.23-.11c.31.49.93.59,1.28,1,.16.21.19.56.37.76s.26,0,.31.07c.42.39.36,1.16.81,1.55.08.06.26.05.32.14.17.25.1.64.23.92,0,0,.24,0,.28.06s0,.19.09.27a9.05,9.05,0,0,1,1.13,1.52,13.5,13.5,0,0,1,.69,1.3,1.23,1.23,0,0,1-.16,1c.47.38.11.93,0,1.35s.27.56-.18.87c.38,0,.21.14.22.21.09.53-.24,1.11-.16,1.63,0,.31,0,.81.95,1.06.23-.05.57,0,.66-.17s-.3-.33-.37-.49,0-.3,0-.47c-.1-.43.17-.69.18-1s-.46-.5.08-.71c-.64-.93.28-2.08-.25-3.16a9.49,9.49,0,0,0-.37-1c-.08-.14-.24-.22-.3-.36a8.77,8.77,0,0,0-.61-1.05,4.41,4.41,0,0,0-1.33-1.74c0-1-.77-1.6-1.3-2.29-.05-.07-.17-.06-.21-.12s.14-.2.12-.25-.26.07-.27,0,.11-.27.05-.35a4.94,4.94,0,0,0-.77-.64c-.09-.07-.3,0-.38-.09-.3-.26-.3-1.17-1-.73C2516.28,676.45,2516.7,676.25,2516.46,676.74Z"/><path class="cls-7" d="M2545.28,657.07a.56.56,0,0,0,0,.31c-.88.73-1.22,1.79-1.94,2.63-.33.4-.83.73-1.16,1.17-.08.12,0,.4-.11.53-.58,1-1.63,1.68-2.11,2.77-.08.19,0,.43-.12.6-.29.54-.85.92-1.14,1.47-.05.09.06.32,0,.42s-.23.3-.31.48c-.49,1.23-.77,2.36-1.18,3.45-.35.86-.51,1.78-.83,2.63a3.93,3.93,0,0,1-1,1.51c.11,1-.64,1.66-1,2.41-.23.5-.13,1.13-.71,1.56.34.2.12.34.09.47-.22,1-.76,2.1-.88,3.14-.05.63-.16,1.61.72,2,.25-.11.59-.13.71-.35s-.24-.55-.27-.84a7.05,7.05,0,0,1,.11-.83,7.39,7.39,0,0,1,.56-1.79c.12-.44-.2-1,.41-1.17-.1-1.89,1.44-3.34,1.91-5.25.12-.56.45-1.15.61-1.77a6.68,6.68,0,0,1,.13-.78c.3-.71.46-1.38.73-2a30.81,30.81,0,0,0,1.5-3.72,24.35,24.35,0,0,0,2.82-4c.1-.13.09-.29.17-.39s.26.05.33,0-.06-.31,0-.35.36,0,.46-.18c.35-.46.65-1,1-1.5.13-.18.12-.46.24-.62.47-.62,1.68-.92,1.38-1.77C2545.79,656.63,2545.84,657.21,2545.28,657.07Z"/><path class="cls-7" d="M2555.36,675.53a.7.7,0,0,0,.15.18c-.37.29-.23.83-.49,1.18-.12.17-.41.26-.51.44s.1.22.08.27c-.14.42-.79.59-.86,1.07,0,.08.1.22.07.29s-.45.3-.57.51c0,0,.14.19.13.23s-.13.1-.15.17a13.83,13.83,0,0,1-.27,1.47c-.12.34-.13.74-.27,1.08a.87.87,0,0,1-.65.43c.2.5-.37.59-.65.8s0,.49-.53.47c.32.22.12.2.11.25-.14.39-.62.65-.71,1.06-.06.25-.17.62.61,1.13.23.06.53.19.64.14s-.2-.34-.22-.48.09-.19.11-.32c0-.32.35-.38.47-.58s-.22-.54.32-.4c-.19-.91,1.07-1.06,1.22-1.88,0-.23.22-.44.26-.71,0-.11-.05-.25,0-.35a7.74,7.74,0,0,0,.23-.85,3.48,3.48,0,0,0,.38-1.6c.71-.31.8-1,1.13-1.58,0-.06,0-.15,0-.19s.23.07.26,0-.16-.19-.14-.2.28,0,.32,0a6,6,0,0,0,.25-.68c0-.08-.09-.24-.05-.32.13-.27.94-.29.35-.81C2555.57,675.35,2555.86,675.69,2555.36,675.53Z"/><path class="cls-7" d="M2802.26,644.18a2.29,2.29,0,0,0-.68.38,37.51,37.51,0,0,0-5.41,1.33c-1.74.56-3.49,1.06-5.28,1.62s-3.55.91-5.33,1.49c-.48.17-1.06.61-1.53.79-1.76.73-3.65,1.28-5.5,2s-3.72,1.41-5.51,2.3c-.58.32-1.06.73-1.66,1-1.85,1-3.88,1.56-5.7,2.6-.3.16-.64.59-1,.77-.56.33-1.14.56-1.7.89l-1.43.85-1.34.88-2.57,1.73c-1.71,1.09-3.26,2.3-4.89,3.42l-1.93,1.37c-.63.47-1.24,1-1.85,1.46l-3.67,2.9a42.86,42.86,0,0,1-4.87,3.48,25.84,25.84,0,0,1-3.29,3.07l-1.77,1.37c-.57.46-1.12.93-1.65,1.4a39.91,39.91,0,0,1-4.25,3.89c0,.52-.55.89-.85,1.22-2.43,2.62-5.21,5.48-7.36,8.27-1.24,1.73-3.21,4.43-2.86,5.49a3.92,3.92,0,0,0,1.49-.9c.57-.76.77-1.57,1.28-2.37s1.11-1.52,1.73-2.3c1.61-2.08,2.89-3.25,4.28-4.81,1.1-1.17,1.82-2.62,3-3.08,3.83-4.84,9.16-8.5,14.34-12.9,1.44-1.32,3.36-2.61,5.07-4,.73-.57,1.27-1.19,2-1.7,1.1-.75,2.12-1.48,3.11-2.2s1.95-1.42,3-2.06c2.12-1.33,4.15-2.68,6.17-3.78s3.84-2.29,5.56-3.28c1.26-.48,2.51-1,3.78-1.59l3.86-1.63c2.56-1.18,5.24-2.19,7.85-3.18.52-.2.88-.45,1.33-.58s.44.11.74,0,.64-.46.86-.51c.52-.13.88,0,1.43-.19,1-.3,1.92-.64,2.91-1l3-.91c.71-.2,1.37-.57,2-.76,2.55-.7,6.14-.7,7.46-1.81C2804.49,643.78,2803.21,644.5,2802.26,644.18Z"/><path class="cls-7" d="M2736.93,633.77a1.21,1.21,0,0,0-.12.56c-1.74,2.1-2.79,4.41-4.29,6.61-.69,1-1.58,2.07-2.28,3.2-.19.31-.27.84-.45,1.15-.64,1.19-1.46,2.32-2.22,3.5a33.25,33.25,0,0,0-2.13,3.66c-.19.43-.24.9-.46,1.32-.65,1.33-1.61,2.5-2.24,3.84-.1.22-.07.63-.18.88-.19.42-.45.78-.64,1.21-1.24,2.94-2.14,5.54-3.15,8.17-.85,2.09-1.44,4.23-2.21,6.3a21.27,21.27,0,0,1-1.79,3.87c-.26,2.14-1.44,4.06-2.13,6a17.2,17.2,0,0,1-1.4,3.85c.31.34,0,.76-.07,1.06-.63,2.46-1.58,5.14-2,7.6-.25,1.48-.68,3.82.13,4.45.3-.3.67-.43.86-1a15.72,15.72,0,0,0,0-1.94c.06-.58.26-1.31.39-2a42.16,42.16,0,0,1,1.23-4.41c.31-1.1.16-2.28.89-2.92.62-4.37,2.94-8.39,4.38-13,.39-1.34,1.06-2.84,1.54-4.33.21-.62.28-1.21.53-1.81.72-1.75,1.22-3.35,1.89-4.93,1.35-3.31,2.83-6.3,3.81-9,2.14-3.16,3.94-6.89,6-10.3.2-.33.27-.65.45-.92s.35-.11.48-.29.09-.58.18-.7c.24-.31.54-.36.77-.71.76-1.22,1.48-2.51,2.31-3.78.28-.45.42-1,.69-1.4,1-1.57,3.07-3.18,3.05-4.52C2737.93,632.52,2737.7,633.57,2736.93,633.77Z"/><path class="cls-7" d="M2698.54,665a.54.54,0,0,0,.25.22c-.06,1.23.41,2.31.46,3.51,0,.57-.14,1.19-.1,1.78,0,.16.22.37.24.53.16,1.21-.26,2.51,0,3.77,0,.21.2.4.22.62,0,.66-.2,1.33-.19,2,0,.11.21.26.22.38s-.05.41,0,.62c.17,1.43.43,2.66.48,3.94.06,1,.21,2,.23,3a4.54,4.54,0,0,1-.43,1.9c.36,1-.14,1.95-.33,2.84-.13.58.14,1.23-.37,1.82.37.13.18.34.18.48,0,1.15-.43,2.39-.42,3.52,0,.68,0,1.75.86,2.06.24-.13.58-.19.68-.45s-.28-.59-.33-.91.06-.61,0-.93a10.84,10.84,0,0,1,.32-2.08c.05-.52-.36-1.05.2-1.38-.45-2,.7-4,.51-6.28,0-.63,0-1.39,0-2.1,0-.31-.16-.57-.17-.87,0-.86-.13-1.63-.2-2.41a20.73,20.73,0,0,0-.51-4.42c.43-1.74.06-3.61,0-5.42,0-.18-.11-.31-.12-.46s.23-.14.24-.24-.26-.22-.25-.3.25-.29.24-.48c0-.65-.19-1.31-.28-2,0-.24-.24-.46-.26-.68-.1-.84.48-2-.34-2.46C2698.56,664.32,2699,664.72,2698.54,665Z"/><path class="cls-5" d="M4734,667.69a24.58,24.58,0,0,1,1.47-17.2c2.67-5.24,7.9-9.28,13.75-9.85s12.08,2.73,14.29,8.18c2.94-3.9,9.61-4.08,12.76-.34s1.82,10.28-2.52,12.51"/><path class="cls-5" d="M4737.25,651.18c1.05-1.25.45-3.35-.92-4.24a5.25,5.25,0,0,0-4.72-.17c-2.13.84-4,2.87-3.82,5.15a3.92,3.92,0,1,0,7.67-1.43"/><path class="cls-5" d="M4769.17,645.22c.48-3.37-.71-6.77-2.38-9.74s-3.82-5.64-5.49-8.6a4.19,4.19,0,0,1-.75-3c.42-1.6,2.48-2.22,4.1-1.84,3.37.8,5.3,4.37,6.15,7.73a27.55,27.55,0,0,1-.27,14.5"/><path class="cls-5" d="M4775.65,646.46c3.07-2.11,4.78-5.7,5.8-9.28s1.48-7.31,2.72-10.82a3.78,3.78,0,0,1,1.78-2.43,2.71,2.71,0,0,1,3.15,1.22,6.25,6.25,0,0,1,.73,3.55,21,21,0,0,1-13.9,19"/><path class="cls-5" d="M4697.73,677.41a38.17,38.17,0,0,1,2.82-25.17l-12.41,1.09a3.47,3.47,0,0,1-1.92-.2,2.36,2.36,0,0,1-.82-2.92,6.81,6.81,0,0,1,2.11-2.52l11.32-9.81c1.7-1.47,3.73-3,5.94-2.65,2.68.47,4,3.45,4.87,6l4.49,13.27c1.77,5.23,3.49,11.18.9,16.05"/><path class="cls-5" d="M4707.38,636.57a41.29,41.29,0,0,0,6.85-26.51c-.17-1.88-.46-3.83.21-5.59s2.73-3.17,4.44-2.38c1.34.61,1.88,2.21,2.17,3.66a32.39,32.39,0,0,1-13.22,32.41"/><path class="cls-5" d="M4704.93,635a19.34,19.34,0,0,0-10.68-20.54,9.25,9.25,0,0,0-6-.88,4.67,4.67,0,0,0-3.66,4.37,5.29,5.29,0,0,0,3.07,4.11,42.3,42.3,0,0,0,5.05,1.85,16.46,16.46,0,0,1,10,11.57"/><path class="cls-5" d="M1529.46,694.16a38.13,38.13,0,0,1,9.31-23.55l-12.27-2.2a3.39,3.39,0,0,1-1.79-.69,2.34,2.34,0,0,1,0-3,7,7,0,0,1,2.69-1.89l13.5-6.49c2-1,4.39-2,6.43-1,2.46,1.15,3,4.37,3.12,7.09l.86,14c.34,5.5,3.93,26.6.15,30.62"/><path class="cls-5" d="M1549.45,657.28a41.29,41.29,0,0,0,13.56-23.8c.33-1.86.56-3.82,1.67-5.34s3.46-2.34,4.9-1.14c1.14,1,1.24,2.63,1.14,4.1a32.4,32.4,0,0,1-21.25,27.83"/><path class="cls-5" d="M1547.51,655.12a19.35,19.35,0,0,0-4.94-22.62,9.23,9.23,0,0,0-5.55-2.42,4.66,4.66,0,0,0-4.68,3.26,5.27,5.27,0,0,0,1.89,4.77,42.71,42.71,0,0,0,4.38,3.11,16.45,16.45,0,0,1,6.62,13.78"/><path class="cls-7" d="M3953.69,501.37a8.11,8.11,0,0,0,.23,1.48c-.2,7.59.18,14.6.12,22.1,0,3.51-.23,7.26-.23,11,0,1,.19,2.37.2,3.39.08,7.59-.41,15.55-.24,23.47,0,1.32.19,2.54.2,3.88,0,4.15-.26,8.28-.25,12.43,0,.68.2,1.68.21,2.43,0,1.29-.06,2.53,0,3.83.14,8.93.39,16.64.46,24.56.06,6.32.24,12.54.29,18.76,0,4-.13,8.11-.37,11.94.41,5.92-.05,12.11-.18,17.72-.09,3.67.21,7.6-.25,11.48a7.29,7.29,0,0,1,.21,2.91c.07,7.13-.22,15-.11,22.06.07,4.22.15,10.87,1.08,12.18a12.63,12.63,0,0,0,.63-3.25c0-1.9-.34-3.45-.42-5.36-.08-1.62,0-3.76-.06-5.77-.13-5.26.12-8.73.13-12.93,0-3.23-.45-6.33.09-8.62-.6-12.31.44-25.11.17-38.84-.07-3.91,0-8.56-.1-13,0-1.86-.18-3.47-.19-5.31,0-5.34-.15-10-.2-14.91-.12-10-.08-19.47-.44-27.43.48-10.68.22-22.35.24-33.55,0-1.11-.1-2-.09-2.89,0-.69.23-.77.25-1.4,0-.46-.23-1.51-.22-2,0-1.07.27-1.66.27-2.83,0-4-.08-8.2-.11-12.5,0-1.49-.19-3-.19-4.35,0-5.27.69-12.33-.08-15.37C3953.79,496.88,3954.21,499.66,3953.69,501.37Z"/><path class="cls-4" d="M3954.72,507.79h-.1c-14.68,70.09-53.3,131.54-103.7,166.7V707h207.5v-32.5C4008,639.33,3969.4,577.88,3954.72,507.79Z"/><path class="cls-5" d="M4034.58,660.8c-5.37-4.71-13.39-5.6-20.21-3.47-3.33,1-6.5,2.74-10,3.12s-7.52-1-8.65-4.34c-1-3,.67-6.15,1.55-9.19A17.84,17.84,0,0,0,3965,632.55l4.15,35.72c-.6,3.57,1.36,7.2,4.16,9.5s6.32,3.51,9.8,4.51a124.26,124.26,0,0,0,34.92,4.87c7.19,0,15.33-1.2,19.53-7S4040,665.51,4034.58,660.8Z"/><path class="cls-5" d="M3954.69,507.79h-.07c-14.68,70.09-53.3,131.54-103.7,166.7V707h139.61v-32.5C3973.11,639.33,3959.76,577.88,3954.69,507.79Z"/><rect class="cls-5" x="3990.53" y="674.49" width="67.89" height="32.5"/><g class="cls-9"><path class="cls-5" d="M3958.73,636.18c-3.69,5.17-6.33,11.13-10.67,15.77s-11.25,7.81-17.1,5.31c-5.37-2.3-8.07-8.48-13.1-11.47-6.13-3.65-14.5-1.44-19.54,3.61s-7.29,12.27-8.26,19.33c-1,7.66-.47,16.33,5,21.8,4,4.06,10,5.53,15.6,6.61a230.15,230.15,0,0,0,55.27,3.73c8.5-.45,17.39-1.53,24.61-5.87V674.49c-6.35-12.81-12.15-29.12-17.21-48C3967.36,626.81,3962.25,631.26,3958.73,636.18Z"/></g><rect class="cls-5" x="3850.92" y="674.49" width="139.61" height="32.5" transform="translate(7841.45 1381.48) rotate(180)"/><path class="cls-7" d="M4099.77,694.22a1.22,1.22,0,0,0,.13.49c-.66,2.29-.74,4.51-1.26,6.79-.25,1.06-.69,2.17-.92,3.31-.07.31,0,.77,0,1.08s-.12.64-.19,1l1.06-.38c-1.57-1.35-3-3-4.75-4.21-.34-.23-.74-.35-1.06-.61-1-.8-1.85-1.83-2.85-2.65-.17-.13-.54-.17-.72-.31s-.57-.55-.9-.79c-2.25-1.65-4.27-3-6.23-4.49-1.56-1.21-3.18-2.3-4.71-3.49a17,17,0,0,1-2.65-2.64c-1.69-.85-2.89-2.43-4.16-3.65-.83-.79-2-1.33-2.62-2.45-.41.16-.62-.25-.84-.41-1.76-1.36-3.49-3.15-5.26-4.45-1.06-.78-2.72-2-3.62-1.57.1.37,0,.74.39,1.13a12.41,12.41,0,0,0,1.56.73c.44.26.91.73,1.43,1.09,1.35.95,2,1.83,3,2.66.77.65,1.81.91,2,1.78,3.36,2,5.79,5.29,9.28,7.8,1,.72,2.07,1.68,3.2,2.48.47.34,1,.55,1.4.91,1.3,1,2.52,1.87,3.73,2.79,2.5,1.89,4.75,3.79,6.9,5.08a59.16,59.16,0,0,0,6.87,5.93l.26.21.07-.32.27-1.37c.07-.34,0-.62.1-.9s.28-.19.33-.38-.13-.5-.09-.64c.11-.32.37-.45.44-.81.27-1.23.44-2.52.68-3.84.08-.46,0-.94.08-1.37.32-1.62,1.45-3.63.89-4.71C4100.15,692.87,4100.39,693.8,4099.77,694.22Z"/><polyline class="cls-5" points="3990.53 674.49 4005.11 706.99 4012.86 693"/><path class="cls-7" d="M4011.45,693.52a.89.89,0,0,0,0,.43c-1.07,1.53-1.57,3.22-2.51,4.8-.44.74-1.07,1.45-1.52,2.25-.12.22-.11.6-.22.83-.81,1.6-2.11,3-2.91,4.71l1.64.07-.11-.2c-.16-.28-.43-.49-.57-.79-.44-.92-.6-2-1-2.88-.07-.16-.36-.3-.44-.46s-.2-.59-.35-.88c-1-1.94-2-3.56-2.89-5.31-.69-1.39-1.48-2.71-2.14-4.08a10.47,10.47,0,0,1-.87-2.82c-1-1.16-1.17-2.74-1.61-4.05-.29-.86-1-1.61-.94-2.67-.41,0-.38-.37-.48-.57-.78-1.56-1.3-3.46-2.11-5-.49-.92-1.23-2.38-2.21-2.29-.11.32-.35.58-.25,1s.66.63.93,1,.38.84.63,1.27a25.1,25.1,0,0,1,1.18,3c.31.73,1,1.24.78,2,1.79,2.51,2.13,5.8,3.75,8.77.46.84.87,1.91,1.4,2.86.22.41.51.71.7,1.12.56,1.18,1.15,2.19,1.69,3.25a53.43,53.43,0,0,0,3.15,6,18.32,18.32,0,0,0,.74,2.28l.16.4.23-.39c1-1.63,1.87-3.44,2.82-5.13.13-.23.15-.47.27-.66s.29,0,.38-.18,0-.44,0-.52.44-.23.58-.48c.49-.86.9-1.8,1.39-2.74.17-.32.19-.73.35-1,.61-1.14,2.07-2.31,1.76-3.34C4012.08,692.6,4012.11,693.4,4011.45,693.52Z"/><path class="cls-7" d="M3807.45,698.06a1.16,1.16,0,0,0,.35.35c.52,2.2,1.53,4.06,2.17,6.19.25.84.4,1.76.64,2.65l.32,1.18,1-.79.44-.33c.23-.19.42-.6.65-.8,1.69-1.48,3.83-2.6,5.55-4.22.28-.27.46-.63.76-.88.94-.8,2.06-1.37,3-2.15.15-.13.25-.47.42-.62s.62-.43.9-.69c2-1.79,3.58-3.43,5.35-5,1.42-1.24,2.73-2.55,4.14-3.75a15.27,15.27,0,0,1,3-2c1.1-1.43,2.82-2.24,4.19-3.19.9-.62,1.61-1.59,2.79-2-.08-.42.34-.54.54-.71,1.59-1.39,3.6-2.65,5.14-4.06.92-.85,2.4-2.16,2.12-3.12-.38,0-.72-.14-1.15.12s-.58.91-1,1.34-.86.71-1.29,1.13a34.42,34.42,0,0,1-3.06,2.32c-.75.6-1.17,1.54-2,1.55-2.45,2.78-6,4.39-9,7.17-.85.8-2,1.63-2.92,2.52-.4.38-.68.79-1.1,1.15-1.21,1-2.22,2-3.3,3-2.23,2-4.42,3.72-6,5.49-2.75,1.63-5.27,4-7.85,6.12-.26.21-.39.45-.61.62s-.25,0-.38,0l.51.15a.21.21,0,0,0,0-.11c0-.14-.37-.35-.39-.49-.07-.31.1-.55,0-.88-.36-1.14-.84-2.29-1.26-3.49-.15-.42-.45-.78-.59-1.17-.5-1.48-.48-3.69-1.5-4.31C3807.13,696.77,3807.78,697.42,3807.45,698.06Z"/><path class="cls-7" d="M4055.16,673.51a9.24,9.24,0,0,0-1.47.22c-7.6-.19-14.61.19-22.1.13-3.51,0-7.27-.23-11-.23-1,0-2.38.19-3.39.2-7.6.08-15.55-.42-23.48-.25-1.31,0-2.53.2-3.87.2-4.16,0-8.29-.25-12.44-.25-.68,0-1.67.21-2.43.22-1.28,0-2.52-.06-3.83,0-8.93.14-16.63.39-24.55.46-6.33.06-12.55.24-18.77.28-4,0-8.1-.12-11.93-.36-5.92.41-12.12-.05-17.73-.19-3.66-.09-7.59.22-11.47-.24-.68.38-2,.2-2.92.21-7.12.07-15.05-.22-22.05-.11-4.23.07-10.87.15-12.18,1.07a12.91,12.91,0,0,0,3.25.64c1.9,0,3.44-.34,5.35-.43,1.63-.07,3.77,0,5.77-.06,5.27-.12,8.73.13,12.93.14,3.24,0,6.34-.45,8.63.09,12.3-.6,25.1.43,38.84.17,3.91-.08,8.55,0,13-.11,1.86,0,3.47-.17,5.31-.18,5.33,0,10-.15,14.91-.2,10.05-.12,19.47-.08,27.42-.44,10.69.48,22.36.22,33.55.24,1.12,0,2-.1,2.9-.09.69,0,.76.23,1.4.25.46,0,1.5-.24,1.95-.22,1.07,0,1.67.27,2.84.27,4,0,8.2-.08,12.49-.11,1.49,0,3-.19,4.35-.19,5.27,0,12.33.69,15.37-.08C4059.65,673.61,4056.88,674,4055.16,673.51Z"/><path class="cls-5" d="M3922.73,598.2a3,3,0,0,0-1.15,2.34A7.67,7.67,0,0,0,3924,605c2.67,2.72,5.53,3.21,7.15,2.84,6.75-1.56,7.7-9,11.17-13.93,4.82-6.83,14.65-8.87,19-16.08a2.35,2.35,0,0,0,.38-1.87,6.62,6.62,0,0,0-2.07-3.08,8.21,8.21,0,0,0-2.8-1.54c-7.81-2.71-12.34-.46-15,3.18s-3.76,8.63-6.87,11.82c-4.53,4.64-13.23,5.49-14,13.36"/><path class="cls-5" d="M3922.13,598.73a9.14,9.14,0,0,1-.73-.82,8.77,8.77,0,0,0-.36,1.78Z"/><path class="cls-5" d="M3961.64,577.27a6.31,6.31,0,0,0-3.32-1.12c-6.33-.1-4.78,8.05-8.32,11.08-2.14,1.84-6.1,1.74-9.14,2.64-5.37,1.59-7.75,6.28-10.67,10.36a2.87,2.87,0,0,1-3.19,1.52,11,11,0,0,1-4.81-3,2.45,2.45,0,0,0-.61,1.75A7.67,7.67,0,0,0,3924,605c2.67,2.72,5.53,3.21,7.15,2.84,6.75-1.56,7.7-9,11.17-13.93,4.82-6.83,14.65-8.87,19-16.08A4.68,4.68,0,0,0,3961.64,577.27Z"/><path class="cls-10" d="M-388.35,659.44c59.16-45.8,161.14-59.61,252.66-52.21s176.93,32.51,263.76,52.62c211.54,49,447.28,68.68,660.73,23.28C840.19,672.2,891,657.48,945.06,656.44c32.83-.64,65.64,3.86,98.39,2.27,90.31-4.36,165.8-53.65,256.36-54,70.43-.27,103.5,30,159.25,57.78,62.37,31,116.25,51.49,293.57,57.78h-2141Z"/><g class="cls-11"><path class="cls-4" d="M1459.06,662.48c-43.24-21.52-72.84-44.58-116.81-53.71l59,48.21c-10.51-2-19.11,9.51-14.85,17.6s16.18,11.77,26.95,11.52,21.06-3.51,31.59-5.39,22.36-2.19,31.23,2.82c-2.43,13.4,13.57,23.85,28.13,30.36q7.46,3.33,15.08,6.37h233.27C1575.31,714,1521.43,693.53,1459.06,662.48Z"/></g><g class="cls-12"><path class="cls-5" d="M1389.88,623.9c3.46-2.57,1.87-6.44-1.84-8.77-47.49-10.48-123.51-14.89-208.36,7.08-20.07,5.2-29.74,10.26-48.59,17.43-9.19,5.19-8.35,6.6-5.1,8.15,5,2.37,12.14,1.92,18.26.66,17.83-3.65,32.12-12.89,50.14-16.12,12.8-2.3,26.29-1.33,39.38-2.65,21.24-2.15,42.85-10.28,62.83-6,8.41,1.8,15.18,5.62,23,8.2s18.2,3.72,25.54.25c4.85-2.29,7.66-6.28,13.26-7.7,5.17-1.31,10.78,0,16,1S1386.27,626.59,1389.88,623.9Z"/></g><path class="cls-13" d="M1133.49,629.4c-3.62,4.62-4.89,10.73,1.4,13.75,4.95,2.36,12.14,1.91,18.25.66,17.84-3.66,32.13-12.9,50.15-16.13,12.8-2.29,26.29-1.33,39.38-2.65,21.24-2.15,42.85-10.28,62.82-6,8.42,1.79,15.19,5.61,23,8.19s18.2,3.72,25.54.25c4.85-2.29,7.65-6.28,13.25-7.7,5.18-1.31,10.79,0,16,1s11.84,1.2,15.45-1.49c4-3,1.24-7.69-3.74-9.75s-11.33-2.33-17.27-3C1348.4,603,1324.14,588,1294,588.68c-28.56.67-52.4,15.29-80.44,19.42-11.85,1.74-24.08,1.55-36.06,2.79s-27.14,5-36.74,10.87C1136.29,624.49,1135.65,626.64,1133.49,629.4Z"/><path class="cls-6" d="M1353.31,627.78c-12-.29-23.52-3.43-31.76-8.67-7.27-4.62-13.76-11.31-24.35-11.09-12.55.26-20,10.16-32.2,12.17-12.78,2.09-24.44-5.15-37.51-4.88-7.64.17-14.61,2.86-21.57,5a157.18,157.18,0,0,1-33.86,6.45c-5.14.42-11.06.42-14.39-1.95-3-2.17-2.65-5.66-.36-8.29a16.59,16.59,0,0,1,2.77-2.45c-7.15,1.89-14.07,4.47-19.32,7.67-4.47,2.73-5.11,4.88-7.27,7.64-3.62,4.62-4.89,10.73,1.4,13.75,4.95,2.36,12.14,1.91,18.25.66,17.84-3.66,32.13-12.9,50.15-16.13,12.8-2.29,26.29-1.33,39.38-2.65,21.24-2.15,42.85-10.28,62.82-6,8.42,1.79,15.19,5.61,23,8.19C1336.09,629.7,1346,630.84,1353.31,627.78Z"/><g class="cls-12"><path class="cls-13" d="M1384.14,620.88c-1.55-1-3.19-1.91-4.8-2.8-3-1.68-6.3-3.43-10.38-3.77s-9,1.45-9.07,4c0,1.35,1.19,2.6,2.13,3.83a17.37,17.37,0,0,1,5.29-2.41c5.18-1.31,10.79,0,16,1Z"/></g><path class="cls-14" d="M1320.11,578.1a.4.4,0,0,0,.22.14c-.2.68.14,1.33,0,2-.06.32-.29.64-.32,1,0,.09.17.23.17.33,0,.69-.58,1.34-.51,2.07,0,.12.15.25.13.37,0,.38-.36.7-.44,1.06,0,.06.18.19.17.26s-.1.21-.1.33a20.73,20.73,0,0,1-.06,2.27c-.09.58-.07,1.17-.19,1.74a1.71,1.71,0,0,1-.67.93c.22.64-.4,1-.71,1.46s0,.73-.59.89c.33.19.12.24.1.32-.17.63-.73,1.17-.88,1.8a1.14,1.14,0,0,0,.51,1.46c.25,0,.57.11.7,0s-.17-.44-.17-.64.13-.32.16-.51c.08-.5.44-.69.6-1.05s-.2-.71.38-.71c-.14-1.28,1.23-2.05,1.36-3.37,0-.37.22-.78.24-1.2,0-.18-.08-.36,0-.52.1-.49.09-1,.14-1.4a7,7,0,0,0,.08-2.57,6,6,0,0,0,.65-3c0-.11-.07-.19-.06-.28s.24-.05.27-.1-.23-.16-.21-.2.28-.13.29-.24a7.69,7.69,0,0,0,0-1.17c0-.13-.18-.28-.17-.41,0-.48.72-1.12,0-1.41C1320.22,577.7,1320.63,578,1320.11,578.1Z"/><path class="cls-14" d="M1343.51,574.4a.53.53,0,0,0-.08.31c-1.13.46-1.84,1.4-2.86,2-.47.29-1.07.46-1.55.8-.13.09-.2.37-.32.47-.92.77-2.23,1.12-3.1,2-.14.15-.19.4-.35.53-.49.44-1.16.65-1.67,1.07-.08.07-.07.33-.15.41s-.34.23-.48.38c-1,1-1.67,2.06-2.5,3-.66.75-1.21,1.57-1.82,2.32a5.46,5.46,0,0,1-1.51,1.17c-.3,1-1.24,1.44-1.91,2.05-.42.41-.53,1.09-1.27,1.32.25.31,0,.38-.09.5a13.43,13.43,0,0,1-1,1.41,10.69,10.69,0,0,0-1,1.46c-.27.62-.71,1.59,0,2.19.28,0,.61.06.8-.13s0-.62,0-.92a5,5,0,0,1,.4-.8,7,7,0,0,1,1.18-1.61c.28-.41.17-1.07.82-1.05.62-1.91,2.66-2.83,3.85-4.57.35-.49.87-1,1.28-1.53a5.76,5.76,0,0,1,.44-.72l1.5-1.76a35.21,35.21,0,0,0,2.91-3.16,26.91,26.91,0,0,0,4.28-3c.15-.1.2-.26.32-.33s.24.12.33.08,0-.33.12-.36.36.07.51,0c.52-.35,1-.77,1.56-1.17.18-.14.28-.41.46-.54.68-.45,2-.42,2-1.33C1344.16,574.11,1344,574.7,1343.51,574.4Z"/><path class="cls-14" d="M1341.17,590.83a.68.68,0,0,0,0,.24c-.49,0-.7.54-1.13.68-.2.06-.49,0-.69.08,0,0,0,.23-.09.27-.37.27-1,0-1.35.42-.06.07-.05.24-.11.29-.21.14-.56,0-.77.13,0,0,0,.23,0,.26s-.16,0-.21.08c-.4.38-.67.83-1,1.13s-.51.59-.8.81a.9.9,0,0,1-.79.07c-.07.54-.63.35-1,.42s-.26.43-.7.18c.18.34,0,.24,0,.27-.31.3-.86.33-1.14.67s-.43.51.06,1.29c.19.15.41.4.53.4s0-.39,0-.53.17-.14.24-.24c.18-.28.49-.2.69-.33s.05-.58.46-.21c.26-.9,1.45-.45,2-1.09.15-.19.41-.28.58-.49s.09-.25.17-.31c.26-.19.43-.43.65-.62.45-.4,1-.63,1.19-1.16.78.12,1.26-.43,1.85-.71.06,0,.06-.14.12-.16s.14.19.18.19,0-.25,0-.24.2.19.27.17.39-.29.61-.42c.07,0,.07-.25.14-.29.28-.15,1,.32.79-.45C1341.45,590.81,1341.48,591.25,1341.17,590.83Z"/><path class="cls-14" d="M1182.06,605.93a.89.89,0,0,0,.17-.17c.3.36.82.21,1.17.46.16.12.24.41.42.51s.22-.1.27-.08c.41.16.53.8,1,.91.08,0,.23-.09.29,0,.21.11.24.47.43.6,0,0,.2-.11.24-.1s.08.14.15.17a8.26,8.26,0,0,1,1.38.49c.31.19.7.28,1,.5a.8.8,0,0,1,.24.73c.54,0,.45.54.56.85s.44.19.24.64c.32-.21.23,0,.26,0,.31.27.34.8.66,1s.45.41,1.28,0c.16-.17.42-.38.42-.5s-.4,0-.53,0-.14-.18-.25-.25c-.28-.18-.2-.5-.35-.7s-.59,0-.26-.47c-.92-.16-.68-1.42-1.48-1.82-.23-.1-.39-.34-.65-.45s-.27,0-.36-.06a6.86,6.86,0,0,0-.81-.41,3.18,3.18,0,0,0-1.55-.6c-.24-.75-1-.89-1.52-1.24-.06,0-.15,0-.19,0s.08-.23,0-.26-.19.16-.21.13.05-.28,0-.32a4.3,4.3,0,0,0-.69-.25c-.09,0-.24.09-.32.06-.28-.12-.34-1-.83-.33C1181.87,605.72,1182.2,605.42,1182.06,605.93Z"/><path class="cls-14" d="M1185.48,598.34a.5.5,0,0,0,.25-.1c.47.59,1.23.71,1.77,1.21.24.23.39.62.66.85.08.07.3,0,.39.06.6.42.85,1.29,1.51,1.69.12.06.32,0,.42.11.3.26.39.74.67,1,0,.05.27,0,.32,0s.13.21.23.29a19.52,19.52,0,0,1,1.94,1.43c.45.43,1,.77,1.39,1.23a1.8,1.8,0,0,1,.42,1.14c.69.21.65,1,.84,1.5.12.34.59.49.41,1.05.36-.15.27.06.32.13.42.54.55,1.35,1,1.88a1.2,1.2,0,0,0,1.5.56c.16-.19.43-.39.42-.57s-.46-.16-.63-.29-.18-.32-.32-.47c-.37-.39-.3-.83-.52-1.19s-.71-.3-.37-.78c-1.16-.69-1-2.33-2.1-3.27-.3-.25-.54-.65-.89-.94-.15-.12-.36-.15-.48-.28a13.64,13.64,0,0,0-1.13-1,7.47,7.47,0,0,0-2.19-1.63c-.42-1.08-1.46-1.66-2.28-2.39-.08-.07-.21,0-.27-.11s.09-.23,0-.28-.26.09-.28,0,0-.31,0-.39a8.75,8.75,0,0,0-1-.68c-.12-.09-.34,0-.45-.11-.42-.3-.56-1.29-1.25-.84C1185.19,598,1185.65,597.82,1185.48,598.34Z"/><path class="cls-15" d="M5316.4,668.81c-70.13-38.74-191-50.42-299.5-44.16s-209.74,27.5-312.68,44.51C4453.46,710.6,4174,727.26,3921,688.85c-60.92-9.24-121.14-21.7-185.24-22.58-38.92-.53-77.81,3.26-116.63,1.93-107.06-3.7-196.55-45.39-303.9-45.69-83.49-.23-122.69,25.4-188.78,48.87-73.93,26.27-137.8,43.56-348,48.88h2538Z"/><g class="cls-12"><path class="cls-5" d="M3886.18,695.56c4-2.57,3.22-7.6,0-11.1-45.49-21-120.88-39.4-210.65-26.86-21.23,3-32,7.55-52.42,13.16-10.3,4.82-9.76,6.68-6.82,9.15,4.47,3.76,11.78,4.43,18.19,3.93,18.66-1.45,35-10.38,53.71-11.28,13.33-.63,26.67,2.85,40.08,3.46,21.77,1,45.17-5.32,64.33,3.33,8.07,3.64,14.07,9.5,21.4,14s17.49,7.68,25.58,4.67c5.35-2,9-6.42,14.92-7.21,5.47-.73,10.82,1.89,15.87,3.93S3882,698.25,3886.18,695.56Z"/></g><path class="cls-13" d="M3627.65,658.57c-4.6,5.06-7.15,12.37-1.47,17.14,4.47,3.76,11.79,4.43,18.19,3.93,18.67-1.45,35-10.38,53.71-11.28,13.33-.63,26.67,2.86,40.08,3.46,21.78,1,45.17-5.32,64.33,3.33,8.07,3.65,14.07,9.5,21.4,14s17.49,7.68,25.59,4.67c5.35-2,9-6.42,14.91-7.21,5.47-.73,10.82,1.89,15.87,3.94s11.64,3.5,15.83.8c4.64-3,2.85-9.25-1.72-12.63s-10.89-4.81-16.7-6.68c-28.76-9.27-50-31.9-80.38-36.18-28.8-4.06-55.79,9.86-84.8,10.16-12.26.12-24.5-2.2-36.79-2.73s-28.29,1.54-39.15,7.11C3631.49,653,3630.4,655.54,3627.65,658.57Z"/><path class="cls-6" d="M3848.65,694.1c-12-2.41-22.89-8.24-30.07-16.1-6.32-6.92-11.44-16.25-22.11-17.79-12.65-1.83-22.15,9.1-34.88,9.47-13.26.39-23.45-10.51-36.63-12.4-7.7-1.1-15.27,1-22.7,2.49a134.71,134.71,0,0,1-35.34,2.16c-5.25-.36-11.19-1.37-14-4.86-2.6-3.19-1.49-7.41,1.36-10.26a18.75,18.75,0,0,1,3.3-2.54c-7.57,1.1-15.06,3.1-21,6.14-5.06,2.6-6.15,5.13-8.9,8.16-4.6,5.06-7.15,12.37-1.47,17.14,4.47,3.76,11.79,4.43,18.19,3.93,18.67-1.45,35-10.38,53.71-11.28,13.33-.63,26.67,2.86,40.08,3.46,21.78,1,45.17-5.32,64.33,3.33,8.07,3.65,14.07,9.5,21.4,14C3831,693.52,3840.7,696.61,3848.65,694.1Z"/><g class="cls-12"><path class="cls-13" d="M3881.05,690.86c-1.35-1.47-2.8-2.89-4.24-4.26-2.69-2.58-5.6-5.3-9.62-6.4s-9.34.24-10,3.41c-.32,1.65.64,3.39,1.33,5.07a16.28,16.28,0,0,1,5.82-2.06c5.47-.73,10.82,1.89,15.87,3.94Z"/></g><path class="cls-14" d="M3825.73,627.32a.59.59,0,0,0,.19.2c-.33.8-.13,1.65-.38,2.46-.11.37-.41.74-.51,1.14,0,.11.12.31.1.42-.14.85-.85,1.57-.94,2.47,0,.14.1.32.06.47-.12.45-.51.81-.67,1.25,0,.07.14.24.12.32s-.15.25-.17.4c-.2,1-.27,1.89-.53,2.75-.2.68-.31,1.4-.54,2.07a2.53,2.53,0,0,1-.88,1.08c.08.78-.62,1.23-1,1.73-.26.32-.18.86-.79,1,.3.24.07.29,0,.38-.3.75-1,1.39-1.28,2.13a1.32,1.32,0,0,0,.24,1.73c.25,0,.57.13.73,0s-.09-.52-.06-.75.21-.37.28-.6c.18-.58.59-.81.83-1.23s-.06-.85.54-.83c.11-1.52,1.68-2.38,2.07-4,.12-.44.38-.91.49-1.41,0-.21,0-.43.06-.63.19-.58.28-1.13.42-1.66a10.24,10.24,0,0,0,.61-3.09c.83-1,.94-2.38,1.28-3.6,0-.12,0-.24,0-.34s.25,0,.29-.09-.19-.23-.17-.27.31-.13.34-.25a10.54,10.54,0,0,0,.21-1.42c0-.17-.12-.37-.09-.52.11-.59.95-1.25.26-1.73C3825.93,626.85,3826.28,627.23,3825.73,627.32Z"/><path class="cls-14" d="M3849.84,627a.64.64,0,0,0-.13.33c-1.3.45-2.21,1.41-3.41,2-.55.3-1.23.47-1.81.82-.15.09-.26.38-.41.49-1.1.79-2.57,1.16-3.64,2.12-.18.16-.27.41-.45.56-.59.46-1.35.68-1.95,1.12-.1.08-.11.35-.21.44s-.4.23-.57.39c-1.18,1.09-2.07,2.18-3.08,3.16-.81.79-1.49,1.68-2.26,2.48a6.53,6.53,0,0,1-1.76,1.25c-.44,1-1.51,1.54-2.28,2.2-.5.44-.73,1.17-1.53,1.41.22.34-.07.41-.16.54-.75,1-1.84,2-2.48,3.09-.38.66-1,1.7-.34,2.39.29,0,.62.08.85-.12s.06-.69.18-1a7.82,7.82,0,0,1,.53-.87,10.64,10.64,0,0,1,1.47-1.74c.36-.44.35-1.15,1-1.13.92-2.06,3.2-3.05,4.7-4.92.44-.53,1.08-1,1.58-1.65a8.77,8.77,0,0,1,.56-.76c.68-.65,1.23-1.29,1.86-1.88,1.28-1.23,2.62-2.21,3.55-3.33a36.84,36.84,0,0,0,5.06-3.14c.17-.1.25-.26.39-.34s.24.13.35.09.1-.34.18-.37.39.08.57,0c.61-.37,1.21-.8,1.86-1.2.22-.14.36-.42.58-.55.81-.46,2.25-.4,2.37-1.34C3850.6,626.73,3850.35,627.33,3849.84,627Z"/><path class="cls-14" d="M3844.09,646.81a.56.56,0,0,0,0,.24c-.52,0-.81.5-1.28.62-.22.06-.52,0-.75,0-.06,0-.07.24-.12.27-.43.26-1.09,0-1.49.36-.07.06-.08.24-.15.29-.24.13-.59,0-.84.1,0,0,0,.23-.05.26s-.17,0-.24.06c-.47.37-.8.81-1.22,1.1s-.61.58-.94.8a1,1,0,0,1-.85,0c-.13.54-.7.33-1.08.39s-.32.42-.76.16c.15.35,0,.24-.06.27-.36.29-.95.31-1.27.65s-.52.5-.08,1.32c.18.16.38.42.51.42s0-.4.06-.53.19-.14.28-.25c.21-.28.53-.18.76-.31s.11-.59.51-.2c.37-.91,1.58-.41,2.21-1,.18-.18.47-.26.68-.46s.11-.26.21-.32a9.38,9.38,0,0,0,.75-.6c.53-.38,1.08-.59,1.4-1.12.81.15,1.39-.37,2-.63.07,0,.08-.13.14-.15s.13.2.18.21,0-.26,0-.25.2.21.27.18a7,7,0,0,0,.7-.38c.08-.05.11-.25.19-.29.31-.13,1,.39.89-.4C3844.39,646.8,3844.37,647.26,3844.09,646.81Z"/><path class="cls-14" d="M3681.3,637.72a.45.45,0,0,0,.22-.11c.24.45.81.48,1.12.84.14.18.17.49.33.66s.25,0,.3,0c.39.3.37,1,.82,1.26.08,0,.25,0,.31,0s.14.56.31.76c0,0,.22,0,.26,0s.05.16.11.22a9.07,9.07,0,0,1,1.29,1c.28.3.65.54.9.86a1,1,0,0,1,.07.85c.55.12.32.7.36,1.07s.4.35.09.76c.36-.12.23,0,.26.08.25.38.16.95.42,1.32s.36.59,1.26.39c.2-.13.5-.27.54-.4s-.4-.11-.52-.2-.09-.24-.18-.34c-.25-.28-.09-.59-.19-.85s-.58-.21-.15-.57c-.88-.48-.34-1.71-1.05-2.39-.2-.18-.32-.48-.55-.68s-.27-.1-.35-.2a5.87,5.87,0,0,0-.73-.69c-.48-.47-.83-1-1.44-1.14-.07-.85-.8-1.24-1.29-1.77-.05-.06-.16,0-.2-.07s.13-.21.12-.25-.24.1-.25.07.11-.27.06-.32a4.81,4.81,0,0,0-.67-.49c-.08-.06-.27,0-.34,0-.26-.21-.16-1.05-.81-.59C3681.16,637.46,3681.56,637.26,3681.3,637.72Z"/><path class="cls-14" d="M3686.33,629a.45.45,0,0,0,.28,0c.37.78,1.13,1.19,1.58,1.89.2.34.27.8.51,1.14.06.1.31.11.38.2.53.67.59,1.67,1.19,2.33.1.11.31.14.39.27.25.39.25.92.48,1.32,0,.06.27.06.31.13s.08.27.17.39a24.46,24.46,0,0,1,1.65,2.23c.36.62.81,1.18,1.13,1.81a2.44,2.44,0,0,1,.17,1.38c.62.46.43,1.28.51,1.91,0,.42.47.74.17,1.29.38,0,.26.15.29.24.31.74.25,1.67.56,2.39.17.44.42,1.14,1.36,1.09.2-.16.5-.3.53-.5s-.42-.31-.55-.5-.11-.42-.22-.63c-.27-.54-.12-1-.25-1.45s-.64-.57-.2-1c-1-1.14-.5-2.86-1.37-4.23-.23-.39-.4-.9-.68-1.33-.12-.18-.32-.28-.42-.47-.29-.54-.62-1-.93-1.44a9.79,9.79,0,0,0-1.85-2.52c-.19-1.29-1.13-2.27-1.82-3.33-.06-.1-.2-.13-.26-.22s.15-.2.12-.27-.29,0-.3-.06.11-.3,0-.42a11.09,11.09,0,0,0-.91-1.08c-.11-.13-.35-.16-.45-.28-.37-.46-.31-1.53-1.13-1.32C3686.11,628.53,3686.62,628.51,3686.33,629Z"/><g class="cls-12"><path class="cls-5" d="M3440.67,646.47c4.1-3.74,2.21-9.35-2.18-12.75-56.3-15.22-146.42-21.63-247,10.29-23.79,7.55-35.25,14.91-57.6,25.32-10.88,7.55-9.89,9.58-6,11.84,5.86,3.44,14.39,2.78,21.64,1,21.14-5.31,38.09-18.73,59.44-23.42,15.18-3.33,31.17-1.93,46.68-3.85,25.18-3.12,50.8-14.93,74.48-8.74,10,2.61,18,8.16,27.29,11.9s21.58,5.41,30.28.37c5.75-3.32,9.07-9.12,15.71-11.18,6.13-1.91,12.79,0,19,1.42S3436.39,650.37,3440.67,646.47Z"/></g><path class="cls-13" d="M3136.73,654.46c-4.29,6.71-5.79,15.59,1.67,20,5.86,3.44,14.38,2.78,21.64,1,21.14-5.31,38.08-18.73,59.44-23.42,15.18-3.33,31.17-1.93,46.68-3.85,25.18-3.12,50.8-14.93,74.48-8.74,10,2.61,18,8.16,27.29,11.9s21.58,5.41,30.28.37c5.75-3.32,9.07-9.12,15.71-11.18,6.13-1.91,12.79.06,19,1.42s14,1.74,18.32-2.16c4.75-4.33,1.47-11.18-4.43-14.17s-13.44-3.39-20.48-4.41c-34.81-5-63.57-26.86-99.3-25.84-33.86,1-62.12,22.21-95.36,28.21-14,2.54-28.54,2.26-42.74,4s-32.17,7.29-43.55,15.8C3140.05,647.33,3139.3,650.45,3136.73,654.46Z"/><path class="cls-6" d="M3397.32,652.11c-14.19-.43-27.89-5-37.66-12.6-8.61-6.72-16.3-16.43-28.85-16.11-14.88.37-23.65,14.76-38.18,17.68-15.14,3-29-7.49-44.47-7.09-9,.24-17.31,4.16-25.56,7.29a157,157,0,0,1-40.14,9.38c-6.09.6-13.11.6-17.05-2.85-3.6-3.15-3.15-8.21-.44-12a20.75,20.75,0,0,1,3.29-3.56c-8.47,2.74-16.68,6.49-22.9,11.14-5.31,4-6.06,7.09-8.62,11.1-4.3,6.71-5.8,15.59,1.66,20,5.86,3.44,14.38,2.78,21.64,1,21.14-5.31,38.08-18.73,59.44-23.42,15.18-3.33,31.17-1.93,46.68-3.85,25.18-3.12,50.8-14.93,74.48-8.74,10,2.61,18,8.16,27.29,11.9C3376.91,654.89,3388.68,656.55,3397.32,652.11Z"/><g class="cls-12"><path class="cls-13" d="M3433.87,642.08c-1.85-1.43-3.79-2.78-5.7-4.07-3.59-2.44-7.47-5-12.3-5.47s-10.67,2.1-10.75,5.86c0,2,1.4,3.76,2.52,5.56a18.85,18.85,0,0,1,6.28-3.5c6.13-1.91,12.79.06,19,1.42Z"/></g><path class="cls-14" d="M3358.14,579.94a.54.54,0,0,0,.22.2c-.2,1,.13,1.91,0,2.89-.05.46-.29.94-.33,1.42,0,.13.17.33.17.46,0,1-.61,2-.56,3,0,.17.14.35.13.52-.05.54-.39,1-.48,1.57,0,.09.17.25.16.35s-.11.32-.12.49c0,1.17,0,2.21-.14,3.25-.11.82-.12,1.66-.27,2.47a3.22,3.22,0,0,1-.74,1.43c.19.86-.46,1.53-.81,2.19-.22.43-.07,1-.67,1.37.34.19.11.31.08.42-.21.91-.84,1.8-1,2.7-.13.54-.36,1.38.44,1.88.26-.05.59,0,.74-.18s-.15-.55-.14-.82a5.3,5.3,0,0,1,.21-.74,7,7,0,0,1,.69-1.58c.14-.41-.17-.94.44-1.06-.08-1.73,1.39-3.08,1.58-4.94.06-.52.25-1.11.3-1.71,0-.25-.07-.48,0-.72.12-.71.13-1.34.2-2a13.54,13.54,0,0,0,.16-3.65c.68-1.33.59-2.91.72-4.38,0-.15-.07-.27,0-.39s.24-.08.26-.16-.22-.22-.2-.28.28-.2.3-.35c.05-.54,0-1.1,0-1.67,0-.19-.18-.4-.18-.58,0-.69.73-1.62,0-2C3358.25,579.36,3358.66,579.73,3358.14,579.94Z"/><path class="cls-14" d="M3385.68,575a.76.76,0,0,0-.11.36c-1.38.8-2.28,2-3.52,3-.57.45-1.3.81-1.89,1.31-.16.14-.25.47-.4.62-1.12,1.11-2.67,1.88-3.73,3.17-.18.22-.25.5-.43.71-.59.64-1.39,1.07-2,1.69-.09.11-.08.4-.18.52s-.4.35-.57.57c-.58.73-1.08,1.44-1.55,2.14l-1.42,2c-.79,1.06-1.42,2.2-2.15,3.26a8.43,8.43,0,0,1-1.72,1.81c-.37,1.23-1.43,2.07-2.17,3-.47.62-.63,1.47-1.44,1.94.26.31,0,.47-.11.63-.67,1.32-1.68,2.66-2.23,4-.3.83-.81,2.13-.08,2.74.3-.1.65-.07.86-.35s0-.78.07-1.17a10.34,10.34,0,0,1,.46-1.09,12.81,12.81,0,0,1,1.33-2.3c.32-.58.23-1.36.93-1.5.74-2.5,3-4.18,4.42-6.6.41-.69,1-1.41,1.5-2.19a10,10,0,0,1,.53-1c.66-.87,1.17-1.7,1.79-2.49s1.27-1.6,1.88-2.33a23.37,23.37,0,0,0,1.6-2.15,53.1,53.1,0,0,0,5.17-4.62c.17-.15.24-.34.39-.46s.28.08.39,0,.08-.38.16-.43.43,0,.62-.18c.63-.53,1.24-1.14,1.91-1.72.24-.2.36-.53.58-.72.85-.69,2.43-1,2.47-2C3386.49,574.53,3386.28,575.21,3385.68,575Z"/><path class="cls-14" d="M3382.93,598.87a.43.43,0,0,0,0,.25c-.59.11-.85.7-1.36.94-.24.11-.59.08-.83.22-.07,0-.05.26-.11.31-.44.36-1.21.27-1.62.74-.06.07-.05.26-.13.32-.24.2-.66.14-.91.31-.05,0,0,.25,0,.29s-.19,0-.26.12c-.47.5-.8,1-1.23,1.44s-.61.75-.95,1.06a1.31,1.31,0,0,1-.93.26c-.09.59-.73.52-1.14.68s-.31.52-.82.36c.2.32,0,.25,0,.3-.37.39-1,.56-1.32,1a1,1,0,0,0,0,1.4c.21.12.47.34.61.31s0-.42,0-.58.2-.19.28-.32c.21-.35.57-.33.81-.53s.06-.64.54-.34c.31-1,1.69-.83,2.32-1.65.18-.23.49-.39.69-.65s.1-.3.2-.38c.3-.25.51-.56.77-.81a6,6,0,0,0,1.43-1.51c.92,0,1.5-.72,2.21-1.14.07,0,.07-.16.14-.19s.17.17.22.16,0-.26,0-.26.24.16.32.12a8.89,8.89,0,0,0,.73-.56c.09-.07.1-.28.18-.33.33-.22,1.13.15.95-.64C3383.27,598.79,3383.29,599.25,3382.93,598.87Z"/><path class="cls-14" d="M3194.33,619.93a.69.69,0,0,0,.21-.14c.38.45,1,.41,1.44.77.2.17.31.5.53.65.06,0,.26-.06.33,0,.5.28.66,1,1.21,1.25.1,0,.27,0,.35,0,.25.19.3.59.53.79,0,0,.23-.07.27,0s.1.17.18.22a11.84,11.84,0,0,1,1.63.93c.37.3.81.52,1.16.85a1.23,1.23,0,0,1,.29.92c.6.08.52.74.65,1.15s.5.33.29.82c.34-.17.25,0,.29.07.35.4.39,1.05.75,1.43.21.24.51.62,1.38.29.17-.17.44-.37.44-.52s-.43-.07-.57-.16-.15-.25-.27-.36c-.32-.28-.23-.65-.4-.92s-.64-.17-.29-.61c-1-.44-.78-1.85-1.69-2.51-.25-.18-.45-.49-.74-.69-.13-.08-.31-.08-.42-.17a9.23,9.23,0,0,0-.94-.68,4.83,4.83,0,0,0-1.83-1.08c-.3-.9-1.18-1.24-1.85-1.75-.07-.05-.18,0-.23-.05s.09-.23.06-.27-.23.13-.25.09,0-.29,0-.34a6.93,6.93,0,0,0-.86-.44c-.1,0-.29,0-.38,0-.34-.2-.44-1.08-1-.54C3194.1,619.67,3194.49,619.42,3194.33,619.93Z"/><path class="cls-14" d="M3198.42,608.93a.5.5,0,0,0,.29,0c.6.79,1.51,1.16,2.17,1.88.3.34.5.83.83,1.18.1.09.36.08.46.18.73.66,1.06,1.75,1.86,2.41.13.11.36.13.47.26.37.4.5,1,.84,1.4,0,.06.29,0,.36.11s.16.29.28.41a30.48,30.48,0,0,1,2.27,2.29c.53.64,1.12,1.22,1.61,1.88a3.24,3.24,0,0,1,.51,1.52c.75.44.76,1.39,1,2.08.14.47.66.77.49,1.43.37-.1.29.14.35.24.48.8.64,1.85,1.12,2.63.28.48.69,1.24,1.61,1.05.16-.21.44-.4.42-.64s-.49-.29-.67-.49-.2-.46-.36-.68a7.84,7.84,0,0,1-.6-1.61c-.18-.39-.77-.55-.43-1.06-1.27-1.17-1.19-3.16-2.4-4.58-.34-.4-.64-.94-1-1.39-.17-.19-.41-.28-.55-.48-.43-.56-.88-1-1.32-1.48a12.46,12.46,0,0,0-2.56-2.57c-.52-1.4-1.77-2.37-2.76-3.45-.1-.1-.25-.12-.33-.21s.1-.23,0-.31-.31,0-.33,0,0-.34-.07-.45a13.44,13.44,0,0,0-1.26-1.08c-.14-.13-.41-.13-.54-.26-.51-.46-.73-1.61-1.54-1.3C3198.06,608.47,3198.6,608.4,3198.42,608.93Z"/><g class="cls-12"><path class="cls-5" d="M5104.45,639.54c4.1-3.74,2.21-9.36-2.19-12.75-56.3-15.21-146.41-21.61-247,10.31-23.79,7.55-35.25,14.91-57.6,25.33-10.88,7.54-9.89,9.58-6,11.84,5.87,3.44,14.39,2.78,21.64,1,21.14-5.31,38.08-18.74,59.44-23.43,15.18-3.34,31.17-1.94,46.68-3.86,25.18-3.12,50.8-14.93,74.48-8.74,10,2.61,18,8.16,27.29,11.9s21.58,5.4,30.28.37c5.75-3.33,9.07-9.12,15.71-11.19,6.13-1.91,12.79.06,19,1.42S5100.17,643.44,5104.45,639.54Z"/></g><path class="cls-13" d="M4800.51,647.56c-4.29,6.71-5.79,15.58,1.67,20,5.86,3.44,14.39,2.78,21.64,1,21.14-5.32,38.08-18.74,59.44-23.43,15.18-3.34,31.16-1.94,46.68-3.86,25.18-3.12,50.8-14.93,74.47-8.74,10,2.61,18,8.16,27.3,11.9s21.58,5.4,30.28.37c5.75-3.33,9.07-9.13,15.71-11.19,6.13-1.91,12.78.06,19,1.42s14,1.74,18.32-2.16c4.74-4.33,1.47-11.18-4.44-14.17s-13.43-3.39-20.47-4.4c-34.82-5-63.58-26.86-99.31-25.84-33.86,1-62.11,22.22-95.35,28.22-14.05,2.54-28.55,2.26-42.75,4s-32.17,7.29-43.55,15.81C4803.83,640.42,4803.08,643.54,4800.51,647.56Z"/><path class="cls-6" d="M5061.09,645.18c-14.18-.42-27.88-5-37.65-12.6-8.61-6.71-16.3-16.42-28.86-16.1-14.87.37-23.64,14.76-38.17,17.68-15.14,3-29-7.49-44.47-7.08-9,.24-17.32,4.15-25.56,7.29a157.21,157.21,0,0,1-40.14,9.38c-6.1.6-13.11.6-17.05-2.85-3.6-3.15-3.16-8.21-.44-12a20.75,20.75,0,0,1,3.29-3.56c-8.48,2.74-16.68,6.49-22.91,11.15-5.3,4-6.05,7.08-8.62,11.1-4.29,6.71-5.79,15.58,1.67,20,5.86,3.44,14.38,2.78,21.64,1,21.14-5.32,38.08-18.74,59.44-23.43,15.18-3.34,31.16-1.94,46.68-3.86,25.18-3.12,50.8-14.93,74.47-8.74,10,2.61,18,8.16,27.3,11.9C5040.69,648,5052.46,649.62,5061.09,645.18Z"/><path class="cls-14" d="M4858.11,613a.67.67,0,0,0,.2-.14c.38.44,1,.41,1.45.77.2.17.31.49.53.65.06.05.26-.06.32,0,.5.27.67,1,1.22,1.25.09,0,.27,0,.35,0,.24.18.3.59.53.79,0,0,.22-.08.27,0s.1.17.18.22a11.29,11.29,0,0,1,1.62.93c.37.3.82.52,1.16.85a1.19,1.19,0,0,1,.29.92c.61.08.52.74.66,1.15s.5.33.28.82c.34-.17.25,0,.29.06.35.41.4,1.06.76,1.44.2.23.5.62,1.37.29.17-.18.44-.37.45-.52s-.43-.07-.58-.16-.14-.25-.26-.36c-.32-.28-.23-.65-.4-.93s-.65-.16-.29-.61c-1-.43-.78-1.84-1.69-2.5-.26-.18-.45-.49-.75-.69-.12-.08-.31-.08-.41-.17a8.34,8.34,0,0,0-.95-.68,4.76,4.76,0,0,0-1.83-1.08c-.3-.9-1.18-1.24-1.85-1.75-.06,0-.17,0-.23,0s.09-.23.06-.27-.23.13-.25.09.05-.29,0-.34a6.16,6.16,0,0,0-.85-.44c-.1,0-.29,0-.38,0-.34-.2-.45-1.08-1-.54C4857.88,612.76,4858.26,612.51,4858.11,613Z"/><path class="cls-14" d="M4862.19,602a.64.64,0,0,0,.3,0c.6.79,1.51,1.16,2.17,1.88.3.34.49.83.83,1.18.09.09.36.08.45.18.74.66,1.07,1.75,1.86,2.41.14.11.36.13.48.26.36.4.5,1,.84,1.39.05.07.29,0,.36.12s.15.29.27.41a28.88,28.88,0,0,1,2.28,2.29c.52.64,1.12,1.22,1.6,1.88a3,3,0,0,1,.51,1.51c.76.45.76,1.39,1,2.09.15.46.66.77.49,1.43.38-.1.3.14.36.24.48.79.64,1.85,1.12,2.63.27.47.68,1.23,1.61,1.05.16-.21.43-.4.42-.64s-.5-.29-.67-.49-.2-.46-.36-.68a7.49,7.49,0,0,1-.6-1.61c-.19-.39-.78-.55-.43-1.07-1.28-1.16-1.2-3.15-2.41-4.57-.34-.4-.63-.94-1-1.39-.16-.19-.4-.28-.55-.48-.43-.56-.88-1-1.31-1.48a12.49,12.49,0,0,0-2.57-2.57c-.52-1.4-1.76-2.37-2.76-3.45-.1-.11-.25-.12-.33-.21s.1-.24.06-.31-.31,0-.34,0,0-.34-.07-.45a13.3,13.3,0,0,0-1.25-1.08c-.15-.13-.41-.13-.55-.26-.51-.46-.73-1.61-1.54-1.3C4861.83,601.56,4862.38,601.49,4862.19,602Z"/><path class="cls-16" d="M1784.7,719.38l246.71-27.91c22.61-2.55,46-5.15,70.18-4.81,38.37.55,70.62,8.27,105.83,12.82,59,7.63,127.49,6.24,189.22.8s118.78-14.64,177.34-22.59c12.84-1.74,26.43-3.46,40.52-3.17,16.6.34,31,3.4,44.27,6.37,48.53,10.8,102.44,27.18,149.62,38.49"/><g class="cls-12"><path class="cls-5" d="M211.42,694.06c4.08-1.39,3.74-5.56.92-8.92-42-24.5-113-51.95-200.54-57-20.69-1.19-31.45.68-51.59,1.74-10.33,2.13-10,3.72-7.34,6.2,4,3.77,11,5.53,17.17,6.21,18.1,2,34.53-2.45,52.68,0,12.89,1.73,25.43,6.77,38.3,9.52,20.88,4.45,43.94,3.32,61.65,13.49,7.47,4.28,12.74,10,19.42,14.84s16.19,9.11,24.24,8.06c5.32-.7,9.2-3.64,15-3.28,5.33.33,10.26,3.34,14.95,5.83S207.15,695.52,211.42,694.06Z"/></g><path class="cls-13" d="M-34.38,620.87c-4.86,3.29-7.93,8.72-2.86,13.52,4,3.76,11,5.53,17.17,6.21,18.1,2,34.54-2.45,52.68,0,12.89,1.74,25.44,6.78,38.3,9.52,20.88,4.46,43.94,3.33,61.66,13.5,7.46,4.28,12.74,10,19.41,14.84s16.19,9.11,24.24,8.06c5.32-.7,9.21-3.64,15-3.28,5.33.33,10.26,3.34,14.95,5.83s10.9,4.76,15.17,3.31c4.72-1.61,3.53-7-.58-10.43s-10.08-5.69-15.52-8.17c-26.9-12.28-45.4-34-74.31-42.56-27.4-8.1-54.56-1.47-82.52-6.12-11.82-2-23.41-5.88-35.19-8.37s-27.37-3.53-38.3-.89C-30.21,617.06-31.47,618.91-34.38,620.87Z"/><path class="cls-6" d="M175.41,686.57c-11.31-3.94-21.35-10.46-27.59-18-5.51-6.62-9.64-15-19.79-18-12-3.59-22.1,3.58-34.38,1.74C80.85,650.41,72,640,59.43,636.21c-7.32-2.18-14.79-1.74-22.07-1.82a158.05,158.05,0,0,1-34.21-4.21c-5-1.18-10.66-3-13.1-6.27-2.22-3-.8-6.19,2.19-8a16.37,16.37,0,0,1,3.39-1.48c-7.39-.39-14.76,0-20.74,1.39-5.1,1.24-6.36,3.09-9.27,5-4.86,3.29-7.93,8.72-2.86,13.52,4,3.76,11,5.53,17.17,6.21,18.1,2,34.54-2.45,52.68,0,12.89,1.74,25.44,6.78,38.3,9.52,20.88,4.46,43.94,3.33,61.66,13.5,7.46,4.28,12.74,10,19.41,14.84C158.43,683.13,167.53,687.25,175.41,686.57Z"/><g class="cls-12"><path class="cls-13" d="M206.88,689.43c-1.19-1.41-2.46-2.8-3.72-4.14-2.37-2.53-4.95-5.19-8.73-6.76s-9-1.37-9.87,1.07c-.44,1.27.33,2.83.85,4.29a17.36,17.36,0,0,1,5.78-.67c5.33.33,10.26,3.34,14.95,5.83Z"/></g><path class="cls-14" d="M159,629.12a.58.58,0,0,0,.17.19c-.4.59-.27,1.31-.58,1.92-.14.28-.46.52-.59.83,0,.08.09.27.06.36-.21.66-1,1.1-1.12,1.81,0,.12.06.29,0,.4-.15.35-.56.55-.74.88,0,0,.11.23.08.29s-.16.17-.2.28a19.92,19.92,0,0,1-.75,2.15c-.26.52-.42,1.1-.71,1.59a1.65,1.65,0,0,1-.92.69c0,.67-.7.86-1.12,1.17s-.26.68-.84.67c.26.28,0,.27,0,.33-.36.55-1.06.9-1.39,1.45a1.13,1.13,0,0,0,0,1.55c.23.09.51.27.67.21s0-.47,0-.66.23-.27.32-.44c.23-.45.63-.52.89-.82s0-.74.58-.56c.25-1.26,1.8-1.57,2.32-2.79.16-.34.45-.67.6-1.07.07-.16,0-.36.12-.51.24-.44.37-.87.56-1.28a6.86,6.86,0,0,0,.86-2.42c.89-.65,1.12-1.75,1.55-2.69,0-.09,0-.2,0-.28s.24,0,.28,0-.16-.22-.13-.25.3,0,.35-.14a9,9,0,0,0,.32-1.11c0-.14-.08-.33,0-.45.15-.45,1-.85.4-1.36C159.22,628.77,159.53,629.14,159,629.12Z"/><path class="cls-14" d="M182.4,632.75a.57.57,0,0,0-.17.27c-1.21.09-2.18.77-3.33,1-.53.13-1.16.11-1.72.28-.16,0-.3.3-.45.36-1.11.45-2.46.38-3.57,1-.19.1-.31.32-.5.4-.61.26-1.31.26-1.92.51-.1,0-.16.29-.27.34s-.39.11-.57.21c-1.24.69-2.22,1.45-3.29,2.08-.86.51-1.63,1.12-2.45,1.65a5.19,5.19,0,0,1-1.79.65c-.58.82-1.62,1-2.44,1.37-.53.26-.85.87-1.61.87.13.36-.14.35-.25.44a11.74,11.74,0,0,1-1.42,1,10.59,10.59,0,0,0-1.35,1.1c-.45.51-1.17,1.29-.67,2.09.27.06.57.24.81.12s.15-.61.31-.87a5.26,5.26,0,0,1,.62-.64,7.29,7.29,0,0,1,1.62-1.17c.39-.3.5-1,1.1-.75,1.18-1.63,3.4-1.88,5.06-3.17.49-.36,1.13-.68,1.69-1.07a8.11,8.11,0,0,1,.64-.55l2-1.22a34.91,34.91,0,0,0,3.74-2.11c1.72-.18,3.33-1,5-1.56.16-.05.26-.18.4-.22s.19.19.28.18.16-.3.23-.3.33.18.5.13c.6-.19,1.2-.43,1.84-.65.22-.07.39-.3.6-.37.79-.22,2,.21,2.3-.66C183.11,632.67,182.79,633.18,182.4,632.75Z"/><path class="cls-14" d="M175.15,647.67a.64.64,0,0,0-.06.23c-.47-.13-.83.3-1.28.31-.21,0-.46-.17-.68-.14-.06,0-.11.21-.17.23-.43.15-1-.26-1.42,0-.07,0-.12.22-.19.24-.24.07-.54-.16-.78-.11,0,0-.06.23-.1.24s-.16,0-.23,0c-.5.24-.89.58-1.33.76s-.67.4-1,.53a.91.91,0,0,1-.77-.18c-.24.49-.71.14-1.07.1s-.37.33-.72,0c.07.37-.06.23-.11.25-.38.18-.92,0-1.29.29-.21.14-.57.35-.34,1.24.14.2.27.5.39.54s.08-.38.16-.5.2-.08.3-.16c.25-.21.52,0,.76-.1s.22-.54.5-.06c.52-.78,1.52,0,2.22-.43.2-.13.47-.14.7-.29s.16-.21.26-.24c.3-.1.54-.28.8-.39a3.75,3.75,0,0,0,1.49-.75c.71.35,1.33,0,2-.11.06,0,.09-.11.15-.11s.08.23.12.24.05-.25.08-.23.14.25.2.24a4.77,4.77,0,0,0,.71-.21c.09,0,.15-.21.23-.23.31-.06.8.6.89-.19C175.43,647.74,175.32,648.17,175.15,647.67Z"/><path class="cls-14" d="M19.05,613.38a.61.61,0,0,0,.21-.11c.18.43.72.45,1,.8.11.16.1.46.24.61s.24,0,.28,0c.35.27.27.93.67,1.16.07,0,.24,0,.29,0s.09.52.23.7c0,0,.22,0,.25,0s0,.16.09.2a9.42,9.42,0,0,1,1.17.89c.23.28.58.49.79.78a.84.84,0,0,1,0,.78c.52.11.26.64.27,1s.36.31,0,.68c.36-.11.23,0,.25.07.21.35.08.86.3,1.19s.31.54,1.23.38c.2-.11.51-.23.56-.35s-.39-.11-.5-.2-.07-.21-.16-.31c-.21-.26,0-.54-.12-.78s-.55-.19-.1-.52c-.83-.43-.22-1.56-.86-2.18-.18-.17-.26-.45-.48-.63s-.26-.09-.32-.18a6.38,6.38,0,0,0-.65-.63c-.43-.42-.72-.89-1.29-1,0-.79-.65-1.15-1.07-1.65,0,0-.15,0-.18-.06s.15-.19.13-.23-.23.09-.24.06.13-.25.09-.3a3.44,3.44,0,0,0-.59-.46c-.06-.05-.25,0-.31,0-.23-.2,0-1-.7-.57C18.94,613.13,19.34,612.94,19.05,613.38Z"/><path class="cls-14" d="M24.63,607.2a.47.47,0,0,0,.26,0c.28.7,1,1,1.32,1.68.16.3.18.72.37,1,.05.09.29.09.35.17.45.59.42,1.5.93,2.08.09.09.29.12.36.22.2.35.15.83.33,1.18,0,.06.26.05.3.11s0,.24.12.35a19.21,19.21,0,0,1,1.42,2c.29.54.69,1,.95,1.59a1.84,1.84,0,0,1,.05,1.21c.58.41.31,1.14.34,1.69,0,.36.4.65.06,1.12.39,0,.25.14.27.22.24.65.11,1.46.35,2.09a1.18,1.18,0,0,0,1.26,1c.21-.13.52-.24.57-.42s-.39-.28-.51-.45-.07-.37-.16-.56c-.23-.48,0-.87-.13-1.28s-.59-.51-.12-.86c-.89-1-.27-2.53-1-3.75-.21-.34-.32-.8-.57-1.17-.1-.16-.29-.26-.37-.42a13.8,13.8,0,0,0-.78-1.27A7.74,7.74,0,0,0,29,612.47c-.07-1.16-.88-2-1.44-3-.06-.09-.19-.11-.23-.19s.16-.19.14-.25-.28,0-.29,0,.14-.29.08-.39a9.52,9.52,0,0,0-.77-1c-.09-.12-.32-.14-.4-.24-.31-.41-.14-1.4-.94-1.19C24.46,606.79,25,606.76,24.63,607.2Z"/><g class="cls-12"><path class="cls-5" d="M805.34,677.77c-1.9,2.2-.22,5.92,2.45,7.07s5.74.5,8.54-.26c5.63-1.52,12.2-3.27,16.84.25,2,1.55,3.3,3.87,5.05,5.72,4.62,4.88,12.2,5.94,18.73,4.35s12.25-5.39,17.81-9.15,11.25-7.61,17.74-9.31c10.27-2.69,21.14.32,31.73-.46a12.44,12.44,0,0,0,5.35-1.33,5.19,5.19,0,0,0,2.79-4.47c-.14-3.48-4.36-5-7.79-5.61a150.91,150.91,0,0,0-54.27.86"/></g><path class="cls-13" d="M806,676.05c-1.42-1.26-3.37,1.66-2.17,3.12s3.44,1.39,5.33,1.18l24.23-2.73c2.56-.29,6.22.38,6.05,3a10.15,10.15,0,0,1-.93,2.49c-1.33,3.82,3.27,7,7.17,8a53.6,53.6,0,0,0,45.25-8.25c6.88-5,13-12,21.44-13.34,9-1.49,18.54,3.8,27,.41a4.32,4.32,0,0,0,2.19-1.59c1-1.6-.17-3.78-1.82-4.66s-3.6-.83-5.47-.89c-10-.34-19.45-4.2-29-7.16s-19.94-5.06-29.41-1.88c-6.61,2.23-12.17,6.84-18.66,9.41-8.09,3.21-17,3.06-25.73,3.75s-20.78,3-26.94,9.1"/><path class="cls-6" d="M922.77,669.86c-6.28-.68-11.21-6.22-17.49-7-5.41-.66-10.62,2.4-14.62,6.11s-7.31,8.17-11.7,11.4-10.44,5.06-15.32,2.63c-6-3-8.46-11.42-15-13.11-2.71-.71-5.57,0-8.25.78s-5.35,1.85-8.15,1.86-5.82-1.25-7-3.8a4.21,4.21,0,0,1-.3-1.09c-7.51,1.18-15.76,3.61-20.5,8.34h0a2.36,2.36,0,0,0-.68,3.17c1.21,1.47,3.44,1.39,5.33,1.18l24.23-2.73c2.56-.29,6.22.38,6.05,3a10.15,10.15,0,0,1-.93,2.49c-1.33,3.82,3.27,7,7.17,8a53.6,53.6,0,0,0,45.25-8.25c6.88-5,13-12,21.44-13.34,8.07-1.34,16.63,2.81,24.41,1.18C932.87,668.2,927.5,670.38,922.77,669.86Z"/><path class="cls-14" d="M837.57,661.72l.22-.07c0,.34.43.37.52.64s-.07.34,0,.46.21,0,.23,0c.21.2-.07.7.23.86,0,0,.21,0,.24,0s-.07.38,0,.52.21-.06.23,0,0,.11,0,.14a9,9,0,0,1,.85.55c.17.17.44.27.59.45s0,.32-.09.56c.46,0,.18.41.16.65s.33.14,0,.49c.34-.17.21,0,.23,0,.19.19.09.58.31.75s.33.27,1.16-.16c.18-.14.45-.33.48-.42s-.35.06-.46,0-.08-.11-.16-.15,0-.34-.12-.48-.51,0-.08-.31c-.75-.09-.09-1-.57-1.32-.14-.08-.18-.26-.33-.35s-.22,0-.26-.08a4,4,0,0,0-.45-.37c-.29-.26-.43-.57-.88-.65.21-.58-.23-.81-.42-1.17,0,0-.12,0-.13,0s.19-.14.19-.17-.23.07-.22,0,.2-.19.18-.23-.22-.22-.33-.34-.22,0-.25,0,.37-.74-.35-.45C837.57,661.53,838,661.4,837.57,661.72Z"/><path class="cls-14" d="M836.07,652.89a.57.57,0,0,0,.22-.13c.44.47,1.12.49,1.61.91.22.2.34.55.59.73.06.06.27,0,.34,0,.55.34.71,1.15,1.3,1.47.09.06.28,0,.36.09.26.23.31.66.53.92,0,0,.25,0,.3,0s.09.2.18.27a12.47,12.47,0,0,1,1.64,1.33c.37.39.8.74,1.13,1.16a1.51,1.51,0,0,1,.21,1.06c.59.25.45.93.52,1.41,0,.32.47.49.18,1,.37-.09.25.08.28.15.3.52.24,1.25.54,1.76a1.08,1.08,0,0,0,1.32.69c.2-.14.5-.27.53-.44s-.42-.2-.54-.34-.1-.31-.21-.47c-.27-.39-.13-.76-.25-1.11s-.63-.35-.21-.75c-1-.74-.54-2.21-1.42-3.15-.24-.26-.42-.63-.71-.91-.13-.12-.31-.16-.42-.29a11.74,11.74,0,0,0-.94-.93,5.66,5.66,0,0,0-1.89-1.5c-.29-1-1.24-1.51-2-2.13-.07-.06-.19,0-.25-.09s.1-.22.06-.27-.25.11-.27.07,0-.3,0-.36a5.49,5.49,0,0,0-.95-.55c-.12-.06-.32,0-.42,0-.38-.23-.56-1.15-1.17-.63C835.81,652.61,836.21,652.37,836.07,652.89Z"/><path class="cls-14" d="M906.89,649.43l.18.14c-.28.1,0,.46-.19.62s-.31.07-.36.16.14.15.13.18c0,.23-.57.19-.53.47,0,0,.13.16.12.2s-.34.08-.39.19.16.14.15.16-.08,0-.08.08a6.63,6.63,0,0,1,.07.83c0,.19,0,.43,0,.61s-.22.15-.49.12c.29.35-.2.28-.4.36s.08.29-.37.17c.33.2.15.15.15.18,0,.21-.41.26-.4.5s0,.34.77.81a3.92,3.92,0,0,0,.6.23c0-.06-.25-.25-.3-.34s.05-.1,0-.17.23-.16.3-.26-.31-.38.19-.18c-.36-.59.73-.42.68-.89,0-.13.1-.22.09-.37s-.11-.17-.09-.23a1.83,1.83,0,0,0,0-.47c0-.3.2-.52,0-.89.57,0,.49-.46.66-.73,0,0-.06-.1,0-.12s.22.1.24.09-.18-.15-.16-.15.25.08.27.06,0-.25.08-.37-.13-.16-.11-.2.77,0,.14-.42C907,649.36,907.37,649.63,906.89,649.43Z"/><path class="cls-14" d="M912.34,642.06a.49.49,0,0,0,0,.25c-.67.1-1,.73-1.58,1a8.67,8.67,0,0,0-.91.29c-.07,0-.06.27-.12.33-.49.41-1.32.42-1.74,1-.07.09,0,.29-.13.36-.24.25-.7.26-1,.51,0,0,0,.25,0,.29s-.2.11-.27.2c-.44.62-.69,1.26-1.06,1.8s-.46,1-.74,1.37a1.48,1.48,0,0,1-.87.59c.09.64-.58.8-.93,1.15s-.13.65-.67.73c.31.23.1.25.07.32-.21.55-.74,1-.86,1.63a1,1,0,0,0,.66,1.31c.25,0,.57.07.69,0s-.23-.37-.26-.54.09-.28.11-.44c.06-.44.39-.59.54-.88s-.18-.65.38-.57c-.08-1.16,1.32-1.51,1.72-2.49.11-.3.39-.55.53-.87.06-.14,0-.33.12-.44.26-.34.4-.71.63-1A9.49,9.49,0,0,0,908,646c1-.21,1.53-1,2.3-1.46.07,0,.07-.17.14-.2s.18.16.24.15,0-.26,0-.27.26.16.34.12c.27-.16.51-.41.81-.6.1-.06.11-.28.21-.33.38-.22,1.18.19,1.08-.62C912.73,642,912.69,642.47,912.34,642.06Z"/><path class="cls-14" d="M903.47,621.75a.7.7,0,0,0-.05.35c-1.18.79-1.8,2-2.77,3-.44.47-1,.86-1.49,1.38-.12.15-.12.47-.22.63a17.44,17.44,0,0,1-1.4,1.62,8.23,8.23,0,0,0-1.28,1.77c-.1.23-.08.51-.19.72-.36.68-1,1.18-1.34,1.88-.06.11,0,.37,0,.49s-.27.39-.36.61c-.59,1.54-.91,2.93-1.32,4.32-.38,1.09-.48,2.24-.77,3.32a5.9,5.9,0,0,1-.87,2c.22,1.14-.48,2.15-.72,3.16-.16.66,0,1.39-.46,2.07.37.15.17.39.17.55a30.41,30.41,0,0,0-.17,4c.12.78.28,2,1.21,2.13.22-.2.54-.33.6-.63s-.38-.58-.49-.91a7.57,7.57,0,0,1-.11-1,10.24,10.24,0,0,1,.14-2.29c0-.57-.39-1.16.18-1.53-.42-2.25.9-4.36,1.26-6.74.07-.69.39-1.46.53-2.23.07-.33,0-.65.11-1,.32-.89.46-1.74.76-2.55.59-1.7,1.38-3.19,1.78-4.61,1.35-1.44,2.31-3.3,3.56-4.88.12-.16.14-.35.25-.47s.28,0,.36,0,0-.35.06-.4.4-.06.54-.21.46-.57.69-.86l.73-.87c.18-.2.24-.51.41-.7.66-.69,2.08-1,2-1.94C904.16,621.27,904.05,621.93,903.47,621.75Z"/><path class="cls-14" d="M895.28,609.61a.82.82,0,0,0,0,.41c-1.16,1.34-1.65,2.94-2.56,4.41-.4.7-1,1.38-1.39,2.14-.11.21-.06.59-.15.8a22.6,22.6,0,0,1-1.25,2.38,14.46,14.46,0,0,0-1.1,2.52c-.07.3,0,.63-.1.92-.27.92-.88,1.73-1.13,2.66,0,.15.1.43.06.6s-.22.55-.29.84c-.39,2-.54,3.82-.76,5.62-.23,1.44-.16,2.88-.31,4.29a9,9,0,0,1-.56,2.7c.39,1.38-.16,2.78-.24,4.08a7.53,7.53,0,0,1-.13,2.66c.39.13.24.45.26.65a44.41,44.41,0,0,0,.5,5.07c.25.95.62,2.45,1.58,2.54.18-.28.48-.47.48-.85s-.48-.7-.64-1.11a9.22,9.22,0,0,1-.29-1.27,16.65,16.65,0,0,1-.25-2.91c-.06-.73-.57-1.39-.07-2-.78-2.75.2-5.66.23-8.73,0-.88.18-1.91.21-2.91a9.81,9.81,0,0,1,0-1.21c.2-1.19.22-2.27.42-3.36.37-2.25,1-4.3,1.22-6.13a16.38,16.38,0,0,0,.83-1.68c.25-.58.51-1.16.74-1.76.45-1.21,1-2.4,1.51-3.56.1-.22.09-.45.2-.63s.3-.05.38-.17,0-.4,0-.49.41-.21.54-.44c.22-.4.42-.83.62-1.25l.67-1.27c.17-.3.19-.68.34-1,.62-1,2.13-1.94,1.87-3C896,608.8,895.93,609.57,895.28,609.61Z"/></g></g></g></svg>