<svg id="_5" data-name="5" xmlns="http://www.w3.org/2000/svg" viewBox="0 0 4495.98 720"><defs><style>.cls-1{opacity:0.1;}.cls-2{fill:#e1f0ff;}</style></defs><g class="cls-1"><path class="cls-2" d="M571.35,269.5c-1.45-8.4-13.18-9.25-21.49-7.36s-19.35,3.24-23.17-4.38c-2.27-4.51-.49-10.08-2-14.91-2.35-7.62-11.93-10.6-19.8-9.36s-15,5.37-22.75,7.23-17.34.6-21.41-6.25-.87-15.41-2.08-23.17c-2.52-16.19-23.95-23.2-39.2-17.2s-25.45,20.18-35,33.48S363.73,262.42,339,269.5Z"/></g><g class="cls-1"><path class="cls-2" d="M873.22,130.64c-1.24-7.16-11.25-7.9-18.34-6.28s-16.52,2.76-19.78-3.74c-1.93-3.85-.42-8.6-1.69-12.73-2-6.49-10.17-9-16.89-8s-12.8,4.58-19.42,6.17-14.79.51-18.27-5.33-.74-13.16-1.77-19.78c-2.16-13.82-20.45-19.79-33.46-14.68s-21.72,17.22-29.89,28.57S696,124.6,674.94,130.64Z"/></g><g class="cls-1"><path class="cls-2" d="M1562.69,292.17c-1.45-8.4-13.18-9.26-21.49-7.36s-19.35,3.24-23.17-4.38c-2.27-4.52-.49-10.09-2-14.92-2.35-7.61-11.93-10.59-19.8-9.36s-15,5.38-22.75,7.23-17.33.6-21.41-6.24-.87-15.42-2.08-23.18c-2.52-16.19-24-23.19-39.2-17.19s-25.44,20.18-35,33.48-20.71,34.84-45.43,41.92Z"/></g><g class="cls-1"><path class="cls-2" d="M3571.35,269.5c-1.45-8.4-13.18-9.25-21.49-7.36s-19.35,3.24-23.17-4.38c-2.27-4.51-.49-10.08-2-14.91-2.35-7.62-11.93-10.6-19.8-9.36s-15,5.37-22.75,7.23-17.34.6-21.41-6.25-.87-15.41-2.08-23.17c-2.52-16.19-24-23.2-39.2-17.2s-25.45,20.18-35,33.48-20.72,34.84-45.43,41.92Z"/></g><g class="cls-1"><path class="cls-2" d="M3846.57,130.64c-1.07-6.2-9.74-6.83-15.88-5.43s-14.29,2.39-17.12-3.24c-1.67-3.34-.36-7.45-1.46-11-1.73-5.62-8.81-7.83-14.62-6.91s-11.08,4-16.81,5.34-12.8.44-15.82-4.62-.64-11.38-1.53-17.11c-1.86-12-17.7-17.14-29-12.71s-18.8,14.91-25.87,24.73-15.3,25.74-33.56,31Z"/></g><g class="cls-1"><path class="cls-2" d="M4562.69,292.17c-1.45-8.4-13.18-9.26-21.49-7.36s-19.35,3.24-23.17-4.38c-2.27-4.52-.49-10.09-2-14.92-2.35-7.61-11.93-10.59-19.8-9.36s-15,5.38-22.75,7.23-17.33.6-21.41-6.24-.87-15.42-2.08-23.18c-2.52-16.19-23.95-23.19-39.2-17.19s-25.44,20.18-35,33.48-20.71,34.84-45.43,41.92Z"/></g><g class="cls-1"><path class="cls-2" d="M2047.62,126.41c-1.16-6.71-10.53-7.39-17.17-5.88s-15.46,2.59-18.51-3.5c-1.81-3.6-.39-8-1.58-11.91-1.87-6.09-9.53-8.47-15.81-7.48s-12,4.29-18.18,5.78-13.85.48-17.1-5-.7-12.32-1.66-18.52c-2-12.93-19.14-18.52-31.32-13.73s-20.33,16.12-28,26.74-16.55,27.84-36.3,33.49Z"/></g><g class="cls-1"><path class="cls-2" d="M2353.58,232.68c-1.25-7.2-11.32-7.94-18.45-6.31s-16.61,2.78-19.89-3.76c-1.94-3.87-.42-8.66-1.69-12.8-2-6.54-10.24-9.1-17-8s-12.87,4.61-19.52,6.2-14.88.52-18.38-5.36-.74-13.23-1.78-19.89c-2.16-13.89-20.56-19.9-33.65-14.75s-21.83,17.31-30,28.73-17.78,29.9-39,36Z"/></g><g class="cls-1"><path class="cls-2" d="M3046.38,179c-1.25-7.25-11.38-8-18.55-6.35s-16.71,2.79-20-3.78c-2-3.9-.43-8.71-1.71-12.88-2-6.57-10.3-9.14-17.09-8.08s-13,4.64-19.64,6.25-15,.51-18.48-5.4-.75-13.3-1.8-20c-2.17-14-20.68-20-33.84-14.84s-22,17.41-30.23,28.89-17.88,30.08-39.21,36.19Z"/></g></svg>