<svg xmlns="http://www.w3.org/2000/svg" xmlns:xlink="http://www.w3.org/1999/xlink" viewBox="0 0 2100 720"><defs><style>.cls-1{fill:none;}.cls-2{isolation:isolate;}.cls-3{clip-path:url(#clip-path);}.cls-4,.cls-5{fill:#092b4d;}.cls-10,.cls-11,.cls-5{fill-rule:evenodd;}.cls-6{fill:#10395b;}.cls-7{fill:#337a8f;}.cls-8{fill:#1a586f;}.cls-9{mix-blend-mode:multiply;opacity:0.25;}.cls-10{fill:#2a6678;}.cls-11{fill:#1c406b;}</style><clipPath id="clip-path"><rect class="cls-1" width="2100" height="720"/></clipPath></defs><g class="cls-2"><g id="Layer_1" data-name="Layer 1"><g class="cls-3"><path class="cls-4" d="M159.87,403.83c-5.67-2.39-12-1.8-18.62,1.3,8.1-48.07-.74-87.87-23-94.27-21.79-6.26-49.63,21.36-68.29,64.7-4.78-28.37-17.47-46.47-34.77-45-26.61,2.19-54,49.77-61.26,106.26-6.13,47.9,4.24,86.83,23.76,96.21-.76,38.28,20.34,72.32,54.07,82,32.61,9.36,67.29-6.83,87.33-37.6,17.72-8.45,37-34.93,49-70C184.51,459,180.85,412.69,159.87,403.83Z"/><path class="cls-4" d="M1477.72,343.12a40.53,40.53,0,0,1,9.36-13.89c1.5-1.46,3.28-2.87,5.37-3s4.36,1.72,3.92,3.76a34.08,34.08,0,0,1,10.86-10c1.38-.8,3-1.52,4.53-1.09,1.92.52,3,2.59,3.5,4.5a23.45,23.45,0,0,1-2.47,18.31"/><path class="cls-4" d="M1587.07,336.05a11.7,11.7,0,0,1,18.24-14.65c-3-3.63-4-8.94-2-13.18s7.2-6.9,11.66-5.45,7.09,7.25,4.77,11.33a13.4,13.4,0,0,1,5.4-4.66,6.78,6.78,0,0,1,6.84.7c1.86,1.54,2.35,4.66.7,6.41l-2.36,18.55"/><path class="cls-5" d="M1884.45,291.66a2.91,2.91,0,0,0-.67.49c-2,.63-3.8,1.42-5.7,2l-2.83.93a23.12,23.12,0,0,1-2.91.81c-1.88.39-3.92.63-5.9,1.07-.55.09-1.25.39-1.79.48a58.42,58.42,0,0,1-6.29.74c-2.14.08-4.29.2-6.44.44-.71,0-1.37.22-2.1.25-1.13,0-2.26,0-3.39-.05-.56,0-1.13,0-1.69-.08s-1.13-.09-1.69-.11c-.37,0-.92.16-1.33.15-.7,0-1.37-.12-2.08-.13l-1.8,0-1.74-.13-3.36-.23a59.47,59.47,0,0,1-6.45-.77l-2.56-.38c-.85-.15-1.69-.34-2.52-.51-1.68-.35-3.36-.67-5-1.08a52.08,52.08,0,0,1-6.14-2.28,24.94,24.94,0,0,1-4.63-1.62l-2.21-1-2.09-1.1c-.89-.46-1.85-.85-2.81-1.28a9.89,9.89,0,0,1-2.73-1.63c-.5.16-1.07-.35-1.49-.57-3.5-1.71-7-4.32-10.21-6.33-1.89-1.31-4.85-3.4-6-3.11a4.28,4.28,0,0,0,1,1.57c.85.62,1.73.87,2.63,1.42s1.65,1.27,2.62,1.81c2.52,1.44,4,2.73,6,3.91,1.57.86,3.28,1.28,4.14,2.36,1.54.72,3.13,1.36,4.7,2.09.79.37,1.57.75,2.36,1.14l1.19.59,1.22.53,5,2.14c1.72.66,3.52,1.17,5.34,1.69,2.07.63,4.58,1.21,7,1.71,1,.19,1.89.31,2.89.46,1.46.24,2.83.44,4.17.63s2.64.4,4,.48c2.76.21,5.42.6,8,.59a50,50,0,0,0,7.1-.13c1.47.09,3,.13,4.49.14s3.07-.18,4.62-.3c3.1-.18,6.19-.82,9.24-1.25.6-.09,1-.25,1.54-.36s.46.14.8.08.77-.41,1-.45c.58-.09,1,.06,1.58-.07,1.09-.24,2.19-.49,3.3-.78l3.32-1.06c.79-.24,1.51-.64,2.24-.86,1.4-.37,3-.89,4.5-1.33a9.1,9.1,0,0,0,3.41-1.62C1886.78,290.9,1885.51,291.82,1884.45,291.66Z"/><path class="cls-6" d="M1463.57,278.24h2.83a0,0,0,0,1,0,0v5.93a1.41,1.41,0,0,1-1.41,1.41h0a1.41,1.41,0,0,1-1.41-1.41v-5.93A0,0,0,0,1,1463.57,278.24Z"/><path class="cls-6" d="M1461.86,275.22h6.24a0,0,0,0,1,0,0v.14a3.12,3.12,0,0,1-3.12,3.12h0a3.12,3.12,0,0,1-3.12-3.12v-.14A0,0,0,0,1,1461.86,275.22Z" transform="translate(2929.97 553.7) rotate(180)"/><rect class="cls-6" x="1463.91" y="283.85" width="2.15" height="6.08" rx="1.07"/><rect class="cls-4" x="1360.59" y="292.06" width="67.37" height="80.73"/><rect class="cls-6" x="1382.67" y="333.86" width="22.8" height="38.92"/><rect class="cls-6" x="1365.87" y="333.86" width="10.59" height="35.32"/><rect class="cls-6" x="1365.87" y="302.65" width="13.74" height="25.36"/><rect class="cls-6" x="1382.7" y="302.65" width="22.77" height="25.36"/><rect class="cls-6" x="1411.69" y="333.86" width="10.59" height="35.32" transform="translate(2833.97 703.05) rotate(-180)"/><rect class="cls-6" x="1408.38" y="302.65" width="13.9" height="25.36" transform="translate(2830.66 630.65) rotate(-180)"/><path class="cls-7" d="M1336.24,283.91c-2.52,0,1.28-1.43-1.06-.92s-5.12,2.25-5.3,3.62c-.32,2.34,4.54,3.76,8.72,4.28,17.38,2.15,35.46-.77,53.3-1.5,24.76-1,49.58,2.22,74.29.85a20.19,20.19,0,0,0,4.84-.67c1.45-.46,2.59-1.35,2.35-2.25s-1.34-1.38-2.47-1.87c-10.37-4.51-24.62-5.41-38-4.9s-26.48,2.27-39.83,2.38c-19.43.17-39.34-3.12-58,.06"/><path class="cls-8" d="M1339.52,283a1.53,1.53,0,0,1,.27-.67c-1.54.18-3.08.38-4.61.64Z"/><path class="cls-8" d="M1468,290.11c-.86-.91-2.69-1.52-4.51-1.9-12.92-2.71-27.3,1.58-41.2,1.44-8.43-.08-16.43-1.8-24.68-2.68-14.59-1.55-29.68-.47-44.56.13-3.38.13-7,.22-9.91-.67-2.18-.66-3.46-2.79-3.32-4.08a33.91,33.91,0,0,0-5.69.73c-2.34.52-4,2.16-4.22,3.53-.32,2.34,4.54,3.76,8.72,4.28,17.38,2.15,35.46-.77,53.3-1.5,24.76-1,49.58,2.22,74.29.85C1466.78,290.21,1467.38,290.17,1468,290.11Z"/><rect class="cls-8" x="1349.9" y="292.06" width="67.37" height="5.37"/><rect class="cls-4" x="1333.37" y="292.06" width="67.37" height="5.37"/><rect class="cls-6" x="1400.74" y="292.06" width="67.37" height="5.37"/><rect class="cls-6" x="1427.95" y="292.06" width="56.68" height="80.73"/><rect class="cls-4" x="1333.37" y="292.06" width="4.92" height="80.73"/><rect class="cls-6" x="1400.72" y="297.43" width="2.46" height="75.36"/><rect class="cls-6" x="1338.27" y="297.43" width="2.46" height="75.36"/><rect class="cls-4" x="1395.82" y="292.06" width="4.92" height="80.73"/><rect class="cls-4" x="1332.18" y="288.94" width="86.71" height="3.12"/><rect class="cls-6" x="1399.36" y="288.94" width="86.71" height="3.12"/><g class="cls-9"><path class="cls-10" d="M1442.29,371.13a1.44,1.44,0,0,0-.22-.53c.19-2.72-.19-5.23-.13-7.92,0-1.26.23-2.61.23-3.94,0-.37-.19-.86-.2-1.22-.08-2.72.42-5.58.25-8.42,0-.47-.2-.9-.2-1.38,0-1.49.25-3,.25-4.46,0-.25-.21-.6-.22-.87,0-.47.06-.91,0-1.38-.14-3.2-.39-6-.46-8.8-.06-2.27-.24-4.5-.28-6.73a22.45,22.45,0,0,1,.36-4.27c-.41-2.13,0-4.35.19-6.36.09-1.31-.22-2.72.24-4.11-.38-.25-.2-.73-.21-1.05-.07-2.55.23-5.39.11-7.9-.07-1.52-.15-3.9-1.07-4.37-.23.36-.56.56-.64,1.17a16.38,16.38,0,0,0,.43,1.91c.07.59,0,1.35.06,2.07.12,1.89-.13,3.13-.14,4.64,0,1.16.45,2.27-.09,3.09.6,4.41-.43,9-.17,13.92.08,1.41,0,3.07.11,4.66,0,.66.17,1.24.18,1.9,0,1.91.15,3.6.21,5.34.11,3.61.07,7,.43,9.84-.48,3.83-.22,8-.23,12,0,.4.09.71.09,1s-.24.28-.26.5.24.54.22.7c0,.39-.27.6-.27,1,0,1.45.08,2.94.11,4.48,0,.53.19,1.06.19,1.56,0,1.89-.69,4.42.08,5.51C1442.19,372.74,1441.77,371.74,1442.29,371.13Z"/></g><g class="cls-9"><path class="cls-10" d="M1456.38,371.13a1.44,1.44,0,0,0-.22-.53c.19-2.72-.19-5.23-.13-7.92,0-1.26.23-2.61.23-3.94,0-.37-.19-.86-.2-1.22-.08-2.72.41-5.58.24-8.42,0-.47-.19-.9-.19-1.38,0-1.49.25-3,.25-4.46,0-.25-.21-.6-.22-.87,0-.47.06-.91,0-1.38-.14-3.2-.39-6-.46-8.8-.06-2.27-.24-4.5-.28-6.73a22.45,22.45,0,0,1,.36-4.27c-.41-2.13,0-4.35.19-6.36.09-1.31-.22-2.72.24-4.11-.38-.25-.2-.73-.21-1.05-.07-2.55.22-5.39.11-7.9-.07-1.52-.15-3.9-1.07-4.37-.23.36-.56.56-.64,1.17a16.38,16.38,0,0,0,.43,1.91c.07.59,0,1.35.05,2.07.13,1.89-.12,3.13-.13,4.64,0,1.16.45,2.27-.09,3.09.6,4.41-.43,9-.17,13.92.08,1.41,0,3.07.11,4.66,0,.66.17,1.24.18,1.9,0,1.91.15,3.6.2,5.34.12,3.61.08,7,.44,9.84-.48,3.83-.22,8-.24,12,0,.4.1.71.09,1s-.23.28-.25.5.24.54.22.7c0,.39-.27.6-.27,1,0,1.45.08,2.94.11,4.48,0,.53.19,1.06.19,1.56,0,1.89-.69,4.42.08,5.51C1456.28,372.74,1455.86,371.74,1456.38,371.13Z"/></g><g class="cls-9"><path class="cls-10" d="M1470.26,371.13a1.29,1.29,0,0,0-.23-.53c.2-2.72-.18-5.23-.12-7.92,0-1.26.23-2.61.23-3.94,0-.37-.19-.86-.2-1.22-.08-2.72.41-5.58.24-8.42,0-.47-.19-.9-.2-1.38,0-1.49.26-3,.25-4.46,0-.25-.2-.6-.21-.87,0-.47.06-.91,0-1.38-.14-3.2-.39-6-.46-8.8-.06-2.27-.24-4.5-.29-6.73a23.3,23.3,0,0,1,.37-4.27c-.41-2.13,0-4.35.19-6.36.08-1.31-.22-2.72.24-4.11-.38-.25-.21-.73-.21-1.05-.07-2.55.22-5.39.11-7.9-.07-1.52-.15-3.9-1.08-4.37-.23.36-.56.56-.63,1.17a18.66,18.66,0,0,0,.42,1.91c.08.59,0,1.35.06,2.07.13,1.89-.12,3.13-.13,4.64,0,1.16.45,2.27-.09,3.09.6,4.41-.44,9-.17,13.92.07,1.41,0,3.07.1,4.66,0,.66.18,1.24.19,1.9,0,1.91.15,3.6.2,5.34.12,3.61.08,7,.44,9.84-.48,3.83-.22,8-.24,12,0,.4.1.71.09,1s-.23.28-.25.5.23.54.22.7c0,.39-.27.6-.27,1,0,1.45.08,2.94.11,4.48,0,.53.19,1.06.19,1.56,0,1.89-.69,4.42.08,5.51C1470.16,372.74,1469.74,371.74,1470.26,371.13Z"/></g><rect class="cls-4" x="1325.11" y="372.79" width="83.89" height="3.89"/><rect class="cls-6" x="1391.08" y="372.79" width="93.55" height="3.89"/><path class="cls-4" d="M1667,246.64h0a1.41,1.41,0,0,1,1.41,1.41V254a0,0,0,0,1,0,0h-2.83a0,0,0,0,1,0,0v-5.93A1.41,1.41,0,0,1,1667,246.64Z" transform="translate(3333.94 500.62) rotate(-180)"/><path class="cls-4" d="M1667,243.62h0a3.12,3.12,0,0,1,3.12,3.12v.14a0,0,0,0,1,0,0h-6.24a0,0,0,0,1,0,0v-.14A3.12,3.12,0,0,1,1667,243.62Z"/><rect class="cls-4" x="1665.9" y="252.24" width="2.15" height="6.08" rx="1.07" transform="translate(3333.94 510.57) rotate(-180)"/><rect class="cls-6" x="1687.01" y="264.56" width="67.37" height="80.73" transform="translate(3441.39 609.84) rotate(-180)"/><rect class="cls-4" x="1709.49" y="306.36" width="22.8" height="38.92" transform="translate(3441.78 651.64) rotate(-180)"/><rect class="cls-8" x="1738.51" y="306.36" width="10.59" height="35.32" transform="translate(3487.61 648.04) rotate(-180)"/><rect class="cls-8" x="1735.35" y="275.14" width="13.74" height="25.36" transform="translate(3484.45 575.64) rotate(-180)"/><rect class="cls-8" x="1709.49" y="275.14" width="22.77" height="25.36" transform="translate(3441.75 575.64) rotate(-180)"/><rect class="cls-8" x="1692.69" y="306.36" width="10.59" height="35.32"/><rect class="cls-8" x="1692.69" y="275.14" width="13.9" height="25.36"/><path class="cls-7" d="M1641.18,256.4c-2.51,0,1.29-1.43-1-.92s-5.13,2.26-5.31,3.62c-.31,2.34,4.54,3.77,8.72,4.28,17.38,2.16,35.46-.77,53.31-1.5,24.76-1,49.57,2.22,74.29.86a20.11,20.11,0,0,0,4.83-.68c1.46-.46,2.59-1.34,2.36-2.24s-1.35-1.39-2.48-1.88c-10.36-4.5-24.62-5.41-37.95-4.89s-26.48,2.27-39.83,2.38c-19.43.16-39.33-3.13-57.94,0"/><path class="cls-8" d="M1644.46,255.52a1.57,1.57,0,0,1,.27-.68c-1.54.18-3.08.38-4.6.64Z"/><path class="cls-8" d="M1772.91,262.61c-.85-.92-2.69-1.52-4.5-1.9-12.93-2.72-27.3,1.57-41.21,1.43-8.42-.08-16.43-1.8-24.68-2.68-14.59-1.55-29.68-.46-44.55.13-3.38.14-7,.22-9.92-.67-2.18-.66-3.46-2.78-3.32-4.08a34.85,34.85,0,0,0-5.68.73c-2.34.52-4,2.17-4.23,3.53-.31,2.34,4.54,3.77,8.72,4.28,17.38,2.16,35.46-.77,53.31-1.5,24.76-1,49.57,2.22,74.29.86Z"/><rect class="cls-8" x="1697.7" y="264.56" width="67.37" height="5.37" transform="translate(3462.77 534.48) rotate(-180)"/><rect class="cls-6" x="1714.23" y="264.56" width="67.37" height="5.37" transform="translate(3495.82 534.48) rotate(-180)"/><rect class="cls-4" x="1646.86" y="264.56" width="67.37" height="5.37" transform="translate(3361.08 534.48) rotate(-180)"/><rect class="cls-4" x="1630.33" y="264.56" width="56.68" height="80.73" transform="translate(3317.34 609.84) rotate(-180)"/><rect class="cls-6" x="1776.67" y="264.56" width="4.92" height="80.73" transform="translate(3558.27 609.84) rotate(-180)"/><rect class="cls-4" x="1711.79" y="269.92" width="2.46" height="75.36" transform="translate(3426.03 615.21) rotate(-180)"/><rect class="cls-4" x="1774.23" y="269.92" width="2.46" height="75.36" transform="translate(3550.93 615.21) rotate(-180)"/><rect class="cls-6" x="1714.23" y="264.56" width="4.92" height="80.73" transform="translate(3433.37 609.84) rotate(-180)"/><rect class="cls-6" x="1696.07" y="261.44" width="86.71" height="3.12" transform="translate(3478.85 525.99) rotate(-180)"/><rect class="cls-4" x="1628.89" y="261.44" width="86.71" height="3.12" transform="translate(3344.49 525.99) rotate(-180)"/><g class="cls-9"><path class="cls-10" d="M1674.63,343.62a1.6,1.6,0,0,0-.22-.53c.19-2.72-.19-5.23-.13-7.92,0-1.26.23-2.6.23-3.94,0-.37-.19-.85-.2-1.22-.08-2.72.42-5.57.25-8.41,0-.47-.2-.91-.2-1.39,0-1.49.25-3,.25-4.46,0-.24-.21-.6-.22-.87,0-.46.06-.91,0-1.37-.14-3.2-.39-6-.46-8.81-.06-2.26-.24-4.49-.28-6.72a22.49,22.49,0,0,1,.36-4.28c-.41-2.12,0-4.35.19-6.36.09-1.31-.22-2.72.24-4.11-.38-.24-.2-.73-.21-1-.07-2.56.22-5.4.11-7.91-.07-1.51-.15-3.9-1.07-4.37-.23.36-.56.57-.64,1.17a17,17,0,0,0,.43,1.92c.07.58,0,1.35.05,2.07.13,1.88-.12,3.13-.13,4.63,0,1.16.45,2.27-.09,3.09.6,4.41-.43,9-.17,13.93.08,1.4,0,3.06.11,4.65,0,.67.17,1.24.18,1.9,0,1.92.15,3.61.2,5.35.12,3.6.08,7,.44,9.83-.48,3.83-.22,8-.24,12,0,.4.1.7.09,1s-.23.27-.25.5.24.54.22.7c0,.38-.27.59-.27,1,0,1.45.08,2.94.11,4.48,0,.54.19,1.06.19,1.56,0,1.89-.69,4.42.08,5.51C1674.53,345.23,1674.11,344.24,1674.63,343.62Z"/></g><g class="cls-9"><path class="cls-10" d="M1660.54,343.62a1.41,1.41,0,0,0-.22-.53c.19-2.72-.19-5.23-.13-7.92,0-1.26.23-2.6.23-3.94,0-.37-.19-.85-.2-1.22-.07-2.72.42-5.57.25-8.41,0-.47-.2-.91-.2-1.39,0-1.49.25-3,.25-4.46,0-.24-.21-.6-.22-.87,0-.46.06-.91,0-1.37-.14-3.2-.39-6-.46-8.81-.06-2.26-.24-4.49-.28-6.72a22.49,22.49,0,0,1,.36-4.28c-.41-2.12,0-4.35.19-6.36.09-1.31-.21-2.72.24-4.11-.38-.24-.2-.73-.21-1-.07-2.56.23-5.4.11-7.91-.07-1.51-.15-3.9-1.07-4.37-.23.36-.56.57-.64,1.17A17,17,0,0,0,1659,273c.07.58,0,1.35.06,2.07.12,1.88-.13,3.13-.14,4.63,0,1.16.45,2.27-.09,3.09.6,4.41-.43,9-.17,13.93.08,1.4,0,3.06.11,4.65,0,.67.17,1.24.18,1.9,0,1.92.15,3.61.21,5.35.11,3.6.07,7,.43,9.83-.48,3.83-.22,8-.23,12,0,.4.09.7.09,1s-.24.27-.26.5.24.54.22.7c0,.38-.27.59-.27,1,0,1.45.08,2.94.11,4.48,0,.54.19,1.06.19,1.56,0,1.89-.69,4.42.08,5.51C1660.44,345.23,1660,344.24,1660.54,343.62Z"/></g><g class="cls-9"><path class="cls-10" d="M1646.66,343.62a1.41,1.41,0,0,0-.22-.53c.19-2.72-.19-5.23-.13-7.92,0-1.26.23-2.6.24-3.94,0-.37-.2-.85-.21-1.22-.07-2.72.42-5.57.25-8.41,0-.47-.19-.91-.2-1.39,0-1.49.25-3,.25-4.46,0-.24-.21-.6-.22-.87,0-.46.06-.91,0-1.37-.14-3.2-.39-6-.46-8.81,0-2.26-.24-4.49-.28-6.72a22.49,22.49,0,0,1,.36-4.28c-.41-2.12.05-4.35.19-6.36.09-1.31-.21-2.72.24-4.11-.38-.24-.2-.73-.21-1-.07-2.56.23-5.4.11-7.91-.07-1.51-.15-3.9-1.07-4.37-.23.36-.56.57-.64,1.17a17,17,0,0,0,.43,1.92c.07.58,0,1.35.06,2.07.12,1.88-.13,3.13-.14,4.63,0,1.16.45,2.27-.09,3.09.6,4.41-.43,9-.17,13.93.08,1.4,0,3.06.11,4.65,0,.67.17,1.24.18,1.9,0,1.92.15,3.61.21,5.35.11,3.6.07,7,.43,9.83-.48,3.83-.22,8-.23,12,0,.4.09.7.09,1s-.24.27-.26.5.24.54.22.7c0,.38-.26.59-.27,1,0,1.45.08,2.94.11,4.48,0,.54.19,1.06.2,1.56,0,1.89-.7,4.42.07,5.51C1646.56,345.23,1646.15,344.24,1646.66,343.62Z"/></g><rect class="cls-6" x="1705.96" y="345.28" width="83.89" height="3.89" transform="translate(3495.82 694.45) rotate(-180)"/><rect class="cls-4" x="1630.33" y="345.28" width="93.55" height="3.89" transform="translate(3354.22 694.45) rotate(-180)"/><path class="cls-4" d="M1039,240.71c21.28-1.76,36.89,20.52,42.77,55.41,23-53.31,57.2-87.3,84-79.6,27.43,7.88,38.3,56.84,28.34,116,8.1-3.81,15.93-4.54,22.91-1.59,25.81,10.9,30.31,67.92,10,127.35-14.72,43.2-38.48,75.78-60.26,86.18-24.66,37.86-67.33,57.77-107.45,46.25C1017.92,578.77,992,536.9,992.9,489.8c-24-11.54-36.78-59.43-29.24-118.37C972.55,301.94,1006.29,243.41,1039,240.71Z"/><path class="cls-11" d="M1071.28,428.24a5.07,5.07,0,0,0,.64-.89,67.14,67.14,0,0,0,5.8-5.46l5.49-5.68c1.74-1.83,3.73-3.67,5.56-5.64.48-.54,1-1.42,1.43-2,1.73-2.11,3.68-4.12,5.51-6.27s3.65-4.36,5.33-6.66c.53-.79.91-1.59,1.47-2.38,1.7-2.45,3.75-4.64,5.35-7.16.27-.41.5-1.12.79-1.58.5-.78,1-1.48,1.55-2.27l1.26-2,1.13-2,2.18-3.86c1.47-2.5,2.68-5,4-7.53l1.58-3c.5-1,1-2,1.44-3l2.85-6.06c1.14-2.61,2.49-5.25,3.84-7.66a55.51,55.51,0,0,1,2.31-6l1.34-2.9c.42-1,.8-1.92,1.17-2.86.48-1.22.89-2.53,1.34-3.83a40.44,40.44,0,0,1,1.58-3.88c-.22-.59.24-1.46.42-2.07,1.52-4.88,3.22-10.32,4.34-15.23.58-3,1.52-7.67.82-8.76a7.1,7.1,0,0,0-1.12,2.14c-.28,1.32-.19,2.47-.4,3.82-.2,1.15-.53,2.64-.86,4-.85,3.66-1.68,6-2.51,8.89-.69,2.2-.91,4.46-1.91,5.86-2.15,8.56-6.26,16.8-10.17,25.77-1,2.6-2.62,5.51-3.93,8.38-.58,1.2-.93,2.31-1.56,3.46l-2.55,4.83c-.81,1.55-1.59,3.08-2.49,4.57-1.83,3.09-3.53,6.13-5.36,8.87s-3.38,5.44-5,7.83c-1.22,1.48-2.42,3-3.62,4.6l-3.74,4.72c-2.44,3.23-5.12,6.32-7.71,9.37-.52.61-.84,1.14-1.31,1.62s-.54.24-.86.56-.56.95-.79,1.17c-.56.54-1,.7-1.58,1.31l-3,3.24c-1,1.07-2.1,2.15-3.18,3.24-.75.76-1.37,1.63-2.07,2.33-1.31,1.37-3.11,2.67-4.63,4a15,15,0,0,0-3.41,3.54C1068.83,430.33,1070,428.68,1071.28,428.24Z"/><path class="cls-11" d="M1136.3,328.55a.73.73,0,0,0,.12-.32c1.27-.48,2.11-1.48,3.24-2.16.51-.33,1.18-.54,1.72-.92.14-.11.21-.41.35-.53,1-.86,2.4-1.39,3.34-2.45.15-.18.2-.45.36-.61.51-.53,1.25-.81,1.75-1.35.08-.09.06-.36.14-.46s.35-.28.5-.46c1-1.25,1.66-2.43,2.45-3.57.66-.89,1.11-1.9,1.71-2.79a5.44,5.44,0,0,1,1.44-1.55c.17-1.11,1.14-1.78,1.7-2.6.38-.54.45-1.27,1.14-1.69-.3-.27,0-.41,0-.56a31.94,31.94,0,0,0,1.61-3.53c.18-.72.49-1.86-.32-2.35-.27.09-.62.08-.78.33s.13.66.1,1a7.52,7.52,0,0,1-.28.95,11,11,0,0,1-1,2c-.24.49-.05,1.17-.7,1.3-.39,2.17-2.33,3.62-3.41,5.67-.28.61-.81,1.21-1.18,1.88a8,8,0,0,1-.39.84c-.55.72-.93,1.45-1.45,2.12-1,1.39-2.18,2.54-2.92,3.74a49.41,49.41,0,0,0-4.57,3.6c-.15.11-.21.29-.34.37s-.25-.12-.35-.07-.07.34-.15.38-.39-.06-.55.06c-.57.39-1.12.87-1.73,1.28-.21.15-.33.43-.53.57-.78.5-2.18.45-2.27,1.39C1135.56,328.85,1135.78,328.25,1136.3,328.55Z"/><path class="cls-11" d="M1006.29,452.35a4,4,0,0,0,.16-1c2.13-4.54,3.43-9,5.25-13.58.83-2.16,1.88-4.41,2.73-6.72.23-.63.34-1.54.55-2.17.77-2.38,1.74-4.76,2.63-7.19s1.78-4.89,2.5-7.41c.22-.84.3-1.65.55-2.5.76-2.63,1.85-5.14,2.57-7.78.12-.43.1-1.12.23-1.6.22-.82.51-1.58.72-2.42,1.43-5.71,2.45-10.68,3.58-15.77,1-4.06,1.58-8.11,2.42-12.11a73.94,73.94,0,0,1,1.89-7.63c.27-3.91,1.5-7.83,2.19-11.46a60.15,60.15,0,0,1,1.39-7.44c-.32-.5,0-1.36,0-1.93.61-4.65,1.5-9.8,1.9-14.4.2-2.78.55-7.15-.29-8.08a6.3,6.3,0,0,0-.84,2.07c-.11,1.23.12,2.28.08,3.53,0,1.07-.21,2.47-.32,3.78-.29,3.45-.79,5.68-1.14,8.42-.3,2.1-.13,4.18-.87,5.6-.57,8.09-2.93,16.22-4.5,25.09-.4,2.54-1.14,5.5-1.67,8.35-.23,1.2-.3,2.27-.58,3.45-.8,3.4-1.36,6.46-2.12,9.56-1.52,6.43-3.23,12.38-4.4,17.49-.62,1.64-1.21,3.34-1.78,5.07l-1.75,5.25c-1.11,3.54-2.32,7.1-3.53,10.58-.24.69-.33,1.25-.55,1.82s-.4.39-.56.78-.12,1-.24,1.28c-.28.64-.63.93-.9,1.65-.46,1.24-.91,2.52-1.36,3.81s-1,2.58-1.46,3.9c-.34.92-.53,1.88-.86,2.74-1.26,3.23-3.73,7.22-3.77,9.37C1005.06,455.05,1005.38,453.19,1006.29,452.35Z"/><path class="cls-11" d="M1115,372.67a.61.61,0,0,0-.26-.09c-.09-.86-.65-1.52-.81-2.35-.06-.39,0-.85,0-1.26,0-.11-.24-.22-.27-.33-.25-.83.1-1.79-.2-2.64,0-.15-.22-.26-.24-.41-.07-.47.14-.95.11-1.41,0-.08-.22-.18-.23-.26s0-.29,0-.43a20,20,0,0,1-.53-2.77c-.07-.72-.19-1.43-.21-2.15a2.48,2.48,0,0,1,.48-1.32c-.32-.72.21-1.37.45-2,.16-.39-.08-.89.46-1.23-.36-.15-.15-.26-.14-.36.09-.81.59-1.6.68-2.39a1.34,1.34,0,0,0-.64-1.64c-.25,0-.58,0-.71.18s.21.48.23.72-.12.42-.13.66c0,.62-.37.95-.49,1.43s.29.81-.29,1c.32,1.5-.93,2.82-.78,4.48,0,.46,0,1,0,1.52,0,.22.15.41.16.63,0,.62.13,1.17.21,1.73a9.46,9.46,0,0,0,.62,3.13c-.36,1.27.12,2.58.36,3.84,0,.13.13.21.15.31s-.21.14-.21.21.27.12.26.18-.21.24-.18.38a8.49,8.49,0,0,0,.46,1.37c0,.16.27.28.32.43.18.57-.23,1.57.6,1.66C1115.08,373.18,1114.59,373,1115,372.67Z"/><path class="cls-11" d="M1034.12,344.24a.45.45,0,0,0-.2.17c-.6-.39-1.33-.3-2-.64-.28-.17-.5-.51-.8-.66-.08-.05-.29.06-.37,0-.67-.28-1-1.1-1.7-1.37-.12-.05-.3,0-.41-.06-.32-.22-.46-.65-.74-.91,0,0-.25,0-.31,0s-.13-.2-.24-.26a11.77,11.77,0,0,1-1.94-1.32,15.53,15.53,0,0,1-1.35-1.21,1.85,1.85,0,0,1-.35-1.15c-.63-.26-.57-1-.67-1.53-.07-.35-.53-.54-.26-1.06-.37.1-.26-.09-.3-.16-.34-.59-.31-1.38-.62-2a1.18,1.18,0,0,0-1.35-.83c-.19.15-.5.28-.53.46s.43.25.56.41.1.36.22.53c.29.45.16.86.3,1.26s.67.39.26.82c1,.83.74,2.46,1.79,3.46.28.29.53.68.87,1,.14.12.34.17.47.29a11,11,0,0,0,1.15,1,6.35,6.35,0,0,0,2.27,1.46c.51,1,1.64,1.45,2.57,2,.09.05.21,0,.29.06s0,.24,0,.28.24-.14.27-.11,0,.31.13.37a5.48,5.48,0,0,0,1.16.4c.14.05.34-.06.47,0,.47.17.92,1.05,1.43.41C1034.48,344.47,1034.11,344.78,1034.12,344.24Z"/><path class="cls-11" d="M19.2,537.71a4.49,4.49,0,0,0,.63-.89,65.71,65.71,0,0,0,5.8-5.46l5.5-5.69c1.74-1.83,3.72-3.66,5.55-5.63.49-.54,1-1.42,1.44-2,1.72-2.12,3.67-4.13,5.5-6.28s3.66-4.35,5.33-6.65c.53-.79.92-1.6,1.47-2.38,1.71-2.45,3.76-4.64,5.36-7.16.27-.41.49-1.13.78-1.58.5-.78,1-1.48,1.55-2.27l1.26-2c.39-.67.76-1.34,1.14-2l2.17-3.85c1.47-2.5,2.69-5,4-7.53.53-1,1.06-2,1.58-3s1-2,1.44-3l2.86-6.06c1.14-2.61,2.49-5.25,3.84-7.66a53.51,53.51,0,0,1,2.31-6l1.33-2.9c.42-1,.8-1.92,1.18-2.86.48-1.23.88-2.53,1.34-3.83a37.94,37.94,0,0,1,1.57-3.88c-.21-.59.24-1.47.42-2.07,1.53-4.88,3.22-10.32,4.35-15.24.58-3,1.52-7.66.81-8.75a7,7,0,0,0-1.12,2.14c-.27,1.32-.19,2.47-.4,3.82-.19,1.15-.52,2.64-.86,4-.85,3.66-1.68,6-2.51,8.89-.69,2.2-.9,4.45-1.9,5.86-2.16,8.55-6.27,16.8-10.17,25.77-1,2.6-2.62,5.51-3.94,8.38-.57,1.2-.92,2.31-1.56,3.46l-2.55,4.82c-.81,1.56-1.58,3.09-2.48,4.57-1.84,3.09-3.54,6.14-5.37,8.88s-3.38,5.44-5,7.82c-1.22,1.49-2.42,3-3.62,4.61l-3.73,4.72c-2.44,3.23-5.12,6.32-7.72,9.37-.52.6-.84,1.14-1.3,1.62s-.55.24-.87.56-.56,1-.79,1.17c-.55.54-1,.69-1.58,1.3l-3,3.25-3.17,3.24c-.75.76-1.38,1.63-2.08,2.33-1.31,1.37-3.11,2.67-4.63,4a15.13,15.13,0,0,0-3.41,3.53C16.74,539.8,17.94,538.15,19.2,537.71Z"/><path class="cls-11" d="M84.21,438a.55.55,0,0,0,.12-.33c1.27-.47,2.11-1.48,3.24-2.15.52-.33,1.18-.54,1.72-.92.14-.11.22-.42.35-.53,1-.86,2.4-1.39,3.35-2.45.15-.18.19-.45.36-.62.5-.52,1.25-.8,1.74-1.35.09-.08.06-.35.15-.45s.35-.28.49-.46c1-1.25,1.67-2.44,2.46-3.57.66-.89,1.11-1.9,1.71-2.8a5.39,5.39,0,0,1,1.44-1.54c.16-1.11,1.13-1.78,1.7-2.6.37-.54.44-1.27,1.13-1.69-.29-.27,0-.41,0-.56a37.23,37.23,0,0,0,1.61-3.53c.17-.73.48-1.86-.32-2.35-.28.09-.62.08-.79.33s.13.66.1,1a8,8,0,0,1-.28.95,10.36,10.36,0,0,1-1,2c-.23.49,0,1.17-.7,1.3-.38,2.17-2.33,3.61-3.4,5.67-.29.61-.82,1.21-1.18,1.87a8.19,8.19,0,0,1-.39.85c-.56.72-.94,1.45-1.45,2.11-1,1.4-2.18,2.54-2.93,3.75a48,48,0,0,0-4.56,3.6c-.16.11-.21.28-.35.37s-.25-.12-.35-.07-.07.34-.14.37-.39-.05-.56.06c-.57.4-1.11.88-1.73,1.29-.21.14-.33.43-.53.57-.77.5-2.18.45-2.27,1.39C83.47,438.32,83.7,437.71,84.21,438Z"/><path class="cls-11" d="M62.94,482.14a.61.61,0,0,0-.27-.09c-.09-.86-.65-1.52-.81-2.35-.06-.4,0-.85,0-1.26,0-.11-.24-.22-.27-.33-.25-.83.1-1.79-.19-2.65-.05-.14-.22-.25-.25-.4-.07-.47.14-.95.11-1.42,0-.07-.21-.17-.23-.25s0-.29,0-.43a22.33,22.33,0,0,1-.53-2.77c-.06-.72-.19-1.43-.2-2.15a2.51,2.51,0,0,1,.48-1.33c-.33-.71.2-1.36.45-2,.16-.39-.08-.89.45-1.23-.35-.15-.15-.27-.13-.36.08-.81.59-1.61.67-2.4a1.33,1.33,0,0,0-.64-1.63c-.25,0-.58,0-.71.17s.21.49.23.73a6.7,6.7,0,0,1-.12.66c0,.62-.38.95-.49,1.43s.29.81-.3,1c.33,1.51-.93,2.83-.78,4.49,0,.46,0,1,0,1.52,0,.22.15.41.16.63a15.21,15.21,0,0,0,.2,1.73,9.5,9.5,0,0,0,.63,3.13c-.36,1.27.12,2.58.35,3.84,0,.13.14.21.16.31s-.22.14-.22.21.27.12.27.17-.22.25-.19.38a11.16,11.16,0,0,0,.46,1.38c.06.16.28.28.32.43.18.57-.23,1.57.61,1.66C63,482.65,62.5,482.49,62.94,482.14Z"/><path class="cls-4" d="M743,159.65c-29.54-18.35-69.18-1.06-104.32,40,7.34-86.87-16.44-157-61.23-167.22-45.8-10.41-98.91,45.26-129.55,129.92-8.86-11.08-19.65-17.93-32-19.35-45.77-5.26-95.78,65.73-111.7,158.55C292.6,369,302.22,429.45,325.92,459.44c6.91,68,53.64,126.15,120.64,141.38,69.29,15.74,138.9-19.3,173.45-81.44,43.65,3.06,98.68-49.79,132.67-132.36C792.77,289.66,788.44,187.87,743,159.65Z"/><path class="cls-11" d="M588.34,401.92a5.07,5.07,0,0,0,.8-.87,84.82,84.82,0,0,0,6.93-5.23l6.68-5.46c2.13-1.74,4.52-3.46,6.76-5.35.59-.53,1.26-1.39,1.84-1.93,2.18-2,4.58-3.91,6.86-6s4.62-4.12,6.77-6.37c.71-.75,1.26-1.54,2-2.3,2.27-2.33,4.77-4.41,6.95-6.83.36-.39.75-1.1,1.14-1.54.68-.75,1.39-1.41,2.07-2.17,4.58-5.29,8.33-10,12.16-14.89.77-1,1.55-1.92,2.29-2.91l2.17-3c1.43-2,2.91-3.91,4.32-5.89,1.79-2.53,3.81-5.06,5.76-7.35a58.15,58.15,0,0,1,3.84-5.88l2.08-2.8,1.92-2.77c.8-1.19,1.56-2.47,2.35-3.75s1.65-2.55,2.6-3.75c0-.65.65-1.48,1-2.07,2.84-4.8,6-10.11,8.56-15,1.45-3,3.75-7.65,3.38-9a8.25,8.25,0,0,0-1.72,2c-.66,1.32-.92,2.55-1.52,3.91-.52,1.16-1.31,2.64-2,4-1.88,3.65-3.39,5.91-5,8.76-1.29,2.16-2.13,4.48-3.51,5.74-4.44,8.55-10.73,16.39-16.85,25.15-1.69,2.54-3.95,5.37-6,8.15-.86,1.17-1.51,2.26-2.39,3.39-2.63,3.23-4.82,6.19-7.25,9.1-5,6-10,11.43-14.11,16.12q-2.33,2.11-4.65,4.38c-1.54,1.53-3.18,3-4.77,4.52-3.15,3.09-6.47,6.08-9.74,9-.65.57-1.07,1.1-1.63,1.56s-.61.21-1,.51-.75.93-1,1.15c-.67.5-1.17.63-1.87,1.21-1.22,1-2.43,2.05-3.66,3.11L597,393.78c-.91.72-1.71,1.57-2.56,2.25-1.59,1.3-3.67,2.55-5.47,3.79a18,18,0,0,0-4.13,3.42C585.44,403.91,587,402.29,588.34,401.92Z"/><path class="cls-11" d="M651.29,342.85a1.36,1.36,0,0,0,.56-.12,17,17,0,0,0,3.95.64l2,.14c.65.07,1.31.12,2,.15,1.25.08,2.6.38,4,.41.37,0,.86-.22,1.22-.23,2.73-.08,5.63.16,8.45-.36.47-.1.88-.33,1.35-.42a21,21,0,0,1,2.24-.23,16.8,16.8,0,0,0,2.22-.35c.24-.05.54-.33.8-.4.45-.12.9-.15,1.36-.27,1.54-.45,2.94-1,4.3-1.51s2.62-1.12,4-1.62a30.27,30.27,0,0,0,3-1.43c1-.53,2-1,3-1.53a26.54,26.54,0,0,1,3.94-1.66c1.6-1.48,3.77-2.15,5.48-3.24a22.51,22.51,0,0,1,3.48-2.23c0-.45.45-.62.69-.82a64.82,64.82,0,0,0,6-5.14c1-1.15,2.62-2.93,2.25-3.88-.41.11-.8,0-1.26.4a18.16,18.16,0,0,0-1,1.65c-.35.46-.9,1-1.39,1.5-1.3,1.34-2.37,2-3.48,3-.89.7-1.47,1.75-2.44,1.83-.38.39-.77.77-1.19,1.14s-.88.66-1.34,1c-.92.62-1.87,1.23-2.86,1.79-2,1.05-4.1,2.14-6.21,3.31-.6.35-1.26.72-1.95,1.06s-1.44.65-2.13,1-1.05.65-1.65.93c-1.74.69-3.27,1.39-4.88,2s-3.32,1.13-4.91,1.53-3.06.89-4.43,1.27c-1.92.05-3.88.37-5.88.5-1,.08-2,.24-3,.27l-3,.09c-.39,0-.7.12-1,.11s-.27-.25-.49-.28-.54.22-.7.19c-.38-.06-.58-.29-1-.32-.72,0-1.44-.05-2.18-.06s-1.49-.12-2.24-.19c-.53-.05-1.07.07-1.56,0a17.16,17.16,0,0,1-2.94-.75,4,4,0,0,0-2.46-.15C649.71,342.44,650.78,342.23,651.29,342.85Z"/><path class="cls-11" d="M673.27,307.39a.86.86,0,0,0-.41-.1,10.74,10.74,0,0,0-.89-1c-.32-.31-.59-.66-.89-1a12.46,12.46,0,0,1-1.69-2.05c-.42-.74-.77-1.59-1.21-2.37-.12-.22-.44-.41-.56-.63-1-1.58-1.27-3.55-2.08-5.27-.13-.29-.37-.52-.48-.82a9.25,9.25,0,0,1-.35-1.47c-.09-.49-.11-1-.24-1.49,0-.16-.29-.34-.34-.52s-.09-.61-.18-.91c-.29-1-.5-2-.76-3a26,26,0,0,1-.47-2.87c-.12-.77-.16-1.54-.22-2.3a19.78,19.78,0,0,1-.11-2.3,10,10,0,0,1,.59-2.89,9.15,9.15,0,0,1,.93-4.22c.32-.84.17-1.88.94-2.63-.32-.27,0-.53,0-.73a47.68,47.68,0,0,1,2.07-4.92c.43-.93,1.11-2.37.48-3.14-.32.1-.67.06-.94.4s-.11.93-.26,1.39-.46.82-.62,1.3a26.3,26.3,0,0,1-1.38,2.93c-.26.78-.07,1.65-.76,2-.12.77-.26,1.54-.44,2.3s-.47,1.52-.67,2.3-.41,1.59-.59,2.41a12.57,12.57,0,0,0-.23,2.54c0,.5,0,1,0,1.58s0,1.13.06,1.68.18.87.19,1.33c.13,1.33.32,2.5.51,3.69s.41,2.43.73,3.53a16.31,16.31,0,0,0,1.08,3,14.22,14.22,0,0,0,1.1,3.95c.29.64.54,1.3.87,1.93s.67,1.23,1,1.84c.12.25.31.39.41.6s-.11.28,0,.42.4.19.45.29c.11.25,0,.49.15.74.27.43.57.85.87,1.27s.68.79,1,1.21.6.46.82.72l1.24,1.73c.43.56.89,1,1.41,1C674,308.23,673.19,308.05,673.27,307.39Z"/><path class="cls-11" d="M518.34,398.7a9.75,9.75,0,0,0-.29-1.5c-.09-3.86-.34-7.57-.45-11.27s-.37-7.39-.34-11.21c0-3.58.24-7.4.23-11.2,0-1-.14-2.42-.12-3.45.07-3.87.2-7.83.47-11.82s.52-8,.65-12.06c.06-1.34,0-2.58.07-3.94.29-4.23.78-8.41,1.21-12.61.06-.69,0-1.72,0-2.48.11-1.31.3-2.55.4-3.88.76-9.06,1.43-16.89,2.51-24.89l.6-4.77c.23-1.59.45-3.17.68-4.74.46-3.15.88-6.3,1.4-9.42.71-4,1.62-8.11,2.57-11.9a90.61,90.61,0,0,1,1.75-9c.36-1.48.72-3,1.08-4.39s.76-2.86,1.13-4.24c1-3.61,1.49-7.6,2.94-11.31-.2-.76.32-2.07.53-2.93,1.68-7.06,4.19-14.74,6-21.63,1.2-4.13,3.11-10.62,2.62-12.18a13.56,13.56,0,0,0-1.58,3c-.56,1.86-.71,3.46-1.2,5.35-.4,1.61-1.14,3.67-1.64,5.65-1.33,5.21-2.57,8.53-3.69,12.67-.83,3.2-1.18,6.37-2.29,8.5-2.44,12.33-6.35,24.85-8.53,38.72-.7,3.93-1.47,8.61-2.11,13.08-.23,1.89-.43,3.52-.66,5.38l-1,7.73c-.31,2.49-.62,4.91-.85,7.38-1.11,10.19-2.06,19.76-2.28,27.87-.31,2.71-.57,5.48-.81,8.3s-.33,5.69-.47,8.57c-.32,5.75-.33,11.59-.48,17.29,0,1.14,0,2,0,3,0,.7-.24.77-.26,1.42,0,.47.24,1.54.22,2,0,1.1-.26,1.7-.27,2.9q0,3.09,0,6.27c.07,2.13.15,4.28.22,6.47,0,1.52.26,3,.3,4.43.17,5.37-.12,12.6.77,15.65C518.46,403.27,517.91,400.47,518.34,398.7Z"/><path class="cls-11" d="M567.15,184.24a.61.61,0,0,0,.06.35c-.85,1.14-1.25,2.43-2.07,3.58-.4.53-1,1-1.37,1.55-.11.16-.11.47-.22.63a12.28,12.28,0,0,1-1.46,1.62,9.22,9.22,0,0,0-1.49,1.63,7,7,0,0,1-.34.67c-.52.58-1.22,1-1.77,1.52-.09.09-.08.36-.17.47s-.38.29-.54.47c-.54.65-1.06,1.23-1.56,1.8a15,15,0,0,1-1.57,1.62c-.86.81-1.71,1.64-2.63,2.39a6.39,6.39,0,0,1-2.06,1c-.72.94-2,1.17-2.94,1.56-.65.25-1.15.89-2,.81.06.39-.26.35-.4.42-1.16.67-2.64,1-3.81,1.58-.71.34-1.84.84-1.79,1.8.26.15.47.43.8.39s.51-.55.82-.76.68-.24,1-.45A19.07,19.07,0,0,1,544,208c.56-.26.89-.93,1.53-.64,1.8-1.61,4.46-1.92,6.5-3.69.58-.47,1.31-1,2-1.56.27-.24.42-.53.69-.77.76-.68,1.41-1.32,2-2s1.36-1.32,1.94-2a10.53,10.53,0,0,0,1.49-2c1.77-1.14,3-3.06,4.27-4.73.13-.17.14-.36.25-.5s.27,0,.36-.07,0-.37,0-.43.4-.11.53-.29a19.34,19.34,0,0,0,1.23-2c.14-.25.14-.58.28-.81.5-.85,1.78-1.69,1.39-2.56C567.65,183.56,567.76,184.22,567.15,184.24Z"/><path class="cls-11" d="M494.67,221.86a.88.88,0,0,0,.35.24c.52,1.76,1.61,3.1,2.35,4.72.37.76.61,1.65,1,2.44.11.21.45.39.58.6a21.29,21.29,0,0,1,1.28,2.47,14.69,14.69,0,0,0,1.47,2.43c.19.25.5.39.69.65.6.79.92,1.78,1.53,2.56.1.13.42.2.53.33s.32.52.53.75c.69.82,1.42,1.5,2.11,2.18l2,2c1,1.09,2.23,2,3.3,3a10.15,10.15,0,0,1,1.83,2.19c1.34.61,2.15,1.92,3.12,2.85.65.6,1.56.94,2,1.85.36-.21.52.12.7.23a52.3,52.3,0,0,0,4.34,3c.91.44,2.34,1.17,3,.51-.1-.32,0-.68-.35-.94s-.87-.1-1.3-.25-.78-.42-1.2-.64a17.72,17.72,0,0,1-2.48-1.75c-.61-.44-1.48-.49-1.6-1.24-2.7-1.23-4.42-3.9-6.9-5.91-.74-.55-1.43-1.39-2.24-2.05a10.88,10.88,0,0,1-1-.77c-.86-.91-1.73-1.62-2.49-2.48s-1.57-1.72-2.26-2.57-1.39-1.59-2.07-2.26c-1.1-2.31-2.75-4.51-4.07-6.81-.14-.22-.31-.36-.41-.55s.12-.28.07-.42-.38-.2-.41-.3.05-.47-.08-.72c-.45-.83-1-1.67-1.42-2.58-.16-.31-.48-.54-.62-.84-.55-1.13-.53-2.93-1.53-3.3C494.34,220.83,495,221.28,494.67,221.86Z"/><path class="cls-11" d="M598.39,298a1.61,1.61,0,0,0-.28.6c-2.32,2.15-4.36,4.27-6.81,6.23-1.21.85-2.6,1.61-3.85,2.52-.34.26-.71.73-1.07,1-1.33.87-2.76,1.65-4.2,2.43a45.62,45.62,0,0,0-4.42,2.22,13.3,13.3,0,0,1-1.38.87c-1.6.69-3.26,1.2-4.88,1.8-.27.09-.59.42-.88.53-.5.2-1,.3-1.52.5-.88.33-1.69.72-2.53,1l-2.46.82c-.8.26-1.59.54-2.39.77l-2.42.56a77.44,77.44,0,0,1-7.77,1.45,27.19,27.19,0,0,1-5-.1,7,7,0,0,1-1.88.17c-.63,0-1.26-.05-1.89-.11-1.25-.12-2.49-.26-3.64-.49-1.51-.28-3.2-.08-4.73-.8-.34.32-.87,0-1.23,0-.74-.12-1.49-.27-2.25-.43l-1.14-.25c-.38-.1-.75-.23-1.12-.34-1.5-.48-3-.9-4.4-1.28-1.68-.55-4.3-1.43-5.18-.77.31.36.41.75,1.06,1.07s1.5.19,2.29.39,1.49.6,2.34.75c2.19.45,3.53,1.16,5.28,1.54,1.36.26,2.73.06,3.6.77,1.3.15,2.63.15,4,.33s2.66.4,4,.47,2.76.25,4.18.32,2.87-.07,4.33-.2c.83-.05,1.74-.17,2.67-.29s1.89-.25,2.82-.41q.58-.11,1.11-.24c.36-.11.71-.22,1.09-.3a56.08,56.08,0,0,0,6.14-1.57l3-.89c1-.3,1.91-.69,2.82-1s1.8-.69,2.64-1,1.6-.82,2.34-1.23a34.41,34.41,0,0,0,3.25-1.19c1.06-.5,2.12-1.05,3.18-1.61l1.58-.84,1.52-1,3-1.92c.4-.24.62-.56.95-.78s.4,0,.62-.14.38-.57.54-.66c.39-.24.73-.2,1.13-.49a25.87,25.87,0,0,0,2.06-1.6l2-1.8c.47-.42.83-.95,1.27-1.34,1.63-1.49,4.22-3.16,4.59-4.58C599.79,296.8,599.26,297.9,598.39,298Z"/><path class="cls-11" d="M440.82,425.4c-.39,0-.73,0-1,0a17,17,0,0,1-6.48-3.61,26.27,26.27,0,0,1-4.95-5.8,64,64,0,0,1-3.54-6.86c-.31-.64-.88-1.43-1.18-2.08-1.1-2.46-2.08-5-3.08-7.65s-2-5.24-3.08-7.83c-.37-.86-.84-1.6-1.19-2.48-1.12-2.74-1.88-5.59-2.92-8.34-.17-.45-.61-1-.81-1.54-.32-.85-.55-1.7-.88-2.57-.58-1.48-1.14-2.9-1.68-4.29s-1-2.76-1.56-4.09c-1-2.68-2-5.29-2.88-7.95-1.44-4.26-2.95-8.42-4.25-12.64a73.4,73.4,0,0,1-2-8.25,41,41,0,0,1-1.8-6.12c-.48-2.07-.88-4.13-1.3-6.08-.56-2.54-1.54-5.17-1.73-8-.49-.38-.54-1.36-.69-2-1.24-4.91-2.17-10.46-3.3-15.31-.68-2.92-1.66-7.53-2.75-8.27a6.94,6.94,0,0,0-.18,2.39c.28,1.32.82,2.34,1.16,3.65.29,1.12.55,2.62.9,4,.88,3.64,1.17,6.1,1.84,9,.49,2.25,1.44,4.29,1.31,6,2.62,8.37,3.94,17.44,7,26.76.88,2.64,1.74,5.83,2.79,8.8.43,1.26.91,2.31,1.31,3.55,1.2,3.6,2.34,6.76,3.53,10,2.4,6.74,4.73,13,7.05,18.19,2.29,7.26,5.67,14.85,8.85,22.15.31.73.68,1.23,1,1.83.21.44,0,.6.21,1s.71.85.84,1.14c.32.69.34,1.17.74,1.9a35.4,35.4,0,0,0,5.34,7.18,13,13,0,0,0,1.19,1.05c.43.31.84.61,1.22.93a17.8,17.8,0,0,0,5.28,3.08,11.43,11.43,0,0,0,1.45.37c.47.05.93.09,1.36.11a6.15,6.15,0,0,0,2.11-.39C443.76,425.55,441.89,426.12,440.82,425.4Z"/><path class="cls-11" d="M399.52,346.65a1,1,0,0,0-.4.21c-1-.15-1.91-.14-2.85-.23a17.15,17.15,0,0,1-2.84-.32c-.89-.22-1.8-.62-2.73-.84-.26-.07-.64,0-.9-.05-1.94-.44-3.7-1.62-5.65-2.24-.32-.12-.67-.1-1-.24a26.7,26.7,0,0,1-2.77-1.66c-.15-.09-.48,0-.65-.12s-.55-.37-.85-.51a41.59,41.59,0,0,1-5.54-3.22c-.7-.46-1.34-1-2-1.46a19,19,0,0,1-1.92-1.54,10.79,10.79,0,0,1-1.94-2.48,10.54,10.54,0,0,1-2.83-3.66c-.48-.82-1.4-1.44-1.55-2.56-.41.07-.45-.33-.58-.52-1.12-1.49-1.82-3.46-2.77-5-.52-1-1.31-2.5-2.31-2.46-.1.33-.34.6-.22,1s.7.7,1,1.12.42.92.71,1.37a28.87,28.87,0,0,1,1.56,3.08c.46.73,1.29,1.17,1.17,2a10.42,10.42,0,0,1,.81.95c.27.31.53.64.78,1,.5.67.94,1.4,1.43,2.12a20.6,20.6,0,0,0,3.46,4.07c.4.34.79.75,1.23,1.15s.91.77,1.39,1.13.81.47,1.19.79c1.15.84,2.21,1.52,3.3,2.21a28.79,28.79,0,0,0,6.47,3.28,16.2,16.2,0,0,0,3.91,2,43.26,43.26,0,0,0,4.28,1.34c.28.08.52.06.76.12s.14.28.3.33.44-.15.55-.1c.27.09.38.35.68.42.52.12,1.06.21,1.61.3l1.68.16c.39.05.8-.08,1.16,0,1.37.16,3.23.9,4.05.2C400.67,346.82,399.94,347.19,399.52,346.65Z"/><path class="cls-4" d="M2126.47,199.76c-22.47-7.12-46.28,9-63.47,39.05-8.27-54.23-34.75-93.91-66.15-93.91-32.11,0-59.08,41.49-66.69,97.62-7.58-5.55-15.81-8.25-24.28-7.4-31.3,3.16-53.88,53.6-50.44,112.67,2.51,42.94,18.08,78.61,38.41,93.68,14.91,40.69,54.87,69.81,101.84,69.81,48.58,0,89.67-31.16,103.29-74,29.56-4.21,58.23-44.24,68.39-99.55C2179.34,272.48,2161,210.72,2126.47,199.76Z"/><path class="cls-11" d="M2060.25,411.81a2.53,2.53,0,0,0,.35-.7c2.79-2.62,4.82-5.54,7.32-8.35,1.15-1.34,2.51-2.66,3.71-4.11.32-.4.58-1.06.89-1.47,1.13-1.54,2.44-3,3.68-4.54s2.47-3.11,3.56-4.78c.35-.57.56-1.17.93-1.73,1.13-1.75,2.58-3.29,3.66-5.08.18-.29.28-.82.47-1.14.34-.56.73-1.05,1.06-1.61,2.24-3.9,4-7.37,5.77-10.91q1.11-2.1,2.06-4.25l2-4.25a43,43,0,0,1,2.85-5.28,25.54,25.54,0,0,1,1.66-4.19c.68-1.35,1.38-2.66,1.94-3.95a37.26,37.26,0,0,1,2.26-5.31c-.24-.45.15-1,.29-1.45,1.16-3.39,2.61-7.11,3.53-10.51.5-2.07,1.32-5.31.6-6.17a3.68,3.68,0,0,0-1,1.4c-.24.91-.13,1.74-.31,2.69-.15.79-.47,1.82-.73,2.78-.67,2.55-1.41,4.13-2.07,6.12-.54,1.52-.62,3.14-1.51,4-1.54,6-4.85,11.56-7.55,17.84-.73,1.81-1.85,3.84-2.76,5.85-.39.85-.6,1.64-1,2.45-1.26,2.34-2.23,4.5-3.42,6.62-2.4,4.42-4.93,8.39-6.86,11.9-.85,1-1.67,2.13-2.48,3.25l-2.5,3.39c-1.62,2.32-3.37,4.59-5.08,6.8-.34.44-.52.85-.83,1.2s-.43.14-.64.37-.3.73-.46.9c-.37.39-.73.47-1.11.92-.65.77-1.29,1.57-1.94,2.39l-2,2.42c-.49.57-.84,1.24-1.3,1.76-1.75,2-4.72,4-5.2,5.67C2058.63,413.38,2059.28,412.07,2060.25,411.81Z"/><path class="cls-11" d="M2097.64,366.3a.8.8,0,0,0,.35-.23c1.85.17,3.51-.4,5.3-.56.84-.11,1.77-.05,2.66-.19.24-.05.52-.32.76-.39.88-.25,1.82-.32,2.76-.5a14.17,14.17,0,0,0,2.77-.74c.29-.14.51-.39.81-.51.93-.38,2-.42,2.89-.86.15-.07.29-.35.45-.43s.59-.19.87-.34c1.89-1,3.41-2.12,5-3.18a16,16,0,0,0,1.82-1.33c.58-.47,1.17-.93,1.75-1.37a10.15,10.15,0,0,1,2.48-1.47,5.64,5.64,0,0,1,1.54-1.5,21.16,21.16,0,0,0,1.73-1.22c.67-.58,1.15-1.42,2.1-1.82-.18-.38.17-.51.3-.67a41.18,41.18,0,0,0,3.4-4.09c.5-.89,1.32-2.28.7-3-.33.08-.68,0-1,.3s-.16.86-.33,1.28a9.65,9.65,0,0,1-.72,1.15,17.35,17.35,0,0,1-2,2.33c-.5.56-.64,1.42-1.39,1.46-1.52,2.55-4.4,3.92-6.79,6-.66.64-1.6,1.18-2.4,1.84a12.43,12.43,0,0,1-.94.85c-1.07.65-1.93,1.37-2.93,1.94-2,1.22-4.08,2.1-5.72,3.09a18.06,18.06,0,0,0-1.9.45c-.63.18-1.28.34-1.91.54-1.27.42-2.59.74-3.88,1-.26.05-.43.2-.65.23s-.23-.21-.38-.2-.31.29-.41.29c-.26,0-.44-.2-.71-.16-.47.07-.94.17-1.43.27l-1.48.21c-.35.05-.68.26-1,.3-1.25.12-2.92-.59-3.64.21C2096.55,366.23,2097.22,365.8,2097.64,366.3Z"/><path class="cls-11" d="M2104.47,341.46a.75.75,0,0,0-.31.08c-.9-.72-2-1.07-2.83-1.84-.38-.38-.67-.91-1.09-1.29-.1-.11-.38-.13-.5-.24a6.61,6.61,0,0,1-1.07-1.42,6.33,6.33,0,0,0-1-1.48c-.13-.15-.37-.22-.49-.39a14.23,14.23,0,0,1-.78-1.74c0-.09-.3-.13-.36-.22s-.13-.37-.24-.54a18.28,18.28,0,0,1-1.88-3.32,23.11,23.11,0,0,1-1-2.77,4.36,4.36,0,0,1,.06-1.9,2.21,2.21,0,0,1-.23-1.38,11.32,11.32,0,0,1,.24-1.36c.11-.56-.23-1.19.29-1.75-.36-.13-.16-.33-.16-.46a32.87,32.87,0,0,1,.67-3.31c.12-.63.33-1.62-.47-2.13-.27.07-.6.05-.76.3s.16.64.15,1-.18.58-.19.91a12.66,12.66,0,0,1-.53,2c-.06.53.35,1.07-.23,1.39a7.79,7.79,0,0,1,.12,1.52c0,.51-.11,1-.13,1.55s-.08,1.06-.09,1.61a6.6,6.6,0,0,0,.26,1.64,18.52,18.52,0,0,0,.56,2c.11.29.29.51.4.78a20.46,20.46,0,0,0,1,2.2,12.3,12.3,0,0,0,2.37,3.68,7,7,0,0,0,.5,1.21,10.34,10.34,0,0,0,.77,1.1,24.83,24.83,0,0,0,1.82,2c.12.13.28.16.39.26s-.08.26,0,.34.34,0,.38.05,0,.37.15.5a9.58,9.58,0,0,0,.77.63l.86.55c.2.13.49.12.67.25.67.46,1.33,1.63,2.11,1.21C2105,341.9,2104.43,342.05,2104.47,341.46Z"/><path class="cls-11" d="M2013.22,419.17a4,4,0,0,0-.49-.84c-1.26-4.7-2.77-8.93-4-13.59-.51-2.19-.89-4.57-1.46-6.89-.15-.63-.52-1.44-.68-2.07-.55-2.37-1-4.82-1.42-7.3s-.81-5-1.37-7.47c-.17-.82-.46-1.56-.61-2.41-.45-2.62-.68-5.26-1-7.89-.06-.43-.35-1-.43-1.51-.13-.82-.17-1.61-.31-2.43-.91-5.65-1.73-10.53-2.24-15.58-.23-2-.47-4-.65-6s-.39-4-.54-6a72.4,72.4,0,0,1,0-7.66,36.73,36.73,0,0,1-.23-5.75c0-1.92.16-3.81.26-5.61.12-2.34-.22-4.86.32-7.34-.37-.44-.16-1.31-.15-1.87,0-4.57.62-9.62.79-14.1.15-2.7.41-6.95-.44-7.87a5.63,5.63,0,0,0-.8,2c-.09,1.22.16,2.24.14,3.47,0,1-.2,2.41-.22,3.7-.06,3.39-.46,5.59-.58,8.29-.08,2.08.32,4.08-.27,5.54.43,7.91-.6,16.15.13,25,.16,2.52.34,5.5.61,8.33.13,1.19.32,2.22.44,3.39.37,3.41.71,6.42,1.14,9.51a175.28,175.28,0,0,0,2.85,17.38c.16,1.71.39,3.45.64,5.22s.63,3.53,1,5.31c.66,3.57,1.56,7.13,2.32,10.64.15.7.36,1.21.51,1.79s-.12.53,0,.93.47.89.52,1.17c.13.68,0,1.1.18,1.83.3,1.26.63,2.54,1,3.83s.76,2.58,1.14,3.91c.27.92.69,1.78.93,2.64.93,3.25,1.61,7.79,2.89,9.43C2014,422,2013,420.37,2013.22,419.17Z"/><path class="cls-11" d="M2013.85,279.83a.56.56,0,0,0,.16.24c-.45.8-.42,1.71-.81,2.53-.2.38-.57.71-.76,1.11,0,.11,0,.34,0,.46-.33.86-1.22,1.46-1.55,2.36-.06.15,0,.36-.08.5-.25.43-.73.71-1,1.11,0,.07.06.29,0,.36s-.22.22-.3.36a20.17,20.17,0,0,1-1.46,2.62c-.44.64-.85,1.3-1.33,1.9a2.88,2.88,0,0,1-1.3.76c-.26.78-1.12,1-1.74,1.28-.4.2-.57.75-1.23.67.17.35-.07.3-.15.37-.65.58-1.61.86-2.26,1.41a1.44,1.44,0,0,0-.73,1.69c.22.14.45.39.67.34s.2-.51.36-.71.4-.24.58-.42c.48-.47,1-.49,1.42-.79s.37-.83.93-.57c.84-1.4,2.74-1.63,3.79-3.08.31-.39.74-.79,1.06-1.25.13-.2.17-.43.31-.62.4-.53.71-1,1-1.56a10.43,10.43,0,0,0,1.61-3c1.13-.85,1.6-2.27,2.22-3.49.07-.12,0-.26.08-.36s.25,0,.3-.05-.14-.27-.1-.32.33-.07.39-.21a9.39,9.39,0,0,0,.49-1.47c.06-.18,0-.41,0-.57.21-.61,1.15-1.24.53-1.82C2014.12,279.35,2014.41,279.79,2013.85,279.83Z"/><path class="cls-11" d="M1970.14,315.29a.57.57,0,0,0,.32,0c.6,1.09,1.63,1.68,2.38,2.61.37.42.63,1,1,1.44.11.11.41.12.53.23.9.8,1.51,2,2.58,2.73.18.11.44.11.6.24.53.4.86,1.05,1.4,1.45.08.06.34,0,.44.06s.28.29.46.4c1.23.74,2.38,1.22,3.48,1.82.87.51,1.83.81,2.69,1.27a4.53,4.53,0,0,1,1.5,1.2c1,0,1.7.89,2.47,1.35.51.31,1.19.29,1.6.92.24-.31.38-.07.51,0a31.42,31.42,0,0,0,3.3,1.25c.66.11,1.71.32,2.13-.52-.09-.26-.09-.6-.32-.75s-.6.19-.91.19a5.72,5.72,0,0,1-.88-.2,7.83,7.83,0,0,1-1.86-.76c-.47-.18-1.09.08-1.22-.55-2-.15-3.43-1.89-5.39-2.66-.58-.2-1.16-.63-1.8-.89a8.34,8.34,0,0,1-.8-.26c-.71-.43-1.41-.7-2.06-1.09-1.37-.79-2.52-1.7-3.71-2.22a35.45,35.45,0,0,0-3.75-3.7c-.13-.12-.3-.14-.39-.25s.09-.26,0-.34-.33,0-.36-.07,0-.38-.11-.51c-.43-.46-.93-.88-1.39-1.38-.16-.16-.45-.22-.59-.38-.56-.63-.66-1.94-1.58-1.84C1969.77,314.66,1970.38,314.75,1970.14,315.29Z"/><path class="cls-11" d="M2051.5,346.29a1.06,1.06,0,0,0,0,.46c-.68.82-1.2,1.69-1.82,2.49a18.8,18.8,0,0,1-1.88,2.43c-.69.69-1.56,1.31-2.27,2.06-.2.19-.35.58-.55.78a20.22,20.22,0,0,1-2.52,2,21.08,21.08,0,0,0-2.65,2c-.29.23-.47.55-.78.76a33.24,33.24,0,0,1-3,1.68c-.17.09-.3.41-.48.52s-.64.3-.94.5a43.42,43.42,0,0,1-6,3.36l-1.2.56-1.23.5c-.81.33-1.63.67-2.46.95a13.68,13.68,0,0,1-3.34.48,7.18,7.18,0,0,1-2.46.57l-1.25.07h-1.21c-1,0-2.1.49-3.21.06-.16.38-.55.22-.8.23-2,.2-4.19-.22-6.13-.22-1.18-.07-3-.21-3.54.65.25.27.36.61.83.74a12.28,12.28,0,0,0,1.58-.23c.47,0,1.07.14,1.65.11,1.5-.07,2.48.25,3.68.27.93,0,1.79-.51,2.47,0,.88-.16,1.75-.32,2.65-.41s1.81-.07,2.72-.19,1.86-.17,2.81-.29a19.17,19.17,0,0,0,2.83-.7c1.08-.31,2.35-.72,3.53-1.19.49-.21.89-.46,1.37-.67,1.39-.63,2.62-1.18,3.83-1.85a31.09,31.09,0,0,0,6.57-4.17c.69-.32,1.37-.7,2-1.1s1.28-.93,1.92-1.42c1.29-1,2.41-2.14,3.59-3.19a6.83,6.83,0,0,0,.53-.63c.14-.14.32,0,.46-.11s.12-.48.22-.56.52-.16.75-.4c.4-.41.79-.84,1.17-1.3l1.09-1.44c.26-.34.38-.77.63-1.08.9-1.17,2.58-2.47,2.45-3.59C2052.3,345.32,2052.21,346.19,2051.5,346.29Z"/><path class="cls-11" d="M1965.37,446.05a3.51,3.51,0,0,0-.6.25,14.61,14.61,0,0,1-8.69-3.75,40.94,40.94,0,0,1-3.34-3.66c-.29-.35-.85-.68-1.15-1-2.24-2.65-4.09-5.85-6.41-8.65-.38-.47-.84-.82-1.21-1.31-1.17-1.51-2.06-3.21-3.16-4.76-.19-.26-.62-.51-.83-.78-.36-.47-.62-1-1-1.46-2.46-3.28-4.66-6.07-6.7-9.08-1.64-2.41-3.34-4.72-4.86-7.14a30.57,30.57,0,0,1-2.53-4.88c-1.76-2.13-2.78-4.84-3.92-7.15-.74-1.51-1.89-2.94-2.33-4.73-.48-.09-.62-.73-.82-1.07-1.61-2.86-3-6.23-4.55-9-.93-1.71-2.31-4.42-3.42-4.57a3.39,3.39,0,0,0,.08,1.62c.4.79,1,1.29,1.46,2s.78,1.55,1.24,2.36c1.19,2.11,1.7,3.64,2.6,5.36.67,1.33,1.76,2.37,1.78,3.55,3.22,4.71,5.24,10.34,8.77,15.62,1,1.5,2.07,3.36,3.25,5,.49.71,1,1.26,1.47,2,1.37,2,2.65,3.8,4,5.62a123.66,123.66,0,0,0,7.6,10.08,114,114,0,0,0,9.23,12.39c.34.39.67.63,1,.95s.06.42.25.65.64.35.78.5c.32.38.34.75.73,1.13a22.5,22.5,0,0,0,4.67,3.47,14,14,0,0,0,1.9.73,12.8,12.8,0,0,0,3.83,1.11,5.92,5.92,0,0,0,1.86-.1,3.08,3.08,0,0,0,1.27-.65C1967.21,445.78,1966.15,446.54,1965.37,446.05Z"/><path class="cls-11" d="M1925,403.57a.78.78,0,0,0-.21.26c-1.31.05-2.49.49-3.79.51-.62,0-1.27-.22-1.91-.21-.17,0-.41.17-.59.17a8.56,8.56,0,0,1-2-.3,8.23,8.23,0,0,0-2-.35c-.23,0-.46.1-.69.07a19.77,19.77,0,0,1-2-.7c-.11,0-.33.12-.46.1s-.41-.17-.63-.21a26.52,26.52,0,0,1-4.19-1c-1-.34-2.09-.72-3.1-1.16a5.38,5.38,0,0,1-1.64-1.36,5.19,5.19,0,0,1-2.44-1.91c-.44-.47-1.2-.63-1.4-1.43-.34.21-.4-.08-.52-.18-1-.75-1.73-1.95-2.64-2.76-.52-.51-1.32-1.34-2.2-.95-.07.28-.26.56-.12.84s.67.27.95.48.43.52.72.74a16.39,16.39,0,0,1,1.54,1.76c.43.4,1.15.42,1.1,1.1,2,1,3.3,3.18,5.66,4.17.64.31,1.38.71,2.13,1,.32.11.63.13.94.24a25.6,25.6,0,0,0,2.56.8,16.11,16.11,0,0,0,4.81.92,9.5,9.5,0,0,0,1.38.51,10.39,10.39,0,0,0,1.48.25c1,.16,2,.12,3,.2.19,0,.35-.08.51-.08s.13.24.25.26.27-.24.35-.23.3.27.51.27a10.42,10.42,0,0,0,1.1-.06l1.12-.16c.27,0,.51-.23.76-.26.91-.1,2.29.36,2.68-.47C1925.78,403.56,1925.38,404,1925,403.57Z"/><path class="cls-4" d="M-39.28,490.16c101.32-2.23,201.67-18.06,291-45.87,33.7-10.5,66.74-22.88,104.34-27,40.61-4.45,82.2,1.2,122.8,5.67,90.81,10,209-22.54,301.14-18.35,90.6,4.13,158.19,44.84,244.64,28.59,105.57-19.85,203.59-69.44,312.39-56.72,36.52,4.27,107.5-44.09,144.46-41.39,51.55,3.77,101.9-9.42,153.45-13.19,171.61-12.56,300.68,138.53,466.18,109.43V720H-39.28Z"/><path class="cls-5" d="M1877.33,330a2.84,2.84,0,0,0-.81.27c-2.1,0-4.11.23-6.13.18l-3,0a22.59,22.59,0,0,1-3.07-.13c-1.94-.22-4-.64-6-.84-.55-.08-1.32,0-1.88-.11-1-.17-2.09-.37-3.14-.58s-2.12-.41-3.16-.75c-2.09-.63-4.2-1.21-6.35-1.69-.7-.2-1.38-.26-2.09-.48-1.1-.35-2.18-.76-3.24-1.18-.54-.22-1.08-.4-1.6-.64s-1-.47-1.58-.68c-.35-.14-.94-.16-1.33-.31-.67-.26-1.27-.58-1.95-.83l-1.72-.64-1.62-.72-3.14-1.38a58.24,58.24,0,0,1-5.9-3l-2.31-1.27c-.75-.44-1.48-.92-2.22-1.37-1.48-.93-3-1.83-4.39-2.82a54.73,54.73,0,0,1-5-4.37,26.65,26.65,0,0,1-3.81-3.24l-1.73-1.77c-.54-.6-1-1.23-1.56-1.81-.68-.77-1.45-1.49-2.19-2.25a10.14,10.14,0,0,1-2-2.56c-.53,0-.88-.74-1.19-1.11-2.68-2.93-4.94-6.72-7.22-9.86-1.26-2-3.22-5.09-4.41-5.28a4.53,4.53,0,0,0,.39,1.88c.56.91,1.29,1.5,1.91,2.37s1,1.84,1.76,2.72c1.83,2.33,2.69,4.1,4.13,6,1.15,1.4,2.61,2.45,3,3.79,1.18,1.27,2.45,2.47,3.67,3.74.61.64,1.21,1.3,1.81,2l.91,1,1,.95,4,3.85a56.72,56.72,0,0,0,4.48,3.54c1.74,1.36,3.93,2.79,6,4.12.9.54,1.69,1,2.6,1.48,1.3.73,2.54,1.41,3.75,2.06s2.39,1.3,3.64,1.84c2.58,1.15,5,2.46,7.42,3.3a48,48,0,0,0,6.86,2.29c1.38.58,2.81,1.12,4.27,1.64s3,.83,4.55,1.23c3,.86,6.24,1.24,9.32,1.81.61.1,1.09.1,1.61.14s.39.28.74.33.87-.15,1.12-.11c.59.1.9.36,1.55.43,1.13.12,2.27.22,3.44.29l3.55,0c.84,0,1.67-.15,2.44-.14.37,0,.75,0,1.15,0h1.2l2.42,0a9.4,9.4,0,0,0,3.81-.53C1879.81,329.94,1878.31,330.44,1877.33,330Z"/></g></g></g></svg>