<svg xmlns="http://www.w3.org/2000/svg" xmlns:xlink="http://www.w3.org/1999/xlink" viewBox="0 0 5000 720"><defs><style>.cls-1{fill:none;}.cls-2{isolation:isolate;}.cls-3{clip-path:url(#clip-path);}.cls-4{fill:#10395b;}.cls-5,.cls-7{fill:#1a586f;}.cls-13,.cls-16,.cls-5,.cls-9{fill-rule:evenodd;}.cls-6,.cls-9{fill:#337a8f;}.cls-8{opacity:0.44;}.cls-10,.cls-28{mix-blend-mode:multiply;}.cls-10,.cls-20{opacity:0.25;}.cls-11{fill:#e1f0ff;}.cls-12{fill:#90c5d1;}.cls-13{fill:#2a6678;}.cls-14{fill:url(#linear-gradient);}.cls-15,.cls-28,.cls-30{opacity:0.5;}.cls-16,.cls-17{fill:#63a7b6;}.cls-18,.cls-33{opacity:0.2;}.cls-19{fill:url(#linear-gradient-2);}.cls-21{fill:url(#linear-gradient-3);}.cls-22{fill:url(#linear-gradient-4);}.cls-23{fill:url(#linear-gradient-5);}.cls-24{opacity:0.19;}.cls-25{fill:url(#linear-gradient-6);}.cls-26{fill:url(#linear-gradient-7);}.cls-27{fill:url(#linear-gradient-8);}.cls-29{opacity:0.24;}.cls-30,.cls-31,.cls-32,.cls-33{fill:#fff;}.cls-31{opacity:0.75;}.cls-34{fill:url(#linear-gradient-9);}</style><clipPath id="clip-path"><rect class="cls-1" width="5000.06" height="720.1"/></clipPath><linearGradient id="linear-gradient" x1="4433.16" y1="629.31" x2="4433.16" y2="496.87" gradientUnits="userSpaceOnUse"><stop offset="0.11" stop-color="#337a8f"/><stop offset="1" stop-color="#63a7b6"/></linearGradient><linearGradient id="linear-gradient-2" x1="-464.05" y1="720.26" x2="-464.05" y2="604.7" gradientUnits="userSpaceOnUse"><stop offset="0" stop-color="#1c406b"/><stop offset="0.19" stop-color="#1b496c"/><stop offset="0.63" stop-color="#1a586f"/></linearGradient><linearGradient id="linear-gradient-3" x1="5660.67" y1="720.26" x2="5660.67" y2="622.51" gradientTransform="matrix(-1, 0, 0, 1, 8094.83, 0)" gradientUnits="userSpaceOnUse"><stop offset="0" stop-color="#1c406b"/><stop offset="0.31" stop-color="#1b496c"/><stop offset="1" stop-color="#1a586f"/></linearGradient><linearGradient id="linear-gradient-4" x1="1150.34" y1="719.38" x2="1150.34" y2="674.49" xlink:href="#linear-gradient-2"/><linearGradient id="linear-gradient-5" x1="3430.76" y1="720" x2="3430.76" y2="572.66" gradientTransform="matrix(1, 0, 0, 1, 0, 0)" xlink:href="#linear-gradient-3"/><linearGradient id="linear-gradient-6" x1="4356.42" y1="719.84" x2="4356.42" y2="630.46" gradientUnits="userSpaceOnUse"><stop offset="0.1" stop-color="#337a8f"/><stop offset="0.81" stop-color="#63a7b6" stop-opacity="0.5"/></linearGradient><linearGradient id="linear-gradient-7" x1="4178.76" y1="719.89" x2="4178.76" y2="667.91" gradientUnits="userSpaceOnUse"><stop offset="0.02" stop-color="#337a8f"/><stop offset="0.82" stop-color="#63a7b6" stop-opacity="0.5"/></linearGradient><linearGradient id="linear-gradient-8" x1="3966.69" y1="720.06" x2="3966.69" y2="696.48" gradientUnits="userSpaceOnUse"><stop offset="0.19" stop-color="#337a8f"/><stop offset="0.67" stop-color="#63a7b6" stop-opacity="0.5"/></linearGradient><linearGradient id="linear-gradient-9" x1="4803.35" y1="681.34" x2="4806.57" y2="731.49" gradientUnits="userSpaceOnUse"><stop offset="0" stop-color="#63a7b6"/><stop offset="1" stop-color="#337a8f"/></linearGradient></defs><g class="cls-2"><g id="Layer_1" data-name="Layer 1"><g class="cls-3"><path class="cls-4" d="M3159.57,626.53h23.26a0,0,0,0,1,0,0V638a0,0,0,0,1,0,0h-15.49a9.64,9.64,0,0,1-9.64-9.64v0A1.86,1.86,0,0,1,3159.57,626.53Z"/><path class="cls-4" d="M3169.49,626.53a7.17,7.17,0,0,0,6.48-4.86c.53-1.85.25-3.92,1.55-5.49s4-2.15,6.33-2.49c5.64-.81,11.67-1.22,16.91.67,4.87,1.77,9.91,6.17,11.55,11.25a16.22,16.22,0,0,0,1,3.34,13.52,13.52,0,0,0,2.49,3.24,18.35,18.35,0,0,0,7.17,4.21c4.74,1.53,10.91,3.27,15.89,3.18,14.93-.24,31.73-4.54,50.68-1.55,1.45.23,3,1.36,3,2.84l-55.33,31.91c-9.67.41-19.42.81-29-.67-2.74-.42-5.64-1.1-7.54-3.11s-2.36-4.72-2.81-7.34c-.87-5.14-1.84-13.56-5.51-17.27-2.49-2.51-4.52-4.85-8-5.39a81,81,0,0,0-11.83-1"/><path class="cls-4" d="M3190.08,614.63q.74-6.51.93-13.06a1.07,1.07,0,0,1,1.47-1,16,16,0,0,1,9.92,16.64"/><path class="cls-4" d="M3180.92,618.55c-1.34-4.15-3.84-11-5.46-15-.28-.7.1-1.41.73-1.37a14.24,14.24,0,0,1,7.95,3.11,19,19,0,0,1,6.16,8.93"/><path class="cls-4" d="M3202.17,662.81a147.16,147.16,0,0,1,5.33,34.26,4.12,4.12,0,0,0,.48,2.2,3.5,3.5,0,0,0,3.26,1.15,10.65,10.65,0,0,1,3.6-.08l.65-35.94"/><path class="cls-4" d="M3212.52,663.58a147.16,147.16,0,0,1,5.33,34.26,4.17,4.17,0,0,0,.48,2.21,3.52,3.52,0,0,0,3.26,1.14,10.64,10.64,0,0,1,3.6-.08l.65-35.94"/><path class="cls-5" d="M1817.6,499a9.21,9.21,0,0,0,.22,1.48c-.19,7.59.19,14.6.13,22.1,0,3.51-.23,7.26-.23,11,0,1,.19,2.37.2,3.39.08,7.59-.41,15.55-.24,23.47,0,1.32.19,2.54.2,3.87,0,4.16-.26,8.29-.25,12.44,0,.68.2,1.68.21,2.43,0,1.29-.06,2.53,0,3.83.14,8.93.39,16.64.46,24.56.06,6.32.24,12.54.28,18.76,0,4-.12,8.11-.36,11.94.41,5.92,0,12.11-.19,17.72-.08,3.67.22,7.59-.24,11.48a7.27,7.27,0,0,1,.21,2.91c.07,7.13-.22,15-.11,22.06.07,4.22.15,10.87,1.07,12.18a13.11,13.11,0,0,0,.64-3.25c0-1.9-.34-3.45-.42-5.36-.08-1.62,0-3.76-.06-5.77-.13-5.26.12-8.73.13-12.93,0-3.23-.45-6.33.09-8.62-.6-12.31.43-25.11.17-38.84-.08-3.92,0-8.56-.1-13,0-1.87-.18-3.47-.19-5.31,0-5.34-.15-10-.2-14.91-.12-10.05-.08-19.47-.44-27.43.48-10.68.22-22.35.24-33.55,0-1.11-.1-2-.09-2.89,0-.69.23-.77.25-1.4,0-.46-.23-1.51-.22-2,0-1.07.27-1.66.27-2.83,0-4-.08-8.21-.11-12.5,0-1.49-.19-3-.19-4.35,0-5.27.69-12.33-.08-15.37C1817.7,494.46,1818.12,497.24,1817.6,499Z"/><path class="cls-6" d="M1818.63,505.36h-.1c-14.68,70.1-53.3,131.55-103.7,166.71v32.5h207.5v-32.5C1871.93,636.91,1833.31,575.46,1818.63,505.36Z"/><path class="cls-7" d="M1898.49,658.38c-5.37-4.71-13.39-5.6-20.22-3.47-3.33,1-6.49,2.74-10,3.12s-7.52-1-8.65-4.34c-1-3,.67-6.15,1.55-9.19a17.84,17.84,0,0,0-32.29-14.37l4.15,35.72c-.6,3.57,1.36,7.2,4.16,9.5s6.32,3.51,9.8,4.51a124.25,124.25,0,0,0,34.92,4.86c7.19,0,15.33-1.19,19.53-7S1903.87,663.09,1898.49,658.38Z"/><path class="cls-7" d="M1818.6,505.36h-.07c-14.68,70.09-53.3,131.54-103.7,166.7v32.5h139.61v-32.5C1837,636.91,1823.67,575.46,1818.6,505.36Z"/><rect class="cls-7" x="1854.44" y="672.07" width="67.89" height="32.5"/><g class="cls-8"><path class="cls-7" d="M1822.64,633.76c-3.69,5.17-6.33,11.13-10.67,15.77s-11.25,7.81-17.1,5.31c-5.37-2.3-8.07-8.49-13.1-11.47-6.13-3.65-14.5-1.44-19.54,3.61s-7.29,12.26-8.26,19.33c-1,7.66-.47,16.32,5,21.8,4,4.06,10,5.52,15.6,6.6a229.08,229.08,0,0,0,55.26,3.73c8.51-.44,17.4-1.52,24.62-5.86V672.07c-6.35-12.81-12.15-29.12-17.21-48.06C1831.27,624.38,1826.16,628.84,1822.64,633.76Z"/></g><rect class="cls-7" x="1714.83" y="672.07" width="139.61" height="32.5" transform="translate(3569.27 1376.63) rotate(180)"/><path class="cls-5" d="M1963.68,691.8a1.22,1.22,0,0,0,.13.49c-.67,2.29-.74,4.5-1.26,6.78-.25,1.07-.69,2.18-.92,3.32-.07.31,0,.76,0,1.08s-.12.64-.19,1l1-.37c-1.56-1.35-3-3-4.74-4.21-.34-.23-.74-.35-1.07-.61-1-.8-1.84-1.83-2.84-2.65-.17-.13-.54-.17-.72-.31s-.58-.55-.9-.79c-2.25-1.66-4.27-3-6.23-4.49-1.56-1.21-3.18-2.3-4.71-3.49a17.41,17.41,0,0,1-2.65-2.64c-1.69-.85-2.9-2.44-4.16-3.65-.83-.79-2-1.33-2.62-2.45-.41.16-.62-.25-.84-.42-1.76-1.35-3.49-3.14-5.26-4.44-1.06-.78-2.72-2-3.62-1.58.1.38,0,.75.39,1.14a16,16,0,0,0,1.56.73c.43.26.91.73,1.43,1.09a38.43,38.43,0,0,1,3,2.66c.77.64,1.81.9,2,1.77,3.35,2,5.79,5.3,9.28,7.81,1,.71,2.07,1.68,3.2,2.48.47.34,1,.55,1.4.91,1.3,1,2.52,1.87,3.73,2.79,2.5,1.89,4.75,3.78,6.9,5.08a59.29,59.29,0,0,0,6.87,5.93l.26.21.07-.32.27-1.37c.07-.34,0-.62.1-.9s.28-.19.33-.38-.13-.5-.09-.64c.11-.32.37-.45.44-.81.27-1.23.44-2.52.68-3.84.08-.46,0-.95.08-1.37.32-1.62,1.45-3.63.89-4.72C1964.06,690.44,1964.29,691.38,1963.68,691.8Z"/><polyline class="cls-7" points="1854.44 672.07 1869.02 704.57 1876.77 690.58"/><path class="cls-5" d="M1875.36,691.1a.84.84,0,0,0,0,.42c-1.07,1.54-1.57,3.23-2.51,4.81-.45.74-1.07,1.45-1.52,2.25-.12.22-.11.6-.22.83-.81,1.6-2.11,3-2.92,4.71l1.65.07-.11-.2c-.16-.29-.43-.49-.57-.79-.44-.92-.6-2-1-2.89-.07-.15-.36-.29-.44-.45s-.2-.59-.35-.88c-1-1.94-2-3.56-2.89-5.31-.69-1.39-1.48-2.71-2.14-4.08a10.43,10.43,0,0,1-.87-2.83c-1-1.15-1.17-2.73-1.61-4-.29-.86-1-1.62-.94-2.67-.41,0-.38-.37-.48-.57-.78-1.57-1.31-3.46-2.12-5-.48-.92-1.22-2.38-2.2-2.29-.11.32-.35.58-.25,1s.66.63.92,1,.39.84.64,1.27a23.29,23.29,0,0,1,1.17,3c.32.73,1.05,1.24.79,2,1.78,2.51,2.13,5.8,3.75,8.77.46.84.87,1.91,1.4,2.86.22.4.51.71.7,1.12.56,1.18,1.15,2.19,1.69,3.25a54.33,54.33,0,0,0,3.15,6,16.8,16.8,0,0,0,.74,2.28l.16.4.23-.39c1-1.64,1.87-3.44,2.82-5.13.13-.24.15-.47.26-.66s.3,0,.39-.18,0-.44,0-.53.44-.22.58-.47c.49-.86.9-1.8,1.39-2.74.17-.32.19-.73.35-1,.61-1.14,2.07-2.31,1.76-3.34C1876,690.18,1876,691,1875.36,691.1Z"/><path class="cls-5" d="M1671.36,695.64a1.06,1.06,0,0,0,.35.35c.52,2.2,1.53,4.06,2.17,6.19.25.83.4,1.75.64,2.65l.32,1.18,1-.79.43-.33c.24-.19.43-.6.66-.8,1.69-1.49,3.83-2.6,5.55-4.22.28-.27.46-.63.76-.88.94-.8,2.06-1.37,3-2.15.15-.13.25-.47.42-.62s.62-.43.9-.69c2-1.79,3.58-3.43,5.35-5,1.42-1.24,2.73-2.55,4.14-3.75a15.27,15.27,0,0,1,3-2c1.1-1.43,2.82-2.24,4.19-3.19.9-.62,1.61-1.59,2.79-2-.08-.42.34-.54.54-.71,1.59-1.39,3.6-2.65,5.14-4.06.92-.85,2.4-2.16,2.11-3.12-.37,0-.71-.14-1.14.12s-.58.91-1,1.33-.85.72-1.28,1.13a34.22,34.22,0,0,1-3.06,2.33c-.75.6-1.17,1.54-2,1.55-2.45,2.78-6,4.39-9,7.17-.85.8-2,1.62-2.92,2.52-.4.38-.69.79-1.1,1.14-1.21,1-2.22,2-3.3,3-2.23,2-4.42,3.73-6,5.5-2.76,1.63-5.27,4-7.85,6.12-.26.21-.39.45-.61.62s-.25,0-.38,0l.51.15a.21.21,0,0,0,0-.11c0-.14-.37-.36-.39-.49-.07-.31.09-.55,0-.88-.36-1.15-.84-2.29-1.26-3.49-.15-.42-.46-.78-.59-1.17-.51-1.48-.48-3.69-1.5-4.31C1671,694.34,1671.69,695,1671.36,695.64Z"/><path class="cls-5" d="M1919.07,671.09a8.5,8.5,0,0,0-1.48.22c-7.59-.19-14.6.19-22.09.13-3.51,0-7.27-.23-11-.23-1,0-2.38.19-3.39.2-7.6.07-15.56-.42-23.48-.25-1.31,0-2.53.19-3.87.2-4.16,0-8.29-.25-12.44-.25-.68,0-1.68.21-2.43.22-1.28,0-2.52-.06-3.83,0-8.93.14-16.63.39-24.55.46-6.33.06-12.55.24-18.77.28-4,0-8.11-.12-11.93-.36-5.92.41-12.12,0-17.73-.19-3.67-.09-7.59.21-11.47-.24-.68.38-2,.2-2.92.21-7.12.07-15-.23-22-.11-4.23.07-10.88.15-12.18,1.07a12.91,12.91,0,0,0,3.25.64c1.89,0,3.44-.34,5.35-.43,1.63-.07,3.77,0,5.77-.06,5.27-.12,8.73.13,12.93.14,3.23,0,6.34-.45,8.63.09,12.3-.6,25.1.43,38.84.17,3.91-.08,8.55,0,13-.11,1.87,0,3.48-.17,5.31-.18,5.34,0,10.06-.15,14.91-.21,10.06-.11,19.48-.07,27.43-.43,10.68.48,22.36.22,33.55.23,1.12,0,2-.09,2.9-.09.69,0,.76.24,1.4.26.46,0,1.5-.24,2-.22,1.07,0,1.67.27,2.84.27,4,0,8.2-.08,12.49-.11,1.49,0,3-.19,4.35-.19,5.27,0,12.33.69,15.37-.08C1923.56,671.19,1920.79,671.6,1919.07,671.09Z"/><path class="cls-7" d="M1786.64,595.78a3,3,0,0,0-1.15,2.34,7.67,7.67,0,0,0,2.42,4.45c2.67,2.71,5.52,3.21,7.15,2.83,6.74-1.56,7.7-9,11.17-13.92,4.82-6.83,14.65-8.87,19-16.08a2.32,2.32,0,0,0,.39-1.87,6.62,6.62,0,0,0-2.07-3.08,8,8,0,0,0-2.8-1.54c-7.82-2.71-12.34-.46-15,3.17s-3.76,8.64-6.87,11.83c-4.53,4.64-13.23,5.49-14,13.36"/><path class="cls-7" d="M1786,596.31a9.14,9.14,0,0,1-.73-.82,8.63,8.63,0,0,0-.36,1.78Z"/><path class="cls-7" d="M1825.55,574.85a6.31,6.31,0,0,0-3.33-1.12c-6.32-.1-4.77,8-8.31,11.08-2.14,1.84-6.1,1.74-9.14,2.64-5.37,1.59-7.75,6.28-10.67,10.36a2.87,2.87,0,0,1-3.19,1.52,11,11,0,0,1-4.81-3,2.45,2.45,0,0,0-.61,1.75,7.67,7.67,0,0,0,2.42,4.45c2.67,2.71,5.52,3.21,7.15,2.83,6.74-1.55,7.7-9,11.17-13.92,4.82-6.83,14.65-8.87,19-16.08A3.55,3.55,0,0,0,1825.55,574.85Z"/><path class="cls-5" d="M1006,686.57a.58.58,0,0,0,.22-.1c.31.49.93.58,1.29,1,.15.22.18.56.36.77.05,0,.26,0,.32.06.42.4.35,1.17.81,1.55.07.07.26.06.31.14.18.26.11.65.24.92,0,.05.24,0,.27.06s0,.2.09.27a9.79,9.79,0,0,1,1.14,1.53,14.63,14.63,0,0,1,.69,1.3,1.33,1.33,0,0,1-.16,1c.47.37.11.92,0,1.35-.07.27.27.55-.18.86.38,0,.2.15.21.21.09.54-.24,1.11-.16,1.63,0,.32,0,.81,1,1.06.24,0,.57,0,.66-.17s-.3-.32-.36-.48,0-.31,0-.47c-.11-.43.16-.7.18-1s-.46-.5.08-.7c-.64-.94.28-2.09-.25-3.17-.14-.29-.2-.67-.38-1-.08-.13-.24-.22-.3-.35a8,8,0,0,0-.6-1,4.56,4.56,0,0,0-1.34-1.75c0-1-.76-1.6-1.29-2.29-.06-.07-.17-.06-.22-.11s.14-.2.12-.25-.26.06-.27,0,.12-.28.06-.35a4.36,4.36,0,0,0-.77-.64c-.1-.08-.3,0-.38-.1-.3-.26-.3-1.16-1-.72C1005.85,686.28,1006.27,686.09,1006,686.57Z"/><path class="cls-5" d="M1034.86,666.91a.56.56,0,0,0,0,.31c-.88.73-1.22,1.79-1.94,2.62-.33.4-.82.73-1.15,1.18-.09.12,0,.4-.12.53-.58,1-1.63,1.68-2.11,2.77-.07.18,0,.42-.12.6-.28.54-.85.92-1.13,1.47,0,.09.06.31,0,.42s-.23.3-.3.47c-.5,1.24-.78,2.36-1.19,3.45-.35.87-.51,1.79-.82,2.64a4,4,0,0,1-1,1.5c.11,1-.64,1.66-1,2.42-.24.49-.13,1.12-.71,1.55.33.2.11.35.09.48a29.33,29.33,0,0,0-.88,3.14c0,.62-.16,1.61.71,1.95.25-.1.6-.12.72-.35s-.24-.55-.27-.83a5.19,5.19,0,0,1,.1-.83,8.22,8.22,0,0,1,.56-1.79c.13-.45-.2-1,.41-1.18-.09-1.88,1.45-3.34,1.92-5.25.12-.55.44-1.14.6-1.76a6,6,0,0,1,.14-.78c.3-.71.46-1.39.73-2a31.31,31.31,0,0,0,1.49-3.72,24.84,24.84,0,0,0,2.83-4c.09-.13.08-.29.17-.4s.26,0,.32,0-.06-.32,0-.36.35,0,.46-.17c.35-.47.64-1,1-1.51.13-.17.12-.45.24-.62.47-.61,1.68-.92,1.38-1.76C1035.36,666.46,1035.41,667.05,1034.86,666.91Z"/><path class="cls-5" d="M1044.93,685.36a.64.64,0,0,0,.16.19c-.38.29-.24.82-.5,1.18-.12.16-.4.25-.51.44s.11.21.09.27c-.15.42-.8.59-.87,1.07,0,.08.1.22.07.29-.09.22-.45.3-.56.51,0,0,.13.18.12.22s-.12.1-.14.18c-.12.52-.12,1-.27,1.46s-.14.75-.27,1.08a.84.84,0,0,1-.65.43c.2.5-.38.59-.65.81s0,.49-.53.46c.31.22.12.2.1.25-.14.39-.61.65-.7,1.06-.06.25-.17.63.6,1.13.23.06.54.19.65.14s-.21-.33-.23-.47.1-.2.11-.32c0-.33.35-.38.48-.59s-.22-.53.31-.39c-.18-.91,1.08-1.06,1.22-1.89,0-.23.22-.44.27-.7s-.06-.26,0-.36a7.27,7.27,0,0,0,.24-.85,3.4,3.4,0,0,0,.37-1.59c.72-.31.81-1,1.13-1.59,0,0,0-.14,0-.19s.22.08.26,0-.17-.19-.14-.2.28,0,.31,0a3.76,3.76,0,0,0,.25-.69c0-.08-.08-.24-.05-.31.13-.28,1-.29.36-.82C1045.15,685.19,1045.43,685.53,1044.93,685.36Z"/><path class="cls-5" d="M1291.84,654a2.39,2.39,0,0,0-.68.39,36.22,36.22,0,0,0-5.41,1.32c-1.74.57-3.49,1.07-5.29,1.62s-3.54.91-5.33,1.5c-.48.17-1.05.6-1.53.79-1.76.73-3.64,1.27-5.5,2s-3.72,1.41-5.5,2.29c-.59.32-1.07.74-1.67,1-1.85,1-3.88,1.55-5.69,2.59-.3.17-.64.59-1,.78-.56.32-1.14.55-1.71.89l-1.42.84-1.34.89-2.58,1.72c-1.7,1.09-3.25,2.3-4.89,3.42l-1.93,1.37c-.63.48-1.23,1-1.84,1.46l-3.67,2.9a44.82,44.82,0,0,1-4.87,3.49,25.85,25.85,0,0,1-3.3,3.06L1225,689.7c-.58.46-1.12.94-1.65,1.4a41,41,0,0,1-4.25,3.9c0,.51-.56.89-.85,1.21-2.44,2.62-5.21,5.49-7.37,8.28-1.24,1.72-3.21,4.43-2.86,5.49a4,4,0,0,0,1.5-.91c.56-.75.77-1.56,1.28-2.37s1.11-1.51,1.73-2.3c1.6-2.07,2.89-3.25,4.28-4.81,1.1-1.17,1.82-2.61,3-3.07,3.83-4.84,9.15-8.51,14.34-12.91,1.43-1.32,3.36-2.6,5.07-4,.73-.57,1.27-1.19,2-1.7,1.09-.75,2.11-1.48,3.1-2.19s2-1.43,3-2.06c2.12-1.33,4.14-2.68,6.16-3.78s3.84-2.3,5.57-3.29c1.25-.48,2.51-1,3.77-1.58l3.86-1.64c2.57-1.18,5.24-2.18,7.85-3.18.52-.19.89-.44,1.33-.57s.44.1.75,0,.64-.45.86-.51c.52-.13.87,0,1.43-.18,1-.3,1.92-.65,2.9-1l3-.9c.71-.21,1.38-.58,2-.77,2.55-.7,6.15-.7,7.47-1.81C1294.06,653.62,1292.79,654.33,1291.84,654Z"/><path class="cls-5" d="M1226.5,643.6a1.39,1.39,0,0,0-.12.57c-1.73,2.09-2.79,4.4-4.29,6.61-.69,1-1.57,2.07-2.28,3.2-.19.31-.26.83-.44,1.15-.65,1.19-1.46,2.32-2.23,3.49a34.27,34.27,0,0,0-2.12,3.67c-.19.43-.25.89-.46,1.32-.66,1.33-1.61,2.5-2.24,3.84-.11.22-.08.63-.19.87-.19.42-.45.79-.63,1.21-1.24,2.94-2.14,5.55-3.16,8.18-.84,2.08-1.43,4.23-2.21,6.3a21.92,21.92,0,0,1-1.78,3.87c-.27,2.13-1.44,4.06-2.14,5.94a17.41,17.41,0,0,1-1.39,3.86c.3.33,0,.75-.07,1.06-.63,2.45-1.58,5.13-2,7.59-.25,1.49-.67,3.83.13,4.46.31-.3.67-.43.87-1s-.08-1.26,0-1.94.25-1.3.38-2a45,45,0,0,1,1.23-4.42c.31-1.1.16-2.28.9-2.92.61-4.36,2.94-8.38,4.38-13,.38-1.33,1.05-2.83,1.54-4.32.21-.63.27-1.21.52-1.82.72-1.74,1.23-3.34,1.89-4.93,1.35-3.3,2.84-6.29,3.82-9,2.14-3.17,3.93-6.89,6-10.3.2-.34.27-.65.45-.93s.35-.1.48-.29.08-.57.18-.7c.24-.3.54-.36.76-.71.76-1.21,1.48-2.5,2.31-3.78.29-.44.43-1,.69-1.39,1-1.57,3.07-3.19,3.06-4.53C1227.51,642.35,1227.27,643.4,1226.5,643.6Z"/><path class="cls-5" d="M1188.11,674.88a.58.58,0,0,0,.25.21c0,1.23.42,2.31.47,3.52,0,.56-.15,1.18-.1,1.78,0,.16.22.36.24.53.16,1.21-.27,2.51,0,3.77,0,.21.21.4.22.61,0,.67-.2,1.34-.19,2,0,.11.22.27.23.39s0,.4,0,.61c.16,1.43.42,2.67.48,3.94,0,1,.21,2,.23,3a5,5,0,0,1-.43,1.91c.36,1-.14,1.94-.34,2.83-.13.58.14,1.23-.36,1.82.37.14.17.35.17.49,0,1.14-.43,2.38-.42,3.51,0,.68,0,1.75.86,2.07.25-.14.58-.19.69-.46s-.28-.59-.33-.9a7.87,7.87,0,0,1,0-.94,10,10,0,0,1,.32-2.07c0-.52-.37-1.06.2-1.39-.46-2,.7-4,.5-6.27,0-.64,0-1.39,0-2.11,0-.3-.16-.56-.17-.86,0-.87-.13-1.63-.19-2.42a20.64,20.64,0,0,0-.51-4.41c.43-1.74.06-3.62,0-5.42,0-.18-.12-.31-.12-.46s.22-.14.23-.24-.25-.23-.24-.3.24-.29.23-.48c0-.65-.18-1.32-.28-2,0-.24-.23-.46-.26-.68-.09-.85.48-2.06-.33-2.46C1188.14,674.15,1188.6,674.55,1188.11,674.88Z"/><path class="cls-4" d="M3821.21,665.88c8.59-10.76,10.63-21.77,7.34-35.15-1.54-6.25-4.74-12.5-10.36-15.64s-13.92-1.87-16.86,3.85a80.77,80.77,0,0,0-29.46-68c-6.69-5.37-15.89-9.75-23.59-6s-9.82,13.66-11,22.2a85.94,85.94,0,0,0-56.74-49.1c-7.1-1.84-15.21-2.58-21.26,1.57-5.22,3.59-7.65,10-9.14,16.17a92.78,92.78,0,0,0,.25,44.5c-5.26-7.54-16.41-10.22-24.52-5.89s-12.72,17-9.4,25.55c.88.16,1.46,1.27,2.34,1.44"/><path class="cls-9" d="M3742.05,639.46a1.08,1.08,0,0,0-.38-.36c-.72-2.33-1.94-4.26-2.81-6.49-.42-1-.7-2.23-1.16-3.33-.13-.3-.49-.62-.63-.91-1-2.2-1.63-4.72-2.83-7-.2-.37-.52-.65-.7-1-.59-1.19-.88-2.51-1.46-3.71-.1-.2-.42-.4-.53-.61-.19-.37-.29-.76-.49-1.12-1.36-2.52-2.67-4.62-3.88-6.85-.95-1.79-2-3.46-3-5.21a18.1,18.1,0,0,1-1.46-3.54c-1.27-1.47-1.79-3.44-2.54-5.07-.5-1.07-1.36-2-1.58-3.33-.44,0-.5-.46-.65-.7-1.17-2-2.2-4.29-3.43-6.17-.75-1.13-1.91-2.91-2.92-2.79,0,.39-.22.72,0,1.22s.85.76,1.24,1.24.63,1,1,1.56a41.25,41.25,0,0,1,2,3.63c.5.9,1.38,1.53,1.28,2.44,2.45,3.12,3.52,7.2,5.78,10.95.65,1.06,1.27,2.41,2,3.62.31.51.67.9.94,1.42.78,1.52,1.58,2.8,2.31,4.17,1.52,2.83,2.78,5.56,4.17,7.71a101.61,101.61,0,0,0,4.19,9.87c.14.32.34.53.45.81s-.13.32-.06.51.4.35.44.49c.1.33,0,.59.11.94.5,1.19,1.1,2.38,1.64,3.63.2.44.54.8.72,1.21.66,1.55.83,3.91,1.91,4.52C3742.49,640.83,3741.78,640.16,3742.05,639.46Z"/><path class="cls-9" d="M3691.35,581a.69.69,0,0,0,.32,0c.65,1,1.69,1.4,2.48,2.19.39.36.68.89,1.11,1.25.12.1.41.07.54.15.93.65,1.62,1.74,2.71,2.27.18.08.43,0,.6.14.55.31.92.9,1.47,1.19.09,0,.32-.05.43,0s.3.24.48.32c1.25.52,2.39.81,3.49,1.21.88.35,1.82.48,2.69.78a4,4,0,0,1,1.55.92c1-.16,1.71.57,2.5.88.52.21,1.15.07,1.63.62.18-.35.34-.14.47-.12a28.15,28.15,0,0,0,3.25.61c.64,0,1.65,0,1.89-.91-.13-.25-.19-.58-.42-.68s-.52.3-.81.36a6.16,6.16,0,0,1-.84,0,7.52,7.52,0,0,1-1.84-.39c-.46-.1-1,.27-1.22-.32-1.89.22-3.44-1.23-5.37-1.64-.56-.1-1.16-.42-1.79-.57a5.18,5.18,0,0,1-.79-.11c-.71-.3-1.4-.45-2.06-.72a36.73,36.73,0,0,0-3.73-1.56,30.68,30.68,0,0,0-3.92-3c-.13-.1-.29-.1-.39-.2s.07-.25,0-.33-.32,0-.36,0,0-.37-.14-.48c-.45-.38-1-.72-1.44-1.13-.17-.14-.45-.16-.6-.3-.58-.52-.77-1.76-1.65-1.55C3691,580.47,3691.54,580.48,3691.35,581Z"/><path class="cls-9" d="M3754.23,593.12a.74.74,0,0,0,.16.32c-.48,1.33-.47,2.68-.91,4-.23.62-.63,1.23-.84,1.89-.07.17,0,.47,0,.66-.4,1.37-1.41,2.56-1.83,4a6.17,6.17,0,0,1-.12.73c-.31.71-.85,1.31-1.22,2,0,.12.05.37,0,.5s-.27.39-.36.62a40.27,40.27,0,0,1-1.89,4.21c-.56,1.05-1.1,2.1-1.71,3.1a6.62,6.62,0,0,1-1.63,1.58c-.38,1.12-1.45,1.76-2.25,2.45-.52.45-.77,1.22-1.6,1.43.19.35-.12.42-.23.54-.85,1-2.13,1.83-3,2.81-.54.57-1.42,1.45-1,2.32.29,0,.59.23.88.08s.27-.7.49-1,.53-.48.77-.78a16.9,16.9,0,0,1,1.87-1.62c.43-.44.51-1.18,1.2-1.12,1.14-2.12,3.52-3.3,4.86-5.62.4-.63.93-1.35,1.33-2.09.17-.32.24-.64.41-1,.5-.88.9-1.69,1.3-2.53a21.81,21.81,0,0,0,2-4.79c1.31-1.62,1.89-3.8,2.61-5.78.07-.2,0-.38.09-.55s.27-.06.32-.17-.14-.35-.1-.42.35-.22.42-.43a18.13,18.13,0,0,0,.56-2.31c.07-.27,0-.59,0-.84.24-1,1.2-2.13.58-2.85C3754.51,592.33,3754.81,592.92,3754.23,593.12Z"/><g class="cls-10"><path class="cls-7" d="M4732.91,612.4c3.37-2.69,1.65-6.5-2.13-8.71-47.81-8.93-123.93-10.88-208,13.84-19.9,5.84-29.4,11.22-48,19-9,5.48-8.13,6.86-4.83,8.31,5,2.2,12.19,1.52,18.26.06,17.71-4.23,31.7-13.93,49.6-17.74,12.72-2.71,26.23-2.18,39.27-3.93,21.16-2.83,42.5-11.66,62.6-8,8.47,1.52,15.36,5.12,23.28,7.44s18.31,3.13,25.54-.58c4.77-2.44,7.44-6.52,13-8.12,5.13-1.48,10.78-.31,16,.45S4729.38,615.2,4732.91,612.4Z"/></g><path class="cls-11" d="M4476.82,626.22c-3.47,4.73-4.53,10.88,1.85,13.68,5,2.21,12.19,1.52,18.26.07,17.71-4.23,31.7-13.93,49.6-17.74,12.72-2.71,26.24-2.18,39.27-3.93,21.16-2.83,42.5-11.66,62.6-8,8.47,1.53,15.36,5.12,23.28,7.44s18.31,3.13,25.54-.57c4.77-2.45,7.44-6.52,13-8.13,5.13-1.48,10.79-.31,16,.46s11.87.82,15.4-2c3.9-3.1,1-7.73-4.06-9.62s-11.4-2-17.36-2.47c-29.47-2.51-54.2-16.75-84.3-15.06-28.53,1.59-51.88,17-79.77,22-11.79,2.13-24,2.34-35.95,4s-27,5.9-36.37,12.06C4479.46,621.22,4478.9,623.39,4476.82,626.22Z"/><path class="cls-12" d="M4696.47,617.46c-12,.1-23.62-2.66-32-7.64-7.41-4.38-14.11-10.85-24.69-10.29-12.54.67-19.61,10.81-31.8,13.21-12.69,2.5-24.59-4.36-37.64-3.66-7.63.41-14.51,3.34-21.39,5.72a158.45,158.45,0,0,1-33.64,7.55c-5.12.58-11,.77-14.44-1.5-3.11-2.06-2.84-5.56-.64-8.26a16.05,16.05,0,0,1,2.7-2.54c-7.09,2.12-13.92,4.92-19.07,8.29-4.38,2.88-4.94,5-7,7.88-3.47,4.73-4.53,10.88,1.85,13.68,5,2.21,12.19,1.52,18.26.07,17.71-4.23,31.7-13.93,49.6-17.74,12.72-2.71,26.24-2.18,39.27-3.93,21.16-2.83,42.5-11.66,62.6-8,8.47,1.53,15.36,5.12,23.28,7.44C4679.33,619.94,4689.29,620.76,4696.47,617.46Z"/><g class="cls-10"><path class="cls-11" d="M4727.07,609.56c-1.59-.93-3.26-1.8-4.89-2.64-3.09-1.58-6.41-3.22-10.5-3.43s-9,1.74-8.93,4.33c0,1.34,1.27,2.55,2.25,3.75a17.5,17.5,0,0,1,5.21-2.58c5.13-1.48,10.79-.31,16,.46Z"/></g><path class="cls-13" d="M4661.68,568.89a.5.5,0,0,0,.23.13c-.18.68.18,1.32.1,2a9.34,9.34,0,0,0-.29,1c0,.09.18.22.18.32,0,.69-.53,1.36-.44,2.08,0,.12.16.25.15.37,0,.38-.35.71-.41,1.08,0,.06.18.18.18.25s-.1.21-.1.33a19.43,19.43,0,0,1,0,2.28c-.07.57,0,1.17-.13,1.73a1.71,1.71,0,0,1-.64,1c.23.63-.37,1.05-.66,1.48s0,.73-.56.91c.33.18.12.24.1.32-.15.63-.69,1.19-.81,1.82a1.13,1.13,0,0,0,.56,1.45c.24,0,.57.09.7,0s-.19-.43-.2-.63.12-.32.15-.51c.06-.5.41-.71.56-1.07s-.22-.71.36-.73c-.19-1.27,1.16-2.08,1.25-3.41,0-.37.19-.78.2-1.2,0-.18-.09-.36-.06-.53a13.68,13.68,0,0,0,.09-1.4,6.87,6.87,0,0,0,0-2.56,6.13,6.13,0,0,0,.56-3c0-.11-.09-.19-.07-.28s.24-.05.26-.11-.23-.15-.21-.19.27-.14.28-.25a9.36,9.36,0,0,0-.07-1.16c0-.14-.19-.28-.19-.41,0-.48.69-1.15-.08-1.41C4661.78,568.48,4662.2,568.73,4661.68,568.89Z"/><path class="cls-13" d="M4685,564.43a.53.53,0,0,0-.07.31c-1.11.5-1.8,1.46-2.79,2.09-.46.3-1.06.5-1.53.85-.13.09-.18.38-.3.48-.89.8-2.19,1.2-3,2.15-.14.16-.18.4-.34.55-.47.44-1.14.68-1.63,1.12-.08.07-.06.33-.14.42s-.33.23-.46.38c-.93,1.07-1.6,2.12-2.41,3.07-.63.76-1.15,1.6-1.74,2.38a5.26,5.26,0,0,1-1.47,1.21c-.27,1-1.2,1.48-1.84,2.11-.41.43-.5,1.11-1.23,1.36.26.3,0,.38-.07.5a12.12,12.12,0,0,1-1,1.45,10.54,10.54,0,0,0-.9,1.49c-.25.63-.66,1.61.07,2.19.28,0,.62,0,.8-.16s-.06-.62,0-.92a5.27,5.27,0,0,1,.38-.81,7.44,7.44,0,0,1,1.13-1.65c.27-.42.14-1.07.78-1.08.56-1.92,2.57-2.91,3.7-4.68.34-.51.84-1,1.23-1.58a6.58,6.58,0,0,1,.42-.73l1.44-1.81a34.57,34.57,0,0,0,2.81-3.25,26.77,26.77,0,0,0,4.18-3.15c.14-.1.19-.26.31-.34s.24.11.32.07.05-.33.12-.36.36.06.51-.05c.51-.37,1-.81,1.51-1.22.19-.14.27-.42.45-.55.67-.48,2-.49,1.94-1.4C4685.59,564.12,4685.46,564.71,4685,564.43Z"/><path class="cls-13" d="M4683.14,580.92a.78.78,0,0,0,0,.24c-.5,0-.69.56-1.11.72-.2.07-.49,0-.69.1s0,.24-.08.28c-.36.28-1,.08-1.34.46-.06.07,0,.24-.1.29s-.56,0-.77.16c0,0,0,.23,0,.26s-.16,0-.22.08c-.38.4-.64.85-1,1.17s-.49.6-.78.84a.91.91,0,0,1-.78.09c-.06.54-.62.37-1,.45s-.24.44-.7.21c.19.33,0,.23,0,.27-.31.3-.86.36-1.12.7s-.42.52.1,1.29c.19.14.42.38.54.38s-.05-.39,0-.53.17-.14.23-.25c.17-.28.48-.21.68-.35s0-.58.46-.22c.23-.91,1.43-.5,1.94-1.16.14-.19.4-.29.57-.5s.07-.26.16-.32.41-.44.62-.64c.44-.41.93-.66,1.15-1.2.79.09,1.25-.47,1.83-.77.06,0,.06-.14.11-.16s.15.19.19.18,0-.24,0-.24.21.19.28.16a5.63,5.63,0,0,0,.59-.44c.07-.05.07-.25.14-.29.27-.16,1,.29.77-.48C4683.43,580.89,4683.47,581.34,4683.14,580.92Z"/><path class="cls-13" d="M4524.6,601.17a.54.54,0,0,0,.17-.17c.31.35.83.19,1.19.42.16.12.25.4.44.5s.21-.11.26-.09c.42.15.56.79,1,.88.08,0,.22-.09.29-.06s.26.46.45.59c0,0,.19-.12.24-.11s.08.13.15.16a8.4,8.4,0,0,1,1.39.44c.32.19.72.27,1,.47a.8.8,0,0,1,.27.73c.53-.07.46.52.58.83s.45.17.26.63c.31-.22.23,0,.27,0,.31.26.36.78.68,1s.47.39,1.28-.06c.16-.18.41-.39.41-.52s-.4,0-.54,0-.14-.17-.25-.24c-.29-.17-.21-.49-.38-.69s-.58,0-.27-.45c-.92-.14-.73-1.4-1.54-1.78-.23-.09-.4-.33-.66-.42-.11-.05-.27,0-.37-.06a6,6,0,0,0-.82-.38,3.13,3.13,0,0,0-1.56-.55c-.27-.74-1-.86-1.57-1.19-.05,0-.14,0-.19,0s.07-.24,0-.27-.19.17-.2.14,0-.28,0-.31a3,3,0,0,0-.7-.23c-.08,0-.24.09-.31.06-.28-.11-.37-.93-.85-.3C4524.42,601,4524.73,600.66,4524.6,601.17Z"/><path class="cls-13" d="M4527.78,593.48a.44.44,0,0,0,.24-.1c.5.57,1.26.66,1.81,1.14.25.23.41.62.7.84.07.06.3,0,.38,0,.62.41.9,1.27,1.57,1.64.12.06.31,0,.42.09.31.26.41.73.71,1,.05,0,.26,0,.32,0s.13.21.23.29a19.14,19.14,0,0,1,2,1.36c.46.42,1,.75,1.43,1.18a1.8,1.8,0,0,1,.45,1.13c.7.19.68,1,.9,1.47.13.34.59.48.44,1,.35-.16.27,0,.32.12.44.53.59,1.33,1,1.85a1.2,1.2,0,0,0,1.52.51c.15-.2.41-.4.4-.59s-.47-.14-.63-.26-.2-.32-.34-.47c-.38-.38-.33-.81-.56-1.16s-.72-.28-.4-.77c-1.18-.66-1.11-2.29-2.2-3.2-.31-.25-.57-.64-.92-.91-.16-.11-.37-.14-.5-.27a12.11,12.11,0,0,0-1.16-.93,7.61,7.61,0,0,0-2.23-1.56c-.45-1.07-1.51-1.61-2.36-2.31-.08-.07-.21,0-.28-.1s.09-.24,0-.29-.26.1-.28.06,0-.31-.06-.39a9.82,9.82,0,0,0-1.05-.65c-.13-.07-.35,0-.46-.09-.43-.28-.6-1.26-1.28-.8C4527.48,593.15,4527.94,593,4527.78,593.48Z"/><path class="cls-14" d="M5000,679.65c6,1.8-11.55-44.08-5.51-42.29,6.62-5.94,10.37-13.38,10.52-20.88-54.43,1.83-109.62,3.62-162.84-4.51-16.51-2.52-32.8-6-49.63-7.16-19.39-1.35-38.91.38-58.34,1.34-17.76.87-35.8,1.07-53.13-1.72-13.08-2.11-27.46-6.11-37.14-12.79-8.54-5.9-13.53-13.27-22.61-19.28-17.5-11.57-37.6-23.94-63.33-25-29-1.22-53.33,12.21-80.06,19.14-40.82,10.59-87.94,5.91-130.92,12.6-30.28,4.71-57.53,14.91-87.28,20.76-45,8.84-93.31,7.38-140.37,9.82-41.72,2.18-82.82,7.48-123.79,12.76-51.73,6.68-82.52,39.69-134.25,46.36"/><g class="cls-15"><path class="cls-7" d="M4282.36,594.61c4.14,6.22,12.53,10.93,21.7,13.71,10.49,3.17,22,4.15,33.41,5.1,18.21,1.5,37.47,2.88,54.23-2.29,8.16-2.52,15.26-6.48,23.37-9.1,12.65-4.08,27-4.68,41-5s28.2-.31,41.42-3.43,25.51-10,28.79-19.35c1.95-5.62.55-11.55,1.74-17.27a15.49,15.49,0,0,1,3.72-7.12c-18.31,4.06-35.48,11.84-53.77,16.58-40.82,10.59-87.94,5.91-130.92,12.6C4324.54,582.57,4303.75,589.09,4282.36,594.61Z"/></g><g class="cls-10"><path class="cls-7" d="M4429,594.51c3.37-2.68,1.65-6.49-2.13-8.7-47.81-8.94-123.93-10.88-208,13.83-19.89,5.85-29.39,11.23-48,19-9,5.49-8.13,6.86-4.83,8.31,5,2.21,12.19,1.52,18.27.07,17.7-4.23,31.69-13.93,49.59-17.74,12.72-2.71,26.24-2.18,39.27-3.93,21.16-2.83,42.5-11.66,62.6-8.05,8.47,1.53,15.36,5.12,23.28,7.44s18.31,3.13,25.54-.57c4.77-2.45,7.44-6.52,13-8.13,5.13-1.48,10.79-.31,16,.46S4425.46,597.32,4429,594.51Z"/></g><path class="cls-11" d="M4172.9,608.33c-3.46,4.74-4.53,10.89,1.85,13.69,5,2.21,12.19,1.52,18.27.07,17.7-4.23,31.69-13.93,49.6-17.74,12.72-2.71,26.23-2.19,39.26-3.93,21.17-2.84,42.51-11.66,62.6-8,8.48,1.52,15.36,5.12,23.28,7.44s18.32,3.13,25.54-.57c4.77-2.45,7.45-6.53,13-8.13,5.12-1.48,10.78-.31,16,.46s11.88.82,15.4-2c3.91-3.11,1-7.73-4.06-9.63s-11.4-2-17.36-2.47c-29.46-2.5-54.2-16.74-84.3-15.06-28.52,1.59-51.87,17-79.77,22-11.78,2.13-24,2.34-35.95,4s-27,5.89-36.36,12.06C4175.54,603.34,4175,605.5,4172.9,608.33Z"/><path class="cls-12" d="M4392.56,599.58c-12,.1-23.62-2.67-32-7.64-7.41-4.38-14.11-10.85-24.69-10.29-12.53.66-19.61,10.81-31.79,13.21-12.7,2.5-24.59-4.36-37.65-3.66-7.63.41-14.51,3.33-21.39,5.72a158.3,158.3,0,0,1-33.64,7.54c-5.12.59-11,.78-14.44-1.49-3.1-2.07-2.84-5.56-.64-8.27a16.4,16.4,0,0,1,2.7-2.53c-7.09,2.11-13.92,4.92-19.06,8.29-4.39,2.88-5,5-7,7.87-3.46,4.74-4.53,10.89,1.85,13.69,5,2.21,12.19,1.52,18.27.07,17.7-4.23,31.69-13.93,49.6-17.74,12.72-2.71,26.23-2.19,39.26-3.93,21.17-2.84,42.51-11.66,62.6-8,8.48,1.52,15.36,5.12,23.28,7.44C4375.41,602.06,4385.38,602.87,4392.56,599.58Z"/><g class="cls-10"><path class="cls-11" d="M4423.15,591.68c-1.58-.93-3.25-1.8-4.89-2.64-3.08-1.58-6.41-3.23-10.49-3.43s-9,1.74-8.94,4.32c0,1.35,1.27,2.56,2.25,3.76a17.21,17.21,0,0,1,5.22-2.58c5.12-1.48,10.78-.31,16,.46Z"/></g><path class="cls-13" d="M4220.69,583.29a.53.53,0,0,0,.16-.17c.32.35.83.18,1.19.42.16.12.25.4.44.5s.21-.11.27-.09c.41.14.55.79,1,.87.08,0,.23-.09.29-.05.22.1.26.46.45.58s.2-.12.24-.1.08.13.15.16a8.85,8.85,0,0,1,1.4.44c.31.18.71.26,1,.47a.82.82,0,0,1,.26.73c.54-.08.46.52.59.83s.44.17.25.63c.31-.22.23,0,.27,0,.31.26.36.79.68,1s.47.4,1.28,0c.16-.18.41-.39.41-.52s-.4,0-.53,0-.14-.18-.26-.24c-.29-.17-.21-.5-.37-.69s-.59,0-.27-.46c-.93-.13-.73-1.4-1.55-1.77-.23-.1-.4-.33-.66-.43-.11,0-.27,0-.36-.05a6.73,6.73,0,0,0-.83-.38,3,3,0,0,0-1.56-.55c-.27-.74-1-.86-1.56-1.19-.06,0-.15,0-.2,0s.08-.23,0-.26-.19.17-.2.14,0-.28,0-.32a4.92,4.92,0,0,0-.71-.23c-.08,0-.24.1-.31.07-.28-.11-.37-.93-.84-.3C4220.5,583.09,4220.81,582.78,4220.69,583.29Z"/><path class="cls-13" d="M4223.86,575.6a.57.57,0,0,0,.25-.1c.49.56,1.25.66,1.8,1.14.26.23.42.61.7.83.07.06.3,0,.38,0,.62.4.9,1.26,1.58,1.64.11.06.31,0,.41.09.31.26.42.73.71,1,.05,0,.26,0,.32,0s.13.21.23.28a22.41,22.41,0,0,1,2,1.37c.46.41,1,.74,1.42,1.18a1.84,1.84,0,0,1,.46,1.13c.69.19.68,1,.89,1.47.13.34.6.48.44,1,.35-.16.27,0,.33.11.44.54.59,1.34,1,1.85a1.16,1.16,0,0,0,1.51.51c.15-.19.42-.4.4-.58s-.47-.14-.63-.26-.19-.32-.34-.47c-.38-.38-.33-.81-.56-1.16s-.72-.28-.39-.77c-1.18-.66-1.11-2.3-2.21-3.2-.31-.25-.56-.64-.92-.91-.15-.12-.36-.14-.49-.27a13.12,13.12,0,0,0-1.16-.93,7.78,7.78,0,0,0-2.24-1.56c-.45-1.07-1.51-1.61-2.35-2.31-.09-.07-.22,0-.28-.1s.08-.24,0-.29-.26.1-.28.06,0-.32-.06-.39a8.91,8.91,0,0,0-1.05-.65c-.12-.08-.34,0-.46-.09-.42-.29-.6-1.27-1.28-.8C4223.57,575.27,4224,575.08,4223.86,575.6Z"/><path class="cls-16" d="M4553.81,631.06a3.83,3.83,0,0,0-.12.94c-1.89,4.29-3.27,8.44-6,12.17a30.32,30.32,0,0,1-4.63,4.79,16,16,0,0,1-1.48,1.37,7.52,7.52,0,0,1-6.36,1.1,9.77,9.77,0,0,1-3-1.44,15.35,15.35,0,0,1-2.52-2.33,18.78,18.78,0,0,1-1.55-1.75c-1.43-2.1-2.36-4.51-3.72-6.76-.22-.37-.73-.8-1-1.2-.45-.67-.81-1.35-1.28-2a22.52,22.52,0,0,0-5.44-5.95,7,7,0,0,0-3.72-1.25,8.72,8.72,0,0,0-3.72.87,12.44,12.44,0,0,0-2.55,1.6,13.8,13.8,0,0,0-2,2.16,19.54,19.54,0,0,0-2.72,5.17c-.41,1.16-.82,2.36-1.15,3.57a24.74,24.74,0,0,1-1.08,3.5,7.11,7.11,0,0,1-2.82,4.49,10.3,10.3,0,0,1-4.93,1.6,31.69,31.69,0,0,1-3.41.21,3.24,3.24,0,0,1-2.5-1.68,1.12,1.12,0,0,1-.69-.45c-.17-.26-.3-.56-.44-.78a12.68,12.68,0,0,1-1.45-6.35,30.7,30.7,0,0,1,.83-6.58c.16-.63.28-1.36.5-2.08s.41-1.48.57-2.2c.41-1.39.65-2.63.38-3.2a5.4,5.4,0,0,0-1.36,1.66,22.1,22.1,0,0,0-.74,3.34c-.14.49-.27,1.07-.43,1.68a14.46,14.46,0,0,0-.41,1.87c-.48,3.28-.82,5.5-.42,8.2a12.21,12.21,0,0,0,.39,1.5c.19.47.35.94.55,1.37s.39.85.58,1.24a7.09,7.09,0,0,1,.46,1.17,8.15,8.15,0,0,0,2.47,2l.79.27a4.63,4.63,0,0,0,.83.13c.54,0,1,0,1.52,0a16.28,16.28,0,0,0,6.05-1.21,9.08,9.08,0,0,0,4.51-4.72,13.72,13.72,0,0,0,1-3.18c.2-1,.39-2,.65-3a19.36,19.36,0,0,1,3.3-7,10.09,10.09,0,0,1,2.13-2.29,11,11,0,0,1,4-1.91,5.62,5.62,0,0,1,4.05.69,13.27,13.27,0,0,1,3.29,3c.94,1.16,1.77,2.37,2.58,3.55,1.65,2.35,3,4.67,4.41,6.73a27,27,0,0,0,2.61,4.39,12.47,12.47,0,0,0,4,3.51,9.28,9.28,0,0,0,5.25,1.06,10.27,10.27,0,0,0,4.9-2.06,17.45,17.45,0,0,0,1.36-1.21c.32-.29.51-.15.82-.41s.5-.85.7-1a14.23,14.23,0,0,0,1.39-1.16,32.35,32.35,0,0,0,4.23-6.6c.42-.84.67-1.74,1-2.53,1.37-3,3.57-6.87,3.52-8.92C4554.9,628.49,4554.68,630.25,4553.81,631.06Z"/><path class="cls-12" d="M4492.35,629.91c-6-2.93-9.07-9-11.4-14.79a151.9,151.9,0,0,1-9.75-40.42,5.3,5.3,0,0,0-5.32-4.59c-27.42-.32-35.42-1.65-35.42,5.37,1.09,15,4.56,25.47,10.25,39.64,2.33,5.78,5.42,11.86,11.4,14.79"/><path class="cls-5" d="M4518.46,631.07a3.4,3.4,0,0,0-.12.94c-1.9,4.3-3.28,8.47-6,12.2a30.46,30.46,0,0,1-4.65,4.79,13.65,13.65,0,0,1-1.49,1.36,7.44,7.44,0,0,1-6.38,1,11.52,11.52,0,0,1-5.53-3.83,19.06,19.06,0,0,1-1.55-1.77c-1.42-2.11-2.36-4.53-3.73-6.78-.21-.38-.73-.8-1-1.2-.45-.67-.81-1.36-1.28-2a22,22,0,0,0-5.51-5.94,7,7,0,0,0-3.77-1.16,9,9,0,0,0-3.7,1,12.1,12.1,0,0,0-4.54,3.84,20.35,20.35,0,0,0-2.66,5.21c-.41,1.17-.79,2.38-1.12,3.6a21.27,21.27,0,0,1-1.11,3.49,6.91,6.91,0,0,1-2.95,4.41,10.54,10.54,0,0,1-5,1.48c-.55,0-1.11.1-1.69.13-.29,0-.58,0-.87,0a3.74,3.74,0,0,1-.83,0,3.58,3.58,0,0,1-2.59-1.7c-.56,0-.89-.77-1.16-1.18a11.85,11.85,0,0,1-1.37-6.35,30.73,30.73,0,0,1,1-6.58c.25-1.27.81-2.85,1.15-4.27a5.88,5.88,0,0,0,.41-3.21,5.49,5.49,0,0,0-1.38,1.65,24.79,24.79,0,0,0-.78,3.33c-.3,1-.64,2.3-.94,3.53-.57,3.28-1,5.5-.62,8.22a12.49,12.49,0,0,0,.37,1.52c.14.49.39.93.56,1.38a22.31,22.31,0,0,1,1.08,2.41,7.67,7.67,0,0,0,2.53,1.9,2.89,2.89,0,0,0,.76.28,3.16,3.16,0,0,0,.81.17,11.64,11.64,0,0,0,1.55,0,16.55,16.55,0,0,0,6.08-1.1,9.34,9.34,0,0,0,2.75-1.82,10.18,10.18,0,0,0,1.92-2.77,13.85,13.85,0,0,0,1-3.18c.21-1,.38-2,.64-3a20.06,20.06,0,0,1,3.23-7,11.37,11.37,0,0,1,2.1-2.33c2.49-1.85,5.55-2.94,8.1-1.41a12,12,0,0,1,3.33,3c1,1.15,1.8,2.36,2.61,3.55,1.65,2.35,3,4.67,4.42,6.74a28.37,28.37,0,0,0,2.61,4.41,12.59,12.59,0,0,0,4,3.55,9.28,9.28,0,0,0,5.26,1.11,10.15,10.15,0,0,0,4.93-2c.58-.41.92-.84,1.37-1.21s.51-.16.82-.42.5-.84.71-1a15.65,15.65,0,0,0,1.39-1.15,32.15,32.15,0,0,0,4.25-6.62c.42-.84.67-1.75,1-2.54,1.37-3,3.58-6.89,3.52-8.94C4519.54,628.49,4519.32,630.26,4518.46,631.07Z"/><rect class="cls-17" x="4449.79" y="626.2" width="114.18" height="4.05" rx="1.95"/><path class="cls-12" d="M4564,628.22a2,2,0,0,0-2-2h-47.23a2,2,0,1,0,0,4H4562A2,2,0,0,0,4564,628.22Z"/><path class="cls-7" d="M4576,720c1.73-7-6.56-13.51-15.95-17.5s-20.35-6.53-28.82-11.25c-14.76-8.24-19.29-21.54-32-31-22.91-17.1-64.35-17.27-96.6-26.86-31.33-9.31-53.17-27.33-75.85-43.71-34-24.59-83-49.34-137.38-49.17-65.38.2-122.91,24.54-178.69,42.82-178.55,58.53-390.55,68.78-559,138"/><g class="cls-18"><path class="cls-17" d="M4560.08,702.51c-9.38-4-20.35-6.53-28.82-11.25-14.76-8.24-19.29-21.54-32-31-22.91-17.1-64.35-17.27-96.6-26.86-31.33-9.31-53.17-27.33-75.85-43.71-27.29-19.71-64.19-39.5-105.74-46.51a154.34,154.34,0,0,0-46.44,22.09c-6.38,4.48-13,10.5-13.13,18.3-.16,7.38,5.82,13.74,12.64,16.56s14.41,2.92,21.79,3.32a244.77,244.77,0,0,1,50.67,8.09c11.18,3,24.35,9.8,23.88,21.36-.52,12.77-16.45,17.68-28.88,20.64a170.36,170.36,0,0,0-57.89,25.92c-5.29,3.69-10.54,7.88-13.44,13.64s-2.84,13.47,1.75,18c2.84,2.8,6.85,4,10.7,5q8.07,2.22,16.19,4.32L4576,720C4577.76,713,4569.47,706.5,4560.08,702.51Z"/></g><g class="cls-10"><path class="cls-7" d="M4100.24,605c3.49-2.52,2-6.41-1.72-8.8-47.33-11.17-123.28-16.69-208.44,4-20.14,4.91-29.89,9.83-48.84,16.73C3832,622,3832.8,623.4,3836,625c4.91,2.44,12.1,2.09,18.24.93,17.88-3.4,32.31-12.43,50.37-15.39,12.84-2.11,26.31-.95,39.42-2.08,21.27-1.84,43-9.65,62.91-5.09,8.38,1.92,15.1,5.83,22.9,8.53s18.14,4,25.53.62c4.89-2.22,7.75-6.16,13.37-7.5,5.19-1.24,10.78.2,16,1.21S4096.59,607.6,4100.24,605Z"/></g><path class="cls-12" d="M3843.79,606.72c-3.69,4.57-5,10.66,1.2,13.76,4.91,2.44,12.11,2.1,18.24.93,17.89-3.39,32.32-12.42,50.38-15.39,12.83-2.11,26.31-.94,39.41-2.08,21.27-1.83,43-9.64,62.91-5.09,8.39,1.92,15.1,5.84,22.9,8.53s18.15,4,25.54.63c4.88-2.22,7.74-6.17,13.36-7.51,5.19-1.23,10.79.2,16,1.21s11.82,1.38,15.47-1.26c4.05-2.92,1.36-7.67-3.6-9.81s-11.29-2.49-17.22-3.28c-29.32-3.89-53.35-19.27-83.5-19-28.57.25-52.62,14.52-80.72,18.24-11.87,1.57-24.1,1.2-36.09,2.26s-27.21,4.62-36.9,10.34C3846.66,601.86,3846,604,3843.79,606.72Z"/><path class="cls-17" d="M4063.61,608.32c-12-.47-23.47-3.78-31.63-9.14-7.2-4.73-13.59-11.51-24.18-11.45-12.55.08-20.1,9.88-32.38,11.7-12.8,1.91-24.36-5.51-37.44-5.42-7.63,0-14.65,2.65-21.63,4.7a158.1,158.1,0,0,1-34,6c-5.14.34-11.06.25-14.35-2.17-3-2.21-2.57-5.69-.25-8.29a17.16,17.16,0,0,1,2.81-2.41c-7.17,1.78-14.13,4.26-19.43,7.39-4.51,2.67-5.18,4.8-7.38,7.53-3.69,4.57-5,10.66,1.2,13.76,4.91,2.44,12.11,2.1,18.24.93,17.89-3.39,32.32-12.42,50.38-15.39,12.83-2.11,26.31-.94,39.41-2.08,21.27-1.83,43-9.64,62.91-5.09,8.39,1.92,15.1,5.84,22.9,8.53C4046.37,610,4056.28,611.27,4063.61,608.32Z"/><g class="cls-10"><path class="cls-11" d="M4094.54,601.86c-1.54-1-3.16-2-4.76-2.87-3-1.72-6.25-3.52-10.32-3.91s-9,1.31-9.13,3.89c0,1.35,1.15,2.62,2.07,3.86a17.61,17.61,0,0,1,5.33-2.33c5.19-1.23,10.79.2,16,1.21Z"/></g><path class="cls-13" d="M4031.14,558.16a.56.56,0,0,0,.22.14c-.21.67.12,1.32,0,2a9.86,9.86,0,0,0-.33,1c0,.09.16.24.16.33,0,.7-.6,1.34-.54,2.06,0,.12.14.26.13.38,0,.38-.38.69-.46,1.05,0,.06.17.19.17.26s-.11.21-.11.33a20.68,20.68,0,0,1-.09,2.28c-.1.57-.08,1.17-.21,1.72a1.73,1.73,0,0,1-.69.93c.21.64-.41,1-.73,1.45s0,.72-.6.88c.33.2.11.25.09.32-.18.63-.75,1.16-.9,1.79a1.13,1.13,0,0,0,.49,1.47c.24,0,.56.11.7,0s-.17-.44-.17-.63.14-.32.17-.51c.09-.5.45-.69.62-1s-.19-.71.39-.7c-.13-1.28,1.26-2,1.4-3.35,0-.37.23-.77.26-1.19,0-.18-.07-.36,0-.53.1-.49.1-.94.16-1.39a7.09,7.09,0,0,0,.12-2.57,6,6,0,0,0,.69-3c0-.1-.07-.19,0-.27s.24,0,.26-.1-.22-.17-.2-.21.28-.12.3-.23a7.53,7.53,0,0,0,0-1.16c0-.14-.17-.29-.17-.42,0-.48.74-1.11,0-1.41C4031.26,557.76,4031.66,558,4031.14,558.16Z"/><path class="cls-13" d="M4054.59,554.8a.53.53,0,0,0-.08.31c-1.14.44-1.86,1.36-2.89,1.95-.47.28-1.07.45-1.56.78-.14.09-.2.37-.33.47-.93.75-2.24,1.09-3.13,2-.14.15-.19.39-.36.53-.5.42-1.17.63-1.68,1-.08.07-.07.33-.16.41s-.34.22-.48.37c-1,1-1.7,2-2.55,2.94-.67.74-1.23,1.55-1.85,2.3A5,5,0,0,1,4038,569c-.31,1-1.26,1.42-1.93,2-.43.4-.55,1.08-1.29,1.3.24.31,0,.38-.1.5a15,15,0,0,1-1.06,1.39,9.91,9.91,0,0,0-1,1.45c-.28.61-.74,1.57,0,2.19.28,0,.62.06.81-.12s0-.63.05-.92a5.54,5.54,0,0,1,.41-.8,7.42,7.42,0,0,1,1.2-1.59c.29-.4.19-1.06.83-1,.65-1.9,2.71-2.78,3.92-4.51.36-.48.89-1,1.3-1.51.18-.23.26-.5.45-.71l1.53-1.74a33.32,33.32,0,0,0,3-3.12c1.59-.67,2.88-2,4.33-3,.14-.09.2-.25.32-.33s.23.13.32.09.06-.32.13-.35.36.08.52,0c.52-.35,1-.76,1.57-1.15.19-.14.28-.41.46-.53.7-.45,2-.4,2-1.31C4055.25,554.52,4055.09,555.1,4054.59,554.8Z"/><path class="cls-13" d="M4052,571.19a.68.68,0,0,0,0,.24c-.49,0-.71.53-1.14.66-.2.07-.49,0-.69.07s0,.24-.09.27c-.37.27-1,0-1.36.41-.06.06,0,.24-.12.28s-.55,0-.77.12c0,0,0,.23,0,.26s-.16,0-.22.07c-.4.38-.67.82-1,1.12s-.52.58-.82.8a.87.87,0,0,1-.79.06c-.08.53-.63.33-1,.4s-.26.43-.7.17c.17.34,0,.24,0,.28-.32.28-.87.31-1.15.65s-.44.5,0,1.29c.18.15.4.4.53.4s0-.39,0-.52.17-.14.24-.25c.18-.27.49-.18.7-.31s0-.58.46-.21c.27-.9,1.46-.43,2-1.06.16-.18.42-.27.6-.47s.08-.26.17-.32a7.81,7.81,0,0,0,.66-.61c.45-.39,1-.61,1.2-1.14.78.13,1.27-.41,1.87-.68.06,0,.06-.14.11-.16s.15.2.19.2,0-.25,0-.25.2.2.26.17a5.52,5.52,0,0,0,.62-.41c.07,0,.08-.24.15-.28.28-.15.94.34.79-.44C4052.3,571.17,4052.32,571.62,4052,571.19Z"/><path class="cls-13" d="M3892.7,584a.78.78,0,0,0,.17-.16c.3.36.82.22,1.16.47.16.12.24.41.42.52s.22-.1.27-.08c.41.17.52.81,1,.92.07,0,.22-.08.29,0s.23.48.42.61c0,0,.2-.11.24-.1s.08.14.15.17a9.11,9.11,0,0,1,1.37.51c.3.19.7.29,1,.51a.86.86,0,0,1,.23.74c.53,0,.43.54.54.86s.44.19.23.65c.32-.22.23,0,.26,0,.31.27.33.8.64,1.05s.45.42,1.28,0c.16-.17.43-.38.43-.5s-.4,0-.53-.05-.13-.18-.24-.25c-.29-.19-.19-.5-.35-.71s-.58,0-.24-.47c-.92-.17-.67-1.43-1.46-1.84-.23-.11-.39-.35-.64-.46s-.28,0-.36-.07a5.14,5.14,0,0,0-.81-.41,3,3,0,0,0-1.54-.63c-.23-.75-1-.91-1.5-1.26-.06,0-.15,0-.19,0s.08-.22.06-.26-.2.16-.21.13,0-.28,0-.31a3.81,3.81,0,0,0-.69-.27c-.08,0-.24.09-.32,0-.27-.12-.33-.94-.83-.33C3892.52,583.75,3892.84,583.45,3892.7,584Z"/><path class="cls-13" d="M3896.23,576.42a.39.39,0,0,0,.25-.09c.47.59,1.22.73,1.75,1.23.24.24.38.63.65.87.08.06.31,0,.39.05.6.44.83,1.31,1.49,1.72.11.07.31,0,.41.11.3.27.38.75.66,1,.05,0,.26,0,.32,0s.12.22.22.29a21.11,21.11,0,0,1,1.93,1.46c.44.44,1,.79,1.37,1.25a1.82,1.82,0,0,1,.4,1.15c.68.22.63,1,.82,1.51.12.34.58.5.39,1.06.36-.15.27.06.32.13.42.55.53,1.36.94,1.89a1.19,1.19,0,0,0,1.49.58c.17-.18.44-.38.43-.56s-.46-.16-.62-.29-.18-.33-.31-.48c-.37-.4-.3-.83-.51-1.19s-.7-.31-.36-.79c-1.15-.71-1-2.34-2-3.3-.3-.26-.53-.66-.88-1-.14-.12-.35-.15-.48-.28a11.12,11.12,0,0,0-1.11-1,7.37,7.37,0,0,0-2.16-1.66c-.4-1.09-1.44-1.68-2.25-2.42-.08-.07-.21,0-.27-.12s.1-.23.06-.28-.26.08-.29,0,.05-.31,0-.38a8.34,8.34,0,0,0-1-.7c-.12-.09-.35,0-.46-.12-.41-.3-.54-1.29-1.24-.86C3896,576.08,3896.41,575.91,3896.23,576.42Z"/><path class="cls-7" d="M4109.79,719.89c-39.25-36.63-81.17-76.53-120.42-113.16-19.85-18.53-42.66-38.33-71.85-40.06-32.88-1.94-60.5,19.55-90.84,30.65-46.31,16.95-99.78,9.46-148.54,20.16-34.36,7.54-65.28,23.88-99,33.24-51,14.15-105.86,11.8-159.25,15.73-47.34,3.47-94,12-140.46,20.42l-176.08,32.07"/><g class="cls-18"><path class="cls-17" d="M4091.75,702.27l-102.38-95.54c-19.85-18.53-42.66-38.33-71.85-40.06-.68,0-1.35,0-2-.07,2.36,7.43,4.44,15,4.35,22.78-.11,9-3.64,18.42-11.13,23.37-5.95,3.93-13.36,4.55-20.8,4.91-10.11.49-13.41,13.84-4.71,19q8,4.74,15.59,10a15.55,15.55,0,0,1,5.81,7.3c3.66,9.9-6.23,16.77-14.93,20.06-8.45,3.2-18.57,6.71-20,16.25a15.2,15.2,0,0,0,2.76,10.7c4.55,6.58,11.91,9.57,19.12,12.17q5.68,2,11.45,3.88l169.59-.39A233.17,233.17,0,0,0,4091.75,702.27Z"/></g><path class="cls-12" d="M3849,719.93c147.74-13.29,291.25-34.93,439.35-32.5,112.21,1.85,211.38-24.71,302.26-24.45,155.93.44,140.27-36.35,409.38-36.35,1.54,32.79,3.9,61.51,0,94"/><path class="cls-17" d="M5000,626.54c-48.49,0-87.74,1.19-120.41,3.15,0,1,1.28,1.3,2.63,1.83s3.45.15,5.07.24c6.16.35,8.7,0,14,0,1.18,0,2.6-.11,3.22.8.87,1.28-.84,2.8-2.45,3.15a49.42,49.42,0,0,1-8.7.69c-3,.11-3.94,1.09-3.94,2.39,0,2,5.93,2.64,9.38,2.56,11.47-.28,53.36,3.4,41.88,3.4-3.87,0-4.59,1.08-4.51,2.29.06,1,.52,1.76,3.83,1.92s-14.94,3.5-18.21,3.4-5.86,1.14-6.11,4.11c-.2,2.41,2.2,3.46,4.76,4.07s5.28.2,7.92,0a54.28,54.28,0,0,1,15,.78c1.62.32,3.47.91,3.95,2.35s-.76,1.92-2.27,2.48a12.87,12.87,0,0,1-4.81.41c-5.42-.15-10.39-.55-15.54,1-1.25.39-3.07,3.06-3.66,4.13-.79,1.43.18,3.25,1.66,4.11a11.46,11.46,0,0,0,5.06,1.11c23.43,1.48,46.95,1.3,70.44,1.12,1.29,0,2.62,0,3.94-.13C5001.92,661.12,5000.84,644.43,5000,626.54Z"/><path class="cls-9" d="M384.79,675.35a.64.64,0,0,0,0,.27c-.74.36-1,1.14-1.66,1.63a11.76,11.76,0,0,0-1,.62c-.08.08,0,.32-.11.4-.51.61-1.44.89-1.88,1.63-.07.12,0,.33-.11.44-.27.35-.77.49-1,.84-.05.06.05.27,0,.34s-.22.17-.29.29c-.47.82-.75,1.62-1.15,2.34-.34.56-.53,1.22-.84,1.78a2.21,2.21,0,0,1-1,.87c.06.74-.67,1.07-1,1.53-.26.31-.18.8-.76,1,.31.23.09.28.06.37a18.28,18.28,0,0,0-1,2.07,1.21,1.21,0,0,0,.54,1.57c.25,0,.58,0,.71-.09s-.19-.44-.19-.66.12-.36.16-.56c.1-.55.47-.77.65-1.16s-.13-.77.46-.75c0-1.4,1.53-2.07,2-3.37.13-.38.45-.74.61-1.16.08-.18.05-.4.15-.56.29-.45.46-.93.71-1.36a12.86,12.86,0,0,0,1.41-2.48,10.94,10.94,0,0,0,2.52-2.38c.08-.08.07-.21.15-.27s.22.11.28.08-.05-.27,0-.29.31.07.4,0c.3-.28.55-.63.87-.94.1-.11.1-.35.2-.45.4-.37,1.41-.27,1.17-1.07C385.22,675.13,385.26,675.64,384.79,675.35Z"/><path class="cls-9" d="M427.82,668.43a1.08,1.08,0,0,0-.39.29c-2.21.14-4.13,1-6.25,1.38-1,.22-2.1.29-3.15.56-.29.08-.61.39-.89.48-1,.36-2.16.56-3.27.84a21.61,21.61,0,0,0-3.28,1.06c-.34.17-.61.45-1,.6-1.1.48-2.34.63-3.43,1.15-.18.08-.36.39-.56.48s-.69.25-1,.42c-2.29,1.22-4.16,2.45-6.11,3.64-1.59.91-3,2.06-4.5,3a14.65,14.65,0,0,1-3.06,1.61c-1.13,1.35-2.88,2-4.22,2.92A11.85,11.85,0,0,1,384,688.8c.09.42-.32.54-.5.71-1.53,1.38-3.38,2.77-4.76,4.28-.79.93-2.07,2.38-1.65,3.27.37,0,.73.06,1.11-.24s.43-.94.75-1.39a14.64,14.64,0,0,1,1.11-1.22,26.09,26.09,0,0,1,2.77-2.45c.69-.6,1.06-1.53,1.91-1.55,2.3-2.75,5.81-4.2,8.93-6.53.87-.7,2-1.32,3.07-2.06.44-.3.75-.67,1.21-.93,1.32-.75,2.42-1.56,3.65-2.22,2.51-1.42,5-2.5,7-3.68a23.34,23.34,0,0,0,2.27-.65c.76-.25,1.53-.48,2.29-.76,1.52-.57,3.08-1.06,4.62-1.53.31-.09.52-.26.78-.31s.27.17.45.14.36-.33.49-.35c.31,0,.53.14.85.06.57-.13,1.13-.3,1.7-.47l1.77-.44c.41-.1.79-.36,1.18-.45,1.49-.32,3.59.1,4.34-.82C429.12,668.32,428.39,668.86,427.82,668.43Z"/><path class="cls-9" d="M2595.89,665a.58.58,0,0,0,.27-.06c.43.66,1.2.87,1.71,1.43.24.26.38.67.65.93.07.07.31,0,.39.08.61.47.86,1.38,1.56,1.8.12.07.32,0,.42.12.32.27.44.75.75,1,.05,0,.26,0,.32,0s.15.22.25.29c.76.51,1.5.86,2.13,1.36s1.09.68,1.57,1.08a2,2,0,0,1,.63,1.09c.72.11.86.87,1.18,1.36.21.31.7.36.68,1,.31-.23.29,0,.36.05.57.44.95,1.2,1.55,1.6a1.2,1.2,0,0,0,1.63.06c.08-.24.26-.52.19-.69s-.49,0-.68-.06-.29-.25-.47-.35c-.47-.27-.56-.7-.86-1s-.77-.11-.57-.66c-1.32-.41-1.55-2-2.75-2.8-.34-.22-.64-.58-1-.82-.17-.1-.38-.11-.52-.23-.41-.35-.84-.58-1.24-.88a9.65,9.65,0,0,0-2.31-1.57c-.46-1.09-1.5-1.7-2.31-2.48-.08-.08-.21-.07-.28-.14s.11-.22.07-.28-.27.07-.29,0,.06-.31,0-.4c-.29-.28-.66-.5-1-.78-.11-.09-.35-.06-.45-.15-.4-.35-.44-1.36-1.19-1C2595.63,664.66,2596.12,664.54,2595.89,665Z"/><path class="cls-9" d="M2605.39,630.72a.76.76,0,0,0,.36.2c.63,1.63,1.66,2.93,2.35,4.51.3.75.47,1.63.82,2.41.09.21.39.42.49.64.77,1.57,1,3.46,1.8,5.09.13.28.38.48.5.77.34.89.43,1.87.72,2.78.05.14.32.29.39.45s.12.57.24.85c.77,1.91,1.54,3.53,2.1,5.28.47,1.38,1,2.74,1.38,4.12a9.59,9.59,0,0,1,.27,2.77c.67,1.25.54,2.75.62,4,.06.85.54,1.69.22,2.64.4.1.28.44.31.63.34,1.62.28,3.46.59,5.05.17,1,.41,2.47,1.36,2.69.21-.26.52-.42.55-.82s-.42-.76-.55-1.19-.09-.87-.2-1.33a23.42,23.42,0,0,1-.27-3c-.1-.74-.67-1.38-.21-2-1.06-2.71-.59-5.83-1.61-8.9-.27-.87-.49-1.93-.83-2.91-.15-.41-.37-.74-.49-1.15-.38-1.18-.77-2.21-1.16-3.27a35.52,35.52,0,0,0-2.42-5.9c-.37-2.49-1.63-4.92-2.64-7.31-.1-.24-.26-.38-.35-.58s.15-.26.1-.4-.36-.22-.38-.32.08-.46,0-.71c-.36-.87-.86-1.7-1.33-2.58-.15-.31-.46-.54-.61-.83-.55-1.08-.68-2.86-1.68-3.14C2605,629.76,2605.67,630.13,2605.39,630.72Z"/><path class="cls-9" d="M2630.45,652a.51.51,0,0,0,.22.13c-.19.7.19,1.34.13,2,0,.32-.23.67-.23,1,0,.1.2.22.21.32.07.69-.42,1.43-.25,2.15,0,.12.19.24.2.36,0,.38-.25.76-.25,1.14,0,.07.21.16.22.23s-.06.23,0,.35c.14.82.39,1.53.46,2.26.06.58.24,1.15.29,1.72a1.7,1.7,0,0,1-.37,1.1c.42.54,0,1.11-.18,1.63-.09.33.21.69-.24,1.05.38.06.2.19.21.27.07.66-.22,1.38-.11,2a1.12,1.12,0,0,0,1.08,1.12c.23-.1.56-.15.63-.3s-.34-.32-.42-.49,0-.35-.06-.54c-.13-.48.12-.8.13-1.18s-.45-.59.09-.8c-.6-1.13.43-2.31.16-3.57-.07-.36,0-.78-.1-1.19,0-.17-.18-.32-.19-.49,0-.49-.15-.92-.2-1.37a8.14,8.14,0,0,0-.44-2.52c.48-1,.21-2.06.23-3.09,0-.1-.1-.18-.09-.26s.24-.07.25-.13-.23-.14-.22-.18.27-.15.27-.26a9.49,9.49,0,0,0-.11-1.15c0-.14-.19-.27-.19-.4,0-.48.69-1.13-.08-1.41C2630.55,651.54,2631,651.8,2630.45,652Z"/><path class="cls-9" d="M3342.26,602a.63.63,0,0,0,.19-.26c1.21-.05,2.28-.5,3.49-.51.56,0,1.16.22,1.75.21.16,0,.38-.17.55-.16a6.93,6.93,0,0,1,1.83.3,7.39,7.39,0,0,0,1.85.36c.21,0,.43-.1.64-.06a16.71,16.71,0,0,1,1.87.7c.1,0,.31-.12.43-.09s.37.17.57.21a22.18,22.18,0,0,1,3.84,1,25.17,25.17,0,0,1,2.83,1.18,4.88,4.88,0,0,1,1.43,1.36c1,.25,1.57,1.2,2.13,1.91.37.46,1.08.64,1.19,1.41.34-.19.37.09.47.19.87.76,1.44,1.93,2.22,2.73.43.52,1.1,1.34,2,1,.1-.26.32-.51.22-.79s-.61-.29-.86-.5-.36-.52-.61-.75a12.42,12.42,0,0,1-1.28-1.75c-.38-.4-1.06-.45-.94-1.1a8.46,8.46,0,0,1-1.27-.93c-.39-.35-.72-.78-1.12-1.16s-.77-.79-1.19-1.17a7,7,0,0,0-1.42-.94,20.6,20.6,0,0,0-1.94-1c-.3-.11-.59-.14-.87-.25a21.46,21.46,0,0,0-2.35-.83,13.81,13.81,0,0,0-4.44-.95,7.76,7.76,0,0,0-1.26-.52,10.21,10.21,0,0,0-1.36-.26c-.93-.16-1.88-.13-2.8-.2-.18,0-.32.07-.48.07s-.12-.24-.22-.26-.25.24-.33.23-.27-.27-.47-.27-.67,0-1,0l-1,.17c-.25,0-.47.23-.7.26-.84.1-2.13-.36-2.47.47C3341.54,602,3341.89,601.48,3342.26,602Z"/><path class="cls-9" d="M3345.08,569.57a1.21,1.21,0,0,0,.48.08c1.71,1.47,3.55,2.49,5.24,3.94.77.7,1.48,1.58,2.32,2.3.22.2.65.33.88.53a25.51,25.51,0,0,1,2.41,2.46,24.3,24.3,0,0,0,2.44,2.53c.29.27.65.41.93.7.86.88,1.53,1.94,2.33,2.87.13.15.48.23.63.4s.45.6.72.87c1.84,1.92,3.48,3.53,5,5.37,1.21,1.44,2.4,2.88,3.52,4.36a15.71,15.71,0,0,1,1.66,3.17,15,15,0,0,1,2.57,4.6c.45,1,1.32,1.85,1.45,3.09.42,0,.45.44.58.67,1.07,1.83,1.81,4.09,2.79,5.92.56,1.12,1.42,2.89,2.43,2.9.09-.37.33-.65.2-1.14s-.73-.82-1-1.31-.45-1-.76-1.56c-.8-1.37-1-2.42-1.56-3.55-.45-.87-1.28-1.48-1.12-2.34-2.27-2.95-3.31-6.8-5.87-10.09-.69-1-1.47-2.11-2.31-3.14-.36-.43-.74-.75-1.09-1.18-1-1.25-1.93-2.32-2.9-3.41a48.4,48.4,0,0,0-5.71-5.9c-1.81-2.68-4.52-4.93-7-7.19-.25-.22-.5-.33-.71-.51s0-.32-.15-.46-.49-.12-.58-.22-.21-.52-.47-.75c-.9-.81-1.93-1.53-3-2.3-.35-.27-.81-.41-1.13-.66-1.25-1-2.55-2.77-3.72-2.69C3344.07,568.69,3345,568.85,3345.08,569.57Z"/><path class="cls-9" d="M3416.4,586.94a.54.54,0,0,0,.15.26,16.33,16.33,0,0,0-.66,2.91c-.14.46-.45.91-.57,1.4,0,.13.12.35.1.49-.14,1-.81,2-.82,3.08,0,.18.14.37.12.55,0,.56-.42,1.07-.48,1.63,0,.1.18.25.18.36s-.1.33-.1.51c0,1.21.17,2.27.19,3.33,0,.86.18,1.7.19,2.53a3.42,3.42,0,0,1-.36,1.6c.44.78,0,1.62-.1,2.39-.06.5.26,1-.14,1.56.38.06.22.26.24.38.14,1,0,2.05.21,3,.15.56.36,1.44,1.3,1.46.2-.17.52-.29.56-.52s-.4-.4-.52-.64a6,6,0,0,1-.17-.75,6.72,6.72,0,0,1-.06-1.71c0-.43-.52-.8,0-1.15-.72-1.59.22-3.33,0-5.12-.08-.51,0-1.13-.07-1.71a4.8,4.8,0,0,1-.16-.71c0-.7-.08-1.34-.08-2a23.48,23.48,0,0,0,0-3.68,19.43,19.43,0,0,0,1-4.37c0-.14-.05-.28,0-.4s.25,0,.29-.12-.18-.25-.15-.3.31-.16.35-.31c.13-.52.17-1.08.29-1.64,0-.19-.08-.43,0-.61.16-.69,1.12-1.37.5-2C3416.67,586.39,3417,586.87,3416.4,586.94Z"/><path class="cls-9" d="M3305.31,617.23a.54.54,0,0,0,.18-.21c.78.27,1.57.07,2.35.3.36.13.69.43,1.07.54.1,0,.3-.1.41-.08.81.19,1.4,1,2.23,1.15.14,0,.33,0,.46,0,.4.19.68.61,1,.85.06,0,.26-.09.33-.06s.2.19.33.25a14,14,0,0,1,2.43,1.14c.59.37,1.2.72,1.75,1.14a2.35,2.35,0,0,1,.65,1.19c.73.22.85,1,1.09,1.59.16.37.68.53.53,1.14.35-.16.28.07.34.14.49.6.64,1.5,1.09,2.1a1.31,1.31,0,0,0,1.53.77c.16-.19.44-.38.43-.59s-.48-.22-.64-.38-.19-.39-.34-.57c-.4-.46-.36-.93-.6-1.35s-.76-.36-.46-.88c-1.26-.79-1.35-2.59-2.7-3.54-.36-.28-.73-.66-1.16-.94-.19-.11-.4-.14-.58-.26a15,15,0,0,0-1.46-.86,7.7,7.7,0,0,0-2.83-1.23c-.83-1-2.17-1.26-3.34-1.67-.12,0-.24,0-.34,0s0-.25-.07-.28-.23.18-.28.15-.1-.31-.23-.35a7.05,7.05,0,0,0-1.4-.21c-.16,0-.36.12-.51.09-.56-.09-1.29-.87-1.7-.15C3304.85,617.07,3305.19,616.69,3305.31,617.23Z"/><path class="cls-4" d="M1860.67,711.88c-.77-14.57-1.59-29.43-6.89-43s-15.93-25.94-30.09-29.44-31.3,4.58-34.44,18.83c-9.21-27.47-19.17-56.15-40.34-75.92s-57.29-26.8-78.72-7.31c-13.43,12.21-18,31.85-16.21,49.91s9.14,35,16.38,51.67c-8.45-8.7-17.09-17.53-27.78-23.25s-24-7.94-35-2.86c-13.51,6.24-20.46,22.06-20.53,36.94s5.42,29.14,10.84,43"/><path class="cls-4" d="M2738.2,705.56c-12-18.65-6.7-46.26,11.28-59.21s45.83-9.19,59.73,8.07c0-16.08.05-32.47,5.07-47.74s16-29.5,31.31-34.24,34.72,3,39.19,18.41C2878.31,561,2900,529,2929.3,520.44s62.65,4.72,81.31,28.92,23.42,57.44,16.27,87.16c12.35-11.81,33-13.69,47.28-4.3s20.71,29.11,14.74,45.11c25.76-2.56,49.83,24.57,44.21,49.83"/><path class="cls-9" d="M2933,795.26a6,6,0,0,0-.47-1.16c-.56-3.13-1.27-6.1-1.92-9.07s-1.28-5.94-1.84-9c-.54-2.88-.8-6-1.33-9.1-.14-.83-.52-1.93-.67-2.76-1-6.27-1.46-12.92-2.28-19.48-.14-1.09-.43-2.08-.54-3.2-.28-3.46-.29-6.92-.51-10.37,0-.57-.27-1.39-.3-2-.06-1.07,0-2.1-.09-3.19-.28-3.72-.34-7.2-.45-10.57s-.07-6.63,0-9.95c0-2.64.15-5.26.25-7.88s.19-5.21.44-7.8a85.66,85.66,0,0,1,1.35-9.91,67.3,67.3,0,0,1,.77-7.47c.45-2.46.89-4.89,1.31-7.2a69.39,69.39,0,0,1,1.67-9.46c-.29-.62.06-1.72.17-2.44.41-3,1-6,1.59-9.13s1.14-6.15,1.61-9.05c.56-3.49,1.47-9,.76-10.22a9,9,0,0,0-1.11,2.56c-.27,1.57-.18,2.91-.38,4.49-.17,1.35-.55,3.11-.8,4.77-.64,4.36-1.36,7.18-2,10.65-.48,2.67-.41,5.31-1.24,7.12-1.06,10.26-3.54,20.76-4.38,32.27-.11,1.64-.27,3.43-.44,5.27s-.23,3.74-.31,5.6c-.06,1.56,0,2.91-.09,4.45-.09,2.24-.09,4.35-.11,6.41s-.06,4.06,0,6.1.07,4.18.1,6.21.18,4,.26,5.94.2,3.8.35,5.6.38,3.53.59,5.19c0,4.48.58,9.14,1.08,13.85.27,2.35.66,4.7,1,7.05s.65,4.7,1.07,7c.15.92.36,1.61.48,2.38.09.57-.12.67-.05,1.19s.44,1.21.48,1.58c.11.9,0,1.43.13,2.39.55,3.34,1.35,6.74,2,10.27.25,1.23.65,2.4.88,3.54.94,4.31,1.47,10.25,2.75,12.57C2933.68,799,2932.8,796.77,2933,795.26Z"/><path class="cls-9" d="M2956.52,614.14a.63.63,0,0,0,.09.35c-.74,1.29-1,2.67-1.75,4-.36.59-.9,1.13-1.25,1.76-.1.17-.08.5-.18.67a10.59,10.59,0,0,1-1.34,1.83,10.43,10.43,0,0,0-1.38,1.86c-.14.22-.15.5-.3.72-.48.65-1.16,1.15-1.69,1.76-.09.1,0,.38-.14.5s-.36.34-.51.54a39.84,39.84,0,0,1-3,3.84c-.82.93-1.64,1.86-2.53,2.72a6.85,6.85,0,0,1-2.05,1.21,6.61,6.61,0,0,1-2.91,1.91c-.65.32-1.11,1-2,1,.08.39-.24.38-.38.47-1.15.81-2.66,1.28-3.81,2-.71.42-1.85,1.06-1.7,2,.27.12.51.37.85.3s.48-.61.78-.85.68-.33,1-.57a18,18,0,0,1,2.34-1.12c.56-.34.84-1,1.52-.83,1.74-1.81,4.45-2.43,6.41-4.44.57-.54,1.29-1.14,1.89-1.8.25-.28.41-.59.66-.85.73-.79,1.34-1.51,2-2.27a22.11,22.11,0,0,0,3.21-4.42c1.69-1.37,2.78-3.47,3.94-5.36a5.6,5.6,0,0,0,.22-.54c.07-.11.28,0,.35-.11s0-.38,0-.45.4-.16.51-.36a18.79,18.79,0,0,0,1.06-2.26c.12-.27.09-.61.21-.86.44-.94,1.62-2,1.16-2.82C2957,613.38,2957.13,614,2956.52,614.14Z"/><path class="cls-9" d="M2883.48,661.3a.87.87,0,0,0,.4.19c.89,1.75,2.27,3,3.36,4.54.54.72,1,1.6,1.56,2.35.17.2.54.34.72.53a27.2,27.2,0,0,1,1.83,2.35,17.27,17.27,0,0,0,2,2.27c.26.22.6.32.85.56.78.72,1.31,1.68,2.12,2.38.13.12.46.14.6.26s.44.48.7.69c1.81,1.41,3.48,2.46,5.13,3.62,1.29,1,2.72,1.67,4,2.55a11.51,11.51,0,0,1,2.35,1.94c1.52.41,2.61,1.64,3.82,2.42a9.12,9.12,0,0,1,2.49,1.57c.32-.27.56,0,.76.13,1.66.76,3.41,1.81,5.11,2.39,1,.32,2.65.85,3.27.09-.17-.3-.19-.66-.55-.88s-.93,0-1.41-.08a14,14,0,0,1-1.37-.47,21.16,21.16,0,0,1-2.93-1.42c-.73-.35-1.63-.28-1.92-1-3-.85-5.38-3.29-8.36-5-.88-.46-1.78-1.19-2.74-1.76-.41-.24-.83-.35-1.2-.62-1.07-.81-2.11-1.4-3.08-2.15-2-1.52-3.78-3.13-5.46-4.28-1.62-2.21-3.79-4.2-5.61-6.38-.18-.21-.4-.31-.54-.5s.07-.3,0-.44-.42-.15-.47-.25-.06-.5-.24-.73c-.63-.8-1.33-1.58-2-2.45-.23-.3-.59-.49-.8-.78-.79-1.08-1.14-3-2.22-3.19C2882.94,660.29,2883.68,660.65,2883.48,661.3Z"/><path class="cls-4" d="M-10.83,455.47c4.15-14.32-.41-29.49-3-44.17s-2.41-31.82,8.48-42S28.9,365.88,27,380.67A194.88,194.88,0,0,1,75.4,279.18c8-8.81,18-17.35,29.87-18,20.49-1,34.09,20.88,40.08,40.51a218.59,218.59,0,0,1-10.67,154.14c-2-19,23.34-32.39,40.56-24.07s24.32,30.2,21.38,49.1S183,516.46,172.51,532.47c17.55-6.46,16.09-7.66,34.72-6.14s32.89,18.2,36.34,36.58c3.36,17.93-3.71,34.35-16.52,47.34-68.11,69-150.49,79.69-246,96.4-16.64,2.92-35.54,5.32-48.88-5.06-10.27-8-14.28-21.45-17.71-34q-22.95-84-45.91-168.08"/><path class="cls-9" d="M64.79,642.67a9.68,9.68,0,0,0-.53-1.45c-.71-3.85-1.55-7.52-2.24-11.21s-1.53-7.34-2.1-11.17c-.53-3.59-.93-7.45-1.52-11.25-.14-1-.51-2.4-.66-3.44-.52-3.89-1-7.87-1.35-11.91s-.69-8.12-1.19-12.18c-.13-1.35-.39-2.59-.51-4-.34-4.27-.5-8.54-.69-12.81,0-.7-.3-1.72-.35-2.49-.09-1.33-.08-2.61-.18-3.95q-.12-1.73-.24-3.39c-.06-1.12-.11-2.21-.17-3.3-.11-2.16-.22-4.27-.33-6.35-.26-4.16-.29-8.2-.37-12.29,0-1.63,0-3.26-.08-4.88v-4.85c0-3.22,0-6.44.06-9.65.15-4.1.49-8.37.91-12.3,0-3.06.23-6.18.51-9.26.16-1.54.32-3.06.47-4.56s.38-3,.55-4.41c.48-3.76.47-7.84,1.42-11.76-.3-.74,0-2.12.14-3,.74-7.32,2.24-15.37,3.21-22.54.66-4.3,1.74-11.08,1.06-12.58a13.68,13.68,0,0,0-1.19,3.2c-.32,1.94-.27,3.58-.52,5.53-.2,1.67-.67,3.84-.91,5.9-.65,5.41-1.45,8.91-2,13.22-.41,3.32-.34,6.56-1.15,8.85-.8,12.71-3,25.82-3.23,40-.16,4.05-.25,8.86-.26,13.43,0,1.93.07,3.6.1,5.5,0,2.76.09,5.36.14,7.89s.09,5,.22,7.52c.24,5.2.32,10.23.69,15s.59,9.24,1.15,13.31c.1,2.76.25,5.59.44,8.45s.53,5.74.83,8.65c.55,5.82,1.45,11.66,2.18,17.4.15,1.14.35,2,.5,2.95.11.71-.11.82,0,1.47.06.47.47,1.5.53,2,.13,1.1,0,1.74.18,2.94.32,2.06.66,4.16,1,6.28s.82,4.26,1.24,6.44c.29,1.51.74,3,1,4.39,1,5.34,1.89,12.63,3.25,15.54C65.63,647.23,64.64,644.51,64.79,642.67Z"/><path class="cls-9" d="M84.64,421.05a.63.63,0,0,0,.09.35c-.74,1.29-1,2.67-1.75,4-.36.59-.9,1.13-1.25,1.76-.1.17-.08.5-.17.67a11.73,11.73,0,0,1-1.35,1.84,10.36,10.36,0,0,0-1.38,1.85c-.13.22-.15.51-.3.72-.48.66-1.16,1.15-1.69,1.76-.08.1,0,.38-.14.5s-.36.34-.51.55a40.93,40.93,0,0,1-3,3.83c-.82.93-1.64,1.86-2.53,2.72a6.61,6.61,0,0,1-2,1.21,6.61,6.61,0,0,1-2.91,1.91c-.65.32-1.11,1-2,1,.08.39-.24.38-.38.47-1.15.81-2.66,1.28-3.81,2-.71.42-1.85,1.06-1.7,2,.27.12.51.37.85.3s.48-.61.79-.85.67-.33,1-.57A18,18,0,0,1,62.84,448c.56-.34.85-1.05,1.52-.82,1.74-1.82,4.45-2.43,6.41-4.45.57-.54,1.29-1.14,1.89-1.8.25-.28.41-.59.66-.85.73-.79,1.34-1.51,2-2.27a22.11,22.11,0,0,0,3.21-4.42c1.69-1.37,2.78-3.47,3.94-5.36a5.6,5.6,0,0,0,.22-.54c.07-.11.28,0,.36-.11s-.06-.38,0-.45.4-.16.51-.36a18.79,18.79,0,0,0,1.06-2.26c.13-.27.09-.61.21-.86.44-.94,1.63-2,1.16-2.82C85.08,420.29,85.25,420.94,84.64,421.05Z"/><path class="cls-9" d="M11.6,468.21a.89.89,0,0,0,.4.2c.89,1.74,2.27,3,3.36,4.53.54.72,1,1.6,1.56,2.35.17.2.55.34.72.53a28.83,28.83,0,0,1,1.83,2.35,16.66,16.66,0,0,0,2,2.27c.26.22.6.32.85.56.78.72,1.31,1.68,2.12,2.38.13.12.46.14.6.26s.44.48.7.69c1.81,1.41,3.48,2.46,5.13,3.62,1.3.95,2.73,1.67,4,2.55a11.51,11.51,0,0,1,2.35,1.94c1.52.41,2.61,1.64,3.82,2.42a9,9,0,0,1,2.49,1.57c.33-.27.56,0,.76.13,1.66.76,3.41,1.81,5.11,2.39,1,.32,2.65.85,3.27.09-.16-.3-.19-.66-.55-.88s-.93,0-1.41-.08a14,14,0,0,1-1.37-.47,20.6,20.6,0,0,1-2.93-1.42c-.73-.35-1.63-.28-1.92-1-3-.85-5.38-3.3-8.36-5-.88-.46-1.78-1.19-2.74-1.76-.4-.24-.83-.35-1.2-.62-1.07-.81-2.11-1.4-3.08-2.15-2-1.52-3.78-3.13-5.46-4.28-1.62-2.21-3.79-4.2-5.61-6.38-.18-.21-.4-.31-.54-.5s.07-.3,0-.44-.42-.15-.47-.25-.06-.5-.23-.73c-.64-.8-1.34-1.58-2-2.45-.22-.3-.59-.49-.8-.78-.79-1.08-1.14-3-2.22-3.19C11.06,467.2,11.8,467.56,11.6,468.21Z"/><path class="cls-9" d="M136.4,531.33a1.88,1.88,0,0,0-.25.66c-1.17,1.25-2.15,2.57-3.29,3.75l-1.65,1.83a16.53,16.53,0,0,1-1.78,1.77c-1.21,1-2.61,2-3.87,3.1-.35.29-.72.8-1.08,1.09a43.24,43.24,0,0,1-4.3,3c-1.53.89-3.06,1.81-4.52,2.83-.5.32-.9.72-1.43,1a55.77,55.77,0,0,1-5.06,2.41c-.28.13-.6.5-.9.66-.52.25-1.06.42-1.58.69l-1.32.68-1.32.58-2.55,1.14a48.09,48.09,0,0,1-5,1.9l-2,.69c-.68.21-1.37.38-2.05.58-1.37.37-2.73.78-4.11,1.09a35.71,35.71,0,0,1-5.4.51,17.19,17.19,0,0,1-4,.5l-2,0-2-.09c-.83,0-1.68,0-2.55.06a7.11,7.11,0,0,1-2.62-.28c-.32.36-.93.15-1.32.14-3.23,0-6.74-.82-9.87-1.17-1.88-.33-4.82-.87-5.63-.09a3.21,3.21,0,0,0,1.31.92c.85.17,1.62,0,2.49.09s1.69.39,2.61.45c2.41.17,3.94.68,5.86.87,1.48.09,2.92-.29,3.94.3,1.42,0,2.84-.13,4.28-.15.72,0,1.44,0,2.17,0l1.1,0,1.11,0c1.48-.06,3-.11,4.51-.2a41.75,41.75,0,0,0,4.6-.72c1.78-.3,3.85-.8,5.81-1.34.82-.24,1.52-.5,2.31-.76,1.17-.38,2.26-.75,3.32-1.13s2.09-.71,3.11-1.17c2.11-.91,4.22-1.63,6.08-2.63a36.44,36.44,0,0,0,5.14-2.88c1.11-.48,2.24-1,3.37-1.6s2.17-1.33,3.25-2c2.21-1.34,4.19-3,6.24-4.57.4-.31.66-.62,1-.9s.41-.05.64-.23.36-.63.53-.75c.39-.3.74-.31,1.15-.66.69-.61,1.39-1.23,2.07-1.89l2-2.13c.47-.5.81-1.1,1.24-1.56.87-.83,1.83-1.86,2.73-2.78a6.24,6.24,0,0,0,1.75-2.6C137.77,529.85,137.29,531.07,136.4,531.33Z"/><path class="cls-19" d="M-1534.54,659.44c59.15-45.8,161.13-59.61,252.65-52.21s176.93,32.51,263.77,52.62c211.53,49,447.27,68.68,660.72,23.28,51.39-10.93,102.19-25.65,156.26-26.69,32.83-.64,65.64,3.86,98.39,2.27,90.31-4.36,165.8-53.65,256.36-54,70.43-.27,103.5,30,159.25,57.78,62.37,31,116.25,51.49,293.58,57.78h-2141Z"/><g class="cls-20"><path class="cls-6" d="M312.86,662.48C269.62,641,240,617.9,196.06,608.77c14.24,11.64,28.84,27.25,47.83,30.16,3.48.54,7.08.7,10.32,2.07s6.13,4.36,6.07,7.88c-.07,4.2-4.07,7.18-7.84,9s-8.09,3.56-10,7.32c-1.57,3.13-.95,7,.93,10a19.92,19.92,0,0,0,8,6.68c16.62,8.5,36.51,3.43,55.15,2.29,7.63-.47,16,0,21.84,4.92,4.89,4.11,7.09,10.51,10.74,15.75,4.07,5.83,8.18,6.21,14.37,7.45,6.64,1.33,13.33,5.41,19.69,8H606.44C429.11,714,375.23,693.53,312.86,662.48Z"/></g><g class="cls-10"><path class="cls-7" d="M243.69,623.9c3.45-2.57,1.86-6.44-1.85-8.77-47.49-10.48-123.51-14.89-208.36,7.08-20.07,5.2-29.74,10.26-48.59,17.43-9.18,5.19-8.35,6.6-5.1,8.15,5,2.37,12.14,1.92,18.26.66,17.83-3.65,32.13-12.89,50.14-16.12C61,630,74.48,631,87.57,629.68c21.24-2.15,42.86-10.28,62.83-6,8.42,1.8,15.18,5.62,23,8.2s18.2,3.72,25.55.25c4.85-2.29,7.65-6.28,13.25-7.7,5.17-1.31,10.79,0,16,1S240.07,626.59,243.69,623.9Z"/></g><path class="cls-11" d="M-12.71,629.4c-3.62,4.62-4.89,10.73,1.4,13.75,5,2.36,12.14,1.91,18.25.66,17.84-3.66,32.13-12.9,50.15-16.13,12.8-2.29,26.29-1.33,39.38-2.65,21.24-2.15,42.85-10.28,62.83-6,8.41,1.79,15.18,5.61,23,8.19s18.2,3.72,25.54.25c4.85-2.29,7.66-6.28,13.26-7.7,5.17-1.31,10.78,0,16,1s11.84,1.2,15.45-1.49c4-3,1.24-7.69-3.74-9.75s-11.33-2.33-17.27-3C202.2,603,177.94,588,147.8,588.68c-28.56.67-52.4,15.29-80.44,19.42-11.85,1.74-24.08,1.55-36.06,2.79s-27.14,5-36.74,10.87C-9.91,624.49-10.55,626.64-12.71,629.4Z"/><path class="cls-12" d="M207.11,627.78c-12-.29-23.52-3.43-31.76-8.67C168.08,614.49,161.6,607.8,151,608c-12.55.26-19.94,10.16-32.2,12.17C106,622.28,94.36,615,81.29,615.31c-7.64.17-14.61,2.86-21.57,5a157.18,157.18,0,0,1-33.86,6.45c-5.14.42-11.06.42-14.38-1.95-3-2.17-2.66-5.66-.37-8.29a16.59,16.59,0,0,1,2.77-2.45C6.73,616-.19,618.56-5.44,621.76c-4.47,2.73-5.11,4.88-7.27,7.64-3.62,4.62-4.89,10.73,1.4,13.75,5,2.36,12.14,1.91,18.25.66,17.84-3.66,32.13-12.9,50.15-16.13,12.8-2.29,26.29-1.33,39.38-2.65,21.24-2.15,42.85-10.28,62.83-6,8.41,1.79,15.18,5.61,23,8.19C189.89,629.7,199.82,630.84,207.11,627.78Z"/><g class="cls-10"><path class="cls-11" d="M238,620.88c-1.56-1-3.2-1.91-4.81-2.8-3-1.68-6.3-3.43-10.38-3.77s-9,1.45-9.07,4c0,1.35,1.19,2.6,2.13,3.83a17.43,17.43,0,0,1,5.3-2.41c5.17-1.31,10.78,0,16,1Z"/></g><path class="cls-13" d="M173.91,578.1a.4.4,0,0,0,.22.14c-.2.68.14,1.33,0,2-.06.32-.29.64-.32,1,0,.09.17.23.17.33,0,.69-.58,1.34-.51,2.07,0,.12.15.25.14.37,0,.38-.37.7-.45,1.06,0,.06.18.19.17.26s-.1.21-.1.33a18.5,18.5,0,0,1-.06,2.27c-.08.58-.06,1.17-.19,1.74a1.71,1.71,0,0,1-.67.93c.22.64-.4,1-.7,1.46s0,.73-.6.89c.33.19.12.24.1.32-.17.63-.73,1.17-.88,1.8a1.13,1.13,0,0,0,.52,1.46c.24,0,.56.11.7,0s-.18-.44-.18-.64.14-.32.17-.51c.07-.5.43-.69.59-1.05s-.2-.71.38-.71c-.14-1.28,1.24-2.05,1.36-3.37,0-.37.22-.78.24-1.2,0-.18-.08-.36,0-.52.1-.49.09-1,.14-1.4a6.82,6.82,0,0,0,.08-2.57,5.91,5.91,0,0,0,.65-3c0-.11-.07-.19-.06-.28s.25-.05.27-.1-.23-.16-.21-.2.28-.13.29-.24a7.69,7.69,0,0,0,0-1.17c0-.13-.17-.28-.17-.41,0-.48.72-1.12,0-1.41C174,577.7,174.43,578,173.91,578.1Z"/><path class="cls-13" d="M197.31,574.4a.53.53,0,0,0-.08.31c-1.13.46-1.84,1.4-2.85,2-.48.29-1.08.46-1.56.8-.13.09-.19.37-.32.47-.91.77-2.22,1.12-3.1,2-.14.15-.19.4-.35.53-.49.44-1.16.65-1.67,1.07-.08.07-.06.33-.15.41s-.34.23-.48.38c-1,1-1.66,2.06-2.5,3-.66.75-1.21,1.57-1.82,2.32a5.32,5.32,0,0,1-1.51,1.17c-.3,1-1.24,1.44-1.9,2.05-.42.41-.54,1.09-1.27,1.32.24.31,0,.38-.1.5a12.15,12.15,0,0,1-1,1.41,9.74,9.74,0,0,0-.94,1.46c-.28.62-.72,1.59,0,2.19.28,0,.62.06.81-.13s0-.62,0-.92a5,5,0,0,1,.4-.8,7,7,0,0,1,1.18-1.61c.28-.41.18-1.07.82-1.05.62-1.91,2.66-2.83,3.85-4.57.35-.49.87-1,1.28-1.53a7.26,7.26,0,0,1,.44-.72l1.5-1.76a32.47,32.47,0,0,0,2.91-3.16,27,27,0,0,0,4.29-3c.14-.1.19-.26.31-.33s.24.12.33.08.05-.33.12-.36.37.07.52,0c.51-.35,1-.77,1.55-1.17.19-.14.28-.41.46-.54.69-.45,2-.42,2-1.33C198,574.11,197.81,574.7,197.31,574.4Z"/><path class="cls-13" d="M195,590.83a.53.53,0,0,0,0,.24c-.5,0-.71.54-1.14.68-.19.06-.49,0-.69.08,0,0,0,.23-.09.27-.36.27-1,0-1.35.42-.06.07,0,.24-.11.29s-.56,0-.77.13c0,0,0,.23,0,.26s-.16,0-.22.08c-.4.38-.67.83-1,1.13s-.52.59-.8.81a.93.93,0,0,1-.8.07c-.07.54-.62.35-1,.42s-.25.43-.7.18c.18.34,0,.24,0,.27-.31.3-.86.33-1.13.67s-.44.51.06,1.29c.18.15.4.4.53.4s-.05-.39,0-.53.17-.14.24-.24c.18-.28.49-.2.69-.33s.05-.58.46-.21c.26-.9,1.45-.45,2-1.09.15-.19.41-.28.59-.49s.08-.25.16-.31c.26-.19.43-.43.65-.62.45-.4,1-.63,1.19-1.16.78.12,1.26-.43,1.86-.71.06,0,.06-.14.11-.16s.14.19.19.19,0-.25,0-.24.21.19.27.17a7.4,7.4,0,0,0,.61-.42c.07,0,.07-.25.15-.29.27-.15.94.32.78-.45C195.26,590.81,195.28,591.25,195,590.83Z"/><path class="cls-13" d="M35.86,605.93a.89.89,0,0,0,.17-.17c.3.36.82.21,1.17.46.16.12.24.41.43.51,0,0,.21-.1.26-.08.41.16.54.8,1,.91.08,0,.23-.09.3,0s.24.47.43.6c0,0,.19-.11.23-.1s.08.14.15.17a8.26,8.26,0,0,1,1.38.49c.31.19.7.28,1,.5a.83.83,0,0,1,.24.73c.53,0,.44.54.55.85s.45.19.24.64c.32-.21.23,0,.27,0,.3.27.33.8.65,1s.45.41,1.28,0c.16-.17.42-.38.42-.5s-.4,0-.53,0-.13-.18-.24-.25c-.29-.18-.2-.5-.36-.7s-.58,0-.25-.47c-.93-.16-.69-1.42-1.49-1.82-.23-.1-.39-.34-.65-.45s-.27,0-.36-.06a6.16,6.16,0,0,0-.81-.41,3.15,3.15,0,0,0-1.55-.6c-.24-.75-1-.89-1.52-1.24-.06,0-.15,0-.19,0s.08-.23,0-.26-.19.16-.2.13,0-.28,0-.32a4.81,4.81,0,0,0-.7-.25c-.08,0-.24.09-.32.06-.27-.12-.34-1-.83-.33C35.68,605.72,36,605.42,35.86,605.93Z"/><path class="cls-13" d="M39.28,598.34a.47.47,0,0,0,.25-.1c.48.59,1.23.71,1.77,1.21.24.23.39.62.66.85.08.07.31,0,.39.06.6.42.85,1.29,1.52,1.69.11.06.31,0,.41.11.3.26.39.74.68,1,0,.05.26,0,.31,0s.13.21.23.29a19.7,19.7,0,0,1,2,1.43c.44.43,1,.77,1.38,1.23a1.8,1.8,0,0,1,.42,1.14c.69.21.65,1,.85,1.5.12.34.58.49.4,1.05.36-.15.27.06.32.13.43.54.55,1.35,1,1.88a1.2,1.2,0,0,0,1.5.56c.16-.19.43-.39.42-.57s-.46-.16-.62-.29-.18-.32-.33-.47c-.36-.39-.3-.83-.52-1.19s-.71-.3-.37-.78c-1.16-.69-1-2.33-2.09-3.27-.31-.25-.55-.65-.9-.94-.15-.12-.36-.15-.48-.28a12.18,12.18,0,0,0-1.13-1A7.34,7.34,0,0,0,45.08,602c-.41-1.08-1.46-1.66-2.28-2.39-.08-.07-.21,0-.27-.11s.09-.23.06-.28-.27.09-.29,0,0-.31,0-.39a10.79,10.79,0,0,0-1-.68c-.13-.09-.35,0-.46-.11-.42-.3-.56-1.29-1.25-.84C39,598,39.46,597.82,39.28,598.34Z"/><path class="cls-21" d="M3178.54,708.54c-136.57,5.25-273.66.06-403.75-19.69-60.92-9.24-121.14-21.7-185.24-22.58-38.92-.53-77.8,3.26-116.63,1.93-107.06-3.7-196.55-45.39-303.9-45.69-83.48-.23-122.69,25.4-188.78,48.87-73.93,26.27-137.8,43.56-348,48.88h1547S3307.59,703.58,3178.54,708.54Z"/><path class="cls-22" d="M638.5,719.38l246.71-27.91c22.61-2.55,46-5.15,70.18-4.81,38.37.55,70.62,8.27,105.83,12.82,59,7.63,127.49,6.24,189.22.8s118.79-14.64,177.34-22.59c12.85-1.74,26.43-3.46,40.52-3.17,16.61.34,31,3.4,44.27,6.37,48.53,10.8,102.44,27.18,149.62,38.49"/><path class="cls-9" d="M1716.1,639.34a9,9,0,0,0,.83,1.3c1.52,3.61,3.14,7,4.62,10.46s3.1,6.83,4.48,10.44c1.3,3.39,2.52,7.07,3.93,10.65.36,1,1,2.24,1.39,3.22,1.36,3.68,2.69,7.46,3.91,11.33s2.44,7.78,3.8,11.63c.43,1.29,1,2.44,1.37,3.76,1.26,4.1,2.34,8.23,3.45,12.36.19.68.67,1.61.89,2.35.37,1.28.64,2.53,1,3.82l1,3.26c.3,1.07.59,2.13.88,3.18l1.7,6.13c1.16,4,2.07,7.93,3,11.91.39,1.59.77,3.17,1.15,4.74l1,4.74c.69,3.15,1.41,6.28,2,9.43.74,4,1.33,8.28,1.78,12.21a89.52,89.52,0,0,1,1.52,9.15c.17,1.53.35,3.05.53,4.55s.28,3,.42,4.43c.36,3.77,1.25,7.75,1.18,11.78a8.15,8.15,0,0,1,.51,3c.87,7.31,1.16,15.49,1.77,22.7.28,4.35.7,11.19,1.69,12.51a13.57,13.57,0,0,0,.47-3.39c-.11-2-.52-3.54-.7-5.51-.17-1.67-.17-3.89-.38-6-.55-5.42-.53-9-.9-13.35-.32-3.33-1.1-6.47-.8-8.89-2-12.57-2.68-25.85-5.55-39.79-.73-4-1.68-8.7-2.66-13.17-.44-1.88-.86-3.49-1.3-5.34-.65-2.68-1.26-5.21-1.85-7.68s-1.18-4.87-1.85-7.29c-1.37-5-2.54-9.91-3.93-14.47s-2.58-8.88-4-12.74c-.7-2.68-1.46-5.4-2.26-8.15s-1.78-5.49-2.7-8.26c-1.8-5.56-3.95-11.07-5.91-16.52-.39-1.08-.78-1.88-1.13-2.77-.25-.66-.07-.82-.29-1.43-.16-.45-.79-1.37-.94-1.81-.37-1-.38-1.7-.82-2.82q-1.14-2.92-2.37-5.91c-.85-2-1.73-4-2.61-6-.61-1.41-1.36-2.74-1.93-4.06-2.15-5-4.58-11.92-6.55-14.47C1714.28,635.07,1715.84,637.51,1716.1,639.34Z"/><path class="cls-23" d="M3853.21,720c-7.86-20.54-35.27-36-62.8-45.23s-57.6-15.76-80.86-29.54c-35.51-21.06-52.72-57.52-96.33-69-26.17-6.92-55.78-2.74-81.74,4.54s-50.19,17.57-76.92,23.35c-36.38,7.86-75.88,7.06-111.83,15.82-36.62,8.93-66.77,27.05-99.15,41.93-69.39,31.88-152.13,50.2-235.27,50.82V720"/><g class="cls-20"><path class="cls-6" d="M3790.41,674.77c-27.54-9.22-57.6-15.76-80.86-29.54-27.81-16.49-44.41-42.44-71.25-58.44a42,42,0,0,1,11.49,16.75c2.57,7.4,2.51,15.15,5.15,22.53a26.83,26.83,0,0,0,19.31,17.26c7.05,1.64,14.82.7,22.11,1.75s14.78,5.71,12.48,10.64c-1.33,2.87-5.44,4.58-8.18,6.92-7.48,6.37-3.08,16.7,6.4,21.62s22.12,5.64,33.93,5.23,23.75-1.76,35.37-.25c20.33,2.63,36.12,13.34,51.93,22.62A154.76,154.76,0,0,0,3844,720h9.25C3845.35,699.46,3817.94,684,3790.41,674.77Z"/></g><path class="cls-9" d="M3903.42,549.9a.48.48,0,0,0,0,.28c-.76.6-1,1.53-1.56,2.23-.26.34-.69.6-1,1-.07.11,0,.36,0,.47-.44.82-1.35,1.42-1.67,2.37-.05.16,0,.37,0,.52-.2.47-.69.79-.89,1.27,0,.07.1.27.07.36s-.18.26-.23.41c-.31,1.07-.41,2-.65,3-.21.74-.22,1.53-.39,2.26a3,3,0,0,1-.7,1.31c.26.8-.36,1.43-.59,2.09-.15.44.05,1-.44,1.37.37.12.17.27.17.38a22.41,22.41,0,0,0-.32,2.69c.07.52.14,1.34,1.06,1.49.23-.12.56-.19.64-.39s-.34-.41-.42-.63a5.37,5.37,0,0,1,.19-2.21c0-.38-.37-.8.2-1-.42-1.54.85-2.87,1-4.46,0-.47.25-1,.31-1.5a4.82,4.82,0,0,1,0-.66c.19-.6.23-1.18.4-1.73a21.86,21.86,0,0,0,.91-3.19,17.4,17.4,0,0,0,2.19-3.39c.07-.12,0-.26.11-.34s.25,0,.3,0-.09-.28,0-.32.34,0,.42-.12c.28-.4.49-.85.78-1.27.1-.15.07-.4.16-.54.38-.52,1.47-.69,1.12-1.48C3903.85,549.54,3904,550.07,3903.42,549.9Z"/><path class="cls-9" d="M3952.2,525.79a1.17,1.17,0,0,0-.23.46c-2,1.25-3.42,2.91-5.23,4.32-.84.68-1.86,1.26-2.73,2-.24.2-.42.63-.65.84-1.7,1.59-3.82,2.9-5.47,4.71-.27.3-.42.68-.71,1-.89.92-2,1.6-2.88,2.53-.14.15-.21.51-.36.69s-.58.51-.85.82c-1.78,2.09-3.18,4-4.71,5.9-1.24,1.48-2.28,3.1-3.46,4.59a16.35,16.35,0,0,1-2.54,2.65c-.75,1.71-2.28,2.93-3.37,4.28a12.6,12.6,0,0,1-2.21,2.75c.2.39-.18.64-.32.87-1.17,1.84-2.71,3.75-3.75,5.64-.6,1.15-1.57,2.95-1,3.76.35-.15.73-.14,1-.54a15.85,15.85,0,0,0,.47-1.61c.19-.46.56-1,.85-1.54a32.05,32.05,0,0,1,2.22-3.26c.55-.82.69-1.86,1.53-2.14,1.61-3.45,4.72-6,7.1-9.44.67-1,1.62-2,2.41-3.13.33-.46.53-.94.89-1.37,1-1.23,1.88-2.42,2.84-3.55,2-2.35,4-4.41,5.46-6.37,2.64-2,5.06-4.59,7.64-6.84.26-.22.39-.47.61-.65s.33,0,.49-.08.2-.48.31-.56c.28-.18.57-.12.84-.35.94-.79,1.86-1.67,2.87-2.51.35-.29.59-.71.92-1,1.25-1,3.4-1.74,3.67-2.93C3953.36,525,3952.93,525.89,3952.2,525.79Z"/><path class="cls-9" d="M4280,523.74a.76.76,0,0,0-.19.38c-1.67.75-2.87,2-4.39,2.92-.7.46-1.56.8-2.29,1.3-.2.15-.34.5-.53.65-1.42,1.12-3.22,1.91-4.59,3.23-.22.23-.34.54-.57.76-.74.66-1.69,1.07-2.41,1.75-.12.11-.16.43-.29.55s-.48.36-.7.59c-1.47,1.55-2.61,3-3.85,4.43-1,1.1-1.84,2.35-2.8,3.47a10.16,10.16,0,0,1-2.11,1.92c-.55,1.37-1.85,2.21-2.74,3.21-.59.66-.91,1.57-1.81,2.07.22.36-.11.52-.22.7-.92,1.42-2.18,2.86-3,4.34-.46.9-1.2,2.31-.55,3,.32-.09.67,0,.94-.34s.11-.87.27-1.3.43-.77.65-1.19a20.47,20.47,0,0,1,1.76-2.49c.44-.62.48-1.48,1.23-1.62,1.18-2.72,3.82-4.51,5.71-7.1.53-.76,1.32-1.52,1.94-2.35.27-.34.42-.73.71-1,.86-.92,1.52-1.82,2.31-2.66,1.61-1.74,3.27-3.22,4.47-4.71,2.22-1.3,4.22-3.19,6.37-4.74.21-.16.31-.36.5-.48s.28.09.42,0,.15-.39.25-.44.48,0,.71-.16c.78-.54,1.54-1.16,2.39-1.72.29-.2.48-.54.76-.72,1-.69,2.84-.91,3.07-2C4281,523.28,4280.65,524,4280,523.74Z"/><path class="cls-9" d="M4286.57,546.31a.6.6,0,0,0-.26.22c-1.33-.23-2.52.28-3.8.37-.6.07-1.28,0-1.92.08-.18,0-.36.29-.53.34a13.75,13.75,0,0,1-2,.36,7.28,7.28,0,0,0-2,.59c-.2.11-.33.35-.54.44-.64.32-1.44.31-2.07.66-.1.06-.17.32-.28.39s-.41.15-.6.27a36.86,36.86,0,0,0-3.31,2.65c-.86.65-1.51,1.53-2.29,2.23a5.34,5.34,0,0,1-1.7,1.16,3,3,0,0,1-.93,1.22,10.58,10.58,0,0,0-1.18,1c-.44.46-.63,1.15-1.35,1.47.25.31,0,.41-.09.54a22.28,22.28,0,0,0-1.93,3.29c-.22.71-.58,1.81.21,2.32.28-.07.62,0,.8-.27s-.11-.64-.07-1a5.89,5.89,0,0,1,.33-.9,9.41,9.41,0,0,1,1.1-1.83c.29-.44.18-1.13.83-1.15.65-2,2.76-3.09,4.19-4.78.39-.52,1-1,1.53-1.49.21-.22.32-.51.56-.69.7-.53,1.24-1.13,1.9-1.59,1.35-1,2.76-1.71,3.84-2.56a9.25,9.25,0,0,0,1.36-.32c.44-.14.9-.26,1.34-.42a26.52,26.52,0,0,1,2.72-.82c.18,0,.3-.18.46-.19s.17.21.28.21.2-.27.28-.27.32.22.51.19.67-.13,1-.21l1-.15c.25,0,.48-.23.71-.26.9-.08,2.05.68,2.59-.1C4287.36,546.41,4286.86,546.82,4286.57,546.31Z"/><path class="cls-9" d="M4554.22,519a.62.62,0,0,0,.05.32c-.85.91-1.13,2.08-1.81,3.08-.32.47-.8.89-1.11,1.41-.09.14,0,.43-.09.58-.54,1.1-1.58,2-2,3.23-.07.2,0,.45-.1.65-.26.62-.82,1.1-1.08,1.71,0,.11.07.34,0,.45s-.22.35-.29.55c-.46,1.38-.7,2.62-1.08,3.84-.33,1-.46,2-.76,2.93a4.86,4.86,0,0,1-.93,1.71c.13,1-.62,1.85-1,2.69-.23.56-.11,1.24-.69,1.74.34.2.12.37.09.51-.2,1.13-.74,2.32-.84,3.46-.05.69-.16,1.76.72,2.11.25-.12.59-.16.71-.41s-.24-.59-.27-.91.09-.59.1-.91a9.39,9.39,0,0,1,.55-2c.12-.5-.21-1.09.4-1.32-.12-2,1.4-3.74,1.84-5.87.11-.62.42-1.29.57-2a5.8,5.8,0,0,1,.11-.85c.28-.8.42-1.55.67-2.28a35.59,35.59,0,0,0,1.38-4.18,28.45,28.45,0,0,0,2.69-4.65c.09-.16.07-.33.15-.45s.27,0,.34-.06-.09-.33,0-.38.37-.1.47-.26c.33-.54.6-1.16.95-1.75.11-.21.09-.5.2-.69.44-.73,1.67-1.25,1.3-2.09C4554.71,518.44,4554.8,519.05,4554.22,519Z"/><path class="cls-9" d="M4565.07,529.87a.5.5,0,0,0,0,.27c-.74.31-1,1.08-1.64,1.53-.27.23-.69.34-1,.61-.08.07,0,.31-.09.39-.47.6-1.37.91-1.75,1.65-.05.13,0,.32-.07.44-.22.35-.71.52-.94.89,0,.05.08.25.05.32s-.19.18-.25.31c-.36.84-.52,1.64-.8,2.38-.24.58-.3,1.23-.5,1.8a2,2,0,0,1-.75,1c.22.69-.43,1.13-.68,1.65-.17.34,0,.79-.5,1.08.36.14.16.24.15.33a15,15,0,0,0-.43,2.2c.05.43.08,1.11,1,1.27.23-.09.57-.13.65-.29s-.32-.34-.39-.53a2.46,2.46,0,0,1,0-.55c-.05-.52.23-.82.3-1.21s-.34-.68.23-.8c-.34-1.29,1-2.21,1.18-3.48.05-.38.29-.76.38-1.18,0-.17,0-.38,0-.54.21-.46.29-.93.48-1.36a16,16,0,0,0,1.06-2.49,11.91,11.91,0,0,0,2.27-2.38c.08-.08.06-.21.13-.27s.23.12.28.09-.06-.27,0-.29.3.08.38,0c.29-.26.52-.6.82-.89.11-.1.1-.33.2-.42.39-.36,1.36-.18,1.14-1C4565.5,529.67,4565.52,530.18,4565.07,529.87Z"/><path class="cls-9" d="M4624.68,529.82a1,1,0,0,0-.38.28c-2.11.1-4,.81-6,1.13-1,.16-2,.16-3,.36-.27.06-.6.33-.87.4-2,.52-4.29.58-6.37,1.3-.35.12-.63.37-1,.48-1.1.34-2.29.37-3.38.72-.18.06-.39.34-.58.41s-.69.15-1,.28c-2.31.88-4.24,1.81-6.26,2.65-1.63.64-3.14,1.49-4.71,2.16a13.66,13.66,0,0,1-3.17,1c-1.31,1.06-3.07,1.33-4.51,1.91a10.46,10.46,0,0,1-3,1.21c0,.42-.41.44-.62.56-1.72,1-3.77,1.79-5.39,2.86-1,.66-2.51,1.67-2.33,2.64.36.05.66.26,1.09.08s.64-.77,1-1.11.88-.55,1.33-.86a29,29,0,0,1,3.16-1.62c.79-.4,1.33-1.21,2.14-1,2.73-2.09,6.33-2.7,9.68-4.39.95-.5,2.16-.91,3.25-1.44.46-.22.81-.52,1.28-.71,1.37-.52,2.53-1.11,3.78-1.59,2.57-1,5-1.75,7-2.7,3-.36,6-1.38,9-2,.3-.07.51-.22.76-.26s.26.19.43.18.36-.31.48-.32c.3,0,.5.17.82.11,1.09-.21,2.2-.51,3.36-.73.4-.08.77-.32,1.14-.39,1.44-.26,3.45.19,4.18-.7C4625.92,529.75,4625.22,530.27,4624.68,529.82Z"/><g class="cls-10"><path class="cls-7" d="M2285.32,646.36c4.1-3.73,2.21-9.35-2.19-12.74-56.29-15.22-146.41-21.63-247,10.29-23.79,7.55-35.26,14.91-57.6,25.32-10.89,7.54-9.89,9.58-6,11.84,5.86,3.44,14.38,2.78,21.64,1,21.14-5.31,38.08-18.74,59.44-23.43,15.18-3.33,31.17-1.93,46.68-3.85,25.18-3.12,50.8-14.92,74.48-8.73,10,2.61,18,8.16,27.29,11.9s21.58,5.41,30.28.37c5.75-3.33,9.07-9.12,15.71-11.19,6.13-1.9,12.79.06,19,1.42S2281,650.27,2285.32,646.36Z"/></g><path class="cls-11" d="M1981.38,654.36c-4.29,6.71-5.79,15.58,1.67,20,5.86,3.44,14.38,2.78,21.63,1,21.15-5.31,38.09-18.74,59.45-23.43,15.17-3.33,31.16-1.93,46.68-3.85,25.18-3.12,50.8-14.92,74.47-8.73,10,2.61,18,8.16,27.3,11.9s21.57,5.41,30.28.37c5.75-3.33,9.07-9.12,15.71-11.19,6.13-1.9,12.78.06,19,1.42s14,1.75,18.32-2.16c4.74-4.32,1.47-11.17-4.44-14.17S2278,622.06,2271,621c-34.82-5-63.57-26.86-99.31-25.84-33.85,1-62.11,22.21-95.35,28.21-14.05,2.53-28.54,2.26-42.75,4.05s-32.17,7.29-43.55,15.8C1984.7,647.23,1984,650.35,1981.38,654.36Z"/><path class="cls-12" d="M2242,652c-14.18-.42-27.88-5-37.65-12.6-8.61-6.71-16.3-16.42-28.86-16.11-14.87.38-23.64,14.77-38.17,17.68-15.14,3-29-7.48-44.47-7.08-9,.24-17.32,4.15-25.56,7.29a157.17,157.17,0,0,1-40.15,9.37c-6.09.61-13.1.61-17-2.84-3.6-3.15-3.15-8.21-.43-12a21.52,21.52,0,0,1,3.29-3.56c-8.48,2.74-16.68,6.49-22.91,11.15-5.3,4-6,7.09-8.62,11.1-4.29,6.71-5.79,15.58,1.67,20,5.86,3.44,14.38,2.78,21.63,1,21.15-5.31,38.09-18.74,59.45-23.43,15.17-3.33,31.16-1.93,46.68-3.85,25.18-3.12,50.8-14.92,74.47-8.73,10,2.61,18,8.16,27.3,11.9C2221.56,654.79,2233.33,656.44,2242,652Z"/><g class="cls-10"><path class="cls-11" d="M2278.52,642c-1.85-1.42-3.79-2.77-5.7-4.07-3.59-2.44-7.47-5-12.3-5.47s-10.67,2.11-10.75,5.86c0,2,1.4,3.77,2.52,5.56a19.21,19.21,0,0,1,6.28-3.5c6.13-1.9,12.78.06,19,1.42Z"/></g><path class="cls-13" d="M2202.79,579.84a.48.48,0,0,0,.22.2c-.2,1,.13,1.91,0,2.89-.06.46-.29.93-.33,1.42,0,.13.17.32.17.46,0,1-.61,2-.57,3,0,.17.15.35.13.53,0,.54-.39,1-.47,1.57,0,.09.16.25.16.35s-.11.31-.12.48c-.06,1.18,0,2.22-.14,3.25-.11.83-.12,1.67-.27,2.48a3.28,3.28,0,0,1-.74,1.43c.19.86-.46,1.53-.81,2.19-.23.43-.08,1-.67,1.36.33.2.11.32.08.43-.22.91-.84,1.79-1,2.69-.13.55-.35,1.39.45,1.88.26,0,.59,0,.74-.18s-.16-.55-.15-.81.17-.47.21-.74a7.5,7.5,0,0,1,.69-1.58c.14-.41-.16-.94.45-1.07-.08-1.73,1.39-3.07,1.57-4.93.06-.52.26-1.11.3-1.71,0-.25-.06-.49,0-.73.11-.7.13-1.34.19-2a13.18,13.18,0,0,0,.17-3.65c.67-1.34.58-2.91.72-4.38,0-.15-.07-.27-.06-.39s.25-.09.27-.17-.22-.21-.2-.27.28-.2.29-.36a13.22,13.22,0,0,0,0-1.66c0-.2-.17-.4-.17-.58,0-.7.73-1.62,0-2C2202.9,579.26,2203.31,579.62,2202.79,579.84Z"/><path class="cls-13" d="M2230.33,574.91a.8.8,0,0,0-.11.37c-1.39.79-2.28,2-3.52,3-.57.46-1.3.81-1.89,1.32-.16.14-.25.47-.4.62-1.12,1.11-2.68,1.88-3.73,3.17-.18.21-.25.5-.44.71-.58.64-1.38,1.06-2,1.69-.1.1-.09.4-.19.52s-.39.35-.56.56c-.58.73-1.08,1.45-1.55,2.15s-.95,1.36-1.43,2c-.78,1-1.41,2.19-2.14,3.25a8.73,8.73,0,0,1-1.73,1.81c-.36,1.24-1.42,2.07-2.17,3-.46.61-.62,1.46-1.43,1.93.26.32,0,.48-.11.64-.68,1.32-1.69,2.66-2.23,4-.31.84-.81,2.13-.08,2.75.3-.1.65-.07.86-.35s0-.78.07-1.17a8.53,8.53,0,0,1,.45-1.1,14.58,14.58,0,0,1,1.33-2.3c.33-.57.24-1.35.93-1.5.75-2.5,3-4.17,4.43-6.59.41-.69,1-1.42,1.5-2.19a10,10,0,0,1,.53-1c.66-.88,1.17-1.71,1.78-2.5s1.28-1.59,1.88-2.32a23.55,23.55,0,0,0,1.61-2.15,54.44,54.44,0,0,0,5.17-4.62c.17-.15.24-.34.39-.46s.28.08.39,0,.08-.38.16-.42.43,0,.62-.18c.63-.54,1.24-1.14,1.91-1.72.23-.2.36-.54.58-.72.84-.69,2.43-1,2.47-2C2231.14,574.42,2230.93,575.11,2230.33,574.91Z"/><path class="cls-13" d="M2227.57,598.76a.57.57,0,0,0,0,.25c-.59.12-.86.71-1.37.94-.24.12-.58.09-.82.23-.07,0-.05.26-.11.31-.44.36-1.21.27-1.62.73-.07.08-.05.27-.13.33-.25.19-.66.13-.92.31,0,0,0,.24,0,.28s-.19.06-.26.13c-.47.5-.79,1-1.22,1.44s-.61.75-1,1.06a1.26,1.26,0,0,1-.93.25c-.09.6-.74.52-1.15.68s-.3.53-.81.37c.2.32,0,.25,0,.3-.36.39-1,.56-1.32,1-.19.26-.5.65.05,1.4.21.12.47.33.61.31s-.05-.42,0-.58.2-.2.28-.33c.21-.35.56-.33.8-.52s.07-.64.54-.34c.31-1,1.69-.84,2.32-1.65.18-.24.49-.39.7-.66.08-.11.1-.29.2-.38.3-.25.51-.55.77-.8a5.91,5.91,0,0,0,1.42-1.51c.92,0,1.51-.72,2.22-1.15.07,0,.07-.16.13-.19s.18.18.23.17,0-.26,0-.26.25.16.32.12a7.35,7.35,0,0,0,.74-.57c.09-.06.09-.27.18-.33.33-.21,1.13.15.95-.63C2227.92,598.68,2227.94,599.15,2227.57,598.76Z"/><path class="cls-13" d="M2039,619.82a.63.63,0,0,0,.21-.13c.38.44,1,.41,1.44.76.2.17.31.5.53.66.06,0,.26-.06.32,0,.5.27.67,1,1.22,1.24.09,0,.27,0,.35,0,.25.18.3.59.53.78,0,0,.23-.07.27,0s.1.17.18.22a13.18,13.18,0,0,1,1.63.94c.36.3.81.52,1.15.84a1.21,1.21,0,0,1,.3.92c.6.08.51.75.65,1.15s.5.34.28.83c.35-.17.25,0,.29.06.35.4.4,1.05.76,1.43.2.24.51.63,1.38.29.16-.17.43-.36.44-.51s-.43-.08-.57-.17-.15-.25-.27-.35c-.32-.29-.23-.65-.4-.93s-.64-.16-.29-.61c-1-.43-.78-1.84-1.69-2.51-.25-.18-.45-.48-.74-.68-.13-.09-.32-.08-.42-.18a8.23,8.23,0,0,0-1-.67,4.49,4.49,0,0,0-1.82-1.08c-.3-.9-1.18-1.24-1.85-1.75-.07-.05-.18,0-.24-.06s.09-.22.06-.26-.23.12-.24.09,0-.29,0-.34a4.54,4.54,0,0,0-.85-.44c-.1-.06-.29,0-.38,0-.34-.19-.45-1.08-1-.54C2038.75,619.56,2039.13,619.31,2039,619.82Z"/><path class="cls-13" d="M2043.07,608.83a.51.51,0,0,0,.29,0c.6.8,1.51,1.16,2.17,1.88.3.35.49.84.83,1.19.09.09.36.08.45.17.74.67,1.07,1.76,1.86,2.42.14.11.37.12.48.25.36.4.5,1,.84,1.4.05.07.29,0,.36.11s.15.3.27.42a28.88,28.88,0,0,1,2.28,2.29c.52.63,1.12,1.21,1.6,1.87a3.14,3.14,0,0,1,.52,1.52c.75.45.75,1.39,1,2.09.14.46.65.77.48,1.42.38-.09.3.15.36.25.48.79.64,1.85,1.12,2.63.27.47.68,1.23,1.61,1,.16-.21.43-.41.42-.64s-.5-.29-.67-.49-.2-.46-.36-.68a7.49,7.49,0,0,1-.6-1.61c-.19-.39-.77-.55-.43-1.07-1.28-1.16-1.19-3.15-2.41-4.57-.33-.4-.63-1-1-1.39-.16-.19-.4-.28-.55-.48-.42-.56-.88-1-1.31-1.49a12.74,12.74,0,0,0-2.57-2.57c-.52-1.39-1.76-2.36-2.75-3.44-.1-.11-.25-.12-.33-.21s.1-.24,0-.31-.31,0-.34,0,0-.34-.07-.46a14.87,14.87,0,0,0-1.25-1.07c-.15-.13-.41-.14-.55-.26-.51-.46-.73-1.61-1.53-1.31C2042.71,608.36,2043.25,608.3,2043.07,608.83Z"/><g class="cls-24"><path class="cls-25" d="M4590.62,662.62c-90.88-.26-190.05,26.3-302.26,24.46-148.1-2.44-291.61,19.21-439.35,32.49l444.4.27q20.72-4.25,41.29-9.24c35.68-8.7,71.44-19.2,108.34-20.86,11.69-.53,24.42-.75,36.17,1.69,16.84,2.47,45,14.94,61.7,16.15,23.35,1.7,46.56-3.45,69.23-8.62,20.88-4.77,41.88-9.63,61.49-17.49,17.42-7,33.85-16.38,52.54-20.13,25.55-5.12,52.94.81,78.19-5.36,21.68-5.29,40.77-19.22,61.47-25.52h0C4729.89,640.1,4713.77,663,4590.62,662.62Z"/></g><g class="cls-20"><path class="cls-26" d="M4376.12,719.89c21.58-5.07,42.95-11.09,64.29-17.11,24.93-7,51.45-15.08,68.09-34.87-68,7.58-140.8,20.47-220.14,19.17-148.1-2.44-291.61,19.21-439.35,32.49Z"/></g><g class="cls-20"><path class="cls-27" d="M4067.78,720.06a37.37,37.37,0,0,0,5.18-2.86c6.83-4.52,12.1-12.3,11.33-20.45l-1.4-.27c-77.65,6.92-155.16,16.37-233.88,23.45Z"/></g><rect class="cls-12" x="4611.5" y="676.15" width="144.34" height="3.4" rx="1.7"/><rect class="cls-12" x="4563.97" y="685.46" width="144.34" height="3.4" rx="1.7"/><rect class="cls-12" x="4317.84" y="697.07" width="144.34" height="3.4" rx="1.7"/><rect class="cls-12" x="4283.02" y="705.69" width="91.67" height="3.4" rx="1.7"/><path class="cls-5" d="M4440.25,711.93c-1.45-.89-2.79-1.69-3.76-2.2-18.69-12.32-35.82-23.87-53.94-36.5-8.38-6.08-17.23-12.72-26.16-19.16-1.21-.88-2.66-1.86-4.11-2.85s-2.86-2-4.06-2.92c-9-6.71-18-13.7-27.23-20.75-9.05-7.22-18.17-14.55-27.39-21.72l-4.52-3.44c-1.48-1.16-3-2.32-4.48-3.58-4.73-3.89-9.4-7.83-14.06-11.77l-7-5.9c-2.34-2-4.7-3.9-7-5.92-1.52-1.31-3.88-3.08-5.56-4.52l-8.51-7.42c-5-4.28-9.86-8.36-14.53-12.44l-13.57-12.09L4201.24,527c-4.3-3.94-8.5-7.94-12.76-11.93q-5.1-4.79-10.16-9.53c-3.38-3.17-6.76-6.3-10-9.55l-19.65-19.31c-4.22-4.07-8.27-8.46-12.35-12.76s-8.06-8.61-11.88-12.76c-6.27-6.09-12.2-12.77-18.12-19.3l-8.73-9.75-4.28-4.78-4.08-4.76c-7-8.22-14.93-16.68-22-25.66-1.57-1.3-4-4.5-5.65-6.47l-10.3-12.4c-3.48-4.22-7-8.45-10.4-12.84l-20-25.44c-7.52-9.91-19.34-25.54-22.4-28.08,1.59,2.51,2.33,4,5.24,8.05,3.37,4.47,6.38,7.92,9.82,12.38,3,3.77,6.61,8.93,10.37,13.5,4.86,6.05,8.83,11.12,12.54,15.89s7.11,9.29,11.12,14c6.09,7.34,12.29,14.08,16.19,19.62,1.49,1.71,2.94,3.47,4.46,5.17l4.56,5.13,9.13,10.39,9.17,10.58c3.09,3.54,6.31,7,9.48,10.55l9.64,10.68c1.62,1.79,3.24,3.59,4.88,5.39l2.45,2.71,2.52,2.66q10.14,10.66,20.73,21.55l3.08,3.17,3.26,3.24,6.8,6.72,14,13.84c3.9,3.89,7.49,7,11.42,10.72l16.41,15.42,3.94,3.69,4,3.57,8,7.14,16.24,14.61,15.85,13.65,15,12.83L4273,590.11l9.11,7.72c3.09,2.58,6.16,5.24,9.38,7.76L4310.94,621c3.28,2.57,6.53,5.19,9.86,7.73l10,7.54,19.93,15c2.64,2,4.76,3.32,7,4.94,1.64,1.19,1.69,1.51,3.19,2.61,1.1.81,3.74,2.41,4.81,3.2,2.54,1.88,3.83,3.09,6.62,5.11q3.63,2.61,7.31,5.26c2.45,1.78,4.93,3.55,7.48,5.26l15.44,10.55c3.62,2.49,7.3,4.8,10.67,7.12,3.19,2.23,6.69,4.58,10.24,7l10.56,7.14c6.87,4.61,13.09,8.69,17.05,10.83C4451.25,719.29,4444.18,715.14,4440.25,711.93Z"/><path class="cls-5" d="M4440.85,711.63c-1.38-.94-2.66-1.78-3.59-2.32-8.82-6.52-17.46-12.56-25.81-18.93l-12.64-9.45-6.36-4.79c-2.14-1.6-4.28-3.22-6.38-4.92-7.93-6.32-16.3-13.21-24.75-19.91-2.31-1.79-5.45-4.16-7.72-6-8.46-7-17.06-14.2-25.7-21.54-8.51-7.51-17.12-15.08-25.81-22.51-2.92-2.44-5.58-4.73-8.46-7.31-4.45-4-8.84-8.09-13.23-12.16s-8.81-8.08-13.11-12.25c-1.43-1.35-3.66-3.18-5.24-4.67l-8-7.65-6.94-6.5-3.39-3.18-3.28-3.2-12.72-12.46c-4.16-4.08-8.28-8.06-12.31-12.1l-11.92-12.27q-4.77-4.92-9.5-9.8c-1.58-1.63-3.18-3.23-4.72-4.88l-4.61-5-18.35-19.79c-2-2.09-3.85-4.3-5.76-6.49l-5.7-6.61c-3.77-4.41-7.48-8.8-11-13-1.45-1.58-2.9-3.17-4.33-4.78l-4.2-4.95c-2.79-3.32-5.55-6.68-8.29-10-5.45-6.7-10.9-13.25-15.81-19.68-3.26-4.18-6.72-8.44-10.18-12.78q-2.61-3.25-5.19-6.59c-1.73-2.21-3.42-4.45-5-6.77-1.48-1.33-3.72-4.58-5.25-6.58l-9.52-12.59c-1.61-2.14-3.22-4.3-4.85-6.46s-3.15-4.39-4.73-6.59L4048,318.34c-6.93-10-17.82-25.84-20.72-28.45,1.45,2.53,2.1,4.07,4.77,8.11,3.1,4.52,5.9,8,9.08,12.54,1.35,1.92,2.88,4.16,4.5,6.52l2.46,3.6q1.3,1.79,2.58,3.56c4.5,6.14,8.15,11.27,11.57,16.11,1.71,2.42,3.36,4.76,5,7.11.83,1.17,1.65,2.37,2.53,3.54l2.68,3.57c5.64,7.46,11.41,14.33,15,19.93,1.37,1.76,2.74,3.51,4.11,5.28s2.81,3.48,4.23,5.23l8.46,10.58c5.66,7.12,11.27,14.4,17.26,21.55s11.9,14.54,18.06,21.91,12.7,14.61,19.29,22c1.89,2.1,3.81,4.36,5.88,6.6l6.34,6.89,13.1,14.18c1.85,2,3.57,3.79,5.29,5.6s3.51,3.55,5.35,5.46c10.75,11.06,20.12,20.95,30.22,30.71l15.23,15c2.47,2.49,5,4.83,7.49,7.19l7.36,6.94,14.11,13.25c4.59,4.22,9.13,8.16,13.43,12,5.64,5.26,11.41,10.66,17.35,16l18.32,16q4.63,4,9.28,8l9.48,7.84L4356,648.33c2.45,2.08,4.49,3.48,6.58,5.17,1.55,1.24,1.58,1.56,3,2.7,1,.84,3.56,2.52,4.56,3.34,2.41,2,3.61,3.2,6.26,5.3q3.43,2.71,6.92,5.47c2.33,1.83,4.65,3.71,7.07,5.49l14.66,11c3.44,2.59,6.93,5,10.14,7.43l4.71,3.58c1.64,1.2,3.31,2.44,5,3.69l10,7.44c6.51,4.81,12.43,9.07,16.21,11.33C4451.29,719.31,4444.56,715,4440.85,711.63Z"/><path class="cls-5" d="M4465.07,707.73c-1.25-1.45-2.41-2.78-3.27-3.67-15.52-19.82-29.69-38.25-43.91-58.65-3.29-4.8-6.68-9.78-10.08-14.86l-10.14-15.49c-1.89-2.79-4.42-6.52-6.26-9.35-13.65-21.18-26.85-44-39.73-66.93-2.2-3.77-4.21-7.28-6.36-11.16-3.3-6-6.54-12.11-9.62-18.25s-6.29-12.21-9.33-18.38c-1-2-2.68-4.89-3.8-7.11-1.93-3.81-3.72-7.5-5.59-11.41l-4.78-9.82c-1.58-3.22-3.14-6.39-4.6-9.55-3-6.32-5.88-12.45-8.66-18.53l-8.13-18.08-7.75-18.06c-2.06-4.83-4-9.68-6-14.49q-1.48-3.62-3-7.21c-1-2.4-1.92-4.83-2.88-7.23q-2.83-7.25-5.68-14.44t-5.42-14.51c-2.35-6.16-4.5-12.53-6.67-18.83-1.06-3.16-2.16-6.29-3.16-9.42l-2.93-9.24c-3.38-9.22-6.36-18.82-9.3-28.3-1.46-4.73-2.78-9.48-4.14-14.14s-2.7-9.23-3.91-13.72c-1.61-5.87-3.44-11.9-5.12-18.06s-3.31-12.42-4.75-18.7c-.91-2.09-1.84-6.51-2.56-9.32-5.86-22.9-11.3-48.62-15.83-71.41-1.32-6.88-3-15.73-4.48-23.4s-2.77-14.14-3.59-16.21c.33,3.33.31,5.24,1.16,10.75.53,3.1,1.08,5.91,1.65,8.72s1.23,5.6,1.84,8.71c1.06,5.29,2.25,12.3,3.66,18.81.87,4.28,1.67,8.19,2.43,11.87s1.5,7.11,2.2,10.44,1.38,6.54,2.06,9.78,1.47,6.48,2.26,9.88c1.25,5.22,2.49,10.33,3.74,15s2.31,9.05,3,12.81c10.74,39.4,22,80.41,37.61,123.3,4.44,12.21,9.76,26.68,15.21,40.31,2.23,5.78,4.41,10.66,6.71,16.31,1.68,4.09,3.26,8.09,4.92,12l4.9,11.4c3.16,7.5,6.5,14.72,9.76,22.09,13.7,30.41,27.55,58.48,40.24,81.62,16.08,31.61,35.9,65,56,96.21,2,3.13,3.63,5.43,5.33,8,1.25,1.9,1.2,2.24,2.34,4,.84,1.29,3,4,3.77,5.29,1.94,3,2.82,4.77,5,8,3.81,5.51,7.65,11.13,11.66,16.76l12.35,17.05,8.81,11.44,4.06,5.46,4.33,5.67,8.71,11.41c5.78,7.28,11.1,13.77,14.57,17.44C4474.38,719.34,4468.25,712.46,4465.07,707.73Z"/><path class="cls-5" d="M4464.33,707.94c-1.34-1.42-2.58-2.71-3.49-3.58-16.71-19.44-32-37.52-47.38-57.6l-10.94-14.66-11-15.29c-1-1.39-2.23-3-3.44-4.58s-2.38-3.23-3.37-4.64c-3.66-5.25-7.43-10.54-11.06-16l-10.92-16.48L4352,558.29c-3.6-5.63-7.06-11.36-10.64-17l-3.52-5.48c-1.14-1.82-2.28-3.65-3.44-5.59-7.27-12-14-24.24-20.83-36.45-1.11-2-2.91-4.86-4.14-7.08l-6.18-11.37c-14.38-26.48-26.09-49.74-37.34-74-8.94-19.4-17.53-38.58-25.39-58.07-1.26-3.1-2.55-6.24-3.79-9.4s-2.41-6.37-3.62-9.54-2.36-6.34-3.53-9.47-2.21-6.26-3.27-9.31c-7.42-18.58-13.65-38.58-19.34-56.63l-5.71-18.23c-1.84-6.23-3.67-12.56-5.3-18.91-1-2.1-2-6.59-2.84-9.43-6.53-23.15-12.65-49.21-17.66-72.33-1.47-7-3.35-15.95-5-23.73s-3-14.35-3.89-16.44c.38,3.38.41,5.32,1.36,10.91.58,3.16,1.19,6,1.81,8.86s1.35,5.68,2,8.83c1.16,5.36,2.51,12.48,4.07,19.08,1,4.34,1.86,8.31,2.7,12s1.68,7.21,2.47,10.58,1.54,6.63,2.3,9.92,1.66,6.56,2.53,10c2.65,10.6,6,20.56,7.5,28.17,1.44,5,3,10,4.52,15q1.14,3.78,2.26,7.57t2.37,7.59q2.37,7.62,4.76,15.32t5,15.46c6.87,20.7,14.29,41.87,22.95,63.41l8,19.73c2.82,6.89,5.89,13.91,8.84,20.77,2.5,5.79,4.9,10.67,7.41,16.35l2.73,6.08c.9,2,1.84,4,2.74,5.9l5.38,11.43c1.74,3.76,3.57,7.42,5.37,11.09l5.4,11c15.09,30.43,30.4,58.38,44.23,81.41,17.78,31.41,39.33,64.51,61.19,95.37,2.15,3.08,4,5.33,5.79,7.88,1.36,1.88,1.33,2.23,2.57,4,.91,1.26,3.19,4,4.06,5.21,2.09,3,3.13,4.69,5.51,7.84l6.23,8.23c2.1,2.75,4.19,5.55,6.4,8.29,4.39,5.49,8.79,11.12,13.35,16.76l9.48,11.24c1.41,1.72,2.88,3.52,4.39,5.35L4449,692l9.38,11.21c6.24,7.13,11.93,13.48,15.63,17.06C4474.33,719.32,4467.79,712.6,4464.33,707.94Z"/><path class="cls-6" d="M4175.69,41.88C4187.1,55.1,4194,71.39,4199,88.27a14,14,0,0,1-11.83,17.82l-14.31,1.72a14,14,0,0,1-13.93-7.1c-12.91-23.3-48.37-74.31-95.18-79.21l1.21-13.17,42.87-2.49s24.55,6.25,39.56,12.89S4175.69,41.88,4175.69,41.88Z"/><path class="cls-16" d="M4190.85,96.52a2,2,0,0,0-.24-.66,16.24,16.24,0,0,0-.14-2.53c-.09-.82-.18-1.64-.31-2.45-.33-1.61-.61-3.21-.9-4.87s-.4-3.25-.81-4.88c-.12-.44-.46-1-.58-1.42-.23-.82-.43-1.66-.62-2.51s-.43-1.69-.64-2.55a32.5,32.5,0,0,0-1.59-5.08c-.23-.55-.58-1-.79-1.57-.63-1.75-1.11-3.55-1.85-5.27-.12-.28-.49-.61-.63-.92-.24-.52-.38-1.07-.64-1.59l-2.72-5-2.76-4.55a38.19,38.19,0,0,0-2.32-3.52c-.81-1.14-1.6-2.28-2.38-3.43a33.88,33.88,0,0,1-2.87-4.5,31.56,31.56,0,0,1-2.62-3c-.81-1.07-1.56-2.18-2.32-3.18-1.06-1.26-2.54-2.28-3.44-3.84-.48,0-.78-.51-1.07-.78-.55-.58-1.18-1.11-1.8-1.66l-1.87-1.7-1.86-1.68a17.15,17.15,0,0,0-1.95-1.44c-1.58-1.06-4.06-2.75-5-2.32a3.17,3.17,0,0,0,.81,1.37,23.93,23.93,0,0,0,2.16,1c.62.37,1.36,1,2.11,1.45l.7.47.59.51c.37.33.72.65,1.05,1,.65.63,1.25,1.23,2,1.84.54.47,1.14.84,1.67,1.23a3.09,3.09,0,0,1,1.07,1.42A31.26,31.26,0,0,1,4164,36c.86,1.15,1.78,2.26,2.63,3.46s1.7,2.42,2.66,3.6c1.14,1.31,2.13,3.12,3.28,4.71.48.67,1,1.2,1.43,1.88,1.19,2,2.32,3.81,3.42,5.67l2.93,5.74c.85,1.86,1.68,3.61,2.54,5.17,1.21,4.63,3.21,9.43,4.34,14.3.12.48.31.82.41,1.23s-.15.38-.11.66.37.6.39.8c.06.48-.11.78,0,1.29.19.88.39,1.77.58,2.67l.5,2.77c.11.66.41,1.28.45,1.89.11,1.17.11,2.55.1,3.79a6,6,0,0,0,.4,3C4190.81,98.56,4190.36,97.31,4190.85,96.52Z"/><path class="cls-17" d="M4175.69,41.88c-17.88-20.71-45.85-31.75-73.18-30.61S4055,21.48,4033.27,46.78c-22.93,26.72-30.42,60-35,87-5.13,30-.88,57.34,7.43,86.65,6.24,22,13.84,36.44,22.56,54a16.06,16.06,0,0,1-11.29,22.87l-19.05,3.76a16,16,0,0,1-15.83-5.95c-23.57-30.74-47.13-65.31-55.89-102.42-9.29-39.38-1.2-88,20.2-122.33S4008.09,12,4047.53,3s91.79,3.22,116.57,27.3"/><path class="cls-9" d="M4012.36,269.86c-.56-1-1.09-1.93-1.51-2.54-3.26-6.84-6.42-13.39-9.25-20.06a197,197,0,0,1-7.52-20.58c-2-6.71-3.73-14-5.39-21.24-.43-2-1.22-4.58-1.63-6.56a193.8,193.8,0,0,1-3.82-46.4c.05-2.62.11-5,.31-7.69.7-8.24,2.51-16.29,4.08-24.41.28-1.33.46-3.32.77-4.78.55-2.51,1.12-4.9,1.74-7.43,4.07-17.28,9.15-31.92,16.8-45.75l2.34-4.09,2.52-4c.42-.66.82-1.33,1.27-2l1.35-1.91c.92-1.26,1.78-2.57,2.74-3.79a154.5,154.5,0,0,1,12.25-14,90.94,90.94,0,0,1,18.72-14.58,66.3,66.3,0,0,1,16-7.84,87.7,87.7,0,0,1,16.94-3.73c7.21-.9,15.06-1.69,22.71-.66a25,25,0,0,1,5.77.38,94.42,94.42,0,0,1,21.27,5.32,102.19,102.19,0,0,1,30.76,18.35c3.54,3,6.31,5.88,7.56,6.54-.59-.82-1-1.5-1.58-2.29-.28-.39-.6-.81-1-1.3l-.64-.77-.81-.84a76.1,76.1,0,0,0-8.38-6.8,96.34,96.34,0,0,0-9.61-6.45c-9.2-5.19-15.67-7.92-23.79-10.23-1.57-.39-3.12-.83-4.66-1.11l-4.5-.83c-2.92-.38-5.57-.86-7.85-1.28a120.55,120.55,0,0,0-18.71.1,106.06,106.06,0,0,0-18.91,3.15,79.64,79.64,0,0,0-18.32,7.41,88.7,88.7,0,0,0-16.49,12,143.85,143.85,0,0,0-17.67,19.13c-2.18,3-4,5.7-6,8.83A141.76,141.76,0,0,0,3997,81.84c-7.13,18.84-10.75,37.45-12.94,53.16a146.79,146.79,0,0,0-2,33,209.11,209.11,0,0,0,4.64,33.57c.47,2.17.91,3.82,1.35,5.62.32,1.34.13,1.54.41,2.78.18.9,1,2.86,1.17,3.73.49,2.09.56,3.29,1.19,5.55a217,217,0,0,0,7.87,23.7c1.09,2.78,2.37,5.43,3.49,8,4.16,9.67,10,22.54,13.32,27.65C4016.25,277.94,4013.41,273.16,4012.36,269.86Z"/><path class="cls-9" d="M3954.12,250.65a.78.78,0,0,0,.36-.19c1.68.39,3.29.1,5,.25.79,0,1.63.28,2.47.3.23,0,.54-.2.77-.21,1.7-.06,3.51.35,5.29.08.29-.06.55-.24.85-.28.93-.1,1.89.11,2.81,0,.16,0,.36-.25.52-.28s.57,0,.86-.07c2-.41,3.64-.94,5.36-1.37,1.38-.31,2.69-.84,4-1.21a9.24,9.24,0,0,1,2.67-.35c1.15-.8,2.61-.73,3.84-1a6.85,6.85,0,0,1,2.51-.66c0-.41.35-.36.53-.44,1.47-.62,3.22-1.08,4.61-1.83.83-.48,2.14-1.2,2-2.15-.31-.11-.57-.35-.94-.25s-.53.63-.88.89a11.61,11.61,0,0,1-1.13.6,18.75,18.75,0,0,1-2.67,1c-.67.26-1.14.93-1.81.62-2.34,1.54-5.36,1.48-8.2,2.49-.81.32-1.82.49-2.75.8-.39.13-.71.34-1.1.44-1.16.25-2.16.59-3.21.82-2.18.49-4.26.71-6,1.23-2.41-.25-5,.12-7.47.1-.25,0-.44.11-.65.09s-.16-.24-.3-.26-.34.22-.44.2-.36-.27-.62-.28c-.9,0-1.82,0-2.78,0-.33,0-.67.15-1,.13-1.18-.07-2.65-1-3.41-.26C3953.13,250.44,3953.8,250.1,3954.12,250.65Z"/><path class="cls-9" d="M3927.52,187a1,1,0,0,0,.43-.14c1.93.6,3.82.5,5.76.86.91.15,1.87.48,2.85.61.26,0,.64-.13.91-.11,2,.14,4.05.78,6.15.73.35,0,.68-.17,1-.17,1.1,0,2.18.35,3.28.33.18,0,.44-.2.64-.21s.66.06,1,0c2.35-.16,4.37-.48,6.44-.7,1.66-.14,3.26-.52,4.88-.71a11.86,11.86,0,0,1,3.15,0c1.47-.66,3.15-.42,4.63-.59a9.25,9.25,0,0,1,3-.35c.09-.41.48-.32.7-.38,1.82-.46,3.91-.71,5.67-1.31,1.05-.38,2.71-1,2.75-1.94-.32-.14-.56-.41-1-.36s-.76.58-1.21.8-.93.3-1.43.48a24,24,0,0,1-3.29.71c-.82.18-1.51.81-2.21.41-3,1.27-6.48.86-10,1.53-1,.22-2.21.25-3.34.45-.48.08-.89.27-1.36.31-1.39.1-2.61.33-3.87.42-2.62.22-5.08.19-7.17.48-2.78-.54-5.82-.5-8.74-.83-.29,0-.52.05-.76,0s-.17-.26-.33-.3-.42.18-.53.15c-.28-.07-.4-.32-.7-.36-1.05-.14-2.14-.21-3.25-.37-.38-.06-.79.06-1.15,0-1.37-.21-3-1.29-4-.68C3926.38,186.66,3927.18,186.4,3927.52,187Z"/><path class="cls-9" d="M3930.05,117.25a1,1,0,0,0,.32-.33c2-.42,3.79-1.23,5.8-1.65.94-.17,2-.19,3-.4.27-.05.6-.31.87-.37a21.39,21.39,0,0,1,3.14-.38,20.23,20.23,0,0,0,3.21-.37c.36-.07.67-.26,1-.31,1.12-.14,2.27,0,3.39-.08.19,0,.44-.24.65-.26s.69,0,1,0c2.42-.29,4.52-.61,6.69-.67,1.73-.09,3.44-.16,5.15-.16a13.6,13.6,0,0,1,3.24.58,12.78,12.78,0,0,1,4.79.71c1,.23,2.09,0,3.06.69.25-.35.58-.11.82-.07,1.94.24,4,1,5.88,1.28,1.13.21,2.91.57,3.5-.24-.21-.29-.28-.64-.71-.83a10,10,0,0,0-1.54.06c-.46,0-1-.25-1.57-.32a32.36,32.36,0,0,1-3.46-.86c-.88-.16-1.8.15-2.34-.49-3.43.05-6.82-1.43-10.65-1.37-1.09,0-2.37-.09-3.6-.05-.51,0-1,.14-1.47.15-1.47,0-2.77.13-4.11.24a42,42,0,0,0-7.5.92c-3-.2-6.13.55-9.15,1.1-.3,0-.52.18-.77.24s-.25-.19-.42-.17-.36.32-.48.32c-.3,0-.51-.16-.82-.09a34.37,34.37,0,0,0-3.33.89c-.4.11-.74.38-1.11.48-1.39.38-3.46.28-4,1.24C3928.85,117.5,3929.45,116.89,3930.05,117.25Z"/><path class="cls-9" d="M3957.72,58.62a1,1,0,0,0,.29-.35c1.95-.54,3.59-1.49,5.51-2.06.9-.25,1.92-.34,2.87-.64.26-.07.55-.35.81-.43,1.93-.64,4.1-.68,6.11-1.33.34-.1.62-.33,1-.41,1.08-.25,2.21-.24,3.3-.43.17,0,.4-.28.59-.33.34-.07.67-.06,1-.14,2.32-.55,4.31-1.11,6.41-1.43,1.67-.29,3.31-.59,5-.79a98.43,98.43,0,0,0,7.94.18c1,.09,2-.25,3.06.23.19-.38.55-.19.78-.2,1.9-.05,4,.36,5.87.35,1.12,0,2.89.08,3.33-.81-.25-.25-.37-.59-.82-.7s-.95.27-1.47.31-1-.08-1.55-.06a30,30,0,0,1-3.47-.3c-.87,0-1.72.42-2.32-.13-3.31.57-6.78-.41-10.48.14-1,.13-2.29.21-3.47.41-.5.09-.92.25-1.41.33-1.42.21-2.67.46-4,.72a42.8,42.8,0,0,0-7.16,1.72c-2.91.1-5.9,1.13-8.79,1.94-.29.07-.48.23-.72.3s-.26-.17-.43-.14-.32.35-.44.37c-.29.05-.5-.12-.81,0-1,.29-2.08.73-3.15,1.14-.38.14-.7.43-1,.56-1.32.48-3.34.51-3.83,1.5C3956.56,59,3957.11,58.3,3957.72,58.62Z"/><path class="cls-9" d="M4006.27,20.51a.6.6,0,0,0,.19-.3c1.43-.34,2.62-1.08,4-1.43.67-.15,1.42-.13,2.12-.32.19,0,.4-.28.59-.34,1.43-.4,3-.19,4.51-.6.24-.06.46-.25.71-.29.8-.12,1.62,0,2.42,0,.13,0,.3-.23.45-.25s.49,0,.74,0a40.91,40.91,0,0,1,4.74-.62c1.24-.08,2.46-.16,3.68-.16a6.82,6.82,0,0,1,2.29.57,6.52,6.52,0,0,1,3.38.66c.68.22,1.5,0,2.14.64.21-.34.43-.11.6-.08,1.37.21,2.77.9,4.11,1.15.8.18,2.05.49,2.59-.31-.11-.27-.12-.62-.41-.79s-.76.11-1.14.08-.71-.22-1.11-.28a16,16,0,0,1-2.44-.78c-.63-.14-1.32.17-1.65-.46-2.49.11-4.83-1.32-7.6-1.26-.78,0-1.7-.09-2.58,0-.37,0-.7.13-1.06.14-1.06,0-2,.12-2.94.23a21.68,21.68,0,0,0-5.34.83c-2.15-.25-4.38.43-6.53.89-.21.05-.35.18-.53.22s-.2-.19-.32-.18-.23.31-.32.31-.39-.17-.61-.12a20.8,20.8,0,0,0-2.34.79c-.28.09-.5.35-.76.44-1,.32-2.52.16-2.81,1.07C4005.42,20.71,4005.78,20.14,4006.27,20.51Z"/><path class="cls-9" d="M4074.77,1.1a.58.58,0,0,0,.16-.18c.45.35,1,.15,1.51.37.22.1.4.38.65.47.07,0,.22-.14.29-.12.52.1.89.74,1.47.75.1,0,.23-.12.32-.1.28.07.47.42.74.51.05,0,.18-.15.23-.15s.15.12.24.13c.64.06,1.23,0,1.77.1s.91.06,1.33.15a1.13,1.13,0,0,1,.67.61c.53-.26.79.32,1.12.57s.57,0,.68.49c.16-.35.2-.15.26-.14.49.1.92.55,1.42.6.3,0,.77.1,1.15-.75,0-.24.07-.56,0-.67s-.33.24-.48.28-.26-.07-.4-.07c-.39,0-.54-.32-.82-.42s-.56.29-.54-.27c-1,.29-1.52-1-2.51-1-.28,0-.57-.18-.89-.2-.14,0-.29.09-.41.06-.36-.09-.71-.08-1.05-.14a4.92,4.92,0,0,0-1.95-.2c-.56-.69-1.41-.7-2.15-1-.07,0-.16,0-.22,0s0-.24,0-.27-.17.19-.2.16,0-.29-.1-.32a7.27,7.27,0,0,0-.86-.17c-.1,0-.25.11-.35.09-.35-.1-.59-.93-1-.27C4074.5.9,4074.82.57,4074.77,1.1Z"/><path class="cls-16" d="M4086.13,25.8a.71.71,0,0,0,.15-.37c1.5-.8,2.67-1.89,4.18-2.65.72-.33,1.55-.54,2.3-.89.21-.09.41-.39.61-.49,1.53-.78,3.37-.94,5-1.65.28-.12.49-.35.77-.45a9.28,9.28,0,0,1,1.37-.29,10.43,10.43,0,0,0,1.38-.21c.15,0,.32-.29.48-.34s.56-.08.84-.17c1-.26,1.87-.55,2.74-.81s1.75-.44,2.63-.62c1.41-.21,2.79-.6,4.2-.73a8,8,0,0,1,2.72.18c1.32-.48,2.75-.08,4,.05.83.07,1.72-.24,2.6.22.15-.38.46-.2.66-.21,1.61-.07,3.4.29,5,.22,1,0,2.46-.05,2.81-1-.22-.23-.34-.57-.72-.66s-.8.31-1.23.37-.86,0-1.32,0a21.12,21.12,0,0,1-2.94-.21c-.74,0-1.45.44-2-.11-2.8.58-5.75-.38-8.89.12-.89.15-2,.15-3,.37-.42.09-.77.26-1.19.32-1.21.16-2.26.48-3.35.7s-2.2.5-3.22.77a17.33,17.33,0,0,0-2.78,1,23.26,23.26,0,0,0-7.25,2.4c-.23.1-.37.26-.56.34s-.26-.13-.4-.09-.2.37-.3.4-.46-.06-.7.05c-.42.21-.83.44-1.24.67l-1.22.79c-.29.18-.49.51-.76.67-1,.62-2.74,1-2.88,2C4085.24,26.27,4085.52,25.59,4086.13,25.8Z"/><path class="cls-16" d="M4167.42,48.1a.57.57,0,0,0-.21.25c-1.26-.07-2.35.46-3.56.57-.57.07-1.21,0-1.81,0-.17,0-.35.26-.51.3-1.21.29-2.58.07-3.81.51-.2.08-.36.29-.57.35-.65.18-1.38.06-2,.24-.11,0-.22.27-.33.31s-.42,0-.62.12c-1.36.53-2.49,1.13-3.69,1.6-1,.36-1.85.89-2.78,1.26a4.85,4.85,0,0,1-1.94.35c-.73.75-1.84.69-2.73.94-.58.17-1,.69-1.8.55.06.4-.22.33-.35.4-1,.54-2.3.87-3.26,1.5-.58.39-1.49,1-1.23,1.89.26.12.5.37.77.3s.32-.56.55-.78.52-.3.79-.49a10,10,0,0,1,1.91-.82c.47-.21.73-.84,1.29-.51,1.55-1.38,3.84-1.25,5.79-2.26.56-.3,1.28-.49,1.92-.81a8.27,8.27,0,0,1,.75-.45c.8-.29,1.48-.65,2.22-.92a34.49,34.49,0,0,0,4.15-1.59,27.55,27.55,0,0,0,5.35-.89c.18,0,.3-.15.45-.16s.16.21.26.21.2-.27.28-.26.3.22.49.19c.64-.09,1.29-.28,2-.39.23,0,.45-.25.67-.29.84-.12,2,.48,2.46-.34C4168.16,48.13,4167.75,48.59,4167.42,48.1Z"/><g class="cls-28"><path class="cls-7" d="M3988.77,222.18c-12.1-34.58-24.3-69.62-27.4-106.12-2.14-25.1.48-51.26,9.72-74.48a131,131,0,0,0-24.72,28.77c-21.4,34.34-29.49,83-20.2,122.33,8.76,37.11,32.32,71.68,55.89,102.42a16,16,0,0,0,15.83,5.95l19.05-3.76a16.05,16.05,0,0,0,12.95-15.4c-1.89-1-3.78-2.06-5.58-3.18C4005,266.69,3996.27,243.62,3988.77,222.18Z"/></g><rect class="cls-12" x="4851.27" y="641.31" width="124.21" height="3.4" rx="1.58"/><rect class="cls-12" x="4836.04" y="648.92" width="124.21" height="3.4" rx="1.58"/><g class="cls-29"><circle class="cls-30" cx="4841.27" cy="661.12" r="2.54"/><circle class="cls-31" cx="4873" cy="654.69" r="2.54"/><circle class="cls-32" cx="4908.55" cy="651.71" r="2.54"/><circle class="cls-32" cx="4938.36" cy="651.09" r="2.54"/><circle class="cls-32" cx="4968.39" cy="652.36" r="2.54"/><circle class="cls-31" cx="4997.65" cy="656.15" r="2.54"/><circle class="cls-30" cx="4807.37" cy="670.08" r="2.54"/><circle class="cls-33" cx="4779.15" cy="681.93" r="2.54"/></g><path class="cls-34" d="M4551.22,720c4.1-.64,15.28-2.49,19.38-3.13,27.31-4.22,54.61,1.34,81.92-2.88,24-3.71,48.1-3.16,72.24-5.72,2.06-.22,6.66-.74,8.34-2.26s3-4.39-1.16-6.51c-8.61-2.8-17.28-2.63-26-3.91a6.42,6.42,0,0,1-2.75-.86,3.46,3.46,0,0,1-1.51-2.83,4,4,0,0,1,3.63-3.65c20.43-1.79,39.81-1.38,60.2-1.56l32.85-.3c9.75-.09,19.52-.39,29.25.62,9.09.94,18.07,3.09,27.13,4.42,9.34,1.38,19.15.34,28.57.27,15-.13,30,.56,44.6-3.13,1.3-.33,2.8-.91,3.25-2.48.66-2.3-2.68-3.61-3.68-4-3.33-1.18-5.38-1.12-8.59-1.49-2-.23-6.07.28-8-.52a5.24,5.24,0,0,1-2.92-5.83,5.39,5.39,0,0,1,2.61-3.16c3-1.81,6.48-1.88,9.81-1.92,38-.47,75.8-4.14,113.9-2.35,5.87.28,12.09.78,16.86,5.06,5.68,5.09,7.94,14.58,7.42,23.29s-3.37,16.91-6.19,24.91"/><path class="cls-9" d="M1700.81,673.49a.89.89,0,0,0,.4.2c.89,1.74,2.27,3,3.36,4.53.53.72,1,1.6,1.56,2.36.16.2.54.33.72.53.66.7,1.21,1.54,1.83,2.34a16.66,16.66,0,0,0,2,2.27c.26.22.6.33.85.56.77.72,1.31,1.69,2.12,2.39.12.11.45.13.6.26s.44.47.7.68c1.8,1.41,3.48,2.47,5.13,3.62,1.29,1,2.72,1.67,4,2.55a11.24,11.24,0,0,1,2.35,2c1.51.4,2.61,1.64,3.82,2.41a9.12,9.12,0,0,1,2.49,1.57c.32-.26.56,0,.76.14,1.65.75,3.4,1.8,5.1,2.38,1,.32,2.66.85,3.27.1-.16-.31-.18-.67-.54-.89s-.93,0-1.41-.08a13.18,13.18,0,0,1-1.37-.47,21.2,21.2,0,0,1-2.93-1.41c-.73-.36-1.64-.29-1.92-1-3-.85-5.38-3.3-8.36-5-.88-.45-1.79-1.19-2.75-1.75-.4-.25-.82-.36-1.19-.63-1.07-.81-2.11-1.4-3.08-2.15-2-1.51-3.78-3.13-5.47-4.28-1.62-2.21-3.79-4.2-5.6-6.37-.18-.22-.4-.32-.54-.51s.07-.3,0-.44-.42-.15-.48-.25,0-.49-.23-.73c-.63-.79-1.33-1.58-2-2.45-.23-.29-.59-.49-.8-.77-.79-1.09-1.15-3-2.23-3.19C1700.26,672.48,1701,672.85,1700.81,673.49Z"/></g></g></g></svg>