<svg xmlns="http://www.w3.org/2000/svg" viewBox="0 0 2100 720"><defs><style>.cls-1{fill:#092b4d;}.cls-2{fill:#1c406b;fill-rule:evenodd;}</style></defs><g id="Layer_1" data-name="Layer 1"><path class="cls-1" d="M1017.59,183.66c28.68-2.37,49.72,27.66,57.65,74.69,30.94-71.86,77.11-117.67,113.25-107.29,37,10.62,51.63,76.61,38.2,156.32,10.92-5.13,21.47-6.11,30.88-2.14,34.79,14.69,40.86,91.55,13.55,171.66-19.85,58.23-51.86,102.14-81.23,116.15-33.24,51-90.75,77.88-144.82,62.35-55.93-16.07-90.92-72.51-89.66-136C923,503.85,905.84,439.3,916,359.87,928,266.2,973.47,187.31,1017.59,183.66Z"/><path class="cls-2" d="M1060.84,436.18a8.33,8.33,0,0,0,.91-1.14,103.53,103.53,0,0,0,7.81-7.35c1.23-1.26,2.45-2.52,3.69-3.78s2.52-2.51,3.74-3.85c2.33-2.47,5-5,7.42-7.64.65-.73,1.35-1.87,2-2.63,1.18-1.4,2.4-2.81,3.64-4.21s2.55-2.78,3.73-4.27c2.42-2.94,4.87-5.9,7.15-9,.73-1.05,1.29-2.11,2-3.16,1.16-1.64,2.39-3.23,3.62-4.82.6-.79,1.24-1.57,1.82-2.39s1.14-1.65,1.69-2.49c.37-.55.73-1.47,1.12-2.08.68-1.05,1.4-2,2.08-3.07.58-.91,1.15-1.81,1.72-2.69l1.54-2.68c1-1.76,2-3.48,3-5.17,2-3.35,3.66-6.75,5.5-10.1l2.15-4c.68-1.36,1.31-2.74,2-4.1q2-4.08,3.89-8.14c1.55-3.51,3.32-7.09,5.06-10.37.92-2.71,2-5.44,3.15-8.08.59-1.33,1.17-2.64,1.75-3.93s1-2.6,1.53-3.87c.64-1.66,1.2-3.41,1.82-5.16s1.3-3.52,2-5.26A7.21,7.21,0,0,1,1149,298c2.07-6.57,4.26-13.92,5.81-20.53.8-4,2.1-10.31,1.46-11.72a12.23,12.23,0,0,0-1.29,2.93c-.38,1.79-.37,3.31-.68,5.13-.29,1.54-.72,3.56-1.18,5.44-1.19,4.93-2.23,8.11-3.35,12-.92,3-1.37,6-2.53,7.91-3.1,11.47-8.31,22.72-13.67,34.79-1.41,3.5-3.54,7.44-5.34,11.29-.79,1.62-1.3,3.1-2.16,4.65l-3.47,6.48c-1.1,2.1-2.16,4.15-3.39,6.15-2.49,4.16-4.78,8.26-7.27,11.94s-4.59,7.32-6.76,10.49c-1.61,2-3.21,4.12-4.81,6.26s-3.35,4.21-5,6.37c-3.29,4.35-6.92,8.51-10.42,12.62-.7.82-1.15,1.52-1.78,2.16-.45.48-.68.38-1.1.82s-.82,1.22-1.13,1.53c-.73.73-1.29,1-2.06,1.82l-4,4.37-4.3,4.35c-1,1-1.9,2.14-2.84,3.09l-1.43,1.38c-.5.45-1,.9-1.57,1.35l-3.19,2.69a27.72,27.72,0,0,0-4.67,4.69C1057.55,439,1059.27,436.91,1060.84,436.18Z"/><path class="cls-2" d="M1148.53,301.76a.72.72,0,0,0,.2-.36c1.68-.7,2.87-1.94,4.37-2.86.7-.45,1.54-.79,2.27-1.3.19-.15.32-.5.51-.66a25,25,0,0,1,2.25-1.58,13.62,13.62,0,0,0,2.18-1.77c.21-.23.31-.55.53-.77.69-.7,1.62-1.15,2.29-1.88.11-.11.13-.43.24-.56s.46-.39.66-.63c1.34-1.64,2.34-3.18,3.42-4.69.9-1.18,1.56-2.51,2.38-3.7a9.4,9.4,0,0,1,1.83-2.15c.35-1.42,1.52-2.41,2.24-3.53a7.87,7.87,0,0,1,1.44-2.31c-.27-.31,0-.52.1-.71a51.66,51.66,0,0,0,2.13-4.76c.26-1,.7-2.48-.08-3.05-.3.15-.65.17-.85.51s.06.86,0,1.31-.27.83-.4,1.28a17.87,17.87,0,0,1-1.26,2.72c-.31.67-.2,1.52-.91,1.77-.71,2.85-3,5-4.56,7.72-.42.81-1.11,1.63-1.63,2.51-.23.37-.32.76-.58,1.1-.76,1-1.31,1.94-2,2.82-1.43,1.85-3,3.41-4.06,4.95-2.11,1.4-4,3.33-6.1,4.91-.2.16-.3.36-.48.48s-.29-.09-.42,0-.15.39-.24.44-.48,0-.7.16c-.39.26-.76.55-1.15.85l-1.2.85c-.29.19-.49.53-.76.71-1,.67-2.82.82-3.07,1.86C1147.56,302.2,1147.93,301.51,1148.53,301.76Z"/><path class="cls-2" d="M973.15,468.8a7.64,7.64,0,0,0,.29-1.3c2.8-6.14,4.68-12.08,7.12-18.27,1.1-2.91,2.45-6,3.6-9.08.3-.85.51-2.06.8-2.91,1-3.2,2.32-6.41,3.5-9.7s2.33-6.61,3.33-10c.31-1.12.47-2.21.8-3.34,1-3.54,2.42-7,3.39-10.52.16-.58.2-1.49.38-2.13.29-1.1.66-2.14,1-3.26,2-7.68,3.43-14.36,5-21.22.31-1.37.61-2.73.92-4.09l.81-4.08c.55-2.72,1.09-5.42,1.63-8.12.66-3.46,1.52-7,2.42-10.31a78,78,0,0,1,1.3-7.86c.56-2.6,1.15-5.15,1.59-7.6.58-3.21.88-6.68,1.79-10a6.07,6.07,0,0,1,.14-2.59c.85-6.27,1.94-13.22,2.53-19.41.29-3.74.79-9.62,0-10.85a10,10,0,0,0-.91,2.8c-.16,1.67,0,3.07,0,4.76-.08,1.44-.29,3.32-.46,5.09-.43,4.65-1,7.67-1.49,11.36-.4,2.83-.32,5.61-1.14,7.55-1,10.88-3.81,21.9-6,33.85-.56,3.42-1.54,7.41-2.29,11.25-.32,1.62-.47,3.05-.84,4.63-1.1,4.6-1.89,8.7-2.93,12.88-2.1,8.66-4.38,16.69-6.07,23.54q-1.2,3.34-2.33,6.86c-.77,2.33-1.55,4.7-2.34,7.08-1.5,4.78-3.15,9.56-4.78,14.25-.32.93-.47,1.68-.77,2.45-.21.57-.46.56-.67,1.07s-.24,1.34-.39,1.7c-.37.88-.76,1.3-1.13,2.27q-.9,2.52-1.85,5.12l-2,5.26c-.48,1.23-.78,2.51-1.23,3.66-1.7,4.36-4.8,9.84-5.11,12.63C971.52,472.44,972.09,470,973.15,468.8Z"/><path class="cls-2" d="M1119.7,361.64a.56.56,0,0,0-.29-.14c-.18-1.15-.81-2.08-1.05-3.21-.09-.53,0-1.13-.15-1.68,0-.15-.25-.32-.29-.47-.31-1.13,0-2.4-.35-3.56,0-.2-.23-.36-.26-.57-.09-.62.09-1.28.06-1.9,0-.11-.22-.24-.24-.36s0-.38,0-.58a31.91,31.91,0,0,1-.55-3.74c-.07-1-.18-1.94-.18-2.9a4.29,4.29,0,0,1,.52-1.8c-.29-1,.26-1.85.54-2.67.19-.54,0-1.19.54-1.68-.35-.18-.14-.35-.12-.48.14-1.08.73-2.19.88-3.25.12-.63.32-1.63-.5-2.1-.26.08-.6.07-.75.3s.18.62.17.93-.16.56-.19.88a10.22,10.22,0,0,1-.61,1.93c-.11.5.24,1.06-.36,1.31.23,2-1.1,3.81-1,6,0,.62-.06,1.35,0,2,0,.3.14.55.15.84,0,.84.12,1.57.21,2.33a15.84,15.84,0,0,0,.69,4.22c-.32,1.7.23,3.47.56,5.17,0,.17.15.28.17.42s-.2.16-.2.26.29.18.29.25-.2.31-.17.49a15.35,15.35,0,0,0,.59,1.86c.07.22.31.39.37.6.24.77-.08,2,.78,2.25C1119.81,362.32,1119.28,362.05,1119.7,361.64Z"/><path class="cls-2" d="M1010.87,323.53a.53.53,0,0,0-.25.16c-.85-.47-1.79-.47-2.64-.91-.39-.23-.72-.62-1.14-.83-.11-.06-.35,0-.47,0-.89-.4-1.46-1.37-2.37-1.79-.14-.08-.36,0-.5-.14a13.13,13.13,0,0,1-1.07-1.17c-.06-.05-.29,0-.37,0s-.2-.25-.34-.35a18,18,0,0,1-2.52-1.9c-.6-.55-1.2-1.1-1.74-1.7a3,3,0,0,1-.57-1.48c-.74-.43-.79-1.35-1-2-.12-.45-.65-.76-.43-1.4-.38.08-.28-.16-.34-.25-.44-.8-.49-1.85-.88-2.65-.21-.49-.51-1.27-1.46-1.23-.18.18-.48.34-.49.58s.45.35.6.57.13.49.27.72a8.39,8.39,0,0,1,.46,1.66c.16.4.74.6.37,1.09,1.22,1.21,1.11,3.22,2.43,4.59.35.4.7.92,1.13,1.33.19.17.42.26.59.43a16,16,0,0,0,1.48,1.32,10.06,10.06,0,0,0,3,2.08c.79,1.26,2.25,1.89,3.51,2.61.13.08.27.05.38.11s0,.25,0,.3.29-.12.33-.08.08.34.21.41a9.2,9.2,0,0,0,1.55.58c.18.07.43,0,.6,0,.63.24,1.31,1.18,1.91.58C1011.37,323.81,1010.91,324.09,1010.87,323.53Z"/><path class="cls-1" d="M392.56,102.37c-39.19-12.43-80.71,15.66-110.7,68.08C267.44,75.88,221.25,6.68,166.5,6.68c-56,0-103,72.37-116.3,170.24C37,167.24,22.62,162.54,7.86,164c-54.6,5.5-94,93.47-88,196.5,4.37,74.87,31.52,137.08,67,163.37,26,71,95.69,121.74,177.6,121.74,84.72,0,156.38-54.33,180.13-129.11,51.55-7.33,101.56-77.14,119.27-173.61C484.77,229.18,452.83,121.48,392.56,102.37Z"/><path class="cls-2" d="M276.54,471.66a7.39,7.39,0,0,0,.73-1.1c2.35-2.35,4.54-4.68,6.57-7.14l6.26-7.33c2-2.35,4.23-4.75,6.32-7.27.55-.69,1.12-1.76,1.66-2.47,2-2.66,4.21-5.25,6.32-8s4.2-5.5,6.15-8.37c.62-1,1.08-1.95,1.73-2.92,2-3,4.33-5.83,6.22-8.94.32-.51.61-1.36,1-1.92.59-1,1.23-1.83,1.82-2.81s1-1.66,1.49-2.47l1.36-2.45c.89-1.61,1.75-3.18,2.61-4.72,1.75-3.07,3.24-6.14,4.88-9.19q1-1.84,1.92-3.66l1.77-3.71q1.77-3.69,3.53-7.36c1.43-3.16,3.09-6.37,4.72-9.31a77.49,77.49,0,0,1,3-7.27c.56-1.18,1.12-2.36,1.66-3.52s1-2.32,1.5-3.45c.62-1.48,1.17-3.05,1.77-4.62s1.27-3.15,2-4.69c-.16-.69.4-1.75.64-2.48,2.07-5.88,4.39-12.42,6.07-18.32.92-3.58,2.4-9.22,1.81-10.55a9.89,9.89,0,0,0-1.37,2.57c-.43,1.6-.48,3-.84,4.61-.33,1.38-.83,3.18-1.32,4.86-1.27,4.42-2.37,7.24-3.53,10.71-.93,2.66-1.4,5.37-2.57,7.07-3.1,10.3-8.16,20.31-13.07,31.21-1.32,3.15-3.25,6.71-4.89,10.2-.7,1.47-1.17,2.8-1.94,4.21l-3.1,5.89c-1,1.91-1.93,3.77-3,5.6-2.19,3.8-4.23,7.53-6.39,10.92s-4,6.71-5.85,9.66c-1.41,1.87-2.8,3.8-4.19,5.78l-4.33,5.93c-2.83,4.05-5.91,8-8.89,11.85-.6.76-1,1.42-1.5,2-.39.46-.61.37-1,.78s-.65,1.17-.92,1.46c-.63.69-1.13.95-1.79,1.73l-3.39,4.16-3.62,4.19c-.85,1-1.57,2.06-2.37,3-1.49,1.75-3.52,3.54-5.24,5.28A22.65,22.65,0,0,0,273,473.9C273.77,474.45,275.14,472.39,276.54,471.66Z"/><path class="cls-2" d="M334.28,393.16a1.81,1.81,0,0,0,.61-.24,23.54,23.54,0,0,0,4.63-.26l4.56-.61c1.45-.21,3-.26,4.58-.51.42-.08.93-.41,1.35-.51,1.53-.41,3.15-.62,4.75-1a44.06,44.06,0,0,0,4.78-1.35c.51-.22.94-.55,1.46-.75,1.61-.65,3.36-.9,4.94-1.66.26-.11.56-.47.84-.6.49-.23,1-.37,1.48-.61l1.24-.61,1.16-.67,2.22-1.3c1.47-.81,2.8-1.78,4.2-2.64l1.65-1.06c.54-.37,1-.78,1.57-1.17l3.11-2.31a31,31,0,0,1,4.14-2.76,17.82,17.82,0,0,1,2.73-2.55l1.49-1.12c.48-.37.93-.77,1.37-1.16s1.09-1.11,1.65-1.68a12.52,12.52,0,0,1,1.86-1.6c-.09-.46.41-.77.64-1.05a75.73,75.73,0,0,0,5.82-7.15c.92-1.51,2.39-3.88,1.89-4.81-.42.23-.83.25-1.27.78s-.49,1.36-.86,2.07a22,22,0,0,1-1.29,2,47.81,47.81,0,0,1-3.35,4.13c-.87,1-1.37,2.26-2.4,2.61-3,4.16-7.49,7.11-11.83,10.66-1.19,1.09-2.83,2.07-4.27,3.18-.62.45-1.07,1-1.72,1.36-.93.58-1.8,1.14-2.65,1.69a28.3,28.3,0,0,1-2.55,1.58c-1.83,1-3.57,2-5.31,2.77s-3.32,1.65-4.82,2.34c-1.08.28-2.17.6-3.25.95l-3.34,1c-2.22.74-4.53,1.26-6.79,1.78-.44.1-.77.29-1.15.34s-.36-.19-.62-.16-.57.33-.76.34c-.44,0-.72-.15-1.2-.07-.82.12-1.65.29-2.5.44l-2.59.32c-.62.07-1.21.31-1.78.37a24.74,24.74,0,0,1-3.53-.08,5.13,5.13,0,0,0-2.82.4C332.4,393.11,333.56,392.66,334.28,393.16Z"/><path class="cls-2" d="M350.44,350.12a.9.9,0,0,0-.46,0c-.82-.61-1.71-1.05-2.51-1.62a16.74,16.74,0,0,1-2.43-1.72c-.69-.65-1.31-1.48-2.05-2.16-.2-.19-.58-.33-.78-.52a17.34,17.34,0,0,1-2-2.43,21.71,21.71,0,0,0-1.89-2.59c-.21-.28-.53-.47-.73-.77a24.12,24.12,0,0,1-1.54-3c-.09-.16-.4-.3-.5-.47s-.27-.63-.46-.93l-.47-.76-.4-.77-.79-1.48a21.7,21.7,0,0,1-1.32-3l-.47-1.21c-.15-.4-.27-.82-.41-1.22-.25-.82-.53-1.63-.74-2.46a13.52,13.52,0,0,1-.17-3.29,6.46,6.46,0,0,1-.31-2.43c0-.41,0-.82.06-1.22s.1-.79.15-1.17c.12-1-.25-2.08.33-3.1-.36-.21-.15-.56-.13-.8.06-1.94.8-4,1.1-5.85.26-1.11.7-2.85-.06-3.51-.3.19-.66.23-.87.66a13.67,13.67,0,0,0,0,1.57c-.05.46-.32,1-.38,1.57-.15,1.46-.62,2.35-.81,3.52-.1.9.27,1.8-.33,2.39,0,.87.09,1.74.07,2.62s-.15,1.76-.12,2.67,0,1.82,0,2.76a17.22,17.22,0,0,0,.43,2.81,31.59,31.59,0,0,0,.9,3.53c.17.5.38.91.56,1.39.25.7.51,1.35.77,2a19.4,19.4,0,0,0,.82,1.86,26.79,26.79,0,0,0,3.83,6.54c.3.68.65,1.36,1,2a20.35,20.35,0,0,0,1.36,1.88,41.87,41.87,0,0,0,3.14,3.5,6.48,6.48,0,0,0,.62.5c.14.13,0,.32.11.45s.47.1.56.2.16.5.4.72c.41.38.85.76,1.3,1.11l1.46,1c.34.24.77.33,1.08.55l1.86,1.47a2.45,2.45,0,0,0,1.79.7C351.42,350.83,350.58,350.8,350.44,350.12Z"/><path class="cls-2" d="M194.35,485.22a10.72,10.72,0,0,0-.69-1.52c-1.13-4.09-2.39-8-3.48-11.89S187.83,464,186.86,460c-.92-3.82-1.73-7.94-2.73-12-.26-1.1-.77-2.54-1-3.65-.93-4.14-1.83-8.39-2.6-12.72s-1.54-8.69-2.45-13c-.27-1.45-.66-2.76-.92-4.23-.77-4.58-1.37-9.16-2-13.76-.11-.75-.47-1.82-.6-2.65-.22-1.43-.34-2.81-.57-4.25-.2-1.23-.39-2.44-.58-3.63s-.33-2.38-.49-3.54c-.32-2.33-.64-4.6-.95-6.83-.67-4.46-1.09-8.81-1.55-13.22-.19-1.76-.37-3.51-.56-5.25L169.4,356c-.29-3.48-.61-6.94-.84-10.42-.22-4.44-.28-9.07-.22-13.35-.31-3.3-.33-6.69-.32-10,0-1.67,0-3.33.06-5s.11-3.24.16-4.81c.06-2.05,0-4.17,0-6.32a44.43,44.43,0,0,1,.36-6.5c-.36-.76-.13-2.28-.11-3.26.1-8,.93-16.79,1.3-24.62.31-4.7.84-12.12,0-13.66a15.4,15.4,0,0,0-.92,3.57c-.17,2.12,0,3.88-.07,6-.06,1.82-.36,4.2-.43,6.45-.19,5.9-.7,9.75-.92,14.45-.12,3.63.23,7.11-.39,9.66.31,13.78-.73,28.13.35,43.51.22,4.38.58,9.57,1,14.51.2,2.08.41,3.87.62,5.91.32,3,.61,5.78.89,8.51s.58,5.4,1,8.09c.75,5.58,1.31,11,2.16,16.09s1.5,9.91,2.47,14.26c.39,3,.83,6,1.3,9.06s1.13,6.14,1.73,9.25c1.15,6.23,2.68,12.45,4,18.57.27,1.21.57,2.13.82,3.13.18.75,0,.89.13,1.58.11.51.63,1.58.74,2.07.25,1.18.19,1.88.5,3.15.54,2.2,1.1,4.42,1.7,6.68l1.95,6.83c.45,1.6,1.06,3.14,1.48,4.64l2.46,9.22a36.63,36.63,0,0,0,2.53,7.24C195.71,490.05,194.41,487.2,194.35,485.22Z"/><path class="cls-2" d="M194.8,244.26a.7.7,0,0,0,.11.37c-.66,1.46-.87,3-1.53,4.42-.32.67-.84,1.31-1.16,2-.09.2-.05.54-.14.73a12.08,12.08,0,0,1-1.26,2.12,12,12,0,0,0-1.31,2.14c-.13.25-.12.55-.27.79-.46.76-1.12,1.37-1.64,2.08-.08.11,0,.4-.11.54s-.36.4-.5.64a42.73,42.73,0,0,1-2.85,4.39c-.81,1.09-1.61,2.16-2.48,3.17a8.47,8.47,0,0,1-2.08,1.53,7.68,7.68,0,0,1-3,2.34c-.67.42-1.11,1.21-2.06,1.33.12.39-.22.42-.37.53-1.16,1-2.73,1.65-3.91,2.56-.74.51-1.9,1.3-1.69,2.25.29.09.56.31.92.19s.47-.68.78-1,.7-.42,1-.7a18.53,18.53,0,0,1,2.4-1.44c.57-.42.83-1.18,1.56-1,1.74-2.08,4.54-3.07,6.47-5.41.57-.64,1.28-1.35,1.87-2.11.25-.33.4-.67.64-1,.72-.91,1.32-1.74,1.9-2.61a24.83,24.83,0,0,0,3.07-5.05c1.66-1.67,2.65-4,3.73-6.17.11-.21.1-.42.19-.6s.28-.05.35-.17-.08-.39,0-.47.39-.22.5-.45a22.83,22.83,0,0,0,.93-2.53c.11-.3.06-.66.16-.94.38-1.06,1.51-2.3,1-3.15C195.19,243.39,195.4,244.07,194.8,244.26Z"/><path class="cls-2" d="M120.5,302a1,1,0,0,0,.43.18c1.13,1.79,2.71,3,4,4.58.64.72,1.2,1.62,1.91,2.37.2.2.61.33.82.52.78.7,1.46,1.54,2.2,2.34a20.47,20.47,0,0,0,2.39,2.26c.3.21.67.3,1,.53.9.7,1.59,1.67,2.52,2.35.15.11.5.12.67.24s.52.47.82.67c2.07,1.35,4,2.35,5.85,3.44,1.49.91,3.09,1.56,4.58,2.38a13.78,13.78,0,0,1,2.74,1.86c1.65.32,3,1.51,4.35,2.22a10.87,10.87,0,0,1,2.84,1.44c.31-.29.6,0,.83.09,1.85.66,3.84,1.6,5.73,2.08,1.14.25,2.94.67,3.51-.13-.21-.3-.27-.66-.69-.85a10.89,10.89,0,0,0-1.51,0c-.45-.06-1-.25-1.53-.38a24,24,0,0,1-3.3-1.24c-.82-.31-1.78-.18-2.17-.91-3.35-.67-6.13-3-9.51-4.55-1-.41-2-1.12-3.12-1.64a13.48,13.48,0,0,1-1.34-.57c-1.23-.77-2.41-1.32-3.52-2-2.34-1.45-4.38-3-6.28-4.13a21.77,21.77,0,0,0-1.58-1.61c-.55-.52-1.11-1-1.69-1.56-1.17-1-2.31-2.09-3.4-3.16-.22-.21-.46-.3-.63-.49s0-.32-.08-.46-.45-.14-.52-.24-.12-.51-.34-.75c-.37-.4-.77-.8-1.17-1.2l-1.19-1.26c-.27-.3-.68-.49-.93-.77-1-1.09-1.56-3.06-2.7-3.23C119.8,301,120.61,301.33,120.5,302Z"/><path class="cls-2" d="M261.13,358.31a2.33,2.33,0,0,0-.22.72c-1.14,1.47-2.07,3-3.19,4.37-.54.71-1.08,1.41-1.62,2.13a18.81,18.81,0,0,1-1.75,2.07c-1.2,1.23-2.61,2.41-3.86,3.73-.36.35-.72.93-1.08,1.27a49.91,49.91,0,0,1-4.34,3.66c-1.57,1.11-3.13,2.25-4.61,3.49-.52.39-.92.85-1.45,1.23-1.69,1.13-3.45,2.13-5.23,3.09-.29.17-.6.59-.92.78-.53.33-1.09.57-1.64.91l-1.36.86-1.37.74-2.65,1.46a51.74,51.74,0,0,1-5.27,2.51l-2.12.94c-.72.29-1.45.54-2.16.81-1.44.53-2.87,1.09-4.33,1.56a42.58,42.58,0,0,1-5.78,1.1,20.15,20.15,0,0,1-4.31.91l-2.17.24-2.11.1c-.9.05-1.81.2-2.75.31a8,8,0,0,1-2.85,0c-.31.39-1,.24-1.41.26-3.49.29-7.36-.21-10.77-.31-2.05-.18-5.28-.48-6.08.35a3.56,3.56,0,0,0,1.51.82c.94.1,1.75-.13,2.7-.1s1.85.26,2.85.23c2.61,0,4.31.35,6.4.37,1.61,0,3.12-.55,4.28-.05,1.52-.15,3.05-.4,4.6-.56.77-.08,1.55-.14,2.34-.2l1.19-.08,1.19-.16c1.59-.21,3.2-.41,4.84-.66a49.11,49.11,0,0,0,4.89-1.21c1.89-.49,4.07-1.23,6.13-2,.87-.34,1.6-.67,2.43-1,1.22-.51,2.36-1,3.47-1.51s2.19-1,3.25-1.56c2.19-1.18,4.4-2.15,6.3-3.4a39.63,39.63,0,0,0,5.29-3.58c1.15-.64,2.31-1.33,3.47-2.06s2.21-1.65,3.32-2.5c2.25-1.66,4.23-3.69,6.29-5.53.4-.37.66-.71,1-1.05s.42-.11.65-.32.35-.71.51-.86c.39-.35.76-.41,1.16-.83.69-.72,1.38-1.46,2.06-2.24l1.93-2.48c.45-.57.77-1.25,1.2-1.78.86-1,1.78-2.19,2.66-3.27a7.32,7.32,0,0,0,1.66-3C262.46,356.57,262,357.91,261.13,358.31Z"/><path class="cls-2" d="M111.66,532.61c-.42.12-.82.18-1.1.27a21.13,21.13,0,0,1-8.23-2,30.62,30.62,0,0,1-7.23-4.73,64.65,64.65,0,0,1-6-6.31c-.53-.61-1.4-1.29-1.91-1.92-1.94-2.32-3.76-4.87-5.64-7.39s-3.71-5.13-5.69-7.61c-.65-.83-1.36-1.52-2-2.38-2-2.65-3.73-5.5-5.66-8.2-.32-.44-1-1-1.32-1.46-.61-.82-1.11-1.68-1.73-2.53-2.11-2.89-4.09-5.57-6-8.21s-3.69-5.19-5.46-7.83L49.51,466c-1.4-2.07-2.77-4.16-4.09-6.28a86.53,86.53,0,0,1-4.64-8.38A49.17,49.17,0,0,1,37,445.2c-1.13-2.12-2.19-4.24-3.21-6.24-1.36-2.61-3.17-5.21-4.23-8.17-.59-.3-1-1.35-1.29-2-2.77-5-5.41-10.78-8-15.76-1.57-3-3.94-7.76-5.24-8.31a8.38,8.38,0,0,0,.56,2.63c.68,1.36,1.52,2.34,2.26,3.68L20,415.19c2,3.73,3.05,6.32,4.61,9.31,1.18,2.31,2.77,4.29,3.17,6.16,5.22,8.41,9.41,17.86,15.38,27.15,1.72,2.64,3.61,5.86,5.6,8.8.84,1.24,1.65,2.26,2.45,3.5,2.38,3.57,4.52,6.69,6.77,9.87,4.59,6.65,9,12.82,13,17.78A268.42,268.42,0,0,0,87.2,519.24c.58.68,1.1,1.14,1.59,1.7.37.41.24.62.57,1s1,.74,1.24,1A22.14,22.14,0,0,0,92,524.75a40.47,40.47,0,0,0,8,6.09c.26.15.52.29.79.42l.83.34c.56.2,1.07.45,1.61.63A20.44,20.44,0,0,0,110,534a12.15,12.15,0,0,0,3.19-.18,8.32,8.32,0,0,0,2.24-.89C115,532,113,533.08,111.66,532.61Z"/><path class="cls-2" d="M42.71,458.52a1.15,1.15,0,0,0-.41.3c-1.15.08-2.24.32-3.34.44a23.05,23.05,0,0,1-3.34.35c-1.08,0-2.22-.21-3.35-.2-.31,0-.73.15-1,.15a23.57,23.57,0,0,1-3.52-.4,26.78,26.78,0,0,0-3.57-.56c-.4-.05-.79,0-1.19,0a35.38,35.38,0,0,1-3.65-1.05c-.2,0-.54.07-.77,0-.38-.09-.72-.26-1.11-.34a50.62,50.62,0,0,1-7.24-2.06l-1.36-.5-1.34-.55c-.88-.38-1.78-.74-2.64-1.16a16.16,16.16,0,0,1-3-2.16,7.93,7.93,0,0,1-2.36-1.43c-.36-.29-.71-.59-1-.88l-1-.92c-.82-.77-2-1.22-2.59-2.37-.4.15-.6-.26-.8-.43-1.71-1.36-3.17-3.32-4.71-4.8-.88-.94-2.24-2.43-3.23-2.18,0,.38-.13.72.15,1.17s1,.61,1.41,1,.74.91,1.22,1.32c1.23,1.09,1.78,2.06,2.72,3,.75.68,1.77,1,2,1.86.8.55,1.61,1.09,2.37,1.69s1.49,1.31,2.3,1.91,1.6,1.26,2.43,1.88a23.16,23.16,0,0,0,2.74,1.61c1.08.58,2.38,1.24,3.65,1.78.55.21,1,.34,1.58.54,1.55.59,2.93,1.12,4.38,1.53a36.55,36.55,0,0,0,8.28,1.9c.78.27,1.6.51,2.44.72s1.7.28,2.57.4c1.74.27,3.51.25,5.24.37a8.12,8.12,0,0,0,.9-.05c.21,0,.23.23.43.25s.47-.25.61-.23c.33,0,.51.26.88.26.63,0,1.26,0,1.91-.06l2-.23c.46-.05.9-.27,1.32-.31,1.61-.17,3.9.12,4.69-.76C44.08,458.41,43.31,459,42.71,458.52Z"/><path class="cls-1" d="M2288.2,186.35c-35.87-11.37-73.86,14.33-101.31,62.31-13.19-86.55-55.46-149.87-105.57-149.87-51.24,0-94.29,66.22-106.42,155.79-12.1-8.86-25.24-13.17-38.75-11.8-50,5-86,85.54-80.5,179.82,4,68.52,28.84,125.44,61.3,149.5,23.79,64.93,87.57,111.41,162.53,111.41,77.53,0,143.11-49.72,164.84-118.15,47.18-6.71,92.94-70.6,109.15-158.87C2372.58,302.4,2343.36,203.84,2288.2,186.35Z"/><path class="cls-2" d="M2106.9,536.68a8.16,8.16,0,0,0-.66-1.38c-1-3.75-2.18-7.3-3.19-10.88s-2.15-7.11-3-10.84c-.84-3.49-1.56-7.27-2.48-11-.23-1-.72-2.32-1-3.33-.86-3.79-1.68-7.69-2.38-11.64s-1.38-8-2.23-11.92c-.25-1.32-.62-2.52-.85-3.87-.71-4.19-1.24-8.39-1.8-12.59-.1-.69-.44-1.67-.56-2.43-.2-1.3-.31-2.56-.52-3.88q-.27-1.69-.54-3.33t-.45-3.24q-.45-3.18-.88-6.24c-.62-4.08-1-8.06-1.44-12.09-.17-1.61-.34-3.22-.51-4.81s-.29-3.2-.43-4.79c-.27-3.19-.56-6.36-.78-9.54-.2-4.06-.24-8.3-.17-12.22a90.44,90.44,0,0,1-.3-9.18c0-1.53,0-3.05.07-4.55s.11-3,.16-4.4c.14-3.75-.23-7.77.37-11.73-.36-.7-.14-2.09-.12-3,.09-7.29.87-15.36,1.2-22.52.28-4.31.75-11.09-.06-12.51a13.13,13.13,0,0,0-.9,3.26c-.15,1.94.05,3.55,0,5.51,0,1.66-.33,3.84-.39,5.9-.16,5.39-.65,8.92-.85,13.22-.11,3.32.25,6.51-.36,8.84.33,12.61-.71,25.75.3,39.82.2,4,.53,8.76.92,13.28.18,1.9.39,3.54.58,5.42.29,2.72.56,5.28.83,7.78s.53,4.94.88,7.4c.69,5.11,1.2,10.07,2,14.73s1.39,9.06,2.3,13c.34,2.71.73,5.49,1.16,8.29s1,5.63,1.58,8.47c1,5.7,2.45,11.39,3.67,17,.25,1.12.52,1.95.76,2.87.16.69-.05.82.09,1.45.1.46.6,1.44.7,1.89.22,1.08.15,1.72.43,2.89.5,2,1,4,1.56,6.11s1.19,4.13,1.79,6.24c.42,1.47,1,2.88,1.37,4.25,1.47,5.19,3,12.3,4.57,15.06C2108.13,541.1,2106.91,538.51,2106.9,536.68Z"/><path class="cls-2" d="M2109,314.31a.82.82,0,0,0,.12.34c-.62,1.33-.78,2.72-1.38,4.05-.3.61-.79,1.19-1.08,1.85-.09.17,0,.49-.11.67-.58,1.37-1.76,2.48-2.37,3.88-.12.23-.1.51-.23.74-.42.69-1,1.23-1.52,1.88-.07.11,0,.38-.09.5s-.33.37-.46.59a38.48,38.48,0,0,1-2.57,4c-.73,1-1.46,2-2.26,2.91a6.76,6.76,0,0,1-1.92,1.38,6.47,6.47,0,0,1-2.71,2.13c-.61.37-1,1.12-1.89,1.2.13.38-.19.39-.33.5-1.06.9-2.51,1.49-3.58,2.33-.67.47-1.73,1.2-1.5,2.14.28.1.54.32.87.22s.42-.65.7-.91.64-.39.94-.65a17.63,17.63,0,0,1,2.21-1.31c.52-.38.75-1.11,1.43-1,1.56-1.94,4.19-2.78,5.94-4.94.52-.59,1.18-1.24,1.71-1.94.23-.3.35-.62.58-.91.65-.83,1.19-1.6,1.72-2.4A21.19,21.19,0,0,0,2104,327c1.56-1.5,2.45-3.67,3.43-5.63.1-.2.09-.39.17-.55s.27,0,.34-.15-.09-.37,0-.44.38-.19.47-.4a19.84,19.84,0,0,0,.85-2.32c.1-.28,0-.61.13-.87.35-1,1.44-2.09.9-2.88C2109.39,313.52,2109.62,314.15,2109,314.31Z"/><path class="cls-2" d="M2039.16,370.36a1,1,0,0,0,.41.15c1,1.65,2.5,2.73,3.72,4.18.59.67,1.09,1.5,1.74,2.19.18.19.57.29.76.46.72.64,1.33,1.42,2,2.16a16.43,16.43,0,0,0,2.18,2.07c.28.19.62.26.89.47.83.64,1.44,1.55,2.3,2.17.13.11.46.1.62.2s.47.44.75.62c1.9,1.23,3.65,2.13,5.38,3.12,1.36.83,2.84,1.41,4.2,2.16a11,11,0,0,1,2.49,1.73c1.53.26,2.72,1.39,4,2a8.62,8.62,0,0,1,2.59,1.33c.3-.29.56,0,.77.07,1.7.6,3.52,1.49,5.25,1.91,1,.22,2.69.6,3.23-.2-.18-.29-.23-.65-.61-.84s-.92.1-1.4.05a14.05,14.05,0,0,1-1.4-.34,22.51,22.51,0,0,1-3-1.14c-.75-.29-1.64-.14-2-.84-3.08-.57-5.6-2.79-8.69-4.18-.91-.37-1.86-1-2.86-1.49a12.21,12.21,0,0,1-1.23-.51c-1.13-.7-2.21-1.2-3.23-1.85-2.15-1.32-4-2.76-5.77-3.75-1.79-2-4.11-3.81-6.09-5.8-.2-.2-.42-.28-.58-.45s0-.31,0-.43-.43-.11-.5-.21-.09-.49-.29-.7c-.69-.73-1.45-1.44-2.17-2.24-.25-.28-.63-.44-.86-.7-.88-1-1.38-2.84-2.47-3C2038.53,369.4,2039.3,369.7,2039.16,370.36Z"/><path class="cls-2" d="M2169,420.52a2,2,0,0,0-.19.67c-1,1.34-1.9,2.73-2.92,4-.49.65-1,1.29-1.47,1.95a16.68,16.68,0,0,1-1.6,1.89c-1.1,1.13-2.4,2.2-3.55,3.4-.32.32-.64.86-1,1.18a43.29,43.29,0,0,1-4,3.33c-1.44,1-2.87,2.05-4.22,3.19-.47.35-.82.79-1.32,1.13a53.53,53.53,0,0,1-4.79,2.81c-.26.16-.54.56-.82.73-.5.3-1,.52-1.5.83l-1.25.79-1.25.69-2.42,1.34a45.11,45.11,0,0,1-4.81,2.31l-1.94.86c-.66.27-1.32.5-2,.76-1.31.49-2.62,1-3.95,1.43a34.19,34.19,0,0,1-5.3,1,16.38,16.38,0,0,1-3.94.85l-2,.21-1.94.07c-.82,0-1.66.19-2.51.29a7.17,7.17,0,0,1-2.61-.05c-.28.38-.9.23-1.29.25-3.19.27-6.72-.22-9.85-.29-1.88-.16-4.83-.44-5.57.41a3.27,3.27,0,0,0,1.38.8c.86.09,1.6-.15,2.47-.13s1.69.24,2.61.21c2.39,0,4,.33,5.86.35,1.47,0,2.86-.54,3.92,0,1.4-.15,2.79-.38,4.21-.53.71-.07,1.43-.13,2.15-.18l1.09-.07,1.08-.14c1.46-.18,2.94-.36,4.44-.59a43.62,43.62,0,0,0,4.48-1.1c1.73-.46,3.73-1.13,5.62-1.83.79-.32,1.45-.63,2.21-1,1.12-.47,2.16-.94,3.18-1.39s2-.9,3-1.44c2-1.08,4-2,5.76-3.12a35.43,35.43,0,0,0,4.83-3.3c1.06-.57,2.12-1.2,3.18-1.87s2-1.5,3-2.28c2.06-1.53,3.87-3.39,5.76-5.07a12.28,12.28,0,0,0,.88-1c.22-.22.41-.08.62-.27s.3-.66.45-.8c.36-.32.71-.36,1.08-.74.63-.66,1.26-1.35,1.88-2.06l1.76-2.27c.42-.53.7-1.16,1.09-1.65.78-.89,1.64-2,2.45-3a6.07,6.07,0,0,0,1.49-2.73C2170.26,418.94,2169.9,420.18,2169,420.52Z"/><path class="cls-2" d="M2031.14,580c-.39.11-.75.18-1,.27a19.71,19.71,0,0,1-7.5-1.84,27.55,27.55,0,0,1-6.6-4.31,58.37,58.37,0,0,1-5.48-5.79c-.48-.56-1.29-1.17-1.75-1.75-1.78-2.12-3.44-4.46-5.16-6.77s-3.38-4.7-5.2-7c-.6-.76-1.26-1.38-1.85-2.17-1.85-2.42-3.4-5-5.17-7.51-.29-.41-.88-.88-1.21-1.32-.57-.76-1-1.55-1.58-2.33-1.94-2.64-3.76-5.08-5.48-7.49s-3.39-4.75-5-7.16l-3.87-5.74c-1.29-1.89-2.55-3.8-3.75-5.74a74.3,74.3,0,0,1-4.23-7.68,43.53,43.53,0,0,1-3.42-5.63c-1-1.94-2-3.89-2.92-5.72-1.23-2.4-2.91-4.76-3.85-7.49-.57-.26-.89-1.22-1.2-1.78-2.53-4.57-4.93-9.88-7.32-14.42-1.45-2.74-3.63-7.11-4.89-7.57a7.39,7.39,0,0,0,.47,2.42c.62,1.26,1.42,2.14,2.1,3.36.58,1.05,1.24,2.48,2,3.77,1.83,3.41,2.78,5.78,4.21,8.52,1.08,2.12,2.57,3.91,2.89,5.65,4.82,7.67,8.57,16.36,14.07,24.85,1.57,2.42,3.3,5.36,5.13,8.05.77,1.14,1.52,2.06,2.25,3.2,2.18,3.26,4.15,6.11,6.21,9,4.21,6.08,8.22,11.73,11.93,16.25a235.2,235.2,0,0,0,14.84,19.67c.53.62,1,1,1.46,1.55s.2.58.51.93.92.66,1.14.9a18.76,18.76,0,0,0,1.29,1.67,37,37,0,0,0,7.37,5.57,7.73,7.73,0,0,0,1.49.69c.51.18,1,.41,1.47.58a19.26,19.26,0,0,0,6.1,1.61,10.64,10.64,0,0,0,2.93-.17,7,7,0,0,0,2-.84C2034.18,579.48,2032.39,580.47,2031.14,580Z"/><path class="cls-2" d="M1966.76,512.19a1.09,1.09,0,0,0-.37.29c-1.05.07-2,.29-3.05.41a20.61,20.61,0,0,1-3.06.33c-1,0-2-.22-3.06-.21-.28,0-.67.16-1,.16a19.92,19.92,0,0,1-3.22-.39,22.13,22.13,0,0,0-3.26-.51c-.36,0-.72.05-1.09,0-1.14-.22-2.22-.65-3.33-1-.18,0-.5.08-.7,0-.35-.08-.67-.24-1-.32a45.51,45.51,0,0,1-6.63-1.85l-1.25-.45-1.23-.5c-.81-.34-1.63-.66-2.42-1.05a13.44,13.44,0,0,1-2.72-2,6.78,6.78,0,0,1-2.16-1.29c-.33-.27-.64-.55-1-.83l-.87-.84c-.74-.71-1.84-1.11-2.35-2.18-.39.16-.56-.23-.74-.39-1.57-1.24-2.89-3.05-4.3-4.39-.81-.85-2.06-2.22-3-1.94,0,.36-.15.69.1,1.11s.9.54,1.31.9.68.84,1.12,1.21c1.15,1,1.63,1.89,2.49,2.73.69.62,1.65.87,1.78,1.71.74.49,1.48,1,2.19,1.54s1.36,1.2,2.09,1.76,1.46,1.17,2.22,1.74a19.42,19.42,0,0,0,2.51,1.47c1,.53,2.18,1.13,3.35,1.62.5.2,1,.3,1.45.49,1.43.53,2.69,1,4,1.38a31.84,31.84,0,0,0,7.59,1.7c.72.26,1.46.48,2.23.68a22.56,22.56,0,0,0,2.35.37c1.59.25,3.22.23,4.8.34.32,0,.56-.06.82-.06s.22.23.4.25.43-.24.55-.22c.31,0,.48.26.81.26.57,0,1.16,0,1.75-.06l1.79-.22c.42,0,.82-.26,1.21-.3,1.47-.15,3.58.17,4.29-.7C1968,512.1,1967.32,512.63,1966.76,512.19Z"/><path class="cls-1" d="M-39.28,490.16c101.32-2.23,201.67-18.06,291-45.87,33.7-10.5,66.74-22.88,104.34-27,40.61-4.45,82.2,1.2,122.8,5.67,90.81,10,209-22.54,301.14-18.35,90.6,4.13,158.19,44.84,244.64,28.59,105.57-19.85,203.59-69.44,312.39-56.72,36.52,4.27,70.08,15.51,107,18.21,51.55,3.77,101.9-9.42,153.46-13.19,171.6-12.55,338.09,78.93,503.59,49.83V720H-39.28Z"/><path class="cls-1" d="M621,388.94c-5.68-2.39-12-1.8-18.62,1.3,8.09-48.07-.75-87.87-23-94.27-21.8-6.27-49.64,21.36-68.3,64.7-4.77-28.37-17.46-46.47-34.76-45-26.61,2.19-54,49.77-61.26,106.26-6.13,47.9,4.24,86.83,23.76,96.21-.76,38.28,20.34,72.32,54.07,82,32.61,9.36,67.29-6.83,87.33-37.6,17.71-8.45,37-34.93,49-70.05C645.66,444.15,642,397.8,621,388.94Z"/></g></svg>