<?xml version="1.0" standalone="no"?>
<!DOCTYPE svg PUBLIC "-//W3C//DTD SVG 1.1//EN" "http://www.w3.org/Graphics/SVG/1.1/DTD/svg11.dtd" >
<svg xmlns="http://www.w3.org/2000/svg" xmlns:xlink="http://www.w3.org/1999/xlink" version="1.1">
<metadata>
Created by FontForge 20200427 at Tue May  6 19:22:10 2014
 By www
Copyright (c) 2013 Monotype Imaging Inc. All rights reserved.
</metadata>
<defs>
<font id="NHaasGroteskDSW02-55Rg" horiz-adv-x="622" >
  <font-face 
    font-family="NHaasGroteskDSW02-55Rg"
    font-weight="450"
    font-stretch="normal"
    units-per-em="1000"
    panose-1="2 11 5 4 2 2 2 2 2 4"
    ascent="775"
    descent="-225"
    x-height="517"
    cap-height="715"
    bbox="-178 -228 1129 916"
    underline-thickness="20"
    underline-position="-133"
    unicode-range="U+0020-FB02"
  />
<missing-glyph horiz-adv-x="159" 
 />
    <glyph glyph-name=".notdef" horiz-adv-x="159" 
 />
    <glyph glyph-name=".null" horiz-adv-x="0" 
 />
    <glyph glyph-name="nonmarkingreturn" horiz-adv-x="333" 
 />
    <glyph glyph-name="space" unicode=" " horiz-adv-x="159" 
 />
    <glyph glyph-name="exclam" unicode="!" horiz-adv-x="235" 
d="M73 486v229h89v-229l-22 -313h-45zM69 99h97v-99h-97v99z" />
    <glyph glyph-name="quotedbl" unicode="&#x22;" horiz-adv-x="297" 
d="M181 715h74v-214h-74v214zM42 715h74v-214h-74v214z" />
    <glyph glyph-name="numbersign" unicode="#" horiz-adv-x="579" 
d="M74 496h101l26 190h68l-26 -190h136l26 190h68l-26 -190h101l-11 -72h-100l-22 -154h100l-11 -72h-99l-27 -198h-68l27 198h-136l-27 -198h-68l27 198h-102l11 72h101l22 154h-102zM211 270h136l22 154h-136z" />
    <glyph glyph-name="dollar" unicode="$" horiz-adv-x="579" 
d="M263 0q-65 4 -111 24.5t-75.5 52t-44 71.5t-16.5 83h84q7 -72 44.5 -113.5t118.5 -49.5v259q-46 10 -85.5 23t-68 33.5t-45 52t-16.5 79.5q0 42 15.5 75.5t44 57.5t68 38t87.5 16v55h56v-55q101 -8 152 -55t62 -128h-81q-14 102 -133 116v-241q49 -10 91 -22.5t73 -34
t48.5 -54.5t17.5 -84q0 -45 -17.5 -81t-48.5 -61.5t-73 -40t-91 -17.5v-84h-56v85zM467 196q0 28 -9.5 46.5t-28.5 32t-46.5 22.5t-63.5 17v-247q30 2 57 11.5t47 26t32 39.5t12 52zM127 519q0 -48 33 -73t103 -41v231q-61 -5 -98.5 -34.5t-37.5 -82.5z" />
    <glyph glyph-name="percent" unicode="%" horiz-adv-x="813" 
d="M186 305q-36 0 -66 14t-51 40t-33 62.5t-12 81.5q0 46 12.5 82.5t34 62t51 39.5t64.5 14q34 0 63.5 -13.5t51 -39t33.5 -62.5t12 -83q0 -45 -11.5 -81.5t-32.5 -62.5t-50.5 -40t-65.5 -14zM629 -15q-36 0 -66 14t-51 40t-33 62.5t-12 81.5q0 46 12.5 82.5t34 62t51 39.5
t64.5 14q34 0 63.5 -13.5t51 -39t33.5 -62.5t12 -83q0 -45 -11.5 -81.5t-32.5 -62.5t-50.5 -40t-65.5 -14zM569 685h68l-393 -685h-68zM186 365q43 0 64.5 39t21.5 99q0 29 -5.5 54.5t-16.5 44t-27 29t-37 10.5q-42 0 -64 -39t-22 -99q0 -29 5.5 -54.5t16.5 -44t27 -29
t37 -10.5zM629 45q43 0 64.5 39t21.5 99q0 29 -5.5 54.5t-16.5 44t-27 29t-37 10.5q-42 0 -64 -39t-22 -99q0 -29 5.5 -54.5t16.5 -44t27 -29t37 -10.5z" />
    <glyph glyph-name="ampersand" unicode="&#x26;" horiz-adv-x="587" 
d="M244 -14q-39 0 -76 13.5t-65.5 38t-46 60t-17.5 79.5q0 40 11.5 70.5t32 56t49 46.5t62.5 42l-20 26q-31 40 -43 74t-12 73q0 30 12 56.5t32.5 45.5t48.5 30t61 11q30 0 57.5 -9t49.5 -28t35 -47t13 -65q0 -33 -11 -58.5t-29 -47t-42 -39.5t-49 -34l142 -181
q11 29 17.5 62t6.5 70h70q0 -51 -11.5 -100.5t-34.5 -92.5l108 -138h-97l-56 72q-36 -39 -85.5 -62.5t-112.5 -23.5zM249 57q45 0 82.5 19t66.5 53l-164 211q-24 -16 -45 -32.5t-36.5 -35.5t-24 -42t-8.5 -53q0 -27 10 -49t27.5 -37.5t41 -24.5t50.5 -9zM195 564
q0 -30 10.5 -54.5t33.5 -54.5l19 -25q47 30 69.5 59.5t22.5 71.5q0 37 -21 58.5t-56 21.5t-56.5 -21t-21.5 -56z" />
    <glyph glyph-name="quotesingle" unicode="'" horiz-adv-x="158" 
d="M42 715h74v-214h-74v214z" />
    <glyph glyph-name="parenleft" unicode="(" horiz-adv-x="304" 
d="M217 -118q-31 47 -57.5 97t-46 105.5t-31 117.5t-11.5 133q0 65 12 124t32.5 111t46.5 98t55 86h66q-50 -85 -83.5 -190t-33.5 -229q0 -66 7.5 -126t22.5 -115.5t37 -107.5t50 -104h-66v0z" />
    <glyph glyph-name="parenright" unicode=")" horiz-adv-x="304" 
d="M22 -118q28 52 50 104t37 107.5t22.5 115.5t7.5 126q0 124 -33.5 229t-83.5 190h66q28 -40 54.5 -86t47 -98t32.5 -111t12 -124q0 -71 -11.5 -133t-31 -117.5t-46 -105.5t-57.5 -97h-66v0z" />
    <glyph glyph-name="asterisk" unicode="*" horiz-adv-x="368" 
d="M79 471l60 87l-95 33l18 46l95 -31v109h54v-109l95 31l18 -46l-95 -33l60 -87l-43 -30l-62 92l-62 -92z" />
    <glyph glyph-name="plus" unicode="+" horiz-adv-x="560" 
d="M53 358h194v200h66v-200h194v-64h-194v-200h-66v200h-194v64z" />
    <glyph glyph-name="comma" unicode="," horiz-adv-x="185" 
d="M45 -83q17 6 31 23.5t14 59.5h-46v99h97v-102q0 -55 -26.5 -86t-69.5 -39v45z" />
    <glyph glyph-name="hyphen" unicode="-" horiz-adv-x="344" 
d="M38 313h268v-74h-268v74z" />
    <glyph glyph-name="period" unicode="." horiz-adv-x="185" 
d="M44 99h97v-99h-97v99z" />
    <glyph glyph-name="slash" unicode="/" horiz-adv-x="400" 
d="M300 715h84l-284 -715h-84z" />
    <glyph glyph-name="zero" unicode="0" horiz-adv-x="620" 
d="M310 -15q-63 0 -112.5 25.5t-83.5 72t-52 112.5t-18 148q0 83 19 149.5t54 113t84 71t110 24.5t110 -24.5t83.5 -70.5t53 -112.5t18.5 -150.5q0 -82 -17.5 -148t-51.5 -112.5t-83.5 -72t-113.5 -25.5zM311 58q91 0 134.5 76t43.5 209q0 65 -11 118t-33.5 90.5t-55.5 57.5
t-78 20q-91 0 -135.5 -76.5t-44.5 -209.5q0 -65 11 -118t33.5 -90t56.5 -57t79 -20z" />
    <glyph glyph-name="one" unicode="1" horiz-adv-x="346" 
d="M184 499h-150v56q31 1 60 7.5t51.5 22t37.5 41t20 63.5h65v-689h-84v499z" />
    <glyph glyph-name="two" unicode="2" horiz-adv-x="556" 
d="M57.5 117.5q23.5 48.5 60 84.5t81 63.5t89.5 53.5q34 19 60.5 36.5t45.5 37t29 42.5t10 54q0 63 -40 102t-109 39q-36 0 -63 -11.5t-46 -31.5q-20 -22 -29.5 -53t-9.5 -84h-88q0 66 16.5 110t48.5 76q33 32 79 48t99 16q52 0 94.5 -15.5t72.5 -43.5t46 -66.5t16 -84.5
q0 -50 -16 -84.5t-43 -60.5t-63.5 -47.5t-77.5 -44.5q-28 -15 -58 -33.5t-56.5 -40t-46.5 -46.5t-27 -53h374v-80h-475q3 69 26.5 117.5z" />
    <glyph glyph-name="three" unicode="3" horiz-adv-x="569" 
d="M291 -15q-57 0 -106 15.5t-86 46.5t-58.5 75.5t-22.5 103.5h83q2 -83 52 -127t135 -44q71 0 116.5 35.5t45.5 108.5q0 66 -46.5 99.5t-133.5 33.5h-43v65h42q81 0 121 31.5t40 86.5q0 28 -12 50.5t-32 38t-47 23.5t-58 8q-75 0 -116.5 -43.5t-41.5 -115.5h-82
q0 51 17 92.5t48.5 71t76 45.5t101.5 16q48 0 89.5 -12.5t72 -36.5t48.5 -59t18 -80q0 -58 -31.5 -92.5t-81.5 -51.5v-3q72 -19 105 -63.5t33 -111.5q0 -49 -19 -87.5t-52 -64.5t-78 -40t-97 -14z" />
    <glyph glyph-name="four" unicode="4" horiz-adv-x="566" 
d="M349 168h-323v75l339 449h66v-457h113v-67h-113v-168h-82v168zM107 235h242v321h-2l-240 -318v-3z" />
    <glyph glyph-name="five" unicode="5" horiz-adv-x="553" 
d="M275 -15q-53 0 -98.5 15.5t-78.5 43.5t-53 67t-22 87h83q8 -64 51.5 -101.5t116.5 -37.5q74 0 117.5 45.5t43.5 120.5q0 39 -12.5 69t-34.5 51t-51 32t-63 11q-56 0 -94 -20t-60 -51h-81l76 368h365v-75h-306l-45 -206h2q29 28 68 43t89 15q46 0 88 -16t74 -46.5
t51.5 -75t19.5 -101.5q0 -55 -18.5 -99t-51.5 -75t-78 -47.5t-98 -16.5z" />
    <glyph glyph-name="six" unicode="6" horiz-adv-x="581" 
d="M312 -15q-57 0 -98.5 16t-72.5 45q-55 50 -76 122.5t-21 178.5q0 80 17 145t50.5 111.5t83 72t114.5 25.5q51 0 90 -16t65.5 -42t41.5 -60.5t19 -71.5h-83q-2 24 -12 46t-26.5 38t-39.5 25.5t-53 9.5q-50 0 -85 -19.5t-56.5 -55.5t-32 -87t-11.5 -114h2q33 46 79.5 70.5
t108.5 24.5q47 0 88 -18t71.5 -49.5t48.5 -73.5t18 -89q0 -48 -17.5 -90.5t-49 -74.5t-73.5 -50.5t-90 -18.5zM310 53q33 0 61.5 12t49 33.5t32 51.5t11.5 66t-12 66.5t-33 52t-50 33.5t-62 12q-37 0 -67.5 -11.5t-52.5 -33t-34 -51.5t-12 -67q0 -36 13 -66.5t35.5 -52
t53.5 -33.5t67 -12z" />
    <glyph glyph-name="seven" unicode="7" horiz-adv-x="513" 
d="M120 0q6 90 31 178.5t64 168.5t90 147t109 114v2h-391v75h479v-69q-53 -46 -103 -110t-90.5 -142.5t-67 -170t-31.5 -193.5h-90v0z" />
    <glyph glyph-name="eight" unicode="8" horiz-adv-x="584" 
d="M295 -15q-47 0 -94 11t-84.5 36t-60.5 65.5t-23 98.5q0 37 11 66t30.5 50.5t45 37t54.5 24.5v3q-48 18 -77.5 55t-29.5 91q0 41 17.5 74t48 56.5t71.5 36t88 12.5t88 -12.5t71.5 -36t48 -56.5t17.5 -74q0 -54 -28.5 -90.5t-76.5 -55.5v-3q29 -9 54.5 -24.5t44 -38
t29.5 -51.5t11 -64q0 -59 -22.5 -99t-58.5 -65t-82 -36t-93 -11zM295 55q81 0 126.5 37.5t45.5 103.5q0 68 -46 107t-129 39q-81 0 -127 -39t-46 -107q0 -67 46.5 -104t129.5 -37zM292 408q66 0 104.5 29.5t38.5 82.5t-38.5 82.5t-104.5 29.5t-104.5 -29.5t-38.5 -82.5
t38.5 -82.5t104.5 -29.5z" />
    <glyph glyph-name="nine" unicode="9" horiz-adv-x="581" 
d="M284 -15q-51 0 -93.5 14.5t-73.5 40.5t-49.5 63.5t-20.5 82.5h85q5 -57 43 -93.5t107 -36.5q39 0 67.5 11t48.5 34q31 33 44.5 89.5t16.5 133.5h-2q-33 -42 -80 -64.5t-109 -22.5q-47 0 -88.5 18t-72.5 49.5t-49 73.5t-18 89q0 48 17.5 90.5t50 74.5t76.5 50.5t96 18.5
q51 0 90 -14t68 -37q59 -45 81 -120.5t22 -190.5q0 -105 -22.5 -179.5t-73.5 -119.5q-63 -55 -161 -55zM279 306q39 0 70 12t52.5 33.5t33.5 52t12 66.5t-13 66t-36 51.5t-53.5 33.5t-64.5 12q-36 0 -65.5 -12t-51 -33.5t-33.5 -51.5t-12 -66t12.5 -66.5t34.5 -52
t51.5 -33.5t62.5 -12z" />
    <glyph glyph-name="colon" unicode=":" horiz-adv-x="191" 
d="M47 402h97v-99h-97v99zM47 99h97v-99h-97v99z" />
    <glyph glyph-name="semicolon" unicode=";" horiz-adv-x="191" 
d="M48 -83q17 6 31 23.5t14 59.5h-46v99h97v-102q0 -55 -26.5 -86t-69.5 -39v45zM47 402h97v-99h-97v99z" />
    <glyph glyph-name="less" unicode="&#x3c;" horiz-adv-x="511" 
d="M50 270v83l407 173v-73l-343 -139v-2l343 -141v-74z" />
    <glyph glyph-name="equal" unicode="=" horiz-adv-x="560" 
d="M53 433h454v-64h-454v64zM53 258h454v-64h-454v64z" />
    <glyph glyph-name="greater" unicode="&#x3e;" horiz-adv-x="511" 
d="M54 170l343 139v2l-343 141v74l407 -173v-83l-407 -173v73z" />
    <glyph glyph-name="question" unicode="?" horiz-adv-x="504" 
d="M200 173q0 41 6 72.5t18.5 57.5t32 49.5t48.5 48.5q16 15 31.5 28.5t26.5 29t18 34.5t7 43t-8.5 45.5t-26 38t-42.5 26.5t-58 10q-39 0 -67.5 -12.5t-47 -35t-28.5 -54t-11 -69.5h-82q1 51 15 95.5t43 77t73.5 51.5t107.5 19q53 0 93.5 -15t68.5 -41t42 -61t14 -74
q0 -31 -8 -55.5t-20.5 -44.5t-29 -36.5t-34.5 -31.5q-31 -26 -51.5 -45.5t-32.5 -40t-17 -46.5t-5 -64h-76zM189 99h97v-99h-97v99z" />
    <glyph glyph-name="at" unicode="@" horiz-adv-x="880" 
d="M404 79q-40 0 -71.5 14t-53.5 39t-34 60t-12 77q0 58 15.5 104.5t43.5 79.5t65 50.5t81 17.5q46 0 76.5 -20.5t46.5 -50.5h2l8 61h78l-34 -278q-11 -83 55 -83q20 0 39.5 11t34.5 35t24.5 61.5t9.5 89.5q0 77 -25 134t-68.5 94.5t-102.5 56t-126 18.5q-70 0 -134 -25
t-112.5 -72t-77 -115t-28.5 -154q0 -71 22 -131t64.5 -104t104.5 -68.5t143 -24.5q52 0 97.5 9t88.5 26l23 -55q-93 -41 -204 -41q-91 0 -166.5 28t-129.5 79t-84 123t-30 160q0 103 36.5 182.5t96.5 134t136.5 83t156.5 28.5q73 0 143 -23t124.5 -68.5t87.5 -113.5t33 -157
q0 -57 -11.5 -106t-34 -84t-56.5 -55t-80 -20q-47 0 -75.5 20t-39.5 52h-2q-23 -35 -61 -57t-83 -22zM412 141q35 0 60.5 15t42.5 40.5t25 60.5t8 75q0 57 -26 91.5t-82 34.5q-33 0 -57 -15t-39 -40.5t-22.5 -59.5t-7.5 -73q0 -27 5.5 -50.5t17.5 -41t30.5 -27.5t44.5 -10z
" />
    <glyph glyph-name="A" unicode="A" horiz-adv-x="648" 
d="M273 715h101l264 -715h-98l-76 218h-285l-77 -218h-92zM205 291h234l-82 240q-5 15 -10.5 32.5t-10.5 32.5q-5 18 -11 36h-2q-6 -17 -11 -35l-11 -33l-11 -33z" />
    <glyph glyph-name="B" unicode="B" horiz-adv-x="644" 
d="M67 715h303q113 0 172 -62q22 -23 34 -53.5t12 -68.5q0 -60 -30.5 -96.5t-84.5 -53.5v-3q30 -7 56.5 -21.5t46 -36t30.5 -50.5t11 -65q0 -42 -13.5 -76.5t-38.5 -60.5q-30 -32 -75.5 -50t-103.5 -18h-319v715zM382 81q74 0 112 36q15 16 23.5 36.5t8.5 46.5
q0 67 -42.5 100t-107.5 33h-219v-252h225zM359 409q66 0 102.5 30.5t36.5 86.5q0 52 -33.5 81.5t-93.5 29.5h-214v-228h202z" />
    <glyph glyph-name="C" unicode="C" horiz-adv-x="709" 
d="M375 -14q-76 0 -138 27.5t-105.5 77t-67.5 118t-24 149.5q0 79 23 147t66.5 118t106.5 79t143 29q63 0 113 -17t86 -47.5t58.5 -72.5t29.5 -91h-88q-13 67 -64.5 108.5t-136.5 41.5q-59 0 -104.5 -22.5t-77 -62t-47.5 -93.5t-16 -117q0 -66 17.5 -120t49.5 -92.5
t77.5 -59.5t101.5 -21q51 0 88.5 16t63 43t39.5 63t17 75h89q-1 -54 -24.5 -108.5t-61.5 -92.5q-77 -75 -214 -75z" />
    <glyph glyph-name="D" unicode="D" horiz-adv-x="684" 
d="M67 715h260q81 0 140.5 -26t98.5 -73.5t58.5 -114t19.5 -146.5t-20.5 -145.5t-61 -112t-101 -72t-141.5 -25.5h-253v715zM317 79q63 0 107.5 19.5t73 55.5t41.5 87t13 114t-12 115t-39 89t-70.5 57.5t-106.5 20.5h-167v-558h160z" />
    <glyph glyph-name="E" unicode="E" 
d="M67 715h505v-79h-415v-226h377v-76h-377v-251h427v-83h-517v715z" />
    <glyph glyph-name="F" unicode="F" horiz-adv-x="578" 
d="M67 715h485v-79h-395v-223h329v-76h-329v-337h-90v715z" />
    <glyph glyph-name="G" unicode="G" horiz-adv-x="742" 
d="M601 94h-2q-39 -55 -95.5 -82t-127.5 -27q-75 0 -137 27.5t-106.5 76.5t-68.5 117t-24 149q0 79 22 147.5t65.5 119t108 79.5t148.5 29q62 0 112 -16.5t87 -46.5t60 -72.5t32 -94.5h-93q-15 72 -65 112t-135 40q-65 0 -112 -23t-77.5 -62.5t-45.5 -94t-15 -117.5
q0 -66 18 -119.5t51 -92t78.5 -59.5t99.5 -21q55 0 95.5 17.5t67.5 47.5t40 70t13 85v17h-215v78h305v-378h-58z" />
    <glyph glyph-name="H" unicode="H" horiz-adv-x="696" 
d="M67 715h90v-304h382v304h90v-715h-90v338h-382v-338h-90v715z" />
    <glyph glyph-name="I" unicode="I" horiz-adv-x="228" 
d="M69 715h90v-715h-90v715z" />
    <glyph glyph-name="J" unicode="J" horiz-adv-x="497" 
d="M232 -14q-48 0 -87 13.5t-66.5 42t-42 73.5t-14.5 107v10h89v-7q0 -48 7.5 -79.5t23 -50.5t38.5 -27t55 -8q54 0 84 29.5t30 97.5v528h90v-534q0 -43 -13 -78.5t-39 -61.5t-64.5 -40.5t-90.5 -14.5z" />
    <glyph glyph-name="K" unicode="K" horiz-adv-x="644" 
d="M67 715h90v-355l352 355h113l-289 -286l313 -429h-105l-269 368l-115 -115v-253h-90v715z" />
    <glyph glyph-name="L" unicode="L" horiz-adv-x="554" 
d="M67 715h90v-632h375v-83h-465v715z" />
    <glyph glyph-name="M" unicode="M" horiz-adv-x="830" 
d="M67 715h115l232 -594h2l230 594h117v-715h-86v588h-2q-6 -16 -11 -32q-5 -14 -10.5 -29.5t-10.5 -28.5l-196 -498h-69l-196 498q-5 14 -10.5 29t-10.5 29q-5 16 -11 32h-2v-588h-81v715z" />
    <glyph glyph-name="N" unicode="N" horiz-adv-x="693" 
d="M67 715h95l326 -497q9 -14 18 -30t17 -30q9 -16 17 -32h2v589h84v-715h-92l-328 498q-9 13 -18 28.5t-17 29.5q-9 16 -18 31h-2v-587h-84v715z" />
    <glyph glyph-name="O" unicode="O" horiz-adv-x="780" 
d="M390 -15q-81 0 -146 28t-110 78t-69.5 118.5t-24.5 148.5t24.5 148.5t69.5 118.5t110 78t146 28t146 -28t110 -78t69.5 -118.5t24.5 -148.5t-24.5 -148.5t-69.5 -118.5t-110 -78t-146 -28zM390 64q63 0 111 22.5t81 61.5t49.5 93t16.5 117t-16.5 117t-49.5 93.5t-81 62
t-111 22.5t-111 -22.5t-81 -62t-49.5 -93.5t-16.5 -117t16.5 -117t49.5 -93t81 -61.5t111 -22.5z" />
    <glyph glyph-name="P" unicode="P" horiz-adv-x="603" 
d="M67 715h298q57 0 99.5 -18t70.5 -51q23 -26 35.5 -60.5t12.5 -75.5q0 -99 -56.5 -154.5t-174.5 -55.5h-195v-300h-90v715zM157 373h188q76 0 112.5 35.5t36.5 97.5q0 65 -37.5 98t-106.5 33h-193v-264z" />
    <glyph glyph-name="Q" unicode="Q" horiz-adv-x="780" 
d="M567 28q-77 -43 -177 -43q-81 0 -146 28t-110 78t-69.5 118.5t-24.5 148.5t24.5 148.5t69.5 118.5t110 78t146 28t146 -28t110 -78t69.5 -118.5t24.5 -148.5q0 -88 -28.5 -160.5t-82.5 -123.5l95 -76l-46 -58zM390 64q59 0 107 20l-72 58l46 58l91 -73q42 40 64 99.5
t22 131.5q0 63 -16.5 117t-49.5 93.5t-81 62t-111 22.5t-111 -22.5t-81 -62t-49.5 -93.5t-16.5 -117t16.5 -117t49.5 -93t81 -61.5t111 -22.5z" />
    <glyph glyph-name="R" unicode="R" horiz-adv-x="654" 
d="M67 715h334q47 0 86 -14t66.5 -40t43 -62t15.5 -80q0 -66 -29.5 -111t-94.5 -66v-3q27 -10 45.5 -24.5t30.5 -36.5t18 -51.5t9 -69.5q3 -43 6.5 -71t8 -45t9 -25.5t9.5 -11.5v-4h-97q-6 5 -9.5 13.5t-6 26t-5 46.5t-5.5 74q-5 79 -39 110.5t-106 31.5h-199v-302h-90v715z
M157 375h212q75 0 112.5 35t37.5 96q0 66 -33 98.5t-112 32.5h-217v-262z" />
    <glyph glyph-name="S" unicode="S" horiz-adv-x="626" 
d="M327 -14q-75 0 -131 19.5t-93.5 54t-57.5 81.5t-23 101h88q18 -184 221 -184q37 0 68.5 8.5t54 25t35 42t12.5 58.5q0 37 -15.5 61t-43.5 40t-67.5 26.5t-87.5 21.5q-47 10 -89.5 23.5t-74.5 35.5t-51 55.5t-19 84.5q0 44 17.5 79t49.5 59.5t77 37.5t99 13
q67 0 115.5 -16.5t80.5 -45.5t50 -70.5t25 -90.5h-85q-10 77 -57.5 115t-126.5 38q-73 0 -117 -29.5t-44 -85.5q0 -30 14 -50.5t39 -35t59.5 -23.5t74.5 -17q52 -11 100 -24.5t85 -37.5t59 -62.5t22 -98.5q0 -50 -19.5 -89t-54.5 -65.5t-83 -40.5t-106 -14z" />
    <glyph glyph-name="T" unicode="T" horiz-adv-x="610" 
d="M22 715h566v-79h-238v-636h-90v636h-238v79z" />
    <glyph glyph-name="U" unicode="U" horiz-adv-x="658" 
d="M329 -11q-59 0 -109 13.5t-86.5 42.5t-57.5 75t-21 111v484h90v-475q0 -92 49 -133t138 -41q85 0 133 41t48 133v475h90v-484q0 -65 -21.5 -111t-58.5 -75t-87 -42.5t-107 -13.5z" />
    <glyph glyph-name="V" unicode="V" horiz-adv-x="619" 
d="M10 715h97l176 -532q4 -13 8.5 -29t9.5 -31l10 -36h2l10 36q5 15 9 31.5t9 28.5l174 532h94l-251 -715h-99z" />
    <glyph glyph-name="W" unicode="W" horiz-adv-x="914" 
d="M14 715h94l113 -465q5 -18 9.5 -39.5t8.5 -39.5q4 -21 9 -42h2l10 44q5 19 10 40t10 39l129 463h97l125 -463q5 -18 9.5 -39.5t9.5 -40.5q5 -22 10 -43h2l10 44q5 19 9 39.5t9 37.5l119 465h91l-199 -715h-86l-131 504q-5 16 -9 34.5t-8 35.5q-4 19 -9 39h-2
q-5 -20 -9 -39q-4 -17 -8.5 -35.5t-9.5 -34.5l-140 -504h-90z" />
    <glyph glyph-name="X" unicode="X" horiz-adv-x="616" 
d="M262 366l-230 349h104l177 -286h2l181 286h99l-234 -350l241 -365h-108l-184 301h-2l-192 -301h-102z" />
    <glyph glyph-name="Y" unicode="Y" horiz-adv-x="631" 
d="M269 303l-259 412h100l205 -340h2l208 340h96l-262 -414v-301h-90v303z" />
    <glyph glyph-name="Z" unicode="Z" 
d="M30 86l428 550v3h-403v76h514v-70l-434 -561v-3h451v-81h-556v86z" />
    <glyph glyph-name="bracketleft" unicode="[" horiz-adv-x="296" 
d="M77 754h189v-66h-105v-737h105v-69h-189v872z" />
    <glyph glyph-name="backslash" unicode="\" horiz-adv-x="400" 
d="M16 715h84l284 -715h-84z" />
    <glyph glyph-name="bracketright" unicode="]" horiz-adv-x="296" 
d="M30 -49h105v737h-105v66h189v-872h-189v69z" />
    <glyph glyph-name="asciicircum" unicode="^" horiz-adv-x="453" 
d="M179 715h95l168 -287h-85l-129 224h-2l-130 -224h-85z" />
    <glyph glyph-name="underscore" unicode="_" horiz-adv-x="408" 
d="M-2 -105h412v-61h-412v61z" />
    <glyph glyph-name="grave" unicode="`" horiz-adv-x="500" 
d="M139 725h100l51 -127h-69z" />
    <glyph glyph-name="a" unicode="a" horiz-adv-x="510" 
d="M461 -5q-77 0 -89 77h-1q-12 -15 -28 -29.5t-37 -26.5t-47.5 -19t-59.5 -7q-37 0 -69 8.5t-55.5 26.5t-37 45t-13.5 64q0 46 17 75t47 47t71.5 27.5t89.5 17.5q27 4 50 8.5t39.5 12t25.5 20t9 33.5q0 44 -30 67.5t-86 23.5q-63 0 -95 -27.5t-34 -86.5h-78q1 37 14 69.5
t38.5 55.5t64 36.5t89.5 13.5q41 0 76 -8.5t60.5 -27.5t40 -50.5t14.5 -77.5v-246q0 -32 10.5 -47.5t44.5 -7.5h3v-59q-8 -3 -18 -5.5t-26 -2.5zM217 52q40 0 70 13.5t49 33.5t28.5 44.5t9.5 47.5v88q-20 -13 -52.5 -22.5t-65.5 -15.5q-30 -6 -57 -12t-46.5 -17.5t-31 -29.5
t-11.5 -46q0 -26 9.5 -42.5t24.5 -25.5t34 -12.5t39 -3.5z" />
    <glyph glyph-name="b" unicode="b" horiz-adv-x="550" 
d="M301 -15q-53 0 -92 19.5t-71 63.5h-2v-68h-81v715h81v-272h2q29 40 69 63t97 23q49 0 89.5 -18.5t69.5 -53t45 -85.5t16 -115q0 -62 -15 -112.5t-44 -86t-70.5 -54.5t-93.5 -19zM295 53q37 0 64.5 15.5t45.5 42.5t27 64t9 81q0 43 -9 80.5t-27 65t-45 43t-64 15.5
q-42 0 -73.5 -16t-51.5 -44t-30 -65t-10 -79q0 -44 10 -81t30.5 -64t51.5 -42.5t72 -15.5z" />
    <glyph glyph-name="c" unicode="c" horiz-adv-x="519" 
d="M276 -14q-58 0 -104 21.5t-78.5 58.5t-50 86.5t-17.5 105.5t17.5 105.5t50 86.5t78.5 58.5t104 21.5q92 0 149.5 -48.5t71.5 -131.5h-82q-9 53 -44.5 83t-94.5 30q-41 0 -72.5 -16t-52.5 -44t-31.5 -65t-10.5 -80t10.5 -80t31.5 -64.5t52.5 -43.5t72.5 -16q63 0 99.5 34
t41.5 94h80q-8 -94 -66 -145t-155 -51z" />
    <glyph glyph-name="d" unicode="d" horiz-adv-x="553" 
d="M255 -15q-53 0 -95.5 19t-72 54.5t-45.5 86t-16 112.5q0 64 17.5 115t48 85.5t72 53t89.5 18.5q55 0 96 -24t66 -61h2v271h81v-715h-81v63h-2q-29 -38 -67 -58t-93 -20zM258 53q43 0 74 15.5t51 42.5t29.5 64t9.5 81q0 45 -10.5 82.5t-31.5 64.5t-52 42t-71 15
q-37 0 -64.5 -15.5t-46 -43t-28 -65t-9.5 -80.5q0 -44 9.5 -81t28 -64t46.5 -42.5t65 -15.5z" />
    <glyph glyph-name="e" unicode="e" horiz-adv-x="533" 
d="M276 -14q-59 0 -105.5 21.5t-78.5 58.5t-49 86.5t-17 105.5t17.5 105.5t50 86.5t77.5 58.5t100 21.5q58 0 102.5 -21.5t74.5 -60t45.5 -92t15.5 -117.5h-400q2 -39 14 -73t33 -59t51 -39t69 -14q57 0 93 26.5t50 79.5h79q-18 -84 -76 -129t-146 -45zM271 466
q-36 0 -64 -12.5t-47.5 -35t-32 -53t-16.5 -65.5h311q-4 78 -42.5 122t-108.5 44z" />
    <glyph glyph-name="f" unicode="f" horiz-adv-x="294" 
d="M22 517h71v83q0 67 36 94t101 27q13 0 23 -0.5t18 -1.5v-69q-11 1 -15.5 1h-10.5q-39 0 -55 -11.5t-16 -43.5v-79h96v-66h-96v-451h-81v451h-71v66z" />
    <glyph glyph-name="g" unicode="g" horiz-adv-x="543" 
d="M261 -172q-101 0 -156.5 38t-62.5 105h75q6 -43 44 -61t98 -18q72 0 110 32.5t38 100.5v73h-2q-29 -37 -63 -58.5t-90 -21.5q-50 0 -91.5 19t-71.5 53t-46.5 81t-16.5 103q0 60 17.5 107.5t48 80.5t70.5 50t85 17q57 0 94.5 -20.5t63.5 -57.5h2v66h81v-489
q0 -51 -16 -88.5t-46 -62.5t-72 -37t-93 -12zM256 86q45 0 75 14.5t48 40.5t26 61t8 76q0 85 -37.5 134t-120.5 49q-73 0 -109.5 -52t-36.5 -136q0 -85 37.5 -136t109.5 -51z" />
    <glyph glyph-name="h" unicode="h" horiz-adv-x="528" 
d="M136 449h2q28 37 67.5 58.5t96.5 21.5q81 0 127.5 -42.5t46.5 -123.5v-363h-81v356q0 51 -31 78t-86 27q-31 0 -57 -10.5t-45 -29t-29.5 -45t-10.5 -58.5v-318h-81v715h81v-266z" />
    <glyph glyph-name="i" unicode="i" horiz-adv-x="191" 
d="M55 517h81v-517h-81v517zM55 715h81v-100h-81v100z" />
    <glyph glyph-name="j" unicode="j" horiz-adv-x="191" 
d="M17 -147q-14 0 -24.5 1t-20.5 3v66h2q15 -3 28 -3q53 0 53 50v547h81v-551q0 -36 -9.5 -58t-25.5 -34.5t-37.5 -16.5t-46.5 -4zM55 715h81v-100h-81v100z" />
    <glyph glyph-name="k" unicode="k" horiz-adv-x="489" 
d="M212 279l-76 -72v-207h-81v715h81v-419l227 221h103l-198 -186l222 -331h-95z" />
    <glyph glyph-name="l" unicode="l" horiz-adv-x="197" 
d="M58 715h81v-715h-81v715z" />
    <glyph glyph-name="m" unicode="m" horiz-adv-x="794" 
d="M55 517h81v-74h2q24 38 63.5 62t88.5 24q48 0 83 -23.5t52 -68.5h2q25 45 67.5 68.5t90.5 23.5q69 0 113 -42.5t44 -123.5v-363h-81v359q0 48 -28 75t-67 27q-25 0 -48 -10.5t-40.5 -29t-28 -44t-10.5 -55.5v-322h-81v359q0 48 -24.5 75t-64.5 27q-24 0 -47.5 -10.5
t-42.5 -29t-31 -44t-12 -55.5v-322h-81v517z" />
    <glyph glyph-name="n" unicode="n" horiz-adv-x="528" 
d="M136 449h2q28 37 67.5 58.5t96.5 21.5q81 0 127.5 -42.5t46.5 -123.5v-363h-81v356q0 51 -31 78t-86 27q-31 0 -57 -10.5t-45 -29t-29.5 -45t-10.5 -58.5v-318h-81v517h81v-68z" />
    <glyph glyph-name="o" unicode="o" horiz-adv-x="551" 
d="M276 -14q-58 0 -104 21.5t-78.5 58.5t-50 86.5t-17.5 105.5t17.5 105.5t50 86.5t78.5 58.5t104 21.5t104 -21.5t78.5 -58.5t49.5 -86.5t17 -105.5t-17 -105.5t-49.5 -86.5t-78.5 -58.5t-104 -21.5zM276 54q41 0 72 16t52 43.5t31.5 64.5t10.5 80t-10.5 80t-31.5 65
t-52 44t-72 16t-72.5 -16t-52.5 -44t-31.5 -65t-10.5 -80t10.5 -80t31.5 -64.5t52.5 -43.5t72.5 -16z" />
    <glyph glyph-name="p" unicode="p" horiz-adv-x="552" 
d="M55 517h81v-73h2q29 40 69 62.5t97 22.5q49 0 90 -18.5t70 -53t45.5 -85.5t16.5 -115q0 -62 -15.5 -112.5t-44.5 -86t-71 -54.5t-94 -19q-53 0 -92 17t-71 59h-2v-227h-81v683zM295 53q37 0 65 15.5t46.5 42.5t27.5 64t9 81q0 43 -9 80.5t-27.5 65t-46 43t-64.5 15.5
q-42 0 -73.5 -16t-51.5 -44t-30 -65t-10 -79t9 -79t28.5 -64.5t50.5 -43.5t76 -16z" />
    <glyph glyph-name="q" unicode="q" horiz-adv-x="552" 
d="M416 63h-2q-29 -38 -66.5 -58t-93.5 -20q-53 0 -94.5 19t-70.5 54.5t-44.5 86t-15.5 112.5q0 64 17 115t47 85.5t70.5 53t87.5 18.5q57 0 96.5 -21.5t66.5 -59.5h2v69h81v-683h-81v229zM258 53q45 0 76 15.5t50.5 42.5t28 64t8.5 81q0 45 -9.5 82.5t-30 64.5t-51.5 42
t-73 15q-37 0 -64 -15.5t-45 -43t-27 -65t-9 -80.5q0 -44 9 -81t27 -64t45.5 -42.5t64.5 -15.5z" />
    <glyph glyph-name="r" unicode="r" horiz-adv-x="343" 
d="M136 431h2q23 38 62.5 65t91.5 27q11 0 18 -1.5t15 -4.5v-78h-3q-9 3 -16.5 4t-19.5 1q-30 0 -57 -11t-48 -31t-33 -49.5t-12 -65.5v-287h-81v517h81v-86z" />
    <glyph glyph-name="s" unicode="s" horiz-adv-x="478" 
d="M251 -15q-107 0 -165 47.5t-64 135.5h83q4 -34 17 -56t32.5 -35t44.5 -18.5t54 -5.5q64 0 92 24.5t28 60.5q0 22 -7.5 36.5t-24 24.5t-42 17t-61.5 15q-38 8 -73 17t-61.5 25.5t-42.5 43.5t-16 69q0 65 47.5 103.5t138.5 38.5q97 0 145.5 -43t57.5 -119h-83
q-6 51 -35 74.5t-87 23.5q-56 0 -80 -21.5t-24 -52.5q0 -21 9 -34.5t27 -22.5t44 -15t59 -13q39 -8 73.5 -17.5t61 -27t41.5 -45.5t15 -73q0 -39 -15 -68.5t-42 -49t-64.5 -29.5t-82.5 -10z" />
    <glyph glyph-name="t" unicode="t" horiz-adv-x="307" 
d="M22 517h75v163h81v-163h100v-66h-100v-336q0 -27 13.5 -37.5t38.5 -10.5q12 0 24 2.5t19 4.5h3v-70q-14 -3 -30.5 -5t-34.5 -2q-50 0 -82 22.5t-32 77.5v354h-75v66z" />
    <glyph glyph-name="u" unicode="u" horiz-adv-x="520" 
d="M384 0v71h-2q-28 -38 -63.5 -60.5t-92.5 -22.5q-80 0 -127 45t-47 126v358h81v-356q0 -51 30.5 -78.5t85.5 -27.5q31 0 56 11t42.5 30.5t27 45.5t9.5 57v318h81v-517h-81z" />
    <glyph glyph-name="v" unicode="v" horiz-adv-x="461" 
d="M2 517h87l107 -328q5 -17 11.5 -36.5t11.5 -35.5q6 -19 11 -37h2q5 19 11 38q5 17 11 35.5t12 35.5l109 328h84l-186 -517h-90z" />
    <glyph glyph-name="w" unicode="w" horiz-adv-x="734" 
d="M4 517h87l91 -319q5 -17 9 -36t9 -36q4 -19 10 -39h2q5 20 9 39q4 17 8 35.5t9 34.5l87 321h85l84 -321q4 -16 8.5 -34.5t8.5 -35.5q4 -19 8 -39h2q5 20 10 39q5 17 9.5 36t9.5 36l96 319h84l-169 -517h-83l-86 313q-5 16 -9 34.5t-8 35.5l-8 38h-2q-5 -19 -9 -38
q-4 -17 -8 -35.5t-9 -34.5l-87 -313h-84z" />
    <glyph glyph-name="x" unicode="x" horiz-adv-x="503" 
d="M201 271l-172 246h94l123 -188h2l128 188h89l-170 -237l202 -280h-95l-153 222h-2l-150 -222h-91z" />
    <glyph glyph-name="y" unicode="y" horiz-adv-x="489" 
d="M121 -171q-23 0 -39.5 2t-33.5 9v72h4q8 -5 21.5 -8t33.5 -3q26 0 44 12.5t33 50.5l20 51l-202 502h88l122 -322q6 -17 12 -34.5t11 -32.5q6 -18 12 -34h2q5 16 11 34q5 15 11 32.5t12 34.5l118 322h86l-221 -559q-16 -40 -31.5 -65t-33 -39.5t-37 -19.5t-43.5 -5z" />
    <glyph glyph-name="z" unicode="z" horiz-adv-x="471" 
d="M34 64l288 379v3h-271v71h384v-48l-297 -392v-3h308v-74h-412v64z" />
    <glyph glyph-name="braceleft" unicode="{" horiz-adv-x="296" 
d="M248 -118q-75 0 -115 36t-40 125v178q0 33 -14 49t-55 18v67q38 2 53.5 18t15.5 49v174q0 89 40 123.5t115 34.5h18v-66h-16q-39 0 -56 -19t-17 -74v-179q0 -76 -56 -93v-3q56 -17 56 -93v-183q0 -55 17 -74t56 -19h16v-69h-18v0z" />
    <glyph glyph-name="bar" unicode="|" horiz-adv-x="224" 
d="M77 754h70v-872h-70v872z" />
    <glyph glyph-name="braceright" unicode="}" horiz-adv-x="296" 
d="M30 -49h16q19 0 33 4t23 14t13 27.5t4 44.5v183q0 76 56 93v3q-56 17 -56 93v179q0 55 -17 75.5t-56 20.5h-16v66h18q75 0 115 -36t40 -125v-174q0 -33 14 -49t55 -18v-67q-38 -2 -53.5 -18t-15.5 -49v-178q0 -89 -40 -123.5t-115 -34.5h-18v69z" />
    <glyph glyph-name="asciitilde" unicode="~" horiz-adv-x="393" 
d="M267 272q-18 0 -36 6t-35 14q-26 11 -39 17t-26 6q-28 0 -30 -41h-65q2 54 25.5 85t64.5 31q22 0 41 -7t36 -16q20 -10 31 -15t24 -5q32 0 34 41h65q-2 -50 -22.5 -83t-67.5 -33z" />
    <glyph glyph-name="uni00A0" unicode="&#xa0;" horiz-adv-x="159" 
 />
    <glyph glyph-name="exclamdown" unicode="&#xa1;" horiz-adv-x="235" 
d="M73 102l22 313h45l22 -313v-229h-89v229zM69 588h97v-99h-97v99z" />
    <glyph glyph-name="cent" unicode="&#xa2;" horiz-adv-x="519" 
d="M245 -12q-51 6 -91.5 29t-69 59t-43.5 82.5t-15 99.5q0 52 15 98.5t43.5 82.5t69 59.5t91.5 29.5v63h56v-62q81 -7 132 -54.5t64 -124.5h-82q-8 47 -37 76t-77 35v-406q52 7 81.5 40t34.5 87h80q-8 -88 -59 -138t-137 -57v-72h-56v73zM109 258q0 -39 8.5 -73t25.5 -60.5
t42.5 -44.5t59.5 -24v404q-34 -6 -59.5 -23.5t-42.5 -44.5t-25.5 -61t-8.5 -73z" />
    <glyph glyph-name="sterling" unicode="&#xa3;" horiz-adv-x="551" 
d="M39 365h61q-13 33 -22.5 67.5t-9.5 73.5q0 42 16 77.5t46 61.5t72 40.5t94 14.5q43 0 83 -13t71 -40.5t49.5 -71t19.5 -104.5h-82q-1 43 -12 73.5t-30.5 49.5t-45.5 27.5t-56 8.5q-66 0 -102 -33.5t-36 -91.5q0 -35 11 -69.5t23 -70.5h143v-64h-125q3 -14 5 -29t2 -30
q0 -53 -22 -88.5t-58 -64.5l2 -2q22 8 37.5 12t41.5 4q27 0 49 -6.5t41.5 -14t39 -14t41.5 -6.5q31 0 56.5 14t47.5 34l48 -59q-32 -28 -69.5 -45.5t-85.5 -17.5q-34 0 -59.5 8.5t-48 18t-45.5 18t-52 8.5q-30 0 -54 -14.5t-45 -28.5l-48 66q21 16 40 32t33.5 35t22.5 42.5
t8 53.5q0 19 -4 37.5t-9 36.5h-83v64z" />
    <glyph glyph-name="currency" unicode="&#xa4;" horiz-adv-x="484" 
d="M242 212q55 0 84.5 39t29.5 98q0 29 -7.5 54.5t-22 44t-36 29t-48.5 10.5t-48.5 -10.5t-36.5 -29t-22.5 -44t-7.5 -54.5q0 -59 30 -98t85 -39zM18 161l66 68q-18 26 -27 56.5t-9 63.5q0 68 36 119l-66 68l43 41l64 -66q23 17 52.5 27.5t64.5 10.5t64.5 -10.5t52.5 -27.5
l64 66l43 -41l-66 -68q35 -52 35 -119q0 -33 -9.5 -63.5t-26.5 -55.5l67 -69l-43 -41l-65 66q-23 -17 -52 -26.5t-64 -9.5t-64 9.5t-52 26.5l-65 -66z" />
    <glyph glyph-name="yen" unicode="&#xa5;" horiz-adv-x="562" 
d="M61 326h166l-217 359h94l178 -317h2l178 317h90l-215 -359h168v-54h-180v-69h180v-54h-180v-149h-84v149h-180v54h180v69h-180v54z" />
    <glyph glyph-name="brokenbar" unicode="&#xa6;" horiz-adv-x="224" 
d="M77 294h70v-412h-70v412zM77 754h70v-396h-70v396z" />
    <glyph glyph-name="section" unicode="&#xa7;" horiz-adv-x="582" 
d="M301 -186q-52 0 -93 14.5t-69 40.5t-43.5 62t-16.5 80h83q4 -63 38 -94t103 -31q48 0 72.5 21t24.5 53q0 20 -11.5 37t-34.5 34t-56.5 36.5t-78.5 45.5q-45 25 -80 48t-60 47t-38 51t-13 62q0 53 31 86t82 50q-19 21 -29.5 44t-10.5 51q0 33 13.5 60.5t38 47t59.5 30.5
t78 11q95 0 145 -49.5t55 -134.5h-83q-4 55 -33 83.5t-86 28.5q-53 0 -78 -21t-25 -53q0 -20 10.5 -36t30 -31.5t48.5 -31.5t66 -36q43 -23 82 -45.5t68.5 -48t46.5 -56t17 -69.5q0 -57 -31 -92t-83 -51q20 -22 32 -46t12 -51q0 -66 -49 -106.5t-134 -40.5zM303 348
q-33 18 -62 35t-53 35q-40 -11 -59.5 -35.5t-19.5 -53.5q0 -21 7.5 -37t24.5 -31.5t44.5 -33t68.5 -41.5q35 -20 71 -41.5t68 -45.5q45 13 62.5 40t17.5 58q0 23 -10 40t-31 33.5t-53 34.5t-76 43z" />
    <glyph glyph-name="dieresis" unicode="&#xa8;" horiz-adv-x="500" 
d="M293 710h78v-95h-78v95zM129 710h78v-95h-78v95z" />
    <glyph glyph-name="copyright" unicode="&#xa9;" horiz-adv-x="812" 
d="M406 -17q-77 0 -144 28t-116.5 77.5t-77.5 118t-28 148.5t28 148.5t77.5 118.5t116.5 78t144 28t144 -28t116.5 -78t77.5 -118.5t28 -148.5t-28 -148.5t-77.5 -118t-116.5 -77.5t-144 -28zM406 22q69 0 127.5 25t101 69.5t67 105.5t24.5 133t-24.5 133t-67 106t-101 70
t-127.5 25t-127.5 -25t-101 -70t-67 -106t-24.5 -133t24.5 -133t67 -105.5t101 -69.5t127.5 -25zM409 127q-47 0 -86 17t-66.5 47.5t-43 72.5t-15.5 92q0 49 14.5 91.5t42 74t66.5 49t89 17.5q40 0 71.5 -11.5t54.5 -31t37 -46.5t18 -57h-76q-7 37 -34 59.5t-72 22.5
q-33 0 -58 -13t-41.5 -35.5t-25 -53t-8.5 -66.5q0 -73 36 -119t97 -46q50 0 77.5 27.5t32.5 68.5h74q-1 -31 -14 -61t-36 -52t-56 -34.5t-78 -12.5z" />
    <glyph glyph-name="ordfeminine" unicode="&#xaa;" horiz-adv-x="480" 
d="M213 287q36 0 61 11t41.5 28.5t24 38t7.5 40.5v69q-17 -9 -45.5 -16.5t-57.5 -11.5t-52 -9t-39 -14.5t-24 -24.5t-8 -38q0 -22 8 -36t20.5 -22.5t29 -11.5t34.5 -3zM345 301q-10 -14 -23.5 -27.5t-31 -23.5t-40 -16t-51.5 -6q-33 0 -61.5 8t-50.5 24.5t-34.5 41
t-12.5 56.5q0 40 15.5 65.5t42.5 41.5t64 24t80 12q51 5 77.5 17t26.5 49q0 76 -96 76q-55 0 -82.5 -24t-31.5 -72h-74q2 32 14.5 60t35.5 49t57.5 33t79.5 12q36 0 67 -7.5t53.5 -24t35 -44.5t12.5 -68v-213q0 -23 6.5 -37t26.5 -14q7 0 17 2h3v-56q-7 -2 -17 -4.5
t-24 -2.5q-42 0 -59.5 18.5t-22.5 50.5h-2z" />
    <glyph glyph-name="guillemotleft" unicode="&#xab;" horiz-adv-x="424" 
d="M237 228v87l137 115v-79l-93 -78v-2l93 -79v-79zM50 228v87l137 115v-79l-93 -78v-2l93 -79v-79z" />
    <glyph glyph-name="logicalnot" unicode="&#xac;" horiz-adv-x="560" 
d="M63 398h414v-254h-66v190h-348v64z" />
    <glyph glyph-name="uni00AD" unicode="&#xad;" horiz-adv-x="344" 
d="M38 313h268v-74h-268v74z" />
    <glyph glyph-name="registered" unicode="&#xae;" horiz-adv-x="528" 
d="M264 244q-49 0 -92.5 18t-75.5 50.5t-51 76.5t-19 97q0 52 19 96.5t51 76.5t75.5 50.5t92.5 18.5t92.5 -18.5t75.5 -50.5t51 -76.5t19 -96.5q0 -53 -19 -97t-51 -76.5t-75.5 -50.5t-92.5 -18zM264 279q43 0 79 15.5t62 43t41 65.5t15 83t-15 82.5t-41 65.5t-62 43.5
t-79 15.5t-79 -15.5t-62.5 -43.5t-41 -65.5t-14.5 -82.5t14.5 -83t41 -65.5t62.5 -43t79 -15.5zM171 617h118q35 0 58 -20t23 -52q0 -22 -11.5 -38.5t-36.5 -22.5v-1q19 -5 28.5 -17t11.5 -35q3 -27 3.5 -45.5t7.5 -21.5v-3h-49q-5 2 -7.5 20.5t-3.5 38.5t-13 32t-36 12h-42
v-103h-51v256zM222 503h56q21 0 31.5 10t10.5 26t-10.5 26t-31.5 10h-56v-72z" />
    <glyph glyph-name="macron" unicode="&#xaf;" horiz-adv-x="500" 
d="M121 689h258v-67h-258v67z" />
    <glyph glyph-name="degree" unicode="&#xb0;" horiz-adv-x="318" 
d="M159 455q-26 0 -48.5 9.5t-39.5 26.5t-27 39t-10 48q0 25 10 47.5t27 39.5t39.5 26.5t48.5 9.5t49 -9.5t40 -26.5t26.5 -39.5t9.5 -47.5q0 -26 -9.5 -48t-26.5 -39t-40 -26.5t-49 -9.5zM159 502q32 0 51 21.5t19 54.5q0 32 -19 54t-51 22t-51 -22t-19 -54q0 -33 19 -54.5
t51 -21.5z" />
    <glyph glyph-name="plusminus" unicode="&#xb1;" horiz-adv-x="560" 
d="M53 378h194v180h66v-180h194v-64h-194v-180h-66v180h-194v64zM53 64h454v-64h-454v64z" />
    <glyph glyph-name="uni00B2" unicode="&#xb2;" horiz-adv-x="349" 
d="M23 304q1 34 13 61t29.5 48t39 38t42.5 31q21 13 39.5 25t32.5 24.5t22 27t8 34.5q0 33 -19.5 52t-51.5 19q-36 0 -56.5 -23.5t-20.5 -68.5h-68q0 75 40 113t109 38q32 0 58 -10t44.5 -27.5t28.5 -41t10 -50.5q0 -29 -10.5 -50.5t-27 -38t-37.5 -29.5l-42 -26
q-14 -8 -29 -18t-29.5 -21t-25.5 -23t-15 -25h215v-59h-299v0z" />
    <glyph glyph-name="uni00B3" unicode="&#xb3;" horiz-adv-x="367" 
d="M187 295q-75 0 -119.5 39t-45.5 108h68q2 -42 24.5 -66t69.5 -24q38 0 61 18.5t23 55.5q0 33 -23 50.5t-66 17.5h-26v55h25q37 0 57.5 15.5t20.5 44.5t-20 45t-51 16q-39 0 -59.5 -22.5t-22.5 -59.5h-68q2 61 41.5 98.5t109.5 37.5q61 0 100 -30t39 -83
q0 -34 -18.5 -54.5t-48.5 -30.5v-2q83 -20 83 -104q0 -31 -12.5 -54.5t-33.5 -39t-49 -23.5t-59 -8z" />
    <glyph glyph-name="acute" unicode="&#xb4;" horiz-adv-x="500" 
d="M261 725h100l-82 -127h-69z" />
    <glyph glyph-name="uni00B5" unicode="&#xb5;" horiz-adv-x="523" 
d="M55 517h81v-356q0 -51 30.5 -78.5t85.5 -27.5q31 0 56 11t42.5 30.5t27 45.5t9.5 57v318h81v-517h-81v71h-2q-28 -38 -62.5 -60.5t-88.5 -22.5q-65 0 -96 35h-2v-189h-81v683z" />
    <glyph glyph-name="paragraph" unicode="&#xb6;" horiz-adv-x="549" 
d="M231 353q-100 0 -151 48.5t-51 135.5q0 39 13.5 71.5t37.5 57.5q48 49 144 49h258v-715h-74v637h-69v-637h-74v353h-34z" />
    <glyph glyph-name="periodcentered" unicode="&#xb7;" horiz-adv-x="185" 
d="M47 362h97v-99h-97v99z" />
    <glyph glyph-name="cedilla" unicode="&#xb8;" horiz-adv-x="500" 
d="M228 -191q-37 0 -63 8.5t-44 20.5l16 29q16 -7 34.5 -11t37.5 -4q25 0 41.5 7.5t16.5 24.5q0 28 -38 28q-14 0 -23 -2t-18 -5l-16 24l71 71h56l-59 -49v-2q14 2 30 0t30 -9.5t23 -21t9 -33.5q0 -36 -29 -56t-75 -20z" />
    <glyph glyph-name="uni00B9" unicode="&#xb9;" horiz-adv-x="254" 
d="M122 593h-99v49q43 1 73.5 17.5t36.5 58.5h61v-414h-72v289z" />
    <glyph glyph-name="ordmasculine" unicode="&#xba;" horiz-adv-x="509" 
d="M255 223q-51 0 -91.5 19t-69 51t-43.5 75.5t-15 93.5q0 49 15 93t43.5 76t69 51t91.5 19t91.5 -19t68.5 -51t43 -76t15 -93q0 -50 -15 -93.5t-43 -75.5t-68.5 -51t-91.5 -19zM255 286q35 0 61 13.5t43 37t25.5 55.5t8.5 70q0 37 -8.5 69.5t-25.5 56.5t-43 37.5t-61 13.5
t-61 -13.5t-43.5 -37.5t-26 -56.5t-8.5 -69.5q0 -38 8.5 -70t26 -55.5t43.5 -37t61 -13.5z" />
    <glyph glyph-name="guillemotright" unicode="&#xbb;" horiz-adv-x="424" 
d="M237 192l93 78v2l-93 79v79l137 -115v-87l-137 -115v79zM50 192l93 78v2l-93 79v79l137 -115v-87l-137 -115v79z" />
    <glyph glyph-name="onequarter" unicode="&#xbc;" horiz-adv-x="779" 
d="M125 593h-99v49q43 1 73.5 17.5t36.5 58.5h61v-414h-72v289zM558 715h72l-453 -715h-72zM620 94h-203v71l204 251h68v-267h65v-55h-65v-94h-69v94zM475 149h145v175h-2l-143 -173v-2z" />
    <glyph glyph-name="onehalf" unicode="&#xbd;" horiz-adv-x="804" 
d="M125 593h-99v49q43 1 73.5 17.5t36.5 58.5h61v-414h-72v289zM546 715h72l-453 -715h-72zM475 0q1 34 13 61t29.5 48t39 38t42.5 31q21 13 39.5 25t32.5 24.5t22 27t8 34.5q0 33 -19.5 52t-51.5 19q-36 0 -56.5 -23.5t-20.5 -68.5h-68q0 75 40 113t109 38q32 0 58 -10
t44.5 -27.5t28.5 -41t10 -50.5q0 -29 -10.5 -50.5t-27 -38t-37.5 -29.5l-42 -26q-14 -8 -29 -18t-29.5 -21t-25.5 -23t-15 -25h215v-59h-299z" />
    <glyph glyph-name="threequarters" unicode="&#xbe;" horiz-adv-x="845" 
d="M190 295q-75 0 -119.5 39t-45.5 108h68q2 -42 24.5 -66t69.5 -24q38 0 61 18.5t23 55.5q0 33 -23 50.5t-66 17.5h-26v55h25q37 0 57.5 15.5t20.5 44.5t-20 45t-51 16q-39 0 -59.5 -22.5t-22.5 -59.5h-68q2 61 41.5 98.5t109.5 37.5q61 0 100 -30t39 -83
q0 -34 -18.5 -54.5t-48.5 -30.5v-2q83 -20 83 -104q0 -31 -12.5 -54.5t-33.5 -39t-49 -23.5t-59 -8zM635 715h72l-453 -715h-72zM686 94h-203v71l204 251h68v-267h65v-55h-65v-94h-69v94zM541 149h145v175h-2l-143 -173v-2z" />
    <glyph glyph-name="questiondown" unicode="&#xbf;" horiz-adv-x="504" 
d="M248 -140q-53 0 -93.5 15t-68.5 41t-42 61t-14 74q0 31 8 55.5t20.5 44.5t29 36.5t34.5 31.5q31 26 51.5 45.5t32.5 40t17 46.5t5 64h76q0 -41 -6 -72.5t-18.5 -57.5t-32.5 -49.5t-48 -48.5q-17 -15 -32 -28.5t-26 -29t-18 -34.5t-7 -43t8.5 -46t26 -38.5t42.5 -26
t58 -9.5q77 0 114.5 47t39.5 124h82q-1 -51 -15 -95.5t-43 -77t-73.5 -51.5t-107.5 -19zM218 588h97v-99h-97v99z" />
    <glyph glyph-name="Agrave" unicode="&#xc0;" horiz-adv-x="648" 
d="M273 715h101l264 -715h-98l-76 218h-285l-77 -218h-92zM205 291h234l-82 240q-5 15 -10.5 32.5t-10.5 32.5q-5 18 -11 36h-2q-6 -17 -11 -35l-11 -33l-11 -33zM218 874h100l51 -121h-69z" />
    <glyph glyph-name="Aacute" unicode="&#xc1;" horiz-adv-x="648" 
d="M273 715h101l264 -715h-98l-76 218h-285l-77 -218h-92zM205 291h234l-82 240q-5 15 -10.5 32.5t-10.5 32.5q-5 18 -11 36h-2q-6 -17 -11 -35l-11 -33l-11 -33zM340 874h100l-82 -121h-69z" />
    <glyph glyph-name="Acircumflex" unicode="&#xc2;" horiz-adv-x="648" 
d="M273 715h101l264 -715h-98l-76 218h-285l-77 -218h-92zM205 291h234l-82 240q-5 15 -10.5 32.5t-10.5 32.5q-5 18 -11 36h-2q-6 -17 -11 -35l-11 -33l-11 -33zM282 863h92l89 -106h-87l-49 63h-2l-51 -63h-85z" />
    <glyph glyph-name="Atilde" unicode="&#xc3;" horiz-adv-x="648" 
d="M273 715h101l264 -715h-98l-76 218h-285l-77 -218h-92zM205 291h234l-82 240q-5 15 -10.5 32.5t-10.5 32.5q-5 18 -11 36h-2q-6 -17 -11 -35l-11 -33l-11 -33zM390 760q-18 0 -35 5t-32.5 11t-29 11t-23.5 5q-11 0 -16.5 -8t-6.5 -22h-60q4 43 23 67.5t54 24.5
q20 0 35.5 -5t29 -11t26 -11t26.5 -5t19.5 9t7.5 21h58q-2 -38 -19.5 -65t-56.5 -27z" />
    <glyph glyph-name="Adieresis" unicode="&#xc4;" horiz-adv-x="648" 
d="M273 715h101l264 -715h-98l-76 218h-285l-77 -218h-92zM205 291h234l-82 240q-5 15 -10.5 32.5t-10.5 32.5q-5 18 -11 36h-2q-6 -17 -11 -35l-11 -33l-11 -33zM369 855h78v-95h-78v95zM205 855h78v-95h-78v95z" />
    <glyph glyph-name="Aring" unicode="&#xc5;" horiz-adv-x="648" 
d="M273 715h101l264 -715h-98l-76 218h-285l-77 -218h-92zM205 291h234l-82 240q-5 15 -10.5 32.5t-10.5 32.5q-5 18 -11 36h-2q-6 -17 -11 -35l-11 -33l-11 -33zM326 746q-18 0 -34 6.5t-27.5 18t-18.5 27t-7 33.5t7 33.5t18.5 27t27.5 18t34 6.5t34 -6.5t27.5 -18
t18.5 -27t7 -33.5t-7 -33.5t-18.5 -27t-27.5 -18t-34 -6.5zM326 781q21 0 34 14.5t13 35.5t-13 35.5t-34 14.5t-34 -14.5t-13 -35.5t13 -35.5t34 -14.5z" />
    <glyph glyph-name="AE" unicode="&#xc6;" horiz-adv-x="946" 
d="M896 636h-371v-226h333v-76h-333v-251h383v-83h-473v218h-253l-77 -218h-91l260 715h622v-79zM208 291h227v345h-104z" />
    <glyph glyph-name="Ccedilla" unicode="&#xc7;" horiz-adv-x="709" 
d="M347 -191q-37 0 -63 8.5t-44 20.5l16 29q16 -7 34.5 -11t37.5 -4q25 0 41.5 7.5t16.5 24.5q0 28 -38 28q-14 0 -23 -2t-18 -5l-16 24l58 58q-71 5 -128 34.5t-97 78t-62 114.5t-22 144q0 79 23 147t66.5 118t106.5 79t143 29q63 0 113 -17t86 -47.5t58.5 -72.5t29.5 -91
h-88q-13 67 -64.5 108.5t-136.5 41.5q-59 0 -104.5 -22.5t-77 -62t-47.5 -93.5t-16 -117q0 -66 17.5 -120t49.5 -92.5t77.5 -59.5t101.5 -21q51 0 88.5 16t63 43t39.5 63t17 75h89q-1 -54 -24.5 -108.5t-61.5 -92.5q-34 -33 -81 -52t-106 -22l-43 -36v-2q14 2 30 0t30 -9.5
t23 -21t9 -33.5q0 -36 -29 -56t-75 -20z" />
    <glyph glyph-name="Egrave" unicode="&#xc8;" 
d="M67 715h505v-79h-415v-226h377v-76h-377v-251h427v-83h-517v715zM223 874h100l51 -121h-69z" />
    <glyph glyph-name="Eacute" unicode="&#xc9;" 
d="M67 715h505v-79h-415v-226h377v-76h-377v-251h427v-83h-517v715zM345 874h100l-82 -121h-69z" />
    <glyph glyph-name="Ecircumflex" unicode="&#xca;" 
d="M67 715h505v-79h-415v-226h377v-76h-377v-251h427v-83h-517v715zM287 863h92l89 -106h-87l-49 63h-2l-51 -63h-85z" />
    <glyph glyph-name="Edieresis" unicode="&#xcb;" 
d="M67 715h505v-79h-415v-226h377v-76h-377v-251h427v-83h-517v715zM374 855h78v-95h-78v95zM210 855h78v-95h-78v95z" />
    <glyph glyph-name="Igrave" unicode="&#xcc;" horiz-adv-x="228" 
d="M69 715h90v-715h-90v715zM6 874h100l51 -121h-69z" />
    <glyph glyph-name="Iacute" unicode="&#xcd;" horiz-adv-x="228" 
d="M69 715h90v-715h-90v715zM128 874h100l-82 -121h-69z" />
    <glyph glyph-name="Icircumflex" unicode="&#xce;" horiz-adv-x="228" 
d="M69 715h90v-715h-90v715zM70 863h92l89 -106h-87l-49 63h-2l-51 -63h-85z" />
    <glyph glyph-name="Idieresis" unicode="&#xcf;" horiz-adv-x="228" 
d="M69 715h90v-715h-90v715zM157 855h78v-95h-78v95zM-7 855h78v-95h-78v95z" />
    <glyph glyph-name="Eth" unicode="&#xd0;" horiz-adv-x="695" 
d="M5 397h73v318h260q81 0 140.5 -26t98.5 -73.5t58.5 -114t19.5 -146.5t-20.5 -145.5t-61 -112t-101 -72t-141.5 -25.5h-253v321h-73v76zM328 79q63 0 107.5 19.5t73 55.5t41.5 87t13 114t-12 115t-39 89t-70.5 57.5t-106.5 20.5h-167v-240h207v-76h-207v-242h160z" />
    <glyph glyph-name="Ntilde" unicode="&#xd1;" horiz-adv-x="693" 
d="M67 715h95l326 -497q9 -14 18 -30t17 -30q9 -16 17 -32h2v589h84v-715h-92l-328 498q-9 13 -18 28.5t-17 29.5q-9 16 -18 31h-2v-587h-84v715zM427 760q-18 0 -35 5t-32.5 11t-29 11t-23.5 5q-11 0 -16.5 -8t-6.5 -22h-60q4 43 23 67.5t54 24.5q20 0 35.5 -5t29 -11
t26 -11t26.5 -5t19.5 9t7.5 21h58q-2 -38 -19.5 -65t-56.5 -27z" />
    <glyph glyph-name="Ograve" unicode="&#xd2;" horiz-adv-x="780" 
d="M390 -15q-81 0 -146 28t-110 78t-69.5 118.5t-24.5 148.5t24.5 148.5t69.5 118.5t110 78t146 28t146 -28t110 -78t69.5 -118.5t24.5 -148.5t-24.5 -148.5t-69.5 -118.5t-110 -78t-146 -28zM390 64q63 0 111 22.5t81 61.5t49.5 93t16.5 117t-16.5 117t-49.5 93.5t-81 62
t-111 22.5t-111 -22.5t-81 -62t-49.5 -93.5t-16.5 -117t16.5 -117t49.5 -93t81 -61.5t111 -22.5zM282 874h100l51 -121h-69z" />
    <glyph glyph-name="Oacute" unicode="&#xd3;" horiz-adv-x="780" 
d="M390 -15q-81 0 -146 28t-110 78t-69.5 118.5t-24.5 148.5t24.5 148.5t69.5 118.5t110 78t146 28t146 -28t110 -78t69.5 -118.5t24.5 -148.5t-24.5 -148.5t-69.5 -118.5t-110 -78t-146 -28zM390 64q63 0 111 22.5t81 61.5t49.5 93t16.5 117t-16.5 117t-49.5 93.5t-81 62
t-111 22.5t-111 -22.5t-81 -62t-49.5 -93.5t-16.5 -117t16.5 -117t49.5 -93t81 -61.5t111 -22.5zM404 874h100l-82 -121h-69z" />
    <glyph glyph-name="Ocircumflex" unicode="&#xd4;" horiz-adv-x="780" 
d="M390 -15q-81 0 -146 28t-110 78t-69.5 118.5t-24.5 148.5t24.5 148.5t69.5 118.5t110 78t146 28t146 -28t110 -78t69.5 -118.5t24.5 -148.5t-24.5 -148.5t-69.5 -118.5t-110 -78t-146 -28zM390 64q63 0 111 22.5t81 61.5t49.5 93t16.5 117t-16.5 117t-49.5 93.5t-81 62
t-111 22.5t-111 -22.5t-81 -62t-49.5 -93.5t-16.5 -117t16.5 -117t49.5 -93t81 -61.5t111 -22.5zM346 863h92l89 -106h-87l-49 63h-2l-51 -63h-85z" />
    <glyph glyph-name="Otilde" unicode="&#xd5;" horiz-adv-x="780" 
d="M390 -15q-81 0 -146 28t-110 78t-69.5 118.5t-24.5 148.5t24.5 148.5t69.5 118.5t110 78t146 28t146 -28t110 -78t69.5 -118.5t24.5 -148.5t-24.5 -148.5t-69.5 -118.5t-110 -78t-146 -28zM390 64q63 0 111 22.5t81 61.5t49.5 93t16.5 117t-16.5 117t-49.5 93.5t-81 62
t-111 22.5t-111 -22.5t-81 -62t-49.5 -93.5t-16.5 -117t16.5 -117t49.5 -93t81 -61.5t111 -22.5zM454 760q-18 0 -35 5t-32.5 11t-29 11t-23.5 5q-11 0 -16.5 -8t-6.5 -22h-60q4 43 23 67.5t54 24.5q20 0 35.5 -5t29 -11t26 -11t26.5 -5t19.5 9t7.5 21h58q-2 -38 -19.5 -65
t-56.5 -27z" />
    <glyph glyph-name="Odieresis" unicode="&#xd6;" horiz-adv-x="780" 
d="M390 -15q-81 0 -146 28t-110 78t-69.5 118.5t-24.5 148.5t24.5 148.5t69.5 118.5t110 78t146 28t146 -28t110 -78t69.5 -118.5t24.5 -148.5t-24.5 -148.5t-69.5 -118.5t-110 -78t-146 -28zM390 64q63 0 111 22.5t81 61.5t49.5 93t16.5 117t-16.5 117t-49.5 93.5t-81 62
t-111 22.5t-111 -22.5t-81 -62t-49.5 -93.5t-16.5 -117t16.5 -117t49.5 -93t81 -61.5t111 -22.5zM433 855h78v-95h-78v95zM269 855h78v-95h-78v95z" />
    <glyph glyph-name="multiply" unicode="&#xd7;" horiz-adv-x="560" 
d="M72 160l164 166l-164 166l45 43l163 -165l163 165l45 -43l-164 -166l164 -166l-45 -43l-163 164l-163 -164z" />
    <glyph glyph-name="Oslash" unicode="&#xd8;" horiz-adv-x="780" 
d="M38 19l82 88q-39 49 -59.5 112.5t-20.5 138.5q0 80 24.5 148.5t69.5 118.5t110 78t146 28q72 0 131 -22.5t104 -63.5l79 84l38 -35l-81 -87q38 -49 58.5 -112t20.5 -137q0 -80 -24.5 -148.5t-69.5 -118.5t-110 -78t-146 -28q-72 0 -130.5 22t-103.5 62l-80 -85zM132 358
q0 -110 49 -187l387 413q-32 32 -76.5 50.5t-101.5 18.5q-63 0 -111 -22.5t-81 -62t-49.5 -93.5t-16.5 -117zM390 64q63 0 111 22.5t81 61.5t49.5 93t16.5 117q0 54 -12 100.5t-36 84.5l-387 -412q32 -32 76 -49.5t101 -17.5z" />
    <glyph glyph-name="Ugrave" unicode="&#xd9;" horiz-adv-x="658" 
d="M329 -11q-59 0 -109 13.5t-86.5 42.5t-57.5 75t-21 111v484h90v-475q0 -92 49 -133t138 -41q85 0 133 41t48 133v475h90v-484q0 -65 -21.5 -111t-58.5 -75t-87 -42.5t-107 -13.5zM221 874h100l51 -121h-69z" />
    <glyph glyph-name="Uacute" unicode="&#xda;" horiz-adv-x="658" 
d="M329 -11q-59 0 -109 13.5t-86.5 42.5t-57.5 75t-21 111v484h90v-475q0 -92 49 -133t138 -41q85 0 133 41t48 133v475h90v-484q0 -65 -21.5 -111t-58.5 -75t-87 -42.5t-107 -13.5zM343 874h100l-82 -121h-69z" />
    <glyph glyph-name="Ucircumflex" unicode="&#xdb;" horiz-adv-x="658" 
d="M329 -11q-59 0 -109 13.5t-86.5 42.5t-57.5 75t-21 111v484h90v-475q0 -92 49 -133t138 -41q85 0 133 41t48 133v475h90v-484q0 -65 -21.5 -111t-58.5 -75t-87 -42.5t-107 -13.5zM285 863h92l89 -106h-87l-49 63h-2l-51 -63h-85z" />
    <glyph glyph-name="Udieresis" unicode="&#xdc;" horiz-adv-x="658" 
d="M329 -11q-59 0 -109 13.5t-86.5 42.5t-57.5 75t-21 111v484h90v-475q0 -92 49 -133t138 -41q85 0 133 41t48 133v475h90v-484q0 -65 -21.5 -111t-58.5 -75t-87 -42.5t-107 -13.5zM372 855h78v-95h-78v95zM208 855h78v-95h-78v95z" />
    <glyph glyph-name="Yacute" unicode="&#xdd;" horiz-adv-x="631" 
d="M269 303l-259 412h100l205 -340h2l208 340h96l-262 -414v-301h-90v303zM329 874h100l-82 -121h-69z" />
    <glyph glyph-name="Thorn" unicode="&#xde;" horiz-adv-x="600" 
d="M67 715h90v-127h208q57 0 99.5 -18t70.5 -51q23 -26 35.5 -60.5t12.5 -75.5q0 -99 -56.5 -154.5t-174.5 -55.5h-195v-173h-90v715zM157 510v-264h188q76 0 112.5 35.5t36.5 97.5q0 65 -37.5 98t-106.5 33h-193z" />
    <glyph glyph-name="germandbls" unicode="&#xdf;" horiz-adv-x="503" 
d="M255 -11q-11 0 -25 1.5t-26 3.5v66h2q40 -8 74.5 -1.5t59.5 26t39.5 51t14.5 74.5q0 73 -40 114.5t-116 41.5h-27v62h30q56 0 91 33.5t35 87.5q0 48 -30 78.5t-84 30.5q-58 0 -87.5 -33t-29.5 -86v-539h-81v544q0 40 13.5 73t39.5 56.5t63.5 36.5t84.5 13q40 0 75 -12
t60.5 -34.5t40.5 -54t15 -70.5q0 -110 -108 -148v-2q28 -8 53.5 -24t44 -39t29.5 -54.5t11 -71.5q0 -51 -15.5 -92.5t-44 -70.5t-69.5 -45t-93 -16z" />
    <glyph glyph-name="agrave" unicode="&#xe0;" horiz-adv-x="510" 
d="M461 -5q-77 0 -89 77h-1q-12 -15 -28 -29.5t-37 -26.5t-47.5 -19t-59.5 -7q-37 0 -69 8.5t-55.5 26.5t-37 45t-13.5 64q0 46 17 75t47 47t71.5 27.5t89.5 17.5q27 4 50 8.5t39.5 12t25.5 20t9 33.5q0 44 -30 67.5t-86 23.5q-63 0 -95 -27.5t-34 -86.5h-78q1 37 14 69.5
t38.5 55.5t64 36.5t89.5 13.5q41 0 76 -8.5t60.5 -27.5t40 -50.5t14.5 -77.5v-246q0 -32 10.5 -47.5t44.5 -7.5h3v-59q-8 -3 -18 -5.5t-26 -2.5zM217 52q40 0 70 13.5t49 33.5t28.5 44.5t9.5 47.5v88q-20 -13 -52.5 -22.5t-65.5 -15.5q-30 -6 -57 -12t-46.5 -17.5t-31 -29.5
t-11.5 -46q0 -26 9.5 -42.5t24.5 -25.5t34 -12.5t39 -3.5zM148 725h100l51 -127h-69z" />
    <glyph glyph-name="aacute" unicode="&#xe1;" horiz-adv-x="510" 
d="M461 -5q-77 0 -89 77h-1q-12 -15 -28 -29.5t-37 -26.5t-47.5 -19t-59.5 -7q-37 0 -69 8.5t-55.5 26.5t-37 45t-13.5 64q0 46 17 75t47 47t71.5 27.5t89.5 17.5q27 4 50 8.5t39.5 12t25.5 20t9 33.5q0 44 -30 67.5t-86 23.5q-63 0 -95 -27.5t-34 -86.5h-78q1 37 14 69.5
t38.5 55.5t64 36.5t89.5 13.5q41 0 76 -8.5t60.5 -27.5t40 -50.5t14.5 -77.5v-246q0 -32 10.5 -47.5t44.5 -7.5h3v-59q-8 -3 -18 -5.5t-26 -2.5zM217 52q40 0 70 13.5t49 33.5t28.5 44.5t9.5 47.5v88q-20 -13 -52.5 -22.5t-65.5 -15.5q-30 -6 -57 -12t-46.5 -17.5t-31 -29.5
t-11.5 -46q0 -26 9.5 -42.5t24.5 -25.5t34 -12.5t39 -3.5zM275 725h100l-82 -127h-69z" />
    <glyph glyph-name="acircumflex" unicode="&#xe2;" horiz-adv-x="510" 
d="M461 -5q-77 0 -89 77h-1q-12 -15 -28 -29.5t-37 -26.5t-47.5 -19t-59.5 -7q-37 0 -69 8.5t-55.5 26.5t-37 45t-13.5 64q0 46 17 75t47 47t71.5 27.5t89.5 17.5q27 4 50 8.5t39.5 12t25.5 20t9 33.5q0 44 -30 67.5t-86 23.5q-63 0 -95 -27.5t-34 -86.5h-78q1 37 14 69.5
t38.5 55.5t64 36.5t89.5 13.5q41 0 76 -8.5t60.5 -27.5t40 -50.5t14.5 -77.5v-246q0 -32 10.5 -47.5t44.5 -7.5h3v-59q-8 -3 -18 -5.5t-26 -2.5zM217 52q40 0 70 13.5t49 33.5t28.5 44.5t9.5 47.5v88q-20 -13 -52.5 -22.5t-65.5 -15.5q-30 -6 -57 -12t-46.5 -17.5t-31 -29.5
t-11.5 -46q0 -26 9.5 -42.5t24.5 -25.5t34 -12.5t39 -3.5zM212 708h92l89 -106h-87l-49 63h-2l-51 -63h-85z" />
    <glyph glyph-name="atilde" unicode="&#xe3;" horiz-adv-x="510" 
d="M461 -5q-77 0 -89 77h-1q-12 -15 -28 -29.5t-37 -26.5t-47.5 -19t-59.5 -7q-37 0 -69 8.5t-55.5 26.5t-37 45t-13.5 64q0 46 17 75t47 47t71.5 27.5t89.5 17.5q27 4 50 8.5t39.5 12t25.5 20t9 33.5q0 44 -30 67.5t-86 23.5q-63 0 -95 -27.5t-34 -86.5h-78q1 37 14 69.5
t38.5 55.5t64 36.5t89.5 13.5q41 0 76 -8.5t60.5 -27.5t40 -50.5t14.5 -77.5v-246q0 -32 10.5 -47.5t44.5 -7.5h3v-59q-8 -3 -18 -5.5t-26 -2.5zM217 52q40 0 70 13.5t49 33.5t28.5 44.5t9.5 47.5v88q-20 -13 -52.5 -22.5t-65.5 -15.5q-30 -6 -57 -12t-46.5 -17.5t-31 -29.5
t-11.5 -46q0 -26 9.5 -42.5t24.5 -25.5t34 -12.5t39 -3.5zM320 601q-18 0 -35 5t-32.5 11t-29 11t-23.5 5q-11 0 -16.5 -8t-6.5 -22h-60q4 43 23 67.5t54 24.5q20 0 35.5 -5t29 -11t26 -11t26.5 -5t19.5 9t7.5 21h58q-2 -38 -19.5 -65t-56.5 -27z" />
    <glyph glyph-name="adieresis" unicode="&#xe4;" horiz-adv-x="510" 
d="M461 -5q-77 0 -89 77h-1q-12 -15 -28 -29.5t-37 -26.5t-47.5 -19t-59.5 -7q-37 0 -69 8.5t-55.5 26.5t-37 45t-13.5 64q0 46 17 75t47 47t71.5 27.5t89.5 17.5q27 4 50 8.5t39.5 12t25.5 20t9 33.5q0 44 -30 67.5t-86 23.5q-63 0 -95 -27.5t-34 -86.5h-78q1 37 14 69.5
t38.5 55.5t64 36.5t89.5 13.5q41 0 76 -8.5t60.5 -27.5t40 -50.5t14.5 -77.5v-246q0 -32 10.5 -47.5t44.5 -7.5h3v-59q-8 -3 -18 -5.5t-26 -2.5zM217 52q40 0 70 13.5t49 33.5t28.5 44.5t9.5 47.5v88q-20 -13 -52.5 -22.5t-65.5 -15.5q-30 -6 -57 -12t-46.5 -17.5t-31 -29.5
t-11.5 -46q0 -26 9.5 -42.5t24.5 -25.5t34 -12.5t39 -3.5zM299 710h78v-95h-78v95zM135 710h78v-95h-78v95z" />
    <glyph glyph-name="aring" unicode="&#xe5;" horiz-adv-x="510" 
d="M461 -5q-77 0 -89 77h-1q-12 -15 -28 -29.5t-37 -26.5t-47.5 -19t-59.5 -7q-37 0 -69 8.5t-55.5 26.5t-37 45t-13.5 64q0 46 17 75t47 47t71.5 27.5t89.5 17.5q27 4 50 8.5t39.5 12t25.5 20t9 33.5q0 44 -30 67.5t-86 23.5q-63 0 -95 -27.5t-34 -86.5h-78q1 37 14 69.5
t38.5 55.5t64 36.5t89.5 13.5q41 0 76 -8.5t60.5 -27.5t40 -50.5t14.5 -77.5v-246q0 -32 10.5 -47.5t44.5 -7.5h3v-59q-8 -3 -18 -5.5t-26 -2.5zM217 52q40 0 70 13.5t49 33.5t28.5 44.5t9.5 47.5v88q-20 -13 -52.5 -22.5t-65.5 -15.5q-30 -6 -57 -12t-46.5 -17.5t-31 -29.5
t-11.5 -46q0 -26 9.5 -42.5t24.5 -25.5t34 -12.5t39 -3.5zM256 559q-18 0 -34 6.5t-27.5 18t-18.5 27t-7 33.5t7 33.5t18.5 27t27.5 18t34 6.5t34 -6.5t27.5 -18t18.5 -27t7 -33.5t-7 -33.5t-18.5 -27t-27.5 -18t-34 -6.5zM256 594q21 0 34 14.5t13 35.5t-13 35.5t-34 14.5
t-34 -14.5t-13 -35.5t13 -35.5t34 -14.5z" />
    <glyph glyph-name="ae" unicode="&#xe6;" horiz-adv-x="841" 
d="M202 -10q-37 0 -69.5 9t-56.5 27.5t-38 46t-14 64.5q0 45 17 74t47.5 47t72 26.5t90.5 13.5q60 6 91 20.5t31 56.5q0 44 -28.5 67.5t-84.5 23.5q-124 0 -133 -114h-78q2 36 16 68t40 56t64.5 37.5t89.5 13.5q60 0 103.5 -18.5t63.5 -62.5q27 38 68.5 61t98.5 23
q56 0 98 -22t70 -60.5t42 -92t14 -116.5h-368q2 -39 12 -73t29 -59t47 -39t67 -14q51 0 81.5 28.5t41.5 77.5h79q-14 -82 -67.5 -128t-134.5 -46q-68 0 -115 28.5t-75 76.5h-2q-23 -33 -46.5 -53t-49 -30.5t-53.5 -14t-61 -3.5zM218 52q40 0 69.5 13.5t49 33.5t28.5 44.5
t9 47.5v79q-20 -11 -53 -19.5t-67 -12.5q-33 -4 -60 -9.5t-45.5 -16t-28.5 -28t-10 -45.5q0 -26 9.5 -43t24.5 -26.5t34.5 -13.5t39.5 -4zM593 466q-33 0 -58 -12.5t-42.5 -35t-27.5 -53t-14 -65.5h279q-2 78 -38.5 122t-98.5 44z" />
    <glyph glyph-name="ccedilla" unicode="&#xe7;" horiz-adv-x="519" 
d="M252 -191q-37 0 -63 8.5t-44 20.5l16 29q16 -7 34.5 -11t37.5 -4q25 0 41.5 7.5t16.5 24.5q0 28 -38 28q-14 0 -23 -2t-18 -5l-16 24l58 58q-53 4 -95 27t-71.5 59t-45.5 83.5t-16 101.5q0 56 17.5 105.5t50 86.5t78.5 58.5t104 21.5q92 0 149.5 -48.5t71.5 -131.5h-82
q-9 53 -44.5 83t-94.5 30q-41 0 -72.5 -16t-52.5 -44t-31.5 -65t-10.5 -80t10.5 -80t31.5 -64.5t52.5 -43.5t72.5 -16q63 0 99.5 34t41.5 94h80q-8 -86 -57 -136t-132 -58l-44 -37v-2q14 2 30 0t30 -9.5t23 -21t9 -33.5q0 -36 -29 -56t-75 -20z" />
    <glyph glyph-name="egrave" unicode="&#xe8;" horiz-adv-x="533" 
d="M276 -14q-59 0 -105.5 21.5t-78.5 58.5t-49 86.5t-17 105.5t17.5 105.5t50 86.5t77.5 58.5t100 21.5q58 0 102.5 -21.5t74.5 -60t45.5 -92t15.5 -117.5h-400q2 -39 14 -73t33 -59t51 -39t69 -14q57 0 93 26.5t50 79.5h79q-18 -84 -76 -129t-146 -45zM271 466
q-36 0 -64 -12.5t-47.5 -35t-32 -53t-16.5 -65.5h311q-4 78 -42.5 122t-108.5 44zM163 725h100l51 -127h-69z" />
    <glyph glyph-name="eacute" unicode="&#xe9;" horiz-adv-x="533" 
d="M276 -14q-59 0 -105.5 21.5t-78.5 58.5t-49 86.5t-17 105.5t17.5 105.5t50 86.5t77.5 58.5t100 21.5q58 0 102.5 -21.5t74.5 -60t45.5 -92t15.5 -117.5h-400q2 -39 14 -73t33 -59t51 -39t69 -14q57 0 93 26.5t50 79.5h79q-18 -84 -76 -129t-146 -45zM271 466
q-36 0 -64 -12.5t-47.5 -35t-32 -53t-16.5 -65.5h311q-4 78 -42.5 122t-108.5 44zM290 725h100l-82 -127h-69z" />
    <glyph glyph-name="ecircumflex" unicode="&#xea;" horiz-adv-x="533" 
d="M276 -14q-59 0 -105.5 21.5t-78.5 58.5t-49 86.5t-17 105.5t17.5 105.5t50 86.5t77.5 58.5t100 21.5q58 0 102.5 -21.5t74.5 -60t45.5 -92t15.5 -117.5h-400q2 -39 14 -73t33 -59t51 -39t69 -14q57 0 93 26.5t50 79.5h79q-18 -84 -76 -129t-146 -45zM271 466
q-36 0 -64 -12.5t-47.5 -35t-32 -53t-16.5 -65.5h311q-4 78 -42.5 122t-108.5 44zM227 708h92l89 -106h-87l-49 63h-2l-51 -63h-85z" />
    <glyph glyph-name="edieresis" unicode="&#xeb;" horiz-adv-x="533" 
d="M276 -14q-59 0 -105.5 21.5t-78.5 58.5t-49 86.5t-17 105.5t17.5 105.5t50 86.5t77.5 58.5t100 21.5q58 0 102.5 -21.5t74.5 -60t45.5 -92t15.5 -117.5h-400q2 -39 14 -73t33 -59t51 -39t69 -14q57 0 93 26.5t50 79.5h79q-18 -84 -76 -129t-146 -45zM271 466
q-36 0 -64 -12.5t-47.5 -35t-32 -53t-16.5 -65.5h311q-4 78 -42.5 122t-108.5 44zM314 710h78v-95h-78v95zM150 710h78v-95h-78v95z" />
    <glyph glyph-name="igrave" unicode="&#xec;" horiz-adv-x="191" 
d="M55 517h81v-517h-81v517zM138 598h-68l-77 127h99z" />
    <glyph glyph-name="iacute" unicode="&#xed;" horiz-adv-x="191" 
d="M109 725h99l-77 -127h-68zM55 517h81v-517h-81v517z" />
    <glyph glyph-name="icircumflex" unicode="&#xee;" horiz-adv-x="191" 
d="M51 708h92l74 -106h-82l-39 61h-2l-41 -61h-80zM55 517h81v-517h-81v517z" />
    <glyph glyph-name="idieresis" unicode="&#xef;" horiz-adv-x="191" 
d="M124 710h78v-95h-78v95zM-12 710h78v-95h-78v95zM55 517h81v-517h-81v517z" />
    <glyph glyph-name="eth" unicode="&#xf0;" horiz-adv-x="551" 
d="M276 641q-22 20 -44.5 38.5t-45.5 35.5h101q31 -21 65 -50l96 30l15 -44l-73 -23q27 -30 51.5 -66.5t43 -81t29.5 -96.5t11 -113q0 -62 -17 -114t-49.5 -90t-78.5 -59.5t-104 -21.5t-104 21.5t-78.5 58.5t-50 86.5t-17.5 105.5t16.5 105t47 85t75 57t100.5 21
q49 0 87 -21t65 -53q-18 43 -44.5 80.5t-58.5 71.5l-150 -46l-15 44zM276 54q41 0 72 16t52 44t31.5 66t10.5 81q0 42 -11 78.5t-32 63t-53 41.5t-74 15q-41 0 -71.5 -15.5t-50.5 -42.5t-30.5 -63.5t-10.5 -79.5t10.5 -80t31.5 -64.5t52.5 -43.5t72.5 -16z" />
    <glyph glyph-name="ntilde" unicode="&#xf1;" horiz-adv-x="528" 
d="M136 449h2q28 37 67.5 58.5t96.5 21.5q81 0 127.5 -42.5t46.5 -123.5v-363h-81v356q0 51 -31 78t-86 27q-31 0 -57 -10.5t-45 -29t-29.5 -45t-10.5 -58.5v-318h-81v517h81v-68zM329 601q-18 0 -35 5t-32.5 11t-29 11t-23.5 5q-11 0 -16.5 -8t-6.5 -22h-60q4 43 23 67.5
t54 24.5q20 0 35.5 -5t29 -11t26 -11t26.5 -5t19.5 9t7.5 21h58q-2 -38 -19.5 -65t-56.5 -27z" />
    <glyph glyph-name="ograve" unicode="&#xf2;" horiz-adv-x="551" 
d="M276 -14q-58 0 -104 21.5t-78.5 58.5t-50 86.5t-17.5 105.5t17.5 105.5t50 86.5t78.5 58.5t104 21.5t104 -21.5t78.5 -58.5t49.5 -86.5t17 -105.5t-17 -105.5t-49.5 -86.5t-78.5 -58.5t-104 -21.5zM276 54q41 0 72 16t52 43.5t31.5 64.5t10.5 80t-10.5 80t-31.5 65
t-52 44t-72 16t-72.5 -16t-52.5 -44t-31.5 -65t-10.5 -80t10.5 -80t31.5 -64.5t52.5 -43.5t72.5 -16zM167 725h100l51 -127h-69z" />
    <glyph glyph-name="oacute" unicode="&#xf3;" horiz-adv-x="551" 
d="M276 -14q-58 0 -104 21.5t-78.5 58.5t-50 86.5t-17.5 105.5t17.5 105.5t50 86.5t78.5 58.5t104 21.5t104 -21.5t78.5 -58.5t49.5 -86.5t17 -105.5t-17 -105.5t-49.5 -86.5t-78.5 -58.5t-104 -21.5zM276 54q41 0 72 16t52 43.5t31.5 64.5t10.5 80t-10.5 80t-31.5 65
t-52 44t-72 16t-72.5 -16t-52.5 -44t-31.5 -65t-10.5 -80t10.5 -80t31.5 -64.5t52.5 -43.5t72.5 -16zM294 725h100l-82 -127h-69z" />
    <glyph glyph-name="ocircumflex" unicode="&#xf4;" horiz-adv-x="551" 
d="M276 -14q-58 0 -104 21.5t-78.5 58.5t-50 86.5t-17.5 105.5t17.5 105.5t50 86.5t78.5 58.5t104 21.5t104 -21.5t78.5 -58.5t49.5 -86.5t17 -105.5t-17 -105.5t-49.5 -86.5t-78.5 -58.5t-104 -21.5zM276 54q41 0 72 16t52 43.5t31.5 64.5t10.5 80t-10.5 80t-31.5 65
t-52 44t-72 16t-72.5 -16t-52.5 -44t-31.5 -65t-10.5 -80t10.5 -80t31.5 -64.5t52.5 -43.5t72.5 -16zM231 708h92l89 -106h-87l-49 63h-2l-51 -63h-85z" />
    <glyph glyph-name="otilde" unicode="&#xf5;" horiz-adv-x="551" 
d="M276 -14q-58 0 -104 21.5t-78.5 58.5t-50 86.5t-17.5 105.5t17.5 105.5t50 86.5t78.5 58.5t104 21.5t104 -21.5t78.5 -58.5t49.5 -86.5t17 -105.5t-17 -105.5t-49.5 -86.5t-78.5 -58.5t-104 -21.5zM276 54q41 0 72 16t52 43.5t31.5 64.5t10.5 80t-10.5 80t-31.5 65
t-52 44t-72 16t-72.5 -16t-52.5 -44t-31.5 -65t-10.5 -80t10.5 -80t31.5 -64.5t52.5 -43.5t72.5 -16zM339 601q-18 0 -35 5t-32.5 11t-29 11t-23.5 5q-11 0 -16.5 -8t-6.5 -22h-60q4 43 23 67.5t54 24.5q20 0 35.5 -5t29 -11t26 -11t26.5 -5t19.5 9t7.5 21h58
q-2 -38 -19.5 -65t-56.5 -27z" />
    <glyph glyph-name="odieresis" unicode="&#xf6;" horiz-adv-x="551" 
d="M276 -14q-58 0 -104 21.5t-78.5 58.5t-50 86.5t-17.5 105.5t17.5 105.5t50 86.5t78.5 58.5t104 21.5t104 -21.5t78.5 -58.5t49.5 -86.5t17 -105.5t-17 -105.5t-49.5 -86.5t-78.5 -58.5t-104 -21.5zM276 54q41 0 72 16t52 43.5t31.5 64.5t10.5 80t-10.5 80t-31.5 65
t-52 44t-72 16t-72.5 -16t-52.5 -44t-31.5 -65t-10.5 -80t10.5 -80t31.5 -64.5t52.5 -43.5t72.5 -16zM318 710h78v-95h-78v95zM154 710h78v-95h-78v95z" />
    <glyph glyph-name="divide" unicode="&#xf7;" horiz-adv-x="560" 
d="M53 358h454v-64h-454v64zM232 204h97v-99h-97v99zM232 547h97v-99h-97v99z" />
    <glyph glyph-name="oslash" unicode="&#xf8;" horiz-adv-x="551" 
d="M22 14l60 65q-27 36 -41.5 81.5t-14.5 97.5q0 56 17.5 105.5t50 86.5t78.5 58.5t104 21.5q51 0 92 -16.5t73 -45.5l57 62l30 -28l-59 -64q27 -36 41.5 -82t14.5 -98q0 -56 -17 -105.5t-49.5 -86.5t-78.5 -58.5t-104 -21.5q-51 0 -92.5 17t-73.5 46l-58 -63zM276 54
q41 0 72 16t52 43.5t31.5 64.5t10.5 80q0 70 -27 121l-256 -276q21 -23 50 -36t67 -13zM109 258q0 -70 27 -121l255 277q-20 23 -49 36t-66 13q-41 0 -72.5 -16t-52.5 -44t-31.5 -65t-10.5 -80z" />
    <glyph glyph-name="ugrave" unicode="&#xf9;" horiz-adv-x="520" 
d="M384 0v71h-2q-28 -38 -63.5 -60.5t-92.5 -22.5q-80 0 -127 45t-47 126v358h81v-356q0 -51 30.5 -78.5t85.5 -27.5q31 0 56 11t42.5 30.5t27 45.5t9.5 57v318h81v-517h-81zM154 725h100l51 -127h-69z" />
    <glyph glyph-name="uacute" unicode="&#xfa;" horiz-adv-x="520" 
d="M384 0v71h-2q-28 -38 -63.5 -60.5t-92.5 -22.5q-80 0 -127 45t-47 126v358h81v-356q0 -51 30.5 -78.5t85.5 -27.5q31 0 56 11t42.5 30.5t27 45.5t9.5 57v318h81v-517h-81zM281 725h100l-82 -127h-69z" />
    <glyph glyph-name="ucircumflex" unicode="&#xfb;" horiz-adv-x="520" 
d="M384 0v71h-2q-28 -38 -63.5 -60.5t-92.5 -22.5q-80 0 -127 45t-47 126v358h81v-356q0 -51 30.5 -78.5t85.5 -27.5q31 0 56 11t42.5 30.5t27 45.5t9.5 57v318h81v-517h-81zM218 708h92l89 -106h-87l-49 63h-2l-51 -63h-85z" />
    <glyph glyph-name="udieresis" unicode="&#xfc;" horiz-adv-x="520" 
d="M384 0v71h-2q-28 -38 -63.5 -60.5t-92.5 -22.5q-80 0 -127 45t-47 126v358h81v-356q0 -51 30.5 -78.5t85.5 -27.5q31 0 56 11t42.5 30.5t27 45.5t9.5 57v318h81v-517h-81zM305 710h78v-95h-78v95zM141 710h78v-95h-78v95z" />
    <glyph glyph-name="yacute" unicode="&#xfd;" horiz-adv-x="489" 
d="M121 -171q-23 0 -39.5 2t-33.5 9v72h4q8 -5 21.5 -8t33.5 -3q26 0 44 12.5t33 50.5l20 51l-202 502h88l122 -322q6 -17 12 -34.5t11 -32.5q6 -18 12 -34h2q5 16 11 34q5 15 11 32.5t12 34.5l118 322h86l-221 -559q-16 -40 -31.5 -65t-33 -39.5t-37 -19.5t-43.5 -5z
M268 725h100l-82 -127h-69z" />
    <glyph glyph-name="thorn" unicode="&#xfe;" horiz-adv-x="552" 
d="M301 -15q-53 0 -92 17t-71 59h-2v-227h-81v881h81v-271h2q29 40 69 62.5t97 22.5q49 0 90 -18.5t70 -53t45.5 -85.5t16.5 -115q0 -62 -15.5 -112.5t-44.5 -86t-71 -54.5t-94 -19zM295 53q37 0 65 15.5t46.5 42.5t27.5 64t9 81q0 43 -9 80.5t-27.5 65t-46 43t-64.5 15.5
q-42 0 -73.5 -16t-51.5 -44t-30 -65t-10 -79t9 -79t28.5 -64.5t50.5 -43.5t76 -16z" />
    <glyph glyph-name="ydieresis" unicode="&#xff;" horiz-adv-x="489" 
d="M121 -171q-23 0 -39.5 2t-33.5 9v72h4q8 -5 21.5 -8t33.5 -3q26 0 44 12.5t33 50.5l20 51l-202 502h88l122 -322q6 -17 12 -34.5t11 -32.5q6 -18 12 -34h2q5 16 11 34q5 15 11 32.5t12 34.5l118 322h86l-221 -559q-16 -40 -31.5 -65t-33 -39.5t-37 -19.5t-43.5 -5z
M292 710h78v-95h-78v95zM128 710h78v-95h-78v95z" />
    <glyph glyph-name="Amacron" unicode="&#x100;" horiz-adv-x="648" 
d="M273 715h101l264 -715h-98l-76 218h-285l-77 -218h-92zM205 291h234l-82 240q-5 15 -10.5 32.5t-10.5 32.5q-5 18 -11 36h-2q-6 -17 -11 -35l-11 -33l-11 -33zM197 827h258v-67h-258v67z" />
    <glyph glyph-name="amacron" unicode="&#x101;" horiz-adv-x="510" 
d="M461 -5q-77 0 -89 77h-1q-12 -15 -28 -29.5t-37 -26.5t-47.5 -19t-59.5 -7q-37 0 -69 8.5t-55.5 26.5t-37 45t-13.5 64q0 46 17 75t47 47t71.5 27.5t89.5 17.5q27 4 50 8.5t39.5 12t25.5 20t9 33.5q0 44 -30 67.5t-86 23.5q-63 0 -95 -27.5t-34 -86.5h-78q1 37 14 69.5
t38.5 55.5t64 36.5t89.5 13.5q41 0 76 -8.5t60.5 -27.5t40 -50.5t14.5 -77.5v-246q0 -32 10.5 -47.5t44.5 -7.5h3v-59q-8 -3 -18 -5.5t-26 -2.5zM217 52q40 0 70 13.5t49 33.5t28.5 44.5t9.5 47.5v88q-20 -13 -52.5 -22.5t-65.5 -15.5q-30 -6 -57 -12t-46.5 -17.5t-31 -29.5
t-11.5 -46q0 -26 9.5 -42.5t24.5 -25.5t34 -12.5t39 -3.5zM127 689h258v-67h-258v67z" />
    <glyph glyph-name="Abreve" unicode="&#x102;" horiz-adv-x="648" 
d="M273 715h101l264 -715h-98l-76 218h-285l-77 -218h-92zM205 291h234l-82 240q-5 15 -10.5 32.5t-10.5 32.5q-5 18 -11 36h-2q-6 -17 -11 -35l-11 -33l-11 -33zM326 759q-26 0 -48 8t-39.5 22.5t-28 35t-11.5 45.5h60q5 -23 20.5 -36t45.5 -13t47.5 13t22.5 36h58
q-1 -23 -10.5 -43t-26 -35t-39.5 -24t-51 -9z" />
    <glyph glyph-name="abreve" unicode="&#x103;" horiz-adv-x="510" 
d="M461 -5q-77 0 -89 77h-1q-12 -15 -28 -29.5t-37 -26.5t-47.5 -19t-59.5 -7q-37 0 -69 8.5t-55.5 26.5t-37 45t-13.5 64q0 46 17 75t47 47t71.5 27.5t89.5 17.5q27 4 50 8.5t39.5 12t25.5 20t9 33.5q0 44 -30 67.5t-86 23.5q-63 0 -95 -27.5t-34 -86.5h-78q1 37 14 69.5
t38.5 55.5t64 36.5t89.5 13.5q41 0 76 -8.5t60.5 -27.5t40 -50.5t14.5 -77.5v-246q0 -32 10.5 -47.5t44.5 -7.5h3v-59q-8 -3 -18 -5.5t-26 -2.5zM217 52q40 0 70 13.5t49 33.5t28.5 44.5t9.5 47.5v88q-20 -13 -52.5 -22.5t-65.5 -15.5q-30 -6 -57 -12t-46.5 -17.5t-31 -29.5
t-11.5 -46q0 -26 9.5 -42.5t24.5 -25.5t34 -12.5t39 -3.5zM256 604q-26 0 -48 8t-39.5 22.5t-28 35t-11.5 45.5h60q5 -23 20.5 -36t45.5 -13t47.5 13t22.5 36h58q-1 -23 -10.5 -43t-26 -35t-39.5 -24t-51 -9z" />
    <glyph glyph-name="Aogonek" unicode="&#x104;" horiz-adv-x="648" 
d="M592 -172q-50 0 -75.5 22t-25.5 57q0 27 15.5 49t35.5 38l-78 224h-285l-77 -218h-92l263 715h101l261 -706q-30 -24 -49 -46t-19 -43q0 -34 40 -34q21 0 37 7h3v-56q-10 -3 -23.5 -6t-31.5 -3zM205 291h234l-82 240q-5 15 -10.5 32.5t-10.5 32.5q-5 18 -11 36h-2
q-6 -17 -11 -35l-11 -33l-11 -33z" />
    <glyph glyph-name="aogonek" unicode="&#x105;" horiz-adv-x="510" 
d="M452 -172q-50 0 -75.5 22t-25.5 57q0 17 6.5 31.5t17 26t23 20.5t24.5 15q-41 15 -50 72h-1q-12 -15 -28 -29.5t-37 -26.5t-47.5 -19t-59.5 -7q-37 0 -69 8.5t-55.5 26.5t-37 45t-13.5 64q0 46 17 75t47 47t71.5 27.5t89.5 17.5q27 4 50 8.5t39.5 12t25.5 20t9 33.5
q0 44 -30 67.5t-86 23.5q-63 0 -95 -27.5t-34 -86.5h-78q1 37 14 69.5t38.5 55.5t64 36.5t89.5 13.5q41 0 76 -8.5t60.5 -27.5t40 -50.5t14.5 -77.5v-246q0 -32 10.5 -47.5t44.5 -7.5h3v-59q-33 -10 -55.5 -35t-22.5 -48q0 -34 40 -34q21 0 37 7h3v-56q-10 -3 -23.5 -6
t-31.5 -3zM217 52q40 0 70 13.5t49 33.5t28.5 44.5t9.5 47.5v88q-20 -13 -52.5 -22.5t-65.5 -15.5q-30 -6 -57 -12t-46.5 -17.5t-31 -29.5t-11.5 -46q0 -26 9.5 -42.5t24.5 -25.5t34 -12.5t39 -3.5z" />
    <glyph glyph-name="Cacute" unicode="&#x106;" horiz-adv-x="709" 
d="M375 -14q-76 0 -138 27.5t-105.5 77t-67.5 118t-24 149.5q0 79 23 147t66.5 118t106.5 79t143 29q63 0 113 -17t86 -47.5t58.5 -72.5t29.5 -91h-88q-13 67 -64.5 108.5t-136.5 41.5q-59 0 -104.5 -22.5t-77 -62t-47.5 -93.5t-16 -117q0 -66 17.5 -120t49.5 -92.5
t77.5 -59.5t101.5 -21q51 0 88.5 16t63 43t39.5 63t17 75h89q-1 -54 -24.5 -108.5t-61.5 -92.5q-77 -75 -214 -75zM387 874h100l-82 -121h-69z" />
    <glyph glyph-name="cacute" unicode="&#x107;" horiz-adv-x="519" 
d="M276 -14q-58 0 -104 21.5t-78.5 58.5t-50 86.5t-17.5 105.5t17.5 105.5t50 86.5t78.5 58.5t104 21.5q92 0 149.5 -48.5t71.5 -131.5h-82q-9 53 -44.5 83t-94.5 30q-41 0 -72.5 -16t-52.5 -44t-31.5 -65t-10.5 -80t10.5 -80t31.5 -64.5t52.5 -43.5t72.5 -16q63 0 99.5 34
t41.5 94h80q-8 -94 -66 -145t-155 -51zM297 725h100l-82 -127h-69z" />
    <glyph glyph-name="Ccircumflex" unicode="&#x108;" horiz-adv-x="709" 
d="M375 -14q-76 0 -138 27.5t-105.5 77t-67.5 118t-24 149.5q0 79 23 147t66.5 118t106.5 79t143 29q63 0 113 -17t86 -47.5t58.5 -72.5t29.5 -91h-88q-13 67 -64.5 108.5t-136.5 41.5q-59 0 -104.5 -22.5t-77 -62t-47.5 -93.5t-16 -117q0 -66 17.5 -120t49.5 -92.5
t77.5 -59.5t101.5 -21q51 0 88.5 16t63 43t39.5 63t17 75h89q-1 -54 -24.5 -108.5t-61.5 -92.5q-77 -75 -214 -75zM329 863h92l89 -106h-87l-49 63h-2l-51 -63h-85z" />
    <glyph glyph-name="ccircumflex" unicode="&#x109;" horiz-adv-x="519" 
d="M276 -14q-58 0 -104 21.5t-78.5 58.5t-50 86.5t-17.5 105.5t17.5 105.5t50 86.5t78.5 58.5t104 21.5q92 0 149.5 -48.5t71.5 -131.5h-82q-9 53 -44.5 83t-94.5 30q-41 0 -72.5 -16t-52.5 -44t-31.5 -65t-10.5 -80t10.5 -80t31.5 -64.5t52.5 -43.5t72.5 -16q63 0 99.5 34
t41.5 94h80q-8 -94 -66 -145t-155 -51zM234 708h92l89 -106h-87l-49 63h-2l-51 -63h-85z" />
    <glyph glyph-name="Cdotaccent" unicode="&#x10a;" horiz-adv-x="709" 
d="M375 -14q-76 0 -138 27.5t-105.5 77t-67.5 118t-24 149.5q0 79 23 147t66.5 118t106.5 79t143 29q63 0 113 -17t86 -47.5t58.5 -72.5t29.5 -91h-88q-13 67 -64.5 108.5t-136.5 41.5q-59 0 -104.5 -22.5t-77 -62t-47.5 -93.5t-16 -117q0 -66 17.5 -120t49.5 -92.5
t77.5 -59.5t101.5 -21q51 0 88.5 16t63 43t39.5 63t17 75h89q-1 -54 -24.5 -108.5t-61.5 -92.5q-77 -75 -214 -75zM334 855h78v-95h-78v95z" />
    <glyph glyph-name="cdotaccent" unicode="&#x10b;" horiz-adv-x="519" 
d="M276 -14q-58 0 -104 21.5t-78.5 58.5t-50 86.5t-17.5 105.5t17.5 105.5t50 86.5t78.5 58.5t104 21.5q92 0 149.5 -48.5t71.5 -131.5h-82q-9 53 -44.5 83t-94.5 30q-41 0 -72.5 -16t-52.5 -44t-31.5 -65t-10.5 -80t10.5 -80t31.5 -64.5t52.5 -43.5t72.5 -16q63 0 99.5 34
t41.5 94h80q-8 -94 -66 -145t-155 -51zM238 715h81v-100h-81v100z" />
    <glyph glyph-name="Ccaron" unicode="&#x10c;" horiz-adv-x="709" 
d="M375 -14q-76 0 -138 27.5t-105.5 77t-67.5 118t-24 149.5q0 79 23 147t66.5 118t106.5 79t143 29q63 0 113 -17t86 -47.5t58.5 -72.5t29.5 -91h-88q-13 67 -64.5 108.5t-136.5 41.5q-59 0 -104.5 -22.5t-77 -62t-47.5 -93.5t-16 -117q0 -66 17.5 -120t49.5 -92.5
t77.5 -59.5t101.5 -21q51 0 88.5 16t63 43t39.5 63t17 75h89q-1 -54 -24.5 -108.5t-61.5 -92.5q-77 -75 -214 -75zM236 863h87l49 -63h2l51 63h85l-93 -106h-92z" />
    <glyph glyph-name="ccaron" unicode="&#x10d;" horiz-adv-x="519" 
d="M276 -14q-58 0 -104 21.5t-78.5 58.5t-50 86.5t-17.5 105.5t17.5 105.5t50 86.5t78.5 58.5t104 21.5q92 0 149.5 -48.5t71.5 -131.5h-82q-9 53 -44.5 83t-94.5 30q-41 0 -72.5 -16t-52.5 -44t-31.5 -65t-10.5 -80t10.5 -80t31.5 -64.5t52.5 -43.5t72.5 -16q63 0 99.5 34
t41.5 94h80q-8 -94 -66 -145t-155 -51zM141 708h87l49 -63h2l51 63h85l-93 -106h-92z" />
    <glyph glyph-name="Dcaron" unicode="&#x10e;" horiz-adv-x="684" 
d="M67 715h260q81 0 140.5 -26t98.5 -73.5t58.5 -114t19.5 -146.5t-20.5 -145.5t-61 -112t-101 -72t-141.5 -25.5h-253v715zM317 79q63 0 107.5 19.5t73 55.5t41.5 87t13 114t-12 115t-39 89t-70.5 57.5t-106.5 20.5h-167v-558h160zM177 863h87l49 -63h2l51 63h85l-93 -106
h-92z" />
    <glyph glyph-name="dcaron" unicode="&#x10f;" horiz-adv-x="553" 
d="M255 -15q-53 0 -95.5 19t-72 54.5t-45.5 86t-16 112.5q0 64 17.5 115t48 85.5t72 53t89.5 18.5q55 0 96 -24t66 -61h2v271h81v-715h-81v63h-2q-29 -38 -67 -58t-93 -20zM258 53q43 0 74 15.5t51 42.5t29.5 64t9.5 81q0 45 -10.5 82.5t-31.5 64.5t-52 42t-71 15
q-37 0 -64.5 -15.5t-46 -43t-28 -65t-9.5 -80.5q0 -44 9.5 -81t28 -64t46.5 -42.5t65 -15.5zM636 635q0 -45 -25 -66t-60 -26v38q20 6 30 17.5t10 36.5h-40v80h85v-80z" />
    <glyph glyph-name="Dcroat" unicode="&#x110;" horiz-adv-x="695" 
d="M5 397h73v318h260q81 0 140.5 -26t98.5 -73.5t58.5 -114t19.5 -146.5t-20.5 -145.5t-61 -112t-101 -72t-141.5 -25.5h-253v321h-73v76zM328 79q63 0 107.5 19.5t73 55.5t41.5 87t13 114t-12 115t-39 89t-70.5 57.5t-106.5 20.5h-167v-240h207v-76h-207v-242h160z" />
    <glyph glyph-name="dcroat" unicode="&#x111;" horiz-adv-x="553" 
d="M282 641h135v74h81v-74h63v-63h-63v-578h-81v63h-2q-29 -38 -67 -58t-93 -20q-53 0 -95.5 19t-72 54.5t-45.5 86t-16 112.5q0 64 17.5 115t48 85.5t72 53t89.5 18.5q55 0 96 -24t66 -61h2v134h-135v63zM258 53q43 0 74 15.5t51 42.5t29.5 64t9.5 81q0 45 -10.5 82.5
t-31.5 64.5t-52 42t-71 15q-37 0 -64.5 -15.5t-46 -43t-28 -65t-9.5 -80.5q0 -44 9.5 -81t28 -64t46.5 -42.5t65 -15.5z" />
    <glyph glyph-name="Emacron" unicode="&#x112;" 
d="M67 715h505v-79h-415v-226h377v-76h-377v-251h427v-83h-517v715zM202 827h258v-67h-258v67z" />
    <glyph glyph-name="emacron" unicode="&#x113;" horiz-adv-x="533" 
d="M276 -14q-59 0 -105.5 21.5t-78.5 58.5t-49 86.5t-17 105.5t17.5 105.5t50 86.5t77.5 58.5t100 21.5q58 0 102.5 -21.5t74.5 -60t45.5 -92t15.5 -117.5h-400q2 -39 14 -73t33 -59t51 -39t69 -14q57 0 93 26.5t50 79.5h79q-18 -84 -76 -129t-146 -45zM271 466
q-36 0 -64 -12.5t-47.5 -35t-32 -53t-16.5 -65.5h311q-4 78 -42.5 122t-108.5 44zM142 689h258v-67h-258v67z" />
    <glyph glyph-name="Ebreve" unicode="&#x114;" 
d="M67 715h505v-79h-415v-226h377v-76h-377v-251h427v-83h-517v715zM331 759q-26 0 -48 8t-39.5 22.5t-28 35t-11.5 45.5h60q5 -23 20.5 -36t45.5 -13t47.5 13t22.5 36h58q-1 -23 -10.5 -43t-26 -35t-39.5 -24t-51 -9z" />
    <glyph glyph-name="ebreve" unicode="&#x115;" horiz-adv-x="533" 
d="M276 -14q-59 0 -105.5 21.5t-78.5 58.5t-49 86.5t-17 105.5t17.5 105.5t50 86.5t77.5 58.5t100 21.5q58 0 102.5 -21.5t74.5 -60t45.5 -92t15.5 -117.5h-400q2 -39 14 -73t33 -59t51 -39t69 -14q57 0 93 26.5t50 79.5h79q-18 -84 -76 -129t-146 -45zM271 466
q-36 0 -64 -12.5t-47.5 -35t-32 -53t-16.5 -65.5h311q-4 78 -42.5 122t-108.5 44zM271 604q-26 0 -48 8t-39.5 22.5t-28 35t-11.5 45.5h60q5 -23 20.5 -36t45.5 -13t47.5 13t22.5 36h58q-1 -23 -10.5 -43t-26 -35t-39.5 -24t-51 -9z" />
    <glyph glyph-name="Edotaccent" unicode="&#x116;" 
d="M67 715h505v-79h-415v-226h377v-76h-377v-251h427v-83h-517v715zM292 855h78v-95h-78v95z" />
    <glyph glyph-name="edotaccent" unicode="&#x117;" horiz-adv-x="533" 
d="M276 -14q-59 0 -105.5 21.5t-78.5 58.5t-49 86.5t-17 105.5t17.5 105.5t50 86.5t77.5 58.5t100 21.5q58 0 102.5 -21.5t74.5 -60t45.5 -92t15.5 -117.5h-400q2 -39 14 -73t33 -59t51 -39t69 -14q57 0 93 26.5t50 79.5h79q-18 -84 -76 -129t-146 -45zM271 466
q-36 0 -64 -12.5t-47.5 -35t-32 -53t-16.5 -65.5h311q-4 78 -42.5 122t-108.5 44zM231 715h81v-100h-81v100z" />
    <glyph glyph-name="Eogonek" unicode="&#x118;" 
d="M67 715h505v-79h-415v-226h377v-76h-377v-251h427v-83h-61q-23 -19 -40.5 -39t-17.5 -41q0 -34 40 -34q21 0 37 7h3v-56q-10 -3 -23.5 -6t-31.5 -3q-50 0 -75.5 22t-25.5 57q0 30 19 54.5t42 38.5h-383v715z" />
    <glyph glyph-name="eogonek" unicode="&#x119;" horiz-adv-x="533" 
d="M361 -172q-50 0 -75.5 22t-25.5 57q0 27 16 47t36 34q-9 -1 -18 -1.5t-18 -0.5q-59 0 -105.5 21.5t-78.5 58.5t-49 86.5t-17 105.5t17.5 105.5t50 86.5t77.5 58.5t100 21.5q58 0 102.5 -21.5t74.5 -60t45.5 -92t15.5 -117.5h-400q2 -39 14 -73t33 -59t51 -39t69 -14
q57 0 93 26.5t50 79.5h79q-10 -45 -30 -76.5t-50 -58.5q-35 -32 -58.5 -57t-23.5 -48q0 -34 40 -34q21 0 37 7h3v-56q-10 -3 -23.5 -6t-31.5 -3zM271 466q-36 0 -64 -12.5t-47.5 -35t-32 -53t-16.5 -65.5h311q-4 78 -42.5 122t-108.5 44z" />
    <glyph glyph-name="Ecaron" unicode="&#x11a;" 
d="M67 715h505v-79h-415v-226h377v-76h-377v-251h427v-83h-517v715zM194 863h87l49 -63h2l51 63h85l-93 -106h-92z" />
    <glyph glyph-name="ecaron" unicode="&#x11b;" horiz-adv-x="533" 
d="M276 -14q-59 0 -105.5 21.5t-78.5 58.5t-49 86.5t-17 105.5t17.5 105.5t50 86.5t77.5 58.5t100 21.5q58 0 102.5 -21.5t74.5 -60t45.5 -92t15.5 -117.5h-400q2 -39 14 -73t33 -59t51 -39t69 -14q57 0 93 26.5t50 79.5h79q-18 -84 -76 -129t-146 -45zM271 466
q-36 0 -64 -12.5t-47.5 -35t-32 -53t-16.5 -65.5h311q-4 78 -42.5 122t-108.5 44zM134 708h87l49 -63h2l51 63h85l-93 -106h-92z" />
    <glyph glyph-name="Gcircumflex" unicode="&#x11c;" horiz-adv-x="742" 
d="M601 94h-2q-39 -55 -95.5 -82t-127.5 -27q-75 0 -137 27.5t-106.5 76.5t-68.5 117t-24 149q0 79 22 147.5t65.5 119t108 79.5t148.5 29q62 0 112 -16.5t87 -46.5t60 -72.5t32 -94.5h-93q-15 72 -65 112t-135 40q-65 0 -112 -23t-77.5 -62.5t-45.5 -94t-15 -117.5
q0 -66 18 -119.5t51 -92t78.5 -59.5t99.5 -21q55 0 95.5 17.5t67.5 47.5t40 70t13 85v17h-215v78h305v-378h-58zM334 863h92l89 -106h-87l-49 63h-2l-51 -63h-85z" />
    <glyph glyph-name="gcircumflex" unicode="&#x11d;" horiz-adv-x="543" 
d="M261 -172q-101 0 -156.5 38t-62.5 105h75q6 -43 44 -61t98 -18q72 0 110 32.5t38 100.5v73h-2q-29 -37 -63 -58.5t-90 -21.5q-50 0 -91.5 19t-71.5 53t-46.5 81t-16.5 103q0 60 17.5 107.5t48 80.5t70.5 50t85 17q57 0 94.5 -20.5t63.5 -57.5h2v66h81v-489
q0 -51 -16 -88.5t-46 -62.5t-72 -37t-93 -12zM256 86q45 0 75 14.5t48 40.5t26 61t8 76q0 85 -37.5 134t-120.5 49q-73 0 -109.5 -52t-36.5 -136q0 -85 37.5 -136t109.5 -51zM222 708h92l89 -106h-87l-49 63h-2l-51 -63h-85z" />
    <glyph glyph-name="Gbreve" unicode="&#x11e;" horiz-adv-x="742" 
d="M601 94h-2q-39 -55 -95.5 -82t-127.5 -27q-75 0 -137 27.5t-106.5 76.5t-68.5 117t-24 149q0 79 22 147.5t65.5 119t108 79.5t148.5 29q62 0 112 -16.5t87 -46.5t60 -72.5t32 -94.5h-93q-15 72 -65 112t-135 40q-65 0 -112 -23t-77.5 -62.5t-45.5 -94t-15 -117.5
q0 -66 18 -119.5t51 -92t78.5 -59.5t99.5 -21q55 0 95.5 17.5t67.5 47.5t40 70t13 85v17h-215v78h305v-378h-58zM378 759q-26 0 -48 8t-39.5 22.5t-28 35t-11.5 45.5h60q5 -23 20.5 -36t45.5 -13t47.5 13t22.5 36h58q-1 -23 -10.5 -43t-26 -35t-39.5 -24t-51 -9z" />
    <glyph glyph-name="gbreve" unicode="&#x11f;" horiz-adv-x="543" 
d="M261 -172q-101 0 -156.5 38t-62.5 105h75q6 -43 44 -61t98 -18q72 0 110 32.5t38 100.5v73h-2q-29 -37 -63 -58.5t-90 -21.5q-50 0 -91.5 19t-71.5 53t-46.5 81t-16.5 103q0 60 17.5 107.5t48 80.5t70.5 50t85 17q57 0 94.5 -20.5t63.5 -57.5h2v66h81v-489
q0 -51 -16 -88.5t-46 -62.5t-72 -37t-93 -12zM256 86q45 0 75 14.5t48 40.5t26 61t8 76q0 85 -37.5 134t-120.5 49q-73 0 -109.5 -52t-36.5 -136q0 -85 37.5 -136t109.5 -51zM266 604q-26 0 -48 8t-39.5 22.5t-28 35t-11.5 45.5h60q5 -23 20.5 -36t45.5 -13t47.5 13t22.5 36
h58q-1 -23 -10.5 -43t-26 -35t-39.5 -24t-51 -9z" />
    <glyph glyph-name="Gdotaccent" unicode="&#x120;" horiz-adv-x="742" 
d="M601 94h-2q-39 -55 -95.5 -82t-127.5 -27q-75 0 -137 27.5t-106.5 76.5t-68.5 117t-24 149q0 79 22 147.5t65.5 119t108 79.5t148.5 29q62 0 112 -16.5t87 -46.5t60 -72.5t32 -94.5h-93q-15 72 -65 112t-135 40q-65 0 -112 -23t-77.5 -62.5t-45.5 -94t-15 -117.5
q0 -66 18 -119.5t51 -92t78.5 -59.5t99.5 -21q55 0 95.5 17.5t67.5 47.5t40 70t13 85v17h-215v78h305v-378h-58zM339 855h78v-95h-78v95z" />
    <glyph glyph-name="gdotaccent" unicode="&#x121;" horiz-adv-x="543" 
d="M261 -172q-101 0 -156.5 38t-62.5 105h75q6 -43 44 -61t98 -18q72 0 110 32.5t38 100.5v73h-2q-29 -37 -63 -58.5t-90 -21.5q-50 0 -91.5 19t-71.5 53t-46.5 81t-16.5 103q0 60 17.5 107.5t48 80.5t70.5 50t85 17q57 0 94.5 -20.5t63.5 -57.5h2v66h81v-489
q0 -51 -16 -88.5t-46 -62.5t-72 -37t-93 -12zM256 86q45 0 75 14.5t48 40.5t26 61t8 76q0 85 -37.5 134t-120.5 49q-73 0 -109.5 -52t-36.5 -136q0 -85 37.5 -136t109.5 -51zM226 715h81v-100h-81v100z" />
    <glyph glyph-name="Gcommaaccent" unicode="&#x122;" horiz-adv-x="742" 
d="M601 94h-2q-39 -55 -95.5 -82t-127.5 -27q-75 0 -137 27.5t-106.5 76.5t-68.5 117t-24 149q0 79 22 147.5t65.5 119t108 79.5t148.5 29q62 0 112 -16.5t87 -46.5t60 -72.5t32 -94.5h-93q-15 72 -65 112t-135 40q-65 0 -112 -23t-77.5 -62.5t-45.5 -94t-15 -117.5
q0 -66 18 -119.5t51 -92t78.5 -59.5t99.5 -21q55 0 95.5 17.5t67.5 47.5t40 70t13 85v17h-215v78h305v-378h-58zM335 -190q17 5 28.5 16.5t11.5 40.5h-39v89h85v-89q0 -50 -24.5 -70t-61.5 -25v38z" />
    <glyph glyph-name="gcommaaccent" unicode="&#x123;" horiz-adv-x="543" 
d="M261 -172q-101 0 -156.5 38t-62.5 105h75q6 -43 44 -61t98 -18q72 0 110 32.5t38 100.5v73h-2q-29 -37 -63 -58.5t-90 -21.5q-50 0 -91.5 19t-71.5 53t-46.5 81t-16.5 103q0 60 17.5 107.5t48 80.5t70.5 50t85 17q57 0 94.5 -20.5t63.5 -57.5h2v66h81v-489
q0 -51 -16 -88.5t-46 -62.5t-72 -37t-93 -12zM256 86q45 0 75 14.5t48 40.5t26 61t8 76q0 85 -37.5 134t-120.5 49q-73 0 -109.5 -52t-36.5 -136q0 -85 37.5 -136t109.5 -51zM305 750q-17 -5 -28.5 -16.5t-11.5 -40.5h39v-89h-85v89q0 50 24.5 70t61.5 25v-38z" />
    <glyph glyph-name="Hcircumflex" unicode="&#x124;" horiz-adv-x="696" 
d="M67 715h90v-304h382v304h90v-715h-90v338h-382v-338h-90v715zM304 863h92l89 -106h-87l-49 63h-2l-51 -63h-85z" />
    <glyph glyph-name="hcircumflex" unicode="&#x125;" horiz-adv-x="528" 
d="M136 449h2q28 37 67.5 58.5t96.5 21.5q81 0 127.5 -42.5t46.5 -123.5v-363h-81v356q0 51 -31 78t-86 27q-31 0 -57 -10.5t-45 -29t-29.5 -45t-10.5 -58.5v-318h-81v715h81v-266zM221 863h92l89 -106h-87l-49 63h-2l-51 -63h-85z" />
    <glyph glyph-name="Hbar" unicode="&#x126;" horiz-adv-x="696" 
d="M-3 574h70v141h90v-141h382v141h90v-141h70v-68h-70v-506h-90v338h-382v-338h-90v506h-70v68zM539 411v95h-382v-95h382z" />
    <glyph glyph-name="hbar" unicode="&#x127;" horiz-adv-x="528" 
d="M-8 641h63v74h81v-74h135v-63h-135v-129h2q28 37 67.5 58.5t96.5 21.5q81 0 127.5 -42.5t46.5 -123.5v-363h-81v356q0 51 -31 78t-86 27q-31 0 -57 -10.5t-45 -29t-29.5 -45t-10.5 -58.5v-318h-81v578h-63v63z" />
    <glyph glyph-name="Itilde" unicode="&#x128;" horiz-adv-x="228" 
d="M69 715h90v-715h-90v715zM178 760q-18 0 -35 5t-32.5 11t-29 11t-23.5 5q-11 0 -16.5 -8t-6.5 -22h-60q4 43 23 67.5t54 24.5q20 0 35.5 -5t29 -11t26 -11t26.5 -5t19.5 9t7.5 21h58q-2 -38 -19.5 -65t-56.5 -27z" />
    <glyph glyph-name="itilde" unicode="&#x129;" horiz-adv-x="191" 
d="M147 601q-14 0 -28 5t-26.5 10.5t-23.5 10.5t-20 5q-17 0 -19 -29h-58q3 45 21 68.5t52 23.5q13 0 26.5 -5t26.5 -10.5t24.5 -10.5t19.5 -5q12 0 16 8.5t5 20.5h56q-2 -40 -18 -66t-54 -26zM55 517h81v-517h-81v517z" />
    <glyph glyph-name="Imacron" unicode="&#x12a;" horiz-adv-x="228" 
d="M69 715h90v-715h-90v715zM5 827h218v-67h-218v67z" />
    <glyph glyph-name="imacron" unicode="&#x12b;" horiz-adv-x="191" 
d="M55 517h81v-517h-81v517zM-4 689h198v-67h-198v67z" />
    <glyph glyph-name="Iogonek" unicode="&#x12e;" horiz-adv-x="228" 
d="M69 715h90v-713q-27 -20 -45 -40.5t-18 -41.5q0 -34 40 -34q21 0 37 7h3v-56q-10 -3 -23.5 -6t-31.5 -3q-50 0 -75.5 22t-25.5 57q0 30 19 54.5t42 38.5h-12v715z" />
    <glyph glyph-name="iogonek" unicode="&#x12f;" horiz-adv-x="191" 
d="M1 -93q0 29 16.5 52.5t37.5 37.5v520h81v-515q-26 -20 -42.5 -40.5t-16.5 -41.5q0 -18 9.5 -26t26.5 -8q20 0 36 7h3v-56q-10 -3 -23 -6t-31 -3q-47 0 -72 22t-25 57zM55 715h81v-100h-81v100z" />
    <glyph glyph-name="Idotaccent" unicode="&#x130;" horiz-adv-x="228" 
d="M69 715h90v-715h-90v715zM75 855h78v-95h-78v95z" />
    <glyph glyph-name="dotlessi" unicode="&#x131;" horiz-adv-x="191" 
d="M55 517h81v-517h-81v517z" />
    <glyph glyph-name="IJ" unicode="&#x132;" horiz-adv-x="708" 
d="M69 715h90v-715h-90v715zM443 -14q-48 0 -87 13.5t-66.5 42t-42 73.5t-14.5 107v10h89v-7q0 -48 7.5 -79.5t23 -50.5t38.5 -27t55 -8q54 0 84 29.5t30 97.5v528h90v-534q0 -43 -13 -78.5t-39 -61.5t-64.5 -40.5t-90.5 -14.5z" />
    <glyph glyph-name="ij" unicode="&#x133;" horiz-adv-x="382" 
d="M55 517h81v-517h-81v517zM55 715h81v-100h-81v100zM208 -147q-14 0 -24.5 1t-20.5 3v66h2q15 -3 28 -3q53 0 53 50v547h81v-551q0 -36 -9.5 -58t-25.5 -34.5t-37.5 -16.5t-46.5 -4zM246 715h81v-100h-81v100z" />
    <glyph glyph-name="Jcircumflex" unicode="&#x134;" horiz-adv-x="497" 
d="M232 -14q-48 0 -87 13.5t-66.5 42t-42 73.5t-14.5 107v10h89v-7q0 -48 7.5 -79.5t23 -50.5t38.5 -27t55 -8q54 0 84 29.5t30 97.5v528h90v-534q0 -43 -13 -78.5t-39 -61.5t-64.5 -40.5t-90.5 -14.5zM350 863h92l89 -106h-87l-49 63h-2l-51 -63h-85z" />
    <glyph glyph-name="jcircumflex" unicode="&#x135;" horiz-adv-x="191" 
d="M51 708h92l74 -106h-82l-39 61h-2l-41 -61h-80zM17 -147q-14 0 -24.5 1t-20.5 3v66h2q15 -3 28 -3q53 0 53 50v547h81v-551q0 -36 -9.5 -58t-25.5 -34.5t-37.5 -16.5t-46.5 -4z" />
    <glyph glyph-name="Kcommaaccent" unicode="&#x136;" horiz-adv-x="644" 
d="M67 715h90v-355l352 355h113l-289 -286l313 -429h-105l-269 368l-115 -115v-253h-90v715zM275 -190q17 5 28.5 16.5t11.5 40.5h-39v89h85v-89q0 -50 -24.5 -70t-61.5 -25v38z" />
    <glyph glyph-name="kcommaaccent" unicode="&#x137;" horiz-adv-x="489" 
d="M212 279l-76 -72v-207h-81v715h81v-419l227 221h103l-198 -186l222 -331h-95zM211 -190q17 5 28.5 16.5t11.5 40.5h-39v89h85v-89q0 -50 -24.5 -70t-61.5 -25v38z" />
    <glyph glyph-name="Lacute" unicode="&#x139;" horiz-adv-x="554" 
d="M67 715h90v-632h375v-83h-465v715zM126 874h100l-82 -121h-69z" />
    <glyph glyph-name="lacute" unicode="&#x13a;" horiz-adv-x="197" 
d="M58 715h81v-715h-81v715zM117 874h100l-82 -121h-69z" />
    <glyph glyph-name="Lcommaaccent" unicode="&#x13b;" horiz-adv-x="554" 
d="M67 715h90v-632h375v-83h-465v715zM262 -190q17 5 28.5 16.5t11.5 40.5h-39v89h85v-89q0 -50 -24.5 -70t-61.5 -25v38z" />
    <glyph glyph-name="lcommaaccent" unicode="&#x13c;" horiz-adv-x="197" 
d="M58 715h81v-715h-81v715zM55 -190q17 5 28.5 16.5t11.5 40.5h-39v89h85v-89q0 -50 -24.5 -70t-61.5 -25v38z" />
    <glyph glyph-name="Lcaron" unicode="&#x13d;" horiz-adv-x="554" 
d="M67 715h90v-632h375v-83h-465v715zM403 635q0 -45 -25 -66t-60 -26v38q20 6 30 17.5t10 36.5h-40v80h85v-80z" />
    <glyph glyph-name="lcaron" unicode="&#x13e;" horiz-adv-x="197" 
d="M58 715h81v-715h-81v715zM277 635q0 -45 -25 -66t-60 -26v38q20 6 30 17.5t10 36.5h-40v80h85v-80z" />
    <glyph glyph-name="Ldot" unicode="&#x13f;" horiz-adv-x="554" 
d="M67 715h90v-632h375v-83h-465v715zM364 392h97v-99h-97v99z" />
    <glyph glyph-name="ldot" unicode="&#x140;" horiz-adv-x="294" 
d="M58 715h81v-715h-81v715zM194 392h97v-99h-97v99z" />
    <glyph glyph-name="Lslash" unicode="&#x141;" horiz-adv-x="554" 
d="M-5 278l72 38v399h90v-350l248 133v-77l-248 -133v-205h375v-83h-465v239l-72 -38v77z" />
    <glyph glyph-name="lslash" unicode="&#x142;" horiz-adv-x="227" 
d="M5 318l68 55v342h81v-277l79 64v-77l-79 -64v-361h-81v296l-68 -55v77z" />
    <glyph glyph-name="Nacute" unicode="&#x143;" horiz-adv-x="693" 
d="M67 715h95l326 -497q9 -14 18 -30t17 -30q9 -16 17 -32h2v589h84v-715h-92l-328 498q-9 13 -18 28.5t-17 29.5q-9 16 -18 31h-2v-587h-84v715zM377 874h100l-82 -121h-69z" />
    <glyph glyph-name="nacute" unicode="&#x144;" horiz-adv-x="528" 
d="M136 449h2q28 37 67.5 58.5t96.5 21.5q81 0 127.5 -42.5t46.5 -123.5v-363h-81v356q0 51 -31 78t-86 27q-31 0 -57 -10.5t-45 -29t-29.5 -45t-10.5 -58.5v-318h-81v517h81v-68zM284 725h100l-82 -127h-69z" />
    <glyph glyph-name="Ncommaaccent" unicode="&#x145;" horiz-adv-x="693" 
d="M67 715h95l326 -497q9 -14 18 -30t17 -30q9 -16 17 -32h2v589h84v-715h-92l-328 498q-9 13 -18 28.5t-17 29.5q-9 16 -18 31h-2v-587h-84v715zM291 -190q17 5 28.5 16.5t11.5 40.5h-39v89h85v-89q0 -50 -24.5 -70t-61.5 -25v38z" />
    <glyph glyph-name="ncommaaccent" unicode="&#x146;" horiz-adv-x="528" 
d="M136 449h2q28 37 67.5 58.5t96.5 21.5q81 0 127.5 -42.5t46.5 -123.5v-363h-81v356q0 51 -31 78t-86 27q-31 0 -57 -10.5t-45 -29t-29.5 -45t-10.5 -58.5v-318h-81v517h81v-68zM222 -190q17 5 28.5 16.5t11.5 40.5h-39v89h85v-89q0 -50 -24.5 -70t-61.5 -25v38z" />
    <glyph glyph-name="Ncaron" unicode="&#x147;" horiz-adv-x="693" 
d="M67 715h95l326 -497q9 -14 18 -30t17 -30q9 -16 17 -32h2v589h84v-715h-92l-328 498q-9 13 -18 28.5t-17 29.5q-9 16 -18 31h-2v-587h-84v715zM226 863h87l49 -63h2l51 63h85l-93 -106h-92z" />
    <glyph glyph-name="ncaron" unicode="&#x148;" horiz-adv-x="528" 
d="M136 449h2q28 37 67.5 58.5t96.5 21.5q81 0 127.5 -42.5t46.5 -123.5v-363h-81v356q0 51 -31 78t-86 27q-31 0 -57 -10.5t-45 -29t-29.5 -45t-10.5 -58.5v-318h-81v517h81v-68zM128 708h87l49 -63h2l51 63h85l-93 -106h-92z" />
    <glyph glyph-name="napostrophe" unicode="&#x149;" horiz-adv-x="528" 
d="M136 449h2q28 37 67.5 58.5t96.5 21.5q81 0 127.5 -42.5t46.5 -123.5v-363h-81v356q0 51 -31 78t-86 27q-31 0 -57 -10.5t-45 -29t-29.5 -45t-10.5 -58.5v-318h-81v517h81v-68zM73 635q0 -45 -25 -66t-60 -26v38q20 6 30 17.5t10 36.5h-40v80h85v-80z" />
    <glyph glyph-name="Omacron" unicode="&#x14c;" horiz-adv-x="780" 
d="M390 -15q-81 0 -146 28t-110 78t-69.5 118.5t-24.5 148.5t24.5 148.5t69.5 118.5t110 78t146 28t146 -28t110 -78t69.5 -118.5t24.5 -148.5t-24.5 -148.5t-69.5 -118.5t-110 -78t-146 -28zM390 64q63 0 111 22.5t81 61.5t49.5 93t16.5 117t-16.5 117t-49.5 93.5t-81 62
t-111 22.5t-111 -22.5t-81 -62t-49.5 -93.5t-16.5 -117t16.5 -117t49.5 -93t81 -61.5t111 -22.5zM261 827h258v-67h-258v67z" />
    <glyph glyph-name="omacron" unicode="&#x14d;" horiz-adv-x="551" 
d="M276 -14q-58 0 -104 21.5t-78.5 58.5t-50 86.5t-17.5 105.5t17.5 105.5t50 86.5t78.5 58.5t104 21.5t104 -21.5t78.5 -58.5t49.5 -86.5t17 -105.5t-17 -105.5t-49.5 -86.5t-78.5 -58.5t-104 -21.5zM276 54q41 0 72 16t52 43.5t31.5 64.5t10.5 80t-10.5 80t-31.5 65
t-52 44t-72 16t-72.5 -16t-52.5 -44t-31.5 -65t-10.5 -80t10.5 -80t31.5 -64.5t52.5 -43.5t72.5 -16zM146 689h258v-67h-258v67z" />
    <glyph glyph-name="Obreve" unicode="&#x14e;" horiz-adv-x="780" 
d="M390 -15q-81 0 -146 28t-110 78t-69.5 118.5t-24.5 148.5t24.5 148.5t69.5 118.5t110 78t146 28t146 -28t110 -78t69.5 -118.5t24.5 -148.5t-24.5 -148.5t-69.5 -118.5t-110 -78t-146 -28zM390 64q63 0 111 22.5t81 61.5t49.5 93t16.5 117t-16.5 117t-49.5 93.5t-81 62
t-111 22.5t-111 -22.5t-81 -62t-49.5 -93.5t-16.5 -117t16.5 -117t49.5 -93t81 -61.5t111 -22.5zM390 759q-26 0 -48 8t-39.5 22.5t-28 35t-11.5 45.5h60q5 -23 20.5 -36t45.5 -13t47.5 13t22.5 36h58q-1 -23 -10.5 -43t-26 -35t-39.5 -24t-51 -9z" />
    <glyph glyph-name="obreve" unicode="&#x14f;" horiz-adv-x="551" 
d="M276 -14q-58 0 -104 21.5t-78.5 58.5t-50 86.5t-17.5 105.5t17.5 105.5t50 86.5t78.5 58.5t104 21.5t104 -21.5t78.5 -58.5t49.5 -86.5t17 -105.5t-17 -105.5t-49.5 -86.5t-78.5 -58.5t-104 -21.5zM276 54q41 0 72 16t52 43.5t31.5 64.5t10.5 80t-10.5 80t-31.5 65
t-52 44t-72 16t-72.5 -16t-52.5 -44t-31.5 -65t-10.5 -80t10.5 -80t31.5 -64.5t52.5 -43.5t72.5 -16zM275 604q-26 0 -48 8t-39.5 22.5t-28 35t-11.5 45.5h60q5 -23 20.5 -36t45.5 -13t47.5 13t22.5 36h58q-1 -23 -10.5 -43t-26 -35t-39.5 -24t-51 -9z" />
    <glyph glyph-name="Ohungarumlaut" unicode="&#x150;" horiz-adv-x="780" 
d="M390 -15q-81 0 -146 28t-110 78t-69.5 118.5t-24.5 148.5t24.5 148.5t69.5 118.5t110 78t146 28t146 -28t110 -78t69.5 -118.5t24.5 -148.5t-24.5 -148.5t-69.5 -118.5t-110 -78t-146 -28zM390 64q63 0 111 22.5t81 61.5t49.5 93t16.5 117t-16.5 117t-49.5 93.5t-81 62
t-111 22.5t-111 -22.5t-81 -62t-49.5 -93.5t-16.5 -117t16.5 -117t49.5 -93t81 -61.5t111 -22.5zM464 880h82l-52 -127h-61zM334 880h82l-52 -127h-61z" />
    <glyph glyph-name="ohungarumlaut" unicode="&#x151;" horiz-adv-x="551" 
d="M276 -14q-58 0 -104 21.5t-78.5 58.5t-50 86.5t-17.5 105.5t17.5 105.5t50 86.5t78.5 58.5t104 21.5t104 -21.5t78.5 -58.5t49.5 -86.5t17 -105.5t-17 -105.5t-49.5 -86.5t-78.5 -58.5t-104 -21.5zM276 54q41 0 72 16t52 43.5t31.5 64.5t10.5 80t-10.5 80t-31.5 65
t-52 44t-72 16t-72.5 -16t-52.5 -44t-31.5 -65t-10.5 -80t10.5 -80t31.5 -64.5t52.5 -43.5t72.5 -16zM344 725h82l-52 -127h-61zM214 725h82l-52 -127h-61z" />
    <glyph glyph-name="OE" unicode="&#x152;" horiz-adv-x="1072" 
d="M367 -15q-72 0 -132.5 28t-103.5 78t-67 118.5t-24 148.5t24.5 148.5t68.5 118.5t103.5 78t130.5 28q58 0 103.5 -21.5t78.5 -60.5v66h473v-79h-383v-226h345v-76h-345v-251h395v-83h-485v56q-32 -34 -77 -52.5t-105 -18.5zM369 64q33 0 65.5 9t58 26t41 41t15.5 55v327
q-2 29 -18 53t-41 41.5t-56.5 27t-64.5 9.5q-56 0 -100 -22.5t-74.5 -62t-46.5 -93.5t-16 -117t16 -117t46 -93t74 -61.5t101 -22.5z" />
    <glyph glyph-name="oe" unicode="&#x153;" horiz-adv-x="858" 
d="M251 -14q-54 0 -96 21.5t-70.5 58.5t-43.5 86.5t-15 105.5t15 105.5t43.5 86.5t70.5 58.5t96 21.5q62 0 106.5 -30t70.5 -81q26 51 71 81t111 30q56 0 98 -22t70 -60.5t42 -92t14 -116.5h-368q2 -39 12 -73t29 -59t47 -39t67 -14q51 0 81.5 28.5t41.5 77.5h79
q-14 -82 -67.5 -128t-134.5 -46q-71 0 -118.5 30.5t-73.5 82.5q-26 -52 -70.5 -82.5t-107.5 -30.5zM251 54q36 0 62.5 16t44 43.5t26 64.5t8.5 80t-8.5 80t-26 65t-44 44t-62.5 16t-62.5 -16t-44.5 -44t-26.5 -65t-8.5 -80t8.5 -80t26.5 -64.5t44.5 -43.5t62.5 -16zM610 466
q-33 0 -58 -12.5t-42.5 -35t-27.5 -53t-14 -65.5h279q-2 78 -38.5 122t-98.5 44z" />
    <glyph glyph-name="Racute" unicode="&#x154;" horiz-adv-x="654" 
d="M67 715h334q47 0 86 -14t66.5 -40t43 -62t15.5 -80q0 -66 -29.5 -111t-94.5 -66v-3q27 -10 45.5 -24.5t30.5 -36.5t18 -51.5t9 -69.5q3 -43 6.5 -71t8 -45t9 -25.5t9.5 -11.5v-4h-97q-6 5 -9.5 13.5t-6 26t-5 46.5t-5.5 74q-5 79 -39 110.5t-106 31.5h-199v-302h-90v715z
M157 375h212q75 0 112.5 35t37.5 96q0 66 -33 98.5t-112 32.5h-217v-262zM341 874h100l-82 -121h-69z" />
    <glyph glyph-name="racute" unicode="&#x155;" horiz-adv-x="343" 
d="M136 431h2q23 38 62.5 65t91.5 27q11 0 18 -1.5t15 -4.5v-78h-3q-9 3 -16.5 4t-19.5 1q-30 0 -57 -11t-48 -31t-33 -49.5t-12 -65.5v-287h-81v517h81v-86zM216 725h100l-82 -127h-69z" />
    <glyph glyph-name="Rcommaaccent" unicode="&#x156;" horiz-adv-x="654" 
d="M67 715h334q47 0 86 -14t66.5 -40t43 -62t15.5 -80q0 -66 -29.5 -111t-94.5 -66v-3q27 -10 45.5 -24.5t30.5 -36.5t18 -51.5t9 -69.5q3 -43 6.5 -71t8 -45t9 -25.5t9.5 -11.5v-4h-97q-6 5 -9.5 13.5t-6 26t-5 46.5t-5.5 74q-5 79 -39 110.5t-106 31.5h-199v-302h-90v715z
M157 375h212q75 0 112.5 35t37.5 96q0 66 -33 98.5t-112 32.5h-217v-262zM302 -190q17 5 28.5 16.5t11.5 40.5h-39v89h85v-89q0 -50 -24.5 -70t-61.5 -25v38z" />
    <glyph glyph-name="rcommaaccent" unicode="&#x157;" horiz-adv-x="343" 
d="M136 431h2q23 38 62.5 65t91.5 27q11 0 18 -1.5t15 -4.5v-78h-3q-9 3 -16.5 4t-19.5 1q-30 0 -57 -11t-48 -31t-33 -49.5t-12 -65.5v-287h-81v517h81v-86zM52 -190q17 5 28.5 16.5t11.5 40.5h-39v89h85v-89q0 -50 -24.5 -70t-61.5 -25v38z" />
    <glyph glyph-name="Rcaron" unicode="&#x158;" horiz-adv-x="654" 
d="M67 715h334q47 0 86 -14t66.5 -40t43 -62t15.5 -80q0 -66 -29.5 -111t-94.5 -66v-3q27 -10 45.5 -24.5t30.5 -36.5t18 -51.5t9 -69.5q3 -43 6.5 -71t8 -45t9 -25.5t9.5 -11.5v-4h-97q-6 5 -9.5 13.5t-6 26t-5 46.5t-5.5 74q-5 79 -39 110.5t-106 31.5h-199v-302h-90v715z
M157 375h212q75 0 112.5 35t37.5 96q0 66 -33 98.5t-112 32.5h-217v-262zM190 863h87l49 -63h2l51 63h85l-93 -106h-92z" />
    <glyph glyph-name="rcaron" unicode="&#x159;" horiz-adv-x="343" 
d="M136 431h2q23 38 62.5 65t91.5 27q11 0 18 -1.5t15 -4.5v-78h-3q-9 3 -16.5 4t-19.5 1q-30 0 -57 -11t-48 -31t-33 -49.5t-12 -65.5v-287h-81v517h81v-86zM60 708h87l49 -63h2l51 63h85l-93 -106h-92z" />
    <glyph glyph-name="Sacute" unicode="&#x15a;" horiz-adv-x="626" 
d="M327 -14q-75 0 -131 19.5t-93.5 54t-57.5 81.5t-23 101h88q18 -184 221 -184q37 0 68.5 8.5t54 25t35 42t12.5 58.5q0 37 -15.5 61t-43.5 40t-67.5 26.5t-87.5 21.5q-47 10 -89.5 23.5t-74.5 35.5t-51 55.5t-19 84.5q0 44 17.5 79t49.5 59.5t77 37.5t99 13
q67 0 115.5 -16.5t80.5 -45.5t50 -70.5t25 -90.5h-85q-10 77 -57.5 115t-126.5 38q-73 0 -117 -29.5t-44 -85.5q0 -30 14 -50.5t39 -35t59.5 -23.5t74.5 -17q52 -11 100 -24.5t85 -37.5t59 -62.5t22 -98.5q0 -50 -19.5 -89t-54.5 -65.5t-83 -40.5t-106 -14zM318 874h100
l-82 -121h-69z" />
    <glyph glyph-name="sacute" unicode="&#x15b;" horiz-adv-x="478" 
d="M251 -15q-107 0 -165 47.5t-64 135.5h83q4 -34 17 -56t32.5 -35t44.5 -18.5t54 -5.5q64 0 92 24.5t28 60.5q0 22 -7.5 36.5t-24 24.5t-42 17t-61.5 15q-38 8 -73 17t-61.5 25.5t-42.5 43.5t-16 69q0 65 47.5 103.5t138.5 38.5q97 0 145.5 -43t57.5 -119h-83
q-6 51 -35 74.5t-87 23.5q-56 0 -80 -21.5t-24 -52.5q0 -21 9 -34.5t27 -22.5t44 -15t59 -13q39 -8 73.5 -17.5t61 -27t41.5 -45.5t15 -73q0 -39 -15 -68.5t-42 -49t-64.5 -29.5t-82.5 -10zM257 725h100l-82 -127h-69z" />
    <glyph glyph-name="Scircumflex" unicode="&#x15c;" horiz-adv-x="626" 
d="M327 -14q-75 0 -131 19.5t-93.5 54t-57.5 81.5t-23 101h88q18 -184 221 -184q37 0 68.5 8.5t54 25t35 42t12.5 58.5q0 37 -15.5 61t-43.5 40t-67.5 26.5t-87.5 21.5q-47 10 -89.5 23.5t-74.5 35.5t-51 55.5t-19 84.5q0 44 17.5 79t49.5 59.5t77 37.5t99 13
q67 0 115.5 -16.5t80.5 -45.5t50 -70.5t25 -90.5h-85q-10 77 -57.5 115t-126.5 38q-73 0 -117 -29.5t-44 -85.5q0 -30 14 -50.5t39 -35t59.5 -23.5t74.5 -17q52 -11 100 -24.5t85 -37.5t59 -62.5t22 -98.5q0 -50 -19.5 -89t-54.5 -65.5t-83 -40.5t-106 -14zM260 863h92
l89 -106h-87l-49 63h-2l-51 -63h-85z" />
    <glyph glyph-name="scircumflex" unicode="&#x15d;" horiz-adv-x="478" 
d="M251 -15q-107 0 -165 47.5t-64 135.5h83q4 -34 17 -56t32.5 -35t44.5 -18.5t54 -5.5q64 0 92 24.5t28 60.5q0 22 -7.5 36.5t-24 24.5t-42 17t-61.5 15q-38 8 -73 17t-61.5 25.5t-42.5 43.5t-16 69q0 65 47.5 103.5t138.5 38.5q97 0 145.5 -43t57.5 -119h-83
q-6 51 -35 74.5t-87 23.5q-56 0 -80 -21.5t-24 -52.5q0 -21 9 -34.5t27 -22.5t44 -15t59 -13q39 -8 73.5 -17.5t61 -27t41.5 -45.5t15 -73q0 -39 -15 -68.5t-42 -49t-64.5 -29.5t-82.5 -10zM194 708h92l89 -106h-87l-49 63h-2l-51 -63h-85z" />
    <glyph glyph-name="Scedilla" unicode="&#x15e;" horiz-adv-x="626" 
d="M298 -191q-37 0 -63 8.5t-44 20.5l16 29q16 -7 34.5 -11t37.5 -4q25 0 41.5 7.5t16.5 24.5q0 28 -38 28q-14 0 -23 -2t-18 -5l-16 24l58 58q-69 4 -120 25t-85 54.5t-52 78.5t-21 97h88q18 -184 221 -184q37 0 68.5 8.5t54 25t35 42t12.5 58.5q0 37 -15.5 61t-43.5 40
t-67.5 26.5t-87.5 21.5q-47 10 -89.5 23.5t-74.5 35.5t-51 55.5t-19 84.5q0 44 17.5 79t49.5 59.5t77 37.5t99 13q67 0 115.5 -16.5t80.5 -45.5t50 -70.5t25 -90.5h-85q-10 77 -57.5 115t-126.5 38q-73 0 -117 -29.5t-44 -85.5q0 -30 14 -50.5t39 -35t59.5 -23.5t74.5 -17
q52 -11 100 -24.5t85 -37.5t59 -62.5t22 -98.5q0 -48 -17.5 -85t-48.5 -63.5t-75 -41.5t-96 -18l-43 -36v-2q14 2 30 0t30 -9.5t23 -21t9 -33.5q0 -36 -29 -56t-75 -20z" />
    <glyph glyph-name="scedilla" unicode="&#x15f;" horiz-adv-x="478" 
d="M225 -191q-37 0 -63 8.5t-44 20.5l16 29q16 -7 34.5 -11t37.5 -4q25 0 41.5 7.5t16.5 24.5q0 28 -38 28q-14 0 -23 -2t-18 -5l-16 24l56 57q-95 5 -146.5 52.5t-56.5 129.5h83q4 -34 17 -56t32.5 -35t44.5 -18.5t54 -5.5q64 0 92 24.5t28 60.5q0 22 -7.5 36.5t-24 24.5
t-42 17t-61.5 15q-38 8 -73 17t-61.5 25.5t-42.5 43.5t-16 69q0 65 47.5 103.5t138.5 38.5q97 0 145.5 -43t57.5 -119h-83q-6 51 -35 74.5t-87 23.5q-56 0 -80 -21.5t-24 -52.5q0 -21 9 -34.5t27 -22.5t44 -15t59 -13q39 -8 73.5 -17.5t61 -27t41.5 -45.5t15 -73
q0 -72 -49 -111t-127 -45l-42 -35v-2q14 2 30 0t30 -9.5t23 -21t9 -33.5q0 -36 -29 -56t-75 -20z" />
    <glyph glyph-name="Scaron" unicode="&#x160;" horiz-adv-x="626" 
d="M327 -14q-75 0 -131 19.5t-93.5 54t-57.5 81.5t-23 101h88q18 -184 221 -184q37 0 68.5 8.5t54 25t35 42t12.5 58.5q0 37 -15.5 61t-43.5 40t-67.5 26.5t-87.5 21.5q-47 10 -89.5 23.5t-74.5 35.5t-51 55.5t-19 84.5q0 44 17.5 79t49.5 59.5t77 37.5t99 13
q67 0 115.5 -16.5t80.5 -45.5t50 -70.5t25 -90.5h-85q-10 77 -57.5 115t-126.5 38q-73 0 -117 -29.5t-44 -85.5q0 -30 14 -50.5t39 -35t59.5 -23.5t74.5 -17q52 -11 100 -24.5t85 -37.5t59 -62.5t22 -98.5q0 -50 -19.5 -89t-54.5 -65.5t-83 -40.5t-106 -14zM167 863h87
l49 -63h2l51 63h85l-93 -106h-92z" />
    <glyph glyph-name="scaron" unicode="&#x161;" horiz-adv-x="478" 
d="M251 -15q-107 0 -165 47.5t-64 135.5h83q4 -34 17 -56t32.5 -35t44.5 -18.5t54 -5.5q64 0 92 24.5t28 60.5q0 22 -7.5 36.5t-24 24.5t-42 17t-61.5 15q-38 8 -73 17t-61.5 25.5t-42.5 43.5t-16 69q0 65 47.5 103.5t138.5 38.5q97 0 145.5 -43t57.5 -119h-83
q-6 51 -35 74.5t-87 23.5q-56 0 -80 -21.5t-24 -52.5q0 -21 9 -34.5t27 -22.5t44 -15t59 -13q39 -8 73.5 -17.5t61 -27t41.5 -45.5t15 -73q0 -39 -15 -68.5t-42 -49t-64.5 -29.5t-82.5 -10zM101 708h87l49 -63h2l51 63h85l-93 -106h-92z" />
    <glyph glyph-name="Tcommaaccent" unicode="&#x162;" horiz-adv-x="610" 
d="M22 715h566v-79h-238v-636h-90v636h-238v79zM262 -190q17 5 28.5 16.5t11.5 40.5h-39v89h85v-89q0 -50 -24.5 -70t-61.5 -25v38z" />
    <glyph glyph-name="tcommaaccent" unicode="&#x163;" horiz-adv-x="307" 
d="M22 517h75v163h81v-163h100v-66h-100v-336q0 -27 13.5 -37.5t38.5 -10.5q12 0 24 2.5t19 4.5h3v-70q-14 -3 -30.5 -5t-34.5 -2q-50 0 -82 22.5t-32 77.5v354h-75v66zM132 -190q17 5 28.5 16.5t11.5 40.5h-39v89h85v-89q0 -50 -24.5 -70t-61.5 -25v38z" />
    <glyph glyph-name="Tcaron" unicode="&#x164;" horiz-adv-x="610" 
d="M22 715h566v-79h-238v-636h-90v636h-238v79zM168 863h87l49 -63h2l51 63h85l-93 -106h-92z" />
    <glyph glyph-name="tcaron" unicode="&#x165;" horiz-adv-x="307" 
d="M22 517h75v163h81v-163h100v-66h-100v-336q0 -27 13.5 -37.5t38.5 -10.5q12 0 24 2.5t19 4.5h3v-70q-14 -3 -30.5 -5t-34.5 -2q-50 0 -82 22.5t-32 77.5v354h-75v66zM325 643q0 -38 -23.5 -58t-61.5 -24v38q40 9 40 44h-40v72h85v-72z" />
    <glyph glyph-name="Tbar" unicode="&#x166;" horiz-adv-x="610" 
d="M104 414h156v222h-238v79h566v-79h-238v-222h156v-68h-156v-346h-90v346h-156v68z" />
    <glyph glyph-name="tbar" unicode="&#x167;" horiz-adv-x="307" 
d="M22 367h75v84h-75v66h75v163h81v-163h100v-66h-100v-84h100v-66h-100v-186q0 -27 13.5 -37.5t38.5 -10.5q12 0 24 2.5t19 4.5h3v-70q-14 -3 -30.5 -5t-34.5 -2q-50 0 -82 22.5t-32 77.5v204h-75v66z" />
    <glyph glyph-name="Utilde" unicode="&#x168;" horiz-adv-x="658" 
d="M329 -11q-59 0 -109 13.5t-86.5 42.5t-57.5 75t-21 111v484h90v-475q0 -92 49 -133t138 -41q85 0 133 41t48 133v475h90v-484q0 -65 -21.5 -111t-58.5 -75t-87 -42.5t-107 -13.5zM393 760q-18 0 -35 5t-32.5 11t-29 11t-23.5 5q-11 0 -16.5 -8t-6.5 -22h-60q4 43 23 67.5
t54 24.5q20 0 35.5 -5t29 -11t26 -11t26.5 -5t19.5 9t7.5 21h58q-2 -38 -19.5 -65t-56.5 -27z" />
    <glyph glyph-name="utilde" unicode="&#x169;" horiz-adv-x="520" 
d="M384 0v71h-2q-28 -38 -63.5 -60.5t-92.5 -22.5q-80 0 -127 45t-47 126v358h81v-356q0 -51 30.5 -78.5t85.5 -27.5q31 0 56 11t42.5 30.5t27 45.5t9.5 57v318h81v-517h-81zM326 601q-18 0 -35 5t-32.5 11t-29 11t-23.5 5q-11 0 -16.5 -8t-6.5 -22h-60q4 43 23 67.5
t54 24.5q20 0 35.5 -5t29 -11t26 -11t26.5 -5t19.5 9t7.5 21h58q-2 -38 -19.5 -65t-56.5 -27z" />
    <glyph glyph-name="Umacron" unicode="&#x16a;" horiz-adv-x="658" 
d="M329 -11q-59 0 -109 13.5t-86.5 42.5t-57.5 75t-21 111v484h90v-475q0 -92 49 -133t138 -41q85 0 133 41t48 133v475h90v-484q0 -65 -21.5 -111t-58.5 -75t-87 -42.5t-107 -13.5zM200 827h258v-67h-258v67z" />
    <glyph glyph-name="umacron" unicode="&#x16b;" horiz-adv-x="520" 
d="M384 0v71h-2q-28 -38 -63.5 -60.5t-92.5 -22.5q-80 0 -127 45t-47 126v358h81v-356q0 -51 30.5 -78.5t85.5 -27.5q31 0 56 11t42.5 30.5t27 45.5t9.5 57v318h81v-517h-81zM133 689h258v-67h-258v67z" />
    <glyph glyph-name="Ubreve" unicode="&#x16c;" horiz-adv-x="658" 
d="M329 -11q-59 0 -109 13.5t-86.5 42.5t-57.5 75t-21 111v484h90v-475q0 -92 49 -133t138 -41q85 0 133 41t48 133v475h90v-484q0 -65 -21.5 -111t-58.5 -75t-87 -42.5t-107 -13.5zM329 759q-26 0 -48 8t-39.5 22.5t-28 35t-11.5 45.5h60q5 -23 20.5 -36t45.5 -13t47.5 13
t22.5 36h58q-1 -23 -10.5 -43t-26 -35t-39.5 -24t-51 -9z" />
    <glyph glyph-name="ubreve" unicode="&#x16d;" horiz-adv-x="520" 
d="M384 0v71h-2q-28 -38 -63.5 -60.5t-92.5 -22.5q-80 0 -127 45t-47 126v358h81v-356q0 -51 30.5 -78.5t85.5 -27.5q31 0 56 11t42.5 30.5t27 45.5t9.5 57v318h81v-517h-81zM262 604q-26 0 -48 8t-39.5 22.5t-28 35t-11.5 45.5h60q5 -23 20.5 -36t45.5 -13t47.5 13t22.5 36
h58q-1 -23 -10.5 -43t-26 -35t-39.5 -24t-51 -9z" />
    <glyph glyph-name="Uring" unicode="&#x16e;" horiz-adv-x="658" 
d="M329 -11q-59 0 -109 13.5t-86.5 42.5t-57.5 75t-21 111v484h90v-475q0 -92 49 -133t138 -41q85 0 133 41t48 133v475h90v-484q0 -65 -21.5 -111t-58.5 -75t-87 -42.5t-107 -13.5zM329 746q-18 0 -34 6.5t-27.5 18t-18.5 27t-7 33.5t7 33.5t18.5 27t27.5 18t34 6.5
t34 -6.5t27.5 -18t18.5 -27t7 -33.5t-7 -33.5t-18.5 -27t-27.5 -18t-34 -6.5zM329 781q21 0 34 14.5t13 35.5t-13 35.5t-34 14.5t-34 -14.5t-13 -35.5t13 -35.5t34 -14.5z" />
    <glyph glyph-name="uring" unicode="&#x16f;" horiz-adv-x="520" 
d="M384 0v71h-2q-28 -38 -63.5 -60.5t-92.5 -22.5q-80 0 -127 45t-47 126v358h81v-356q0 -51 30.5 -78.5t85.5 -27.5q31 0 56 11t42.5 30.5t27 45.5t9.5 57v318h81v-517h-81zM262 559q-18 0 -34 6.5t-27.5 18t-18.5 27t-7 33.5t7 33.5t18.5 27t27.5 18t34 6.5t34 -6.5
t27.5 -18t18.5 -27t7 -33.5t-7 -33.5t-18.5 -27t-27.5 -18t-34 -6.5zM262 594q21 0 34 14.5t13 35.5t-13 35.5t-34 14.5t-34 -14.5t-13 -35.5t13 -35.5t34 -14.5z" />
    <glyph glyph-name="Uhungarumlaut" unicode="&#x170;" horiz-adv-x="658" 
d="M329 -11q-59 0 -109 13.5t-86.5 42.5t-57.5 75t-21 111v484h90v-475q0 -92 49 -133t138 -41q85 0 133 41t48 133v475h90v-484q0 -65 -21.5 -111t-58.5 -75t-87 -42.5t-107 -13.5zM403 880h82l-52 -127h-61zM273 880h82l-52 -127h-61z" />
    <glyph glyph-name="uhungarumlaut" unicode="&#x171;" horiz-adv-x="520" 
d="M384 0v71h-2q-28 -38 -63.5 -60.5t-92.5 -22.5q-80 0 -127 45t-47 126v358h81v-356q0 -51 30.5 -78.5t85.5 -27.5q31 0 56 11t42.5 30.5t27 45.5t9.5 57v318h81v-517h-81zM331 725h82l-52 -127h-61zM201 725h82l-52 -127h-61z" />
    <glyph glyph-name="Uogonek" unicode="&#x172;" horiz-adv-x="658" 
d="M329 -11q-59 0 -109 13.5t-86.5 42.5t-57.5 75t-21 111v484h90v-475q0 -92 49 -133t138 -41q85 0 133 41t48 133v475h90v-484q0 -83 -34 -133.5t-92 -79.5q-30 -15 -52 -26.5t-36 -22.5t-20.5 -22.5t-6.5 -26.5q0 -34 40 -34q21 0 37 7h3v-56q-10 -3 -23.5 -6t-31.5 -3
q-50 0 -75.5 22t-25.5 57q0 26 14 47t32 35h-3v0z" />
    <glyph glyph-name="uogonek" unicode="&#x173;" horiz-adv-x="520" 
d="M425 -172q-50 0 -75.5 22t-25.5 57q0 30 19 54.5t41 38.5v71h-2q-28 -38 -63.5 -60.5t-92.5 -22.5q-80 0 -127 45t-47 126v358h81v-356q0 -51 30.5 -78.5t85.5 -27.5q31 0 56 11t42.5 30.5t27 45.5t9.5 57v318h81v-513q-28 -20 -46.5 -41.5t-18.5 -42.5q0 -34 40 -34
q21 0 37 7h3v-56q-10 -3 -23.5 -6t-31.5 -3z" />
    <glyph glyph-name="Wcircumflex" unicode="&#x174;" horiz-adv-x="914" 
d="M14 715h94l113 -465q5 -18 9.5 -39.5t8.5 -39.5q4 -21 9 -42h2l10 44q5 19 10 40t10 39l129 463h97l125 -463q5 -18 9.5 -39.5t9.5 -40.5q5 -22 10 -43h2l10 44q5 19 9 39.5t9 37.5l119 465h91l-199 -715h-86l-131 504q-5 16 -9 34.5t-8 35.5q-4 19 -9 39h-2
q-5 -20 -9 -39q-4 -17 -8.5 -35.5t-9.5 -34.5l-140 -504h-90zM413 863h92l89 -106h-87l-49 63h-2l-51 -63h-85z" />
    <glyph glyph-name="wcircumflex" unicode="&#x175;" horiz-adv-x="734" 
d="M4 517h87l91 -319q5 -17 9 -36t9 -36q4 -19 10 -39h2q5 20 9 39q4 17 8 35.5t9 34.5l87 321h85l84 -321q4 -16 8.5 -34.5t8.5 -35.5q4 -19 8 -39h2q5 20 10 39q5 17 9.5 36t9.5 36l96 319h84l-169 -517h-83l-86 313q-5 16 -9 34.5t-8 35.5l-8 38h-2q-5 -19 -9 -38
q-4 -17 -8 -35.5t-9 -34.5l-87 -313h-84zM323 708h92l89 -106h-87l-49 63h-2l-51 -63h-85z" />
    <glyph glyph-name="Ycircumflex" unicode="&#x176;" horiz-adv-x="631" 
d="M269 303l-259 412h100l205 -340h2l208 340h96l-262 -414v-301h-90v303zM271 863h92l89 -106h-87l-49 63h-2l-51 -63h-85z" />
    <glyph glyph-name="ycircumflex" unicode="&#x177;" horiz-adv-x="489" 
d="M121 -171q-23 0 -39.5 2t-33.5 9v72h4q8 -5 21.5 -8t33.5 -3q26 0 44 12.5t33 50.5l20 51l-202 502h88l122 -322q6 -17 12 -34.5t11 -32.5q6 -18 12 -34h2q5 16 11 34q5 15 11 32.5t12 34.5l118 322h86l-221 -559q-16 -40 -31.5 -65t-33 -39.5t-37 -19.5t-43.5 -5z
M205 708h92l89 -106h-87l-49 63h-2l-51 -63h-85z" />
    <glyph glyph-name="Ydieresis" unicode="&#x178;" horiz-adv-x="631" 
d="M269 303l-259 412h100l205 -340h2l208 340h96l-262 -414v-301h-90v303zM358 855h78v-95h-78v95zM194 855h78v-95h-78v95z" />
    <glyph glyph-name="Zacute" unicode="&#x179;" 
d="M30 86l428 550v3h-403v76h514v-70l-434 -561v-3h451v-81h-556v86zM322 874h100l-82 -121h-69z" />
    <glyph glyph-name="zacute" unicode="&#x17a;" horiz-adv-x="471" 
d="M34 64l288 379v3h-271v71h384v-48l-297 -392v-3h308v-74h-412v64zM262 725h100l-82 -127h-69z" />
    <glyph glyph-name="Zdotaccent" unicode="&#x17b;" 
d="M30 86l428 550v3h-403v76h514v-70l-434 -561v-3h451v-81h-556v86zM269 855h78v-95h-78v95z" />
    <glyph glyph-name="zdotaccent" unicode="&#x17c;" horiz-adv-x="471" 
d="M34 64l288 379v3h-271v71h384v-48l-297 -392v-3h308v-74h-412v64zM203 715h81v-100h-81v100z" />
    <glyph glyph-name="Zcaron" unicode="&#x17d;" 
d="M30 86l428 550v3h-403v76h514v-70l-434 -561v-3h451v-81h-556v86zM171 863h87l49 -63h2l51 63h85l-93 -106h-92z" />
    <glyph glyph-name="zcaron" unicode="&#x17e;" horiz-adv-x="471" 
d="M34 64l288 379v3h-271v71h384v-48l-297 -392v-3h308v-74h-412v64zM106 708h87l49 -63h2l51 63h85l-93 -106h-92z" />
    <glyph glyph-name="florin" unicode="&#x192;" horiz-adv-x="345" 
d="M32 406h91l25 170q11 75 57.5 103.5t128.5 17.5v-69q-51 5 -75.5 -8t-30.5 -55l-23 -159h105v-64h-114l-53 -375q-11 -74 -51 -100t-117 -16v67q35 -3 58.5 6.5t28.5 47.5l52 370h-82v64z" />
    <glyph glyph-name="Scommaaccent" unicode="&#x218;" horiz-adv-x="626" 
d="M327 -14q-75 0 -131 19.5t-93.5 54t-57.5 81.5t-23 101h88q18 -184 221 -184q37 0 68.5 8.5t54 25t35 42t12.5 58.5q0 37 -15.5 61t-43.5 40t-67.5 26.5t-87.5 21.5q-47 10 -89.5 23.5t-74.5 35.5t-51 55.5t-19 84.5q0 44 17.5 79t49.5 59.5t77 37.5t99 13
q67 0 115.5 -16.5t80.5 -45.5t50 -70.5t25 -90.5h-85q-10 77 -57.5 115t-126.5 38q-73 0 -117 -29.5t-44 -85.5q0 -30 14 -50.5t39 -35t59.5 -23.5t74.5 -17q52 -11 100 -24.5t85 -37.5t59 -62.5t22 -98.5q0 -50 -19.5 -89t-54.5 -65.5t-83 -40.5t-106 -14zM261 -190
q17 5 28.5 16.5t11.5 40.5h-39v89h85v-89q0 -50 -24.5 -70t-61.5 -25v38z" />
    <glyph glyph-name="scommaaccent" unicode="&#x219;" horiz-adv-x="478" 
d="M251 -15q-107 0 -165 47.5t-64 135.5h83q4 -34 17 -56t32.5 -35t44.5 -18.5t54 -5.5q64 0 92 24.5t28 60.5q0 22 -7.5 36.5t-24 24.5t-42 17t-61.5 15q-38 8 -73 17t-61.5 25.5t-42.5 43.5t-16 69q0 65 47.5 103.5t138.5 38.5q97 0 145.5 -43t57.5 -119h-83
q-6 51 -35 74.5t-87 23.5q-56 0 -80 -21.5t-24 -52.5q0 -21 9 -34.5t27 -22.5t44 -15t59 -13q39 -8 73.5 -17.5t61 -27t41.5 -45.5t15 -73q0 -39 -15 -68.5t-42 -49t-64.5 -29.5t-82.5 -10zM195 -190q17 5 28.5 16.5t11.5 40.5h-39v89h85v-89q0 -50 -24.5 -70t-61.5 -25v38z
" />
    <glyph glyph-name="uni021A" unicode="&#x21a;" horiz-adv-x="610" 
d="M22 715h566v-79h-238v-636h-90v636h-238v79zM262 -190q17 5 28.5 16.5t11.5 40.5h-39v89h85v-89q0 -50 -24.5 -70t-61.5 -25v38z" />
    <glyph glyph-name="uni021B" unicode="&#x21b;" horiz-adv-x="307" 
d="M22 517h75v163h81v-163h100v-66h-100v-336q0 -27 13.5 -37.5t38.5 -10.5q12 0 24 2.5t19 4.5h3v-70q-14 -3 -30.5 -5t-34.5 -2q-50 0 -82 22.5t-32 77.5v354h-75v66zM132 -190q17 5 28.5 16.5t11.5 40.5h-39v89h85v-89q0 -50 -24.5 -70t-61.5 -25v38z" />
    <glyph glyph-name="circumflex" unicode="&#x2c6;" horiz-adv-x="500" 
d="M206 708h92l89 -106h-87l-49 63h-2l-51 -63h-85z" />
    <glyph glyph-name="caron" unicode="&#x2c7;" horiz-adv-x="500" 
d="M113 708h87l49 -63h2l51 63h85l-93 -106h-92z" />
    <glyph glyph-name="uni02C9" unicode="&#x2c9;" horiz-adv-x="500" 
d="M121 689h258v-67h-258v67z" />
    <glyph glyph-name="breve" unicode="&#x2d8;" horiz-adv-x="500" 
d="M250 604q-26 0 -48 8t-39.5 22.5t-28 35t-11.5 45.5h60q5 -23 20.5 -36t45.5 -13t47.5 13t22.5 36h58q-1 -23 -10.5 -43t-26 -35t-39.5 -24t-51 -9z" />
    <glyph glyph-name="dotaccent" unicode="&#x2d9;" horiz-adv-x="500" 
d="M209 715h81v-100h-81v100z" />
    <glyph glyph-name="ring" unicode="&#x2da;" horiz-adv-x="509" 
d="M254 559q-18 0 -34 6.5t-27.5 18t-18.5 27t-7 33.5t7 33.5t18.5 27t27.5 18t34 6.5t34 -6.5t27.5 -18t18.5 -27t7 -33.5t-7 -33.5t-18.5 -27t-27.5 -18t-34 -6.5zM254 594q21 0 34 14.5t13 35.5t-13 35.5t-34 14.5t-34 -14.5t-13 -35.5t13 -35.5t34 -14.5z" />
    <glyph glyph-name="ogonek" unicode="&#x2db;" horiz-adv-x="500" 
d="M229 -172q-50 0 -75.5 22t-25.5 57q0 17 6.5 31t17 26t23.5 21t25 15h62q-23 -19 -40.5 -39t-17.5 -41q0 -34 40 -34q21 0 37 7h3v-56q-10 -3 -23.5 -6t-31.5 -3z" />
    <glyph glyph-name="tilde" unicode="&#x2dc;" horiz-adv-x="500" 
d="M313 601q-18 0 -35 5t-32.5 11t-29 11t-23.5 5q-11 0 -16.5 -8t-6.5 -22h-60q4 43 23 67.5t54 24.5q20 0 35.5 -5t29 -11t26 -11t26.5 -5t19.5 9t7.5 21h58q-2 -38 -19.5 -65t-56.5 -27z" />
    <glyph glyph-name="hungarumlaut" unicode="&#x2dd;" horiz-adv-x="500" 
d="M298 725h82l-52 -127h-61zM168 725h82l-52 -127h-61z" />
    <glyph glyph-name="Delta" unicode="&#x394;" horiz-adv-x="648" 
d="M19 80l254 635h101l255 -636v-79h-610v80zM107 73h430l-180 462q-6 15 -11.5 32.5t-10.5 32.5q-5 18 -11 36h-2q-6 -18 -11 -36q-5 -15 -11 -32.5t-12 -32.5z" />
    <glyph glyph-name="Omega" unicode="&#x3a9;" horiz-adv-x="740" 
d="M562 75h132v-75h-283v75q52 7 89.5 33t61.5 66t35 91.5t11 109.5q0 63 -16 114.5t-46 87.5t-74.5 56t-101.5 20t-101.5 -20t-74.5 -56t-46 -87.5t-16 -114.5q0 -58 11.5 -109.5t35.5 -91.5t61 -66t89 -33v-75h-283v75h131v2q-68 42 -102.5 117t-34.5 178q0 80 24 146
t67.5 113.5t104.5 73.5t134 26t134 -26t104.5 -73.5t67.5 -113.5t24 -146q0 -103 -35 -178t-103 -117v-2z" />
    <glyph glyph-name="mu" unicode="&#x3bc;" horiz-adv-x="523" 
d="M55 517h81v-356q0 -51 30.5 -78.5t85.5 -27.5q31 0 56 11t42.5 30.5t27 45.5t9.5 57v318h81v-517h-81v71h-2q-28 -38 -62.5 -60.5t-88.5 -22.5q-65 0 -96 35h-2v-189h-81v683z" />
    <glyph glyph-name="pi" unicode="&#x3c0;" horiz-adv-x="612" 
d="M22 517h561v-66h-93v-336q0 -27 14 -37.5t38 -10.5q12 0 20.5 2.5t15.5 4.5h3v-70q-12 -3 -27.5 -5t-31.5 -2q-24 0 -44.5 5t-35.5 17t-24 31t-9 47v354h-226v-451h-81v451h-80v66z" />
    <glyph glyph-name="endash" unicode="&#x2013;" horiz-adv-x="500" 
d="M0 289h500v-69h-500v69z" />
    <glyph glyph-name="emdash" unicode="&#x2014;" horiz-adv-x="1000" 
d="M100 289h800v-69h-800v69z" />
    <glyph glyph-name="quoteleft" unicode="&#x2018;" horiz-adv-x="169" 
d="M42 607q0 54 24.5 79.5t59.5 30.5v-38q-17 -7 -27.5 -23.5t-10.5 -48.5h39v-100h-85v100z" />
    <glyph glyph-name="quoteright" unicode="&#x2019;" horiz-adv-x="169" 
d="M127 615q0 -54 -24.5 -79.5t-59.5 -30.5v38q17 7 27.5 23.5t10.5 48.5h-39v100h85v-100z" />
    <glyph glyph-name="quotesinglbase" unicode="&#x201a;" horiz-adv-x="169" 
d="M127 0q0 -54 -24.5 -79.5t-59.5 -30.5v38q17 7 27.5 23.5t10.5 48.5h-39v100h85v-100z" />
    <glyph glyph-name="quotedblleft" unicode="&#x201c;" horiz-adv-x="320" 
d="M42 607q0 54 24.5 79.5t59.5 30.5v-38q-17 -7 -27.5 -23.5t-10.5 -48.5h39v-100h-85v100zM193 607q0 54 24.5 79.5t59.5 30.5v-38q-17 -7 -27.5 -23.5t-10.5 -48.5h39v-100h-85v100z" />
    <glyph glyph-name="quotedblright" unicode="&#x201d;" horiz-adv-x="320" 
d="M278 615q0 -54 -24.5 -79.5t-59.5 -30.5v38q17 7 27.5 23.5t10.5 48.5h-39v100h85v-100zM127 615q0 -54 -24.5 -79.5t-59.5 -30.5v38q17 7 27.5 23.5t10.5 48.5h-39v100h85v-100z" />
    <glyph glyph-name="quotedblbase" unicode="&#x201e;" horiz-adv-x="320" 
d="M278 0q0 -54 -24.5 -79.5t-59.5 -30.5v38q17 7 27.5 23.5t10.5 48.5h-39v100h85v-100zM127 0q0 -54 -24.5 -79.5t-59.5 -30.5v38q17 7 27.5 23.5t10.5 48.5h-39v100h85v-100z" />
    <glyph glyph-name="dagger" unicode="&#x2020;" horiz-adv-x="546" 
d="M34 529h198v186h82v-186h198v-73h-198v-560h-82v560h-198v73z" />
    <glyph glyph-name="daggerdbl" unicode="&#x2021;" horiz-adv-x="546" 
d="M34 529h198v186h82v-186h198v-73h-198v-301h198v-73h-198v-186h-82v186h-198v73h198v301h-198v73z" />
    <glyph glyph-name="bullet" unicode="&#x2022;" horiz-adv-x="305" 
d="M153 207q-25 0 -46.5 9.5t-37.5 25.5t-25.5 37.5t-9.5 45.5t9.5 46t25.5 38t37.5 25.5t46.5 9.5q24 0 45.5 -9.5t37.5 -25.5t25.5 -38t9.5 -46t-9.5 -45.5t-25.5 -37.5t-37.5 -25.5t-45.5 -9.5z" />
    <glyph glyph-name="ellipsis" unicode="&#x2026;" horiz-adv-x="615" 
d="M474 99h97v-99h-97v99zM44 99h97v-99h-97v99zM259 99h97v-99h-97v99z" />
    <glyph glyph-name="perthousand" unicode="&#x2030;" horiz-adv-x="1153" 
d="M186 305q-36 0 -66 14t-51 40t-33 62.5t-12 81.5q0 46 12.5 82.5t34 62t51 39.5t64.5 14q34 0 63.5 -13.5t51 -39t33.5 -62.5t12 -83q0 -45 -11.5 -81.5t-32.5 -62.5t-50.5 -40t-65.5 -14zM609 -15q-36 0 -66 14t-51 40t-33 62.5t-12 81.5q0 46 12.5 82.5t34 62t51 39.5
t64.5 14q34 0 63.5 -13.5t51 -39t33.5 -62.5t12 -83q0 -45 -11.5 -81.5t-32.5 -62.5t-50.5 -40t-65.5 -14zM969 -15q-36 0 -66 14t-51 40t-33 62.5t-12 81.5q0 46 12.5 82.5t34 62t51 39.5t64.5 14q34 0 63.5 -13.5t51 -39t33.5 -62.5t12 -83q0 -45 -11.5 -81.5t-32.5 -62.5
t-50.5 -40t-65.5 -14zM559 685h68l-393 -685h-68zM186 365q43 0 64.5 39t21.5 99q0 29 -5.5 54.5t-16.5 44t-27 29t-37 10.5q-42 0 -64 -39t-22 -99q0 -29 5.5 -54.5t16.5 -44t27 -29t37 -10.5zM609 45q43 0 64.5 39t21.5 99q0 29 -5.5 54.5t-16.5 44t-27 29t-37 10.5
q-42 0 -64 -39t-22 -99q0 -29 5.5 -54.5t16.5 -44t27 -29t37 -10.5zM969 45q43 0 64.5 39t21.5 99q0 29 -5.5 54.5t-16.5 44t-27 29t-37 10.5q-42 0 -64 -39t-22 -99q0 -29 5.5 -54.5t16.5 -44t27 -29t37 -10.5z" />
    <glyph glyph-name="guilsinglleft" unicode="&#x2039;" horiz-adv-x="246" 
d="M50 228v87l146 115v-79l-104 -78v-2l104 -79v-79z" />
    <glyph glyph-name="guilsinglright" unicode="&#x203a;" horiz-adv-x="246" 
d="M50 192l104 78v2l-104 79v79l146 -115v-87l-146 -115v79z" />
    <glyph glyph-name="fraction" unicode="&#x2044;" horiz-adv-x="169" 
d="M275 715h72l-453 -715h-72z" />
    <glyph glyph-name="Euro" unicode="&#x20ac;" horiz-adv-x="611" 
d="M22 430h64q10 62 33.5 112t58 85.5t79 54.5t96.5 19q47 0 86 -15t68.5 -42t48 -64.5t24.5 -82.5h-82q-12 63 -48.5 97.5t-98.5 34.5q-74 0 -118.5 -53t-58.5 -146h200v-54h-205q-1 -9 -1 -17.5v-17.5v-17.5t1 -16.5h205v-54h-200q15 -95 62 -145t121 -50q69 0 106 45
t46 124h78q-2 -52 -19.5 -96.5t-48 -76.5t-73 -50.5t-94.5 -18.5q-48 0 -92 18t-79 52.5t-60 84t-35 113.5h-64v54h58q-1 8 -1 16.5v17.5v17.5t1 17.5h-58v54z" />
    <glyph glyph-name="afii61289" unicode="&#x2113;" horiz-adv-x="337" 
d="M68 594q0 62 33.5 95.5t90.5 33.5q55 0 85.5 -36.5t30.5 -115.5q0 -64 -12 -114.5t-33.5 -90t-50.5 -69t-63 -50.5v-103q0 -43 16 -61t50 -18q26 0 44 7.5t33 15.5h3v-67q-14 -11 -38 -17.5t-51 -6.5q-61 0 -99.5 32t-38.5 110v68q-14 -5 -27 -9t-27 -8v60q14 5 27.5 9.5
t26.5 10.5v324zM201 385q20 35 29 78.5t9 108.5q0 51 -12 69.5t-34 18.5q-21 0 -32.5 -15.5t-11.5 -50.5v-274q30 27 52 65z" />
    <glyph glyph-name="trademark" unicode="&#x2122;" horiz-adv-x="639" 
d="M315 715h80l62 -218h1l63 218h81v-286h-52v219h-2q-3 -13 -7 -27q-3 -12 -7.5 -26t-8.5 -28l-41 -138h-53l-41 138q-4 12 -8 26.5t-7 26.5l-7 28h-2v-219h-51v286zM32 715h236v-47h-90v-239h-56v239h-90v47z" />
    <glyph glyph-name="uni2126" unicode="&#x2126;" horiz-adv-x="740" 
d="M562 75h132v-75h-283v75q52 7 89.5 33t61.5 66t35 91.5t11 109.5q0 63 -16 114.5t-46 87.5t-74.5 56t-101.5 20t-101.5 -20t-74.5 -56t-46 -87.5t-16 -114.5q0 -58 11.5 -109.5t35.5 -91.5t61 -66t89 -33v-75h-283v75h131v2q-68 42 -102.5 117t-34.5 178q0 80 24 146
t67.5 113.5t104.5 73.5t134 26t134 -26t104.5 -73.5t67.5 -113.5t24 -146q0 -103 -35 -178t-103 -117v-2z" />
    <glyph glyph-name="estimated" unicode="&#x212e;" horiz-adv-x="621" 
d="M160 301v-203q28 -29 68.5 -45t98.5 -16q88 0 136.5 39.5t72.5 109.5h51q-10 -43 -31 -79t-53.5 -62.5t-76.5 -41t-99 -14.5q-71 0 -126.5 23.5t-93.5 66t-58 101t-20 129.5q0 70 21.5 128.5t60.5 100.5t92.5 65.5t118.5 23.5q54 0 97 -15.5t76 -43.5q55 -47 76 -113.5
t20 -153.5h-431zM322 582q-54 0 -95 -17t-67 -45v-175h303v188q-23 23 -58.5 36t-82.5 13z" />
    <glyph glyph-name="partialdiff" unicode="&#x2202;" horiz-adv-x="549" 
d="M414 397q-14 114 -79.5 174t-177.5 79v72q101 -12 168 -49t107 -94t56.5 -131.5t16.5 -161.5q0 -56 -15 -109.5t-45.5 -96t-77.5 -68.5t-111 -26q-51 0 -90.5 16.5t-66.5 45t-41 67t-14 83.5q0 55 16.5 102.5t47.5 83t75 55.5t98 20q38 0 74 -15.5t59 -46.5zM257 53
q36 0 66 17t51 45t33 63.5t12 72.5q0 61 -36.5 101t-97.5 40q-35 0 -64 -14t-50 -39.5t-32.5 -61.5t-11.5 -79q0 -31 8 -57.5t24.5 -46t41 -30.5t56.5 -11z" />
    <glyph glyph-name="uni2206" unicode="&#x2206;" horiz-adv-x="648" 
d="M19 80l254 635h101l255 -636v-79h-610v80zM107 73h430l-180 462q-6 15 -11.5 32.5t-10.5 32.5q-5 18 -11 36h-2q-6 -18 -11 -36q-5 -15 -11 -32.5t-12 -32.5z" />
    <glyph glyph-name="product" unicode="&#x220f;" horiz-adv-x="703" 
d="M632 715v-815h-90v736h-381v-736h-90v815h561z" />
    <glyph glyph-name="summation" unicode="&#x2211;" horiz-adv-x="616" 
d="M40 -100v91l282 324v2l-282 312v86h528v-79h-423v-2l273 -295v-40l-280 -314v-2h440v-83h-538z" />
    <glyph glyph-name="minus" unicode="&#x2212;" horiz-adv-x="560" 
d="M53 358h454v-64h-454v64z" />
    <glyph glyph-name="uni2215" unicode="&#x2215;" horiz-adv-x="169" 
d="M275 715h72l-453 -715h-72z" />
    <glyph glyph-name="uni2219" unicode="&#x2219;" horiz-adv-x="185" 
d="M47 362h97v-99h-97v99z" />
    <glyph glyph-name="radical" unicode="&#x221a;" horiz-adv-x="579" 
d="M14 313h130l79 -206q6 -17 13.5 -37.5t13.5 -39.5l14 -44h2l12 42q5 18 11 39t12 40l184 608h84l-256 -815h-92l-133 339h-74v74z" />
    <glyph glyph-name="infinity" unicode="&#x221e;" horiz-adv-x="715" 
d="M186 131q-38 0 -66 14t-47 38t-28.5 55.5t-9.5 66.5q0 34 9.5 65.5t28.5 55.5t47.5 38t65.5 14q30 0 55 -9.5t46.5 -25t39.5 -37t33 -45.5q15 24 32.5 45.5t38 37t44.5 25t53 9.5q34 0 62.5 -12.5t48 -35.5t30.5 -54.5t11 -70.5t-11 -71t-30.5 -55t-48 -35.5t-62.5 -12.5
q-29 0 -53 9.5t-44.5 25t-38 37t-32.5 45.5q-15 -24 -33 -45.5t-39.5 -37t-46.5 -25t-55 -9.5zM192 406q-42 0 -60 -29.5t-18 -71.5q0 -43 18 -72.5t60 -29.5q20 0 37.5 8.5t32.5 22.5t28 32t25 38q-12 20 -25 38.5t-28 32.5t-32.5 22.5t-37.5 8.5zM522 203q42 0 60.5 29.5
t18.5 72.5q0 42 -18.5 71.5t-60.5 29.5q-19 0 -35 -8.5t-30.5 -22.5t-27 -32.5t-24.5 -38.5q12 -20 24.5 -38t27 -32t30.5 -22.5t35 -8.5z" />
    <glyph glyph-name="integral" unicode="&#x222b;" horiz-adv-x="337" 
d="M117 604q0 37 10.5 63t28.5 42.5t42.5 24t53.5 7.5q43 0 73 -9v-72h-3q-8 3 -22 6t-34 3q-68 0 -68 -70v-638q0 -37 -10.5 -63t-28.5 -42.5t-43 -24t-53 -7.5q-23 0 -40.5 2.5t-32.5 7.5v72h3q8 -3 22 -6.5t34 -3.5q68 0 68 70v638z" />
    <glyph glyph-name="approxequal" unicode="&#x2248;" horiz-adv-x="560" 
d="M399 337q-30 0 -65.5 6.5t-70.5 14t-66 14t-52 6.5q-23 0 -33 -13t-11 -36h-65q2 57 31 86t77 29q30 0 65.5 -6.5t70 -14t64.5 -14t50 -6.5q24 0 35.5 13t12.5 36h65q-2 -53 -28 -84t-80 -31zM399 178q-30 0 -65.5 6.5t-70.5 14t-66 14t-52 6.5q-23 0 -33 -13t-11 -36
h-65q2 57 31 86t77 29q30 0 65.5 -6.5t70 -14t64.5 -14t50 -6.5q24 0 35.5 13t12.5 36h65q-2 -53 -28 -84t-80 -31z" />
    <glyph glyph-name="notequal" unicode="&#x2260;" horiz-adv-x="560" 
d="M53 433h251l45 96h68l-45 -96h135v-64h-164l-52 -111h216v-64h-245l-51 -110h-68l51 110h-141v64h170l52 111h-222v64z" />
    <glyph glyph-name="lessequal" unicode="&#x2264;" horiz-adv-x="511" 
d="M50 275v83l407 168v-73l-343 -134v-2l343 -136v-74zM50 64h407v-64h-407v64z" />
    <glyph glyph-name="greaterequal" unicode="&#x2265;" horiz-adv-x="511" 
d="M54 107v74l343 136v2l-343 134v73l407 -168v-83zM461 0h-407v64h407v-64z" />
    <glyph glyph-name="lozenge" unicode="&#x25ca;" horiz-adv-x="546" 
d="M520 357l-201 -357h-91l-202 358l201 357h91zM120 360l153 -281h2l150 275l-152 282h-2z" />
    <glyph glyph-name="uniFB01" unicode="&#xfb01;" horiz-adv-x="475" 
d="M22 517h71v83q0 67 36 94t101 27q13 0 23 -0.5t18 -1.5v-69q-11 1 -15.5 1h-10.5q-39 0 -55 -11.5t-16 -43.5v-79h96v-66h-96v-451h-81v451h-71v66zM339 517h81v-517h-81v517zM339 715h81v-100h-81v100z" />
    <glyph glyph-name="uniFB02" unicode="&#xfb02;" horiz-adv-x="481" 
d="M342 715h81v-715h-81v715zM22 517h71v83q0 67 36 94t101 27q13 0 23 -0.5t18 -1.5v-69q-11 1 -15.5 1h-10.5q-39 0 -55 -11.5t-16 -43.5v-79h96v-66h-96v-451h-81v451h-71v66z" />
    </font>
</defs>
</svg>
