<svg width="316" height="166" viewBox="0 0 316 166" fill="none" xmlns="http://www.w3.org/2000/svg">
<path opacity="0.7" d="M275.995 0.480469L22.001 0.480469L20.8899 3.10478L19.7842 5.71711L273.778 5.71711H308.73V160.232H58.331H8.02456V15.9867L4.45147 15.1598L0.889282 14.349L0.889282 165.48H56.0924H310.092L311.198 162.856L311.601 161.882L312.309 162.041L315.887 162.856V0.480469L275.995 0.480469Z" fill="white"/>
<g opacity="0.8">
<path opacity="0.8" d="M126.552 162.856L125.424 165.48H140.763L141.868 162.856L142.979 160.232H127.658L126.552 162.856Z" fill="#0A6C36"/>
<path opacity="0.8" d="M98.3212 162.856L97.2101 165.48H112.543L113.654 162.856L114.76 160.232H99.4269L98.3212 162.856Z" fill="#FC3434"/>
<path opacity="0.8" d="M70.1014 162.856L68.9957 165.48H84.3121L85.4341 162.856L86.5452 160.232H71.2126L70.1014 162.856Z" fill="#0A6C36"/>
<path opacity="0.8" d="M181.875 165.48H197.191L198.318 162.856L199.424 160.232H184.091L181.875 165.48Z" fill="#0A6C36"/>
<path opacity="0.8" d="M154.766 162.856L153.644 165.48H168.977L170.105 162.856L171.21 160.232H155.878L154.766 162.856Z" fill="#FC3434"/>
<path opacity="0.8" d="M267.65 162.856L266.523 165.48H281.856L282.983 162.856L284.089 160.232H268.756L267.65 162.856Z" fill="#FC3434"/>
<path opacity="0.8" d="M239.431 162.856L238.309 165.48H253.641L254.753 162.856L255.858 160.232H240.542L239.431 162.856Z" fill="#0A6C36"/>
<path opacity="0.8" d="M211.2 162.856L210.089 165.48H225.427L226.533 162.856L227.644 160.232H212.311L211.2 162.856Z" fill="#FC3434"/>
<path opacity="0.8" d="M0.889038 65.2296L0.889038 76.4857L4.45123 77.3006L8.02432 78.1234V66.8712L4.45123 66.0444L0.889038 65.2296Z" fill="#FC3434"/>
<path opacity="0.8" d="M0.889038 44.5225L0.889038 55.7746L4.45123 56.5895L8.02432 57.4043V46.1602L4.45123 45.3373L0.889038 44.5225Z" fill="#0A6C36"/>
<path opacity="0.8" d="M0.889038 23.8154L0.889038 35.0676L4.45123 35.8824L8.02432 36.6933V25.4411L4.45123 24.6263L0.889038 23.8154Z" fill="#FC3434"/>
<path opacity="0.8" d="M0.889038 106.659L0.889038 117.915L4.45123 118.726L8.02432 119.541V108.288L4.45123 107.474L0.889038 106.659Z" fill="#FC3434"/>
<path opacity="0.8" d="M0.889038 85.9522L0.889038 97.2044L4.45123 98.0192L8.02432 98.8341V87.5779L4.45123 86.7631L0.889038 85.9522Z" fill="#0A6C36"/>
<path opacity="0.8" d="M41.8869 162.856L40.7594 165.48H56.0921L57.2196 162.856L58.3307 160.232H42.9926L41.8869 162.856Z" fill="#FC3434"/>
<path opacity="0.8" d="M13.6507 162.856L12.545 165.48H27.8777L30.0946 160.232H14.7619L13.6507 162.856Z" fill="#0A6C36"/>
<path opacity="0.8" d="M0.889038 148.088L0.889038 159.329C0.889038 159.329 2.67013 159.728 4.45123 160.155C5.60596 160.446 6.85403 160.473 8.02976 160.231V149.714L4.45123 148.915L0.889038 148.088Z" fill="#FC3434"/>
<path opacity="0.8" d="M0.889038 127.37L0.889038 138.622L4.45123 139.437L8.02432 140.248V129.008L4.45123 128.181L0.889038 127.37Z" fill="#0A6C36"/>
<path opacity="0.8" d="M308.73 25.7009V36.9531L312.308 37.7679L315.887 38.5828V27.3386L312.308 26.5278L308.73 25.7009Z" fill="#0A6C36"/>
<path opacity="0.8" d="M312.308 5.80488C311.154 5.5164 309.908 5.48582 308.73 5.717V16.2462L312.308 17.045L315.887 17.8439V6.61973L312.308 5.80488Z" fill="#FC3434"/>
<path opacity="0.8" d="M303.103 3.10477L304.214 0.480469L288.876 0.480469L287.77 3.10477L286.659 5.71709H301.992L303.103 3.10477Z" fill="#0A6C36"/>
<path opacity="0.8" d="M308.73 67.1309V78.383L312.308 79.1979L315.887 80.0087V68.7566L312.308 67.9417L308.73 67.1309Z" fill="#0A6C36"/>
<path opacity="0.8" d="M308.73 46.4077V57.6638L312.308 58.4866L315.887 59.3015V48.0493L312.308 47.2345L308.73 46.4077Z" fill="#FC3434"/>
<path opacity="0.8" d="M308.73 149.974V160.231H303.523H296.971L295.865 162.856L294.759 165.48H303.523H310.092H315.887V162.856V160.231V151.604L312.309 150.789L308.73 149.974Z" fill="#0A6C36"/>
<path opacity="0.8" d="M308.73 129.267V140.507L312.308 141.334L315.887 142.149V130.893L312.308 130.082L308.73 129.267Z" fill="#FC3434"/>
<path opacity="0.8" d="M308.73 108.544V119.8L312.308 120.627L315.887 121.438V110.186L312.308 109.371L308.73 108.544Z" fill="#0A6C36"/>
<path opacity="0.8" d="M308.73 87.8374V99.0896L312.308 99.9044L315.887 100.719V89.4631L312.308 88.6523L308.73 87.8374Z" fill="#FC3434"/>
<path opacity="0.8" d="M105.56 3.10477L106.666 0.480469L91.3329 0.480469L90.2218 3.10477L89.1161 5.71709H104.449L105.56 3.10477Z" fill="#FC3434"/>
<path opacity="0.8" d="M77.3399 3.10477L78.4511 0.480469L63.113 0.480469L62.0073 3.10477L60.8961 5.71709H76.2342L77.3399 3.10477Z" fill="#0A6C36"/>
<path opacity="0.8" d="M49.1092 3.10477L50.2313 0.480469L34.8986 0.480469L33.7929 3.10477L32.6818 5.71709H47.9981L49.1092 3.10477Z" fill="#FC3434"/>
<path opacity="0.8" d="M161.989 3.10477L163.116 0.480469L147.778 0.480469L146.672 3.10477L145.561 5.71709H160.883L161.989 3.10477Z" fill="#FC3434"/>
<path opacity="0.8" d="M133.774 3.10477L134.896 0.480469L119.563 0.480469L118.441 3.10477L117.33 5.71709H132.663L133.774 3.10477Z" fill="#0A6C36"/>
<path opacity="0.8" d="M274.889 3.10477L275.995 0.480469L260.662 0.480469L259.551 3.10477L258.445 5.71709H273.778L274.889 3.10477Z" fill="#FC3434"/>
<path opacity="0.8" d="M246.653 3.10477L247.781 0.480469L232.448 0.480469L231.32 3.10477L230.215 5.71709H245.547L246.653 3.10477Z" fill="#0A6C36"/>
<path opacity="0.8" d="M218.439 3.10477L219.544 0.480469L204.228 0.480469L203.106 3.10477L201.995 5.71709H217.327L218.439 3.10477Z" fill="#FC3434"/>
<path opacity="0.8" d="M190.224 3.10477L191.33 0.480469L175.997 0.480469L174.886 3.10477L173.78 5.71709H189.113L190.224 3.10477Z" fill="#0A6C36"/>
<path opacity="0.8" d="M13.2318 5.71746H19.7843L20.89 3.10514L22.0011 0.480835L13.2318 0.480835L6.68478 0.480835L0.889404 0.480835V3.10514V5.71746L0.889404 14.3493L4.4516 15.1602L8.02468 15.987V5.71746H13.2318Z" fill="#007036"/>
</g>
</svg>
