<svg width="20" height="20" viewBox="0 0 20 20" fill="none" xmlns="http://www.w3.org/2000/svg">
<path d="M6.27797 7.58763H4.66548C4.48504 7.58763 4.31195 7.65937 4.18435 7.78696C4.05676 7.91456 3.98511 8.08756 3.98511 8.26801V11.4998C3.98511 11.6802 4.05676 11.8533 4.18435 11.9809C4.31195 12.1085 4.48504 12.1802 4.66548 12.1802H6.27797L8.99948 14.473C9.09875 14.558 9.22043 14.6125 9.34988 14.6302C9.47933 14.6478 9.61113 14.6279 9.72952 14.5726C9.84791 14.5174 9.94784 14.4292 10.0175 14.3186C10.0871 14.2081 10.1234 14.0798 10.1221 13.9491V5.78462C10.1221 5.65455 10.0849 5.52722 10.0147 5.41769C9.94459 5.30815 9.8445 5.22103 9.72636 5.16662C9.60823 5.1122 9.47696 5.09283 9.34814 5.11072C9.21931 5.12861 9.09832 5.18298 8.99948 5.26753L6.27797 7.58763Z" stroke="white" stroke-linecap="round" stroke-linejoin="round"/>
<path d="M12.7302 12.5918C13.1684 12.29 13.523 11.8822 13.7609 11.4063C13.9989 10.9304 14.1125 10.4019 14.091 9.87031C14.1093 9.33915 13.9944 8.81192 13.7567 8.33655C13.519 7.86119 13.1661 7.45283 12.7302 7.1488" stroke="white" stroke-linecap="round" stroke-linejoin="round"/>
<path d="M14.7444 14.6942C15.3899 14.071 15.9033 13.3242 16.2539 12.4984C16.6045 11.6725 16.7853 10.7845 16.7853 9.88726C16.7853 8.99005 16.6045 8.10207 16.2539 7.27622C15.9033 6.45036 15.3899 5.70359 14.7444 5.08044" stroke="white" stroke-linecap="round" stroke-linejoin="round"/>
</svg>
