<svg width="25" height="27" viewBox="0 0 25 27" fill="none" xmlns="http://www.w3.org/2000/svg">
<path d="M9.79725 23.4775L12.8614 25.5203L15.9256 23.4775" stroke="white" stroke-width="1.26179" stroke-linecap="round" stroke-linejoin="round"/>
<path d="M12.8617 0.705321C14.3128 0.708442 15.7037 1.37602 16.7298 2.56201C17.756 3.748 18.3336 5.35558 18.3363 7.03282L18.3363 12.0858C18.3336 13.7631 17.756 15.3706 16.7298 16.5566C15.7037 17.7426 14.3128 18.4102 12.8617 18.4133C11.4105 18.4102 10.0196 17.7426 8.99347 16.5566C7.96736 15.3706 7.38971 13.7631 7.38701 12.0858L7.38701 7.03282C7.38971 5.35558 7.96736 3.748 8.99347 2.56201C10.0196 1.37602 11.4105 0.708442 12.8617 0.705321V0.705321Z" stroke="white" stroke-width="1.26179" stroke-linecap="round" stroke-linejoin="round"/>
<path d="M12.8615 15.052L12.8615 12.8661" stroke="white" stroke-width="1.26179" stroke-linecap="round" stroke-linejoin="round"/>
</svg>
