<svg width="18" height="18" viewBox="0 0 18 18" fill="none" xmlns="http://www.w3.org/2000/svg">
<mask id="path-1-inside-1_1_6982" fill="white">
<path d="M12.4274 5.49817C12.498 5.56878 12.5426 5.66541 12.5426 5.7769L12.5426 10.2886C12.5426 10.5042 12.3642 10.6826 12.1487 10.6826C11.9331 10.6826 11.7547 10.5042 11.7547 10.2886L11.7547 6.17084L7.63695 6.17084C7.4214 6.17084 7.24301 5.99246 7.24301 5.7769C7.24301 5.56135 7.4214 5.38296 7.63695 5.38296L12.1487 5.38296C12.2602 5.38296 12.3568 5.42756 12.4274 5.49817Z"/>
</mask>
<path d="M12.4274 5.49817C12.498 5.56878 12.5426 5.66541 12.5426 5.7769L12.5426 10.2886C12.5426 10.5042 12.3642 10.6826 12.1487 10.6826C11.9331 10.6826 11.7547 10.5042 11.7547 10.2886L11.7547 6.17084L7.63695 6.17084C7.4214 6.17084 7.24301 5.99246 7.24301 5.7769C7.24301 5.56135 7.4214 5.38296 7.63695 5.38296L12.1487 5.38296C12.2602 5.38296 12.3568 5.42756 12.4274 5.49817Z" fill="white"/>
<path d="M12.5426 5.7769L13.5426 5.7769L13.5426 5.7769L12.5426 5.7769ZM12.5426 10.2886L11.5426 10.2886L11.5426 10.2886L12.5426 10.2886ZM11.7547 10.2886L10.7547 10.2886L10.7547 10.2886L11.7547 10.2886ZM11.7547 6.17084L12.7547 6.17084L12.7547 5.17084L11.7547 5.17084L11.7547 6.17084ZM7.63695 6.17084L7.63695 7.17084L7.63695 6.17084ZM7.63695 5.38296L7.63695 6.38296L7.63695 5.38296ZM12.1487 5.38296L12.1487 4.38296L12.1487 5.38296ZM11.7203 6.20528C11.6135 6.09847 11.5426 5.9446 11.5426 5.7769L13.5426 5.7769C13.5426 5.38622 13.3825 5.03909 13.1345 4.79107L11.7203 6.20528ZM11.5426 5.7769L11.5426 10.2886L13.5426 10.2886L13.5426 5.7769L11.5426 5.7769ZM11.5426 10.2886C11.5426 9.9519 11.8119 9.68257 12.1487 9.68257L12.1487 11.6826C12.9165 11.6826 13.5426 11.0565 13.5426 10.2886L11.5426 10.2886ZM12.1487 9.68257C12.4854 9.68257 12.7547 9.9519 12.7547 10.2886L10.7547 10.2886C10.7547 11.0565 11.3808 11.6826 12.1487 11.6826L12.1487 9.68257ZM12.7547 10.2886L12.7547 6.17084L10.7547 6.17084L10.7547 10.2886L12.7547 10.2886ZM11.7547 5.17084L7.63695 5.17084L7.63695 7.17084L11.7547 7.17084L11.7547 5.17084ZM7.63695 5.17084C7.97368 5.17084 8.24301 5.44017 8.24301 5.7769L6.24301 5.7769C6.24301 6.54474 6.86911 7.17084 7.63695 7.17084L7.63695 5.17084ZM8.24301 5.7769C8.24301 6.11364 7.97368 6.38296 7.63695 6.38296L7.63695 4.38296C6.86911 4.38296 6.24301 5.00907 6.24301 5.7769L8.24301 5.7769ZM7.63695 6.38296L12.1487 6.38296L12.1487 4.38296L7.63695 4.38296L7.63695 6.38296ZM12.1487 6.38296C11.981 6.38296 11.8271 6.31208 11.7203 6.20528L13.1345 4.79107C12.8865 4.54304 12.5394 4.38296 12.1487 4.38296L12.1487 6.38296Z" fill="white" mask="url(#path-1-inside-1_1_6982)"/>
<mask id="path-3-inside-2_1_6982" fill="white">
<path d="M12.3643 5.5613C12.5166 5.71367 12.5166 5.96639 12.3643 6.11876L6.10954 12.3735C5.95717 12.5259 5.70445 12.5259 5.55208 12.3735C5.39971 12.2211 5.39971 11.9684 5.55208 11.816L11.8068 5.5613C11.9592 5.40892 12.2119 5.40892 12.3643 5.5613Z"/>
</mask>
<path d="M12.3643 5.5613C12.5166 5.71367 12.5166 5.96639 12.3643 6.11876L6.10954 12.3735C5.95717 12.5259 5.70445 12.5259 5.55208 12.3735C5.39971 12.2211 5.39971 11.9684 5.55208 11.816L11.8068 5.5613C11.9592 5.40892 12.2119 5.40892 12.3643 5.5613Z" fill="white"/>
<path d="M11.6572 6.2684C11.419 6.03025 11.419 5.6498 11.6572 5.41165L13.0714 6.82587C13.6143 6.28297 13.6143 5.39709 13.0714 4.85419L11.6572 6.2684ZM11.6572 5.41165L5.40244 11.6664L6.81665 13.0806L13.0714 6.82587L11.6572 5.41165ZM5.40244 11.6664C5.64059 11.4282 6.02103 11.4282 6.25919 11.6664L4.84497 13.0806C5.38787 13.6235 6.27375 13.6235 6.81665 13.0806L5.40244 11.6664ZM6.25919 11.6664C6.49734 11.9045 6.49734 12.285 6.25919 12.5231L4.84497 11.1089C4.30208 11.6518 4.30208 12.5377 4.84497 13.0806L6.25919 11.6664ZM6.25919 12.5231L12.5139 6.2684L11.0997 4.85419L4.84497 11.1089L6.25919 12.5231ZM12.5139 6.2684C12.2758 6.50656 11.8953 6.50656 11.6572 6.2684L13.0714 4.85419C12.5285 4.31129 11.6426 4.31129 11.0997 4.85419L12.5139 6.2684Z" fill="white" mask="url(#path-3-inside-2_1_6982)"/>
</svg>
