<svg width="20" height="20" viewBox="0 0 20 20" fill="none" xmlns="http://www.w3.org/2000/svg">
<path d="M6.27797 7.58775H4.66548C4.48504 7.58775 4.31195 7.65949 4.18435 7.78708C4.05676 7.91468 3.98511 8.08768 3.98511 8.26813V11.4999C3.98511 11.6804 4.05676 11.8535 4.18435 11.981C4.31195 12.1086 4.48504 12.1803 4.66548 12.1803H6.27797L8.99948 14.4732C9.09875 14.5581 9.22043 14.6126 9.34988 14.6303C9.47933 14.6479 9.61113 14.628 9.72952 14.5727C9.84791 14.5175 9.94784 14.4293 10.0175 14.3188C10.0871 14.2082 10.1234 14.0799 10.1221 13.9493V5.78474C10.1221 5.65468 10.0849 5.52734 10.0147 5.41781C9.94459 5.30828 9.8445 5.22115 9.72636 5.16674C9.60823 5.11232 9.47696 5.09295 9.34814 5.11084C9.21931 5.12873 9.09832 5.18311 8.99948 5.26765L6.27797 7.58775Z" stroke="white" stroke-linecap="round" stroke-linejoin="round"/>
<path fill-rule="evenodd" clip-rule="evenodd" d="M12.7349 12.2096C12.5068 11.9814 12.5068 11.6114 12.7349 11.3833L16.1449 7.97335C16.373 7.74516 16.743 7.74516 16.9712 7.97335V7.97335C17.1994 8.20154 17.1994 8.5715 16.9712 8.79969L13.5613 12.2096C13.3331 12.4378 12.9631 12.4378 12.7349 12.2096V12.2096Z" fill="white"/>
<path fill-rule="evenodd" clip-rule="evenodd" d="M12.7349 7.97335C12.963 7.74516 13.333 7.74516 13.5612 7.97335L16.9711 11.3833C17.1993 11.6114 17.1993 11.9814 16.9711 12.2096V12.2096C16.7429 12.4378 16.373 12.4378 16.1448 12.2096L12.7349 8.79969C12.5067 8.5715 12.5067 8.20154 12.7349 7.97335V7.97335Z" fill="white"/>
</svg>
