<svg width="26" height="24" viewBox="0 0 26 24" fill="none" xmlns="http://www.w3.org/2000/svg">
<path d="M13.7381 9.8361L10.9607 6.088C10.8392 5.92395 10.6865 5.78595 10.5113 5.6812C10.336 5.57645 10.1416 5.50704 9.93949 5.47769C9.73742 5.44833 9.53128 5.45895 9.33344 5.50949C9.13561 5.56003 8.95017 5.64969 8.78695 5.77237C8.45707 6.01682 8.23779 6.38246 8.17738 6.78857C8.11697 7.19468 8.22013 7.60782 8.46458 7.9377L13.8131 15.1554L10.7178 15.6659C10.3754 15.7209 10.0599 15.884 9.81609 16.1306C9.57229 16.3773 9.41311 16.6949 9.36214 17.0379V17.0379C9.32845 17.2593 9.34034 17.4853 9.39718 17.7019C9.45402 17.9185 9.55425 18.1209 9.69231 18.2973C9.83036 18.4737 10.0034 18.6203 10.2 18.7275C10.3967 18.8347 10.6128 18.9002 10.8358 18.9207L17.6193 19.5312C18.1341 19.579 18.6482 19.4356 19.0642 19.1287L22.9818 16.2257C23.381 15.9441 23.6695 15.5321 23.7987 15.061C23.9278 14.5899 23.8893 14.0887 23.6895 13.643L21.5749 8.87889C21.4272 8.55178 21.2142 8.25846 20.9489 8.01672C20.6835 7.77498 20.3717 7.59029 20.0322 7.47352C19.6928 7.35676 19.333 7.31045 18.9752 7.33779C18.6173 7.36512 18.2686 7.46519 17.9509 7.63216L13.7381 9.8361Z" stroke="white" stroke-linecap="round" stroke-linejoin="round"/>
<path d="M4.21381 9.51831V16.5807" stroke="white" stroke-linecap="round" stroke-linejoin="round"/>
<path d="M1.38959 13.7612L4.20889 16.5758L7.0282 13.7612" stroke="white" stroke-linecap="round" stroke-linejoin="round"/>
</svg>
