<svg width="159" height="25" viewBox="0 0 159 25" fill="none" xmlns="http://www.w3.org/2000/svg">
<path d="M6.82087 0.603271H0.925781V11.4684C2.38069 11.7547 3.81974 12.0209 5.24721 12.2738V3.9992H7.65463C11.2662 3.9992 14.7543 6.6844 14.7543 11.3762C14.7543 12.2143 14.6385 12.9863 14.4353 13.6919C15.9721 13.8964 17.4978 14.0863 19.0041 14.2522C19.1717 13.3837 19.2609 12.4286 19.2609 11.3762C19.2609 2.82636 13.4271 0.603271 6.82087 0.603271Z" fill="#1D76C1"/>
<path d="M26.8913 12.7034H34.5774V9.30829H26.8913V3.9992H35.2873V0.603271H22.5703V14.614C24.0257 14.7486 25.4638 14.8626 26.8913 14.9646V12.7034Z" fill="#1D76C1"/>
<path d="M52.6334 0.603271H48.3115V15.3933C49.7664 15.3478 51.2059 15.2878 52.6334 15.2167V0.603271Z" fill="#1D76C1"/>
<path d="M73.231 4.92513H73.2931L76.1095 12.9567C77.5528 12.7608 78.9829 12.5576 80.4035 12.3497L75.7931 0.603271H70.9161L65.6113 14.2153C67.1378 14.0588 68.6502 13.8912 70.1492 13.7137L73.231 4.92513Z" fill="#1D76C1"/>
<path d="M103.924 0.603271H98.6143L90.8357 9.86428V0.603271H86.5146V11.4246C89.6478 10.9342 92.7317 10.4327 95.7795 9.9393L103.924 0.603271Z" fill="#1D76C1"/>
<path d="M110.876 3.9992H119.272V0.603271H106.555V8.24391C108.001 8.02785 109.44 7.82209 110.876 7.62447V3.9992Z" fill="#1D76C1"/>
<path d="M128.212 0.603271H122.903V6.24801C125.549 6.02039 128.19 5.84763 130.835 5.75075L128.212 0.603271Z" fill="#1D76C1"/>
<path d="M136.485 5.66373C137.861 5.67059 139.24 5.69803 140.621 5.75247V0.603271H136.485V5.66373Z" fill="#1D76C1"/>
<path d="M152.012 3.62847C153.524 3.62847 155.037 3.96841 156.395 4.5544L156.796 1.00544C155.221 0.480313 153.494 0.233398 151.642 0.233398C148.079 0.233398 144.573 1.78133 144.152 5.9493C145.64 6.05389 147.131 6.18978 148.63 6.35782C148.772 4.23119 150.588 3.62847 152.012 3.62847Z" fill="#1D76C1"/>
<path d="M130.836 7.46507C128.19 7.56238 125.549 7.7347 122.903 7.96233V23.8635H127.04V7.75056H127.101L135.343 23.8635H140.621V7.46678C139.24 7.41234 137.861 7.38448 136.486 7.37805C134.598 7.36776 132.716 7.39562 130.836 7.46507Z" fill="#3381AF"/>
<path d="M5.24721 13.9888C3.81974 13.7359 2.38026 13.4697 0.925781 13.1833V23.8641H6.82129C12.6144 23.8641 17.812 22.1537 19.0041 15.9671C17.4978 15.8017 15.9721 15.6113 14.4353 15.4073C11.4321 15.0095 8.37265 14.5405 5.24721 13.9888Z" fill="#3381AF"/>
<path d="M26.8913 16.679C25.4638 16.577 24.0257 16.463 22.5703 16.3284V23.8636H35.349V20.4676H26.8913V16.679Z" fill="#3381AF"/>
<path d="M52.6334 16.9312C51.2059 17.0023 49.7664 17.0628 48.3115 17.1078V23.8636H60.9985V20.4677H52.6334V16.9312Z" fill="#3381AF"/>
<path d="M76.1108 14.6715C74.1462 14.9377 72.1597 15.1914 70.1505 15.4285C68.6519 15.606 67.1391 15.7731 65.6126 15.93L62.5215 23.8634H66.9972L68.8804 18.9247H77.6154L79.4669 23.8634H84.2512L80.4048 14.0645C78.9837 14.2715 77.5537 14.4755 76.1108 14.6715Z" fill="#3381AF"/>
<path d="M95.7795 11.6541C92.7317 12.147 89.6474 12.6486 86.5146 13.1394V23.8639H90.8357V13.8626H90.8974L98.6452 23.8639H104.293L95.0645 12.4741L95.7795 11.6541Z" fill="#3381AF"/>
<path d="M110.876 14.4178H118.562V11.0227H110.876V9.33887C109.44 9.53648 108.001 9.74268 106.555 9.95873V23.8635H119.333V20.4676H110.876V14.4178Z" fill="#3381AF"/>
<path d="M148.617 8.33769C148.617 8.24467 148.625 8.15936 148.63 8.07234C147.131 7.90387 145.639 7.76841 144.153 7.66382C144.125 7.93817 144.109 8.22452 144.109 8.52287C144.109 15.6525 153.555 13.955 153.555 18.0608C153.555 20.0048 151.363 20.8386 149.728 20.8386C148.03 20.8386 146.332 20.3135 144.851 19.5106L144.448 23.4003C146.579 23.9246 147.628 24.2332 149.974 24.2332C154.326 24.2332 158.061 22.4431 158.061 17.7204C158.061 10.4978 148.617 12.0718 148.617 8.33769Z" fill="#3381AF"/>
</svg>
