<svg width="99" height="16" viewBox="0 0 99 16" fill="none" xmlns="http://www.w3.org/2000/svg">
<path d="M4.06531 0.578613H0.380859V7.36934C1.29018 7.54831 2.18959 7.71469 3.08177 7.87277V2.70108H4.58642C6.84365 2.70108 9.02373 4.37934 9.02373 7.31174C9.02373 7.83553 8.95139 8.31805 8.82439 8.75905C9.78489 8.88685 10.7384 9.00554 11.6799 9.10922C11.7847 8.56641 11.8404 7.96949 11.8404 7.31174C11.8404 1.96805 8.19424 0.578613 4.06531 0.578613Z" fill="#F0F0F0"/>
<path d="M16.6096 8.14122H21.4134V6.01929H16.6096V2.70108H21.8571V0.578613H13.9089V9.33535C14.8185 9.41947 15.7174 9.49074 16.6096 9.55451V8.14122Z" fill="#F0F0F0"/>
<path d="M32.6983 0.578613H29.9971V9.82243C30.9064 9.79403 31.8061 9.75652 32.6983 9.71205V0.578613Z" fill="#F0F0F0"/>
<path d="M45.5721 3.27979H45.611L47.3712 8.29957C48.2733 8.17713 49.1671 8.05013 50.055 7.92019L47.1735 0.578613H44.1253L40.8098 9.08618C41.7639 8.98839 42.7091 8.88363 43.646 8.77271L45.5721 3.27979Z" fill="#F0F0F0"/>
<path d="M64.7548 0.578613H61.4364L56.5747 6.36678V0.578613H53.874V7.34201C55.8323 7.03551 57.7597 6.72205 59.6646 6.41367L64.7548 0.578613Z" fill="#F0F0F0"/>
<path d="M69.1001 2.70108H74.3476V0.578613H66.3992V5.35404C67.3031 5.21901 68.2023 5.0904 69.1001 4.96689V2.70108Z" fill="#F0F0F0"/>
<path d="M79.9356 0.578613H76.6174V4.1066C78.2708 3.96433 79.9217 3.85636 81.575 3.79581L79.9356 0.578613Z" fill="#F0F0F0"/>
<path d="M85.106 3.74142C85.966 3.74571 86.8274 3.76286 87.6906 3.79688V0.578613H85.106V3.74142Z" fill="#F0F0F0"/>
<path d="M94.8103 2.46959C95.7552 2.46959 96.701 2.68205 97.5498 3.0483L97.8005 0.830182C96.8165 0.501979 95.7365 0.347656 94.5793 0.347656C92.3526 0.347656 90.161 1.31512 89.8982 3.92012C90.8279 3.98549 91.76 4.07042 92.6966 4.17545C92.7853 2.84629 93.9208 2.46959 94.8103 2.46959Z" fill="#F0F0F0"/>
<path d="M81.5753 4.86721C79.9217 4.92802 78.271 5.03573 76.6174 5.178V15.1163H79.2029V5.04564H79.2409L84.3925 15.1163H87.6911V4.86828C86.8276 4.83425 85.9663 4.81684 85.1065 4.81282C83.9266 4.80639 82.7504 4.8238 81.5753 4.86721Z" fill="#F0F0F0"/>
<path d="M3.08177 8.94483C2.18959 8.78676 1.28992 8.62038 0.380859 8.44141V15.1169H4.06558C7.68626 15.1169 10.9348 14.0479 11.6799 10.1813C10.7384 10.0779 9.78489 9.95891 8.82439 9.83138C6.94734 9.58275 5.03518 9.28964 3.08177 8.94483Z" fill="#F0F0F0"/>
<path d="M16.6096 10.6264C15.7174 10.5626 14.8185 10.4914 13.9089 10.4072V15.1167H21.8957V12.9943H16.6096V10.6264Z" fill="#F0F0F0"/>
<path d="M32.6983 10.7837C31.8061 10.8282 30.9064 10.8659 29.9971 10.8941V15.1165H37.9265V12.994H32.6983V10.7837Z" fill="#F0F0F0"/>
<path d="M47.3715 9.37156C46.1437 9.53794 44.9021 9.69655 43.6464 9.84471C42.7097 9.95563 41.7642 10.0601 40.8102 10.1582L38.8782 15.1166H41.6755L42.8525 12.0299H48.3119L49.4691 15.1166H52.4594L50.0553 8.99219C49.1672 9.12159 48.2734 9.24912 47.3715 9.37156Z" fill="#F0F0F0"/>
<path d="M59.6648 7.48584C57.7599 7.79395 55.8322 8.10742 53.8743 8.41419V15.117H56.5749V8.86617H56.6135L61.4559 15.117H64.986L59.218 7.99837L59.6648 7.48584Z" fill="#F0F0F0"/>
<path d="M69.1001 9.2129H73.9039V7.09097H69.1001V6.03857C68.2023 6.16209 67.3031 6.29096 66.3992 6.42599V15.1165H74.3859V12.9941H69.1001V9.2129Z" fill="#F0F0F0"/>
<path d="M92.6883 5.41287C92.6883 5.35473 92.6931 5.30142 92.6963 5.24703C91.7597 5.14173 90.8273 5.05707 89.8981 4.9917C89.8807 5.16317 89.8711 5.34214 89.8711 5.52861C89.8711 9.98468 95.7747 8.92371 95.7747 11.4899C95.7747 12.7049 94.4049 13.226 93.3825 13.226C92.3212 13.226 91.2603 12.8978 90.3343 12.396L90.083 14.8271C91.4143 15.1548 92.0702 15.3477 93.5368 15.3477C96.2565 15.3477 98.5909 14.2288 98.5909 11.2771C98.5911 6.76293 92.6883 7.74673 92.6883 5.41287Z" fill="#F0F0F0"/>
</svg>
