<svg width="62" height="45" viewBox="0 0 62 45" fill="none" xmlns="http://www.w3.org/2000/svg">
<path d="M5.87758 12.4458H0.882324V21.9726C2.10059 21.9512 3.32101 21.9537 4.54428 21.9783V15.3239H6.58425C9.64421 15.3239 12.5999 17.599 12.5999 21.5742C12.5999 21.8615 12.5806 22.1373 12.5506 22.4067C13.8238 22.5121 15.0978 22.6317 16.3697 22.7632C16.4008 22.3827 16.419 21.9887 16.419 21.5742C16.419 14.3289 11.4752 12.4462 5.8783 12.4462L5.87758 12.4458ZM23.6111 22.9861V12.4458H19.9491V23.1601C21.1781 23.3055 22.4035 23.4567 23.6264 23.6124C23.6168 23.4088 23.6111 23.2009 23.6111 22.9861Z" fill="#F0F0F0"/>
<path d="M31.1964 22.9861C31.1964 23.5585 31.1621 24.0937 31.0903 24.5867C32.3393 24.7496 33.5833 24.9082 34.8191 25.0608C34.8441 24.7564 34.8584 24.4416 34.8584 24.1105V12.4458H31.1964V22.9861ZM38.9651 25.5402C40.1948 25.6724 41.4152 25.7914 42.6271 25.8953V12.4458H38.9651V25.5402Z" fill="#F0F0F0"/>
<path d="M12.5491 23.8349C9.87783 23.6144 7.20549 23.4597 4.54281 23.4061C3.31954 23.3818 2.09913 23.3801 0.880859 23.4008V32.1305H5.87683C11.1543 32.1305 15.8481 30.4549 16.3679 24.191C15.096 24.0589 13.8224 23.9399 12.5487 23.8345L12.5491 23.8349ZM31.0889 26.0156C28.622 25.6948 26.1315 25.3597 23.6257 25.0403C22.4028 24.8852 21.177 24.7337 19.948 24.5887V25.5397C19.948 30.4314 22.7211 32.4456 27.4027 32.4456C31.7684 32.4456 34.4718 30.6915 34.8173 26.49C33.5819 26.3375 32.3379 26.1785 31.0893 26.0156" fill="#F0F0F0"/>
<path d="M38.9641 32.131H42.6261V27.3237C41.4142 27.2201 40.1938 27.1007 38.9641 26.9689V32.1314V32.131ZM46.6803 32.131H50.185V27.7338C49.0289 27.7152 47.8603 27.672 46.6803 27.6088V32.131V32.131ZM58.0841 27.4259C57.0488 27.5341 55.9977 27.6116 54.9359 27.6645L57.2206 32.131H61.6936V26.9121C60.5446 27.1215 59.3756 27.2872 58.1888 27.4141L58.0845 27.4259H58.0841Z" fill="#F0F0F0"/>
<path d="M58.1896 12.4458V25.9854C59.3764 25.8593 60.5457 25.6931 61.695 25.4838V12.4458H58.1896ZM51.1793 12.4458H46.6814V26.1812C47.8614 26.244 49.0297 26.2873 50.1862 26.3062V17.0495H50.2387L54.9378 26.2358C55.9995 26.1837 57.0499 26.1054 58.086 25.9972L51.1801 12.4462L51.1793 12.4458Z" fill="#F0F0F0"/>
<path d="M12.6588 0.237535C13.035 0.237535 13.3572 0.331583 13.6253 0.519679C13.8975 0.703773 14.1036 0.955902 14.2436 1.27607C14.3877 1.59223 14.4598 1.94641 14.4598 2.33861C14.4598 2.73081 14.3877 3.08699 14.2436 3.40715C14.1036 3.72332 13.8975 3.97544 13.6253 4.16354C13.3572 4.34763 13.035 4.43968 12.6588 4.43968H11.2241C11.12 4.43968 11.032 4.40566 10.96 4.33763C10.8919 4.26559 10.8579 4.17755 10.8579 4.07349V0.603722C10.8579 0.499669 10.8919 0.413625 10.96 0.34559C11.032 0.273553 11.12 0.237535 11.2241 0.237535H12.6588ZM12.5988 3.74933C12.959 3.74933 13.2291 3.61726 13.4092 3.35313C13.5893 3.08499 13.6794 2.74682 13.6794 2.33861C13.6794 1.9304 13.5873 1.59423 13.4032 1.33009C13.2231 1.06196 12.955 0.927887 12.5988 0.927887H11.6083V3.74933H12.5988Z" fill="#F0F0F0"/>
<path d="M17.5264 3.74933C17.6304 3.74933 17.7165 3.78535 17.7845 3.85738C17.8565 3.92542 17.8926 4.00546 17.8926 4.09751C17.8926 4.19756 17.8565 4.2796 17.7845 4.34363C17.7165 4.40767 17.6304 4.43968 17.5264 4.43968H15.5154C15.4113 4.43968 15.3233 4.40566 15.2512 4.33763C15.1832 4.26559 15.1492 4.17755 15.1492 4.07349V0.603722C15.1492 0.499669 15.1832 0.413625 15.2512 0.34559C15.3233 0.273553 15.4113 0.237535 15.5154 0.237535H17.5264C17.6304 0.237535 17.7165 0.271552 17.7845 0.339587C17.8565 0.40362 17.8926 0.487663 17.8926 0.591716C17.8926 0.691767 17.8585 0.773809 17.7905 0.837842C17.7225 0.897872 17.6344 0.927887 17.5264 0.927887H15.8995V1.94841H17.2562C17.3603 1.94841 17.4463 1.98243 17.5144 2.05046C17.5864 2.11449 17.6224 2.19854 17.6224 2.30259C17.6224 2.40264 17.5884 2.48468 17.5204 2.54872C17.4523 2.60875 17.3643 2.63876 17.2562 2.63876H15.8995V3.74933H17.5264Z" fill="#F0F0F0"/>
<path d="M23.4847 3.81536C23.5087 3.84738 23.5287 3.8874 23.5447 3.93542C23.5607 3.97945 23.5687 4.02147 23.5687 4.06149C23.5687 4.16954 23.5267 4.25959 23.4426 4.33163C23.3626 4.40366 23.2685 4.43968 23.1605 4.43968C23.1085 4.43968 23.0584 4.42768 23.0104 4.40366C22.9624 4.37965 22.9224 4.34563 22.8904 4.30161L21.5877 2.58473L21.0174 3.13101V4.07349C21.0174 4.18155 20.9814 4.26959 20.9093 4.33763C20.8413 4.40566 20.7513 4.43968 20.6392 4.43968C20.5311 4.43968 20.4411 4.40566 20.3691 4.33763C20.301 4.26559 20.267 4.17755 20.267 4.07349V0.603722C20.267 0.499669 20.303 0.413625 20.3751 0.34559C20.4471 0.273553 20.5392 0.237535 20.6512 0.237535C20.7593 0.237535 20.8473 0.271552 20.9153 0.339587C20.9834 0.407622 21.0174 0.495667 21.0174 0.603722V2.23656L22.9384 0.34559C23.0304 0.253543 23.1285 0.20752 23.2325 0.20752C23.3246 0.20752 23.4026 0.245539 23.4666 0.321578C23.5307 0.397617 23.5627 0.477657 23.5627 0.561701C23.5627 0.645744 23.5267 0.723783 23.4546 0.79582L22.146 2.04446L23.4847 3.81536Z" fill="#F0F0F0"/>
<path d="M26.5779 3.74933C26.6819 3.74933 26.768 3.78535 26.836 3.85738C26.908 3.92542 26.9441 4.00546 26.9441 4.09751C26.9441 4.19756 26.908 4.2796 26.836 4.34363C26.768 4.40767 26.6819 4.43968 26.5779 4.43968H24.5669C24.4628 4.43968 24.3748 4.40566 24.3027 4.33763C24.2347 4.26559 24.2007 4.17755 24.2007 4.07349V0.603722C24.2007 0.499669 24.2347 0.413625 24.3027 0.34559C24.3748 0.273553 24.4628 0.237535 24.5669 0.237535H26.5779C26.6819 0.237535 26.768 0.271552 26.836 0.339587C26.908 0.40362 26.9441 0.487663 26.9441 0.591716C26.9441 0.691767 26.91 0.773809 26.842 0.837842C26.774 0.897872 26.6859 0.927887 26.5779 0.927887H24.951V1.94841H26.3077C26.4118 1.94841 26.4978 1.98243 26.5659 2.05046C26.6379 2.11449 26.6739 2.19854 26.6739 2.30259C26.6739 2.40264 26.6399 2.48468 26.5719 2.54872C26.5038 2.60875 26.4158 2.63876 26.3077 2.63876H24.951V3.74933H26.5779Z" fill="#F0F0F0"/>
<path d="M30.8236 0.237535C30.9197 0.237535 30.9977 0.269551 31.0578 0.333584C31.1178 0.397617 31.1478 0.477658 31.1478 0.573707V4.07349C31.1478 4.17755 31.1118 4.26559 31.0398 4.33763C30.9717 4.40566 30.8857 4.43968 30.7816 4.43968C30.7256 4.43968 30.6696 4.43168 30.6135 4.41567C30.5615 4.39566 30.5235 4.36965 30.4995 4.33763L28.2963 1.5402V4.10351C28.2963 4.19956 28.2643 4.2796 28.2003 4.34363C28.1403 4.40767 28.0602 4.43968 27.9602 4.43968C27.8641 4.43968 27.7861 4.40767 27.7261 4.34363C27.666 4.2796 27.636 4.19956 27.636 4.10351V0.603722C27.636 0.499669 27.67 0.413625 27.7381 0.34559C27.8101 0.273553 27.8981 0.237535 28.0022 0.237535C28.0622 0.237535 28.1203 0.249541 28.1763 0.273553C28.2363 0.297566 28.2803 0.329582 28.3084 0.369602L30.4935 3.15503V0.573707C30.4935 0.477658 30.5235 0.397617 30.5835 0.333584C30.6475 0.269551 30.7276 0.237535 30.8236 0.237535Z" fill="#F0F0F0"/>
<path d="M35.238 0.237535C35.3341 0.237535 35.4121 0.269551 35.4721 0.333584C35.5322 0.397617 35.5622 0.477658 35.5622 0.573707V4.07349C35.5622 4.17755 35.5262 4.26559 35.4541 4.33763C35.3861 4.40566 35.3 4.43968 35.196 4.43968C35.14 4.43968 35.0839 4.43168 35.0279 4.41567C34.9759 4.39566 34.9379 4.36965 34.9138 4.33763L32.7107 1.5402V4.10351C32.7107 4.19956 32.6787 4.2796 32.6147 4.34363C32.5546 4.40767 32.4746 4.43968 32.3745 4.43968C32.2785 4.43968 32.2005 4.40767 32.1404 4.34363C32.0804 4.2796 32.0504 4.19956 32.0504 4.10351V0.603722C32.0504 0.499669 32.0844 0.413625 32.1524 0.34559C32.2245 0.273553 32.3125 0.237535 32.4166 0.237535C32.4766 0.237535 32.5346 0.249541 32.5907 0.273553C32.6507 0.297566 32.6947 0.329582 32.7227 0.369602L34.9078 3.15503V0.573707C34.9078 0.477658 34.9379 0.397617 34.9979 0.333584C35.0619 0.269551 35.142 0.237535 35.238 0.237535Z" fill="#F0F0F0"/>
<path d="M38.842 3.74933C38.946 3.74933 39.0321 3.78535 39.1001 3.85738C39.1721 3.92542 39.2081 4.00546 39.2081 4.09751C39.2081 4.19756 39.1721 4.2796 39.1001 4.34363C39.0321 4.40767 38.946 4.43968 38.842 4.43968H36.8309C36.7269 4.43968 36.6388 4.40566 36.5668 4.33763C36.4988 4.26559 36.4647 4.17755 36.4647 4.07349V0.603722C36.4647 0.499669 36.4988 0.413625 36.5668 0.34559C36.6388 0.273553 36.7269 0.237535 36.8309 0.237535H38.842C38.946 0.237535 39.0321 0.271552 39.1001 0.339587C39.1721 0.40362 39.2081 0.487663 39.2081 0.591716C39.2081 0.691767 39.1741 0.773809 39.1061 0.837842C39.0381 0.897872 38.95 0.927887 38.842 0.927887H37.2151V1.94841H38.5718C38.6759 1.94841 38.7619 1.98243 38.83 2.05046C38.902 2.11449 38.938 2.19854 38.938 2.30259C38.938 2.40264 38.904 2.48468 38.836 2.54872C38.7679 2.60875 38.6799 2.63876 38.5718 2.63876H37.2151V3.74933H38.842Z" fill="#F0F0F0"/>
<path d="M43.544 0.231532C43.644 0.231532 43.73 0.26755 43.8021 0.339587C43.8781 0.407622 43.9161 0.493666 43.9161 0.597719V4.07349C43.9161 4.17755 43.8821 4.26559 43.8141 4.33763C43.7461 4.40566 43.656 4.43968 43.544 4.43968C43.4319 4.43968 43.3398 4.40566 43.2678 4.33763C43.1998 4.26959 43.1658 4.18155 43.1658 4.07349V1.65426L42.1753 3.16703C42.1352 3.21506 42.0892 3.25508 42.0372 3.28709C41.9852 3.31511 41.9311 3.32711 41.8751 3.32311C41.8231 3.32711 41.771 3.31511 41.719 3.28709C41.667 3.25508 41.621 3.21506 41.5809 3.16703L40.5904 1.60023V4.07349C40.5904 4.18155 40.5584 4.26959 40.4944 4.33763C40.4304 4.40566 40.3463 4.43968 40.2423 4.43968C40.1422 4.43968 40.0602 4.40566 39.9961 4.33763C39.9321 4.26559 39.9001 4.17755 39.9001 4.07349V0.597719C39.9001 0.497668 39.9361 0.411624 40.0081 0.339587C40.0842 0.26755 40.1742 0.231532 40.2783 0.231532C40.3383 0.231532 40.3983 0.24754 40.4584 0.279557C40.5184 0.307571 40.5644 0.34559 40.5964 0.393615L41.9051 2.40464L43.2498 0.393615C43.2818 0.34559 43.3238 0.307571 43.3759 0.279557C43.4319 0.24754 43.4879 0.231532 43.544 0.231532Z" fill="#F0F0F0"/>
<path d="M47.1958 3.74933C47.2999 3.74933 47.3859 3.78535 47.454 3.85738C47.526 3.92542 47.562 4.00546 47.562 4.09751C47.562 4.19756 47.526 4.2796 47.454 4.34363C47.3859 4.40767 47.2999 4.43968 47.1958 4.43968H45.1848C45.0808 4.43968 44.9927 4.40566 44.9207 4.33763C44.8526 4.26559 44.8186 4.17755 44.8186 4.07349V0.603722C44.8186 0.499669 44.8526 0.413625 44.9207 0.34559C44.9927 0.273553 45.0808 0.237535 45.1848 0.237535H47.1958C47.2999 0.237535 47.3859 0.271552 47.454 0.339587C47.526 0.40362 47.562 0.487663 47.562 0.591716C47.562 0.691767 47.528 0.773809 47.46 0.837842C47.3919 0.897872 47.3039 0.927887 47.1958 0.927887H45.569V1.94841H46.9257C47.0298 1.94841 47.1158 1.98243 47.1838 2.05046C47.2559 2.11449 47.2919 2.19854 47.2919 2.30259C47.2919 2.40264 47.2579 2.48468 47.1898 2.54872C47.1218 2.60875 47.0338 2.63876 46.9257 2.63876H45.569V3.74933H47.1958Z" fill="#F0F0F0"/>
<path d="M51.5497 3.85138C51.6017 3.8834 51.6417 3.92542 51.6697 3.97745C51.7017 4.02947 51.7177 4.0835 51.7177 4.13953C51.7177 4.21157 51.6937 4.2776 51.6457 4.33763C51.5857 4.40967 51.4936 4.44568 51.3696 4.44568C51.2735 4.44568 51.1855 4.42367 51.1054 4.37965C50.8173 4.21557 50.6732 3.8814 50.6732 3.37714C50.6732 3.23307 50.6252 3.11901 50.5291 3.03496C50.4371 2.95092 50.303 2.9089 50.1269 2.9089H49.0044V4.07349C49.0044 4.18155 48.9743 4.26959 48.9143 4.33763C48.8583 4.40566 48.7822 4.43968 48.6862 4.43968C48.5701 4.43968 48.4681 4.40566 48.38 4.33763C48.296 4.26559 48.254 4.17755 48.254 4.07349V0.603722C48.254 0.499669 48.288 0.413625 48.356 0.34559C48.4281 0.273553 48.5161 0.237535 48.6202 0.237535H50.349C50.5571 0.237535 50.7532 0.293563 50.9373 0.405621C51.1214 0.517678 51.2675 0.671757 51.3756 0.867857C51.4876 1.06396 51.5436 1.28407 51.5436 1.52819C51.5436 1.7283 51.4896 1.9244 51.3816 2.11649C51.2735 2.30459 51.1334 2.45467 50.9613 2.56673C51.2135 2.74281 51.3515 2.97894 51.3756 3.27509C51.3876 3.33912 51.3936 3.40115 51.3936 3.46118C51.4096 3.58525 51.4256 3.67529 51.4416 3.73132C51.4576 3.78335 51.4936 3.82337 51.5497 3.85138ZM50.319 2.29058C50.3911 2.29058 50.4611 2.25657 50.5291 2.18853C50.5972 2.1205 50.6532 2.03045 50.6972 1.91839C50.7412 1.80233 50.7632 1.67827 50.7632 1.5462C50.7632 1.43415 50.7412 1.33209 50.6972 1.24005C50.6532 1.144 50.5972 1.06796 50.5291 1.01193C50.4611 0.955902 50.3911 0.927887 50.319 0.927887H49.0044V2.29058H50.319Z" fill="#F0F0F0"/>
<path d="M19.6975 40.2624C19.8216 40.3265 19.8836 40.4285 19.8836 40.5686C19.8836 40.6526 19.8536 40.7347 19.7936 40.8147C19.7295 40.8988 19.6475 40.9408 19.5474 40.9408C19.4794 40.9408 19.4114 40.9228 19.3433 40.8867C19.1472 40.7947 18.9351 40.7487 18.707 40.7487C18.4269 40.7487 18.1827 40.8087 17.9746 40.9288C17.7665 41.0448 17.6064 41.2109 17.4944 41.427C17.3823 41.6391 17.3263 41.8833 17.3263 42.1594C17.3263 42.6316 17.4524 42.9898 17.7045 43.2339C17.9606 43.4781 18.2948 43.6001 18.707 43.6001C18.9511 43.6001 19.1632 43.5541 19.3433 43.4621C19.4154 43.43 19.4794 43.414 19.5354 43.414C19.6395 43.414 19.7275 43.4581 19.7996 43.5461C19.8596 43.6221 19.8896 43.7042 19.8896 43.7922C19.8896 43.8563 19.8736 43.9143 19.8416 43.9663C19.8096 44.0183 19.7635 44.0584 19.7035 44.0864C19.3914 44.2425 19.0592 44.3205 18.707 44.3205C18.3148 44.3205 17.9546 44.2385 17.6265 44.0744C17.2983 43.9063 17.0361 43.6602 16.84 43.336C16.6439 43.0118 16.5459 42.6196 16.5459 42.1594C16.5459 41.7512 16.6379 41.385 16.822 41.0608C17.0101 40.7367 17.2683 40.4845 17.5964 40.3044C17.9246 40.1204 18.2948 40.0283 18.707 40.0283C19.0632 40.0283 19.3934 40.1063 19.6975 40.2624Z" fill="#F0F0F0"/>
<path d="M23.8153 43.7922C23.8353 43.8443 23.8453 43.8923 23.8453 43.9363C23.8453 44.0404 23.8113 44.1264 23.7433 44.1944C23.6753 44.2585 23.5972 44.2905 23.5092 44.2905C23.4371 44.2905 23.3711 44.2685 23.3111 44.2245C23.255 44.1804 23.211 44.1204 23.179 44.0444L22.8668 43.318H21.0779L20.7658 44.0504C20.7378 44.1264 20.6937 44.1864 20.6337 44.2305C20.5777 44.2705 20.5156 44.2905 20.4476 44.2905C20.3436 44.2905 20.2635 44.2625 20.2075 44.2064C20.1555 44.1504 20.1294 44.0744 20.1294 43.9783C20.1294 43.9423 20.1355 43.9043 20.1475 43.8643L21.6422 40.2744C21.6742 40.1944 21.7223 40.1324 21.7863 40.0883C21.8503 40.0443 21.9224 40.0263 22.0024 40.0343C22.0744 40.0343 22.1405 40.0563 22.2005 40.1003C22.2645 40.1404 22.3106 40.1984 22.3386 40.2744L23.8153 43.7922ZM22.5727 42.6276L21.9664 41.2229L21.3721 42.6276H22.5727Z" fill="#F0F0F0"/>
<path d="M27.9975 40.0523C28.0975 40.0523 28.1836 40.0883 28.2556 40.1604C28.3317 40.2284 28.3697 40.3145 28.3697 40.4185V43.8943C28.3697 43.9983 28.3357 44.0864 28.2676 44.1584C28.1996 44.2265 28.1096 44.2605 27.9975 44.2605C27.8854 44.2605 27.7934 44.2265 27.7214 44.1584C27.6533 44.0904 27.6193 44.0023 27.6193 43.8943V41.475L26.6288 42.9878C26.5888 43.0358 26.5428 43.0759 26.4907 43.1079C26.4387 43.1359 26.3847 43.1479 26.3286 43.1439C26.2766 43.1479 26.2246 43.1359 26.1726 43.1079C26.1205 43.0759 26.0745 43.0358 26.0345 42.9878L25.044 41.421V43.8943C25.044 44.0023 25.012 44.0904 24.9479 44.1584C24.8839 44.2265 24.7999 44.2605 24.6958 44.2605C24.5958 44.2605 24.5137 44.2265 24.4497 44.1584C24.3857 44.0864 24.3536 43.9983 24.3536 43.8943V40.4185C24.3536 40.3185 24.3897 40.2324 24.4617 40.1604C24.5377 40.0883 24.6278 40.0523 24.7318 40.0523C24.7919 40.0523 24.8519 40.0683 24.9119 40.1003C24.972 40.1284 25.018 40.1664 25.05 40.2144L26.3587 42.2254L27.7033 40.2144C27.7354 40.1664 27.7774 40.1284 27.8294 40.1003C27.8854 40.0683 27.9415 40.0523 27.9975 40.0523Z" fill="#F0F0F0"/>
<path d="M31.0071 40.0583C31.2112 40.0583 31.4053 40.1204 31.5893 40.2444C31.7734 40.3645 31.9215 40.5286 32.0336 40.7367C32.1456 40.9408 32.2017 41.1649 32.2017 41.409C32.2017 41.6491 32.1456 41.8732 32.0336 42.0814C31.9215 42.2895 31.7734 42.4555 31.5893 42.5796C31.4053 42.6997 31.2112 42.7597 31.0071 42.7597H29.9625V43.8943C29.9625 44.0023 29.9305 44.0904 29.8665 44.1584C29.8024 44.2265 29.7184 44.2605 29.6143 44.2605C29.5143 44.2605 29.4322 44.2265 29.3682 44.1584C29.3042 44.0864 29.2722 43.9983 29.2722 43.8943V40.4245C29.2722 40.3205 29.3062 40.2344 29.3742 40.1664C29.4463 40.0943 29.5343 40.0583 29.6384 40.0583H31.0071ZM31.0071 42.0754C31.0831 42.0754 31.1571 42.0433 31.2292 41.9793C31.3052 41.9153 31.3652 41.8332 31.4093 41.7332C31.4573 41.6291 31.4813 41.5211 31.4813 41.409C31.4813 41.297 31.4573 41.1909 31.4093 41.0908C31.3652 40.9868 31.3052 40.9048 31.2292 40.8447C31.1571 40.7807 31.0831 40.7487 31.0071 40.7487H29.9625V42.0754H31.0071Z" fill="#F0F0F0"/>
<path d="M33.6396 43.8943C33.6396 43.9983 33.6016 44.0864 33.5256 44.1584C33.4495 44.2265 33.3615 44.2605 33.2614 44.2605C33.1534 44.2605 33.0633 44.2265 32.9913 44.1584C32.9233 44.0864 32.8892 43.9983 32.8892 43.8943V40.4245C32.8892 40.3205 32.9253 40.2344 32.9973 40.1664C33.0693 40.0943 33.1614 40.0583 33.2734 40.0583C33.3735 40.0583 33.4595 40.0943 33.5316 40.1664C33.6036 40.2344 33.6396 40.3205 33.6396 40.4245V43.8943Z" fill="#F0F0F0"/>
<path d="M37.7301 40.0583C37.8261 40.0583 37.9042 40.0903 37.9642 40.1544C38.0242 40.2184 38.0542 40.2984 38.0542 40.3945V43.8943C38.0542 43.9983 38.0182 44.0864 37.9462 44.1584C37.8781 44.2265 37.7921 44.2605 37.688 44.2605C37.632 44.2605 37.576 44.2525 37.52 44.2365C37.4679 44.2164 37.4299 44.1904 37.4059 44.1584L35.2028 41.361V43.9243C35.2028 44.0203 35.1708 44.1004 35.1067 44.1644C35.0467 44.2285 34.9667 44.2605 34.8666 44.2605C34.7706 44.2605 34.6925 44.2285 34.6325 44.1644C34.5725 44.1004 34.5424 44.0203 34.5424 43.9243V40.4245C34.5424 40.3205 34.5765 40.2344 34.6445 40.1664C34.7165 40.0943 34.8046 40.0583 34.9086 40.0583C34.9687 40.0583 35.0267 40.0703 35.0827 40.0943C35.1427 40.1184 35.1868 40.1504 35.2148 40.1904L37.3999 42.9758V40.3945C37.3999 40.2984 37.4299 40.2184 37.4899 40.1544C37.554 40.0903 37.634 40.0583 37.7301 40.0583Z" fill="#F0F0F0"/>
<path d="M42.0544 41.9913C42.1584 41.9913 42.2445 42.0273 42.3125 42.0994C42.3805 42.1674 42.4146 42.2534 42.4146 42.3575V43.6301C42.4146 43.7702 42.3525 43.8783 42.2285 43.9543C41.8363 44.1984 41.4061 44.3205 40.9378 44.3205C40.5416 44.3205 40.1754 44.2245 39.8393 44.0324C39.5031 43.8363 39.2369 43.5741 39.0408 43.246C38.8447 42.9138 38.7467 42.5516 38.7467 42.1594C38.7467 41.7672 38.8447 41.407 39.0408 41.0788C39.2369 40.7467 39.5031 40.4845 39.8393 40.2924C40.1754 40.0963 40.5416 39.9983 40.9378 39.9983C41.334 39.9983 41.6782 40.0783 41.9703 40.2384C42.0304 40.2704 42.0744 40.3125 42.1024 40.3645C42.1344 40.4165 42.1504 40.4725 42.1504 40.5326C42.1504 40.6326 42.1164 40.7207 42.0484 40.7967C41.9843 40.8687 41.9043 40.9048 41.8083 40.9048C41.7482 40.9048 41.6822 40.8887 41.6102 40.8567C41.394 40.7647 41.1699 40.7187 40.9378 40.7187C40.6817 40.7187 40.4456 40.7847 40.2295 40.9168C40.0133 41.0448 39.8413 41.2189 39.7132 41.439C39.5891 41.6591 39.5271 41.8993 39.5271 42.1594C39.5271 42.4195 39.5891 42.6597 39.7132 42.8798C39.8413 43.0999 40.0133 43.276 40.2295 43.408C40.4456 43.5361 40.6817 43.6001 40.9378 43.6001C41.0499 43.6001 41.1699 43.5901 41.298 43.5701C41.4261 43.5501 41.5381 43.5241 41.6342 43.4921V42.7117H41.0699C40.9658 42.7117 40.8778 42.6777 40.8057 42.6096C40.7377 42.5416 40.7037 42.4555 40.7037 42.3515C40.7037 42.2474 40.7377 42.1614 40.8057 42.0934C40.8778 42.0253 40.9658 41.9913 41.0699 41.9913H42.0544Z" fill="#F0F0F0"/>
<path d="M44.4874 44.3205C44.1992 44.3205 43.9431 44.2845 43.719 44.2124C43.4949 44.1404 43.2847 44.0183 43.0886 43.8463C42.9806 43.7502 42.9266 43.6442 42.9266 43.5281C42.9266 43.436 42.9606 43.356 43.0286 43.288C43.0966 43.2159 43.1787 43.1799 43.2747 43.1799C43.3508 43.1799 43.4188 43.2039 43.4788 43.252C43.6389 43.384 43.795 43.4801 43.9471 43.5401C44.0992 43.6001 44.2792 43.6301 44.4874 43.6301C44.7115 43.6301 44.9036 43.5801 45.0637 43.4801C45.2277 43.38 45.3098 43.256 45.3098 43.1079C45.3098 42.9278 45.2297 42.7877 45.0697 42.6877C44.9096 42.5836 44.6554 42.5056 44.3073 42.4535C43.4308 42.3255 42.9926 41.9173 42.9926 41.2289C42.9926 40.9768 43.0586 40.7587 43.1907 40.5746C43.3228 40.3865 43.5029 40.2444 43.731 40.1484C43.9591 40.0483 44.2132 39.9983 44.4934 39.9983C44.7455 39.9983 44.9816 40.0363 45.2017 40.1123C45.4258 40.1884 45.6119 40.2884 45.76 40.4125C45.8761 40.5045 45.9341 40.6106 45.9341 40.7307C45.9341 40.8227 45.9001 40.9048 45.832 40.9768C45.764 41.0448 45.684 41.0788 45.5919 41.0788C45.5319 41.0788 45.4779 41.0608 45.4298 41.0248C45.3258 40.9408 45.1797 40.8647 44.9916 40.7967C44.8075 40.7247 44.6414 40.6886 44.4934 40.6886C44.2412 40.6886 44.0451 40.7367 43.9051 40.8327C43.769 40.9248 43.701 41.0468 43.701 41.1989C43.701 41.371 43.771 41.5011 43.9111 41.5891C44.0551 41.6771 44.2793 41.7492 44.5834 41.8052C44.9276 41.8652 45.2017 41.9433 45.4058 42.0393C45.6139 42.1314 45.77 42.2594 45.8741 42.4235C45.9781 42.5836 46.0301 42.7977 46.0301 43.0659C46.0301 43.318 45.9581 43.5401 45.814 43.7322C45.674 43.9203 45.4859 44.0664 45.2497 44.1704C45.0136 44.2705 44.7595 44.3205 44.4874 44.3205Z" fill="#F0F0F0"/>
</svg>
