<svg width="178" height="104" viewBox="0 0 178 104" fill="none" xmlns="http://www.w3.org/2000/svg">
<path d="M33.1611 18.53H21.7666V40.2611C24.5455 40.2122 27.3294 40.218 30.1197 40.2742V25.0952H34.773C41.7529 25.0952 48.4949 30.2847 48.4949 39.3525C48.4949 40.0077 48.4509 40.6368 48.3824 41.2513C51.2869 41.4917 54.1929 41.7647 57.0941 42.0646C57.165 41.1967 57.2066 40.2978 57.2066 39.3525C57.2066 22.8256 45.9295 18.5308 33.1627 18.5308L33.1611 18.53ZM73.6121 42.5731V18.53H65.259V42.97C68.0624 43.3017 70.8576 43.6464 73.6471 44.0017C73.6251 43.5372 73.6121 43.0629 73.6121 42.5731Z" fill="white"/>
<path d="M90.9129 42.5731C90.9129 43.8786 90.8347 45.0994 90.6709 46.224C93.5199 46.5956 96.3575 46.9575 99.1764 47.3055C99.2334 46.6111 99.266 45.8932 99.266 45.1377V18.53H90.9129V42.5731ZM108.634 48.3991C111.439 48.7006 114.223 48.972 116.987 49.2091V18.53H108.634V48.3991Z" fill="white"/>
<path d="M48.3805 44.5103C42.2872 44.0075 36.1915 43.6547 30.1178 43.5324C27.3274 43.477 24.5436 43.4729 21.7646 43.5202V63.4332H33.1607C45.199 63.4332 55.9056 59.6111 57.0914 45.3228C54.1902 45.0213 51.2849 44.7499 48.3797 44.5095L48.3805 44.5103ZM90.6708 49.4847C85.0437 48.7529 79.3628 47.9885 73.6468 47.2599C70.8573 46.9062 68.0612 46.5607 65.2578 46.2299V48.3992C65.2578 59.5573 71.5834 64.1519 82.2623 64.1519C92.2208 64.1519 98.3875 60.1506 99.1755 50.5669C96.3575 50.219 93.5199 49.8563 90.6716 49.4847" fill="white"/>
<path d="M108.634 63.4346H116.987V52.4688C114.223 52.2325 111.439 51.9603 108.634 51.6596V63.4354V63.4346ZM126.235 63.4346H134.229V53.4044C131.592 53.362 128.927 53.2634 126.235 53.1192V63.4346ZM152.248 52.7019C149.886 52.9488 147.488 53.1257 145.066 53.2463L150.278 63.4346H160.481V51.53C157.86 52.0076 155.194 52.3857 152.486 52.675L152.248 52.7019H152.248Z" fill="white"/>
<path d="M152.486 18.53V49.4145C155.193 49.1268 157.861 48.7479 160.482 48.2703V18.53H152.486ZM136.495 18.53H126.235V49.8611C128.927 50.0045 131.592 50.1031 134.23 50.1463V29.0313H134.35L145.069 49.9858C147.491 49.8668 149.886 49.6883 152.25 49.4414L136.497 18.5308L136.495 18.53Z" fill="white"/>
<path d="M2.01758 45.1684C67.6885 38.0866 117.849 60.2154 176.849 44.7365" stroke="white" stroke-width="0.828157" stroke-miterlimit="10" stroke-linecap="round"/>
<path d="M44.7625 9.6931H44.712C44.562 9.68007 44.4365 9.55457 44.4365 9.39158V1.2365C44.4365 1.07352 44.5751 0.936606 44.738 0.936606H46.3753C48.7899 0.936606 50.7539 2.91364 50.7539 5.32749C50.7539 7.74133 48.7899 9.6931 46.3753 9.6931H44.7617H44.7625ZM46.3761 9.07946C48.4525 9.07946 50.1411 7.40232 50.1411 5.32667C50.1411 3.23717 48.4525 1.56166 46.3761 1.54862H45.0494V9.07864H46.3753L46.3761 9.07946ZM53.2981 1.23569C53.2981 1.0727 53.4367 0.935791 53.5997 0.935791H58.1022C58.2766 0.935791 58.4037 1.07433 58.4037 1.23569C58.4037 1.4109 58.2766 1.54862 58.1022 1.54862H53.911V5.01374H57.5766C57.7396 5.01374 57.8781 5.15228 57.8781 5.32667C57.8781 5.48966 57.7396 5.62657 57.5766 5.62657H53.911V9.07946H58.1022C58.2766 9.07946 58.4037 9.218 58.4037 9.39239C58.4037 9.55538 58.2766 9.69392 58.1022 9.69392H53.5728C53.4228 9.68088 53.2973 9.55538 53.2973 9.39239V1.2365L53.2981 1.23569ZM65.4505 1.27317C65.4505 1.09796 65.5874 0.961054 65.7504 0.961054C65.9256 0.961054 66.0633 1.09796 66.0633 1.27317V6.33964L71.3547 1.04907C71.4794 0.934976 71.6807 0.934976 71.7809 1.04907C71.9048 1.16071 71.9048 1.36037 71.7809 1.48669L68.4275 4.83852L71.8551 9.19192C71.9561 9.33046 71.9309 9.50485 71.8062 9.62954C71.7434 9.68007 71.6815 9.69229 71.6065 9.69229C71.5185 9.69229 71.4435 9.66784 71.38 9.5782L67.9898 5.27533L66.0641 7.20184V9.39158C66.0641 9.55457 65.9256 9.6931 65.7512 9.6931C65.5882 9.6931 65.4513 9.55457 65.4513 9.39158V1.2748L65.4505 1.27317ZM74.8858 1.23569C74.8858 1.0727 75.0244 0.935791 75.1874 0.935791H79.6899C79.8651 0.935791 79.9914 1.07433 79.9914 1.23569C79.9914 1.4109 79.8651 1.54862 79.6899 1.54862H75.4995V5.01374H79.1643C79.3272 5.01374 79.4658 5.15228 79.4658 5.32667C79.4658 5.48966 79.3272 5.62657 79.1643 5.62657H75.4995V9.07946H79.6899C79.8651 9.07946 79.9914 9.218 79.9914 9.39239C79.9914 9.55538 79.8651 9.69392 79.6899 9.69392H75.1605C75.0105 9.68088 74.885 9.55538 74.885 9.39239V1.2365L74.8858 1.23569ZM83.4345 2.22421V9.39239C83.4345 9.55538 83.296 9.69392 83.133 9.69392C82.9716 9.69392 82.8331 9.55538 82.8331 9.39239V1.36119C82.7964 1.2365 82.8331 1.11182 82.9456 1.0238C83.0841 0.937421 83.2829 0.962684 83.371 1.09959L88.6762 8.45603V1.3237C88.6762 1.16071 88.8131 1.02217 88.9753 1.02217C89.1497 1.02217 89.2882 1.16071 89.2882 1.3237V9.39158C89.2882 9.55457 89.1497 9.6931 88.9745 9.6931C88.8734 9.6931 88.7984 9.6548 88.7365 9.57901C88.7235 9.5676 88.6982 9.55457 88.686 9.53012L83.4321 2.22421H83.4345ZM93.1567 2.22421V9.39239C93.1567 9.55538 93.0198 9.69392 92.8576 9.69392C92.6955 9.69392 92.5586 9.55538 92.5586 9.39239V1.36119C92.5203 1.2365 92.5586 1.11182 92.6702 1.0238C92.8087 0.937421 93.0084 0.962684 93.0964 1.09959L98.4 8.45603V1.3237C98.4 1.16071 98.5369 1.02217 98.7015 1.02217C98.8759 1.02217 99.0129 1.16071 99.0129 1.3237V9.39158C99.0129 9.55457 98.876 9.6931 98.7007 9.6931C98.6005 9.6931 98.5255 9.6548 98.462 9.57901C98.4481 9.5676 98.4253 9.55457 98.4114 9.53012L93.1575 2.22421H93.1567ZM101.844 1.23569C101.844 1.0727 101.982 0.935791 102.144 0.935791H106.647C106.822 0.935791 106.949 1.07433 106.949 1.23569C106.949 1.4109 106.822 1.54862 106.647 1.54862H102.455V5.01374H106.121C106.284 5.01374 106.422 5.15228 106.422 5.32667C106.422 5.48966 106.284 5.62657 106.121 5.62657H102.455V9.07946H106.647C106.822 9.07946 106.949 9.218 106.949 9.39239C106.949 9.55538 106.822 9.69392 106.647 9.69392H102.119C101.969 9.68088 101.842 9.55538 101.842 9.39239V1.2365L101.844 1.23569ZM116.508 2.18753L113.706 6.07641C113.643 6.17665 113.543 6.21495 113.455 6.21495H113.431C113.318 6.21495 113.231 6.17665 113.168 6.07641L110.367 2.19976V9.39239C110.367 9.55538 110.23 9.69392 110.067 9.69392C109.893 9.69392 109.755 9.55538 109.755 9.39239V1.28703C109.755 1.18598 109.805 1.09959 109.879 1.0507C109.879 1.03684 109.892 1.03684 109.904 1.0238C110.041 0.937421 110.23 0.962684 110.329 1.09959L113.442 5.4155L116.547 1.09878C116.633 0.961869 116.834 0.935791 116.971 1.0238C117.009 1.06211 117.034 1.08655 117.059 1.12486C117.083 1.17375 117.108 1.23732 117.108 1.28784V9.39402C117.108 9.55701 116.971 9.69555 116.809 9.69555C116.633 9.69555 116.509 9.55701 116.509 9.39402V2.18753H116.508ZM120.178 1.23569C120.178 1.0727 120.316 0.935791 120.479 0.935791H124.98C125.154 0.935791 125.282 1.07433 125.282 1.23569C125.282 1.4109 125.154 1.54862 124.98 1.54862H120.789V5.01374H124.453C124.616 5.01374 124.754 5.15228 124.754 5.32667C124.754 5.48966 124.616 5.62657 124.453 5.62657H120.788V9.07946H124.978C125.153 9.07946 125.28 9.218 125.28 9.39239C125.28 9.55538 125.153 9.69392 124.978 9.69392H120.454C120.303 9.68088 120.177 9.55538 120.177 9.39239V1.2365L120.178 1.23569ZM132.692 7.71607C132.692 7.07797 132.366 6.67784 131.979 6.39016C131.591 6.11553 131.127 5.97699 130.965 5.95173C130.928 5.9395 130.916 5.92728 130.903 5.92728H128.778V9.39076C128.778 9.55375 128.639 9.69229 128.464 9.69229C128.301 9.69229 128.165 9.55375 128.165 9.39076V1.2365C128.165 1.08655 128.287 0.949645 128.439 0.936606H130.94C132.316 0.936606 133.43 2.04981 133.43 3.43846C133.43 4.43921 132.842 5.30222 131.991 5.70236C132.028 5.72681 132.067 5.74066 132.115 5.76592C132.691 6.09027 133.292 6.72755 133.292 7.71688C133.292 8.23029 133.34 8.54241 133.404 8.72985C133.455 8.88061 133.516 8.93032 133.529 8.94173C133.667 8.93032 133.817 9.00448 133.867 9.14302C133.905 9.30601 133.83 9.4804 133.668 9.54234C133.655 9.54234 133.595 9.55538 133.516 9.55538H133.494C133.331 9.55538 133.067 9.43069 132.93 9.15606C132.781 8.86757 132.693 8.45521 132.693 7.71688L132.692 7.71607ZM130.941 1.54944H128.778V5.32749H130.992C132.002 5.30304 132.829 4.46365 132.829 3.43846C132.829 2.38719 131.98 1.54944 130.94 1.54944H130.941ZM58.9261 72.8507C60.0018 72.8507 60.9895 73.2256 61.7539 73.814C61.8908 73.9281 61.9153 74.1399 61.8028 74.2516C61.7026 74.4024 61.5029 74.4146 61.3774 74.3143C60.7027 73.7887 59.8519 73.4627 58.9261 73.4627C56.7364 73.4627 54.9851 75.1774 54.9851 77.3174C54.9851 79.4061 56.7372 81.1191 58.9261 81.1191C59.8519 81.1191 60.7027 80.82 61.353 80.2699C61.5029 80.1689 61.7034 80.1941 61.7906 80.3433C61.9161 80.4573 61.8917 80.6814 61.7539 80.7817C60.9903 81.3684 60.0018 81.7319 58.9261 81.7319C56.412 81.7319 54.373 79.7557 54.373 77.3149C54.373 74.8261 56.412 72.8621 58.9269 72.8491" fill="white"/>
<path d="M69.5011 79.4676H65.5103L64.7337 81.5327C64.6848 81.6566 64.5707 81.7315 64.4468 81.7315C64.4224 81.7315 64.3718 81.7201 64.3344 81.7201C64.1844 81.6565 64.0964 81.4675 64.1591 81.3192L67.1989 73.1999C67.2478 73.0875 67.3749 73.0125 67.4988 73.0125C67.6373 73.0125 67.7612 73.0883 67.8003 73.1999L70.84 81.3184C70.9019 81.4683 70.827 81.6557 70.677 81.7193C70.6265 81.7193 70.602 81.7307 70.5645 81.7307C70.4505 81.7307 70.3266 81.6557 70.2761 81.5319L69.5019 79.4676H69.5011ZM65.736 78.8564H69.2753L67.5118 74.1526L65.7352 78.8548L65.736 78.8564ZM80.0382 74.2276L77.2348 78.1173C77.1729 78.2167 77.0718 78.2542 76.9854 78.2542H76.961C76.8469 78.2542 76.7605 78.2175 76.697 78.1181L73.896 74.2406V81.4333C73.896 81.5962 73.7575 81.7332 73.5945 81.7332C73.4201 81.7332 73.2824 81.5962 73.2824 81.4341V73.3287C73.2824 73.2277 73.3313 73.1413 73.407 73.0924C73.407 73.0785 73.4201 73.0785 73.4331 73.0663C73.57 72.9791 73.7575 73.0044 73.8569 73.1413L76.9724 77.4547L80.0749 73.1388C80.1621 73.0019 80.3625 72.9758 80.5003 73.0638C80.5369 73.1005 80.563 73.1258 80.5875 73.1641C80.6119 73.213 80.6364 73.2757 80.6364 73.3271V81.4324C80.6364 81.5954 80.4994 81.7323 80.3365 81.7323C80.1604 81.7323 80.0366 81.5954 80.0366 81.4333V74.2292L80.0382 74.2276ZM83.7079 73.2757C83.7079 73.1127 83.8464 72.9767 84.0078 72.9767H86.4835C87.8608 72.9767 88.9732 74.1013 88.9732 75.4785C88.9732 76.8541 87.86 77.9681 86.4835 77.9681L84.3199 77.9926V81.4333C84.3199 81.5962 84.1813 81.7323 84.0069 81.7323C83.844 81.7323 83.707 81.5938 83.707 81.4324V73.2749L83.7079 73.2757ZM86.4843 77.3789C87.5226 77.3659 88.3734 76.5151 88.3734 75.4785C88.3734 74.4395 87.5226 73.5895 86.4843 73.5895H84.3207V77.3789H86.4843ZM91.5793 73.2757C91.5793 73.1127 91.7179 72.9767 91.8809 72.9767C92.0553 72.9767 92.1922 73.1136 92.1922 73.2757V81.4333C92.1922 81.5962 92.0553 81.7323 91.88 81.7323C91.7171 81.7323 91.5785 81.5938 91.5785 81.4324V73.2749L91.5793 73.2757ZM96.4355 74.2643V81.4333C96.4355 81.5962 96.297 81.7323 96.1356 81.7323C95.9727 81.7323 95.8357 81.5938 95.8357 81.4324V73.4012C95.7983 73.2757 95.8357 73.151 95.9474 73.0638C96.0859 72.9767 96.2856 73.0019 96.3736 73.1388L101.679 80.4944V73.3637C101.679 73.2008 101.815 73.0647 101.978 73.0647C102.153 73.0647 102.291 73.2016 102.291 73.3646V81.4341C102.291 81.5971 102.152 81.7332 101.978 81.7332C101.878 81.7332 101.803 81.6957 101.74 81.6207C101.726 81.6076 101.702 81.5962 101.689 81.5694L96.4355 74.2634V74.2643ZM109.399 77.7929C109.224 77.7929 109.087 77.6674 109.087 77.4914C109.087 77.3154 109.225 77.1801 109.4 77.1801H112.139C112.291 77.1915 112.415 77.33 112.415 77.4922V80.5458C112.403 80.633 112.366 80.721 112.303 80.7699C111.527 81.3827 110.551 81.7332 109.475 81.7332C106.96 81.7217 104.921 79.7577 104.921 77.2795C104.921 74.8412 106.96 72.8512 109.475 72.8512C110.564 72.8512 111.527 73.226 112.314 73.8405C112.428 73.9277 112.465 74.142 112.351 74.2643C112.252 74.3906 112.064 74.4158 111.914 74.3164C111.277 73.7908 110.413 73.464 109.475 73.464C107.286 73.464 105.534 75.1786 105.534 77.2803C105.534 79.4073 107.286 81.1211 109.475 81.1211C110.326 81.1211 111.139 80.8457 111.79 80.3714V77.7946H109.4L109.399 77.7929ZM115.584 80.0951C115.684 79.9688 115.86 79.9566 115.973 80.056C116.622 80.5816 117.71 81.1937 118.85 81.1831C119.612 81.1831 120.3 80.9573 120.775 80.6069C121.264 80.2565 121.525 79.7936 121.525 79.3063C121.525 78.8051 121.289 78.431 120.812 78.1042C120.338 77.7921 119.638 77.5533 118.787 77.3912H118.761C117.949 77.2412 117.237 77.0163 116.699 76.6528C116.161 76.3024 115.798 75.7776 115.798 75.1289C115.798 74.4647 116.16 73.8902 116.711 73.4892C117.261 73.0899 117.999 72.8503 118.826 72.8503C119.977 72.8503 120.839 73.4126 121.526 73.8641C121.652 73.9513 121.689 74.1143 121.602 74.2512C121.527 74.3759 121.351 74.4142 121.228 74.327C120.538 73.8763 119.788 73.4004 118.827 73.4004C118.114 73.4004 117.474 73.6139 117.037 73.9261C116.6 74.252 116.35 74.6791 116.35 75.1289C116.36 75.5665 116.56 75.8917 116.998 76.1924C117.436 76.4923 118.087 76.7058 118.875 76.8558H118.899C119.776 77.0187 120.551 77.2697 121.127 77.656C121.702 78.0309 122.089 78.6079 122.089 79.3079C122.089 80.0079 121.69 80.6338 121.103 81.0584C120.514 81.4838 119.726 81.747 118.85 81.747C117.51 81.734 116.349 81.0592 115.622 80.4839C115.508 80.3844 115.496 80.2092 115.583 80.0959" fill="white"/>
<path d="M1.16619 101.881H1.12952C1.01705 101.871 0.925781 101.777 0.925781 101.657V95.5774C0.925781 95.4552 1.02683 95.3525 1.14744 95.3525H2.36985C4.17086 95.3525 5.63367 96.8275 5.63367 98.6269C5.63367 100.426 4.17005 101.882 2.36985 101.882H1.16619V101.881ZM2.36985 101.425C3.91823 101.425 5.17649 100.175 5.17649 98.6261C5.17649 97.0671 3.91823 95.8178 2.37066 95.8081H1.38133V101.423H2.36985V101.425ZM7.49254 95.5766C7.49254 95.456 7.59441 95.3525 7.71502 95.3525H11.0742C11.2046 95.3525 11.2967 95.456 11.2967 95.5766C11.2967 95.707 11.2054 95.8089 11.075 95.8089H7.94972V98.3922H10.6814C10.8036 98.3922 10.9055 98.4957 10.9055 98.6261C10.9055 98.7459 10.8044 98.8494 10.6822 98.8494H7.94972V101.423H11.0742C11.2046 101.423 11.2967 101.525 11.2967 101.655C11.2967 101.776 11.2054 101.879 11.075 101.879H7.69628C7.58382 101.87 7.49254 101.776 7.49254 101.655V95.5758V95.5766ZM16.7176 101.881H16.6989C16.5766 101.881 16.474 101.777 16.474 101.657V95.5774C16.474 95.4552 16.5775 95.3525 16.6989 95.3525C16.8293 95.3525 16.932 95.456 16.932 95.5766V101.425H20.0556C20.186 101.425 20.2887 101.526 20.2887 101.657C20.2887 101.777 20.186 101.881 20.0548 101.881H16.716H16.7176ZM25.6241 100.192H22.6496L22.071 101.732C22.0343 101.826 21.9512 101.882 21.8566 101.882C21.8371 101.882 21.7996 101.872 21.7719 101.872C21.6602 101.826 21.595 101.685 21.6415 101.575L23.907 95.5212C23.9453 95.4356 24.0374 95.3802 24.1319 95.3802C24.2338 95.3802 24.3275 95.4356 24.356 95.5204L26.6216 101.573C26.6688 101.685 26.6118 101.826 26.501 101.87C26.4627 101.87 26.4439 101.88 26.4154 101.88C26.3314 101.88 26.2385 101.825 26.2011 101.73L25.6224 100.19L25.6241 100.192ZM22.8174 99.7352H25.4578L24.1425 96.2294L22.8174 99.736V99.7352ZM28.4055 95.6051C28.4055 95.4731 28.509 95.3712 28.6296 95.3712C28.76 95.3712 28.8635 95.4731 28.8635 95.6051V99.3824L32.8077 95.4364C32.9015 95.3517 33.0498 95.3517 33.1256 95.4364C33.2185 95.5212 33.2185 95.6703 33.1256 95.7624L30.6262 98.261L33.1802 101.509C33.2551 101.61 33.2372 101.741 33.1435 101.835C33.0971 101.871 33.049 101.881 32.9936 101.881C32.9284 101.881 32.8713 101.862 32.8265 101.796L30.3002 98.5886L28.8635 100.025V101.656C28.8635 101.777 28.7608 101.88 28.6296 101.88C28.509 101.88 28.4055 101.777 28.4055 101.657V95.6068V95.6051ZM35.4017 95.5766C35.4017 95.456 35.5044 95.3525 35.6258 95.3525H38.9842C39.1145 95.3525 39.2074 95.456 39.2074 95.5766C39.2074 95.707 39.1145 95.8089 38.9842 95.8089H35.8597V98.3922H38.5922C38.7144 98.3922 38.8155 98.4957 38.8155 98.6261C38.8155 98.7459 38.7128 98.8494 38.5914 98.8494H35.8589V101.423H38.9833C39.1137 101.423 39.2066 101.525 39.2066 101.655C39.2066 101.776 39.1137 101.879 38.9833 101.879H35.6079C35.4954 101.87 35.4025 101.776 35.4025 101.655V95.5758L35.4017 95.5766ZM41.7354 96.3125V101.657C41.7354 101.777 41.6335 101.881 41.5121 101.881C41.3907 101.881 41.288 101.777 41.288 101.657V95.6703C41.2595 95.5766 41.288 95.4829 41.3727 95.4177C41.4746 95.3525 41.6237 95.3704 41.6889 95.4723L45.643 100.957V95.6402C45.643 95.5196 45.7465 95.4161 45.8671 95.4161C45.9975 95.4161 46.1002 95.5204 46.1002 95.641V101.655C46.1002 101.777 45.9975 101.88 45.8671 101.88C45.7938 101.88 45.7367 101.852 45.6903 101.795C45.6821 101.786 45.6618 101.777 45.6528 101.759L41.7346 96.3133L41.7354 96.3125ZM48.4814 100.659C48.5548 100.566 48.6852 100.557 48.7691 100.632C49.254 101.023 50.0649 101.479 50.914 101.471C51.4845 101.471 51.9963 101.303 52.3508 101.042C52.7142 100.78 52.9106 100.436 52.9106 100.073C52.9106 99.6994 52.7338 99.419 52.3785 99.1762C52.0248 98.9431 51.5016 98.7663 50.8684 98.6465H50.848C50.2417 98.5324 49.7104 98.3653 49.3094 98.0948C48.9085 97.834 48.6379 97.4428 48.6379 96.9571C48.6379 96.4649 48.9085 96.0346 49.3184 95.7372C49.7291 95.4381 50.28 95.2612 50.8953 95.2612C51.7534 95.2612 52.3972 95.6793 52.9098 96.015C53.0035 96.0802 53.0304 96.2025 52.9652 96.3043C52.9098 96.3973 52.7778 96.425 52.6857 96.3598C52.1723 96.0232 51.614 95.6703 50.8953 95.6703C50.3639 95.6703 49.8888 95.8276 49.5612 96.0615C49.2352 96.3035 49.0478 96.6205 49.0478 96.9563C49.0576 97.2823 49.2075 97.5268 49.5335 97.7492C49.8595 97.9733 50.3452 98.1323 50.9328 98.2439H50.9491C51.6035 98.3645 52.1812 98.5511 52.6099 98.8404C53.0394 99.1208 53.3287 99.5494 53.3287 100.071C53.3287 100.593 53.0296 101.06 52.592 101.377C52.1535 101.694 51.5652 101.89 50.9132 101.89C49.9149 101.882 49.047 101.377 48.5067 100.949C48.4252 100.873 48.4138 100.742 48.479 100.658" fill="white"/>
<path d="M58.6113 94.6077C58.6113 94.4936 58.7042 94.4023 58.8167 94.4023C58.9292 94.4023 59.0204 94.4944 59.0204 94.6077V102.907C59.0204 103.021 58.9292 103.113 58.8167 103.113C58.7042 103.113 58.6113 103.02 58.6113 102.907V94.6077Z" fill="white"/>
<path d="M67.622 98.943C67.4916 98.943 67.3889 98.8509 67.3889 98.7206C67.3889 98.5902 67.4916 98.4867 67.6228 98.4867H69.6642C69.7767 98.4964 69.8696 98.5983 69.8696 98.7206V100.996C69.8615 101.061 69.8321 101.126 69.7857 101.165C69.2071 101.621 68.4801 101.882 67.6774 101.882C65.8031 101.874 64.2832 100.408 64.2832 98.5625C64.2832 96.7435 65.8039 95.262 67.6774 95.262C68.4883 95.262 69.2071 95.5415 69.7963 95.9979C69.8777 96.063 69.9071 96.2203 69.8223 96.3157C69.7474 96.4069 69.6088 96.4265 69.4964 96.3515C69.0204 95.9604 68.3774 95.7183 67.6774 95.7183C66.0451 95.7183 64.7404 96.9961 64.7404 98.5625C64.7404 100.148 66.0459 101.426 67.6782 101.426C68.3139 101.426 68.9194 101.221 69.4043 100.865V98.9447H67.6228L67.622 98.943ZM72.4912 95.5765C72.4912 95.4559 72.5939 95.3524 72.7154 95.3524H76.0729C76.2033 95.3524 76.297 95.4559 76.297 95.5765C76.297 95.7069 76.2033 95.8088 76.0729 95.8088H72.9484V98.3921H75.6809C75.8032 98.3921 75.905 98.4956 75.905 98.626C75.905 98.7458 75.8032 98.8493 75.6817 98.8493H72.9492V101.423H76.0737C76.2041 101.423 76.2978 101.525 76.2978 101.655C76.2978 101.776 76.2041 101.879 76.0737 101.879H72.6982C72.5866 101.869 72.4929 101.776 72.4929 101.655V95.5757L72.4912 95.5765ZM80.4947 101.75C80.4866 101.75 80.4866 101.741 80.4866 101.732L80.4768 101.722L77.9505 95.7077C77.9016 95.5953 77.9587 95.4551 78.0711 95.4078C78.1828 95.3524 78.3238 95.4078 78.3694 95.5219L80.7001 101.08L83.0422 95.5219C83.0789 95.4078 83.2191 95.3524 83.3307 95.4078C83.4432 95.4567 83.4994 95.5953 83.453 95.7069L80.925 101.676C80.9169 101.761 80.8696 101.836 80.7946 101.863H80.7849C80.7563 101.873 80.7295 101.882 80.7009 101.882C80.6732 101.882 80.6357 101.882 80.617 101.872C80.6088 101.872 80.6088 101.864 80.6088 101.864C80.5518 101.844 80.5143 101.808 80.4947 101.752" fill="white"/>
<path d="M85.3934 95.5766C85.3934 95.456 85.4953 95.3525 85.6159 95.3525H88.9767C89.1071 95.3525 89.1983 95.456 89.1983 95.5766C89.1983 95.707 89.1062 95.8089 88.9759 95.8089H85.8506V98.3922H88.5822C88.7045 98.3922 88.8064 98.4957 88.8064 98.6261C88.8064 98.7459 88.7045 98.8494 88.5822 98.8494H85.8506V101.423H88.975C89.1054 101.423 89.1967 101.525 89.1967 101.655C89.1967 101.776 89.1046 101.879 88.9742 101.879H85.5963C85.4839 101.87 85.3926 101.776 85.3926 101.655V95.5758L85.3934 95.5766ZM94.6837 100.408C94.6837 99.9316 94.4408 99.6334 94.1515 99.419C93.8638 99.2137 93.5191 99.1118 93.3969 99.0931C93.3684 99.0833 93.3602 99.0743 93.3504 99.0743H91.7654V101.658C91.7654 101.777 91.6627 101.881 91.5315 101.881C91.4117 101.881 91.3082 101.777 91.3082 101.657V95.5758C91.3082 95.4641 91.4019 95.3607 91.5144 95.3517H93.3781C94.405 95.3517 95.2338 96.1829 95.2338 97.2179C95.2338 97.9644 94.7961 98.6065 94.1621 98.9048C94.1898 98.9227 94.2175 98.9325 94.255 98.9521C94.6845 99.1949 95.1319 99.6708 95.1319 100.408C95.1319 100.791 95.1686 101.024 95.2166 101.164C95.2541 101.275 95.2998 101.312 95.3087 101.321C95.4106 101.311 95.5239 101.37 95.5614 101.471C95.5891 101.593 95.5337 101.724 95.4106 101.771C95.4008 101.771 95.3552 101.779 95.2981 101.779H95.2818C95.1596 101.779 94.9624 101.687 94.8605 101.482C94.7497 101.265 94.6845 100.958 94.6845 100.408H94.6837ZM93.379 95.8089H91.7654V98.6261H93.4173C94.1719 98.6065 94.788 97.9823 94.788 97.2163C94.7864 96.4339 94.1523 95.8081 93.3781 95.8081L93.379 95.8089ZM97.2964 100.659C97.3713 100.566 97.5017 100.557 97.5848 100.632C98.0697 101.023 98.8806 101.479 99.7298 101.471C100.3 101.471 100.812 101.303 101.167 101.042C101.53 100.78 101.727 100.436 101.727 100.073C101.727 99.6994 101.55 99.419 101.195 99.1762C100.841 98.9431 100.318 98.7663 99.6849 98.6465H99.6662C99.0599 98.5324 98.5285 98.3653 98.1276 98.0948C97.7258 97.834 97.4553 97.4428 97.4553 96.9571C97.4553 96.4649 97.7258 96.0346 98.1357 95.7372C98.5465 95.4381 99.0974 95.2612 99.7135 95.2612C100.572 95.2612 101.215 95.6793 101.728 96.015C101.822 96.0802 101.849 96.2025 101.783 96.3043C101.728 96.3973 101.596 96.425 101.503 96.3598C100.99 96.0232 100.432 95.6703 99.7135 95.6703C99.1821 95.6703 98.707 95.8276 98.3786 96.0615C98.0526 96.3035 97.8652 96.6205 97.8652 96.9563C97.8758 97.2823 98.0249 97.5268 98.3517 97.7492C98.6777 97.9733 99.1626 98.1323 99.751 98.2439H99.7673C100.422 98.3645 101 98.5511 101.428 98.8404C101.858 99.1208 102.147 99.5494 102.147 100.071C102.147 100.593 101.849 101.06 101.411 101.377C100.971 101.694 100.383 101.89 99.7298 101.89C98.7323 101.882 97.8636 101.377 97.3241 100.949C97.2401 100.873 97.2304 100.742 97.2956 100.658" fill="white"/>
<path d="M104.384 101.881H104.347C104.235 101.871 104.144 101.778 104.144 101.657V95.5775C104.144 95.4552 104.245 95.3525 104.364 95.3525H105.586C107.387 95.3525 108.851 96.8276 108.851 98.627C108.851 100.426 107.386 101.882 105.586 101.882H104.383L104.384 101.881ZM105.588 101.425C107.136 101.425 108.394 100.175 108.394 98.6261C108.394 97.0672 107.134 95.8179 105.587 95.8081H104.598V101.423H105.587L105.588 101.425ZM111.185 95.5766C111.185 95.456 111.287 95.3525 111.408 95.3525C111.538 95.3525 111.642 95.456 111.642 95.5766V99.2422C111.642 100.446 112.621 101.415 113.815 101.425C115.028 101.415 116.007 100.447 116.007 99.2422V95.5766C116.007 95.456 116.108 95.3525 116.23 95.3525C116.36 95.3525 116.464 95.456 116.464 95.5766V99.2422C116.464 100.697 115.279 101.881 113.815 101.881C112.37 101.881 111.185 100.697 111.185 99.2422V95.5766H111.185ZM118.696 95.5766C118.696 95.456 118.797 95.3525 118.918 95.3525C119.048 95.3525 119.152 95.456 119.152 95.5766V101.656C119.152 101.778 119.049 101.881 118.918 101.881C118.797 101.881 118.695 101.778 118.695 101.657V95.5775L118.696 95.5766ZM122.278 96.3125V101.657C122.278 101.778 122.173 101.881 122.053 101.881C121.931 101.881 121.83 101.778 121.83 101.657V95.6704C121.802 95.5766 121.83 95.4829 121.914 95.4177C122.017 95.3525 122.167 95.3705 122.232 95.4723L126.186 100.957V95.6402C126.186 95.5196 126.288 95.4161 126.409 95.4161C126.54 95.4161 126.642 95.5204 126.642 95.641V101.655C126.642 101.778 126.54 101.88 126.41 101.88C126.337 101.88 126.28 101.852 126.232 101.795C126.223 101.786 126.205 101.777 126.196 101.759L122.278 96.3134V96.3125Z" fill="white"/>
<path d="M132.604 94.6077C132.604 94.4936 132.696 94.4023 132.809 94.4023C132.921 94.4023 133.015 94.4944 133.015 94.6077V102.907C133.015 103.021 132.921 103.113 132.809 103.113C132.695 103.113 132.604 103.02 132.604 102.907V94.6077Z" fill="white"/>
<path d="M138.564 95.5766C138.564 95.456 138.666 95.3525 138.788 95.3525H140.241C141.138 95.3525 141.865 96.0803 141.865 96.9857C141.865 97.4991 141.614 97.9554 141.24 98.2545C141.976 98.5072 142.517 99.195 142.517 100.016C142.517 101.051 141.679 101.883 140.651 101.883H138.779C138.657 101.883 138.563 101.778 138.563 101.658V95.5758L138.564 95.5766ZM140.241 98.1404C140.885 98.1404 141.409 97.6189 141.409 96.9849C141.409 96.3329 140.888 95.8089 140.242 95.8089H139.021V98.1396H140.242L140.241 98.1404ZM140.652 101.425C141.426 101.425 142.052 100.799 142.062 100.015C142.051 99.2422 141.426 98.6066 140.652 98.6066H139.021V101.424H140.652V101.425ZM147.816 100.192H144.842L144.265 101.732C144.226 101.826 144.143 101.882 144.049 101.882C144.031 101.882 143.994 101.872 143.965 101.872C143.852 101.826 143.788 101.685 143.834 101.575L146.1 95.5212C146.138 95.4357 146.23 95.3802 146.324 95.3802C146.426 95.3802 146.52 95.4357 146.547 95.5204L148.813 101.573C148.86 101.685 148.803 101.826 148.692 101.87C148.655 101.87 148.637 101.88 148.608 101.88C148.524 101.88 148.431 101.825 148.392 101.73L147.816 100.19V100.192ZM145.009 99.7353H147.649L146.336 96.2294L145.009 99.7361V99.7353ZM150.598 95.6052C150.598 95.4731 150.701 95.3713 150.822 95.3713C150.954 95.3713 151.056 95.4731 151.056 95.6052V99.3824L155 95.4365C155.094 95.3517 155.243 95.3517 155.318 95.4365C155.411 95.5212 155.411 95.6704 155.318 95.7625L152.82 98.261L155.374 101.509C155.449 101.61 155.431 101.741 155.337 101.835C155.292 101.871 155.244 101.881 155.189 101.881C155.124 101.881 155.067 101.862 155.022 101.796L152.493 98.5887L151.056 100.025V101.656C151.056 101.777 150.955 101.88 150.823 101.88C150.704 101.88 150.6 101.778 150.6 101.657V95.6068L150.598 95.6052ZM157.595 95.6052C157.595 95.4731 157.697 95.3713 157.816 95.3713C157.949 95.3713 158.051 95.4731 158.051 95.6052V99.3824L161.995 95.4365C162.089 95.3517 162.238 95.3517 162.313 95.4365C162.405 95.5212 162.405 95.6704 162.313 95.7625L159.814 98.261L162.369 101.509C162.445 101.61 162.426 101.741 162.333 101.835C162.286 101.871 162.24 101.881 162.184 101.881C162.119 101.881 162.062 101.862 162.016 101.796L159.487 98.5887L158.053 100.025V101.656C158.053 101.777 157.95 101.88 157.816 101.88C157.697 101.88 157.596 101.778 157.596 101.657V95.6068L157.595 95.6052ZM164.46 95.5766C164.46 95.456 164.563 95.3525 164.683 95.3525C164.813 95.3525 164.918 95.456 164.918 95.5766V99.2422C164.918 100.446 165.896 101.415 167.09 101.425C168.303 101.415 169.283 100.447 169.283 99.2422V95.5766C169.283 95.456 169.384 95.3525 169.503 95.3525C169.635 95.3525 169.739 95.456 169.739 95.5766V99.2422C169.739 100.697 168.553 101.881 167.09 101.881C165.644 101.881 164.458 100.697 164.458 99.2422V95.5766H164.46ZM176.941 96.2848L174.853 99.186C174.805 99.2593 174.73 99.2887 174.665 99.2887H174.647C174.563 99.2887 174.499 99.2602 174.452 99.1868L172.363 96.2938V101.656C172.363 101.778 172.259 101.881 172.138 101.881C172.008 101.881 171.905 101.778 171.905 101.657V95.6133C171.905 95.54 171.942 95.4731 171.998 95.4365C171.998 95.4267 172.006 95.4267 172.016 95.4177C172.118 95.3525 172.259 95.3713 172.334 95.4731L174.656 98.6922L176.968 95.4731C177.033 95.3713 177.184 95.3509 177.286 95.4177C177.314 95.4463 177.333 95.4666 177.351 95.4927C177.369 95.531 177.39 95.5775 177.39 95.6133V101.657C177.39 101.778 177.286 101.881 177.165 101.881C177.034 101.881 176.942 101.778 176.942 101.657V96.2848H176.941Z" fill="white"/>
</svg>
