<svg width="130" height="24" viewBox="0 0 130 24" fill="none" xmlns="http://www.w3.org/2000/svg">
<path d="M5.32012 3.45245H7.01484C9.0238 3.45245 11.2523 3.64066 11.2523 6.18337C11.2523 7.31519 10.6774 7.98227 9.87052 8.3664C11.6 8.23264 13.3084 8.14647 14.9962 8.1096C15.4134 7.39921 15.6466 6.56107 15.6466 5.61833C15.6466 0.816275 11.4092 0 8.58437 0H0.925781V9.50807C2.41 9.24269 3.87363 9.01976 5.32012 8.83413V3.45245Z" fill="#D47405"/>
<path d="M28.4429 4.39465H28.5055L30.0751 8.86959C31.6437 9.04793 33.2064 9.25329 34.7674 9.47579L31.0478 0.000732422H26.0888L22.873 8.25309C24.2514 8.32983 25.6207 8.43272 26.9836 8.5562L28.4429 4.39465Z" fill="#D47405"/>
<path d="M50.6465 10.3272L59.6547 0.000732422H54.2554L46.3461 9.41663V0.000732422H41.9521V10.6145C45.4003 11.2065 48.8665 11.8479 52.3905 12.4798L50.6465 10.3272Z" fill="#D47405"/>
<path d="M71.2149 10.3272L80.2231 0.000732422H74.8242L66.9148 9.41663V0.000732422H62.5205V14.1814C63.9691 14.4013 65.4336 14.6092 66.9148 14.8039V11.7394H66.9774L69.6115 15.1396C71.5707 15.3685 73.5638 15.5683 75.5942 15.7316L71.2149 10.3272Z" fill="#D47405"/>
<path d="M96.1197 12.6496C96.1197 13.91 95.9795 15.0191 95.6699 15.9421C97.227 15.8448 98.8077 15.7192 100.415 15.5627C100.474 15.0688 100.514 14.5544 100.514 13.9992V0.000732422H96.1192V12.6496H96.1197Z" fill="#F58300"/>
<path d="M87.017 12.6496V0.000732422H82.623V13.9992C82.623 14.7734 82.6852 15.4838 82.798 16.1406C84.3611 16.1895 85.9465 16.2148 87.5589 16.2109C87.1824 15.239 87.017 14.0335 87.017 12.6496Z" fill="#D47405"/>
<path d="M111.901 0.000732422H104.871V15.0607C106.252 14.8815 107.656 14.6744 109.077 14.4472V3.89262L109.14 3.83003L112.419 13.8783C113.609 13.6605 114.816 13.4243 116.035 13.1713L111.901 0.000732422Z" fill="#D47405"/>
<path d="M122.384 0.000732422L118.41 12.662C119.782 12.3559 121.178 12.0198 122.588 11.667L125.145 3.83003H125.208V10.9896C126.592 10.62 127.992 10.2295 129.414 9.81362V0.000732422H122.384Z" fill="#D47405"/>
<path d="M11.2845 12.2924V12.2298C12.9471 11.9293 14.2615 11.0774 14.9972 9.82471C13.3094 9.86158 11.6009 9.94775 9.8715 10.0815C8.3727 10.1973 6.85676 10.3516 5.3211 10.5492C3.87461 10.7349 2.41097 10.9578 0.926758 11.2232V23.6234H8.58535C11.3471 23.6234 16.3065 22.8071 16.3065 17.2831C16.3061 14.5839 14.2663 12.5749 11.2845 12.2924Z" fill="#BD8964"/>
<path d="M34.7683 11.1902C33.2073 10.9677 31.6446 10.7624 30.076 10.584C29.0488 10.467 28.0177 10.3641 26.9845 10.2706C25.6216 10.1472 24.2523 10.0443 22.874 9.96753L17.5527 23.6234H22.1036L24.0182 18.6014H32.9008L34.7841 23.6234H39.6492L34.7683 11.1902Z" fill="#BD8964"/>
<path d="M41.9512 12.3289V23.6234H46.3451V13.4538H46.4081L54.2862 23.6234H60.0301L52.39 14.1946C48.8655 13.5623 45.3993 12.9209 41.9512 12.3289Z" fill="#BD8964"/>
<path d="M62.5195 15.8958V23.6234H66.9139V16.5182C65.4327 16.3236 63.9682 16.1157 62.5195 15.8958Z" fill="#BD8964"/>
<path d="M87.5593 17.9253C85.946 17.9296 84.3606 17.9039 82.7988 17.855C83.5448 22.1748 86.6916 24.0002 91.5691 24.0002C96.6558 24.0002 99.8553 22.0088 100.416 17.2771C98.8084 17.434 97.2273 17.5592 95.671 17.6565C92.8917 17.8301 90.1886 17.9176 87.5593 17.9253Z" fill="#BD8964"/>
<path d="M69.6113 16.8538L74.855 23.6236H80.5989L75.5932 17.4462C73.5641 17.2825 71.571 17.0827 69.6113 16.8538Z" fill="#BD8964"/>
<path d="M104.871 16.7755V23.6239H109.077V16.1616C107.656 16.3893 106.252 16.5963 104.871 16.7755Z" fill="#BD8964"/>
<path d="M116.034 14.8857C114.815 15.1387 113.609 15.3753 112.419 15.5927L115.04 23.6234H119.246L122.589 13.3813C121.179 13.7342 119.783 14.0707 118.412 14.3764C117.612 14.5552 116.821 14.7224 116.034 14.8857Z" fill="#BD8964"/>
<path d="M125.209 12.7036V23.623H129.415V11.5276C127.993 11.9439 126.593 12.3344 125.209 12.7036Z" fill="#BD8964"/>
</svg>
