<svg width="82" height="15" viewBox="0 0 82 15" fill="none" xmlns="http://www.w3.org/2000/svg">
<path d="M3.60093 2.15776H4.66012C5.91571 2.15776 7.30849 2.27539 7.30849 3.86457C7.30849 4.57195 6.94917 4.98887 6.4449 5.22895C7.52579 5.14535 8.59355 5.09149 9.64845 5.06845C9.90916 4.62446 10.0549 4.10063 10.0549 3.51142C10.0549 0.510167 7.40655 0 5.64106 0H0.854492V5.94249C1.78212 5.77663 2.69688 5.6373 3.60093 5.52128V2.15776Z" fill="#F0F0F0"/>
<path d="M18.0529 2.74666H18.092L19.073 5.54347C20.0534 5.65493 21.0301 5.78328 22.0056 5.92234L19.681 0.000488281H16.5816L14.5718 5.15816C15.4332 5.20613 16.289 5.27043 17.1408 5.3476L18.0529 2.74666Z" fill="#F0F0F0"/>
<path d="M31.9298 6.45448L37.5598 0.000488281H34.1853L29.242 5.88537V0.000488281H26.4958V6.63401C28.6509 7.00404 30.8173 7.40488 33.0198 7.79984L31.9298 6.45448Z" fill="#F0F0F0"/>
<path d="M44.7845 6.45448L50.4146 0.000488281H47.0403L42.097 5.88537V0.000488281H39.3506V8.86331C40.256 9.00076 41.1713 9.13072 42.097 9.25237V7.33709H42.1361L43.7824 9.46217C45.0069 9.60525 46.2526 9.73011 47.5216 9.8322L44.7845 6.45448Z" fill="#F0F0F0"/>
<path d="M60.3502 7.90594C60.3502 8.6937 60.2625 9.38687 60.0691 9.96376C61.0423 9.90294 62.0302 9.82443 63.035 9.72663C63.0717 9.41796 63.0963 9.09642 63.0963 8.74943V0.000488281H60.3499V7.90594H60.3502Z" fill="#F0F0F0"/>
<path d="M54.661 7.90594V0.000488281H51.9148V8.74943C51.9148 9.23334 51.9536 9.67732 52.0241 10.0878C53.001 10.1184 53.9919 10.1342 54.9996 10.1318C54.7644 9.52433 54.661 8.77087 54.661 7.90594Z" fill="#F0F0F0"/>
<path d="M70.2133 0.000488281H65.8196V9.41286C66.6824 9.30086 67.5604 9.17145 68.4481 9.02943V2.43289L68.4875 2.39377L70.537 8.67387C71.2806 8.53776 72.0348 8.39012 72.7969 8.23203L70.2133 0.000488281Z" fill="#F0F0F0"/>
<path d="M76.7651 0.000488281L74.2817 7.91371C75.1392 7.7224 76.0116 7.51233 76.8926 7.29181L78.4912 2.39377H78.5305V6.86846C79.3955 6.63749 80.2706 6.39339 81.1591 6.13348V0.000488281H76.7651Z" fill="#F0F0F0"/>
<path d="M7.32853 7.68267V7.64355C8.36763 7.45572 9.18915 6.92332 9.64894 6.14038C8.59404 6.16342 7.52628 6.21728 6.44539 6.30088C5.50865 6.37322 4.5612 6.46969 3.60142 6.59321C2.69737 6.70923 1.78261 6.84856 0.85498 7.01442V14.7645H5.64155C7.36765 14.7645 10.4672 14.2543 10.4672 10.8018C10.467 9.11484 9.19209 7.85925 7.32853 7.68267Z" fill="#F0F0F0"/>
<path d="M22.0057 6.99367C21.0301 6.85461 20.0535 6.72626 19.073 6.6148C18.431 6.54165 17.7866 6.47734 17.1409 6.41893C16.2891 6.34176 15.4333 6.27745 14.5718 6.22949L11.2461 14.7643H14.0903L15.287 11.6256H20.8385L22.0156 14.7643H25.0563L22.0057 6.99367Z" fill="#F0F0F0"/>
<path d="M26.4954 7.70557V14.7646H29.2415V8.40865H29.2809L34.2047 14.7646H37.7946L33.0196 8.87166C30.8168 8.47644 28.6504 8.0756 26.4954 7.70557Z" fill="#F0F0F0"/>
<path d="M39.3503 9.93481V14.7645H42.0968V10.3239C41.171 10.2022 40.2557 10.0723 39.3503 9.93481Z" fill="#F0F0F0"/>
<path d="M55.0002 11.2032C53.9919 11.2059 53.001 11.1898 52.0249 11.1593C52.4911 13.8591 54.4578 15 57.5063 15C60.6854 15 62.6851 13.7554 63.0356 10.7981C62.0308 10.8962 61.0426 10.9744 60.07 11.0352C58.3329 11.1437 56.6435 11.1984 55.0002 11.2032Z" fill="#F0F0F0"/>
<path d="M43.7822 10.5334L47.0595 14.7646H50.6494L47.5209 10.9037C46.2527 10.8014 45.007 10.6765 43.7822 10.5334Z" fill="#F0F0F0"/>
<path d="M65.8196 10.4845V14.7647H68.4484V10.1008C67.5601 10.2431 66.6824 10.3725 65.8196 10.4845Z" fill="#F0F0F0"/>
<path d="M72.7964 9.3035C72.0344 9.46159 71.2809 9.60949 70.5369 9.74534L72.1751 14.7645H74.8036L76.8928 8.36328C76.0121 8.5838 75.1394 8.79414 74.2822 8.98518C73.7825 9.09691 73.2884 9.20141 72.7964 9.3035Z" fill="#F0F0F0"/>
<path d="M78.531 7.93956V14.7641H81.1598V7.20459C80.271 7.46476 79.3959 7.70886 78.531 7.93956Z" fill="#F0F0F0"/>
</svg>
