<svg width="114" height="16" viewBox="0 0 114 16" fill="none" xmlns="http://www.w3.org/2000/svg">
<path d="M3.23239 7.26152C3.23239 4.50058 4.97017 2.37516 8.11612 2.37516C9.31106 2.37571 10.4935 2.61883 11.5917 3.08979L11.7657 0.811418C10.4826 0.428262 9.14926 0.239815 7.81022 0.252374C3.23503 0.252374 0.42662 2.83927 0.42662 7.45402C0.391411 8.71932 0.689707 9.97162 1.29156 11.0852C2.50194 11.0535 3.63585 11.0061 4.71966 10.9454C3.75188 10.0778 3.23239 8.77252 3.23239 7.26152Z" fill="#F0F0F0"/>
<path d="M6.72632 8.35954H9.58219V10.5377C10.4893 10.4375 11.349 10.3241 12.1691 10.2054V6.24994H6.72632V8.35954Z" fill="#F0F0F0"/>
<path d="M17.4248 8.0508H22.2321V5.92537H17.4248V2.60539H22.6672V0.495789H14.7219V9.78067C15.6581 9.60926 16.552 9.42731 17.4248 9.23745V8.0508Z" fill="#F0F0F0"/>
<path d="M26.8228 0.482971H23.9221L26.2269 7.18095C27.0575 6.999 27.9224 6.82232 28.8349 6.65355L26.8228 0.482971Z" fill="#F0F0F0"/>
<path d="M31.9126 6.11824C32.8435 5.96793 33.7585 5.83344 34.6551 5.71214L36.4166 0.482971H33.7427L31.9126 6.11824Z" fill="#F0F0F0"/>
<path d="M40.5354 2.60539H45.7857V0.495789H37.8325V5.33732C38.7528 5.24503 39.6521 5.16855 40.5354 5.10263V2.60539Z" fill="#F0F0F0"/>
<path d="M50.7168 2.6056H51.6055C52.9557 2.6056 54.4614 2.74009 54.4614 4.36184C54.4681 4.6507 54.4095 4.93735 54.29 5.20041C55.2077 5.28128 56.1086 5.37533 56.9929 5.48257C57.1847 5.05843 57.2828 4.59791 57.2803 4.13242C57.2803 0.385245 53.8259 0.482814 50.9304 0.482814H48.0139V4.87606C48.9342 4.87606 49.8334 4.91825 50.7168 4.9578V2.6056Z" fill="#F0F0F0"/>
<path d="M62.0982 4.24843C62.0982 2.77962 63.2954 2.37353 64.221 2.37353C65.1649 2.37961 66.0979 2.57697 66.9635 2.95367L67.214 0.733312C66.1718 0.400495 65.0829 0.237555 63.9889 0.250741C61.6156 0.250741 59.2792 1.35037 59.2792 4.36183C59.2698 4.86143 59.3594 5.35795 59.5429 5.82272C61.874 6.1629 64.1102 6.569 66.2989 6.99355C64.5585 5.88074 62.0982 5.75416 62.0982 4.24843Z" fill="#F0F0F0"/>
<path d="M73.6613 0.482971H69.9695V7.72417L72.6724 8.25157V2.60576H74.1781C76.438 2.60576 78.6188 4.28553 78.6188 7.22051C78.6255 7.92066 78.4844 8.61435 78.2048 9.25627C79.1647 9.40922 80.136 9.5481 81.1187 9.67292C81.3406 8.87466 81.448 8.04896 81.4378 7.22051C81.4404 1.87267 77.7803 0.482971 73.6613 0.482971Z" fill="#F0F0F0"/>
<path d="M86.0843 8.27531V0.482971H83.384V9.09278C83.384 9.38812 83.4025 9.66501 83.4289 9.93134C84.3747 10.0245 85.3372 10.1001 86.3164 10.1581C86.1504 9.54464 86.0723 8.91073 86.0843 8.27531V8.27531Z" fill="#F0F0F0"/>
<path d="M91.6853 8.27531C91.7025 8.95214 91.6135 9.62749 91.4216 10.2768C92.3657 10.2768 93.3335 10.2267 94.3223 10.1687C94.3705 9.81912 94.3952 9.46673 94.3962 9.11387V0.482971H91.6853V8.27531Z" fill="#F0F0F0"/>
<path d="M96.9697 9.95244C97.8531 9.87069 98.7523 9.76785 99.6727 9.64655V0.482971H96.9697V9.95244Z" fill="#F0F0F0"/>
<path d="M9.58253 11.5923C8.0979 11.7585 6.48405 11.8956 4.69617 11.9984C3.62291 12.0591 2.489 12.1066 1.26807 12.1382C2.4679 14.2293 4.82274 15.2446 7.79728 15.2446C9.27533 15.2042 10.7417 14.9701 12.1589 14.5484V11.2601C11.3493 11.3788 10.4897 11.4921 9.58253 11.5923Z" fill="#F0F0F0"/>
<path d="M17.4248 10.2924C16.552 10.4823 15.6581 10.6643 14.7219 10.8357V15.0127H22.7147V12.9031H17.4248V10.2924Z" fill="#F0F0F0"/>
<path d="M31.9125 7.17271C31.1214 7.29929 30.3303 7.43641 29.5233 7.57617L28.8377 7.70539C27.9253 7.87679 27.0604 8.05347 26.2297 8.23279L28.5582 15.0099H31.8808L34.655 6.76398C33.761 6.88792 32.8433 7.0224 31.9125 7.17271Z" fill="#F0F0F0"/>
<path d="M40.5354 9.10592H45.3453V6.9805H40.5354V5.90196C39.6521 5.96789 38.7528 6.04436 37.8325 6.13666V15.0128H45.8253V12.9032H40.5354V9.10592Z" fill="#F0F0F0"/>
<path d="M55.9302 9.74128C55.6665 9.14268 55.234 8.4096 54.5009 8.35158V8.31467C55.0345 8.25902 55.5445 8.06604 55.9813 7.75455C56.418 7.44305 56.7665 7.02367 56.9929 6.53733C56.1139 6.43185 55.2129 6.33779 54.29 6.25517C53.1297 6.15145 51.9387 6.07058 50.7168 6.01256C49.8334 5.97301 48.9342 5.944 48.0139 5.93082V15.0126H50.7168V9.41429H51.5844C52.7236 9.41429 53.0717 9.7993 53.4593 10.804L55.0811 15.0232H58.0925L55.9302 9.74128Z" fill="#F0F0F0"/>
<path d="M66.3017 8.04842C64.1129 7.62386 61.8768 7.21777 59.5457 6.87759C60.698 9.6649 65.1862 9.14541 65.1862 11.3842C65.1862 12.5999 63.815 13.122 62.7918 13.122C61.7229 13.0996 60.6759 12.8143 59.7434 12.2914L59.4797 14.7227C60.8141 15.0523 61.4707 15.2501 62.9368 15.2501C65.6582 15.2501 67.9946 14.1293 67.9946 11.1759C68.0254 10.5496 67.8839 9.92689 67.5854 9.37546C67.2869 8.82404 66.8429 8.36504 66.3017 8.04842V8.04842Z" fill="#F0F0F0"/>
<path d="M78.2077 10.3107C76.3407 10.0153 74.5159 9.67516 72.67 9.31652L69.967 8.78912V15.0124H73.6588C77.0685 15.0124 80.1459 14.0631 81.1189 10.7273C80.138 10.6043 79.1675 10.4654 78.2077 10.3107Z" fill="#F0F0F0"/>
<path d="M91.4162 11.3182C89.652 11.3472 87.9591 11.3182 86.3162 11.2127C85.3388 11.1547 84.3763 11.0791 83.4287 10.9859C83.732 13.9868 85.7123 15.2447 88.8847 15.2447C91.9779 15.2447 93.9372 14.0475 94.3142 11.2101C93.3386 11.2681 92.3602 11.305 91.4162 11.3182Z" fill="#F0F0F0"/>
<path d="M96.9699 15.0127H99.6675V10.7012C98.7472 10.8225 97.848 10.9253 96.9646 11.0071L96.9699 15.0127Z" fill="#F0F0F0"/>
<path d="M102.22 15.0129H104.807V9.85754C103.926 10.0289 103.064 10.1819 102.22 10.3217V15.0129Z" fill="#F0F0F0"/>
<path d="M110.714 8.51774C110.231 8.6408 109.753 8.76122 109.282 8.87901C108.546 9.05832 107.829 9.22182 107.117 9.38004L109.999 15.0127H113.301V7.81366C112.423 8.06154 111.561 8.29887 110.714 8.51774Z" fill="#F0F0F0"/>
<path d="M105.54 0.482971H102.22V9.26946C103.064 9.1297 103.926 8.97675 104.807 8.80534V3.87943H104.844L107.117 8.32541C107.829 8.16719 108.546 8.0037 109.282 7.82438L105.54 0.482971Z" fill="#F0F0F0"/>
<path d="M110.714 0.482971V7.46311C111.56 7.24424 112.423 7.00691 113.301 6.75903V0.482971H110.714Z" fill="#F0F0F0"/>
</svg>
