<svg xmlns="http://www.w3.org/2000/svg" width="140.532" height="21.958" viewBox="0 0 140.532 21.958">
  <path id="path2" d="M11.209,70.763c0,3.762-.1,4.168-.648,4.982a3.442,3.442,0,0,1-3.187,1.474H4.733a.451.451,0,0,1-.448-.458v-12.3A.451.451,0,0,1,4.733,64H7.374a3.1,3.1,0,0,1,3.038,1.474C11.109,66.392,11.209,67.1,11.209,70.763Zm3.039,7.015c.946-1.525,1.195-2.44,1.195-7.116,0-4.27-.1-5.185-1.145-7.066a7.281,7.281,0,0,0-6.576-3.761H0v21.6H7.523A7.6,7.6,0,0,0,14.248,77.778Zm21.023-3.863V59.835H30.986V73.559c0,2.237-1.3,3.66-3.437,3.66a3.321,3.321,0,0,1-3.437-3.66V59.835H19.827v14.08a7.427,7.427,0,0,0,7.722,7.675A7.427,7.427,0,0,0,35.271,73.915Zm13.45,7.523,6.974-21.6H51.161L47.475,72.9a.325.325,0,0,1-.348.255.352.352,0,0,1-.348-.255L43.041,59.835H38.509l6.974,21.6Zm10.312,0h14V77.219H63.964a.657.657,0,0,1-.647-.61V73.2a.667.667,0,0,1,.647-.662h7.672V68.527H63.964a.665.665,0,0,1-.647-.66v-3.2a.666.666,0,0,1,.647-.66h9.067V59.784h-14Zm28.2-17.587H92.06V59.835H76.718v4.015H81.55a.687.687,0,0,1,.7.711V81.387h4.285V64.562A.687.687,0,0,1,87.228,63.851Zm8.818,17.587h4.283v-21.6H96.047ZM109.845,76c-.6-.814-.9-1.17-.9-5.389s.249-4.575.846-5.389A3.15,3.15,0,0,1,112.386,64a3.377,3.377,0,0,1,3.188,2.49l.149.458h4.433l-.149-.763a7.679,7.679,0,0,0-14.346-2.541c-.7,1.322-.947,2.033-.947,6.964,0,4.982.249,5.693.947,6.964a7.68,7.68,0,0,0,6.775,3.964,7.517,7.517,0,0,0,7.621-6.353l.151-.763h-4.384l-.149.356c-.748,1.626-1.793,2.389-3.238,2.389A3,3,0,0,1,109.845,76Zm22.716-3h-2.989c-.547,0-.547-.356-.448-.66l1.047-3.152.547-1.78a.361.361,0,0,1,.7,0l.549,1.83,1.045,3.152C133.16,72.644,133.16,73,132.562,73Zm7.971,8.387-7.722-21.6h-3.387l-7.722,21.6h4.534l1.345-4.116a.7.7,0,0,1,.7-.509h5.678a.75.75,0,0,1,.7.509L136,81.387Z" transform="translate(0 -59.632)" fill="#fff"/>
</svg>