<svg width="182" height="24" viewBox="0 0 182 24" fill="none" xmlns="http://www.w3.org/2000/svg">
<path d="M5.41948 11.2163C5.41948 6.79881 8.19993 3.39813 13.2334 3.39813C15.1454 3.39901 17.0372 3.788 18.7943 4.54153L19.0728 0.896145C17.0198 0.283095 14.8865 -0.0184195 12.744 0.00167432C5.4237 0.00167432 0.930249 4.14071 0.930249 11.5243C0.873914 13.5488 1.35119 15.5525 2.31415 17.3342C4.25076 17.2835 6.06502 17.2076 7.79911 17.1105C6.25066 15.7224 5.41948 13.6339 5.41948 11.2163Z" fill="#03C4A2"/>
<path d="M11.0098 12.9752H15.5792V16.4603C17.0306 16.2999 18.406 16.1185 19.7182 15.9287V9.59985H11.0098V12.9752Z" fill="#03C4A2"/>
<path d="M28.1274 12.4813H35.819V9.08065H28.1274V3.76867H36.5152V0.393311H23.8027V15.2491C25.3006 14.9749 26.7309 14.6837 28.1274 14.38V12.4813Z" fill="#03C4A2"/>
<path d="M43.1646 0.372803H38.5234L42.211 11.0896C43.5401 10.7984 44.924 10.5158 46.3838 10.2457L43.1646 0.372803Z" fill="#03C4A2"/>
<path d="M51.3076 9.38923C52.797 9.14874 54.2611 8.93356 55.6956 8.73948L58.514 0.372803H54.2357L51.3076 9.38923Z" fill="#03C4A2"/>
<path d="M65.104 3.76867H73.5044V0.393311H60.7793V8.13976C62.2518 7.99209 63.6905 7.86973 65.104 7.76425V3.76867Z" fill="#03C4A2"/>
<path d="M81.395 3.76891H82.8169C84.9771 3.76891 87.3863 3.98409 87.3863 6.5789C87.397 7.04107 87.3032 7.4997 87.112 7.9206C88.5803 8.04999 90.0219 8.20048 91.4367 8.37206C91.7436 7.69344 91.9005 6.9566 91.8966 6.21183C91.8966 0.216343 86.3694 0.372453 81.7367 0.372453H77.0703V7.40164C78.5428 7.40164 79.9816 7.46915 81.395 7.53244V3.76891Z" fill="#03C4A2"/>
<path d="M99.6052 6.39749C99.6052 4.0474 101.521 3.39764 103.002 3.39764C104.512 3.40738 106.005 3.72315 107.39 4.32587L107.79 0.773299C106.123 0.240792 104.381 -0.0199117 102.63 0.00118507C98.833 0.00118507 95.0948 1.76059 95.0948 6.57892C95.0798 7.37828 95.2232 8.17271 95.5167 8.91636C99.2465 9.46064 102.824 10.1104 106.326 10.7897C103.542 9.00918 99.6052 8.80666 99.6052 6.39749Z" fill="#03C4A2"/>
<path d="M118.106 0.372803H112.199V11.9587L116.524 12.8026V3.76926H118.933C122.549 3.76926 126.038 6.45689 126.038 11.1529C126.049 12.2731 125.823 13.383 125.376 14.4101C126.912 14.6548 128.466 14.877 130.038 15.0767C130.393 13.7995 130.565 12.4784 130.549 11.1529C130.553 2.59632 124.696 0.372803 118.106 0.372803Z" fill="#03C4A2"/>
<path d="M137.983 12.8405V0.372803H133.662V14.1485C133.662 14.621 133.692 15.0641 133.734 15.4902C135.247 15.6393 136.787 15.7602 138.354 15.8531C138.088 14.8715 137.963 13.8572 137.983 12.8405Z" fill="#03C4A2"/>
<path d="M146.944 12.8405C146.972 13.9235 146.829 15.004 146.522 16.0429C148.033 16.0429 149.581 15.9627 151.164 15.8699C151.241 15.3106 151.28 14.7468 151.282 14.1822V0.372803H146.944V12.8405Z" fill="#03C4A2"/>
<path d="M155.399 15.524C156.813 15.3932 158.252 15.2286 159.724 15.0345V0.372803H155.399V15.524Z" fill="#03C4A2"/>
<path d="M15.5795 18.1478C13.2041 18.4136 10.6219 18.633 7.76133 18.7976C6.04411 18.8946 4.22986 18.9706 2.27637 19.0212C4.1961 22.367 7.96385 23.9914 12.7231 23.9914C15.088 23.9268 17.4342 23.5523 19.7017 22.8776V17.6162C18.4064 17.8061 17.0309 17.9875 15.5795 18.1478Z" fill="#4C9996"/>
<path d="M28.1274 16.0679C26.7309 16.3717 25.3006 16.6628 23.8027 16.937V23.6202H36.5911V20.2449H28.1274V16.0679Z" fill="#4C9996"/>
<path d="M51.3072 11.0763C50.0415 11.2789 48.7757 11.4983 47.4846 11.7219L46.3876 11.9286C44.9278 12.2029 43.5439 12.4856 42.2148 12.7725L45.9404 23.6158H51.2566L55.6952 10.4224C54.2649 10.6207 52.7966 10.8358 51.3072 11.0763Z" fill="#4C9996"/>
<path d="M65.104 14.1695H72.7998V10.7689H65.104V9.04321C63.6905 9.14869 62.2518 9.27105 60.7793 9.41872V23.6206H73.5677V20.2452H65.104V14.1695Z" fill="#4C9996"/>
<path d="M89.7364 15.1861C89.3144 14.2283 88.6225 13.0554 87.4495 12.9626V12.9035C88.3032 12.8145 89.1193 12.5057 89.8181 12.0073C90.5168 11.5089 91.0745 10.8379 91.4367 10.0598C90.0303 9.891 88.5887 9.74052 87.112 9.60832C85.2556 9.44236 83.3499 9.31297 81.395 9.22015C79.9816 9.15686 78.5428 9.11045 77.0703 9.08936V23.6203H81.395V14.6629H82.7831C84.6058 14.6629 85.1627 15.2789 85.783 16.8864L88.3778 23.6372H93.1961L89.7364 15.1861Z" fill="#4C9996"/>
<path d="M106.33 12.4773C102.828 11.798 99.2503 11.1483 95.5205 10.604C97.3643 15.0637 104.545 14.2325 104.545 17.8146C104.545 19.7597 102.351 20.5951 100.714 20.5951C99.0041 20.5592 97.329 20.1028 95.837 19.266L95.415 23.1561C97.55 23.6835 98.6005 24 100.946 24C105.301 24 109.039 22.2068 109.039 17.4813C109.088 16.4793 108.862 15.4829 108.384 14.6006C107.907 13.7183 107.196 12.9839 106.33 12.4773Z" fill="#4C9996"/>
<path d="M125.38 16.0971C122.393 15.6245 119.473 15.0802 116.52 14.5064L112.195 13.6626V23.6199H118.102C123.558 23.6199 128.481 22.101 130.038 16.7637C128.469 16.5668 126.916 16.3446 125.38 16.0971Z" fill="#4C9996"/>
<path d="M146.513 17.7091C143.691 17.7555 140.982 17.7091 138.353 17.5403C136.789 17.4475 135.249 17.3266 133.733 17.1775C134.219 21.9789 137.387 23.9915 142.463 23.9915C147.412 23.9915 150.547 22.076 151.15 17.5361C149.589 17.6289 148.024 17.688 146.513 17.7091Z" fill="#4C9996"/>
<path d="M155.399 23.6203H159.715V16.7219C158.243 16.916 156.804 17.0806 155.391 17.2114L155.399 23.6203Z" fill="#4C9996"/>
<path d="M163.8 23.6206H167.939V15.3721C166.53 15.6463 165.15 15.891 163.8 16.1146V23.6206Z" fill="#4C9996"/>
<path d="M177.39 13.2283C176.616 13.4252 175.853 13.6179 175.099 13.8064C173.922 14.0933 172.774 14.3549 171.635 14.608L176.246 23.6202H181.529V12.1018C180.124 12.4984 178.744 12.8781 177.39 13.2283Z" fill="#4C9996"/>
<path d="M169.112 0.372803H163.8V14.4312C165.15 14.2076 166.53 13.9628 167.939 13.6886V5.80713H167.998L171.635 12.9207C172.774 12.6676 173.922 12.406 175.099 12.1191L169.112 0.372803Z" fill="#03C4A2"/>
<path d="M177.39 0.372803V11.541C178.744 11.1908 180.124 10.8111 181.529 10.4145V0.372803H177.39Z" fill="#03C4A2"/>
</svg>
