<svg width="353" height="64" viewBox="0 0 353 64" fill="none" xmlns="http://www.w3.org/2000/svg">
<g opacity="0.05">
<mask id="path-1-inside-1_495_8927" fill="white">
<path d="M0 63.5746C35.9233 69.1279 70.4442 18.2923 105.871 28.7032C114.622 31.2776 122.861 36.9558 131.628 39.4054C143.333 42.6993 155.382 40.1248 167.167 37.5503C197.264 30.9685 202.83 34.0661 230.278 14.6178C245.393 3.91557 264.77 13.8468 280.437 5.05316C296.105 -3.74052 338.313 -0.848936 352.61 12.1067C353.962 42.3703 351.258 33.0118 352.61 63.2714"/>
</mask>
<path d="M0 63.5746C35.9233 69.1279 70.4442 18.2923 105.871 28.7032C114.622 31.2776 122.861 36.9558 131.628 39.4054C143.333 42.6993 155.382 40.1248 167.167 37.5503C197.264 30.9685 202.83 34.0661 230.278 14.6178C245.393 3.91557 264.77 13.8468 280.437 5.05316C296.105 -3.74052 338.313 -0.848936 352.61 12.1067C353.962 42.3703 351.258 33.0118 352.61 63.2714" fill="url(#paint0_linear_495_8927)"/>
<path d="M105.871 28.7032L106.153 27.7438L106.153 27.7437L105.871 28.7032ZM131.628 39.4054L131.899 38.4428L131.897 38.4423L131.628 39.4054ZM167.167 37.5503L167.38 38.5273L167.38 38.5273L167.167 37.5503ZM230.278 14.6178L229.7 13.8017L229.7 13.8019L230.278 14.6178ZM352.61 12.1067L353.609 12.0621L353.59 11.6456L353.281 11.3657L352.61 12.1067ZM-0.152772 64.5628C9.08661 65.9911 18.1804 63.7839 27.1124 59.9226C36.0334 56.066 44.8922 50.5128 53.6427 45.1708C62.4268 39.8082 71.1054 34.6557 79.7784 31.4797C88.434 28.31 97.0044 27.1399 105.589 29.6626L106.153 27.7437C97.0237 25.061 87.9941 26.3412 79.0907 29.6016C70.2048 32.8556 61.3655 38.1129 52.6006 43.4637C43.8022 48.8351 35.081 54.2989 26.3188 58.0868C17.5676 61.8699 8.87507 63.9347 0.152772 62.5863L-0.152772 64.5628ZM105.588 29.6625C109.871 30.9224 114.043 32.9461 118.309 35.002C122.546 37.0434 126.876 39.116 131.359 40.3685L131.897 38.4423C127.613 37.2452 123.44 35.2539 119.177 33.2002C114.945 31.161 110.622 29.0584 106.153 27.7438L105.588 29.6625ZM131.357 40.368C143.342 43.7406 155.639 41.0922 167.38 38.5273L166.953 36.5734C155.125 39.1575 143.324 41.658 131.899 38.4428L131.357 40.368ZM167.38 38.5273C174.883 36.8865 180.854 35.8494 186.043 34.9093C191.225 33.9705 195.646 33.1252 199.993 31.8697C208.726 29.3476 217.083 25.1928 230.856 15.4337L229.7 13.8019C216.025 23.4911 207.875 27.5117 199.438 29.9483C195.201 31.1722 190.871 32.0021 185.687 32.9413C180.51 33.8793 174.499 34.9233 166.953 36.5734L167.38 38.5273ZM230.856 15.4339C238.12 10.2904 246.429 10.0738 255.145 10.1198C263.762 10.1652 272.817 10.4768 280.927 5.92519L279.948 4.18112C272.39 8.42322 263.923 8.16601 255.156 8.11978C246.487 8.07408 237.551 8.24292 229.7 13.8017L230.856 15.4339ZM280.927 5.92519C284.68 3.81853 290.108 2.37246 296.432 1.61649C302.739 0.8626 309.861 0.803728 316.951 1.42018C324.041 2.03668 331.074 3.32637 337.204 5.25618C343.35 7.19077 348.515 9.74563 351.938 12.8477L353.281 11.3657C349.556 7.98998 344.084 5.32502 337.805 3.34847C331.511 1.36713 324.331 0.0543423 317.124 -0.572301C309.916 -1.19899 302.655 -1.14167 296.195 -0.369374C289.751 0.400836 284.028 1.89094 279.948 4.18112L280.927 5.92519ZM351.611 12.1513C352.285 27.2454 351.948 32.4352 351.612 37.626C351.272 42.8868 350.933 48.1485 351.611 63.316L353.609 63.2268C352.935 48.1347 353.272 42.9459 353.608 37.7551C353.948 32.4943 354.286 27.2316 353.609 12.0621L351.611 12.1513Z" fill="white" mask="url(#path-1-inside-1_495_8927)"/>
</g>
<defs>
<linearGradient id="paint0_linear_495_8927" x1="1.18965e+06" y1="20.5449" x2="1.18965e+06" y2="16425.9" gradientUnits="userSpaceOnUse">
<stop stop-color="#337A8F"/>
<stop offset="1" stop-color="#63A7B6"/>
</linearGradient>
</defs>
</svg>
