<svg id="Сгруппировать_237" data-name="Сгруппировать 237" xmlns="http://www.w3.org/2000/svg" xmlns:xlink="http://www.w3.org/1999/xlink" width="73.108" height="55.806" viewBox="0 0 73.108 55.806">
  <defs>
    <clipPath id="clip-path">
      <rect id="Прямоугольник_68" data-name="Прямоугольник 68" width="73.108" height="55.806" fill="none"/>
    </clipPath>
    <clipPath id="clip-path-3">
      <rect id="Прямоугольник_66" data-name="Прямоугольник 66" width="71.79" height="54.296" fill="none"/>
    </clipPath>
  </defs>
  <g id="Сгруппировать_236" data-name="Сгруппировать 236" clip-path="url(#clip-path)">
    <g id="Сгруппировать_235" data-name="Сгруппировать 235">
      <g id="Сгруппировать_234" data-name="Сгруппировать 234" clip-path="url(#clip-path)">
        <path id="Контур_144" data-name="Контур 144" d="M437.808,427.874l1.629,2.578,2.321-2.274a.827.827,0,0,1,.829-.2l1.284.412-4.213-4.122L436,427.857l.821-.313a.824.824,0,0,1,.991.33" transform="translate(-410.424 -399.388)" fill="#2f3d4a"/>
        <path id="Контур_145" data-name="Контур 145" d="M134.868,702.7H130.3v7.828h56.857V702.7h-52.29Z" transform="translate(-122.658 -661.483)" fill="#2f3d4a"/>
        <path id="Контур_146" data-name="Контур 146" d="M587.857,422.413l-1.719,1.682,12.219,11.956H612.54L599.35,423.145l-4.619-.957-1.061.844a.826.826,0,0,1-1.1-.061l-1.791-1.78Z" transform="translate(-551.76 -396.487)" fill="#2f3d4a"/>
        <path id="Контур_147" data-name="Контур 147" d="M242.677,520.08h30l-8.155-7.98-3.948-1.266-2.695,2.641a.825.825,0,0,1-.577.236.85.85,0,0,1-.1-.006.824.824,0,0,1-.6-.379l-1.815-2.871-3.73,1.419Z" transform="translate(-228.443 -480.516)" fill="#2f3d4a"/>
        <path id="Контур_148" data-name="Контур 148" d="M671.046,355.891a.823.823,0,0,1,.681-.162l2.477.513-3.935-3.851-2.292,2.242a.822.822,0,0,1,.618.234l1.661,1.651Z" transform="translate(-628.799 -331.723)" fill="#2f3d4a"/>
        <path id="Контур_149" data-name="Контур 149" d="M74.79,29.316V23H67.419a4.128,4.128,0,0,1-8.089,0H55.179a4.128,4.128,0,0,1-8.089,0H42.939a4.128,4.128,0,0,1-8.089,0H30.7a4.128,4.128,0,0,1-8.089,0H18.458a4.128,4.128,0,0,1-8.089,0H3v6.318a4.128,4.128,0,0,1,0,8.089v3.1a4.128,4.128,0,0,1,0,8.089v3.1A4.128,4.128,0,0,1,3,59.78v3.1a4.128,4.128,0,0,1,0,8.089v6.315h7.371a4.128,4.128,0,0,1,8.089,0h4.151a4.128,4.128,0,0,1,8.089,0h4.151a4.128,4.128,0,0,1,8.089,0h4.151a4.128,4.128,0,0,1,8.089,0h4.151a4.128,4.128,0,0,1,8.089,0H74.79V70.964a4.128,4.128,0,0,1,0-8.089v-3.1a4.128,4.128,0,0,1,0-8.089v-3.1a4.128,4.128,0,0,1,0-8.089v-3.1a4.128,4.128,0,0,1,0-8.089m-5.816,42.2a.825.825,0,0,1-.825.825H9.641a.825.825,0,0,1-.825-.825V28.762a.825.825,0,0,1,.825-.825H68.149a.825.825,0,0,1,.825.825Z" transform="translate(-2.824 -21.652)" fill="#2f3d4a"/>
        <path id="Контур_150" data-name="Контур 150" d="M130.3,166.93h4.231l9.719-9.51,0,0,7.063-6.911a.825.825,0,0,1,1.154,0l3.386,3.313,1.844-1.8,0,0,5.848-5.722a.825.825,0,0,1,1.154,0L185.8,166.93h1.36V135.3H130.3Z" transform="translate(-122.658 -127.366)" fill="#2f3d4a"/>
        <path id="Контур_151" data-name="Контур 151" d="M436.614,427.8h-.02a.176.176,0,0,1-.128-.081l-1.629-2.578a.649.649,0,0,0-.779-.26l-.822.313a.176.176,0,0,1-.186-.29l3.663-3.585a.176.176,0,0,1,.246,0l4.213,4.122a.176.176,0,0,1-.177.293l-1.284-.412a.647.647,0,0,0-.652.155l-2.321,2.274a.176.176,0,0,1-.123.05m-1.48-2.848,1.513,2.394,2.165-2.122a1,1,0,0,1,1.006-.238l.575.184-3.557-3.481-2.937,2.874.032-.012a1,1,0,0,1,1.2.4" transform="translate(-407.6 -396.564)" fill="#2f3d4a"/>
        <path id="Контур_152" data-name="Контур 152" d="M184.333,707.878H127.476a.176.176,0,0,1-.176-.176v-7.828a.176.176,0,0,1,.176-.176h56.857a.176.176,0,0,1,.176.176V707.7a.176.176,0,0,1-.176.176m-56.681-.352h56.505V700.05H127.652Z" transform="translate(-119.834 -658.659)" fill="#2f3d4a"/>
        <path id="Контур_153" data-name="Контур 153" d="M609.715,433.4H595.532a.176.176,0,0,1-.123-.05L583.19,421.4a.176.176,0,0,1,0-.252l1.719-1.682a.176.176,0,0,1,.055-.037l2.927-1.222a.176.176,0,0,1,.192.038l1.791,1.78a.65.65,0,0,0,.862.048l1.061-.844a.176.176,0,0,1,.145-.035l4.619.957a.176.176,0,0,1,.087.047L609.838,433.1a.176.176,0,0,1-.123.3m-14.111-.352h13.68l-12.844-12.569-4.487-.93-1,.793a1,1,0,0,1-1.329-.074l-1.707-1.7-2.788,1.164-1.566,1.532Z" transform="translate(-548.935 -393.663)" fill="#2f3d4a"/>
        <path id="Контур_154" data-name="Контур 154" d="M269.857,517.432h-30a.176.176,0,0,1-.123-.3l8.386-8.206a.174.174,0,0,1,.061-.039l3.73-1.419a.176.176,0,0,1,.211.07l1.815,2.871a.649.649,0,0,0,1,.117l2.695-2.641a.176.176,0,0,1,.177-.042l3.948,1.266a.177.177,0,0,1,.069.042l8.155,7.98a.176.176,0,0,1-.123.3m-29.572-.352h29.141l-7.817-7.649L257.8,508.21l-2.619,2.566a1,1,0,0,1-1.547-.18l-1.738-2.75-3.562,1.355Z" transform="translate(-225.62 -477.692)" fill="#2f3d4a"/>
        <path id="Контур_155" data-name="Контур 155" d="M667.432,353.871a.176.176,0,0,1-.124-.051l-1.661-1.651a.64.64,0,0,0-.487-.183.176.176,0,0,1-.131-.3l2.292-2.242a.176.176,0,0,1,.246,0l3.935,3.851a.176.176,0,0,1-.159.3l-2.477-.513a.646.646,0,0,0-.536.127h0l-.789.627a.176.176,0,0,1-.109.038m-1.905-2.181a.979.979,0,0,1,.368.229l1.55,1.541.667-.53a1,1,0,0,1,.827-.2l1.889.391-3.383-3.31Zm2.694,1.377h0Z" transform="translate(-625.974 -328.899)" fill="#2f3d4a"/>
        <path id="Контур_156" data-name="Контур 156" d="M71.967,74.633H64.6a.176.176,0,0,1-.172-.141,3.952,3.952,0,0,0-7.744,0,.176.176,0,0,1-.172.141H52.358a.176.176,0,0,1-.172-.141,3.952,3.952,0,0,0-7.744,0,.176.176,0,0,1-.172.141H40.117a.176.176,0,0,1-.172-.141,3.952,3.952,0,0,0-7.744,0,.176.176,0,0,1-.172.141H27.877a.176.176,0,0,1-.172-.141,3.952,3.952,0,0,0-7.744,0,.176.176,0,0,1-.172.141H15.637a.176.176,0,0,1-.172-.141,3.952,3.952,0,0,0-7.744,0,.176.176,0,0,1-.172.141H.177A.176.176,0,0,1,0,74.457V68.141a.176.176,0,0,1,.141-.172A3.965,3.965,0,0,0,3.3,64.1a3.963,3.963,0,0,0-3.16-3.871A.176.176,0,0,1,0,60.053v-3.1a.176.176,0,0,1,.141-.172A3.965,3.965,0,0,0,3.3,52.91a3.963,3.963,0,0,0-3.16-3.871A.176.176,0,0,1,0,48.866v-3.1A.176.176,0,0,1,.142,45.6,3.965,3.965,0,0,0,3.3,41.724a3.964,3.964,0,0,0-3.16-3.871A.176.176,0,0,1,0,37.68v-3.1a.176.176,0,0,1,.141-.172A3.965,3.965,0,0,0,3.3,30.537a3.964,3.964,0,0,0-3.16-3.871A.176.176,0,0,1,0,26.493V20.176A.176.176,0,0,1,.177,20H7.546a.176.176,0,0,1,.172.141,3.952,3.952,0,0,0,7.744,0A.176.176,0,0,1,15.635,20h4.151a.176.176,0,0,1,.172.141,3.952,3.952,0,0,0,7.744,0A.176.176,0,0,1,27.875,20h4.151a.176.176,0,0,1,.172.141,3.952,3.952,0,0,0,7.744,0A.176.176,0,0,1,40.115,20h4.151a.176.176,0,0,1,.172.141,3.952,3.952,0,0,0,7.744,0A.176.176,0,0,1,52.356,20h4.151a.176.176,0,0,1,.172.141,3.952,3.952,0,0,0,7.744,0A.176.176,0,0,1,64.6,20h7.371a.176.176,0,0,1,.176.176v6.316a.176.176,0,0,1-.141.172,3.952,3.952,0,0,0,0,7.744.176.176,0,0,1,.141.172v3.1A.176.176,0,0,1,72,37.85a3.952,3.952,0,0,0,0,7.744.176.176,0,0,1,.141.172v3.1a.176.176,0,0,1-.141.172,3.952,3.952,0,0,0,0,7.744.176.176,0,0,1,.141.172v3.1a.176.176,0,0,1-.141.172,3.952,3.952,0,0,0,0,7.744.176.176,0,0,1,.141.172v6.318a.176.176,0,0,1-.176.176m-7.228-.352h7.052v-6a4.3,4.3,0,0,1,0-8.371V57.094a4.3,4.3,0,0,1,0-8.372V45.908a4.3,4.3,0,0,1,0-8.372V34.722a4.3,4.3,0,0,1,0-8.371v-6H64.737a4.3,4.3,0,0,1-8.371,0H52.5a4.3,4.3,0,0,1-8.371,0H40.257a4.3,4.3,0,0,1-8.371,0H28.017a4.3,4.3,0,0,1-8.371,0H15.776a4.3,4.3,0,0,1-8.371,0H.353v6a4.318,4.318,0,0,1,3.3,4.185,4.319,4.319,0,0,1-3.3,4.187v2.815a4.318,4.318,0,0,1,3.3,4.185,4.319,4.319,0,0,1-3.3,4.186v2.815a4.317,4.317,0,0,1,3.3,4.185A4.319,4.319,0,0,1,.353,57.1v2.815a4.317,4.317,0,0,1,3.3,4.185,4.319,4.319,0,0,1-3.3,4.186v6H7.407a4.3,4.3,0,0,1,8.371,0h3.869a4.3,4.3,0,0,1,8.372,0h3.869a4.3,4.3,0,0,1,8.372,0h3.869a4.3,4.3,0,0,1,8.372,0h3.869a4.3,4.3,0,0,1,8.371,0m7.228-47.789h0ZM65.326,69.7H6.818a1,1,0,0,1-1-1V25.937a1,1,0,0,1,1-1H65.326a1,1,0,0,1,1,1V68.7a1,1,0,0,1-1,1M6.818,25.288a.65.65,0,0,0-.649.649V68.7a.65.65,0,0,0,.649.649H65.326a.65.65,0,0,0,.649-.649V25.937a.65.65,0,0,0-.649-.649Z" transform="translate(-0.001 -18.827)" fill="#2f3d4a"/>
        <path id="Контур_157" data-name="Контур 157" d="M184.332,164.282h-1.36a.176.176,0,0,1-.123-.05l-21.093-20.64a.653.653,0,0,0-.908,0l-7.694,7.529a.176.176,0,0,1-.246,0l-3.386-3.313a.653.653,0,0,0-.908,0l-16.785,16.424a.176.176,0,0,1-.123.05h-4.231a.176.176,0,0,1-.176-.176V132.478a.176.176,0,0,1,.176-.176h56.857a.176.176,0,0,1,.176.176v31.628a.176.176,0,0,1-.176.176m-1.288-.352h1.112V132.654H127.651V163.93h3.983l16.733-16.374a1.007,1.007,0,0,1,1.4,0l3.263,3.193,7.572-7.409a1.007,1.007,0,0,1,1.4,0Z" transform="translate(-119.833 -124.542)" fill="#2f3d4a"/>
        <path id="Контур_158" data-name="Контур 158" d="M443.3,421.208l1.629,2.578,2.321-2.274a.827.827,0,0,1,.829-.2l1.284.412-4.213-4.122-3.663,3.585.821-.313a.824.824,0,0,1,.991.33" transform="translate(-415.593 -393.113)" fill="#2b3947"/>
        <path id="Контур_159" data-name="Контур 159" d="M140.359,696.031h-4.568v7.828h56.857v-7.828h-52.29Z" transform="translate(-127.826 -655.207)" fill="#2b3947"/>
        <path id="Контур_160" data-name="Контур 160" d="M593.347,415.746l-1.719,1.682,12.219,11.956H618.03L604.84,416.478l-4.619-.957-1.061.844a.826.826,0,0,1-1.1-.061l-1.791-1.78Z" transform="translate(-556.928 -390.211)" fill="#2b3947"/>
        <path id="Контур_161" data-name="Контур 161" d="M248.167,513.413h30l-8.155-7.98-3.948-1.266-2.695,2.641a.825.825,0,0,1-.577.236.843.843,0,0,1-.1-.006.824.824,0,0,1-.6-.379l-1.815-2.871-3.73,1.419Z" transform="translate(-233.611 -474.24)" fill="#2b3947"/>
        <path id="Контур_162" data-name="Контур 162" d="M676.536,349.225a.823.823,0,0,1,.681-.162l2.477.513-3.935-3.851-2.292,2.242a.822.822,0,0,1,.618.234l1.661,1.651Z" transform="translate(-633.967 -325.448)" fill="#2b3947"/>
        <path id="Контур_163" data-name="Контур 163" d="M80.28,22.649V16.334H72.909a4.128,4.128,0,0,1-8.089,0H60.669a4.128,4.128,0,0,1-8.089,0H48.429a4.128,4.128,0,0,1-8.089,0H36.189a4.128,4.128,0,0,1-8.089,0H23.948a4.128,4.128,0,0,1-8.089,0H8.49v6.318a4.128,4.128,0,0,1,0,8.089v3.1a4.128,4.128,0,0,1,0,8.089v3.1a4.128,4.128,0,0,1,0,8.089v3.1a4.128,4.128,0,0,1,0,8.089v6.315h7.371a4.128,4.128,0,0,1,8.089,0H28.1a4.128,4.128,0,0,1,8.089,0h4.151a4.128,4.128,0,0,1,8.089,0h4.151a4.128,4.128,0,0,1,8.089,0h4.151a4.128,4.128,0,0,1,8.089,0H80.28V64.3a4.128,4.128,0,0,1,0-8.089v-3.1a4.128,4.128,0,0,1,0-8.089v-3.1a4.128,4.128,0,0,1,0-8.089v-3.1a4.128,4.128,0,0,1,0-8.089m-5.816,42.2a.825.825,0,0,1-.825.825H15.131a.825.825,0,0,1-.825-.825V22.1a.825.825,0,0,1,.825-.825H73.639a.825.825,0,0,1,.825.825Z" transform="translate(-7.992 -15.376)" fill="#2b3947"/>
        <path id="Контур_164" data-name="Контур 164" d="M135.79,160.263h4.231l9.719-9.51,0,0,7.063-6.911a.825.825,0,0,1,1.154,0l3.386,3.313,1.844-1.8,0,0,5.848-5.722a.825.825,0,0,1,1.154,0l21.093,20.64h1.36V128.635H135.79Z" transform="translate(-127.826 -121.09)" fill="#2b3947"/>
        <path id="Контур_165" data-name="Контур 165" d="M442.1,421.139h-.02a.176.176,0,0,1-.128-.081l-1.629-2.578a.649.649,0,0,0-.779-.26l-.822.313a.176.176,0,0,1-.186-.29l3.663-3.585a.176.176,0,0,1,.246,0l4.213,4.122a.176.176,0,0,1-.177.293l-1.284-.412a.648.648,0,0,0-.652.154l-2.321,2.274a.176.176,0,0,1-.123.05m-2.328-3.315a1,1,0,0,1,.848.467l1.513,2.394,2.165-2.121a1,1,0,0,1,1.006-.238l.575.184-3.558-3.481-2.937,2.874.032-.012a.987.987,0,0,1,.354-.066" transform="translate(-412.768 -390.288)" fill="#2b3947"/>
        <path id="Контур_166" data-name="Контур 166" d="M189.823,701.212H132.966a.176.176,0,0,1-.176-.176v-7.828a.176.176,0,0,1,.176-.176h56.857a.176.176,0,0,1,.176.176v7.828a.176.176,0,0,1-.176.176m-56.681-.352h56.505v-7.476H133.142Z" transform="translate(-125.002 -652.384)" fill="#2b3947"/>
        <path id="Контур_167" data-name="Контур 167" d="M615.206,426.737H601.023a.176.176,0,0,1-.123-.05L588.681,414.73a.176.176,0,0,1,0-.252L590.4,412.8a.176.176,0,0,1,.055-.037l2.927-1.222a.176.176,0,0,1,.192.038l1.791,1.78a.65.65,0,0,0,.862.048l1.061-.844a.176.176,0,0,1,.145-.035l4.619.957a.176.176,0,0,1,.087.047l13.189,12.906a.176.176,0,0,1-.123.3m-14.111-.352h13.68L601.93,413.817l-4.487-.93-1,.793a1,1,0,0,1-1.329-.074l-1.707-1.7-2.788,1.164-1.566,1.532Z" transform="translate(-554.104 -387.388)" fill="#2b3947"/>
        <path id="Контур_168" data-name="Контур 168" d="M275.347,510.766h-30a.176.176,0,0,1-.123-.3l8.386-8.206a.175.175,0,0,1,.061-.039l3.73-1.419a.176.176,0,0,1,.211.07l1.815,2.871a.645.645,0,0,0,.474.3.66.66,0,0,0,.53-.181l2.695-2.641a.176.176,0,0,1,.177-.042l3.948,1.266a.176.176,0,0,1,.069.042l8.155,7.98a.176.176,0,0,1-.123.3m-29.572-.352h29.141l-7.817-7.649-3.807-1.221-2.619,2.566a1,1,0,0,1-1.547-.18l-1.738-2.75-3.562,1.355Z" transform="translate(-230.788 -471.417)" fill="#2b3947"/>
        <path id="Контур_169" data-name="Контур 169" d="M672.922,347.2a.176.176,0,0,1-.124-.051l-1.661-1.651a.64.64,0,0,0-.487-.183.176.176,0,0,1-.131-.3l2.292-2.242a.176.176,0,0,1,.246,0l3.935,3.851a.176.176,0,0,1-.159.3l-2.477-.513a.646.646,0,0,0-.536.128h0l-.789.627a.175.175,0,0,1-.109.038m-1.905-2.181a.978.978,0,0,1,.368.229l1.55,1.541.666-.53a1,1,0,0,1,.827-.2l1.889.391-3.383-3.31Zm2.694,1.377h0Z" transform="translate(-631.142 -322.624)" fill="#2b3947"/>
        <path id="Контур_170" data-name="Контур 170" d="M77.456,67.966H70.087a.176.176,0,0,1-.172-.141,3.952,3.952,0,0,0-7.744,0,.176.176,0,0,1-.172.141H57.847a.176.176,0,0,1-.172-.141,3.952,3.952,0,0,0-7.744,0,.176.176,0,0,1-.172.141H45.607a.176.176,0,0,1-.172-.141,3.952,3.952,0,0,0-7.744,0,.176.176,0,0,1-.172.141H33.366a.176.176,0,0,1-.172-.141,3.952,3.952,0,0,0-7.744,0,.176.176,0,0,1-.172.141H21.126a.176.176,0,0,1-.172-.141,3.952,3.952,0,0,0-7.744,0,.176.176,0,0,1-.172.141H5.666a.176.176,0,0,1-.176-.176V61.474a.176.176,0,0,1,.141-.172,3.952,3.952,0,0,0,0-7.744.176.176,0,0,1-.141-.172v-3.1a.176.176,0,0,1,.141-.172,3.952,3.952,0,0,0,0-7.744A.176.176,0,0,1,5.49,42.2V39.1a.176.176,0,0,1,.141-.172,3.952,3.952,0,0,0,0-7.744.176.176,0,0,1-.141-.172v-3.1a.176.176,0,0,1,.141-.172,3.952,3.952,0,0,0,0-7.744.176.176,0,0,1-.141-.172V13.509a.176.176,0,0,1,.176-.176h7.369a.176.176,0,0,1,.172.141,3.952,3.952,0,0,0,7.744,0,.176.176,0,0,1,.172-.141h4.151a.176.176,0,0,1,.172.141,3.952,3.952,0,0,0,7.744,0,.176.176,0,0,1,.172-.141h4.151a.176.176,0,0,1,.172.141,3.952,3.952,0,0,0,7.744,0,.176.176,0,0,1,.172-.141h4.151a.176.176,0,0,1,.172.141,3.952,3.952,0,0,0,7.744,0,.176.176,0,0,1,.172-.141H62a.176.176,0,0,1,.172.141,3.952,3.952,0,0,0,7.744,0,.176.176,0,0,1,.172-.141h7.371a.176.176,0,0,1,.176.176v6.316a.176.176,0,0,1-.141.172,3.952,3.952,0,0,0,0,7.744.176.176,0,0,1,.141.172v3.1a.176.176,0,0,1-.141.172,3.952,3.952,0,0,0,0,7.744.176.176,0,0,1,.141.172v3.1a.176.176,0,0,1-.141.172,3.952,3.952,0,0,0,0,7.744.176.176,0,0,1,.141.172v3.1a.176.176,0,0,1-.141.172,3.952,3.952,0,0,0,0,7.744.176.176,0,0,1,.141.172V67.79a.176.176,0,0,1-.176.176m-7.228-.352H77.28v-6a4.3,4.3,0,0,1,0-8.372V50.427a4.3,4.3,0,0,1,0-8.372V39.241a4.3,4.3,0,0,1,0-8.372V28.055a4.3,4.3,0,0,1,0-8.371v-6H70.226a4.3,4.3,0,0,1-8.371,0H57.986a4.3,4.3,0,0,1-8.372,0H45.746a4.3,4.3,0,0,1-8.371,0H33.506a4.3,4.3,0,0,1-8.371,0H21.266a4.3,4.3,0,0,1-8.371,0H5.842v6a4.3,4.3,0,0,1,0,8.371v2.815a4.3,4.3,0,0,1,0,8.371v2.815a4.3,4.3,0,0,1,0,8.371v2.815a4.3,4.3,0,0,1,0,8.371v6H12.9a4.3,4.3,0,0,1,8.371,0h3.869a4.3,4.3,0,0,1,8.372,0h3.869a4.3,4.3,0,0,1,8.371,0h3.869a4.3,4.3,0,0,1,8.371,0h3.869a4.3,4.3,0,0,1,8.371,0m7.228-47.789h0Zm-6.641,43.2H12.307a1,1,0,0,1-1-1V19.27a1,1,0,0,1,1-1H70.815a1,1,0,0,1,1,1V62.028a1,1,0,0,1-1,1M12.307,18.621a.65.65,0,0,0-.649.649V62.028a.65.65,0,0,0,.649.649H70.815a.65.65,0,0,0,.649-.649V19.27a.65.65,0,0,0-.649-.649Z" transform="translate(-5.168 -12.551)" fill="#2b3947"/>
        <path id="Контур_171" data-name="Контур 171" d="M189.823,157.615h-1.36a.176.176,0,0,1-.123-.05l-21.093-20.64a.653.653,0,0,0-.908,0l-7.694,7.529a.176.176,0,0,1-.246,0l-3.386-3.313a.653.653,0,0,0-.908,0L137.32,157.565a.176.176,0,0,1-.123.05h-4.231a.176.176,0,0,1-.176-.176V125.811a.176.176,0,0,1,.176-.176h56.857a.176.176,0,0,1,.176.176v31.628a.176.176,0,0,1-.176.176m-1.288-.352h1.112V125.987H133.142v31.276h3.983l9.665-9.458,0,0,7.064-6.913a1.007,1.007,0,0,1,1.4,0l3.263,3.193,7.572-7.409a1.007,1.007,0,0,1,1.4,0Z" transform="translate(-125.002 -118.266)" fill="#2b3947"/>
        <path id="Контур_172" data-name="Контур 172" d="M448.789,414.542l1.629,2.578,2.321-2.274a.827.827,0,0,1,.829-.2l1.284.412-4.213-4.122-3.663,3.585.821-.313a.824.824,0,0,1,.991.33" transform="translate(-420.761 -386.837)" fill="#263543"/>
        <path id="Контур_173" data-name="Контур 173" d="M145.849,689.364h-4.568v7.828h56.857v-7.828h-52.29Z" transform="translate(-132.995 -648.931)" fill="#263543"/>
        <path id="Контур_174" data-name="Контур 174" d="M598.837,409.08l-1.719,1.682,12.219,11.956H623.52L610.33,409.812l-4.619-.957-1.061.844a.826.826,0,0,1-1.1-.061l-1.791-1.78Z" transform="translate(-562.096 -383.936)" fill="#263543"/>
        <path id="Контур_175" data-name="Контур 175" d="M253.658,506.747h30l-8.155-7.98-3.948-1.266-2.695,2.641a.825.825,0,0,1-.577.236.842.842,0,0,1-.1-.006.823.823,0,0,1-.6-.379l-1.815-2.871-3.73,1.419Z" transform="translate(-238.78 -467.965)" fill="#263543"/>
        <path id="Контур_176" data-name="Контур 176" d="M682.025,342.558a.823.823,0,0,1,.681-.162l2.477.513-3.935-3.851-2.292,2.242a.823.823,0,0,1,.618.234l1.661,1.651Z" transform="translate(-639.135 -319.172)" fill="#263543"/>
        <path id="Контур_177" data-name="Контур 177" d="M85.771,15.982V9.667H78.4a4.128,4.128,0,0,1-8.089,0H66.16a4.128,4.128,0,0,1-8.089,0H53.92a4.128,4.128,0,0,1-8.089,0H41.679a4.128,4.128,0,0,1-8.089,0H29.439a4.128,4.128,0,0,1-8.089,0H13.981v6.318a4.128,4.128,0,0,1,0,8.089v3.1a4.128,4.128,0,0,1,0,8.089v3.1a4.128,4.128,0,0,1,0,8.089v3.1a4.128,4.128,0,0,1,0,8.089v6.315h7.371a4.128,4.128,0,0,1,8.089,0h4.151a4.128,4.128,0,0,1,8.089,0h4.151a4.128,4.128,0,0,1,8.089,0h4.151a4.128,4.128,0,0,1,8.089,0h4.151a4.128,4.128,0,0,1,8.089,0h7.369V57.63a4.128,4.128,0,0,1,0-8.089v-3.1a4.128,4.128,0,0,1,0-8.089v-3.1a4.128,4.128,0,0,1,0-8.089v-3.1a4.128,4.128,0,0,1,0-8.089m-5.816,42.2a.825.825,0,0,1-.825.825H20.622a.825.825,0,0,1-.825-.825V15.428a.825.825,0,0,1,.825-.825H79.13a.825.825,0,0,1,.825.825Z" transform="translate(-13.161 -9.1)" fill="#263543"/>
        <path id="Контур_178" data-name="Контур 178" d="M141.281,153.6h4.231l9.719-9.51,0,0,7.063-6.911a.825.825,0,0,1,1.154,0l3.386,3.313,1.844-1.8,0,0,5.848-5.722a.825.825,0,0,1,1.154,0l21.093,20.64h1.36V121.969H141.281Z" transform="translate(-132.995 -114.815)" fill="#263543"/>
        <path id="Контур_179" data-name="Контур 179" d="M447.594,414.472h-.02a.176.176,0,0,1-.128-.081l-1.629-2.578a.649.649,0,0,0-.779-.26l-.822.313a.176.176,0,0,1-.186-.29l3.663-3.585a.176.176,0,0,1,.246,0l4.213,4.122a.176.176,0,0,1-.177.293l-1.284-.412a.648.648,0,0,0-.652.154l-2.321,2.274a.176.176,0,0,1-.123.05m-2.328-3.315a1,1,0,0,1,.848.467l1.513,2.394,2.165-2.122a1,1,0,0,1,1.006-.238l.575.184-3.558-3.481-2.937,2.874.032-.012a.988.988,0,0,1,.355-.066" transform="translate(-417.936 -384.013)" fill="#263543"/>
        <path id="Контур_180" data-name="Контур 180" d="M195.313,694.544H138.456a.176.176,0,0,1-.176-.176V686.54a.176.176,0,0,1,.176-.176h56.857a.176.176,0,0,1,.176.176v7.828a.176.176,0,0,1-.176.176m-56.681-.352h56.505v-7.476H138.632Z" transform="translate(-130.17 -646.107)" fill="#263543"/>
        <path id="Контур_181" data-name="Контур 181" d="M620.7,420.069H606.513a.176.176,0,0,1-.123-.05l-12.219-11.956a.176.176,0,0,1,0-.252l1.719-1.682a.176.176,0,0,1,.055-.037l2.927-1.222a.176.176,0,0,1,.192.038l1.791,1.78a.65.65,0,0,0,.862.048l1.061-.844a.176.176,0,0,1,.145-.035l4.619.957a.176.176,0,0,1,.087.047l13.189,12.906a.176.176,0,0,1-.123.3m-14.111-.352h13.68L607.42,407.149l-4.488-.93-1,.793a1,1,0,0,1-1.329-.074l-1.707-1.7-2.788,1.164-1.566,1.532Z" transform="translate(-559.272 -381.111)" fill="#263543"/>
        <path id="Контур_182" data-name="Контур 182" d="M280.838,504.1h-30a.176.176,0,0,1-.123-.3l8.386-8.206a.176.176,0,0,1,.061-.039l3.73-1.419a.176.176,0,0,1,.211.07l1.815,2.871a.649.649,0,0,0,1,.117l2.695-2.641a.176.176,0,0,1,.177-.042l3.948,1.266a.177.177,0,0,1,.069.042l8.155,7.98a.176.176,0,0,1-.123.3m-29.572-.352h29.141L272.59,496.1l-3.808-1.221-2.619,2.566a1,1,0,0,1-1.547-.18l-1.738-2.75-3.562,1.355Z" transform="translate(-235.957 -465.141)" fill="#263543"/>
        <path id="Контур_183" data-name="Контур 183" d="M678.412,340.537a.176.176,0,0,1-.124-.051l-1.661-1.651a.642.642,0,0,0-.487-.183.176.176,0,0,1-.131-.3l2.292-2.242a.176.176,0,0,1,.246,0l3.935,3.851a.176.176,0,0,1-.159.3l-2.477-.513a.645.645,0,0,0-.536.128h0l-.789.627a.175.175,0,0,1-.109.038m-1.905-2.181a.979.979,0,0,1,.368.229l1.55,1.541.666-.53a1,1,0,0,1,.827-.2l1.889.391-3.383-3.31Zm2.694,1.377h0Z" transform="translate(-636.31 -316.348)" fill="#263543"/>
        <path id="Контур_184" data-name="Контур 184" d="M82.946,61.3H75.577a.176.176,0,0,1-.172-.141,3.952,3.952,0,0,0-7.744,0,.176.176,0,0,1-.172.141H63.337a.176.176,0,0,1-.172-.141,3.952,3.952,0,0,0-7.744,0,.176.176,0,0,1-.172.141H51.1a.176.176,0,0,1-.172-.141,3.952,3.952,0,0,0-7.744,0,.176.176,0,0,1-.172.141H38.856a.176.176,0,0,1-.172-.141,3.952,3.952,0,0,0-7.744,0,.176.176,0,0,1-.172.141H26.616a.176.176,0,0,1-.172-.141,3.952,3.952,0,0,0-7.744,0,.176.176,0,0,1-.172.141H11.156a.176.176,0,0,1-.176-.176V54.808a.176.176,0,0,1,.141-.172,3.952,3.952,0,0,0,0-7.744.176.176,0,0,1-.141-.172v-3.1a.176.176,0,0,1,.141-.172,3.952,3.952,0,0,0,0-7.744.176.176,0,0,1-.141-.172v-3.1a.176.176,0,0,1,.141-.172,3.952,3.952,0,0,0,0-7.744.176.176,0,0,1-.141-.172v-3.1a.176.176,0,0,1,.141-.172,3.952,3.952,0,0,0,0-7.744.176.176,0,0,1-.141-.172V6.843a.176.176,0,0,1,.176-.176h7.369a.176.176,0,0,1,.172.141,3.952,3.952,0,0,0,7.744,0,.176.176,0,0,1,.172-.141h4.151a.176.176,0,0,1,.172.141,3.952,3.952,0,0,0,7.744,0,.176.176,0,0,1,.172-.141h4.151a.176.176,0,0,1,.172.141,3.952,3.952,0,0,0,7.744,0,.176.176,0,0,1,.172-.141h4.151a.176.176,0,0,1,.172.141,3.952,3.952,0,0,0,7.744,0,.176.176,0,0,1,.172-.141h4.151a.176.176,0,0,1,.172.141,3.952,3.952,0,0,0,7.744,0,.176.176,0,0,1,.172-.141h7.371a.176.176,0,0,1,.176.176v6.316a.176.176,0,0,1-.141.172,3.952,3.952,0,0,0,0,7.744.176.176,0,0,1,.141.172v3.1a.176.176,0,0,1-.141.172,3.952,3.952,0,0,0,0,7.744.176.176,0,0,1,.141.172v3.1a.176.176,0,0,1-.141.172,3.952,3.952,0,0,0,0,7.744.176.176,0,0,1,.141.172v3.1a.176.176,0,0,1-.141.172,3.952,3.952,0,0,0,0,7.744.176.176,0,0,1,.141.172v6.317a.176.176,0,0,1-.176.176m-7.228-.352H82.77v-6a4.3,4.3,0,0,1,0-8.372V43.761a4.3,4.3,0,0,1,0-8.371V32.575a4.3,4.3,0,0,1,0-8.372V21.389a4.3,4.3,0,0,1,0-8.372v-6H75.716a4.3,4.3,0,0,1-8.371,0H63.476a4.3,4.3,0,0,1-8.371,0H51.236a4.3,4.3,0,0,1-8.371,0H39a4.3,4.3,0,0,1-8.371,0H26.756a4.3,4.3,0,0,1-8.371,0H11.332v6a4.3,4.3,0,0,1,0,8.371v2.815a4.3,4.3,0,0,1,0,8.371v2.815a4.3,4.3,0,0,1,0,8.371v2.815a4.3,4.3,0,0,1,0,8.371v6h7.054a4.3,4.3,0,0,1,8.371,0h3.869a4.3,4.3,0,0,1,8.371,0h3.869a4.3,4.3,0,0,1,8.371,0h3.869a4.3,4.3,0,0,1,8.371,0h3.869a4.3,4.3,0,0,1,8.371,0m7.228-47.789h0Zm-6.641,43.2H17.8a1,1,0,0,1-1-1V12.6a1,1,0,0,1,1-1H76.305a1,1,0,0,1,1,1V55.362a1,1,0,0,1-1,1M17.8,11.955a.65.65,0,0,0-.649.649V55.362a.65.65,0,0,0,.649.649H76.305a.65.65,0,0,0,.649-.649V12.6a.65.65,0,0,0-.649-.649Z" transform="translate(-10.336 -6.276)" fill="#263543"/>
        <path id="Контур_185" data-name="Контур 185" d="M195.313,150.949h-1.36a.176.176,0,0,1-.123-.05l-21.093-20.64a.653.653,0,0,0-.908,0l-7.694,7.529a.176.176,0,0,1-.246,0l-3.386-3.313a.653.653,0,0,0-.908,0L142.81,150.9a.176.176,0,0,1-.123.05h-4.231a.176.176,0,0,1-.176-.176V119.145a.176.176,0,0,1,.176-.176h56.857a.176.176,0,0,1,.176.176v31.628a.176.176,0,0,1-.176.176m-1.288-.352h1.112V119.321H138.632V150.6h3.983l16.733-16.374a1.007,1.007,0,0,1,1.4,0l3.263,3.193,7.572-7.409a1.007,1.007,0,0,1,1.4,0Z" transform="translate(-130.17 -111.991)" fill="#263543"/>
        <path id="Контур_186" data-name="Контур 186" d="M454.279,407.874l1.629,2.578,2.321-2.274a.827.827,0,0,1,.829-.2l1.284.412-4.213-4.122-3.663,3.585.821-.313a.824.824,0,0,1,.991.33" transform="translate(-425.929 -380.561)" fill="#22313f"/>
        <path id="Контур_187" data-name="Контур 187" d="M151.339,682.7h-4.568v7.828h56.857V682.7h-52.29Z" transform="translate(-138.163 -642.656)" fill="#22313f"/>
        <path id="Контур_188" data-name="Контур 188" d="M604.327,402.413l-1.719,1.682,12.219,11.956H629.01L615.82,403.145l-4.619-.957-1.061.844a.826.826,0,0,1-1.1-.061l-1.791-1.78Z" transform="translate(-567.264 -377.66)" fill="#22313f"/>
        <path id="Контур_189" data-name="Контур 189" d="M259.148,500.08h30L281,492.1l-3.948-1.266-2.695,2.641a.825.825,0,0,1-.577.236.842.842,0,0,1-.1-.006.824.824,0,0,1-.6-.379l-1.815-2.871-3.73,1.419Z" transform="translate(-243.948 -461.689)" fill="#22313f"/>
        <path id="Контур_190" data-name="Контур 190" d="M687.516,335.891a.823.823,0,0,1,.681-.162l2.477.513-3.935-3.851-2.292,2.242a.823.823,0,0,1,.618.234l1.661,1.651Z" transform="translate(-644.303 -312.896)" fill="#22313f"/>
        <path id="Контур_191" data-name="Контур 191" d="M91.261,9.316V3H83.89A4.128,4.128,0,0,1,75.8,3H71.65a4.128,4.128,0,0,1-8.089,0H59.41a4.128,4.128,0,0,1-8.089,0H47.169A4.128,4.128,0,0,1,39.08,3H34.929A4.128,4.128,0,0,1,26.84,3H19.471V9.319a4.128,4.128,0,0,1,0,8.089v3.1a4.128,4.128,0,0,1,0,8.089v3.1a4.128,4.128,0,0,1,0,8.089v3.1a4.128,4.128,0,0,1,0,8.089v6.315h7.371a4.128,4.128,0,0,1,8.089,0h4.151a4.128,4.128,0,0,1,8.089,0h4.151a4.128,4.128,0,0,1,8.089,0h4.151a4.128,4.128,0,0,1,8.089,0H75.8a4.128,4.128,0,0,1,8.089,0h7.369V50.964a4.128,4.128,0,0,1,0-8.089v-3.1a4.128,4.128,0,0,1,0-8.089v-3.1a4.128,4.128,0,0,1,0-8.089v-3.1a4.128,4.128,0,0,1,0-8.089m-5.816,42.2a.825.825,0,0,1-.825.825H26.112a.825.825,0,0,1-.825-.825V8.762a.825.825,0,0,1,.825-.825H84.62a.825.825,0,0,1,.825.825Z" transform="translate(-18.329 -2.825)" fill="#22313f"/>
        <path id="Контур_192" data-name="Контур 192" d="M146.771,146.93H151l9.719-9.51,0,0,7.063-6.911a.825.825,0,0,1,1.154,0l3.386,3.313,1.844-1.8,0,0,5.848-5.722a.825.825,0,0,1,1.154,0l21.093,20.64h1.36V115.3H146.771Z" transform="translate(-138.163 -108.539)" fill="#22313f"/>
        <path id="Контур_193" data-name="Контур 193" d="M453.084,407.8h-.02a.176.176,0,0,1-.128-.081l-1.629-2.578a.649.649,0,0,0-.779-.26l-.822.313a.176.176,0,0,1-.186-.29l3.663-3.585a.176.176,0,0,1,.246,0l4.213,4.122a.176.176,0,0,1-.177.293l-1.284-.412a.649.649,0,0,0-.653.154l-2.321,2.274a.176.176,0,0,1-.123.05m-1.481-2.848,1.513,2.394,2.165-2.122a1,1,0,0,1,1.006-.238l.575.184-3.558-3.481-2.937,2.874.032-.012a1,1,0,0,1,1.2.4" transform="translate(-423.104 -377.737)" fill="#22313f"/>
        <path id="Контур_194" data-name="Контур 194" d="M200.8,687.877H143.946a.176.176,0,0,1-.176-.176v-7.828a.176.176,0,0,1,.176-.176H200.8a.176.176,0,0,1,.176.176V687.7a.176.176,0,0,1-.176.176m-56.681-.352h56.505v-7.476H144.122Z" transform="translate(-135.338 -639.831)" fill="#22313f"/>
        <path id="Контур_195" data-name="Контур 195" d="M626.186,413.4H612a.176.176,0,0,1-.123-.05L599.661,401.4a.176.176,0,0,1,0-.252l1.719-1.682a.175.175,0,0,1,.055-.037l2.927-1.222a.176.176,0,0,1,.192.038l1.791,1.78a.65.65,0,0,0,.862.048l1.061-.844a.177.177,0,0,1,.145-.035l4.619.957a.175.175,0,0,1,.087.047L626.309,413.1a.176.176,0,0,1-.123.3m-14.111-.352h13.68L612.91,400.484l-4.488-.93-1,.793a1,1,0,0,1-1.329-.074l-1.707-1.7L601.6,399.74l-1.566,1.532Z" transform="translate(-564.44 -374.837)" fill="#22313f"/>
        <path id="Контур_196" data-name="Контур 196" d="M286.327,497.433h-30a.176.176,0,0,1-.123-.3l8.386-8.206a.175.175,0,0,1,.061-.039l3.73-1.419a.176.176,0,0,1,.211.07l1.815,2.871a.649.649,0,0,0,1,.117l2.695-2.641a.177.177,0,0,1,.177-.042l3.948,1.266a.175.175,0,0,1,.069.042l8.155,7.98a.176.176,0,0,1-.123.3m-29.572-.352H285.9l-7.817-7.649-3.807-1.221-2.619,2.566a1,1,0,0,1-1.547-.181l-1.738-2.749-3.562,1.355Z" transform="translate(-241.124 -458.866)" fill="#22313f"/>
        <path id="Контур_197" data-name="Контур 197" d="M683.9,333.871a.176.176,0,0,1-.124-.051l-1.661-1.651a.643.643,0,0,0-.487-.183.176.176,0,0,1-.131-.3l2.292-2.242a.176.176,0,0,1,.246,0l3.935,3.851a.176.176,0,0,1-.159.3l-2.477-.513a.647.647,0,0,0-.536.128h0l-.789.627a.175.175,0,0,1-.109.038M682,331.69a.979.979,0,0,1,.368.229l1.55,1.541.666-.53a1,1,0,0,1,.827-.2l1.889.391-3.383-3.31Zm2.694,1.377h0Z" transform="translate(-641.479 -310.072)" fill="#22313f"/>
        <path id="Контур_198" data-name="Контур 198" d="M88.436,54.633H81.067a.176.176,0,0,1-.172-.141,3.952,3.952,0,0,0-7.744,0,.176.176,0,0,1-.172.141H68.827a.176.176,0,0,1-.172-.141,3.952,3.952,0,0,0-7.744,0,.176.176,0,0,1-.172.141H56.587a.176.176,0,0,1-.172-.141,3.952,3.952,0,0,0-7.744,0,.176.176,0,0,1-.172.141H44.346a.176.176,0,0,1-.172-.141,3.952,3.952,0,0,0-7.744,0,.176.176,0,0,1-.172.141H32.106a.176.176,0,0,1-.172-.141,3.952,3.952,0,0,0-7.744,0,.176.176,0,0,1-.172.141H16.646a.176.176,0,0,1-.176-.176V48.141a.176.176,0,0,1,.141-.172,3.952,3.952,0,0,0,0-7.744.176.176,0,0,1-.141-.172v-3.1a.176.176,0,0,1,.141-.172,3.952,3.952,0,0,0,0-7.744.176.176,0,0,1-.141-.172v-3.1a.176.176,0,0,1,.141-.172,3.952,3.952,0,0,0,0-7.744.176.176,0,0,1-.141-.172v-3.1a.176.176,0,0,1,.141-.172,3.952,3.952,0,0,0,0-7.744.176.176,0,0,1-.141-.172V.176A.176.176,0,0,1,16.646,0h7.369a.176.176,0,0,1,.172.141A3.965,3.965,0,0,0,28.061,3.3,3.963,3.963,0,0,0,31.932.141.176.176,0,0,1,32.1,0h4.151a.176.176,0,0,1,.172.141A3.965,3.965,0,0,0,40.3,3.3,3.963,3.963,0,0,0,44.172.141.176.176,0,0,1,44.344,0H48.5a.176.176,0,0,1,.172.141A3.965,3.965,0,0,0,52.541,3.3,3.963,3.963,0,0,0,56.412.141.176.176,0,0,1,56.585,0h4.151a.176.176,0,0,1,.172.141A3.965,3.965,0,0,0,64.781,3.3,3.963,3.963,0,0,0,68.652.141.176.176,0,0,1,68.825,0h4.151a.176.176,0,0,1,.172.141A3.965,3.965,0,0,0,77.021,3.3,3.963,3.963,0,0,0,80.892.141.176.176,0,0,1,81.065,0h7.371a.176.176,0,0,1,.176.176V6.491a.176.176,0,0,1-.141.172,3.952,3.952,0,0,0,0,7.744.176.176,0,0,1,.141.172v3.1a.176.176,0,0,1-.141.172,3.952,3.952,0,0,0,0,7.744.176.176,0,0,1,.141.172v3.1a.176.176,0,0,1-.141.172,3.952,3.952,0,0,0,0,7.744.176.176,0,0,1,.141.172v3.1a.176.176,0,0,1-.141.172,3.952,3.952,0,0,0,0,7.744.176.176,0,0,1,.141.172v6.318a.176.176,0,0,1-.176.176m-7.228-.352H88.26v-6a4.3,4.3,0,0,1,0-8.371V37.094a4.3,4.3,0,0,1,0-8.372V25.908a4.3,4.3,0,0,1,0-8.372V14.722a4.3,4.3,0,0,1,0-8.371v-6H81.206a4.317,4.317,0,0,1-4.185,3.3,4.319,4.319,0,0,1-4.187-3.3H68.966a4.317,4.317,0,0,1-4.185,3.3,4.319,4.319,0,0,1-4.187-3.3H56.726a4.317,4.317,0,0,1-4.185,3.3,4.319,4.319,0,0,1-4.187-3.3H44.486a4.317,4.317,0,0,1-4.185,3.3,4.319,4.319,0,0,1-4.187-3.3H32.246a4.317,4.317,0,0,1-4.185,3.3,4.319,4.319,0,0,1-4.187-3.3H16.822v6a4.3,4.3,0,0,1,0,8.372v2.815a4.3,4.3,0,0,1,0,8.371v2.815a4.3,4.3,0,0,1,0,8.371v2.815a4.3,4.3,0,0,1,0,8.371v6h7.054a4.3,4.3,0,0,1,8.371,0h3.869a4.3,4.3,0,0,1,8.371,0h3.869a4.3,4.3,0,0,1,8.371,0H60.6a4.3,4.3,0,0,1,8.371,0h3.869a4.3,4.3,0,0,1,8.371,0M88.436,6.491h0ZM81.8,49.7H23.287a1,1,0,0,1-1-1V5.937a1,1,0,0,1,1-1H81.8a1,1,0,0,1,1,1V48.7a1,1,0,0,1-1,1M23.287,5.288a.65.65,0,0,0-.649.649V48.7a.65.65,0,0,0,.649.649H81.8a.65.65,0,0,0,.649-.649V5.937a.65.65,0,0,0-.649-.649Z" transform="translate(-15.504)" fill="#22313f"/>
        <path id="Контур_199" data-name="Контур 199" d="M200.8,144.282h-1.36a.176.176,0,0,1-.123-.05l-21.093-20.64a.653.653,0,0,0-.908,0l-7.694,7.529a.176.176,0,0,1-.246,0l-3.386-3.313a.653.653,0,0,0-.908,0L148.3,144.232a.176.176,0,0,1-.123.05h-4.231a.176.176,0,0,1-.176-.176V112.478a.176.176,0,0,1,.176-.176H200.8a.176.176,0,0,1,.176.176v31.628a.176.176,0,0,1-.176.176m-1.288-.352h1.112V112.654H144.122V143.93h3.983l16.733-16.374a1.007,1.007,0,0,1,1.4,0l3.263,3.193,7.572-7.409a1.007,1.007,0,0,1,1.4,0Z" transform="translate(-135.338 -105.715)" fill="#22313f"/>
        <g id="Сгруппировать_233" data-name="Сгруппировать 233" transform="translate(1.201 0.102)" style="mix-blend-mode: soft-light;isolation: isolate">
          <g id="Сгруппировать_232" data-name="Сгруппировать 232">
            <g id="Сгруппировать_231" data-name="Сгруппировать 231" clip-path="url(#clip-path-3)">
              <path id="Контур_200" data-name="Контур 200" d="M454.954,407.029h-.02a.175.175,0,0,1-.128-.08l-1.621-2.562a.647.647,0,0,0-.775-.259l-.818.311a.175.175,0,0,1-.185-.288l3.645-3.562a.175.175,0,0,1,.245,0l4.192,4.1a.175.175,0,0,1-.176.292l-1.278-.409a.646.646,0,0,0-.649.154l-2.309,2.26a.175.175,0,0,1-.123.05m-1.473-2.831,1.506,2.379,2.155-2.108a1,1,0,0,1,1-.237l.572.183-3.54-3.46-2.922,2.856.032-.012a1,1,0,0,1,1.2.4" transform="translate(-426.082 -377.146)" fill="#fff"/>
              <path id="Контур_201" data-name="Контур 201" d="M203.905,685.377h-56.58a.175.175,0,0,1-.175-.175v-7.78a.175.175,0,0,1,.175-.175h56.58a.175.175,0,0,1,.175.175v7.78a.175.175,0,0,1-.175.175m-56.4-.35h56.23V677.6H147.5Z" transform="translate(-139.72 -637.627)" fill="#fff"/>
              <path id="Контур_202" data-name="Контур 202" d="M627.212,412.593H613.1a.176.176,0,0,1-.123-.05L600.817,400.66a.174.174,0,0,1,0-.25l1.71-1.671a.174.174,0,0,1,.055-.036l2.913-1.215a.175.175,0,0,1,.191.037l1.782,1.769a.647.647,0,0,0,.858.047l1.056-.838a.176.176,0,0,1,.145-.034l4.6.951a.175.175,0,0,1,.087.046l13.125,12.827a.175.175,0,0,1-.123.3m-14.042-.35h13.613L614,399.752l-4.466-.924-.992.788a1,1,0,0,1-1.323-.073l-1.7-1.687-2.774,1.157-1.558,1.523Z" transform="translate(-566.729 -374.263)" fill="#fff"/>
              <path id="Контур_203" data-name="Контур 203" d="M289.011,496.1H259.153a.175.175,0,0,1-.122-.3l8.345-8.155a.177.177,0,0,1,.06-.038l3.712-1.41a.175.175,0,0,1,.21.07l1.806,2.853a.641.641,0,0,0,.471.3.648.648,0,0,0,.527-.18l2.682-2.624a.176.176,0,0,1,.176-.042l3.929,1.258a.175.175,0,0,1,.069.042l8.115,7.931a.175.175,0,0,1-.122.3m-29.428-.35h29l-7.779-7.6-3.789-1.213-2.606,2.551a1,1,0,0,1-1.539-.179l-1.729-2.733-3.544,1.347Z" transform="translate(-244.989 -457.775)" fill="#fff"/>
              <path id="Контур_204" data-name="Контур 204" d="M684.647,333.55a.175.175,0,0,1-.124-.051l-1.653-1.641a.641.641,0,0,0-.484-.182.175.175,0,0,1-.13-.3l2.28-2.228a.175.175,0,0,1,.245,0l3.916,3.827a.175.175,0,0,1-.158.3l-2.465-.51a.644.644,0,0,0-.534.127h0l-.785.624a.174.174,0,0,1-.109.038m-1.9-2.167a.973.973,0,0,1,.366.227l1.542,1.531.663-.527a.993.993,0,0,1,.823-.2l1.88.389-3.366-3.29Zm2.681,1.369h0Z" transform="translate(-643.391 -309.898)" fill="#fff"/>
              <path id="Контур_205" data-name="Контур 205" d="M92.085,56.031H84.752a.175.175,0,0,1-.172-.14,3.934,3.934,0,0,0-7.706,0,.175.175,0,0,1-.172.14H72.571a.175.175,0,0,1-.172-.14,3.934,3.934,0,0,0-7.706,0,.175.175,0,0,1-.172.14H60.391a.175.175,0,0,1-.172-.14,3.934,3.934,0,0,0-7.706,0,.175.175,0,0,1-.172.14H48.21a.175.175,0,0,1-.172-.14,3.934,3.934,0,0,0-7.706,0,.175.175,0,0,1-.172.14H36.03a.175.175,0,0,1-.172-.14,3.934,3.934,0,0,0-7.706,0,.175.175,0,0,1-.172.14H20.645a.175.175,0,0,1-.175-.175V49.58a.175.175,0,0,1,.14-.171,3.927,3.927,0,0,0,0-7.7.175.175,0,0,1-.14-.171V38.462a.175.175,0,0,1,.14-.171,3.927,3.927,0,0,0,0-7.7.175.175,0,0,1-.14-.171V27.345a.175.175,0,0,1,.14-.171,3.927,3.927,0,0,0,0-7.7.175.175,0,0,1-.14-.171V16.228a.175.175,0,0,1,.14-.171,3.927,3.927,0,0,0,0-7.7.175.175,0,0,1-.14-.171V1.91a.175.175,0,0,1,.175-.175h7.333a.175.175,0,0,1,.172.14,3.934,3.934,0,0,0,7.706,0,.175.175,0,0,1,.172-.14h4.131a.175.175,0,0,1,.172.14,3.934,3.934,0,0,0,7.706,0,.175.175,0,0,1,.172-.14h4.131a.175.175,0,0,1,.172.14,3.934,3.934,0,0,0,7.706,0,.175.175,0,0,1,.172-.14H64.52a.175.175,0,0,1,.172.14,3.934,3.934,0,0,0,7.706,0,.175.175,0,0,1,.172-.14H76.7a.175.175,0,0,1,.172.14,3.934,3.934,0,0,0,7.706,0,.175.175,0,0,1,.172-.14h7.335a.175.175,0,0,1,.175.175V8.186a.175.175,0,0,1-.14.171,3.927,3.927,0,0,0,0,7.7.175.175,0,0,1,.14.171V19.3a.175.175,0,0,1-.14.171,3.927,3.927,0,0,0,0,7.7.175.175,0,0,1,.14.171v3.078a.175.175,0,0,1-.14.171,3.927,3.927,0,0,0,0,7.7.175.175,0,0,1,.14.171v3.078a.175.175,0,0,1-.14.171,3.927,3.927,0,0,0,0,7.7.175.175,0,0,1,.14.171v6.279a.175.175,0,0,1-.175.175m-7.193-.35H91.91V49.718a4.276,4.276,0,0,1,0-8.32V38.6a4.276,4.276,0,0,1,0-8.32v-2.8a4.277,4.277,0,0,1,0-8.32v-2.8a4.276,4.276,0,0,1,0-8.32V2.085H84.89a4.284,4.284,0,0,1-8.331,0H72.71a4.284,4.284,0,0,1-8.331,0h-3.85a4.284,4.284,0,0,1-8.331,0h-3.85a4.285,4.285,0,0,1-8.331,0h-3.85a4.284,4.284,0,0,1-8.331,0H20.82V8.048a4.276,4.276,0,0,1,0,8.32v2.8a4.276,4.276,0,0,1,0,8.32v2.8a4.276,4.276,0,0,1,0,8.32v2.8a4.276,4.276,0,0,1,0,8.32v5.961h7.02a4.285,4.285,0,0,1,8.331,0h3.85a4.285,4.285,0,0,1,8.331,0H52.2a4.285,4.285,0,0,1,8.331,0h3.85a4.285,4.285,0,0,1,8.331,0h3.85a4.285,4.285,0,0,1,8.331,0m7.193-47.5h0ZM85.476,51.125H27.254a1,1,0,0,1-1-1V7.636a1,1,0,0,1,1-1H85.476a1,1,0,0,1,1,1V50.13a1,1,0,0,1-1,1M27.254,6.99a.646.646,0,0,0-.646.645V50.13a.646.646,0,0,0,.646.645H85.476a.646.646,0,0,0,.646-.645V7.636a.646.646,0,0,0-.646-.645Z" transform="translate(-20.47 -1.735)" fill="#fff"/>
              <path id="Контур_206" data-name="Контур 206" d="M203.905,145.128h-1.353a.175.175,0,0,1-.122-.05l-20.99-20.513a.651.651,0,0,0-.9,0l-7.657,7.483a.175.175,0,0,1-.245,0l-3.369-3.293a.65.65,0,0,0-.9,0l-16.7,16.323a.175.175,0,0,1-.122.05h-4.211a.175.175,0,0,1-.175-.175V113.52a.175.175,0,0,1,.175-.175h56.58a.175.175,0,0,1,.175.175v31.434a.175.175,0,0,1-.175.175m-1.282-.35h1.107V113.695H147.5v31.084h3.964l16.652-16.273a1,1,0,0,1,1.394,0l3.247,3.173,7.535-7.363a1,1,0,0,1,1.393,0Z" transform="translate(-139.72 -106.799)" fill="#fff"/>
            </g>
          </g>
        </g>
        <path id="Контур_207" data-name="Контур 207" d="M454.634,407.725l1.631,2.579,2.323-2.275a.827.827,0,0,1,.83-.2l1.285.412-4.216-4.123-3.666,3.586.822-.313a.825.825,0,0,1,.992.331" transform="translate(-426.261 -380.419)" fill="#b0d3ff"/>
        <path id="Контур_208" data-name="Контур 208" d="M151.446,682.627h-4.572v7.831h56.9v-7.831H151.446Z" transform="translate(-138.26 -642.589)" fill="#b0d3ff"/>
        <path id="Контур_209" data-name="Контур 209" d="M604.805,402.263l-1.72,1.682,12.229,11.96h14.194l-13.2-12.91-4.623-.957-1.062.844a.827.827,0,0,1-1.1-.061l-1.792-1.781Z" transform="translate(-567.713 -377.518)" fill="#b0d3ff"/>
        <path id="Контур_210" data-name="Контур 210" d="M259.344,499.957h30.028l-8.162-7.982-3.951-1.266-2.7,2.642a.826.826,0,0,1-.578.236.844.844,0,0,1-.1-.006.824.824,0,0,1-.6-.379l-1.816-2.872-3.733,1.42Z" transform="translate(-244.133 -461.57)" fill="#b0d3ff"/>
        <path id="Контур_211" data-name="Контур 211" d="M688.061,335.721a.824.824,0,0,1,.682-.162l2.479.513-3.938-3.852-2.293,2.243a.823.823,0,0,1,.619.234l1.662,1.652Z" transform="translate(-644.814 -312.735)" fill="#b0d3ff"/>
        <path id="Контур_212" data-name="Контур 212" d="M91.32,9.051V2.734H83.942a4.132,4.132,0,0,1-8.1,0H71.692a4.132,4.132,0,0,1-8.1,0H59.442a4.132,4.132,0,0,1-8.1,0H47.192a4.132,4.132,0,0,1-8.1,0H34.942a4.132,4.132,0,0,1-8.1,0H19.471V9.053a4.129,4.129,0,0,1,0,8.091v3.1a4.129,4.129,0,0,1,0,8.091v3.1a4.129,4.129,0,0,1,0,8.091v3.1a4.129,4.129,0,0,1,0,8.091V57.03h7.377a4.132,4.132,0,0,1,8.1,0H39.1a4.132,4.132,0,0,1,8.1,0h4.155a4.132,4.132,0,0,1,8.1,0H63.6a4.132,4.132,0,0,1,8.1,0h4.155a4.132,4.132,0,0,1,8.1,0H91.32V50.711a4.129,4.129,0,0,1,0-8.091v-3.1a4.129,4.129,0,0,1,0-8.091v-3.1a4.129,4.129,0,0,1,0-8.092v-3.1a4.129,4.129,0,0,1,0-8.091M85.5,51.267a.826.826,0,0,1-.826.826H26.118a.826.826,0,0,1-.826-.826V8.5a.826.826,0,0,1,.826-.826H84.673A.826.826,0,0,1,85.5,8.5Z" transform="translate(-18.329 -2.574)" fill="#b0d3ff"/>
        <path id="Контур_213" data-name="Контур 213" d="M146.875,146.705h4.235l9.727-9.513,0,0,7.069-6.913a.826.826,0,0,1,1.155,0l3.389,3.314,1.846-1.8,0,0,5.853-5.724a.826.826,0,0,1,1.155,0l21.11,20.646h1.361V115.068h-56.9Z" transform="translate(-138.26 -108.319)" fill="#b0d3ff"/>
      </g>
    </g>
  </g>
</svg>
