<svg width="74" height="52" fill="none" xmlns="http://www.w3.org/2000/svg"><path d="m66.34 44.132.129-1.358a.847.847 0 0 1-.613-.375 1.185 1.185 0 0 1-.194-.784c.027-.285.149-.549.338-.734a.847.847 0 0 1 .671-.254l.128-1.357a.847.847 0 0 1-.612-.375 1.185 1.185 0 0 1-.194-.784c.027-.285.149-.549.338-.734a.847.847 0 0 1 .671-.254l.129-1.357a.79.79 0 0 1-.34-.115.918.918 0 0 1-.273-.26 1.11 1.11 0 0 1-.163-.367 1.252 1.252 0 0 1 .077-.821c.058-.126.136-.238.23-.33a.92.92 0 0 1 .316-.205.792.792 0 0 1 .355-.049l.129-1.357a.847.847 0 0 1-.612-.375 1.185 1.185 0 0 1-.195-.784c.027-.285.149-.549.338-.734a.847.847 0 0 1 .671-.254l.129-1.357a.847.847 0 0 1-.613-.375 1.185 1.185 0 0 1-.194-.784c.027-.285.149-.549.338-.734a.847.847 0 0 1 .671-.254l.128-1.355a.847.847 0 0 1-.612-.375 1.185 1.185 0 0 1-.194-.784c.027-.285.149-.549.338-.734a.847.847 0 0 1 .671-.254l.128-1.357a.847.847 0 0 1-.612-.375 1.185 1.185 0 0 1-.194-.784c.027-.285.148-.549.338-.734a.847.847 0 0 1 .671-.254l.129-1.357a.846.846 0 0 1-.613-.375 1.185 1.185 0 0 1-.194-.784c.027-.285.148-.549.338-.734a.846.846 0 0 1 .671-.254l.13-1.366a.792.792 0 0 1-.34-.115.92.92 0 0 1-.273-.26 1.11 1.11 0 0 1-.164-.367 1.252 1.252 0 0 1 .078-.822c.058-.125.136-.237.23-.33a.918.918 0 0 1 .316-.204.79.79 0 0 1 .355-.049l.128-1.35a.79.79 0 0 1-.34-.115.918.918 0 0 1-.272-.26 1.11 1.11 0 0 1-.164-.367 1.252 1.252 0 0 1 .077-.822c.058-.126.136-.238.23-.33a.918.918 0 0 1 .316-.204.792.792 0 0 1 .355-.05l.128-1.35a.79.79 0 0 1-.34-.114.916.916 0 0 1-.273-.26A1.107 1.107 0 0 1 69 6.997a1.25 1.25 0 0 1-.03-.418l-1.146-.108a1.186 1.186 0 0 1-.337.734.847.847 0 0 1-.672.254.847.847 0 0 1-.612-.375 1.185 1.185 0 0 1-.194-.784l-1.148-.109a1.185 1.185 0 0 1-.338.734.847.847 0 0 1-.671.254.847.847 0 0 1-.612-.375 1.185 1.185 0 0 1-.194-.784l-1.148-.109a1.186 1.186 0 0 1-.338.734.847.847 0 0 1-.671.254.847.847 0 0 1-.612-.375 1.186 1.186 0 0 1-.194-.784l-1.148-.109a1.186 1.186 0 0 1-.338.734.847.847 0 0 1-.671.254.847.847 0 0 1-.612-.375 1.185 1.185 0 0 1-.195-.784l-1.155-.11a1.186 1.186 0 0 1-.337.735.847.847 0 0 1-.672.253.847.847 0 0 1-.612-.375 1.186 1.186 0 0 1-.194-.784l-1.142-.108a1.175 1.175 0 0 1-.35.703.845.845 0 0 1-.656.239.845.845 0 0 1-.6-.358 1.176 1.176 0 0 1-.212-.755l-1.14-.108a1.185 1.185 0 0 1-.338.734.847.847 0 0 1-.671.254.847.847 0 0 1-.612-.375 1.185 1.185 0 0 1-.194-.784l-1.143-.108a1.186 1.186 0 0 1-.337.733.847.847 0 0 1-.672.254.847.847 0 0 1-.612-.375 1.185 1.185 0 0 1-.194-.784l-1.148-.108a1.186 1.186 0 0 1-.337.734.847.847 0 0 1-.672.253.847.847 0 0 1-.612-.375 1.185 1.185 0 0 1-.194-.784l-1.155-.109a1.185 1.185 0 0 1-.338.734.847.847 0 0 1-.671.254.847.847 0 0 1-.612-.375 1.185 1.185 0 0 1-.194-.784l-1.148-.109a1.184 1.184 0 0 1-.334.732.847.847 0 0 1-.668.256l-.128 1.358c.24.023.46.158.612.375.151.217.22.5.194.784a1.186 1.186 0 0 1-.338.734.847.847 0 0 1-.671.254l-.128 1.357c.24.023.46.158.612.375.151.217.22.5.194.784a1.186 1.186 0 0 1-.337.734.847.847 0 0 1-.672.254l-.128 1.357c.24.023.46.158.612.375.151.218.22.5.194.784a1.185 1.185 0 0 1-.338.734.846.846 0 0 1-.671.254l-.128 1.357c.24.023.46.158.612.375.151.218.22.5.194.784a1.186 1.186 0 0 1-.338.734.847.847 0 0 1-.671.254l-.128 1.357c.24.023.46.158.612.375.151.218.22.5.194.784a1.186 1.186 0 0 1-.338.734.847.847 0 0 1-.671.254l-.128 1.355c.24.023.46.158.612.375.151.218.221.5.194.784a1.185 1.185 0 0 1-.337.734.847.847 0 0 1-.672.254l-.128 1.357c.24.023.46.158.612.375.151.218.22.5.194.784a1.185 1.185 0 0 1-.337.734.847.847 0 0 1-.672.254l-.128 1.357c.24.023.46.158.612.375.151.218.22.5.194.784a1.185 1.185 0 0 1-.337.734.847.847 0 0 1-.672.254l-.128 1.358c.24.022.46.157.612.375.151.217.22.499.194.784a1.185 1.185 0 0 1-.337.733.847.847 0 0 1-.672.254l-.128 1.358c.24.022.46.157.612.375.151.217.22.499.194.784a1.185 1.185 0 0 1-.338.733.847.847 0 0 1-.671.254l-.128 1.358c.119.01.235.05.34.114a.917.917 0 0 1 .272.26c.075.108.131.233.164.367.033.135.044.277.03.418l1.148.108c.027-.284.148-.548.337-.734a.847.847 0 0 1 .672-.253c.24.022.46.157.612.375.151.217.221.5.194.784l1.148.108c.027-.284.148-.548.338-.734a.847.847 0 0 1 .671-.253c.24.022.46.157.612.375.151.217.221.499.194.784l1.148.108c.027-.285.148-.548.338-.734a.847.847 0 0 1 .671-.254c.24.023.461.158.612.376.151.217.221.499.194.784l1.148.108c.027-.285.148-.549.338-.734a.847.847 0 0 1 .671-.254c.24.023.461.158.612.375.151.218.221.5.194.785l1.147.108c.036-.276.161-.527.348-.703a.844.844 0 0 1 .657-.238c.234.022.45.15.6.357.151.207.227.478.212.755l1.146.109c.026-.285.148-.549.337-.734a.847.847 0 0 1 .672-.254c.24.023.46.158.612.375.15.218.22.5.194.784l1.148.109c.027-.285.148-.549.337-.734a.847.847 0 0 1 .672-.254c.24.023.46.158.612.375.151.217.22.5.194.784l1.148.108c.027-.284.148-.548.337-.733a.847.847 0 0 1 .672-.254c.24.023.46.158.612.375.151.217.221.5.194.784l1.148.108c.027-.284.148-.548.337-.733a.847.847 0 0 1 .672-.254c.24.023.46.157.612.375.151.217.221.5.194.784l1.148.108c.027-.284.148-.548.338-.733a.847.847 0 0 1 .671-.254c.24.023.461.157.612.375.151.217.221.5.194.784l1.146.108c.026-.284.147-.549.335-.735a.849.849 0 0 1 .67-.257Zm-2.03-1.7-28.249-2.67 3.156-33.405 28.248 2.668-3.156 33.406Z" fill="#64758D"/><path d="m36.025 40.148 28.248 2.669 3.249-34.39L39.273 5.76l-3.248 34.39Zm3.634-33.817 27.376 2.587-3.148 33.327-27.376-2.587 3.148-33.327Z" fill="#CEDAE0"/><path d="M66.499 9.19 40.132 6.7l-3.06 32.394 26.367 2.49 3.06-32.393Z" fill="#fff"/><path d="M67.048 8.782 39.672 6.196l-3.16 33.446 27.377 2.586 3.16-33.446Zm-3.606 32.782-26.367-2.49L40.12 6.86l26.367 2.49-3.044 32.214Z" fill="#64758D"/><path d="M46.881 16.932c.062-.18.119-.327.162-.431.022-.05.04-.091.054-.119l.019-.04a.953.953 0 0 1 .242-.392.73.73 0 0 1-.25-.095.667.667 0 0 1-.193-.175c.016.187.006.375-.028.559-.036.375-.703 1.794-.911 2.578l-.016.168a1.271 1.271 0 0 0 .002.311.218.218 0 0 0 .039.104.108.108 0 0 0 .036-.03.526.526 0 0 0 .084-.118c.052-.098.096-.198.131-.302.042-.11.072-.223.11-.343l.107-.357c.072-.242.145-.482.21-.708.067-.225.14-.432.202-.61ZM51.69 20.077c-.26.016-.608.044-.955.08l-.509.058a15.836 15.836 0 0 0-.754.108l-.118.02.12-.005.317-.015.447-.033.51-.046c.346-.037.692-.08.943-.117.13-.019.237-.039.313-.05l.117-.02s-.043-.004-.12.004-.18.007-.31.016ZM46.729 15.29c.095.197.32.284.777.177.001-.01.012-.021.019-.034a.483.483 0 0 0 .05-.232.54.54 0 0 0-.129-.303l-.021-.026.028.02a.606.606 0 0 1 .217.294.563.563 0 0 1 .025.234c.226-.04.329.02.363.107a.614.614 0 0 0 .054-.31.642.642 0 0 0-.108-.302.708.708 0 0 1 .033.304.665.665 0 0 1-.008.082.699.699 0 0 0-.174-.37l-.137.167.07-.23.038-.122c.006-.057.026-.116.043-.18.018-.065.035-.13.054-.192.214-.725.598-2.042.589-2.544-.008-.407-.117-.437-.215-.348-.155.183-.27.39-.343.612-.254.708-.535 2.032-.624 2.373a.885.885 0 0 1-.065.18c.062.023.121.05.179.08a1.674 1.674 0 0 0-.39.071.549.549 0 0 0-.271.255.433.433 0 0 0-.054.237ZM48.504 19.634a.286.286 0 0 0-.084.057.436.436 0 0 0-.08.097 1.012 1.012 0 0 0-.107.286 1.274 1.274 0 0 0-.016.168l-.008.087-.009.087a1.928 1.928 0 0 0 .061.344.911.911 0 0 0 .136.278.439.439 0 0 0 .179.144.164.164 0 0 0 .066.007.2.2 0 0 1-.06-.021.28.28 0 0 1-.072-.058.777.777 0 0 1-.128-.222 1.427 1.427 0 0 1-.093-.477l-.004-.085.008-.084.016-.168c.006-.058.02-.103.031-.149.013-.044.028-.087.046-.13a.647.647 0 0 1 .06-.097.239.239 0 0 1 .067-.061.16.16 0 0 1 .056-.024l.022.003-.022-.003a.21.21 0 0 0-.065.021ZM52.507 19.76c.005-.055-.008-.112-.006-.17 0-.05.006-.101.014-.152.005-.046.014-.091.026-.136a.546.546 0 0 1 .044-.107.23.23 0 0 1 .108-.104l.02.002-.022-.002a.065.065 0 0 0-.027.008.144.144 0 0 0-.035.015.291.291 0 0 0-.073.068.53.53 0 0 0-.063.109.826.826 0 0 0-.058.307 1.403 1.403 0 0 0-.002.17l.009.088.012.09a1.678 1.678 0 0 0 .099.337c.022.05.047.1.075.149a.809.809 0 0 0 .087.123.553.553 0 0 0 .098.089.3.3 0 0 0 .093.048.159.159 0 0 0 .039.003l.027.003.023.002-.023-.002a.165.165 0 0 1-.062-.018.263.263 0 0 1-.076-.055.673.673 0 0 1-.08-.091c-.022-.038-.048-.08-.07-.124a1.503 1.503 0 0 1-.06-.146c-.02-.053-.034-.105-.049-.16a1.579 1.579 0 0 1-.036-.173l-.012-.085a.208.208 0 0 1-.02-.085ZM53.07 19.41a.059.059 0 0 0-.025.007c.05.035.091.078.122.128.052.082.09.17.113.261a.673.673 0 0 1 .03.157.82.82 0 0 1 .003.17.446.446 0 0 1-.026.117.649.649 0 0 0 .04-.417c-.046-.247-.16-.436-.257-.424Z" fill="#FEF7E5"/><path d="M53.033 19.424a.227.227 0 0 0-.069.136c.07-.009.149.124.177.294.03.17-.002.318-.07.332a.396.396 0 0 0 .06.077l.014-.016a.386.386 0 0 0 .053-.127.665.665 0 0 0 .014-.148.479.479 0 0 0 .001-.146.812.812 0 0 0-.072-.258.384.384 0 0 0-.108-.144Z" fill="#FEF7E5"/><g clip-path="url(#a)"><path d="M43.934 18.66a.69.69 0 0 0-.27.007.27.27 0 0 0-.12.07.248.248 0 0 0-.066.119c-.027.16.137.278.286.33.608.22 1.275.093 1.92.116.893.032 1.76.356 2.653.364a.403.403 0 0 0 .178-.027.171.171 0 0 0 .072-.06.16.16 0 0 0 .028-.085.224.224 0 0 0-.081-.141c-.34-.353-.844-.474-1.325-.494-.481-.02-.964.049-1.443.001-.697-.066-1.387-.377-2.074-.233" fill="#E1F0FF"/><path d="M43.847 18.648a.19.19 0 0 1 .014-.045 1.547 1.547 0 0 0-.168.025l.154.02ZM48.399 19.664a.306.306 0 0 0-.148-.15c-.445-.24-.99-.003-1.486-.07-.3-.04-.576-.191-.862-.286-.511-.168-1.06-.153-1.596-.173-.122-.005-.253-.014-.35-.087a.28.28 0 0 1-.086-.11.263.263 0 0 1-.019-.136.522.522 0 0 0-.184.015.27.27 0 0 0-.12.07.248.248 0 0 0-.066.12c-.027.159.137.277.287.33.607.22 1.275.092 1.918.115.894.032 1.76.357 2.655.364l.057-.002Z" fill="#90C5D1"/><path d="m59.897 29.966.523.05c.271.025.522.151.697.35.175.2.26.457.235.713a.946.946 0 0 1-.364.656c-.21.164-.48.241-.751.216l-.523-.05a1.059 1.059 0 0 1-.697-.352.947.947 0 0 1-.235-.712.946.946 0 0 1 .365-.656c.21-.163.479-.24.75-.215Z" fill="#1A586F"/><path d="M59.714 31.901c.565.054 1.065-.336 1.115-.871.05-.535-.367-1.011-.932-1.065-.566-.053-1.065.337-1.115.872-.05.534.367 1.01.932 1.064ZM48.516 28.891l-.272-.026a1.061 1.061 0 0 0-.756.198.95.95 0 0 0-.382.647.943.943 0 0 0 .216.718 1.057 1.057 0 0 0 .739.373l.273.025c.27.032.542-.038.756-.197a.949.949 0 0 0 .381-.647.944.944 0 0 0-.216-.718 1.056 1.056 0 0 0-.688-.368l-.05-.005Z" fill="#1A586F"/><path d="m55.752 30.44-13.458-1.27a.477.477 0 0 1-.31-.157.43.43 0 0 1-.104-.318l.733-7.753 14.038 1.326-.899 8.173Z" fill="#63A7B6"/><path d="m46.973 28.275-4.097-.387-.125 1.323.987.094a.95.95 0 0 0 .219.82c.174.2.425.326.696.353l.524.05c.27.023.54-.054.748-.217a.95.95 0 0 0 .368-.764l.553.052.127-1.324Z" fill="#1A586F"/><path d="M45.759 29.678c.09-.53-.29-1.032-.85-1.124-.56-.09-1.088.265-1.179.794-.09.53.29 1.033.85 1.124.561.091 1.089-.264 1.179-.794Z" fill="#337A8F"/><path d="M44.694 30.046c.312.029.588-.186.616-.482.028-.295-.203-.558-.515-.588-.312-.03-.588.186-.616.482-.028.295.203.558.515.588Z" fill="#63A7B6"/><path d="M44.709 29.889c.22.02.415-.132.435-.34a.39.39 0 0 0-.364-.416.391.391 0 0 0-.436.34.391.391 0 0 0 .365.416Z" fill="#90C5D1"/><path d="m42.074 29.149.8.076a.337.337 0 0 0 .177-.031.311.311 0 0 0 .13-.116l.48-.772a.504.504 0 0 1 .21-.188.544.544 0 0 1 .286-.05l1.125.106c.098.01.192.046.27.103a.504.504 0 0 1 .172.224l.327.848a.31.31 0 0 0 .106.138.335.335 0 0 0 .167.063l.907.086.147-1.554-5.157-.487-.147 1.554Z" fill="#63A7B6"/><path d="m55.486 29.08-4.096-.388-.125 1.324.986.093a.949.949 0 0 0 .218.82c.175.2.425.326.696.353l.525.05c.271.024.54-.053.75-.217a.948.948 0 0 0 .368-.765l.552.053.126-1.324Z" fill="#1A586F"/><path d="M53.166 31.283c.565.053 1.064-.337 1.115-.872.05-.534-.367-1.01-.932-1.064-.566-.054-1.065.336-1.115.871-.05.535.366 1.011.932 1.065Z" fill="#337A8F"/><path d="M53.207 30.85c.312.03.588-.186.616-.482.027-.295-.203-.558-.515-.587-.312-.03-.588.186-.616.48-.028.296.203.56.515.589Z" fill="#63A7B6"/><path d="M53.645 30.413a.383.383 0 0 0-.289-.464.4.4 0 0 0-.488.269.383.383 0 0 0 .29.465.4.4 0 0 0 .487-.27Z" fill="#90C5D1"/><path d="m50.587 29.953.8.076a.336.336 0 0 0 .177-.031.31.31 0 0 0 .13-.116l.48-.772a.505.505 0 0 1 .21-.187.544.544 0 0 1 .285-.05l1.125.105c.099.01.193.045.271.103a.504.504 0 0 1 .172.224l.326.848a.311.311 0 0 0 .107.138.336.336 0 0 0 .167.064l.906.085.147-1.554-5.156-.487-.147 1.554Z" fill="#63A7B6"/><path d="m62.29 28.647-.207 2.187a.199.199 0 0 1-.076.137.222.222 0 0 1-.157.046l-6.636-.627.225-2.388a.52.52 0 0 0-.078-.318l-.495-.462 6.852.647.495.464c.06.095.087.205.077.314Z" fill="#FFD4C7"/><path d="m55.402 28.398-.189 1.992 6.636.627a.222.222 0 0 0 .157-.046.198.198 0 0 0 .076-.137l.17-1.786-6.85-.65Z" fill="#F2A274"/><path d="m46.947 21.351.178-1.88 2.594.245L51.607 17l6.887.65c1 .095 1.846.847 2.163 1.926l.922 3.127" fill="#FFD4C7"/><path d="m42.614 20.942.08-.85c.053-.569.501-.992 1-.945l1.27.12c.262.025.518-.104.687-.342l1.083-1.555c.336-.484.863-.749 1.395-.698l4.882.46c.88.084 1.562.89 1.599 1.9l.116 3.024" fill="#63A7B6"/><path d="M55.45 27.894 42.075 26.63l-.048.505 13.373 1.263.048-.504Z" fill="#2A6678"/><path d="m62.3 28.541-6.85-.647-.049.504 6.852.647.047-.504Z" fill="#63A7B6"/><path d="m54.855 27.222-1.05-.1.452-4.78c.015-.164.14-.287.28-.274l.188.018M53.532 22.544l-1.694-.16a.184.184 0 0 0-.205.16l-.366 3.876a.184.184 0 0 0 .171.196l1.694.16a.184.184 0 0 0 .205-.16l.366-3.877a.184.184 0 0 0-.171-.195Z" fill="#FFD4C7"/><path opacity=".25" fill-rule="evenodd" clip-rule="evenodd" d="m42.47 25.634.011-.112a.779.779 0 0 0 .001-.095c.114-1.083.185-2.085.29-3.156l.054-.574c.01-.09.05-.173.116-.237a.426.426 0 0 1 .341-.117l.315.03c.153.014.36.022.513.036 1.147.104 2.344.246 3.54.349.2.019.384.025.586.043.63.06 1.249.133 1.875.192.103.01.253.012.368.023l.578.054 1.91.165.454.04.113.01a.454.454 0 0 1 .286.123.422.422 0 0 1 .127.372l-.04.422-.235 2.681-.061.644a1.223 1.223 0 0 1-.032.213.41.41 0 0 1-.111.177.442.442 0 0 1-.188.103.509.509 0 0 1-.214.01l-.219-.025c-.895-.06-1.825-.172-2.672-.264-.554-.057-1.147-.095-1.73-.177-.105.012-.31-.018-.443-.03-1.075-.097-2.27-.227-3.327-.32-.638-.057-1.642-.147-1.844-.11.16.036.323.064.487.084.286.027.522.029.81.05.245.02.567.054.871.08.795.067 1.316.131 1.95.192.489.046.959.063 1.301.128.93.07 1.878.166 2.85.27l1.481.152.378.036c.065.008.131.013.197.015a.542.542 0 0 0 .3-.1.493.493 0 0 0 .204-.346l.026-.278c.053-.559.112-1.222.169-1.853.025-.266.036-.496.06-.758l.09-.958a1 1 0 0 0 .008-.136.462.462 0 0 0-.1-.258.505.505 0 0 0-.374-.193l-.41-.039c-1.518-.136-2.94-.273-4.141-.365-1.61-.181-3.373-.332-5.062-.492l-.437-.036c-.104-.01-.113-.026-.21-.034a.43.43 0 0 0-.153.02.622.622 0 0 0-.287.2.401.401 0 0 0-.077.203c-.055.577-.109 1.17-.162 1.783-.02.213-.028.424-.047.622-.035.377-.087.816-.13 1.215l-.027.291a.44.44 0 0 0 .067.268.46.46 0 0 0 .382.213c-.008-.03-.116-.042-.217-.122a.4.4 0 0 1-.122-.153.31.31 0 0 1-.036-.17Z" fill="#185166"/><path d="m45.458 23.772-2.448-.231a.148.148 0 0 0-.164.129l-.167 1.768a.148.148 0 0 0 .137.157l2.448.231a.148.148 0 0 0 .164-.128l.168-1.769a.148.148 0 0 0-.138-.157Z" fill="#2A6678" stroke="#63A7B6" stroke-width=".777" stroke-miterlimit="10"/><path d="m45.523 23.778-2.578-.243c-.047-.005-.09.028-.093.073l-.047.494a.084.084 0 0 0 .078.089l2.578.244c.048.004.09-.029.094-.073l.046-.494a.084.084 0 0 0-.078-.09Z" fill="#2A6678" stroke="#63A7B6" stroke-width=".777" stroke-miterlimit="10"/><path d="m49.413 21.872 1.586.15a.25.25 0 0 1 .164.082.223.223 0 0 1 .056.169l-.617 6.532a.224.224 0 0 1-.087.155.25.25 0 0 1-.177.051l-1.825-.172.638-6.762a.223.223 0 0 1 .086-.154.25.25 0 0 1 .176-.051Z" fill="#F2A274"/><path d="m47.344 21.676 1.585.15a.25.25 0 0 1 .164.083.224.224 0 0 1 .056.168l-.639 6.764-1.826-.173a.25.25 0 0 1-.164-.083.224.224 0 0 1-.056-.168l.618-6.535a.223.223 0 0 1 .085-.155.25.25 0 0 1 .177-.051Z" fill="#63A7B6"/><path opacity=".25" d="m47.502 21.891 1.233.117a.217.217 0 0 1 .142.072c.036.04.054.093.049.146l-.584 6.182a.207.207 0 0 1-.08.144.232.232 0 0 1-.165.047l-1.218-.115a.216.216 0 0 1-.142-.072.194.194 0 0 1-.049-.146l.586-6.196a.194.194 0 0 1 .074-.135.217.217 0 0 1 .154-.044Z" stroke="#2A6678" stroke-width=".777" stroke-miterlimit="10"/><path d="m61.575 22.733-6.85-.647.14 5.137 6.852.647" fill="#fff"/><path d="M54.835 22.063c-.174.464.144.998.582 1.238.438.24.956.26 1.455.274l4.145.12c.142.003.29.007.42-.052.129-.059.232-.2.199-.338-.039-.162-.227-.231-.389-.272a21.775 21.775 0 0 0-2.934-.538" fill="#90C5D1"/><path d="M55.038 22.093c.156.32.33.661.642.838.23.13.504.152.768.171 1.667.122 3.444.314 5.111.435a.49.49 0 0 0 .276-.034c.142-.077.062-.347 0-.495-.061-.147-.135-.175-.26-.276" fill="#63A7B6"/><path fill-rule="evenodd" clip-rule="evenodd" d="M61.164 22.636a1.26 1.26 0 0 0-.135 0c-.683-.076-1.318-.113-1.993-.18-.315-.03-.654-.076-.99-.108-.093-.008-.216-.009-.308-.017-.686-.06-1.4-.157-2.116-.214-.118-.011-.23-.01-.35-.021-.378-.036-.746-.086-1.12-.121-.063-.006-.153-.003-.22-.008-.117-.011-.228-.025-.346-.033-.806-.068-1.502-.118-2.217-.182-.571-.05-1.135-.092-1.695-.142-.358-.034-.73-.077-1.074-.124-.536-.026-1.093-.103-1.598-.162-.33-.036-.686-.052-1.033-.113a.997.997 0 0 1-.264-.012c-.643-.056-1.356-.141-1.99-.194-.377-.032-.98-.084-1.104-.04.095.03.192.052.29.065.171.017.313.01.485.02.147.01.34.033.521.05.475.037.786.081 1.165.117.292.028.574.028.778.08 1.113.069 2.264.24 3.502.34.353.029.772.073 1.17.105.169.016.317.02.481.034.481.045.907.077 1.346.115.907.079 1.757.161 2.476.208.96.12 2.013.203 3.024.3.101.01.179.01.262.02.063.005.068.02.125.026.041.004.137-.001.177.003.097.01.15.03.255.04.364.035.74.066 1.127.1.134.013.268.014.394.026.475.045 1.108.146 1.385.126-.006-.06-.258-.059-.41-.104Z" fill="#2A6678"/><path opacity=".25" fill-rule="evenodd" clip-rule="evenodd" d="M53.026 19.927c-.02 0-.039.003-.058.008-.29-.039-.56-.041-.846-.072-.135-.013-.278-.04-.42-.054-.04-.004-.093.003-.132 0-.292-.023-.593-.081-.898-.1-.05-.005-.098.002-.15-.002-.158-.015-.313-.044-.474-.06-.026-.002-.064.007-.095.004-.05-.005-.096-.013-.146-.014-.343-.024-.64-.036-.944-.06-.243-.02-.482-.032-.72-.052a4.198 4.198 0 0 1-.455-.065c-.23.003-.464-.044-.679-.075-.14-.019-.292-.015-.439-.056-.028.02-.08.005-.112.002-.274-.022-.576-.068-.845-.087-.162-.01-.417-.03-.473.02.037.024.079.041.123.05.073.006.134-.008.207-.006.063.002.144.014.221.017.203.012.334.04.495.055.126.012.245-.004.33.037.475.009.96.116 1.487.15.15.01.328.031.498.041.071.007.134.002.204.008.205.02.386.028.573.042.385.03.746.066 1.053.074.406.067.855.093 1.284.135.042.004.075 0 .111.005.027.002.028.017.052.02.025.004.06-.008.077-.006.04.004.061.022.106.027.155.014.316.025.48.038.057.006.114 0 .168.004.201.02.468.086.589.051 0-.056-.109-.043-.172-.08Z" fill="#2A6678"/><path opacity=".25" fill-rule="evenodd" clip-rule="evenodd" d="M51.492 29.619a.111.111 0 0 0-.04.01c-.2-.031-.386-.026-.584-.048-.092-.009-.187-.032-.288-.042-.027-.002-.064.006-.09.004-.201-.014-.408-.063-.618-.073-.035-.003-.068.005-.103.002-.11-.01-.217-.035-.326-.046-.018-.001-.046.009-.064.008a.945.945 0 0 0-.1-.01c-.237-.014-.444-.018-.65-.034-.168-.012-.332-.017-.497-.03a2.004 2.004 0 0 1-.313-.051c-.157 0-.313-.02-.466-.055-.096-.015-.201-.007-.3-.043-.021.02-.056.007-.079.005-.189-.014-.395-.051-.58-.062-.112-.006-.288-.018-.327.034.023.022.05.038.082.046.048-.002.096-.006.143-.012.048-.007.1.01.152.01.14.007.23.03.34.041.086.008.17-.01.227.027.328-.005.66.088 1.023.107.103.005.225.021.342.026.05.004.093-.002.141.002.14.013.266.016.394.025.265.018.514.044.725.042.28.056.588.069.88.097.03.003.053 0 .077.002.025.002.02.016.036.02.017.002.04-.011.053-.01a.789.789 0 0 0 .073.024c.106.01.217.016.33.024.04.004.079-.003.115 0 .14.013.321.072.406.034.003-.057-.072-.04-.114-.074Z" fill="#185166"/><path opacity=".25" fill-rule="evenodd" clip-rule="evenodd" d="M61.729 30.586a.188.188 0 0 0-.053.008c-.262-.036-.504-.036-.766-.065-.122-.011-.251-.037-.38-.05-.035-.003-.084.004-.119.002-.264-.021-.537-.077-.812-.092-.046-.005-.09.003-.136-.001-.144-.014-.286-.042-.43-.056-.023-.002-.06.007-.085.005-.045-.004-.087-.011-.133-.012-.31-.021-.579-.031-.854-.053-.22-.018-.436-.027-.652-.045a3.46 3.46 0 0 1-.412-.06 3.53 3.53 0 0 1-.613-.07c-.125-.017-.264-.012-.396-.052-.026.02-.072.006-.102.003-.248-.019-.521-.063-.765-.078-.147-.01-.378-.027-.428.023.032.024.07.04.109.05.066.005.122-.01.191-.009.057.002.131.013.2.016.184.01.303.036.448.05.112.01.222-.006.299.034.43.005.867.108 1.345.137.136.008.297.028.45.036.063.006.122.002.186.007.185.017.349.024.518.036.349.026.675.06.953.064.368.064.774.087 1.162.124.038.004.069.001.1.004.033.003.026.017.048.02.02.003.053-.01.069-.007.037.004.056.021.096.026.14.013.285.022.434.034.052.005.104-.001.152.003.183.017.424.082.533.046-.002-.058-.1-.042-.157-.078ZM54.252 21.376a.47.47 0 0 0-.083.005c-.418-.05-.808-.065-1.223-.107-.194-.019-.4-.052-.607-.072-.056-.005-.133 0-.19-.006-.42-.035-.859-.105-1.298-.137-.073-.006-.141-.002-.215-.009-.23-.021-.457-.058-.687-.08-.037-.003-.094.004-.135.001-.072-.007-.14-.017-.213-.02-.494-.038-.922-.064-1.36-.101-.351-.03-.694-.051-1.04-.081-.22-.021-.449-.05-.659-.084-.33-.007-.67-.066-.98-.104-.202-.025-.42-.027-.633-.074-.04.019-.114 0-.163-.003-.394-.033-.83-.092-1.219-.122-.234-.018-.603-.048-.68 0a.691.691 0 0 0 .176.055c.105.01.191-.002.3.003.089.004.207.02.318.03.292.02.483.053.715.075.178.017.353.006.476.05.685.03 1.387.157 2.149.214.217.015.473.044.718.06.103.01.194.009.295.018.295.028.557.044.826.066.557.045 1.078.097 1.52.117.588.084 1.236.13 1.855.19.063.006.11.004.161.01.038.003.041.017.076.022.034.004.085-.007.109-.003.06.005.091.025.155.03.224.022.455.039.693.06.083.007.165.004.242.011.291.027.678.105.85.076 0-.06-.156-.05-.249-.09ZM60.495 21.966a.103.103 0 0 0-.036.01c-.178-.029-.345-.022-.522-.042-.082-.008-.17-.03-.257-.038-.024-.002-.057.006-.081.004-.18-.012-.364-.059-.552-.066-.031-.003-.061.005-.093.002-.097-.009-.193-.033-.29-.042-.017-.002-.042.009-.06.008a.753.753 0 0 0-.09-.009c-.21-.011-.394-.014-.58-.027-.15-.01-.298-.014-.443-.025a1.599 1.599 0 0 1-.28-.048c-.141.011-.284-.03-.416-.051-.085-.014-.18-.004-.269-.04-.018.021-.049.008-.07.006-.168-.012-.353-.046-.518-.055-.1-.006-.258-.016-.294.036.023.016.035.037.074.046a1.17 1.17 0 0 0 .128-.014c.039 0 .089.008.136.013.127.004.205.026.304.036.076.007.152-.013.203.025.293-.009.589.081.914.096.093.004.201.02.306.023.044.004.083-.003.127 0 .126.013.238.014.352.022.238.015.46.039.649.035.249.052.525.063.788.089.027.002.048-.002.07 0 .022.004.016.016.031.019.015.003.037-.011.047-.009.025.003.038.02.065.023.095.009.194.013.296.02.034.004.07-.004.103 0 .126.011.287.068.363.029 0-.06-.068-.042-.105-.076Z" fill="#2A6678"/><path fill-rule="evenodd" clip-rule="evenodd" d="M61.697 30.944a.158.158 0 0 0-.051.008c-.26-.036-.505-.036-.756-.064-.121-.011-.25-.037-.377-.05-.035-.003-.083.005-.117.002-.261-.02-.531-.075-.804-.091-.045-.004-.088.003-.134 0-.142-.014-.283-.042-.425-.056-.024-.002-.059.007-.085.005-.044-.004-.086-.011-.131-.012-.307-.02-.573-.03-.845-.052-.217-.02-.432-.027-.645-.044a3.364 3.364 0 0 1-.407-.06c-.206.005-.416-.043-.607-.07-.125-.016-.262-.011-.393-.05-.025.02-.07.005-.1.002-.245-.018-.515-.062-.755-.078-.145-.009-.373-.026-.424.025.032.023.069.04.108.048.063.006.12-.009.186-.008.066.001.126.012.199.015.18.01.298.036.44.05.11.01.22-.006.295.034.425.004.858.107 1.331.136.135.007.293.027.446.035.063.006.12.001.183.006.183.018.346.024.512.036.346.026.668.06.943.064.364.063.766.085 1.15.122.038.004.068.001.1.004.03.003.025.017.046.02.021.003.053-.01.068-.007.037.004.056.021.096.025.138.014.282.022.43.034.05.005.102-.001.15.003.18.017.419.081.527.045 0-.057-.098-.041-.154-.077ZM51.666 29.996a.115.115 0 0 0-.042.01c-.206-.032-.4-.027-.605-.05-.096-.01-.197-.033-.3-.043-.027-.002-.063.006-.093.004-.208-.016-.423-.065-.64-.076-.037-.003-.071.005-.108.002-.114-.01-.225-.036-.338-.047-.02-.002-.047.009-.068.007a1.046 1.046 0 0 0-.105-.01c-.245-.014-.457-.02-.674-.036-.173-.016-.344-.018-.515-.032a2.135 2.135 0 0 1-.324-.052c-.164.01-.331-.034-.483-.057-.1-.015-.21-.007-.314-.044-.02.02-.056.007-.08.005-.196-.014-.41-.053-.603-.064-.116-.006-.298-.019-.339.033a.2.2 0 0 0 .085.046c.05-.001.1-.005.15-.011.052 0 .102.01.157.01.145.007.238.031.353.043.088.008.176-.01.235.027.34-.004.684.09 1.061.11.108.006.234.023.356.028.05.004.096-.002.146.003.146.013.276.017.409.026.276.019.533.046.753.045.289.056.61.07.916.1.03.003.053 0 .08.002.025.003.019.017.036.02.017.002.043-.011.054-.009.03.003.045.02.077.024.11.01.224.016.342.025.04.004.082-.003.12 0 .144.013.333.073.42.035.003-.056-.075-.04-.12-.074Z" fill="#2A6678"/><path opacity=".7" d="m45.832 21.246-2.288-.216c-.315 0-.629.014-.943.04l-.474 5.025a34 34 0 0 0 3.652-.605c1.239-.275 2.472-.625 3.58-1.213 1.085-.576 2.05-1.4 2.612-2.45l-6.139-.58Z" fill="#1A586F"/><path d="M46.584 21.172c1.565 1.043 3.49 1.332 5.2.513l-5.2-.513Z" fill="#FFD4C7"/><path fill-rule="evenodd" clip-rule="evenodd" d="M43.023 20.91a.288.288 0 0 0 .065-.007c.331.043.64.05.969.084.154.015.317.044.48.06.045.004.105-.002.15.002.334.027.68.089 1.028.112.057.005.112-.002.17.004.183.017.363.049.544.066.03.003.075-.005.108-.003.057.005.11.014.168.016.392.029.731.046 1.08.074.277.023.55.038.823.061.174.017.355.041.521.071.26.01.52.039.776.085.16.02.334.019.502.062.032-.02.09-.004.127-.001.315.026.659.076.967.098.185.013.477.036.54-.013a.451.451 0 0 0-.14-.052c-.083-.008-.153.006-.237.003-.071-.002-.165-.015-.252-.02-.231-.014-.382-.044-.566-.061-.141-.014-.28 0-.377-.042-.543-.015-1.098-.13-1.699-.17-.172-.012-.377-.036-.567-.047-.082-.008-.153-.005-.233-.012-.234-.022-.441-.032-.655-.049-.441-.035-.854-.076-1.204-.088-.466-.073-.98-.105-1.47-.152-.049-.005-.087-.003-.126-.007-.04-.004-.032-.017-.062-.021s-.064.008-.087.005c-.047-.005-.071-.023-.124-.028-.177-.017-.36-.03-.548-.045-.063-.006-.13-.001-.19-.007-.232-.022-.537-.092-.675-.059-.002.057.122.043.194.082Z" fill="#2A6678"/><path d="M40.913 20.284a1.57 1.57 0 0 0-.501.004c-.162.036-.312.139-.339.28-.045.242.263.426.536.511 1.134.354 2.37.181 3.565.237 1.66.076 3.278.598 4.937.638a.911.911 0 0 0 .33-.035c.101-.037.186-.122.18-.217-.005-.084-.075-.155-.145-.214-.642-.547-1.58-.747-2.474-.792-.894-.045-1.788.042-2.678-.045-1.296-.127-2.586-.617-3.859-.424" fill="#fff"/><path d="M40.754 20.264a.21.21 0 0 1 .025-.068c-.105.007-.21.017-.314.03l.29.038ZM49.23 21.953c-.046-.102-.162-.179-.279-.232-.832-.379-1.834-.037-2.758-.154-.56-.07-1.076-.309-1.616-.461-.954-.27-1.97-.268-2.967-.316-.227-.01-.467-.028-.654-.143a.418.418 0 0 1-.157-.162.387.387 0 0 1-.047-.215 1.172 1.172 0 0 0-.34.018c-.162.036-.312.139-.339.28-.045.242.263.426.536.511 1.134.354 2.37.181 3.565.237 1.66.077 3.278.598 4.937.638h.12Z" fill="#90C5D1"/><path d="m46.832 21.33-8.504-.938c.709.493 1.502.766 2.301.928 1.204.243 6.444.654 8.604.858.202.02.287.008.29-.023a5.624 5.624 0 0 1-2.691-.825Z" fill="#F2A274"/><path d="m38.283 20.287 8.551.808a.13.13 0 0 1 .084.044c.02.024.03.055.028.086a.116.116 0 0 1-.044.078.13.13 0 0 1-.09.027l-8.551-.808a.13.13 0 0 1-.086-.043.117.117 0 0 1-.029-.088.117.117 0 0 1 .046-.079.13.13 0 0 1 .091-.025Z" fill="#63A7B6"/><path d="M46.814 21.31a.12.12 0 0 0 .133-.104.12.12 0 0 0-.111-.127.12.12 0 0 0-.134.104.12.12 0 0 0 .112.128Z" fill="#90C5D1"/><path fill-rule="evenodd" clip-rule="evenodd" d="M38.667 20.628a.26.26 0 0 0 .058-.008c.295.04.568.043.863.074.136.013.282.04.427.054.04.004.094-.002.133 0 .297.024.604.082.914.101.051.005.1-.001.153.003.161.015.321.046.483.06.026.003.064-.005.096-.003.05.005.098.013.15.014.348.025.65.038.959.063.247.02.49.032.734.052.155.014.31.036.463.066.233-.002.472.048.691.077.143.018.298.015.446.056.029-.02.082-.005.116-.001.278.022.585.068.859.087.165.012.424.032.48-.02a.37.37 0 0 0-.122-.049c-.074-.007-.136.008-.211.006-.064-.001-.147-.014-.225-.018-.206-.012-.34-.04-.503-.055-.126-.012-.25.003-.336-.037-.483-.01-.976-.118-1.513-.153-.153-.01-.334-.032-.505-.042-.073-.007-.137-.002-.208-.008-.208-.02-.393-.028-.583-.043-.392-.03-.76-.067-1.072-.075-.414-.068-.87-.096-1.307-.138-.044-.004-.077-.002-.114-.005-.026-.003-.028-.017-.053-.02-.024-.004-.06.008-.077.005-.042-.004-.062-.022-.11-.026-.157-.015-.32-.026-.487-.04-.058-.005-.116 0-.17-.004-.206-.02-.478-.087-.6-.052-.004.056.106.042.17.079Z" fill="#2A6678"/><path d="m56.346 28.069-.481-.046a.072.072 0 0 0-.08.063l-.018.186a.072.072 0 0 0 .067.077l.481.046a.072.072 0 0 0 .08-.063l.018-.187a.072.072 0 0 0-.067-.076ZM61.879 28.591l-.482-.045a.072.072 0 0 0-.08.063l-.018.186a.072.072 0 0 0 .067.077l.482.045c.04.004.077-.024.08-.063l.018-.186a.072.072 0 0 0-.067-.076Z" fill="#F2A274"/><path d="m61.67 29.316-5.742-.542a.21.21 0 0 0-.234.183l-.054.57a.21.21 0 0 0 .196.225l5.742.542a.21.21 0 0 0 .235-.183l.054-.57a.21.21 0 0 0-.196-.225Z" fill="#63A7B6"/><path d="M56.272 29.638a.347.347 0 0 0 .387-.302.347.347 0 0 0-.323-.37.347.347 0 0 0-.387.303.347.347 0 0 0 .323.37ZM61.175 30.101a.347.347 0 0 0 .387-.302.347.347 0 0 0-.323-.37.347.347 0 0 0-.387.303.347.347 0 0 0 .323.37Z" fill="#fff"/><path d="m54.866 27.223 5.514.52c-.038-.145-.172-.256-.22-.403-.11-.332.264-.666.182-1.005-.063-.256-.373-.4-.65-.392-.277.009-.534.13-.792.226a4.499 4.499 0 0 1-1.227.26c-.384.028-.857-.047-.998-.388-.132-.317.113-.65.347-.904.235-.254.494-.57.391-.896-.102-.325-.523-.47-.885-.488a2.954 2.954 0 0 0-1.643.39l-.104.097.085 2.983Z" fill="#FFD4C7"/><path d="m54.221 17.247-1.774-.167-.982-.634a.082.082 0 0 1-.034-.042.077.077 0 0 1 0-.052.08.08 0 0 1 .035-.041.089.089 0 0 1 .054-.012l1.421.134a.088.088 0 0 1 .04.014l1.24.8Z" fill="#63A7B6"/><path d="m54.525 17.278-1.775-.167-1.26-.81 1.776.167 1.26.81ZM53.138 25.254c-.129-.02-.26 0-.389-.006-.13-.006-.27-.041-.348-.14-.128-.161-.027-.394.106-.548.132-.154.31-.296.343-.494.038-.222-.134-.446-.356-.528-.222-.082-.477-.045-.69.055a1.663 1.663 0 0 0-.286.17l-.251 2.658a.175.175 0 0 0 .043.132c.033.037.079.06.129.065l1.693.16c.05.004.1-.01.138-.04a.174.174 0 0 0 .067-.121l.116-1.228a.675.675 0 0 0-.315-.135ZM53.983 25.238l-.178 1.884 1.05.1-.076-2.982c-.315.294-.583.63-.796.998Z" fill="#F2A274"/><path fill-rule="evenodd" clip-rule="evenodd" d="M60.63 29.41a.07.07 0 0 0-.03.011c-.138-.024-.269-.014-.406-.03-.063-.006-.133-.027-.201-.033-.02-.002-.045.007-.064.006-.14-.01-.284-.052-.43-.056-.025-.002-.048.007-.073.005-.076-.007-.151-.029-.227-.036-.013-.001-.032.01-.046.009a.462.462 0 0 0-.07-.007c-.165-.007-.309-.006-.454-.015-.117-.008-.232-.008-.347-.016a.969.969 0 0 1-.217-.042c-.111.014-.223-.024-.325-.042-.067-.012-.141-.001-.21-.035-.014.022-.039.009-.054.008-.132-.008-.276-.04-.405-.045-.079-.003-.201-.01-.23.043.017.015.026.036.059.043a.777.777 0 0 0 .1-.016c.031-.001.07.007.107.007.08.006.159.016.237.03.06.006.119-.015.158.02.23-.014.46.07.714.078.072.002.156.015.239.016.034.004.064-.004.098-.001.098.01.186.008.275.013.169.016.338.023.506.022.194.047.41.052.616.072.02.002.036-.002.053 0s.014.015.025.018c.011.002.029-.012.037-.01.02.002.03.02.05.021.075.007.152.01.231.015.027.003.055-.006.081-.004.097.01.223.063.283.022.001-.057-.052-.037-.08-.07ZM60.607 29.649a.071.071 0 0 0-.03.01c-.137-.024-.268-.014-.406-.03-.063-.006-.132-.026-.2-.033-.02-.002-.045.007-.065.006-.14-.009-.283-.052-.43-.056-.024-.002-.048.007-.072.006-.077-.008-.152-.03-.228-.037-.012-.001-.032.01-.046.009a.477.477 0 0 0-.07-.007c-.165-.007-.308-.005-.454-.015-.117-.007-.232-.007-.347-.016a.971.971 0 0 1-.217-.042c-.11.014-.222-.024-.325-.042-.066-.012-.14 0-.21-.034-.014.021-.038.008-.054.007-.131-.008-.276-.04-.405-.045-.078-.003-.2-.01-.23.043.017.015.026.036.06.044a.81.81 0 0 0 .1-.016c.03-.002.07.006.107.006.08.006.158.016.236.03.06.006.12-.015.159.021.23-.014.459.07.713.078.072.002.157.015.24.016.033.003.063-.004.098-.002.098.01.185.009.275.014.168.015.337.023.506.022.194.047.41.052.616.072.02.002.036-.002.053 0 .017 0 .013.015.024.017.012.002.03-.012.037-.01.02.002.03.02.051.021.074.007.151.01.23.016.028.002.056-.007.082-.004.097.009.222.062.283.022 0-.057-.053-.038-.081-.071ZM60.584 29.887a.07.07 0 0 0-.029.01c-.138-.024-.269-.014-.406-.03-.063-.007-.133-.027-.201-.033-.02-.002-.045.007-.064.006-.14-.01-.284-.052-.43-.056-.025-.002-.048.007-.073.005-.076-.007-.15-.03-.227-.036-.013-.002-.032.01-.046.009a.477.477 0 0 0-.07-.007c-.165-.007-.309-.006-.454-.015-.117-.008-.232-.008-.347-.016a.97.97 0 0 1-.217-.042c-.111.014-.223-.024-.325-.042-.067-.012-.141-.001-.21-.035-.014.022-.039.009-.054.008-.132-.008-.276-.04-.405-.045-.079-.003-.201-.01-.23.042.017.016.026.037.059.044a.791.791 0 0 0 .1-.016c.031-.001.07.007.107.007.08.006.159.016.237.03.06.006.119-.015.158.02.23-.014.46.07.714.078.072.002.156.015.239.016.034.003.064-.004.098-.001.098.009.186.008.275.013.169.016.338.023.506.022.194.047.41.052.616.072.02.002.036-.002.053 0 .017.001.014.015.025.018.011.002.029-.012.037-.01.02.002.03.019.05.021.075.007.152.01.231.015.027.003.055-.006.081-.004.097.01.223.063.283.022.001-.057-.052-.037-.08-.07Z" fill="#2A6678"/><path d="M47.546 25.77c.005-.059-.279-.136-.343-.142a.122.122 0 0 0-.085.024.109.109 0 0 0-.041.075.106.106 0 0 0 .026.08.117.117 0 0 0 .08.04c.066.006.357-.015.363-.076Z" fill="#2A6678"/><path fill-rule="evenodd" clip-rule="evenodd" d="M53.975 27.195c.02 0 .038-.003.057-.009.284.039.55.041.832.071.132.013.272.04.413.054.038.003.09-.003.127 0 .286.022.583.08.88.097.049.005.096-.002.147.002.156.015.313.045.466.06.026.001.065-.007.093-.005.048.005.095.013.144.014.336.023.628.036.927.06.238.019.473.03.707.05.15.012.3.034.447.064.226-.004.456.043.666.073.138.019.287.015.43.055.029-.02.079-.004.111-.002.269.022.566.067.83.086.16.01.41.03.464-.021a.33.33 0 0 0-.118-.05c-.072-.006-.132.009-.204.007-.072-.002-.142-.014-.218-.017-.199-.011-.327-.039-.485-.054-.122-.011-.242.004-.325-.036-.466-.008-.941-.115-1.46-.148-.148-.01-.322-.03-.489-.04-.07-.007-.132-.002-.201-.008-.201-.019-.379-.027-.562-.041-.379-.029-.734-.064-1.034-.072-.4-.066-.84-.092-1.262-.133-.042-.004-.075 0-.11-.005-.034-.004-.027-.017-.05-.02-.025-.003-.059.009-.076.006-.04-.003-.061-.021-.105-.026-.152-.014-.309-.024-.47-.038-.056-.005-.113 0-.165-.004-.199-.018-.46-.085-.58-.05.004.06.11.045.173.08Z" fill="#2A6678"/><path d="m50.266 29.41-2.069-.196-.025.269 2.069.195.025-.269Z" fill="#2A6678"/><path d="m50.5 28.768-.39.858.13.054.39-.858-.13-.054ZM48.595 28.575l-.39.858.13.054.39-.858-.13-.054Z" fill="#2A6678"/><path d="m48.537 28.569 2.021.19a.05.05 0 0 1 .032.017c.008.01.012.021.011.033l-.017.178a.044.044 0 0 1-.017.03.05.05 0 0 1-.034.01l-2.022-.19.026-.268Z" fill="#2E5B69"/><path d="M56.142 27.15a1 1 0 0 0-.354.006.323.323 0 0 0-.154.078.297.297 0 0 0-.087.144c-.034.189.182.331.375.396.8.267 1.673.125 2.517.16 1.171.05 2.311.443 3.484.462a.58.58 0 0 0 .232-.03.199.199 0 0 0 .091-.065.183.183 0 0 0 .038-.102.268.268 0 0 0-.101-.166c-.45-.423-1.113-.572-1.743-.6-.63-.029-1.263.044-1.89-.017-.915-.09-1.824-.464-2.724-.302" fill="#fff"/><path d="M56.03 27.136a.213.213 0 0 1 .018-.054 2.326 2.326 0 0 0-.222.028l.203.026ZM62.007 28.395a.392.392 0 0 0-.196-.18c-.585-.29-1.296-.015-1.948-.1-.395-.052-.758-.234-1.138-.348-.672-.204-1.39-.195-2.094-.225-.16-.007-.33-.019-.46-.107a.328.328 0 0 1-.113-.129.306.306 0 0 1-.03-.164.75.75 0 0 0-.24.016.322.322 0 0 0-.154.078.297.297 0 0 0-.087.144c-.034.189.182.331.374.396.8.268 1.673.125 2.517.16 1.172.05 2.312.443 3.484.463.029-.003.057-.003.085-.004Z" fill="#E1F0FF"/><path d="M56.087 22.204a1.108 1.108 0 0 0-.353.002c-.114.026-.22.099-.24.198-.031.17.186.3.379.36.802.248 1.672.128 2.516.167 1.171.054 2.314.421 3.485.45a.636.636 0 0 0 .233-.025.18.18 0 0 0 .089-.057.164.164 0 0 0 .038-.096.241.241 0 0 0-.102-.15c-.454-.386-1.117-.526-1.747-.558-.63-.032-1.262.03-1.89-.033-.915-.086-1.825-.435-2.724-.297" fill="#fff"/><path d="M55.975 22.19a.136.136 0 0 1 .018-.048 2.689 2.689 0 0 0-.222.023l.204.025ZM61.959 23.38a.389.389 0 0 0-.198-.163c-.587-.267-1.294-.026-1.947-.109-.396-.05-.759-.218-1.14-.326-.674-.19-1.391-.191-2.095-.222-.16-.008-.33-.02-.46-.104a.293.293 0 0 1-.112-.113.27.27 0 0 1-.032-.152.844.844 0 0 0-.241.012c-.114.026-.22.1-.24.198-.031.17.187.3.38.36.801.249 1.671.128 2.516.168 1.17.054 2.313.42 3.485.449.028 0 .055.003.084.003Z" fill="#E1F0FF"/><path d="M51.633 16.129a.232.232 0 0 0-.11.006.128.128 0 0 0-.052.038.12.12 0 0 0-.025.058.153.153 0 0 0 .027.098c.02.03.05.052.084.064.245.104.519.035.78.04.364.009.714.163 1.077.159a.156.156 0 0 0 .073-.015.093.093 0 0 0 .03-.032.086.086 0 0 0 .012-.041.116.116 0 0 0-.03-.07c-.135-.172-.34-.228-.535-.234-.195-.005-.392.033-.587.014-.283-.027-.56-.174-.842-.099" fill="#fff"/><path d="M51.598 16.124a.151.151 0 0 1 .006-.023.86.86 0 0 0-.07.014l.064.009Z" fill="#E1F0FF"/><path d="M53.44 16.59a.133.133 0 0 0-.057-.073c-.18-.116-.402.007-.604-.022-.122-.017-.232-.09-.349-.135-.206-.08-.43-.067-.648-.072a.208.208 0 0 1-.142-.04.142.142 0 0 1-.04-.124.187.187 0 0 0-.075.008.128.128 0 0 0-.052.039.12.12 0 0 0-.025.057.153.153 0 0 0 .027.1c.02.029.05.05.084.063.245.104.519.034.78.04.364.008.714.163 1.077.159h.024Z" fill="#E1F0FF"/><path d="M54.866 16.871a.592.592 0 0 0-.27.014.31.31 0 0 0-.127.09.29.29 0 0 0-.063.137c-.03.19.132.326.277.386.605.25 1.276.087 1.92.103.895.024 1.757.391 2.652.384a.349.349 0 0 0 .179-.034.212.212 0 0 0 .075-.075.2.2 0 0 0 .028-.099.27.27 0 0 0-.074-.163c-.334-.412-.837-.546-1.319-.56-.481-.015-.966.073-1.445.025-.696-.066-1.382-.422-2.073-.24" fill="#fff"/><path d="M54.78 16.859a.272.272 0 0 1 .015-.054 1.466 1.466 0 0 0-.17.033l.154.02ZM59.32 17.983a.324.324 0 0 0-.146-.175c-.44-.277-.99.013-1.486-.057-.301-.042-.574-.216-.862-.322-.51-.188-1.059-.164-1.596-.178-.122-.004-.253-.012-.35-.097a.352.352 0 0 1-.084-.134.332.332 0 0 1-.015-.154.449.449 0 0 0-.184.02.311.311 0 0 0-.126.09.288.288 0 0 0-.063.137c-.03.19.131.327.277.387.604.249 1.275.087 1.92.102.894.025 1.757.392 2.652.385l.063-.004Z" fill="#E1F0FF"/><path d="M50.702 16.532a.904.904 0 0 1-.353-.27.834.834 0 0 1-.17-.399c.134-.207.443-.216.699-.256.256-.041.553-.237.46-.467-.055-.137-.221-.197-.37-.241l-1.173-.351c-.206-.063-.417-.127-.586-.255-.17-.127-.286-.335-.24-.533.046-.197.306-.34.493-.237.01-.27-.306-.454-.59-.488-.282-.035-.582.015-.854-.074s-.494-.413-.322-.627c.086-.106.237-.144.377-.171a10.202 10.202 0 0 1 4.93.25c.216.066.474.204.444.413-.029.2-.29.273-.5.297l-1.286.165c-.236.03-.534.122-.536.346-.002.143.13.257.264.325.31.159.674.184 1.004.296.33.112.66.374.638.703-.02.299-.32.51-.627.587-.308.076-.628.057-.937.113-.31.055-.632.219-.718.504-.086.285.227.644.516.529" fill="#90C5D1"/><path d="M47.81 16.319a.847.847 0 0 0-.296.005.276.276 0 0 0-.13.066.253.253 0 0 0-.073.12c-.028.16.154.28.315.334.671.225 1.405.105 2.114.134.984.04 1.94.373 2.925.389a.492.492 0 0 0 .193-.026.167.167 0 0 0 .077-.056.155.155 0 0 0 .032-.088.224.224 0 0 0-.088-.14c-.377-.356-.934-.482-1.463-.505-.53-.024-1.06.038-1.587-.014-.768-.072-1.53-.39-2.287-.253" fill="#fff"/><path d="M47.716 16.306a.165.165 0 0 1 .015-.045 1.907 1.907 0 0 0-.185.023l.17.022ZM52.736 17.365a.33.33 0 0 0-.165-.154c-.49-.244-1.088-.012-1.636-.084-.331-.043-.635-.197-.955-.294-.564-.173-1.168-.164-1.76-.19-.134-.005-.277-.015-.387-.09a.277.277 0 0 1-.094-.108.259.259 0 0 1-.024-.138.632.632 0 0 0-.203.013.276.276 0 0 0-.129.067.254.254 0 0 0-.073.12c-.029.16.153.28.314.334.671.225 1.405.104 2.114.133.984.04 1.94.373 2.925.39a.493.493 0 0 0 .073.001Z" fill="#90C5D1"/></g><path d="M39.692 34.54c.047-.495.427-.845 1.05-.786.237.023.467.089.676.194l.073-.406a2.917 2.917 0 0 0-.773-.175c-.906-.085-1.506.327-1.585 1.156-.028.226.01.457.11.668.24.017.466.03.681.039a.832.832 0 0 1-.232-.69Z" fill="#00686D"/><path d="m40.365 34.803.566.053-.037.391a17.3 17.3 0 0 0 .517-.011l.067-.71-1.077-.102-.036.379ZM42.49 34.947l.951.09.036-.382-.952-.09.057-.596 1.038.098.035-.379-1.573-.148-.157 1.667c.188-.013.368-.03.544-.047l.02-.213ZM44.478 33.764l-.574-.054.342 1.246c.168-.017.342-.033.526-.046l-.294-1.146ZM45.39 34.871c.187-.01.37-.016.55-.021l.438-.907-.53-.05-.458.978ZM47.157 34.401l1.04.098.036-.378-1.575-.15-.082.87c.184 0 .363.004.54.009l.041-.449ZM49.173 34.592l.175.017c.268.025.564.077.536.369a.32.32 0 0 1-.048.147c.18.032.357.065.53.101a.538.538 0 0 0 .08-.237c.064-.673-.622-.72-1.195-.774l-.578-.055-.074.79c.182.017.36.04.534.065l.04-.423ZM51.399 35.1c.025-.264.268-.315.452-.297.187.018.368.071.533.155l.087-.394c-.2-.08-.413-.129-.63-.147-.47-.044-.951.11-1.002.65-.01.09-.001.18.027.268.456.104.892.219 1.318.336-.326-.232-.81-.301-.785-.571ZM53.752 34.64l-.73-.069-.123 1.3.526.146.096-1.014.298.028c.447.042.85.385.8.912a.825.825 0 0 1-.116.358c.188.045.378.088.57.129a1.44 1.44 0 0 0 .105-.434c.091-.96-.61-1.279-1.425-1.356ZM56.08 36.272l.132-1.4-.535-.05-.146 1.546a1.385 1.385 0 0 0-.005.152c.185.034.375.066.568.094a1.11 1.11 0 0 1-.014-.342ZM57.19 36.377a1.07 1.07 0 0 1-.087.354c.187.018.38.027.576.035.016-.062.026-.125.033-.188l.146-1.55-.537-.05-.132 1.399ZM58.207 36.777c.176.002.356 0 .54-.005l.156-1.645-.536-.051-.16 1.7Z" fill="#00686D"/><path d="M40.877 35.437a19.904 19.904 0 0 1-1.656-.058c.202.398.651.625 1.24.68.293.02.588.006.876-.043l.055-.59c-.162.005-.334.01-.516.01ZM42.451 35.35c-.176.017-.356.033-.544.046l-.071.75 1.583.15.035-.379-1.047-.099.044-.469ZM45.373 35.06c-.16.009-.318.018-.48.029l-.138.01c-.184.014-.358.03-.526.046l.346 1.26.658.063.69-1.43c-.18.006-.364.013-.55.023ZM47.047 35.569l.953.09.036-.382-.953-.09.019-.194a22.955 22.955 0 0 0-.54-.008l-.15 1.594 1.582.15.036-.38-1.047-.098.064-.682ZM50.084 35.97c-.042-.112-.115-.252-.26-.276l.001-.006c.107 0 .21-.025.303-.073a.577.577 0 0 0 .22-.2 19.96 19.96 0 0 0-1.233-.212 19.6 19.6 0 0 0-.534-.065l-.154 1.631.535.05.095-1.005.172.017c.226.021.288.097.348.284l.25.788.595.057-.338-.99ZM52.167 35.86a31.728 31.728 0 0 0-1.318-.336c.18.522 1.078.513 1.04.915-.02.218-.3.286-.503.267a1.4 1.4 0 0 1-.59-.206l-.093.432c.258.084.385.131.675.159.54.05 1.02-.107 1.07-.637a.572.572 0 0 0-.05-.331.65.65 0 0 0-.231-.262ZM54.486 36.49c-.365-.088-.72-.183-1.08-.282l-.526-.146-.105 1.118.73.07c.676.063 1.301-.05 1.55-.63-.192-.041-.382-.084-.569-.13ZM57.084 36.918c-.35-.028-.684-.065-1.008-.115-.192-.028-.382-.06-.568-.094.01.544.38.807 1.008.867.613.057 1.021-.12 1.144-.623-.194-.008-.389-.02-.576-.035ZM58.12 37.685l.535.05.073-.774a15.36 15.36 0 0 1-.54.005l-.067.72ZM59.16 37.783l.513.049.087-.926c-.177.014-.35.026-.52.035l-.08.842ZM60.952 36.776l-.29.038c-.148.018-.293.034-.437.05l.475 1.065.654.062.122-1.293c-.178.028-.353.054-.524.078Z" fill="#00AA8F"/><path d="m60.064 35.236-.657-.062-.15 1.578c.17-.01.344-.02.52-.035l.084-.884h.008l.374.841c.144-.015.289-.03.438-.05l-.617-1.388ZM61.088 35.333l-.118 1.254c.171-.024.346-.05.524-.078l.107-1.127-.513-.049Z" fill="#00686D"/><path d="M37.21 34.12a.216.216 0 0 1-.06.161.261.261 0 0 1-.165.08 12.515 12.515 0 0 1-5.88-.776 11.874 11.874 0 0 0-5.652-.756c-1.108.074-2.2.29-3.246.643-.771.286-1.513.634-2.216 1.04l-.102.055a12.37 12.37 0 0 1-5.557 1.688 12.49 12.49 0 0 1-5.863-.782 11.896 11.896 0 0 0-5.655-.755.264.264 0 0 1-.175-.05.219.219 0 0 1-.058-.066.202.202 0 0 1-.025-.082.212.212 0 0 1 .057-.161.257.257 0 0 1 .165-.08 12.482 12.482 0 0 1 5.866.78c1.784.656 3.722.914 5.652.753a13.238 13.238 0 0 0 5.45-1.679.895.895 0 0 1 .102-.052c.618-.349 1.263-.656 1.93-.919a12.947 12.947 0 0 1 3.624-.771c2.006-.211 4.03.058 5.87.78 1.768.703 3.719.963 5.65.753a.27.27 0 0 1 .193.04c.027.018.05.041.066.068a.205.205 0 0 1 .03.088Zm-.004 2.9a11.873 11.873 0 0 1-5.652-.766 12.515 12.515 0 0 0-5.87-.78 13.637 13.637 0 0 0-3.247.627c-.808.285-1.585.64-2.32 1.061l-.077.053a13.205 13.205 0 0 1-5.45 1.682 13.206 13.206 0 0 1-5.653-.755 12.525 12.525 0 0 0-5.866-.782.257.257 0 0 0-.163.08.212.212 0 0 0-.059.158.215.215 0 0 0 .083.151.261.261 0 0 0 .176.054 11.944 11.944 0 0 1 5.655.752 12.49 12.49 0 0 0 5.862.782 12.366 12.366 0 0 0 5.557-1.691l.102-.052a16.894 16.894 0 0 1 1.761-.872 12.382 12.382 0 0 1 3.677-.806 11.92 11.92 0 0 1 5.64.767c1.84.722 3.864.992 5.87.78a.269.269 0 0 0 .187-.07.225.225 0 0 0 .055-.08.204.204 0 0 0-.015-.181.224.224 0 0 0-.067-.07.267.267 0 0 0-.196-.038l.01-.004Zm.259 3.098a11.874 11.874 0 0 1-5.651-.756 12.564 12.564 0 0 0-5.87-.777 13.267 13.267 0 0 0-3.343.668c-.77.276-1.51.618-2.21 1.02l-.102.051a13.203 13.203 0 0 1-5.45 1.682 13.204 13.204 0 0 1-5.653-.756 12.532 12.532 0 0 0-5.866-.777.254.254 0 0 0-.164.078.209.209 0 0 0-.058.16.21.21 0 0 0 .083.148.254.254 0 0 0 .175.05 11.894 11.894 0 0 1 5.655.755 12.49 12.49 0 0 0 5.863.781 12.37 12.37 0 0 0 5.557-1.687l.102-.055a14.887 14.887 0 0 1 2.216-1.04 12.826 12.826 0 0 1 3.246-.643c1.925-.203 3.866.06 5.626.76 1.84.724 3.864.993 5.87.782a.27.27 0 0 0 .187-.07.225.225 0 0 0 .054-.08.204.204 0 0 0-.015-.182.224.224 0 0 0-.067-.07.267.267 0 0 0-.196-.038l.01-.004Zm.258 3.098a11.875 11.875 0 0 1-5.65-.755 12.555 12.555 0 0 0-5.87-.771 13.454 13.454 0 0 0-3.247.63c-.809.284-1.586.64-2.32 1.062a.905.905 0 0 0-.103.051 13.203 13.203 0 0 1-5.45 1.682 13.204 13.204 0 0 1-5.652-.755 12.525 12.525 0 0 0-5.852-.783.258.258 0 0 0-.167.08.212.212 0 0 0-.058.162.212.212 0 0 0 .084.15c.05.038.113.056.178.051 1.932-.21 3.883.047 5.654.745 1.837.724 3.858.995 5.863.785a12.366 12.366 0 0 0 5.557-1.69l.102-.056c.567-.321 1.155-.61 1.76-.865 3.003-1.117 6.347-1.139 9.328-.06 1.839.724 3.863.994 5.87.784a.262.262 0 0 0 .167-.081.215.215 0 0 0 .058-.164.211.211 0 0 0-.081-.145.257.257 0 0 0-.17-.053v-.004Z" fill="#0A4563" opacity=".2"/><g opacity=".2" fill="#0A4563"><path d="M37.387 23.1c-2.804.233-5.482 1.215-7.696 2.822-2.214 1.607-3.864 3.767-4.742 6.206a11.793 11.793 0 0 0-.188 7.497c.755 2.449 2.296 4.627 4.428 6.26 2.133 1.634 4.761 2.648 7.552 2.915 2.792.267 5.621-.225 8.13-1.415 2.51-1.189 4.587-3.022 5.968-5.266 1.381-2.245 2.005-4.8 1.793-7.344-.29-3.407-2.059-6.549-4.916-8.737-2.857-2.188-6.571-3.245-10.33-2.939Zm2.07 24.818c-2.608.218-5.217-.27-7.496-1.404-2.28-1.133-4.127-2.86-5.308-4.963a10.972 10.972 0 0 1-1.328-6.85c.315-2.363 1.394-4.6 3.099-6.427 1.705-1.828 3.96-3.163 6.48-3.838 2.521-.675 5.193-.66 7.679.046 2.486.704 4.673 2.066 6.287 3.913 1.613 1.847 2.579 4.096 2.775 6.463.26 3.17-.877 6.326-3.162 8.774-2.284 2.449-5.53 3.99-9.025 4.286Z"/><path d="M37.53 24.804c-2.433.202-4.756 1.054-6.677 2.448-1.92 1.394-3.352 3.267-4.113 5.383a10.23 10.23 0 0 0-.164 6.503c.655 2.125 1.992 4.015 3.842 5.431 1.85 1.417 4.13 2.297 6.55 2.529a13.519 13.519 0 0 0 7.053-1.227c2.177-1.032 3.978-2.622 5.177-4.569 1.198-1.947 1.74-4.164 1.555-6.37-.25-2.956-1.783-5.683-4.262-7.581-2.479-1.899-5.702-2.815-8.962-2.547Zm1.822 21.842c-2.33.195-4.662-.241-6.698-1.254-2.036-1.012-3.687-2.555-4.742-4.433a9.804 9.804 0 0 1-1.187-6.12c.281-2.111 1.244-4.11 2.767-5.742 1.523-1.633 3.538-2.826 5.79-3.43a12.954 12.954 0 0 1 6.859.04c2.22.629 4.176 1.845 5.617 3.495 1.442 1.65 2.306 3.659 2.482 5.773.233 2.833-.782 5.654-2.823 7.841-2.041 2.189-4.942 3.566-8.065 3.83Z"/><path d="M37.904 29.296c-1.452.12-2.84.629-3.988 1.461-1.147.833-2.002 1.952-2.457 3.215a6.11 6.11 0 0 0-.098 3.885c.39 1.269 1.189 2.398 2.294 3.244 1.105.846 2.466 1.372 3.913 1.51a8.074 8.074 0 0 0 4.212-.732c1.3-.616 2.376-1.566 3.092-2.73a6.252 6.252 0 0 0 .93-3.804c-.15-1.765-1.066-3.393-2.546-4.527-1.48-1.134-3.405-1.681-5.352-1.522Zm1.073 12.858a7.365 7.365 0 0 1-3.883-.726c-1.18-.587-2.138-1.481-2.75-2.57a5.683 5.683 0 0 1-.689-3.548c.163-1.224.721-2.383 1.604-3.33a7.098 7.098 0 0 1 3.356-1.988 7.51 7.51 0 0 1 3.977.023c1.288.365 2.421 1.07 3.257 2.026a5.816 5.816 0 0 1 1.439 3.347c.135 1.642-.453 3.277-1.636 4.545-1.183 1.269-2.864 2.067-4.675 2.22Z"/></g><defs><clipPath id="a"><path fill="#fff" transform="rotate(5.397 -95.997 419.663)" d="M0 0h24.813v18.976H0z"/></clipPath></defs></svg>